M48
;DRILL file {Pcbnew (2011-12-28 BZR 3254)-stable} date 2012. 03. 22. 18:33:18
;FORMAT={-:-/ absolute / metric / decimal}
FMAT,2
METRIC,TZ
T1C0.635
T2C0.813
T3C1.016
T4C2.301
%
G90
G05
M71
T1
X19.050Y43.180
X20.320Y36.830
X24.130Y39.370
X25.400Y36.830
X26.670Y20.320
X42.545Y47.625
X52.070Y20.320
X53.975Y36.195
X53.975Y44.450
X55.245Y45.720
X57.785Y41.910
T2
X13.970Y13.970
X13.970Y30.480
X13.970Y33.020
X13.970Y35.560
X13.970Y38.100
X13.970Y40.640
X13.970Y43.180
X13.970Y46.355
X13.970Y52.070
X13.970Y59.690
X16.510Y13.970
X16.510Y46.355
X19.050Y13.970
X19.050Y19.050
X19.050Y21.590
X20.955Y50.546
X20.955Y52.545
X21.590Y13.970
X22.225Y43.815
X22.225Y46.355
X23.495Y50.546
X23.495Y52.545
X24.130Y13.970
X24.130Y26.670
X26.670Y13.970
X26.670Y26.670
X26.670Y45.720
X29.210Y13.970
X29.210Y26.670
X29.210Y45.720
X31.115Y49.530
X31.115Y52.070
X31.750Y13.970
X31.750Y26.670
X31.750Y30.480
X31.750Y33.020
X31.750Y35.560
X31.750Y38.100
X31.750Y40.640
X31.750Y43.180
X31.750Y45.720
X34.290Y13.970
X34.290Y26.670
X36.830Y35.560
X36.830Y38.100
X36.830Y40.640
X36.830Y43.180
X36.830Y52.070
X36.830Y54.610
X36.830Y57.150
X36.830Y59.690
X39.370Y13.970
X41.910Y13.970
X44.450Y13.970
X44.450Y19.050
X44.450Y21.590
X44.450Y52.070
X44.450Y54.610
X44.450Y57.150
X44.450Y59.690
X46.990Y13.970
X48.260Y52.070
X48.260Y54.610
X48.260Y57.150
X48.260Y59.690
X49.530Y13.970
X49.530Y26.670
X52.070Y13.970
X52.070Y26.670
X52.070Y52.070
X52.070Y54.610
X52.070Y57.150
X52.070Y59.690
X54.610Y13.970
X54.610Y26.670
X57.150Y13.970
X57.150Y26.670
X59.690Y13.970
X59.690Y26.670
X59.690Y30.480
X59.690Y33.020
X59.690Y35.560
X59.690Y38.100
X59.690Y40.640
X59.690Y43.180
X59.690Y45.720
X59.690Y48.260
X59.690Y52.070
X59.690Y54.610
X59.690Y57.150
X59.690Y59.690
T3
X45.720Y31.750
X45.720Y34.290
X45.720Y36.830
X45.720Y39.370
X45.720Y41.910
X45.720Y44.450
X45.720Y46.990
X50.800Y30.480
X50.800Y33.020
X50.800Y35.560
X50.800Y38.100
X50.800Y40.640
X50.800Y43.180
X50.800Y45.720
X50.800Y48.260
T4
X16.226Y55.245
T0
M30
