<?xml version="1.0" standalone="no"?>
<!DOCTYPE svg PUBLIC "-//W3C//DTD SVG 20010904//EN" 
"http://www.w3.org/TR/2001/REC-SVG-20010904/DTD/svg10.dtd"> 
<svg xmlns="http://www.w3.org/2000/svg" xmlns:xlink="http://www.w3.org/1999/xlink" 
    width="29.72cm" height="21.00cm" viewBox="0 0 117000 82670 "> 
<title>SVG Picture created as eMA1-SilkS_Front.svg </title>
<desc>Picture generated by wxSVG v0100 </desc>
<g style="fill:black; stroke:black; stroke-width:1">
</g>
<g style="fill:#000000; fill-opacity:0.0; stroke:#FFFF00; stroke-opacity:1.00; stroke-linecap:round; stroke-linejoin:round; stroke-width:150" 
   transform="translate(0.00 0.00) scale(1.00 1.00)">
<path d="M4724 24409 L4724 4724" /> 
<path d="M24409 24409 L4724 24409" /> 
<path d="M24409 4724 L24409 24409" /> 
<path d="M4724 4724 L24409 4724" /> 
</g>
<g style="fill:#FFFF00; fill-opacity:0.0; stroke:#FFFF00; stroke-opacity:1.00; stroke-linecap:round; stroke-linejoin:round; stroke-width:150" 
   transform="translate(0.00 0.00) scale(1.00 1.00)">
<ellipse cx="4724" cy="4724" rx="1250" ry="1250"  /> 
<path d="M2224 4724 L7224 4724" /> 
<path d="M4724 2224 L4724 7224" /> 
</g>
<g style="fill:#FFFF00; fill-opacity:0.0; stroke:#0000C0; stroke-opacity:1.00; stroke-linecap:round; stroke-linejoin:round; stroke-width:0" 
   transform="translate(0.00 0.00) scale(1.00 1.00)">
<path d="M12687 19685 L12691 19685" /> 
<path d="M12689 19683 L12689 19687" /> 
</g>
<g style="fill:#C0C0C0; fill-opacity:0.0; stroke:#C0C0C0; stroke-opacity:1.00; stroke-linecap:round; stroke-linejoin:round; stroke-width:50" 
   transform="translate(0.00 0.00) scale(1.00 1.00)">
<path d="M12851 20124 L12451 20124" /> 
<g style = "stroke-linecap:round;" > 
<path d="M12451 20124 L12451 20124" /> 
</g><path d="M12813 19653 L12832 19674" /> 
<path d="M12832 19674 L12851 19738" /> 
<path d="M12851 19738 L12851 19781" /> 
<path d="M12851 19781 L12832 19846" /> 
<path d="M12832 19846 L12794 19888" /> 
<path d="M12794 19888 L12756 19910" /> 
<path d="M12756 19910 L12679 19931" /> 
<path d="M12679 19931 L12622 19931" /> 
<path d="M12622 19931 L12546 19910" /> 
<path d="M12546 19910 L12508 19888" /> 
<path d="M12508 19888 L12470 19846" /> 
<path d="M12470 19846 L12451 19781" /> 
<path d="M12451 19781 L12451 19738" /> 
<path d="M12451 19738 L12470 19674" /> 
<path d="M12470 19674 L12489 19653" /> 
<g style = "stroke-linecap:round;" > 
<path d="M12489 19653 L12489 19653" /> 
</g><path d="M12851 19224 L12851 19481" /> 
<g style = "stroke-linecap:round;" > 
<path d="M12851 19481 L12851 19481" /> 
</g><path d="M12851 19353 L12451 19353" /> 
<path d="M12451 19353 L12508 19396" /> 
<path d="M12508 19396 L12546 19438" /> 
<path d="M12546 19438 L12565 19481" /> 
<g style = "stroke-linecap:round;" > 
<path d="M12565 19481 L12565 19481" /> 
</g></g>
<g style="fill:#C0C0C0; fill-opacity:0.0; stroke:#0000C0; stroke-opacity:1.00; stroke-linecap:round; stroke-linejoin:round; stroke-width:0" 
   transform="translate(0.00 0.00) scale(1.00 1.00)">
<path d="M13687 19685 L13691 19685" /> 
<path d="M13689 19683 L13689 19687" /> 
</g>
<g style="fill:#C0C0C0; fill-opacity:0.0; stroke:#C0C0C0; stroke-opacity:1.00; stroke-linecap:round; stroke-linejoin:round; stroke-width:50" 
   transform="translate(0.00 0.00) scale(1.00 1.00)">
<path d="M13851 21399 L13451 21399" /> 
<path d="M13451 21399 L13451 21246" /> 
<path d="M13451 21246 L13470 21208" /> 
<path d="M13470 21208 L13489 21189" /> 
<path d="M13489 21189 L13527 21170" /> 
<path d="M13527 21170 L13584 21170" /> 
<path d="M13584 21170 L13622 21189" /> 
<path d="M13622 21189 L13641 21208" /> 
<path d="M13641 21208 L13660 21246" /> 
<path d="M13660 21246 L13660 21399" /> 
<g style = "stroke-linecap:round;" > 
<path d="M13660 21399 L13660 21399" /> 
</g><path d="M13851 20999 L13451 20999" /> 
<g style = "stroke-linecap:round;" > 
<path d="M13451 20999 L13451 20999" /> 
</g><path d="M13813 20580 L13832 20599" /> 
<path d="M13832 20599 L13851 20656" /> 
<path d="M13851 20656 L13851 20694" /> 
<path d="M13851 20694 L13832 20752" /> 
<path d="M13832 20752 L13794 20790" /> 
<path d="M13794 20790 L13756 20809" /> 
<path d="M13756 20809 L13679 20828" /> 
<path d="M13679 20828 L13622 20828" /> 
<path d="M13622 20828 L13546 20809" /> 
<path d="M13546 20809 L13508 20790" /> 
<path d="M13508 20790 L13470 20752" /> 
<path d="M13470 20752 L13451 20694" /> 
<path d="M13451 20694 L13451 20656" /> 
<path d="M13451 20656 L13470 20599" /> 
<path d="M13470 20599 L13489 20580" /> 
<g style = "stroke-linecap:round;" > 
<path d="M13489 20580 L13489 20580" /> 
</g><path d="M13851 20199 L13851 20428" /> 
<g style = "stroke-linecap:round;" > 
<path d="M13851 20428 L13851 20428" /> 
</g><path d="M13851 20314 L13451 20314" /> 
<path d="M13451 20314 L13508 20352" /> 
<path d="M13508 20352 L13546 20390" /> 
<path d="M13546 20390 L13565 20428" /> 
<g style = "stroke-linecap:round;" > 
<path d="M13565 20428 L13565 20428" /> 
</g><path d="M13451 19856 L13451 19933" /> 
<path d="M13451 19933 L13470 19971" /> 
<path d="M13470 19971 L13489 19990" /> 
<path d="M13489 19990 L13546 20028" /> 
<path d="M13546 20028 L13622 20047" /> 
<path d="M13622 20047 L13775 20047" /> 
<path d="M13775 20047 L13813 20028" /> 
<path d="M13813 20028 L13832 20009" /> 
<path d="M13832 20009 L13851 19971" /> 
<path d="M13851 19971 L13851 19894" /> 
<path d="M13851 19894 L13832 19856" /> 
<path d="M13832 19856 L13813 19837" /> 
<path d="M13813 19837 L13775 19818" /> 
<path d="M13775 19818 L13679 19818" /> 
<path d="M13679 19818 L13641 19837" /> 
<path d="M13641 19837 L13622 19856" /> 
<path d="M13622 19856 L13603 19894" /> 
<path d="M13603 19894 L13603 19971" /> 
<path d="M13603 19971 L13622 20009" /> 
<path d="M13622 20009 L13641 20028" /> 
<path d="M13641 20028 L13679 20047" /> 
<g style = "stroke-linecap:round;" > 
<path d="M13679 20047 L13679 20047" /> 
</g><path d="M13641 19513 L13641 19647" /> 
<g style = "stroke-linecap:round;" > 
<path d="M13641 19647 L13641 19647" /> 
</g><path d="M13851 19647 L13451 19647" /> 
<path d="M13451 19647 L13451 19456" /> 
<g style = "stroke-linecap:round;" > 
<path d="M13451 19456 L13451 19456" /> 
</g><path d="M13851 19094 L13851 19323" /> 
<g style = "stroke-linecap:round;" > 
<path d="M13851 19323 L13851 19323" /> 
</g><path d="M13851 19209 L13451 19209" /> 
<path d="M13451 19209 L13508 19247" /> 
<path d="M13508 19247 L13546 19285" /> 
<path d="M13546 19285 L13565 19323" /> 
<g style = "stroke-linecap:round;" > 
<path d="M13565 19323 L13565 19323" /> 
</g><path d="M13622 18866 L13603 18904" /> 
<path d="M13603 18904 L13584 18923" /> 
<path d="M13584 18923 L13546 18942" /> 
<path d="M13546 18942 L13527 18942" /> 
<path d="M13527 18942 L13489 18923" /> 
<path d="M13489 18923 L13470 18904" /> 
<path d="M13470 18904 L13451 18866" /> 
<path d="M13451 18866 L13451 18789" /> 
<path d="M13451 18789 L13470 18751" /> 
<path d="M13470 18751 L13489 18732" /> 
<path d="M13489 18732 L13527 18713" /> 
<path d="M13527 18713 L13546 18713" /> 
<path d="M13546 18713 L13584 18732" /> 
<path d="M13584 18732 L13603 18751" /> 
<path d="M13603 18751 L13622 18789" /> 
<path d="M13622 18789 L13622 18866" /> 
<path d="M13622 18866 L13641 18904" /> 
<path d="M13641 18904 L13660 18923" /> 
<path d="M13660 18923 L13699 18942" /> 
<path d="M13699 18942 L13775 18942" /> 
<path d="M13775 18942 L13813 18923" /> 
<path d="M13813 18923 L13832 18904" /> 
<path d="M13832 18904 L13851 18866" /> 
<path d="M13851 18866 L13851 18789" /> 
<path d="M13851 18789 L13832 18751" /> 
<path d="M13832 18751 L13813 18732" /> 
<path d="M13813 18732 L13775 18713" /> 
<path d="M13775 18713 L13699 18713" /> 
<path d="M13699 18713 L13660 18732" /> 
<path d="M13660 18732 L13641 18751" /> 
<path d="M13641 18751 L13622 18789" /> 
<g style = "stroke-linecap:round;" > 
<path d="M13622 18789 L13622 18789" /> 
</g><path d="M13489 18561 L13470 18542" /> 
<path d="M13470 18542 L13451 18504" /> 
<path d="M13451 18504 L13451 18408" /> 
<path d="M13451 18408 L13470 18370" /> 
<path d="M13470 18370 L13489 18351" /> 
<path d="M13489 18351 L13527 18332" /> 
<path d="M13527 18332 L13565 18332" /> 
<path d="M13565 18332 L13622 18351" /> 
<path d="M13622 18351 L13851 18580" /> 
<path d="M13851 18580 L13851 18332" /> 
<g style = "stroke-linecap:round;" > 
<path d="M13851 18332 L13851 18332" /> 
</g><path d="M13584 17989 L13851 17989" /> 
<g style = "stroke-linecap:round;" > 
<path d="M13851 17989 L13851 17989" /> 
</g><path d="M13432 18085 L13718 18180" /> 
<path d="M13718 18180 L13718 17932" /> 
<g style = "stroke-linecap:round;" > 
<path d="M13718 17932 L13718 17932" /> 
</g></g>
<g style="fill:#C0C0C0; fill-opacity:0.0; stroke:#00A0A0; stroke-opacity:1.00; stroke-linecap:round; stroke-linejoin:round; stroke-width:80" 
   transform="translate(0.00 0.00) scale(1.00 1.00)">
<path d="M12289 17685 L14189 17685" /> 
<path d="M14189 17685 L14189 21685" /> 
<path d="M14189 21685 L12289 21685" /> 
<path d="M12289 21685 L12289 17685" /> 
<path d="M12989 21685 L12989 21435" /> 
<path d="M12989 21435 L13489 21435" /> 
<path d="M13489 21435 L13489 21685" /> 
</g>
<g style="fill:#808000; fill-opacity:0.0; stroke:#808000; stroke-opacity:1.00; stroke-linecap:round; stroke-linejoin:round; stroke-width:59" 
   transform="translate(0.00 0.00) scale(1.00 1.00)">
<path d="M14979 23347 L14979 23897" /> 
<path d="M14979 23897 L14429 23897" /> 
<path d="M14429 23897 L14429 23347" /> 
<path d="M14979 23347 L14429 23347" /> 
<ellipse cx="13704" cy="23622" rx="275" ry="275"  /> 
<ellipse cx="12704" cy="23622" rx="275" ry="275"  /> 
<ellipse cx="11704" cy="23622" rx="275" ry="275"  /> 
<ellipse cx="10704" cy="23622" rx="275" ry="275"  /> 
<ellipse cx="9704" cy="23622" rx="275" ry="275"  /> 
</g>
<g style="fill:#808000; fill-opacity:0.0; stroke:#0000C0; stroke-opacity:1.00; stroke-linecap:round; stroke-linejoin:round; stroke-width:0" 
   transform="translate(0.00 0.00) scale(1.00 1.00)">
<path d="M12202 24622 L12206 24622" /> 
<path d="M12204 24620 L12204 24624" /> 
</g>
<g style="fill:#C0C0C0; fill-opacity:0.0; stroke:#C0C0C0; stroke-opacity:1.00; stroke-linecap:round; stroke-linejoin:round; stroke-width:107" 
   transform="translate(0.00 0.00) scale(1.00 1.00)">
<path d="M11888 24897 L11888 24216" /> 
<path d="M11888 24216 L12051 24216" /> 
<path d="M12051 24216 L12092 24249" /> 
<path d="M12092 24249 L12112 24281" /> 
<path d="M12112 24281 L12132 24346" /> 
<path d="M12132 24346 L12132 24443" /> 
<path d="M12132 24443 L12112 24508" /> 
<path d="M12112 24508 L12092 24540" /> 
<path d="M12092 24540 L12051 24573" /> 
<path d="M12051 24573 L11888 24573" /> 
<g style = "stroke-linecap:round;" > 
<path d="M11888 24573 L11888 24573" /> 
</g><path d="M12275 24216 L12540 24216" /> 
<path d="M12540 24216 L12397 24476" /> 
<path d="M12397 24476 L12459 24476" /> 
<path d="M12459 24476 L12499 24508" /> 
<path d="M12499 24508 L12520 24540" /> 
<path d="M12520 24540 L12540 24605" /> 
<path d="M12540 24605 L12540 24767" /> 
<path d="M12540 24767 L12520 24832" /> 
<path d="M12520 24832 L12499 24865" /> 
<path d="M12499 24865 L12459 24897" /> 
<path d="M12459 24897 L12336 24897" /> 
<path d="M12336 24897 L12296 24865" /> 
<path d="M12296 24865 L12275 24832" /> 
<g style = "stroke-linecap:round;" > 
<path d="M12275 24832 L12275 24832" /> 
</g></g>
<g style="fill:#C0C0C0; fill-opacity:0.0; stroke:#00A0A0; stroke-opacity:1.00; stroke-linecap:round; stroke-linejoin:round; stroke-width:120" 
   transform="translate(0.00 0.00) scale(1.00 1.00)">
<path d="M15204 23122 L15204 24122" /> 
<path d="M15204 24122 L9204 24122" /> 
<path d="M9204 24122 L9204 23122" /> 
<path d="M9204 23122 L15204 23122" /> 
<path d="M14204 23122 L14204 24122" /> 
</g>
<g style="fill:#808000; fill-opacity:0.0; stroke:#808000; stroke-opacity:1.00; stroke-linecap:round; stroke-linejoin:round; stroke-width:59" 
   transform="translate(0.00 0.00) scale(1.00 1.00)">
<path d="M12004 5983 L12004 5433" /> 
<path d="M12004 5433 L12554 5433" /> 
<path d="M12554 5433 L12554 5983" /> 
<path d="M12004 5983 L12554 5983" /> 
<ellipse cx="13279" cy="5708" rx="275" ry="275"  /> 
<ellipse cx="14279" cy="5708" rx="275" ry="275"  /> 
<ellipse cx="15279" cy="5708" rx="275" ry="275"  /> 
</g>
<g style="fill:#808000; fill-opacity:0.0; stroke:#0000C0; stroke-opacity:1.00; stroke-linecap:round; stroke-linejoin:round; stroke-width:0" 
   transform="translate(0.00 0.00) scale(1.00 1.00)">
<path d="M13777 4708 L13781 4708" /> 
<path d="M13779 4706 L13779 4710" /> 
</g>
<g style="fill:#C0C0C0; fill-opacity:0.0; stroke:#C0C0C0; stroke-opacity:1.00; stroke-linecap:round; stroke-linejoin:round; stroke-width:107" 
   transform="translate(0.00 0.00) scale(1.00 1.00)">
<path d="M13463 4984 L13463 4301" /> 
<path d="M13463 4301 L13626 4301" /> 
<path d="M13626 4301 L13667 4333" /> 
<path d="M13667 4333 L13687 4366" /> 
<path d="M13687 4366 L13707 4431" /> 
<path d="M13707 4431 L13707 4529" /> 
<path d="M13707 4529 L13687 4594" /> 
<path d="M13687 4594 L13667 4626" /> 
<path d="M13667 4626 L13626 4659" /> 
<path d="M13626 4659 L13463 4659" /> 
<g style = "stroke-linecap:round;" > 
<path d="M13463 4659 L13463 4659" /> 
</g><path d="M14074 4529 L14074 4984" /> 
<g style = "stroke-linecap:round;" > 
<path d="M14074 4984 L14074 4984" /> 
</g><path d="M13972 4268 L13871 4756" /> 
<path d="M13871 4756 L14135 4756" /> 
<g style = "stroke-linecap:round;" > 
<path d="M14135 4756 L14135 4756" /> 
</g></g>
<g style="fill:#C0C0C0; fill-opacity:0.0; stroke:#00A0A0; stroke-opacity:1.00; stroke-linecap:round; stroke-linejoin:round; stroke-width:120" 
   transform="translate(0.00 0.00) scale(1.00 1.00)">
<path d="M11779 5208 L11779 5208" /> 
<path d="M11779 6208 L11779 5208" /> 
<path d="M11779 5208 L11779 5208" /> 
<path d="M11779 5208 L15779 5208" /> 
<path d="M15779 5208 L15779 6208" /> 
<path d="M15779 6208 L11779 6208" /> 
<path d="M12779 6208 L12779 5208" /> 
</g>
<g style="fill:#808000; fill-opacity:0.0; stroke:#808000; stroke-opacity:1.00; stroke-linecap:round; stroke-linejoin:round; stroke-width:59" 
   transform="translate(0.00 0.00) scale(1.00 1.00)">
<path d="M5893 11676 L6493 11676" /> 
<path d="M6493 11676 L6493 12276" /> 
<path d="M6493 12276 L5893 12276" /> 
<path d="M5893 11676 L5893 12276" /> 
<ellipse cx="7193" cy="11976" rx="300" ry="300"  /> 
<ellipse cx="6193" cy="12976" rx="300" ry="300"  /> 
<ellipse cx="7193" cy="12976" rx="300" ry="300"  /> 
<ellipse cx="6193" cy="13976" rx="300" ry="300"  /> 
<ellipse cx="7193" cy="13976" rx="300" ry="300"  /> 
<ellipse cx="6193" cy="14976" rx="300" ry="300"  /> 
<ellipse cx="7193" cy="14976" rx="300" ry="300"  /> 
<ellipse cx="6193" cy="15976" rx="300" ry="300"  /> 
<ellipse cx="7193" cy="15976" rx="300" ry="300"  /> 
</g>
<g style="fill:#808000; fill-opacity:0.0; stroke:#0000C0; stroke-opacity:1.00; stroke-linecap:round; stroke-linejoin:round; stroke-width:0" 
   transform="translate(0.00 0.00) scale(1.00 1.00)">
<path d="M8191 14226 L8195 14226" /> 
<path d="M8193 14224 L8193 14228" /> 
</g>
<g style="fill:#C0C0C0; fill-opacity:0.0; stroke:#C0C0C0; stroke-opacity:1.00; stroke-linecap:round; stroke-linejoin:round; stroke-width:80" 
   transform="translate(0.00 0.00) scale(1.00 1.00)">
<path d="M8355 14521 L7955 14521" /> 
<path d="M7955 14521 L7955 14368" /> 
<path d="M7955 14368 L7974 14330" /> 
<path d="M7974 14330 L7993 14311" /> 
<path d="M7993 14311 L8031 14292" /> 
<path d="M8031 14292 L8088 14292" /> 
<path d="M8088 14292 L8126 14311" /> 
<path d="M8126 14311 L8145 14330" /> 
<path d="M8145 14330 L8164 14368" /> 
<path d="M8164 14368 L8164 14521" /> 
<g style = "stroke-linecap:round;" > 
<path d="M8164 14521 L8164 14521" /> 
</g><path d="M7993 14140 L7974 14121" /> 
<path d="M7974 14121 L7955 14083" /> 
<path d="M7955 14083 L7955 13987" /> 
<path d="M7955 13987 L7974 13949" /> 
<path d="M7974 13949 L7993 13930" /> 
<path d="M7993 13930 L8031 13911" /> 
<path d="M8031 13911 L8069 13911" /> 
<path d="M8069 13911 L8126 13930" /> 
<path d="M8126 13930 L8355 14159" /> 
<path d="M8355 14159 L8355 13911" /> 
<g style = "stroke-linecap:round;" > 
<path d="M8355 13911 L8355 13911" /> 
</g></g>
<g style="fill:#C0C0C0; fill-opacity:0.0; stroke:#00A0A0; stroke-opacity:1.00; stroke-linecap:round; stroke-linejoin:round; stroke-width:120" 
   transform="translate(0.00 0.00) scale(1.00 1.00)">
<path d="M7693 11476 L7693 16476" /> 
<path d="M7693 16476 L5693 16476" /> 
<path d="M5693 16476 L5693 11476" /> 
<path d="M5693 11476 L7693 11476" /> 
</g>
<g style="fill:#808000; fill-opacity:0.0; stroke:#808000; stroke-opacity:1.00; stroke-linecap:round; stroke-linejoin:round; stroke-width:59" 
   transform="translate(0.00 0.00) scale(1.00 1.00)">
<path d="M8058 18869 L8658 18869" /> 
<path d="M8658 18869 L8658 19469" /> 
<path d="M8658 19469 L8058 19469" /> 
<path d="M8058 18869 L8058 19469" /> 
<ellipse cx="9358" cy="19169" rx="300" ry="300"  /> 
<ellipse cx="8358" cy="20169" rx="300" ry="300"  /> 
<ellipse cx="9358" cy="20169" rx="300" ry="300"  /> 
<ellipse cx="8358" cy="21169" rx="300" ry="300"  /> 
<ellipse cx="9358" cy="21169" rx="300" ry="300"  /> 
<ellipse cx="8358" cy="22169" rx="300" ry="300"  /> 
<ellipse cx="9358" cy="22169" rx="300" ry="300"  /> 
</g>
<g style="fill:#808000; fill-opacity:0.0; stroke:#0000C0; stroke-opacity:1.00; stroke-linecap:round; stroke-linejoin:round; stroke-width:0" 
   transform="translate(0.00 0.00) scale(1.00 1.00)">
<path d="M10356 20669 L10360 20669" /> 
<path d="M10358 20667 L10358 20671" /> 
</g>
<g style="fill:#C0C0C0; fill-opacity:0.0; stroke:#C0C0C0; stroke-opacity:1.00; stroke-linecap:round; stroke-linejoin:round; stroke-width:80" 
   transform="translate(0.00 0.00) scale(1.00 1.00)">
<path d="M10120 20802 L10406 20802" /> 
<path d="M10406 20802 L10463 20822" /> 
<path d="M10463 20822 L10501 20860" /> 
<path d="M10501 20860 L10520 20917" /> 
<path d="M10520 20917 L10520 20955" /> 
<g style = "stroke-linecap:round;" > 
<path d="M10520 20955 L10520 20955" /> 
</g><path d="M10520 20402 L10520 20631" /> 
<g style = "stroke-linecap:round;" > 
<path d="M10520 20631 L10520 20631" /> 
</g><path d="M10520 20517 L10120 20517" /> 
<path d="M10120 20517 L10177 20555" /> 
<path d="M10177 20555 L10215 20593" /> 
<path d="M10215 20593 L10234 20631" /> 
<g style = "stroke-linecap:round;" > 
<path d="M10234 20631 L10234 20631" /> 
</g></g>
<g style="fill:#C0C0C0; fill-opacity:0.0; stroke:#00A0A0; stroke-opacity:1.00; stroke-linecap:round; stroke-linejoin:round; stroke-width:120" 
   transform="translate(0.00 0.00) scale(1.00 1.00)">
<path d="M9858 18669 L9858 22669" /> 
<path d="M9858 22669 L7858 22669" /> 
<path d="M7858 22669 L7858 18669" /> 
<path d="M7858 18669 L9858 18669" /> 
</g>
<g style="fill:#808000; fill-opacity:0.0; stroke:#808000; stroke-opacity:1.00; stroke-linecap:round; stroke-linejoin:round; stroke-width:59" 
   transform="translate(0.00 0.00) scale(1.00 1.00)">
<path d="M18779 17279 L18229 17279" /> 
<path d="M18229 17279 L18229 16729" /> 
<path d="M18229 16729 L18779 16729" /> 
<path d="M18779 17279 L18779 16729" /> 
<ellipse cx="18504" cy="20004" rx="275" ry="275"  /> 
</g>
<g style="fill:#808000; fill-opacity:0.0; stroke:#0000C0; stroke-opacity:1.00; stroke-linecap:round; stroke-linejoin:round; stroke-width:0" 
   transform="translate(0.00 0.00) scale(1.00 1.00)">
<path d="M18502 18504 L18506 18504" /> 
<path d="M18504 18502 L18504 18506" /> 
</g>
<g style="fill:#C0C0C0; fill-opacity:0.0; stroke:#C0C0C0; stroke-opacity:1.00; stroke-linecap:round; stroke-linejoin:round; stroke-width:80" 
   transform="translate(0.00 0.00) scale(1.00 1.00)">
<path d="M18666 18799 L18266 18799" /> 
<path d="M18266 18799 L18266 18704" /> 
<path d="M18266 18704 L18285 18646" /> 
<path d="M18285 18646 L18323 18608" /> 
<path d="M18323 18608 L18361 18589" /> 
<path d="M18361 18589 L18437 18570" /> 
<path d="M18437 18570 L18494 18570" /> 
<path d="M18494 18570 L18571 18589" /> 
<path d="M18571 18589 L18609 18608" /> 
<path d="M18609 18608 L18647 18646" /> 
<path d="M18647 18646 L18666 18704" /> 
<path d="M18666 18704 L18666 18799" /> 
<path d="M18266 18437 L18266 18170" /> 
<path d="M18266 18170 L18666 18342" /> 
<g style = "stroke-linecap:round;" > 
<path d="M18666 18342 L18666 18342" /> 
</g></g>
<g style="fill:#C0C0C0; fill-opacity:0.0; stroke:#00A0A0; stroke-opacity:1.00; stroke-linecap:round; stroke-linejoin:round; stroke-width:120" 
   transform="translate(0.00 0.00) scale(1.00 1.00)">
<path d="M18504 17004 L18504 17304" /> 
<path d="M18504 17304 L18104 17304" /> 
<path d="M18104 17304 L18104 19704" /> 
<path d="M18104 19704 L18504 19704" /> 
<path d="M18504 19704 L18504 20004" /> 
<path d="M18504 19704 L18904 19704" /> 
<path d="M18904 19704 L18904 17304" /> 
<path d="M18904 17304 L18504 17304" /> 
<path d="M18104 17504 L18904 17504" /> 
<path d="M18904 17604 L18104 17604" /> 
</g>
<g style="fill:#808000; fill-opacity:0.0; stroke:#808000; stroke-opacity:1.00; stroke-linecap:round; stroke-linejoin:round; stroke-width:59" 
   transform="translate(0.00 0.00) scale(1.00 1.00)">
<path d="M19960 18066 L19410 18066" /> 
<path d="M19410 18066 L19410 17516" /> 
<path d="M19410 17516 L19960 17516" /> 
<path d="M19960 18066 L19960 17516" /> 
<ellipse cx="19685" cy="20791" rx="275" ry="275"  /> 
</g>
<g style="fill:#808000; fill-opacity:0.0; stroke:#0000C0; stroke-opacity:1.00; stroke-linecap:round; stroke-linejoin:round; stroke-width:0" 
   transform="translate(0.00 0.00) scale(1.00 1.00)">
<path d="M19683 19291 L19687 19291" /> 
<path d="M19685 19289 L19685 19293" /> 
</g>
<g style="fill:#C0C0C0; fill-opacity:0.0; stroke:#C0C0C0; stroke-opacity:1.00; stroke-linecap:round; stroke-linejoin:round; stroke-width:80" 
   transform="translate(0.00 0.00) scale(1.00 1.00)">
<path d="M19847 19586 L19447 19586" /> 
<path d="M19447 19586 L19447 19491" /> 
<path d="M19447 19491 L19466 19433" /> 
<path d="M19466 19433 L19504 19395" /> 
<path d="M19504 19395 L19542 19376" /> 
<path d="M19542 19376 L19618 19357" /> 
<path d="M19618 19357 L19675 19357" /> 
<path d="M19675 19357 L19752 19376" /> 
<path d="M19752 19376 L19790 19395" /> 
<path d="M19790 19395 L19828 19433" /> 
<path d="M19828 19433 L19847 19491" /> 
<path d="M19847 19491 L19847 19586" /> 
<path d="M19618 19129 L19599 19167" /> 
<path d="M19599 19167 L19580 19186" /> 
<path d="M19580 19186 L19542 19205" /> 
<path d="M19542 19205 L19523 19205" /> 
<path d="M19523 19205 L19485 19186" /> 
<path d="M19485 19186 L19466 19167" /> 
<path d="M19466 19167 L19447 19129" /> 
<path d="M19447 19129 L19447 19052" /> 
<path d="M19447 19052 L19466 19014" /> 
<path d="M19466 19014 L19485 18995" /> 
<path d="M19485 18995 L19523 18976" /> 
<path d="M19523 18976 L19542 18976" /> 
<path d="M19542 18976 L19580 18995" /> 
<path d="M19580 18995 L19599 19014" /> 
<path d="M19599 19014 L19618 19052" /> 
<path d="M19618 19052 L19618 19129" /> 
<path d="M19618 19129 L19637 19167" /> 
<path d="M19637 19167 L19656 19186" /> 
<path d="M19656 19186 L19695 19205" /> 
<path d="M19695 19205 L19771 19205" /> 
<path d="M19771 19205 L19809 19186" /> 
<path d="M19809 19186 L19828 19167" /> 
<path d="M19828 19167 L19847 19129" /> 
<path d="M19847 19129 L19847 19052" /> 
<path d="M19847 19052 L19828 19014" /> 
<path d="M19828 19014 L19809 18995" /> 
<path d="M19809 18995 L19771 18976" /> 
<path d="M19771 18976 L19695 18976" /> 
<path d="M19695 18976 L19656 18995" /> 
<path d="M19656 18995 L19637 19014" /> 
<path d="M19637 19014 L19618 19052" /> 
<g style = "stroke-linecap:round;" > 
<path d="M19618 19052 L19618 19052" /> 
</g></g>
<g style="fill:#C0C0C0; fill-opacity:0.0; stroke:#00A0A0; stroke-opacity:1.00; stroke-linecap:round; stroke-linejoin:round; stroke-width:120" 
   transform="translate(0.00 0.00) scale(1.00 1.00)">
<path d="M19685 17791 L19685 18091" /> 
<path d="M19685 18091 L19285 18091" /> 
<path d="M19285 18091 L19285 20491" /> 
<path d="M19285 20491 L19685 20491" /> 
<path d="M19685 20491 L19685 20791" /> 
<path d="M19685 20491 L20085 20491" /> 
<path d="M20085 20491 L20085 18091" /> 
<path d="M20085 18091 L19685 18091" /> 
<path d="M19285 18291 L20085 18291" /> 
<path d="M20085 18391 L19285 18391" /> 
</g>
<g style="fill:#808000; fill-opacity:0.0; stroke:#808000; stroke-opacity:1.00; stroke-linecap:round; stroke-linejoin:round; stroke-width:59" 
   transform="translate(0.00 0.00) scale(1.00 1.00)">
<path d="M17597 16097 L17047 16097" /> 
<path d="M17047 16097 L17047 15547" /> 
<path d="M17047 15547 L17597 15547" /> 
<path d="M17597 16097 L17597 15547" /> 
<ellipse cx="17322" cy="18822" rx="275" ry="275"  /> 
</g>
<g style="fill:#808000; fill-opacity:0.0; stroke:#0000C0; stroke-opacity:1.00; stroke-linecap:round; stroke-linejoin:round; stroke-width:0" 
   transform="translate(0.00 0.00) scale(1.00 1.00)">
<path d="M17320 17322 L17324 17322" /> 
<path d="M17322 17320 L17322 17324" /> 
</g>
<g style="fill:#C0C0C0; fill-opacity:0.0; stroke:#C0C0C0; stroke-opacity:1.00; stroke-linecap:round; stroke-linejoin:round; stroke-width:80" 
   transform="translate(0.00 0.00) scale(1.00 1.00)">
<path d="M17484 17617 L17084 17617" /> 
<path d="M17084 17617 L17084 17522" /> 
<path d="M17084 17522 L17103 17464" /> 
<path d="M17103 17464 L17141 17426" /> 
<path d="M17141 17426 L17179 17407" /> 
<path d="M17179 17407 L17255 17388" /> 
<path d="M17255 17388 L17312 17388" /> 
<path d="M17312 17388 L17389 17407" /> 
<path d="M17389 17407 L17427 17426" /> 
<path d="M17427 17426 L17465 17464" /> 
<path d="M17465 17464 L17484 17522" /> 
<path d="M17484 17522 L17484 17617" /> 
<path d="M17084 17045 L17084 17122" /> 
<path d="M17084 17122 L17103 17160" /> 
<path d="M17103 17160 L17122 17179" /> 
<path d="M17122 17179 L17179 17217" /> 
<path d="M17179 17217 L17255 17236" /> 
<path d="M17255 17236 L17408 17236" /> 
<path d="M17408 17236 L17446 17217" /> 
<path d="M17446 17217 L17465 17198" /> 
<path d="M17465 17198 L17484 17160" /> 
<path d="M17484 17160 L17484 17083" /> 
<path d="M17484 17083 L17465 17045" /> 
<path d="M17465 17045 L17446 17026" /> 
<path d="M17446 17026 L17408 17007" /> 
<path d="M17408 17007 L17312 17007" /> 
<path d="M17312 17007 L17274 17026" /> 
<path d="M17274 17026 L17255 17045" /> 
<path d="M17255 17045 L17236 17083" /> 
<path d="M17236 17083 L17236 17160" /> 
<path d="M17236 17160 L17255 17198" /> 
<path d="M17255 17198 L17274 17217" /> 
<path d="M17274 17217 L17312 17236" /> 
<g style = "stroke-linecap:round;" > 
<path d="M17312 17236 L17312 17236" /> 
</g></g>
<g style="fill:#C0C0C0; fill-opacity:0.0; stroke:#00A0A0; stroke-opacity:1.00; stroke-linecap:round; stroke-linejoin:round; stroke-width:120" 
   transform="translate(0.00 0.00) scale(1.00 1.00)">
<path d="M17322 15822 L17322 16122" /> 
<path d="M17322 16122 L16922 16122" /> 
<path d="M16922 16122 L16922 18522" /> 
<path d="M16922 18522 L17322 18522" /> 
<path d="M17322 18522 L17322 18822" /> 
<path d="M17322 18522 L17722 18522" /> 
<path d="M17722 18522 L17722 16122" /> 
<path d="M17722 16122 L17322 16122" /> 
<path d="M16922 16322 L17722 16322" /> 
<path d="M17722 16422 L16922 16422" /> 
</g>
<g style="fill:#808000; fill-opacity:0.0; stroke:#808000; stroke-opacity:1.00; stroke-linecap:round; stroke-linejoin:round; stroke-width:59" 
   transform="translate(0.00 0.00) scale(1.00 1.00)">
<path d="M16416 15310 L15866 15310" /> 
<path d="M15866 15310 L15866 14760" /> 
<path d="M15866 14760 L16416 14760" /> 
<path d="M16416 15310 L16416 14760" /> 
<ellipse cx="16141" cy="18035" rx="275" ry="275"  /> 
</g>
<g style="fill:#808000; fill-opacity:0.0; stroke:#0000C0; stroke-opacity:1.00; stroke-linecap:round; stroke-linejoin:round; stroke-width:0" 
   transform="translate(0.00 0.00) scale(1.00 1.00)">
<path d="M16139 16535 L16143 16535" /> 
<path d="M16141 16533 L16141 16537" /> 
</g>
<g style="fill:#C0C0C0; fill-opacity:0.0; stroke:#C0C0C0; stroke-opacity:1.00; stroke-linecap:round; stroke-linejoin:round; stroke-width:80" 
   transform="translate(0.00 0.00) scale(1.00 1.00)">
<path d="M16303 16830 L15903 16830" /> 
<path d="M15903 16830 L15903 16735" /> 
<path d="M15903 16735 L15922 16677" /> 
<path d="M15922 16677 L15960 16639" /> 
<path d="M15960 16639 L15998 16620" /> 
<path d="M15998 16620 L16074 16601" /> 
<path d="M16074 16601 L16131 16601" /> 
<path d="M16131 16601 L16208 16620" /> 
<path d="M16208 16620 L16246 16639" /> 
<path d="M16246 16639 L16284 16677" /> 
<path d="M16284 16677 L16303 16735" /> 
<path d="M16303 16735 L16303 16830" /> 
<path d="M15903 16239 L15903 16430" /> 
<path d="M15903 16430 L16093 16449" /> 
<path d="M16093 16449 L16074 16430" /> 
<path d="M16074 16430 L16055 16392" /> 
<path d="M16055 16392 L16055 16296" /> 
<path d="M16055 16296 L16074 16258" /> 
<path d="M16074 16258 L16093 16239" /> 
<path d="M16093 16239 L16131 16220" /> 
<path d="M16131 16220 L16227 16220" /> 
<path d="M16227 16220 L16265 16239" /> 
<path d="M16265 16239 L16284 16258" /> 
<path d="M16284 16258 L16303 16296" /> 
<path d="M16303 16296 L16303 16392" /> 
<path d="M16303 16392 L16284 16430" /> 
<path d="M16284 16430 L16265 16449" /> 
<g style = "stroke-linecap:round;" > 
<path d="M16265 16449 L16265 16449" /> 
</g></g>
<g style="fill:#C0C0C0; fill-opacity:0.0; stroke:#00A0A0; stroke-opacity:1.00; stroke-linecap:round; stroke-linejoin:round; stroke-width:120" 
   transform="translate(0.00 0.00) scale(1.00 1.00)">
<path d="M16141 15035 L16141 15335" /> 
<path d="M16141 15335 L15741 15335" /> 
<path d="M15741 15335 L15741 17735" /> 
<path d="M15741 17735 L16141 17735" /> 
<path d="M16141 17735 L16141 18035" /> 
<path d="M16141 17735 L16541 17735" /> 
<path d="M16541 17735 L16541 15335" /> 
<path d="M16541 15335 L16141 15335" /> 
<path d="M15741 15535 L16541 15535" /> 
<path d="M16541 15635 L15741 15635" /> 
</g>
<g style="fill:#808000; fill-opacity:0.0; stroke:#808000; stroke-opacity:1.00; stroke-linecap:round; stroke-linejoin:round; stroke-width:59" 
   transform="translate(0.00 0.00) scale(1.00 1.00)">
<path d="M19960 8420 L19410 8420" /> 
<path d="M19410 8420 L19410 7870" /> 
<path d="M19410 7870 L19960 7870" /> 
<path d="M19960 8420 L19960 7870" /> 
<ellipse cx="19685" cy="11145" rx="275" ry="275"  /> 
</g>
<g style="fill:#808000; fill-opacity:0.0; stroke:#0000C0; stroke-opacity:1.00; stroke-linecap:round; stroke-linejoin:round; stroke-width:0" 
   transform="translate(0.00 0.00) scale(1.00 1.00)">
<path d="M19683 9645 L19687 9645" /> 
<path d="M19685 9643 L19685 9647" /> 
</g>
<g style="fill:#C0C0C0; fill-opacity:0.0; stroke:#C0C0C0; stroke-opacity:1.00; stroke-linecap:round; stroke-linejoin:round; stroke-width:80" 
   transform="translate(0.00 0.00) scale(1.00 1.00)">
<path d="M19847 9940 L19447 9940" /> 
<path d="M19447 9940 L19447 9845" /> 
<path d="M19447 9845 L19466 9787" /> 
<path d="M19466 9787 L19504 9749" /> 
<path d="M19504 9749 L19542 9730" /> 
<path d="M19542 9730 L19618 9711" /> 
<path d="M19618 9711 L19675 9711" /> 
<path d="M19675 9711 L19752 9730" /> 
<path d="M19752 9730 L19790 9749" /> 
<path d="M19790 9749 L19828 9787" /> 
<path d="M19828 9787 L19847 9845" /> 
<path d="M19847 9845 L19847 9940" /> 
<path d="M19580 9368 L19847 9368" /> 
<g style = "stroke-linecap:round;" > 
<path d="M19847 9368 L19847 9368" /> 
</g><path d="M19428 9464 L19714 9559" /> 
<path d="M19714 9559 L19714 9311" /> 
<g style = "stroke-linecap:round;" > 
<path d="M19714 9311 L19714 9311" /> 
</g></g>
<g style="fill:#C0C0C0; fill-opacity:0.0; stroke:#00A0A0; stroke-opacity:1.00; stroke-linecap:round; stroke-linejoin:round; stroke-width:120" 
   transform="translate(0.00 0.00) scale(1.00 1.00)">
<path d="M19685 8145 L19685 8445" /> 
<path d="M19685 8445 L19285 8445" /> 
<path d="M19285 8445 L19285 10845" /> 
<path d="M19285 10845 L19685 10845" /> 
<path d="M19685 10845 L19685 11145" /> 
<path d="M19685 10845 L20085 10845" /> 
<path d="M20085 10845 L20085 8445" /> 
<path d="M20085 8445 L19685 8445" /> 
<path d="M19285 8645 L20085 8645" /> 
<path d="M20085 8745 L19285 8745" /> 
</g>
<g style="fill:#808000; fill-opacity:0.0; stroke:#808000; stroke-opacity:1.00; stroke-linecap:round; stroke-linejoin:round; stroke-width:59" 
   transform="translate(0.00 0.00) scale(1.00 1.00)">
<path d="M18779 8420 L18229 8420" /> 
<path d="M18229 8420 L18229 7870" /> 
<path d="M18229 7870 L18779 7870" /> 
<path d="M18779 8420 L18779 7870" /> 
<ellipse cx="18504" cy="11145" rx="275" ry="275"  /> 
</g>
<g style="fill:#808000; fill-opacity:0.0; stroke:#0000C0; stroke-opacity:1.00; stroke-linecap:round; stroke-linejoin:round; stroke-width:0" 
   transform="translate(0.00 0.00) scale(1.00 1.00)">
<path d="M18502 9645 L18506 9645" /> 
<path d="M18504 9643 L18504 9647" /> 
</g>
<g style="fill:#C0C0C0; fill-opacity:0.0; stroke:#C0C0C0; stroke-opacity:1.00; stroke-linecap:round; stroke-linejoin:round; stroke-width:80" 
   transform="translate(0.00 0.00) scale(1.00 1.00)">
<path d="M18666 9940 L18266 9940" /> 
<path d="M18266 9940 L18266 9845" /> 
<path d="M18266 9845 L18285 9787" /> 
<path d="M18285 9787 L18323 9749" /> 
<path d="M18323 9749 L18361 9730" /> 
<path d="M18361 9730 L18437 9711" /> 
<path d="M18437 9711 L18494 9711" /> 
<path d="M18494 9711 L18571 9730" /> 
<path d="M18571 9730 L18609 9749" /> 
<path d="M18609 9749 L18647 9787" /> 
<path d="M18647 9787 L18666 9845" /> 
<path d="M18666 9845 L18666 9940" /> 
<path d="M18266 9578 L18266 9330" /> 
<path d="M18266 9330 L18418 9464" /> 
<path d="M18418 9464 L18418 9406" /> 
<path d="M18418 9406 L18437 9368" /> 
<path d="M18437 9368 L18456 9349" /> 
<path d="M18456 9349 L18494 9330" /> 
<path d="M18494 9330 L18590 9330" /> 
<path d="M18590 9330 L18628 9349" /> 
<path d="M18628 9349 L18647 9368" /> 
<path d="M18647 9368 L18666 9406" /> 
<path d="M18666 9406 L18666 9521" /> 
<path d="M18666 9521 L18647 9559" /> 
<path d="M18647 9559 L18628 9578" /> 
<g style = "stroke-linecap:round;" > 
<path d="M18628 9578 L18628 9578" /> 
</g></g>
<g style="fill:#C0C0C0; fill-opacity:0.0; stroke:#00A0A0; stroke-opacity:1.00; stroke-linecap:round; stroke-linejoin:round; stroke-width:120" 
   transform="translate(0.00 0.00) scale(1.00 1.00)">
<path d="M18504 8145 L18504 8445" /> 
<path d="M18504 8445 L18104 8445" /> 
<path d="M18104 8445 L18104 10845" /> 
<path d="M18104 10845 L18504 10845" /> 
<path d="M18504 10845 L18504 11145" /> 
<path d="M18504 10845 L18904 10845" /> 
<path d="M18904 10845 L18904 8445" /> 
<path d="M18904 8445 L18504 8445" /> 
<path d="M18104 8645 L18904 8645" /> 
<path d="M18904 8745 L18104 8745" /> 
</g>
<g style="fill:#808000; fill-opacity:0.0; stroke:#808000; stroke-opacity:1.00; stroke-linecap:round; stroke-linejoin:round; stroke-width:59" 
   transform="translate(0.00 0.00) scale(1.00 1.00)">
<path d="M17597 8420 L17047 8420" /> 
<path d="M17047 8420 L17047 7870" /> 
<path d="M17047 7870 L17597 7870" /> 
<path d="M17597 8420 L17597 7870" /> 
<ellipse cx="17322" cy="11145" rx="275" ry="275"  /> 
</g>
<g style="fill:#808000; fill-opacity:0.0; stroke:#0000C0; stroke-opacity:1.00; stroke-linecap:round; stroke-linejoin:round; stroke-width:0" 
   transform="translate(0.00 0.00) scale(1.00 1.00)">
<path d="M17320 9645 L17324 9645" /> 
<path d="M17322 9643 L17322 9647" /> 
</g>
<g style="fill:#C0C0C0; fill-opacity:0.0; stroke:#C0C0C0; stroke-opacity:1.00; stroke-linecap:round; stroke-linejoin:round; stroke-width:80" 
   transform="translate(0.00 0.00) scale(1.00 1.00)">
<path d="M17484 9940 L17084 9940" /> 
<path d="M17084 9940 L17084 9845" /> 
<path d="M17084 9845 L17103 9787" /> 
<path d="M17103 9787 L17141 9749" /> 
<path d="M17141 9749 L17179 9730" /> 
<path d="M17179 9730 L17255 9711" /> 
<path d="M17255 9711 L17312 9711" /> 
<path d="M17312 9711 L17389 9730" /> 
<path d="M17389 9730 L17427 9749" /> 
<path d="M17427 9749 L17465 9787" /> 
<path d="M17465 9787 L17484 9845" /> 
<path d="M17484 9845 L17484 9940" /> 
<path d="M17122 9559 L17103 9540" /> 
<path d="M17103 9540 L17084 9502" /> 
<path d="M17084 9502 L17084 9406" /> 
<path d="M17084 9406 L17103 9368" /> 
<path d="M17103 9368 L17122 9349" /> 
<path d="M17122 9349 L17160 9330" /> 
<path d="M17160 9330 L17198 9330" /> 
<path d="M17198 9330 L17255 9349" /> 
<path d="M17255 9349 L17484 9578" /> 
<path d="M17484 9578 L17484 9330" /> 
<g style = "stroke-linecap:round;" > 
<path d="M17484 9330 L17484 9330" /> 
</g></g>
<g style="fill:#C0C0C0; fill-opacity:0.0; stroke:#00A0A0; stroke-opacity:1.00; stroke-linecap:round; stroke-linejoin:round; stroke-width:120" 
   transform="translate(0.00 0.00) scale(1.00 1.00)">
<path d="M17322 8145 L17322 8445" /> 
<path d="M17322 8445 L16922 8445" /> 
<path d="M16922 8445 L16922 10845" /> 
<path d="M16922 10845 L17322 10845" /> 
<path d="M17322 10845 L17322 11145" /> 
<path d="M17322 10845 L17722 10845" /> 
<path d="M17722 10845 L17722 8445" /> 
<path d="M17722 8445 L17322 8445" /> 
<path d="M16922 8645 L17722 8645" /> 
<path d="M17722 8745 L16922 8745" /> 
</g>
<g style="fill:#808000; fill-opacity:0.0; stroke:#808000; stroke-opacity:1.00; stroke-linecap:round; stroke-linejoin:round; stroke-width:59" 
   transform="translate(0.00 0.00) scale(1.00 1.00)">
<path d="M16416 8420 L15866 8420" /> 
<path d="M15866 8420 L15866 7870" /> 
<path d="M15866 7870 L16416 7870" /> 
<path d="M16416 8420 L16416 7870" /> 
<ellipse cx="16141" cy="11145" rx="275" ry="275"  /> 
</g>
<g style="fill:#808000; fill-opacity:0.0; stroke:#0000C0; stroke-opacity:1.00; stroke-linecap:round; stroke-linejoin:round; stroke-width:0" 
   transform="translate(0.00 0.00) scale(1.00 1.00)">
<path d="M16139 9645 L16143 9645" /> 
<path d="M16141 9643 L16141 9647" /> 
</g>
<g style="fill:#C0C0C0; fill-opacity:0.0; stroke:#C0C0C0; stroke-opacity:1.00; stroke-linecap:round; stroke-linejoin:round; stroke-width:80" 
   transform="translate(0.00 0.00) scale(1.00 1.00)">
<path d="M16303 9940 L15903 9940" /> 
<path d="M15903 9940 L15903 9845" /> 
<path d="M15903 9845 L15922 9787" /> 
<path d="M15922 9787 L15960 9749" /> 
<path d="M15960 9749 L15998 9730" /> 
<path d="M15998 9730 L16074 9711" /> 
<path d="M16074 9711 L16131 9711" /> 
<path d="M16131 9711 L16208 9730" /> 
<path d="M16208 9730 L16246 9749" /> 
<path d="M16246 9749 L16284 9787" /> 
<path d="M16284 9787 L16303 9845" /> 
<path d="M16303 9845 L16303 9940" /> 
<path d="M16303 9330 L16303 9559" /> 
<g style = "stroke-linecap:round;" > 
<path d="M16303 9559 L16303 9559" /> 
</g><path d="M16303 9445 L15903 9445" /> 
<path d="M15903 9445 L15960 9483" /> 
<path d="M15960 9483 L15998 9521" /> 
<path d="M15998 9521 L16017 9559" /> 
<g style = "stroke-linecap:round;" > 
<path d="M16017 9559 L16017 9559" /> 
</g></g>
<g style="fill:#C0C0C0; fill-opacity:0.0; stroke:#00A0A0; stroke-opacity:1.00; stroke-linecap:round; stroke-linejoin:round; stroke-width:120" 
   transform="translate(0.00 0.00) scale(1.00 1.00)">
<path d="M16141 8145 L16141 8445" /> 
<path d="M16141 8445 L15741 8445" /> 
<path d="M15741 8445 L15741 10845" /> 
<path d="M15741 10845 L16141 10845" /> 
<path d="M16141 10845 L16141 11145" /> 
<path d="M16141 10845 L16541 10845" /> 
<path d="M16541 10845 L16541 8445" /> 
<path d="M16541 8445 L16141 8445" /> 
<path d="M15741 8645 L16541 8645" /> 
<path d="M16541 8745 L15741 8745" /> 
</g>
<g style="fill:#808000; fill-opacity:0.0; stroke:#808000; stroke-opacity:1.00; stroke-linecap:round; stroke-linejoin:round; stroke-width:59" 
   transform="translate(0.00 0.00) scale(1.00 1.00)">
<ellipse cx="22441" cy="14354" rx="750" ry="750"  /> 
<ellipse cx="22441" cy="16354" rx="750" ry="750"  /> 
<path d="M21691 11604 L23191 11604" /> 
<path d="M23191 11604 L23191 13104" /> 
<path d="M23191 13104 L21691 13104" /> 
<path d="M21691 11604 L21691 13104" /> 
<ellipse cx="22441" cy="18354" rx="750" ry="750"  /> 
</g>
<g style="fill:#808000; fill-opacity:0.0; stroke:#0000C0; stroke-opacity:1.00; stroke-linecap:round; stroke-linejoin:round; stroke-width:0" 
   transform="translate(0.00 0.00) scale(1.00 1.00)">
<path d="M24939 15354 L24943 15354" /> 
<path d="M24941 15352 L24941 15356" /> 
</g>
<g style="fill:#C0C0C0; fill-opacity:0.0; stroke:#C0C0C0; stroke-opacity:1.00; stroke-linecap:round; stroke-linejoin:round; stroke-width:120" 
   transform="translate(0.00 0.00) scale(1.00 1.00)">
<path d="M25358 15818 L24328 15818" /> 
<path d="M24328 15818 L24328 15579" /> 
<path d="M24328 15579 L24377 15519" /> 
<path d="M24377 15519 L24426 15489" /> 
<path d="M24426 15489 L24524 15459" /> 
<path d="M24524 15459 L24671 15459" /> 
<path d="M24671 15459 L24769 15489" /> 
<path d="M24769 15489 L24818 15519" /> 
<path d="M24818 15519 L24867 15579" /> 
<path d="M24867 15579 L24867 15818" /> 
<g style = "stroke-linecap:round;" > 
<path d="M24867 15818 L24867 15818" /> 
</g><path d="M25358 14860 L25358 15219" /> 
<g style = "stroke-linecap:round;" > 
<path d="M25358 15219 L25358 15219" /> 
</g><path d="M25358 15039 L24328 15039" /> 
<path d="M24328 15039 L24475 15099" /> 
<path d="M24475 15099 L24573 15159" /> 
<path d="M24573 15159 L24622 15219" /> 
<g style = "stroke-linecap:round;" > 
<path d="M24622 15219 L24622 15219" /> 
</g></g>
<g style="fill:#C0C0C0; fill-opacity:0.0; stroke:#0000C0; stroke-opacity:1.00; stroke-linecap:round; stroke-linejoin:round; stroke-width:0" 
   transform="translate(0.00 0.00) scale(1.00 1.00)">
<path d="M20439 15354 L20443 15354" /> 
<path d="M20441 15352 L20441 15356" /> 
</g>
<g style="fill:#C0C0C0; fill-opacity:0.0; stroke:#C0C0C0; stroke-opacity:1.00; stroke-linecap:round; stroke-linejoin:round; stroke-width:120" 
   transform="translate(0.00 0.00) scale(1.00 1.00)">
<path d="M20627 16625 L20655 16654" /> 
<path d="M20655 16654 L20684 16740" /> 
<path d="M20684 16740 L20684 16797" /> 
<path d="M20684 16797 L20655 16882" /> 
<path d="M20655 16882 L20598 16940" /> 
<path d="M20598 16940 L20541 16968" /> 
<path d="M20541 16968 L20427 16997" /> 
<path d="M20427 16997 L20341 16997" /> 
<path d="M20341 16997 L20227 16968" /> 
<path d="M20227 16968 L20170 16940" /> 
<path d="M20170 16940 L20112 16882" /> 
<path d="M20112 16882 L20084 16797" /> 
<path d="M20084 16797 L20084 16740" /> 
<path d="M20084 16740 L20112 16654" /> 
<path d="M20112 16654 L20141 16625" /> 
<g style = "stroke-linecap:round;" > 
<path d="M20141 16625 L20141 16625" /> 
</g><path d="M20084 16254 L20084 16140" /> 
<path d="M20084 16140 L20112 16082" /> 
<path d="M20112 16082 L20170 16025" /> 
<path d="M20170 16025 L20284 15997" /> 
<path d="M20284 15997 L20484 15997" /> 
<path d="M20484 15997 L20598 16025" /> 
<path d="M20598 16025 L20655 16082" /> 
<path d="M20655 16082 L20684 16140" /> 
<path d="M20684 16140 L20684 16254" /> 
<path d="M20684 16254 L20655 16311" /> 
<path d="M20655 16311 L20598 16368" /> 
<path d="M20598 16368 L20484 16397" /> 
<path d="M20484 16397 L20284 16397" /> 
<path d="M20284 16397 L20170 16368" /> 
<path d="M20170 16368 L20112 16311" /> 
<path d="M20112 16311 L20084 16254" /> 
<path d="M20684 15739 L20084 15739" /> 
<path d="M20084 15739 L20684 15396" /> 
<path d="M20684 15396 L20084 15396" /> 
<g style = "stroke-linecap:round;" > 
<path d="M20084 15396 L20084 15396" /> 
</g><path d="M20684 15110 L20084 15110" /> 
<path d="M20084 15110 L20684 14767" /> 
<path d="M20684 14767 L20084 14767" /> 
<g style = "stroke-linecap:round;" > 
<path d="M20084 14767 L20084 14767" /> 
</g><path d="M20741 14624 L20741 14167" /> 
<g style = "stroke-linecap:round;" > 
<path d="M20741 14167 L20741 14167" /> 
</g><path d="M20284 13767 L20684 13767" /> 
<g style = "stroke-linecap:round;" > 
<path d="M20684 13767 L20684 13767" /> 
</g><path d="M20055 13910 L20484 14053" /> 
<path d="M20484 14053 L20484 13681" /> 
<g style = "stroke-linecap:round;" > 
<path d="M20484 13681 L20484 13681" /> 
</g></g>
<g style="fill:#C0C0C0; fill-opacity:0.0; stroke:#00A0A0; stroke-opacity:1.00; stroke-linecap:round; stroke-linejoin:round; stroke-width:120" 
   transform="translate(0.00 0.00) scale(1.00 1.00)">
<path d="M23941 11354 L20941 11354" /> 
<path d="M20941 19354 L23941 19354" /> 
<path d="M21441 19354 L21441 11354" /> 
<path d="M23941 11354 L23941 19354" /> 
<path d="M20941 11354 L20941 19354" /> 
</g>
<g style="fill:#808000; fill-opacity:0.0; stroke:#808000; stroke-opacity:1.00; stroke-linecap:round; stroke-linejoin:round; stroke-width:59" 
   transform="translate(0.00 0.00) scale(1.00 1.00)">
<path d="M13133 15404 L13733 15404" /> 
<path d="M13133 16004 L13733 16004" /> 
<path d="M13133 15404 A300.00 300.00 0.0 0 0 13133 16004 L13133 15704 z  " /> 
<path d="M13733 16004 A300.00 300.00 0.0 0 0 13733 15404 L13733 15704 z  " /> 
<path d="M11133 14904 L11733 14904" /> 
<path d="M11133 15504 L11733 15504" /> 
<path d="M11133 14904 A300.00 300.00 0.0 0 0 11133 15504 L11133 15204 z  " /> 
<path d="M11733 15504 A300.00 300.00 0.0 0 0 11733 14904 L11733 15204 z  " /> 
<path d="M13133 14404 L13733 14404" /> 
<path d="M13133 15004 L13733 15004" /> 
<path d="M13133 14404 A300.00 300.00 0.0 0 0 13133 15004 L13133 14704 z  " /> 
<path d="M13733 15004 A300.00 300.00 0.0 0 0 13733 14404 L13733 14704 z  " /> 
<path d="M11133 13904 L11733 13904" /> 
<path d="M11133 14504 L11733 14504" /> 
<path d="M11133 13904 A300.00 300.00 0.0 0 0 11133 14504 L11133 14204 z  " /> 
<path d="M11733 14504 A300.00 300.00 0.0 0 0 11733 13904 L11733 14204 z  " /> 
<path d="M13133 13404 L13733 13404" /> 
<path d="M13133 14004 L13733 14004" /> 
<path d="M13133 13404 A300.00 300.00 0.0 0 0 13133 14004 L13133 13704 z  " /> 
<path d="M13733 14004 A300.00 300.00 0.0 0 0 13733 13404 L13733 13704 z  " /> 
<path d="M11133 12904 L11733 12904" /> 
<path d="M11133 13504 L11733 13504" /> 
<path d="M11133 12904 A300.00 300.00 0.0 0 0 11133 13504 L11133 13204 z  " /> 
<path d="M11733 13504 A300.00 300.00 0.0 0 0 11733 12904 L11733 13204 z  " /> 
<path d="M13133 12404 L13733 12404" /> 
<path d="M13133 13004 L13733 13004" /> 
<path d="M13133 12404 A300.00 300.00 0.0 0 0 13133 13004 L13133 12704 z  " /> 
<path d="M13733 13004 A300.00 300.00 0.0 0 0 13733 12404 L13733 12704 z  " /> 
<path d="M11133 11904 L11733 11904" /> 
<path d="M11133 12504 L11733 12504" /> 
<path d="M11133 11904 A300.00 300.00 0.0 0 0 11133 12504 L11133 12204 z  " /> 
<path d="M11733 12504 A300.00 300.00 0.0 0 0 11733 11904 L11733 12204 z  " /> 
<path d="M13133 11404 L13733 11404" /> 
<path d="M13133 12004 L13733 12004" /> 
<path d="M13133 11404 A300.00 300.00 0.0 0 0 13133 12004 L13133 11704 z  " /> 
<path d="M13733 12004 A300.00 300.00 0.0 0 0 13733 11404 L13733 11704 z  " /> 
<path d="M11133 10904 L11733 10904" /> 
<path d="M11133 11504 L11733 11504" /> 
<path d="M11133 10904 A300.00 300.00 0.0 0 0 11133 11504 L11133 11204 z  " /> 
<path d="M11733 11504 A300.00 300.00 0.0 0 0 11733 10904 L11733 11204 z  " /> 
<path d="M13133 10404 L13733 10404" /> 
<path d="M13133 11004 L13733 11004" /> 
<path d="M13133 10404 A300.00 300.00 0.0 0 0 13133 11004 L13133 10704 z  " /> 
<path d="M13733 11004 A300.00 300.00 0.0 0 0 13733 10404 L13733 10704 z  " /> 
<path d="M11133 9904 L11733 9904" /> 
<path d="M11133 10504 L11733 10504" /> 
<path d="M11133 9904 A300.00 300.00 0.0 0 0 11133 10504 L11133 10204 z  " /> 
<path d="M11733 10504 A300.00 300.00 0.0 0 0 11733 9904 L11733 10204 z  " /> 
<path d="M13133 9404 L13733 9404" /> 
<path d="M13133 10004 L13733 10004" /> 
<path d="M13133 9404 A300.00 300.00 0.0 0 0 13133 10004 L13133 9704 z  " /> 
<path d="M13733 10004 A300.00 300.00 0.0 0 0 13733 9404 L13733 9704 z  " /> 
<path d="M11133 8904 L11733 8904" /> 
<path d="M11133 9504 L11733 9504" /> 
<path d="M11133 8904 A300.00 300.00 0.0 0 0 11133 9504 L11133 9204 z  " /> 
<path d="M11733 9504 A300.00 300.00 0.0 0 0 11733 8904 L11733 9204 z  " /> 
<path d="M13133 8404 L13733 8404" /> 
<path d="M13133 9004 L13733 9004" /> 
<path d="M13133 8404 A300.00 300.00 0.0 0 0 13133 9004 L13133 8704 z  " /> 
<path d="M13733 9004 A300.00 300.00 0.0 0 0 13733 8404 L13733 8704 z  " /> 
</g>
<g style="fill:#808000; fill-opacity:0.0; stroke:#0000C0; stroke-opacity:1.00; stroke-linecap:round; stroke-linejoin:round; stroke-width:0" 
   transform="translate(0.00 0.00) scale(1.00 1.00)">
<path d="M14251 15626 L14255 15626" /> 
<path d="M14253 15624 L14253 15628" /> 
</g>
<g style="fill:#C0C0C0; fill-opacity:0.0; stroke:#C0C0C0; stroke-opacity:1.00; stroke-linecap:round; stroke-linejoin:round; stroke-width:35" 
   transform="translate(0.00 0.00) scale(1.00 1.00)">
<path d="M14455 16114 L13955 16114" /> 
<g style = "stroke-linecap:round;" > 
<path d="M13955 16114 L13955 16114" /> 
</g><path d="M14408 15590 L14432 15614" /> 
<path d="M14432 15614 L14455 15685" /> 
<path d="M14455 15685 L14455 15733" /> 
<path d="M14455 15733 L14432 15805" /> 
<path d="M14432 15805 L14384 15852" /> 
<path d="M14384 15852 L14336 15876" /> 
<path d="M14336 15876 L14241 15900" /> 
<path d="M14241 15900 L14170 15900" /> 
<path d="M14170 15900 L14074 15876" /> 
<path d="M14074 15876 L14027 15852" /> 
<path d="M14027 15852 L13979 15805" /> 
<path d="M13979 15805 L13955 15733" /> 
<path d="M13955 15733 L13955 15685" /> 
<path d="M13955 15685 L13979 15614" /> 
<path d="M13979 15614 L14003 15590" /> 
<g style = "stroke-linecap:round;" > 
<path d="M14003 15590 L14003 15590" /> 
</g><path d="M14003 15400 L13979 15376" /> 
<path d="M13979 15376 L13955 15328" /> 
<path d="M13955 15328 L13955 15209" /> 
<path d="M13955 15209 L13979 15162" /> 
<path d="M13979 15162 L14003 15138" /> 
<path d="M14003 15138 L14051 15114" /> 
<path d="M14051 15114 L14098 15114" /> 
<path d="M14098 15114 L14170 15138" /> 
<path d="M14170 15138 L14455 15424" /> 
<path d="M14455 15424 L14455 15114" /> 
<g style = "stroke-linecap:round;" > 
<path d="M14455 15114 L14455 15114" /> 
</g></g>
<g style="fill:#C0C0C0; fill-opacity:0.0; stroke:#0000C0; stroke-opacity:1.00; stroke-linecap:round; stroke-linejoin:round; stroke-width:0" 
   transform="translate(0.00 0.00) scale(1.00 1.00)">
<path d="M14227 8532 L14231 8532" /> 
<path d="M14229 8530 L14229 8534" /> 
</g>
<g style="fill:#C0C0C0; fill-opacity:0.0; stroke:#C0C0C0; stroke-opacity:1.00; stroke-linecap:round; stroke-linejoin:round; stroke-width:35" 
   transform="translate(0.00 0.00) scale(1.00 1.00)">
<path d="M14431 9091 L14431 9329" /> 
<path d="M14431 9329 L13931 9329" /> 
<g style = "stroke-linecap:round;" > 
<path d="M13931 9329 L13931 9329" /> 
</g><path d="M13979 8948 L13955 8924" /> 
<path d="M13955 8924 L13931 8876" /> 
<path d="M13931 8876 L13931 8757" /> 
<path d="M13931 8757 L13955 8710" /> 
<path d="M13955 8710 L13979 8686" /> 
<path d="M13979 8686 L14027 8662" /> 
<path d="M14027 8662 L14074 8662" /> 
<path d="M14074 8662 L14146 8686" /> 
<path d="M14146 8686 L14431 8972" /> 
<path d="M14431 8972 L14431 8662" /> 
<g style = "stroke-linecap:round;" > 
<path d="M14431 8662 L14431 8662" /> 
</g><path d="M14431 8424 L14431 8329" /> 
<path d="M14431 8329 L14408 8281" /> 
<path d="M14408 8281 L14384 8257" /> 
<path d="M14384 8257 L14312 8210" /> 
<path d="M14312 8210 L14217 8186" /> 
<path d="M14217 8186 L14027 8186" /> 
<path d="M14027 8186 L13979 8210" /> 
<path d="M13979 8210 L13955 8234" /> 
<path d="M13955 8234 L13931 8281" /> 
<path d="M13931 8281 L13931 8377" /> 
<path d="M13931 8377 L13955 8424" /> 
<path d="M13955 8424 L13979 8448" /> 
<path d="M13979 8448 L14027 8472" /> 
<path d="M14027 8472 L14146 8472" /> 
<path d="M14146 8472 L14193 8448" /> 
<path d="M14193 8448 L14217 8424" /> 
<path d="M14217 8424 L14241 8377" /> 
<path d="M14241 8377 L14241 8281" /> 
<path d="M14241 8281 L14217 8234" /> 
<path d="M14217 8234 L14193 8210" /> 
<path d="M14193 8210 L14146 8186" /> 
<g style = "stroke-linecap:round;" > 
<path d="M14146 8186 L14146 8186" /> 
</g><path d="M14146 7901 L14122 7948" /> 
<path d="M14122 7948 L14098 7972" /> 
<path d="M14098 7972 L14050 7996" /> 
<path d="M14050 7996 L14027 7996" /> 
<path d="M14027 7996 L13979 7972" /> 
<path d="M13979 7972 L13955 7948" /> 
<path d="M13955 7948 L13931 7901" /> 
<path d="M13931 7901 L13931 7805" /> 
<path d="M13931 7805 L13955 7758" /> 
<path d="M13955 7758 L13979 7734" /> 
<path d="M13979 7734 L14027 7710" /> 
<path d="M14027 7710 L14050 7710" /> 
<path d="M14050 7710 L14098 7734" /> 
<path d="M14098 7734 L14122 7758" /> 
<path d="M14122 7758 L14146 7805" /> 
<path d="M14146 7805 L14146 7901" /> 
<path d="M14146 7901 L14169 7948" /> 
<path d="M14169 7948 L14193 7972" /> 
<path d="M14193 7972 L14241 7996" /> 
<path d="M14241 7996 L14336 7996" /> 
<path d="M14336 7996 L14384 7972" /> 
<path d="M14384 7972 L14408 7948" /> 
<path d="M14408 7948 L14431 7901" /> 
<path d="M14431 7901 L14431 7805" /> 
<path d="M14431 7805 L14408 7758" /> 
<path d="M14408 7758 L14384 7734" /> 
<path d="M14384 7734 L14336 7710" /> 
<path d="M14336 7710 L14241 7710" /> 
<path d="M14241 7710 L14193 7734" /> 
<path d="M14193 7734 L14169 7758" /> 
<path d="M14169 7758 L14146 7805" /> 
<g style = "stroke-linecap:round;" > 
<path d="M14146 7805 L14146 7805" /> 
</g></g>
<g style="fill:#C0C0C0; fill-opacity:0.0; stroke:#00A0A0; stroke-opacity:1.00; stroke-linecap:round; stroke-linejoin:round; stroke-width:26" 
   transform="translate(0.00 0.00) scale(1.00 1.00)">
<path d="M12833 15804 L12833 15604" /> 
<path d="M12833 15604 L11733 15604" /> 
<path d="M11733 15804 L11733 15604" /> 
<path d="M12833 15804 L11733 15804" /> 
<path d="M12833 14804 L12833 14604" /> 
<path d="M12833 14604 L11733 14604" /> 
<path d="M11733 14804 L11733 14604" /> 
<path d="M12833 14804 L11733 14804" /> 
<path d="M12833 13804 L12833 13604" /> 
<path d="M12833 13604 L11733 13604" /> 
<path d="M11733 13804 L11733 13604" /> 
<path d="M12833 13804 L11733 13804" /> 
<path d="M12833 12804 L12833 12604" /> 
<path d="M12833 12604 L11733 12604" /> 
<path d="M11733 12804 L11733 12604" /> 
<path d="M12833 12804 L11733 12804" /> 
<path d="M12833 11804 L12833 11604" /> 
<path d="M12833 11604 L11733 11604" /> 
<path d="M11733 11804 L11733 11604" /> 
<path d="M12833 11804 L11733 11804" /> 
<path d="M12833 10804 L12833 10604" /> 
<path d="M12833 10604 L11733 10604" /> 
<path d="M11733 10804 L11733 10604" /> 
<path d="M12833 10804 L11733 10804" /> 
<path d="M12833 9804 L12833 9604" /> 
<path d="M12833 9604 L11733 9604" /> 
<path d="M11733 9804 L11733 9604" /> 
<path d="M12833 9804 L11733 9804" /> 
<path d="M12833 8804 L12833 8604" /> 
<path d="M12833 8604 L11733 8604" /> 
<path d="M11733 8804 L11733 8604" /> 
<path d="M12833 8804 L11733 8804" /> 
<path d="M10365 15934 L10365 8474" /> 
<path d="M10365 8474 L9705 8474" /> 
<path d="M9705 15934 L9705 8474" /> 
<path d="M10365 15934 L9705 15934" /> 
</g>
<g style="fill:#C0C0C0; fill-opacity:0.0; stroke:#00A0A0; stroke-opacity:1.00; stroke-linecap:round; stroke-linejoin:round; stroke-width:60" 
   transform="translate(0.00 0.00) scale(1.00 1.00)">
<path d="M11733 15904 L11733 15804" /> 
<path d="M11733 15804 L11733 8604" /> 
<path d="M11733 8604 L11733 8504" /> 
<path d="M10333 15904 L11733 15904" /> 
<path d="M10333 8504 L11733 8504" /> 
</g>
<g style="fill:#C0C0C0; fill-opacity:0.0; stroke:#0000C0; stroke-opacity:1.00; stroke-linecap:round; stroke-linejoin:round; stroke-width:0" 
   transform="translate(0.00 0.00) scale(1.00 1.00)">
<path d="M10681 15173 L10685 15173" /> 
<path d="M10683 15171 L10683 15175" /> 
</g>
<g style="fill:#C0C0C0; fill-opacity:0.0; stroke:#C0C0C0; stroke-opacity:1.00; stroke-linecap:round; stroke-linejoin:round; stroke-width:35" 
   transform="translate(0.00 0.00) scale(1.00 1.00)">
<path d="M10433 15316 L10409 15292" /> 
<path d="M10409 15292 L10385 15244" /> 
<path d="M10385 15244 L10385 15125" /> 
<path d="M10385 15125 L10409 15078" /> 
<path d="M10409 15078 L10433 15054" /> 
<path d="M10433 15054 L10481 15030" /> 
<path d="M10481 15030 L10528 15030" /> 
<path d="M10528 15030 L10600 15054" /> 
<path d="M10600 15054 L10885 15340" /> 
<path d="M10885 15340 L10885 15030" /> 
<g style = "stroke-linecap:round;" > 
<path d="M10885 15030 L10885 15030" /> 
</g></g>
<g style="fill:#C0C0C0; fill-opacity:0.0; stroke:#0000C0; stroke-opacity:1.00; stroke-linecap:round; stroke-linejoin:round; stroke-width:0" 
   transform="translate(0.00 0.00) scale(1.00 1.00)">
<path d="M10681 9079 L10685 9079" /> 
<path d="M10683 9077 L10683 9081" /> 
</g>
<g style="fill:#C0C0C0; fill-opacity:0.0; stroke:#C0C0C0; stroke-opacity:1.00; stroke-linecap:round; stroke-linejoin:round; stroke-width:35" 
   transform="translate(0.00 0.00) scale(1.00 1.00)">
<path d="M10885 9174 L10885 9460" /> 
<g style = "stroke-linecap:round;" > 
<path d="M10885 9460 L10885 9460" /> 
</g><path d="M10885 9317 L10385 9317" /> 
<path d="M10385 9317 L10457 9365" /> 
<path d="M10457 9365 L10504 9412" /> 
<path d="M10504 9412 L10528 9460" /> 
<g style = "stroke-linecap:round;" > 
<path d="M10528 9460 L10528 9460" /> 
</g><path d="M10552 8746 L10885 8746" /> 
<g style = "stroke-linecap:round;" > 
<path d="M10885 8746 L10885 8746" /> 
</g><path d="M10362 8865 L10719 8984" /> 
<path d="M10719 8984 L10719 8674" /> 
<g style = "stroke-linecap:round;" > 
<path d="M10719 8674 L10719 8674" /> 
</g></g>
<g style="fill:#C0C0C0; fill-opacity:0.0; stroke:#0000C0; stroke-opacity:1.00; stroke-linecap:round; stroke-linejoin:round; stroke-width:0" 
   transform="translate(0.00 0.00) scale(1.00 1.00)">
<path d="M15181 14454 L15185 14454" /> 
<path d="M15183 14452 L15183 14456" /> 
</g>
<g style="fill:#C0C0C0; fill-opacity:0.0; stroke:#C0C0C0; stroke-opacity:1.00; stroke-linecap:round; stroke-linejoin:round; stroke-width:35" 
   transform="translate(0.00 0.00) scale(1.00 1.00)">
<path d="M15052 15632 L15195 15251" /> 
<path d="M15195 15251 L15338 15632" /> 
<g style = "stroke-linecap:round;" > 
<path d="M15338 15632 L15338 15632" /> 
</g><path d="M15385 15013 L14885 15013" /> 
<path d="M14885 15013 L15385 14727" /> 
<path d="M15385 14727 L14885 14727" /> 
<g style = "stroke-linecap:round;" > 
<path d="M14885 14727 L14885 14727" /> 
</g><path d="M15243 14513 L15243 14275" /> 
<g style = "stroke-linecap:round;" > 
<path d="M15243 14275 L15243 14275" /> 
</g><path d="M15385 14560 L14885 14394" /> 
<path d="M14885 14394 L15385 14227" /> 
<g style = "stroke-linecap:round;" > 
<path d="M15385 14227 L15385 14227" /> 
</g><path d="M15385 14060 L14885 14060" /> 
<path d="M14885 14060 L15243 13893" /> 
<path d="M15243 13893 L14885 13727" /> 
<path d="M14885 13727 L15385 13727" /> 
<g style = "stroke-linecap:round;" > 
<path d="M15385 13727 L15385 13727" /> 
</g><path d="M15123 13489 L15123 13322" /> 
<g style = "stroke-linecap:round;" > 
<path d="M15123 13322 L15123 13322" /> 
</g><path d="M15385 13251 L15385 13489" /> 
<path d="M15385 13489 L14885 13489" /> 
<path d="M14885 13489 L14885 13251" /> 
<g style = "stroke-linecap:round;" > 
<path d="M14885 13251 L14885 13251" /> 
</g></g>
<g style="fill:#C0C0C0; fill-opacity:0.0; stroke:#0000C0; stroke-opacity:1.00; stroke-linecap:round; stroke-linejoin:round; stroke-width:0" 
   transform="translate(0.00 0.00) scale(1.00 1.00)">
<path d="M15181 9704 L15185 9704" /> 
<path d="M15183 9702 L15183 9706" /> 
</g>
<g style="fill:#C0C0C0; fill-opacity:0.0; stroke:#C0C0C0; stroke-opacity:1.00; stroke-linecap:round; stroke-linejoin:round; stroke-width:35" 
   transform="translate(0.00 0.00) scale(1.00 1.00)">
<path d="M15052 11014 L15195 10633" /> 
<path d="M15195 10633 L15338 11014" /> 
<g style = "stroke-linecap:round;" > 
<path d="M15338 11014 L15338 11014" /> 
</g><path d="M14885 10466 L15385 10300" /> 
<path d="M15385 10300 L14885 10133" /> 
<g style = "stroke-linecap:round;" > 
<path d="M14885 10133 L14885 10133" /> 
</g><path d="M15243 9990 L15243 9752" /> 
<g style = "stroke-linecap:round;" > 
<path d="M15243 9752 L15243 9752" /> 
</g><path d="M15385 10037 L14885 9871" /> 
<path d="M14885 9871 L15385 9704" /> 
<g style = "stroke-linecap:round;" > 
<path d="M15385 9704 L15385 9704" /> 
</g><path d="M15385 9299 L15385 9537" /> 
<path d="M15385 9537 L14885 9537" /> 
<g style = "stroke-linecap:round;" > 
<path d="M14885 9537 L14885 9537" /> 
</g><path d="M14885 9132 L15290 9132" /> 
<path d="M15290 9132 L15338 9108" /> 
<path d="M15338 9108 L15362 9084" /> 
<path d="M15362 9084 L15385 9037" /> 
<path d="M15385 9037 L15385 8941" /> 
<path d="M15385 8941 L15362 8894" /> 
<path d="M15362 8894 L15338 8870" /> 
<path d="M15338 8870 L15290 8846" /> 
<path d="M15290 8846 L14885 8846" /> 
<g style = "stroke-linecap:round;" > 
<path d="M14885 8846 L14885 8846" /> 
</g><path d="M15123 8608 L15123 8441" /> 
<g style = "stroke-linecap:round;" > 
<path d="M15123 8441 L15123 8441" /> 
</g><path d="M15385 8370 L15385 8608" /> 
<path d="M15385 8608 L14885 8608" /> 
<path d="M14885 8608 L14885 8370" /> 
<g style = "stroke-linecap:round;" > 
<path d="M14885 8370 L14885 8370" /> 
</g></g>
<g style="fill:#808000; fill-opacity:0.0; stroke:#808000; stroke-opacity:1.00; stroke-linecap:round; stroke-linejoin:round; stroke-width:59" 
   transform="translate(0.00 0.00) scale(1.00 1.00)">
<path d="M16941 6180 L16941 5630" /> 
<path d="M16941 5630 L17491 5630" /> 
<path d="M17491 5630 L17491 6180" /> 
<path d="M16941 6180 L17491 6180" /> 
<ellipse cx="18216" cy="5905" rx="275" ry="275"  /> 
</g>
<g style="fill:#808000; fill-opacity:0.0; stroke:#0000C0; stroke-opacity:1.00; stroke-linecap:round; stroke-linejoin:round; stroke-width:0" 
   transform="translate(0.00 0.00) scale(1.00 1.00)">
<path d="M17714 5406 L17718 5406" /> 
<path d="M17716 5404 L17716 5408" /> 
</g>
<g style="fill:#C0C0C0; fill-opacity:0.0; stroke:#C0C0C0; stroke-opacity:1.00; stroke-linecap:round; stroke-linejoin:round; stroke-width:50" 
   transform="translate(0.00 0.00) scale(1.00 1.00)">
<path d="M17666 5499 L17652 5513" /> 
<path d="M17652 5513 L17609 5527" /> 
<path d="M17609 5527 L17580 5527" /> 
<path d="M17580 5527 L17537 5513" /> 
<path d="M17537 5513 L17509 5485" /> 
<path d="M17509 5485 L17494 5456" /> 
<path d="M17494 5456 L17480 5399" /> 
<path d="M17480 5399 L17480 5356" /> 
<path d="M17480 5356 L17494 5299" /> 
<path d="M17494 5299 L17509 5270" /> 
<path d="M17509 5270 L17537 5242" /> 
<path d="M17537 5242 L17580 5227" /> 
<path d="M17580 5227 L17609 5227" /> 
<path d="M17609 5227 L17652 5242" /> 
<path d="M17652 5242 L17666 5256" /> 
<g style = "stroke-linecap:round;" > 
<path d="M17666 5256 L17666 5256" /> 
</g><path d="M17780 5256 L17794 5242" /> 
<path d="M17794 5242 L17823 5227" /> 
<path d="M17823 5227 L17894 5227" /> 
<path d="M17894 5227 L17923 5242" /> 
<path d="M17923 5242 L17937 5256" /> 
<path d="M17937 5256 L17952 5285" /> 
<path d="M17952 5285 L17952 5313" /> 
<path d="M17952 5313 L17937 5356" /> 
<path d="M17937 5356 L17766 5527" /> 
<path d="M17766 5527 L17952 5527" /> 
<g style = "stroke-linecap:round;" > 
<path d="M17952 5527 L17952 5527" /> 
</g></g>
<g style="fill:#C0C0C0; fill-opacity:0.0; stroke:#0000C0; stroke-opacity:1.00; stroke-linecap:round; stroke-linejoin:round; stroke-width:0" 
   transform="translate(0.00 0.00) scale(1.00 1.00)">
<path d="M17714 6405 L17718 6405" /> 
<path d="M17716 6403 L17716 6407" /> 
</g>
<g style="fill:#C0C0C0; fill-opacity:0.0; stroke:#C0C0C0; stroke-opacity:1.00; stroke-linecap:round; stroke-linejoin:round; stroke-width:50" 
   transform="translate(0.00 0.00) scale(1.00 1.00)">
<path d="M17549 6498 L17537 6512" /> 
<path d="M17537 6512 L17502 6526" /> 
<path d="M17502 6526 L17478 6526" /> 
<path d="M17478 6526 L17442 6512" /> 
<path d="M17442 6512 L17418 6484" /> 
<path d="M17418 6484 L17407 6455" /> 
<path d="M17407 6455 L17395 6398" /> 
<path d="M17395 6398 L17395 6355" /> 
<path d="M17395 6355 L17407 6298" /> 
<path d="M17407 6298 L17418 6269" /> 
<path d="M17418 6269 L17442 6241" /> 
<path d="M17442 6241 L17478 6226" /> 
<path d="M17478 6226 L17502 6226" /> 
<path d="M17502 6226 L17537 6241" /> 
<path d="M17537 6241 L17549 6255" /> 
<g style = "stroke-linecap:round;" > 
<path d="M17549 6255 L17549 6255" /> 
</g><path d="M17657 6526 L17657 6226" /> 
<path d="M17657 6226 L17752 6226" /> 
<path d="M17752 6226 L17776 6241" /> 
<path d="M17776 6241 L17787 6255" /> 
<path d="M17787 6255 L17799 6284" /> 
<path d="M17799 6284 L17799 6326" /> 
<path d="M17799 6326 L17787 6355" /> 
<path d="M17787 6355 L17776 6369" /> 
<path d="M17776 6369 L17752 6384" /> 
<path d="M17752 6384 L17657 6384" /> 
<g style = "stroke-linecap:round;" > 
<path d="M17657 6384 L17657 6384" /> 
</g><path d="M18037 6526 L17895 6526" /> 
<g style = "stroke-linecap:round;" > 
<path d="M17895 6526 L17895 6526" /> 
</g><path d="M17966 6526 L17966 6226" /> 
<path d="M17966 6226 L17942 6269" /> 
<path d="M17942 6269 L17918 6298" /> 
<path d="M17918 6298 L17895 6312" /> 
<g style = "stroke-linecap:round;" > 
<path d="M17895 6312 L17895 6312" /> 
</g></g>
<g style="fill:#C0C0C0; fill-opacity:0.0; stroke:#0000C0; stroke-opacity:1.00; stroke-linecap:round; stroke-linejoin:round; stroke-width:0" 
   transform="translate(0.00 0.00) scale(1.00 1.00)">
<path d="M16814 5905 L16818 5905" /> 
<path d="M16816 5903 L16816 5907" /> 
</g>
<g style="fill:#C0C0C0; fill-opacity:0.0; stroke:#C0C0C0; stroke-opacity:1.00; stroke-linecap:round; stroke-linejoin:round; stroke-width:75" 
   transform="translate(0.00 0.00) scale(1.00 1.00)">
<path d="M16702 5912 L16931 5912" /> 
<g style = "stroke-linecap:round;" > 
<path d="M16931 5912 L16931 5912" /> 
</g><path d="M16817 6026 L16817 5798" /> 
<g style = "stroke-linecap:round;" > 
<path d="M16817 5798 L16817 5798" /> 
</g></g>
<g style="fill:#00A0A0; fill-opacity:0.0; stroke:#00A0A0; stroke-opacity:1.00; stroke-linecap:round; stroke-linejoin:round; stroke-width:50" 
   transform="translate(0.00 0.00) scale(1.00 1.00)">
<ellipse cx="17716" cy="5905" rx="1001" ry="1001"  /> 
</g>
<g style="fill:#808000; fill-opacity:0.0; stroke:#808000; stroke-opacity:1.00; stroke-linecap:round; stroke-linejoin:round; stroke-width:59" 
   transform="translate(0.00 0.00) scale(1.00 1.00)">
<path d="M8583 5524 L9133 5524" /> 
<path d="M9133 5524 L9133 6074" /> 
<path d="M9133 6074 L8583 6074" /> 
<path d="M8583 5524 L8583 6074" /> 
<ellipse cx="8858" cy="6799" rx="275" ry="275"  /> 
</g>
<g style="fill:#808000; fill-opacity:0.0; stroke:#0000C0; stroke-opacity:1.00; stroke-linecap:round; stroke-linejoin:round; stroke-width:0" 
   transform="translate(0.00 0.00) scale(1.00 1.00)">
<path d="M9355 6299 L9359 6299" /> 
<path d="M9357 6297 L9357 6301" /> 
</g>
<g style="fill:#C0C0C0; fill-opacity:0.0; stroke:#C0C0C0; stroke-opacity:1.00; stroke-linecap:round; stroke-linejoin:round; stroke-width:50" 
   transform="translate(0.00 0.00) scale(1.00 1.00)">
<path d="M9450 6349 L9464 6363" /> 
<path d="M9464 6363 L9478 6406" /> 
<path d="M9478 6406 L9478 6435" /> 
<path d="M9478 6435 L9464 6478" /> 
<path d="M9464 6478 L9436 6506" /> 
<path d="M9436 6506 L9407 6521" /> 
<path d="M9407 6521 L9350 6535" /> 
<path d="M9350 6535 L9307 6535" /> 
<path d="M9307 6535 L9250 6521" /> 
<path d="M9250 6521 L9221 6506" /> 
<path d="M9221 6506 L9193 6478" /> 
<path d="M9193 6478 L9178 6435" /> 
<path d="M9178 6435 L9178 6406" /> 
<path d="M9178 6406 L9193 6363" /> 
<path d="M9193 6363 L9207 6349" /> 
<g style = "stroke-linecap:round;" > 
<path d="M9207 6349 L9207 6349" /> 
</g><path d="M9178 6249 L9178 6063" /> 
<path d="M9178 6063 L9293 6163" /> 
<path d="M9293 6163 L9293 6121" /> 
<path d="M9293 6121 L9307 6092" /> 
<path d="M9307 6092 L9321 6078" /> 
<path d="M9321 6078 L9350 6063" /> 
<path d="M9350 6063 L9421 6063" /> 
<path d="M9421 6063 L9450 6078" /> 
<path d="M9450 6078 L9464 6092" /> 
<path d="M9464 6092 L9478 6121" /> 
<path d="M9478 6121 L9478 6206" /> 
<path d="M9478 6206 L9464 6235" /> 
<path d="M9464 6235 L9450 6249" /> 
<g style = "stroke-linecap:round;" > 
<path d="M9450 6249 L9450 6249" /> 
</g></g>
<g style="fill:#C0C0C0; fill-opacity:0.0; stroke:#0000C0; stroke-opacity:1.00; stroke-linecap:round; stroke-linejoin:round; stroke-width:0" 
   transform="translate(0.00 0.00) scale(1.00 1.00)">
<path d="M8356 6299 L8360 6299" /> 
<path d="M8358 6297 L8358 6301" /> 
</g>
<g style="fill:#C0C0C0; fill-opacity:0.0; stroke:#C0C0C0; stroke-opacity:1.00; stroke-linecap:round; stroke-linejoin:round; stroke-width:50" 
   transform="translate(0.00 0.00) scale(1.00 1.00)">
<path d="M8451 6466 L8465 6478" /> 
<path d="M8465 6478 L8479 6513" /> 
<path d="M8479 6513 L8479 6537" /> 
<path d="M8479 6537 L8465 6573" /> 
<path d="M8465 6573 L8437 6597" /> 
<path d="M8437 6597 L8408 6608" /> 
<path d="M8408 6608 L8351 6620" /> 
<path d="M8351 6620 L8308 6620" /> 
<path d="M8308 6620 L8251 6608" /> 
<path d="M8251 6608 L8222 6597" /> 
<path d="M8222 6597 L8194 6573" /> 
<path d="M8194 6573 L8179 6537" /> 
<path d="M8179 6537 L8179 6513" /> 
<path d="M8179 6513 L8194 6478" /> 
<path d="M8194 6478 L8208 6466" /> 
<g style = "stroke-linecap:round;" > 
<path d="M8208 6466 L8208 6466" /> 
</g><path d="M8479 6358 L8179 6358" /> 
<path d="M8179 6358 L8179 6263" /> 
<path d="M8179 6263 L8194 6239" /> 
<path d="M8194 6239 L8208 6228" /> 
<path d="M8208 6228 L8237 6216" /> 
<path d="M8237 6216 L8279 6216" /> 
<path d="M8279 6216 L8308 6228" /> 
<path d="M8308 6228 L8322 6239" /> 
<path d="M8322 6239 L8337 6263" /> 
<path d="M8337 6263 L8337 6358" /> 
<g style = "stroke-linecap:round;" > 
<path d="M8337 6358 L8337 6358" /> 
</g><path d="M8479 5978 L8479 6120" /> 
<g style = "stroke-linecap:round;" > 
<path d="M8479 6120 L8479 6120" /> 
</g><path d="M8479 6049 L8179 6049" /> 
<path d="M8179 6049 L8222 6073" /> 
<path d="M8222 6073 L8251 6097" /> 
<path d="M8251 6097 L8265 6120" /> 
<g style = "stroke-linecap:round;" > 
<path d="M8265 6120 L8265 6120" /> 
</g></g>
<g style="fill:#C0C0C0; fill-opacity:0.0; stroke:#0000C0; stroke-opacity:1.00; stroke-linecap:round; stroke-linejoin:round; stroke-width:0" 
   transform="translate(0.00 0.00) scale(1.00 1.00)">
<path d="M8856 5399 L8860 5399" /> 
<path d="M8858 5397 L8858 5401" /> 
</g>
<g style="fill:#C0C0C0; fill-opacity:0.0; stroke:#C0C0C0; stroke-opacity:1.00; stroke-linecap:round; stroke-linejoin:round; stroke-width:75" 
   transform="translate(0.00 0.00) scale(1.00 1.00)">
<path d="M8865 5513 L8865 5284" /> 
<g style = "stroke-linecap:round;" > 
<path d="M8865 5284 L8865 5284" /> 
</g><path d="M8979 5398 L8751 5398" /> 
<g style = "stroke-linecap:round;" > 
<path d="M8751 5398 L8751 5398" /> 
</g></g>
<g style="fill:#00A0A0; fill-opacity:0.0; stroke:#00A0A0; stroke-opacity:1.00; stroke-linecap:round; stroke-linejoin:round; stroke-width:50" 
   transform="translate(0.00 0.00) scale(1.00 1.00)">
<ellipse cx="8858" cy="6299" rx="1001" ry="1001"  /> 
</g>
<g style="fill:#808000; fill-opacity:0.0; stroke:#808000; stroke-opacity:1.00; stroke-linecap:round; stroke-linejoin:round; stroke-width:59" 
   transform="translate(0.00 0.00) scale(1.00 1.00)">
<ellipse cx="13689" cy="22441" rx="275" ry="275"  /> 
<ellipse cx="12689" cy="22441" rx="275" ry="275"  /> 
</g>
<g style="fill:#808000; fill-opacity:0.0; stroke:#0000C0; stroke-opacity:1.00; stroke-linecap:round; stroke-linejoin:round; stroke-width:0" 
   transform="translate(0.00 0.00) scale(1.00 1.00)">
<path d="M13087 23341 L13091 23341" /> 
<path d="M13089 23339 L13089 23343" /> 
</g>
<g style="fill:#C0C0C0; fill-opacity:0.0; stroke:#C0C0C0; stroke-opacity:1.00; stroke-linecap:round; stroke-linejoin:round; stroke-width:80" 
   transform="translate(0.00 0.00) scale(1.00 1.00)">
<path d="M13023 23465 L13004 23484" /> 
<path d="M13004 23484 L12947 23503" /> 
<path d="M12947 23503 L12909 23503" /> 
<path d="M12909 23503 L12851 23484" /> 
<path d="M12851 23484 L12813 23446" /> 
<path d="M12813 23446 L12794 23408" /> 
<path d="M12794 23408 L12775 23331" /> 
<path d="M12775 23331 L12775 23274" /> 
<path d="M12775 23274 L12794 23198" /> 
<path d="M12794 23198 L12813 23160" /> 
<path d="M12813 23160 L12851 23122" /> 
<path d="M12851 23122 L12909 23103" /> 
<path d="M12909 23103 L12947 23103" /> 
<path d="M12947 23103 L13004 23122" /> 
<path d="M13004 23122 L13023 23141" /> 
<g style = "stroke-linecap:round;" > 
<path d="M13023 23141 L13023 23141" /> 
</g><path d="M13404 23503 L13175 23503" /> 
<g style = "stroke-linecap:round;" > 
<path d="M13175 23503 L13175 23503" /> 
</g><path d="M13289 23503 L13289 23103" /> 
<path d="M13289 23103 L13251 23160" /> 
<path d="M13251 23160 L13213 23198" /> 
<path d="M13213 23198 L13175 23217" /> 
<g style = "stroke-linecap:round;" > 
<path d="M13175 23217 L13175 23217" /> 
</g></g>
<g style="fill:#C0C0C0; fill-opacity:0.0; stroke:#00A0A0; stroke-opacity:1.00; stroke-linecap:round; stroke-linejoin:round; stroke-width:120" 
   transform="translate(0.00 0.00) scale(1.00 1.00)">
<path d="M14169 22941 L12189 22941" /> 
<path d="M12189 22941 L12189 21941" /> 
<path d="M12189 21941 L14189 21941" /> 
<path d="M14189 21941 L14189 22941" /> 
<path d="M14189 22691 L13939 22941" /> 
</g>
<g style="fill:#808000; fill-opacity:0.0; stroke:#808000; stroke-opacity:1.00; stroke-linecap:round; stroke-linejoin:round; stroke-width:59" 
   transform="translate(0.00 0.00) scale(1.00 1.00)">
<ellipse cx="5906" cy="5906" rx="800" ry="800"  /> 
</g>
<g style="fill:#808000; fill-opacity:0.0; stroke:#0000C0; stroke-opacity:1.00; stroke-linecap:round; stroke-linejoin:round; stroke-width:0" 
   transform="translate(0.00 0.00) scale(1.00 1.00)">
<path d="M5903 5099 L5907 5099" /> 
<path d="M5905 5097 L5905 5101" /> 
</g>
<g style="fill:#C0C0C0; fill-opacity:0.0; stroke:#C0C0C0; stroke-opacity:1.00; stroke-linecap:round; stroke-linejoin:round; stroke-width:100" 
   transform="translate(0.00 0.00) scale(1.00 1.00)">
<path d="M5515 5261 L5286 5261" /> 
<g style = "stroke-linecap:round;" > 
<path d="M5286 5261 L5286 5261" /> 
</g><path d="M5400 5261 L5400 4861" /> 
<path d="M5400 4861 L5362 4918" /> 
<path d="M5362 4918 L5324 4956" /> 
<path d="M5324 4956 L5286 4975" /> 
<g style = "stroke-linecap:round;" > 
<path d="M5286 4975 L5286 4975" /> 
</g><path d="M5686 5261 L5686 4861" /> 
<path d="M5686 4861 L5839 4861" /> 
<path d="M5839 4861 L5877 4880" /> 
<path d="M5877 4880 L5896 4899" /> 
<path d="M5896 4899 L5915 4937" /> 
<path d="M5915 4937 L5915 4994" /> 
<path d="M5915 4994 L5896 5032" /> 
<path d="M5896 5032 L5877 5051" /> 
<path d="M5877 5051 L5839 5070" /> 
<path d="M5839 5070 L5686 5070" /> 
<g style = "stroke-linecap:round;" > 
<path d="M5686 5070 L5686 5070" /> 
</g><path d="M6086 5261 L6086 4861" /> 
<g style = "stroke-linecap:round;" > 
<path d="M6086 4861 L6086 4861" /> 
</g><path d="M6276 5261 L6276 4861" /> 
<path d="M6276 4861 L6505 5261" /> 
<path d="M6505 5261 L6505 4861" /> 
<g style = "stroke-linecap:round;" > 
<path d="M6505 4861 L6505 4861" /> 
</g></g>
<g style="fill:#00A0A0; fill-opacity:0.0; stroke:#00A0A0; stroke-opacity:1.00; stroke-linecap:round; stroke-linejoin:round; stroke-width:150" 
   transform="translate(0.00 0.00) scale(1.00 1.00)">
<ellipse cx="5906" cy="5906" rx="900" ry="900"  /> 
</g>
<g style="fill:#808000; fill-opacity:0.0; stroke:#808000; stroke-opacity:1.00; stroke-linecap:round; stroke-linejoin:round; stroke-width:59" 
   transform="translate(0.00 0.00) scale(1.00 1.00)">
<ellipse cx="5906" cy="23228" rx="800" ry="800"  /> 
</g>
<g style="fill:#808000; fill-opacity:0.0; stroke:#0000C0; stroke-opacity:1.00; stroke-linecap:round; stroke-linejoin:round; stroke-width:0" 
   transform="translate(0.00 0.00) scale(1.00 1.00)">
<path d="M5903 22028 L5907 22028" /> 
<path d="M5905 22026 L5905 22030" /> 
</g>
<g style="fill:#C0C0C0; fill-opacity:0.0; stroke:#C0C0C0; stroke-opacity:1.00; stroke-linecap:round; stroke-linejoin:round; stroke-width:100" 
   transform="translate(0.00 0.00) scale(1.00 1.00)">
<path d="M5515 22190 L5286 22190" /> 
<g style = "stroke-linecap:round;" > 
<path d="M5286 22190 L5286 22190" /> 
</g><path d="M5400 22190 L5400 21790" /> 
<path d="M5400 21790 L5362 21847" /> 
<path d="M5362 21847 L5324 21885" /> 
<path d="M5324 21885 L5286 21904" /> 
<g style = "stroke-linecap:round;" > 
<path d="M5286 21904 L5286 21904" /> 
</g><path d="M5686 22190 L5686 21790" /> 
<path d="M5686 21790 L5839 21790" /> 
<path d="M5839 21790 L5877 21809" /> 
<path d="M5877 21809 L5896 21828" /> 
<path d="M5896 21828 L5915 21866" /> 
<path d="M5915 21866 L5915 21923" /> 
<path d="M5915 21923 L5896 21961" /> 
<path d="M5896 21961 L5877 21980" /> 
<path d="M5877 21980 L5839 21999" /> 
<path d="M5839 21999 L5686 21999" /> 
<g style = "stroke-linecap:round;" > 
<path d="M5686 21999 L5686 21999" /> 
</g><path d="M6086 22190 L6086 21790" /> 
<g style = "stroke-linecap:round;" > 
<path d="M6086 21790 L6086 21790" /> 
</g><path d="M6276 22190 L6276 21790" /> 
<path d="M6276 21790 L6505 22190" /> 
<path d="M6505 22190 L6505 21790" /> 
<g style = "stroke-linecap:round;" > 
<path d="M6505 21790 L6505 21790" /> 
</g></g>
<g style="fill:#00A0A0; fill-opacity:0.0; stroke:#00A0A0; stroke-opacity:1.00; stroke-linecap:round; stroke-linejoin:round; stroke-width:150" 
   transform="translate(0.00 0.00) scale(1.00 1.00)">
<ellipse cx="5906" cy="23228" rx="900" ry="900"  /> 
</g>
<g style="fill:#808000; fill-opacity:0.0; stroke:#808000; stroke-opacity:1.00; stroke-linecap:round; stroke-linejoin:round; stroke-width:59" 
   transform="translate(0.00 0.00) scale(1.00 1.00)">
<ellipse cx="23228" cy="5906" rx="800" ry="800"  /> 
</g>
<g style="fill:#808000; fill-opacity:0.0; stroke:#0000C0; stroke-opacity:1.00; stroke-linecap:round; stroke-linejoin:round; stroke-width:0" 
   transform="translate(0.00 0.00) scale(1.00 1.00)">
<path d="M23226 4705 L23230 4705" /> 
<path d="M23228 4703 L23228 4707" /> 
</g>
<g style="fill:#C0C0C0; fill-opacity:0.0; stroke:#C0C0C0; stroke-opacity:1.00; stroke-linecap:round; stroke-linejoin:round; stroke-width:100" 
   transform="translate(0.00 0.00) scale(1.00 1.00)">
<path d="M22838 4867 L22609 4867" /> 
<g style = "stroke-linecap:round;" > 
<path d="M22609 4867 L22609 4867" /> 
</g><path d="M22723 4867 L22723 4467" /> 
<path d="M22723 4467 L22685 4524" /> 
<path d="M22685 4524 L22647 4562" /> 
<path d="M22647 4562 L22609 4581" /> 
<g style = "stroke-linecap:round;" > 
<path d="M22609 4581 L22609 4581" /> 
</g><path d="M23009 4867 L23009 4467" /> 
<path d="M23009 4467 L23162 4467" /> 
<path d="M23162 4467 L23200 4486" /> 
<path d="M23200 4486 L23219 4505" /> 
<path d="M23219 4505 L23238 4543" /> 
<path d="M23238 4543 L23238 4600" /> 
<path d="M23238 4600 L23219 4638" /> 
<path d="M23219 4638 L23200 4657" /> 
<path d="M23200 4657 L23162 4676" /> 
<path d="M23162 4676 L23009 4676" /> 
<g style = "stroke-linecap:round;" > 
<path d="M23009 4676 L23009 4676" /> 
</g><path d="M23409 4867 L23409 4467" /> 
<g style = "stroke-linecap:round;" > 
<path d="M23409 4467 L23409 4467" /> 
</g><path d="M23599 4867 L23599 4467" /> 
<path d="M23599 4467 L23828 4867" /> 
<path d="M23828 4867 L23828 4467" /> 
<g style = "stroke-linecap:round;" > 
<path d="M23828 4467 L23828 4467" /> 
</g></g>
<g style="fill:#00A0A0; fill-opacity:0.0; stroke:#00A0A0; stroke-opacity:1.00; stroke-linecap:round; stroke-linejoin:round; stroke-width:150" 
   transform="translate(0.00 0.00) scale(1.00 1.00)">
<ellipse cx="23228" cy="5906" rx="900" ry="900"  /> 
</g>
<g style="fill:#808000; fill-opacity:0.0; stroke:#808000; stroke-opacity:1.00; stroke-linecap:round; stroke-linejoin:round; stroke-width:59" 
   transform="translate(0.00 0.00) scale(1.00 1.00)">
<ellipse cx="23228" cy="23228" rx="800" ry="800"  /> 
</g>
<g style="fill:#808000; fill-opacity:0.0; stroke:#0000C0; stroke-opacity:1.00; stroke-linecap:round; stroke-linejoin:round; stroke-width:0" 
   transform="translate(0.00 0.00) scale(1.00 1.00)">
<path d="M23226 22028 L23230 22028" /> 
<path d="M23228 22026 L23228 22030" /> 
</g>
<g style="fill:#C0C0C0; fill-opacity:0.0; stroke:#C0C0C0; stroke-opacity:1.00; stroke-linecap:round; stroke-linejoin:round; stroke-width:100" 
   transform="translate(0.00 0.00) scale(1.00 1.00)">
<path d="M22838 22190 L22609 22190" /> 
<g style = "stroke-linecap:round;" > 
<path d="M22609 22190 L22609 22190" /> 
</g><path d="M22723 22190 L22723 21790" /> 
<path d="M22723 21790 L22685 21847" /> 
<path d="M22685 21847 L22647 21885" /> 
<path d="M22647 21885 L22609 21904" /> 
<g style = "stroke-linecap:round;" > 
<path d="M22609 21904 L22609 21904" /> 
</g><path d="M23009 22190 L23009 21790" /> 
<path d="M23009 21790 L23162 21790" /> 
<path d="M23162 21790 L23200 21809" /> 
<path d="M23200 21809 L23219 21828" /> 
<path d="M23219 21828 L23238 21866" /> 
<path d="M23238 21866 L23238 21923" /> 
<path d="M23238 21923 L23219 21961" /> 
<path d="M23219 21961 L23200 21980" /> 
<path d="M23200 21980 L23162 21999" /> 
<path d="M23162 21999 L23009 21999" /> 
<g style = "stroke-linecap:round;" > 
<path d="M23009 21999 L23009 21999" /> 
</g><path d="M23409 22190 L23409 21790" /> 
<g style = "stroke-linecap:round;" > 
<path d="M23409 21790 L23409 21790" /> 
</g><path d="M23599 22190 L23599 21790" /> 
<path d="M23599 21790 L23828 22190" /> 
<path d="M23828 22190 L23828 21790" /> 
<g style = "stroke-linecap:round;" > 
<path d="M23828 21790 L23828 21790" /> 
</g></g>
<g style="fill:#00A0A0; fill-opacity:0.0; stroke:#00A0A0; stroke-opacity:1.00; stroke-linecap:round; stroke-linejoin:round; stroke-width:150" 
   transform="translate(0.00 0.00) scale(1.00 1.00)">
<ellipse cx="23228" cy="23228" rx="900" ry="900"  /> 
</g> 
</svg> 
