M48
M72,TZ
T10C0.060000
T11C0.035000
T12C0.042000
T13C0.030000
T14C0.165354
T15C0.023622
%
T10
X0.797530Y0.236067
X0.997530Y0.286067
X0.797530Y0.336067
X0.997530Y0.386067
X0.797530Y0.436067
X0.997530Y0.486067
X0.797530Y0.536067
X0.997530Y0.586067
X0.797530Y0.636067
X0.997530Y0.686067
X0.797530Y0.736067
X0.997530Y0.786067
X0.797530Y0.836067
X0.997530Y0.886067
X0.797530Y0.936067
T11
X0.546644Y0.992667
X0.579178Y0.827822
X1.208870Y0.835822
X1.110800Y0.894044
X1.196260Y0.155540
X1.291060Y0.593167
X1.235990Y0.476222
X1.698880Y0.475256
X1.590860Y0.547456
X1.477710Y0.633789
X1.374890Y0.719122
X0.112078Y0.674690
X0.112078Y0.574690
X0.112078Y0.474690
X0.112078Y0.374690
X0.112078Y0.274690
X0.112078Y0.174690
X0.421767Y1.112389
X0.321767Y1.112389
X0.221767Y1.112389
X0.121767Y1.112389
X0.540989Y0.082710
X0.640989Y0.082710
X0.740989Y0.082710
X0.840989Y0.082710
X1.852420Y0.400784
X1.852420Y0.538579
X1.852420Y0.676374
X1.852420Y0.814169
T12
X1.366670Y0.831156
X1.366670Y1.129156
X1.472900Y0.833089
X1.472900Y1.131089
X1.579010Y0.833811
X1.579010Y1.131811
X1.685950Y0.834356
X1.685950Y1.132356
X1.373120Y0.080010
X1.373120Y0.378011
X1.481630Y0.079230
X1.481630Y0.377233
X1.589300Y0.079970
X1.589300Y0.377967
X1.697080Y0.080440
X1.697080Y0.378444
T13
X0.540826Y0.201840
X0.641011Y0.201840
T14
X0.359921Y0.120810
X1.886480Y0.118830
X1.888810Y1.071367
T15
X0.209100Y0.656767
X0.667333Y0.590989
T00
M30
