G04 MADE WITH FRITZING*
G04 WWW.FRITZING.ORG*
G04 DOUBLE SIDED*
G04 HOLES PLATED*
G04 CONTOUR ON CENTER OF CONTOUR VECTOR*
%ASAXBY*%
%FSLAX23Y23*%
%MOIN*%
%OFA0B0*%
%SFA1.0B1.0*%
%ADD10C,0.008*%
%LNCONTOUR*%
G90*
G70*
G54D10*
X0Y1200D02*
X0Y1199D01*
X0Y1D01*
X1Y1D01*
X2Y1D01*
X3Y1D01*
X4Y1D01*
X5Y1D01*
X6Y1D01*
X7Y1D01*
X8Y1D01*
X9Y1D01*
X10Y1D01*
X11Y1D01*
X12Y1D01*
X13Y1D01*
X14Y1D01*
X15Y1D01*
X16Y1D01*
X17Y1D01*
X18Y1D01*
X19Y1D01*
X20Y1D01*
X21Y1D01*
X22Y1D01*
X23Y1D01*
X24Y1D01*
X25Y1D01*
X26Y1D01*
X27Y1D01*
X28Y1D01*
X29Y1D01*
X30Y1D01*
X31Y1D01*
X32Y1D01*
X33Y1D01*
X34Y1D01*
X35Y1D01*
X36Y1D01*
X37Y1D01*
X38Y1D01*
X39Y1D01*
X40Y1D01*
X41Y1D01*
X42Y1D01*
X43Y1D01*
X44Y1D01*
X45Y1D01*
X46Y1D01*
X47Y1D01*
X48Y1D01*
X49Y1D01*
X50Y1D01*
X51Y1D01*
X52Y1D01*
X53Y1D01*
X54Y1D01*
X55Y1D01*
X56Y1D01*
X57Y1D01*
X58Y1D01*
X59Y1D01*
X60Y1D01*
X61Y1D01*
X62Y1D01*
X63Y1D01*
X64Y1D01*
X65Y1D01*
X66Y1D01*
X67Y1D01*
X68Y1D01*
X69Y1D01*
X70Y1D01*
X71Y1D01*
X72Y1D01*
X73Y1D01*
X74Y1D01*
X75Y1D01*
X76Y1D01*
X77Y1D01*
X78Y1D01*
X79Y1D01*
X80Y1D01*
X81Y1D01*
X82Y1D01*
X83Y1D01*
X84Y1D01*
X85Y1D01*
X86Y1D01*
X87Y1D01*
X88Y1D01*
X89Y1D01*
X90Y1D01*
X91Y1D01*
X92Y1D01*
X93Y1D01*
X94Y1D01*
X95Y1D01*
X96Y1D01*
X97Y1D01*
X98Y1D01*
X99Y1D01*
X100Y1D01*
X101Y1D01*
X102Y1D01*
X103Y1D01*
X104Y1D01*
X105Y1D01*
X106Y1D01*
X107Y1D01*
X108Y1D01*
X109Y1D01*
X110Y1D01*
X111Y1D01*
X112Y1D01*
X113Y1D01*
X114Y1D01*
X115Y1D01*
X116Y1D01*
X117Y1D01*
X118Y1D01*
X119Y1D01*
X120Y1D01*
X121Y1D01*
X122Y1D01*
X123Y1D01*
X124Y1D01*
X125Y1D01*
X126Y1D01*
X127Y1D01*
X128Y1D01*
X129Y1D01*
X130Y1D01*
X131Y1D01*
X132Y1D01*
X133Y1D01*
X134Y1D01*
X135Y1D01*
X136Y1D01*
X137Y1D01*
X138Y1D01*
X139Y1D01*
X140Y1D01*
X141Y1D01*
X142Y1D01*
X143Y1D01*
X144Y1D01*
X145Y1D01*
X146Y1D01*
X147Y1D01*
X148Y1D01*
X149Y1D01*
X150Y1D01*
X151Y1D01*
X152Y1D01*
X153Y1D01*
X154Y1D01*
X155Y1D01*
X156Y1D01*
X157Y1D01*
X158Y1D01*
X159Y1D01*
X160Y1D01*
X161Y1D01*
X162Y1D01*
X163Y1D01*
X164Y1D01*
X165Y1D01*
X166Y1D01*
X167Y1D01*
X168Y1D01*
X169Y1D01*
X170Y1D01*
X171Y1D01*
X172Y1D01*
X173Y1D01*
X174Y1D01*
X175Y1D01*
X176Y1D01*
X177Y1D01*
X178Y1D01*
X179Y1D01*
X180Y1D01*
X181Y1D01*
X182Y1D01*
X183Y1D01*
X184Y1D01*
X185Y1D01*
X186Y1D01*
X187Y1D01*
X188Y1D01*
X189Y1D01*
X190Y1D01*
X191Y1D01*
X192Y1D01*
X193Y1D01*
X194Y1D01*
X195Y1D01*
X196Y1D01*
X197Y1D01*
X198Y1D01*
X199Y1D01*
X200Y1D01*
X201Y1D01*
X202Y1D01*
X203Y1D01*
X204Y1D01*
X205Y1D01*
X206Y1D01*
X207Y1D01*
X208Y1D01*
X209Y1D01*
X210Y1D01*
X211Y1D01*
X212Y1D01*
X213Y1D01*
X214Y1D01*
X215Y1D01*
X216Y1D01*
X217Y1D01*
X218Y1D01*
X219Y1D01*
X220Y1D01*
X221Y1D01*
X222Y1D01*
X223Y1D01*
X224Y1D01*
X225Y1D01*
X226Y1D01*
X227Y1D01*
X228Y1D01*
X229Y1D01*
X230Y1D01*
X231Y1D01*
X232Y1D01*
X233Y1D01*
X234Y1D01*
X235Y1D01*
X236Y1D01*
X237Y1D01*
X238Y1D01*
X239Y1D01*
X240Y1D01*
X241Y1D01*
X242Y1D01*
X243Y1D01*
X244Y1D01*
X245Y1D01*
X246Y1D01*
X247Y1D01*
X248Y1D01*
X249Y1D01*
X250Y1D01*
X251Y1D01*
X252Y1D01*
X253Y1D01*
X254Y1D01*
X255Y1D01*
X256Y1D01*
X257Y1D01*
X258Y1D01*
X259Y1D01*
X260Y1D01*
X261Y1D01*
X262Y1D01*
X263Y1D01*
X264Y1D01*
X265Y1D01*
X266Y1D01*
X267Y1D01*
X268Y1D01*
X269Y1D01*
X270Y1D01*
X271Y1D01*
X272Y1D01*
X273Y1D01*
X274Y1D01*
X275Y1D01*
X276Y1D01*
X277Y1D01*
X278Y1D01*
X279Y1D01*
X280Y1D01*
X281Y1D01*
X282Y1D01*
X283Y1D01*
X284Y1D01*
X285Y1D01*
X286Y1D01*
X287Y1D01*
X288Y1D01*
X289Y1D01*
X290Y1D01*
X291Y1D01*
X292Y1D01*
X293Y1D01*
X294Y1D01*
X295Y1D01*
X296Y1D01*
X297Y1D01*
X298Y1D01*
X299Y1D01*
X300Y1D01*
X301Y1D01*
X302Y1D01*
X303Y1D01*
X304Y1D01*
X305Y1D01*
X306Y1D01*
X307Y1D01*
X308Y1D01*
X309Y1D01*
X310Y1D01*
X311Y1D01*
X312Y1D01*
X313Y1D01*
X314Y1D01*
X315Y1D01*
X316Y1D01*
X317Y1D01*
X318Y1D01*
X319Y1D01*
X320Y1D01*
X321Y1D01*
X322Y1D01*
X323Y1D01*
X324Y1D01*
X325Y1D01*
X326Y1D01*
X327Y1D01*
X328Y1D01*
X329Y1D01*
X330Y1D01*
X331Y1D01*
X332Y1D01*
X333Y1D01*
X334Y1D01*
X335Y1D01*
X336Y1D01*
X337Y1D01*
X338Y1D01*
X339Y1D01*
X340Y1D01*
X341Y1D01*
X342Y1D01*
X343Y1D01*
X344Y1D01*
X345Y1D01*
X346Y1D01*
X347Y1D01*
X348Y1D01*
X349Y1D01*
X350Y1D01*
X351Y1D01*
X352Y1D01*
X353Y1D01*
X354Y1D01*
X355Y1D01*
X356Y1D01*
X357Y1D01*
X358Y1D01*
X359Y1D01*
X360Y1D01*
X361Y1D01*
X362Y1D01*
X363Y1D01*
X364Y1D01*
X365Y1D01*
X366Y1D01*
X367Y1D01*
X368Y1D01*
X369Y1D01*
X370Y1D01*
X371Y1D01*
X372Y1D01*
X373Y1D01*
X374Y1D01*
X375Y1D01*
X376Y1D01*
X377Y1D01*
X378Y1D01*
X379Y1D01*
X380Y1D01*
X381Y1D01*
X382Y1D01*
X383Y1D01*
X384Y1D01*
X385Y1D01*
X386Y1D01*
X387Y1D01*
X388Y1D01*
X389Y1D01*
X390Y1D01*
X391Y1D01*
X392Y1D01*
X393Y1D01*
X394Y1D01*
X395Y1D01*
X396Y1D01*
X397Y1D01*
X398Y1D01*
X399Y1D01*
X400Y1D01*
X401Y1D01*
X402Y1D01*
X403Y1D01*
X404Y1D01*
X405Y1D01*
X406Y1D01*
X407Y1D01*
X408Y1D01*
X409Y1D01*
X410Y1D01*
X411Y1D01*
X412Y1D01*
X413Y1D01*
X414Y1D01*
X415Y1D01*
X416Y1D01*
X417Y1D01*
X418Y1D01*
X419Y1D01*
X420Y1D01*
X421Y1D01*
X422Y1D01*
X423Y1D01*
X424Y1D01*
X425Y1D01*
X426Y1D01*
X427Y1D01*
X428Y1D01*
X429Y1D01*
X430Y1D01*
X431Y1D01*
X432Y1D01*
X433Y1D01*
X434Y1D01*
X435Y1D01*
X436Y1D01*
X437Y1D01*
X438Y1D01*
X439Y1D01*
X440Y1D01*
X441Y1D01*
X442Y1D01*
X443Y1D01*
X444Y1D01*
X445Y1D01*
X446Y1D01*
X447Y1D01*
X448Y1D01*
X449Y1D01*
X450Y1D01*
X451Y1D01*
X452Y1D01*
X453Y1D01*
X454Y1D01*
X455Y1D01*
X456Y1D01*
X457Y1D01*
X458Y1D01*
X459Y1D01*
X460Y1D01*
X461Y1D01*
X462Y1D01*
X463Y1D01*
X464Y1D01*
X465Y1D01*
X466Y1D01*
X467Y1D01*
X468Y1D01*
X469Y1D01*
X470Y1D01*
X471Y1D01*
X472Y1D01*
X473Y1D01*
X474Y1D01*
X475Y1D01*
X476Y1D01*
X477Y1D01*
X478Y1D01*
X479Y1D01*
X480Y1D01*
X481Y1D01*
X482Y1D01*
X483Y1D01*
X484Y1D01*
X485Y1D01*
X486Y1D01*
X487Y1D01*
X488Y1D01*
X489Y1D01*
X490Y1D01*
X491Y1D01*
X492Y1D01*
X493Y1D01*
X494Y1D01*
X495Y1D01*
X496Y1D01*
X497Y1D01*
X498Y1D01*
X499Y1D01*
X500Y1D01*
X501Y1D01*
X502Y1D01*
X503Y1D01*
X504Y1D01*
X505Y1D01*
X506Y1D01*
X507Y1D01*
X508Y1D01*
X509Y1D01*
X510Y1D01*
X511Y1D01*
X512Y1D01*
X513Y1D01*
X514Y1D01*
X515Y1D01*
X516Y1D01*
X517Y1D01*
X518Y1D01*
X519Y1D01*
X520Y1D01*
X521Y1D01*
X522Y1D01*
X523Y1D01*
X524Y1D01*
X525Y1D01*
X526Y1D01*
X527Y1D01*
X528Y1D01*
X529Y1D01*
X530Y1D01*
X531Y1D01*
X532Y1D01*
X533Y1D01*
X534Y1D01*
X535Y1D01*
X536Y1D01*
X537Y1D01*
X538Y1D01*
X539Y1D01*
X540Y1D01*
X541Y1D01*
X542Y1D01*
X543Y1D01*
X544Y1D01*
X545Y1D01*
X546Y1D01*
X547Y1D01*
X548Y1D01*
X549Y1D01*
X550Y1D01*
X551Y1D01*
X552Y1D01*
X553Y1D01*
X554Y1D01*
X555Y1D01*
X556Y1D01*
X557Y1D01*
X558Y1D01*
X559Y1D01*
X560Y1D01*
X561Y1D01*
X562Y1D01*
X563Y1D01*
X564Y1D01*
X565Y1D01*
X566Y1D01*
X567Y1D01*
X568Y1D01*
X569Y1D01*
X570Y1D01*
X571Y1D01*
X572Y1D01*
X573Y1D01*
X574Y1D01*
X575Y1D01*
X576Y1D01*
X577Y1D01*
X578Y1D01*
X579Y1D01*
X580Y1D01*
X581Y1D01*
X582Y1D01*
X583Y1D01*
X584Y1D01*
X585Y1D01*
X586Y1D01*
X587Y1D01*
X588Y1D01*
X589Y1D01*
X590Y1D01*
X591Y1D01*
X592Y1D01*
X593Y1D01*
X594Y1D01*
X595Y1D01*
X596Y1D01*
X597Y1D01*
X598Y1D01*
X599Y1D01*
X600Y1D01*
X601Y1D01*
X602Y1D01*
X603Y1D01*
X604Y1D01*
X605Y1D01*
X606Y1D01*
X607Y1D01*
X608Y1D01*
X609Y1D01*
X610Y1D01*
X611Y1D01*
X612Y1D01*
X613Y1D01*
X614Y1D01*
X615Y1D01*
X616Y1D01*
X617Y1D01*
X618Y1D01*
X619Y1D01*
X620Y1D01*
X621Y1D01*
X622Y1D01*
X623Y1D01*
X624Y1D01*
X625Y1D01*
X626Y1D01*
X627Y1D01*
X628Y1D01*
X629Y1D01*
X630Y1D01*
X631Y1D01*
X632Y1D01*
X633Y1D01*
X634Y1D01*
X635Y1D01*
X636Y1D01*
X637Y1D01*
X638Y1D01*
X639Y1D01*
X640Y1D01*
X641Y1D01*
X642Y1D01*
X643Y1D01*
X644Y1D01*
X645Y1D01*
X646Y1D01*
X647Y1D01*
X648Y1D01*
X649Y1D01*
X650Y1D01*
X651Y1D01*
X652Y1D01*
X653Y1D01*
X654Y1D01*
X655Y1D01*
X656Y1D01*
X657Y1D01*
X658Y1D01*
X659Y1D01*
X660Y1D01*
X661Y1D01*
X662Y1D01*
X663Y1D01*
X664Y1D01*
X665Y1D01*
X666Y1D01*
X667Y1D01*
X668Y1D01*
X669Y1D01*
X670Y1D01*
X671Y1D01*
X672Y1D01*
X673Y1D01*
X674Y1D01*
X675Y1D01*
X676Y1D01*
X677Y1D01*
X678Y1D01*
X679Y1D01*
X680Y1D01*
X681Y1D01*
X682Y1D01*
X683Y1D01*
X684Y1D01*
X685Y1D01*
X686Y1D01*
X687Y1D01*
X688Y1D01*
X689Y1D01*
X690Y1D01*
X691Y1D01*
X692Y1D01*
X693Y1D01*
X694Y1D01*
X695Y1D01*
X696Y1D01*
X697Y1D01*
X698Y1D01*
X699Y1D01*
X700Y1D01*
X701Y1D01*
X702Y1D01*
X703Y1D01*
X704Y1D01*
X705Y1D01*
X706Y1D01*
X707Y1D01*
X708Y1D01*
X709Y1D01*
X710Y1D01*
X711Y1D01*
X712Y1D01*
X713Y1D01*
X714Y1D01*
X715Y1D01*
X716Y1D01*
X717Y1D01*
X718Y1D01*
X719Y1D01*
X720Y1D01*
X721Y1D01*
X722Y1D01*
X723Y1D01*
X724Y1D01*
X725Y1D01*
X726Y1D01*
X727Y1D01*
X728Y1D01*
X729Y1D01*
X730Y1D01*
X731Y1D01*
X732Y1D01*
X733Y1D01*
X734Y1D01*
X735Y1D01*
X736Y1D01*
X737Y1D01*
X738Y1D01*
X739Y1D01*
X740Y1D01*
X741Y1D01*
X742Y1D01*
X743Y1D01*
X744Y1D01*
X745Y1D01*
X746Y1D01*
X747Y1D01*
X748Y1D01*
X749Y1D01*
X750Y1D01*
X751Y1D01*
X752Y1D01*
X753Y1D01*
X754Y1D01*
X755Y1D01*
X756Y1D01*
X757Y1D01*
X758Y1D01*
X759Y1D01*
X760Y1D01*
X761Y1D01*
X762Y1D01*
X763Y1D01*
X764Y1D01*
X765Y1D01*
X766Y1D01*
X767Y1D01*
X768Y1D01*
X769Y1D01*
X770Y1D01*
X771Y1D01*
X772Y1D01*
X773Y1D01*
X774Y1D01*
X775Y1D01*
X776Y1D01*
X777Y1D01*
X778Y1D01*
X779Y1D01*
X780Y1D01*
X781Y1D01*
X782Y1D01*
X783Y1D01*
X784Y1D01*
X785Y1D01*
X786Y1D01*
X787Y1D01*
X788Y1D01*
X789Y1D01*
X790Y1D01*
X791Y1D01*
X792Y1D01*
X793Y1D01*
X794Y1D01*
X795Y1D01*
X796Y1D01*
X797Y1D01*
X798Y1D01*
X799Y1D01*
X800Y1D01*
X801Y1D01*
X802Y1D01*
X803Y1D01*
X804Y1D01*
X805Y1D01*
X806Y1D01*
X807Y1D01*
X808Y1D01*
X809Y1D01*
X810Y1D01*
X811Y1D01*
X812Y1D01*
X813Y1D01*
X814Y1D01*
X815Y1D01*
X816Y1D01*
X817Y1D01*
X818Y1D01*
X819Y1D01*
X820Y1D01*
X821Y1D01*
X822Y1D01*
X823Y1D01*
X824Y1D01*
X825Y1D01*
X826Y1D01*
X827Y1D01*
X828Y1D01*
X829Y1D01*
X830Y1D01*
X831Y1D01*
X832Y1D01*
X833Y1D01*
X834Y1D01*
X835Y1D01*
X836Y1D01*
X837Y1D01*
X838Y1D01*
X839Y1D01*
X840Y1D01*
X841Y1D01*
X842Y1D01*
X843Y1D01*
X844Y1D01*
X845Y1D01*
X846Y1D01*
X847Y1D01*
X848Y1D01*
X849Y1D01*
X850Y1D01*
X851Y1D01*
X852Y1D01*
X853Y1D01*
X854Y1D01*
X855Y1D01*
X856Y1D01*
X857Y1D01*
X858Y1D01*
X859Y1D01*
X860Y1D01*
X861Y1D01*
X862Y1D01*
X863Y1D01*
X864Y1D01*
X865Y1D01*
X866Y1D01*
X867Y1D01*
X868Y1D01*
X869Y1D01*
X870Y1D01*
X871Y1D01*
X872Y1D01*
X873Y1D01*
X874Y1D01*
X875Y1D01*
X876Y1D01*
X877Y1D01*
X878Y1D01*
X879Y1D01*
X880Y1D01*
X881Y1D01*
X882Y1D01*
X883Y1D01*
X884Y1D01*
X885Y1D01*
X886Y1D01*
X887Y1D01*
X888Y1D01*
X889Y1D01*
X890Y1D01*
X891Y1D01*
X892Y1D01*
X893Y1D01*
X894Y1D01*
X895Y1D01*
X896Y1D01*
X897Y1D01*
X898Y1D01*
X899Y1D01*
X900Y1D01*
X901Y1D01*
X902Y1D01*
X903Y1D01*
X904Y1D01*
X905Y1D01*
X906Y1D01*
X907Y1D01*
X908Y1D01*
X909Y1D01*
X910Y1D01*
X911Y1D01*
X912Y1D01*
X913Y1D01*
X914Y1D01*
X915Y1D01*
X916Y1D01*
X917Y1D01*
X918Y1D01*
X919Y1D01*
X920Y1D01*
X921Y1D01*
X922Y1D01*
X923Y1D01*
X924Y1D01*
X925Y1D01*
X926Y1D01*
X927Y1D01*
X928Y1D01*
X929Y1D01*
X930Y1D01*
X931Y1D01*
X932Y1D01*
X933Y1D01*
X934Y1D01*
X935Y1D01*
X936Y1D01*
X937Y1D01*
X938Y1D01*
X939Y1D01*
X940Y1D01*
X941Y1D01*
X942Y1D01*
X943Y1D01*
X944Y1D01*
X945Y1D01*
X946Y1D01*
X947Y1D01*
X948Y1D01*
X949Y1D01*
X950Y1D01*
X951Y1D01*
X952Y1D01*
X953Y1D01*
X954Y1D01*
X955Y1D01*
X956Y1D01*
X957Y1D01*
X958Y1D01*
X959Y1D01*
X960Y1D01*
X961Y1D01*
X962Y1D01*
X963Y1D01*
X964Y1D01*
X965Y1D01*
X966Y1D01*
X967Y1D01*
X968Y1D01*
X969Y1D01*
X970Y1D01*
X971Y1D01*
X972Y1D01*
X973Y1D01*
X974Y1D01*
X975Y1D01*
X976Y1D01*
X977Y1D01*
X978Y1D01*
X979Y1D01*
X980Y1D01*
X981Y1D01*
X982Y1D01*
X983Y1D01*
X984Y1D01*
X985Y1D01*
X986Y1D01*
X987Y1D01*
X988Y1D01*
X989Y1D01*
X990Y1D01*
X991Y1D01*
X992Y1D01*
X993Y1D01*
X994Y1D01*
X995Y1D01*
X996Y1D01*
X997Y1D01*
X998Y1D01*
X999Y1D01*
X1000Y1D01*
X1001Y1D01*
X1002Y1D01*
X1003Y1D01*
X1004Y1D01*
X1005Y1D01*
X1006Y1D01*
X1007Y1D01*
X1008Y1D01*
X1009Y1D01*
X1010Y1D01*
X1011Y1D01*
X1012Y1D01*
X1013Y1D01*
X1014Y1D01*
X1015Y1D01*
X1016Y1D01*
X1017Y1D01*
X1018Y1D01*
X1019Y1D01*
X1020Y1D01*
X1021Y1D01*
X1022Y1D01*
X1023Y1D01*
X1024Y1D01*
X1025Y1D01*
X1026Y1D01*
X1027Y1D01*
X1028Y1D01*
X1029Y1D01*
X1030Y1D01*
X1031Y1D01*
X1032Y1D01*
X1033Y1D01*
X1034Y1D01*
X1035Y1D01*
X1036Y1D01*
X1037Y1D01*
X1038Y1D01*
X1039Y1D01*
X1040Y1D01*
X1041Y1D01*
X1042Y1D01*
X1043Y1D01*
X1044Y1D01*
X1045Y1D01*
X1046Y1D01*
X1047Y1D01*
X1048Y1D01*
X1049Y1D01*
X1050Y1D01*
X1051Y1D01*
X1052Y1D01*
X1053Y1D01*
X1054Y1D01*
X1055Y1D01*
X1056Y1D01*
X1057Y1D01*
X1058Y1D01*
X1059Y1D01*
X1060Y1D01*
X1061Y1D01*
X1062Y1D01*
X1063Y1D01*
X1064Y1D01*
X1065Y1D01*
X1066Y1D01*
X1067Y1D01*
X1068Y1D01*
X1069Y1D01*
X1070Y1D01*
X1071Y1D01*
X1072Y1D01*
X1073Y1D01*
X1074Y1D01*
X1075Y1D01*
X1076Y1D01*
X1077Y1D01*
X1078Y1D01*
X1079Y1D01*
X1080Y1D01*
X1081Y1D01*
X1082Y1D01*
X1083Y1D01*
X1084Y1D01*
X1085Y1D01*
X1086Y1D01*
X1087Y1D01*
X1088Y1D01*
X1089Y1D01*
X1090Y1D01*
X1091Y1D01*
X1092Y1D01*
X1093Y1D01*
X1094Y1D01*
X1095Y1D01*
X1096Y1D01*
X1097Y1D01*
X1098Y1D01*
X1099Y1D01*
X1100Y1D01*
X1101Y1D01*
X1102Y1D01*
X1103Y1D01*
X1104Y1D01*
X1105Y1D01*
X1106Y1D01*
X1107Y1D01*
X1108Y1D01*
X1109Y1D01*
X1110Y1D01*
X1111Y1D01*
X1112Y1D01*
X1113Y1D01*
X1114Y1D01*
X1115Y1D01*
X1116Y1D01*
X1117Y1D01*
X1118Y1D01*
X1119Y1D01*
X1120Y1D01*
X1121Y1D01*
X1122Y1D01*
X1123Y1D01*
X1124Y1D01*
X1125Y1D01*
X1126Y1D01*
X1127Y1D01*
X1128Y1D01*
X1129Y1D01*
X1130Y1D01*
X1131Y1D01*
X1132Y1D01*
X1133Y1D01*
X1134Y1D01*
X1135Y1D01*
X1136Y1D01*
X1137Y1D01*
X1138Y1D01*
X1139Y1D01*
X1140Y1D01*
X1141Y1D01*
X1142Y1D01*
X1143Y1D01*
X1144Y1D01*
X1145Y1D01*
X1146Y1D01*
X1147Y1D01*
X1148Y1D01*
X1149Y1D01*
X1150Y1D01*
X1151Y1D01*
X1152Y1D01*
X1153Y1D01*
X1154Y1D01*
X1155Y1D01*
X1156Y1D01*
X1157Y1D01*
X1158Y1D01*
X1159Y1D01*
X1160Y1D01*
X1161Y1D01*
X1162Y1D01*
X1163Y1D01*
X1164Y1D01*
X1165Y1D01*
X1166Y1D01*
X1167Y1D01*
X1168Y1D01*
X1169Y1D01*
X1170Y1D01*
X1171Y1D01*
X1172Y1D01*
X1173Y1D01*
X1174Y1D01*
X1175Y1D01*
X1176Y1D01*
X1177Y1D01*
X1178Y1D01*
X1179Y1D01*
X1180Y1D01*
X1181Y1D01*
X1182Y1D01*
X1183Y1D01*
X1184Y1D01*
X1185Y1D01*
X1186Y1D01*
X1187Y1D01*
X1188Y1D01*
X1189Y1D01*
X1190Y1D01*
X1191Y1D01*
X1192Y1D01*
X1193Y1D01*
X1194Y1D01*
X1195Y1D01*
X1196Y1D01*
X1197Y1D01*
X1198Y1D01*
X1199Y1D01*
X1200Y1D01*
X1201Y1D01*
X1202Y1D01*
X1203Y1D01*
X1204Y1D01*
X1205Y1D01*
X1206Y1D01*
X1207Y1D01*
X1208Y1D01*
X1209Y1D01*
X1210Y1D01*
X1211Y1D01*
X1212Y1D01*
X1213Y1D01*
X1214Y1D01*
X1215Y1D01*
X1216Y1D01*
X1217Y1D01*
X1218Y1D01*
X1219Y1D01*
X1220Y1D01*
X1221Y1D01*
X1222Y1D01*
X1223Y1D01*
X1224Y1D01*
X1225Y1D01*
X1226Y1D01*
X1227Y1D01*
X1228Y1D01*
X1229Y1D01*
X1230Y1D01*
X1231Y1D01*
X1232Y1D01*
X1233Y1D01*
X1234Y1D01*
X1235Y1D01*
X1236Y1D01*
X1237Y1D01*
X1238Y1D01*
X1239Y1D01*
X1240Y1D01*
X1241Y1D01*
X1242Y1D01*
X1243Y1D01*
X1244Y1D01*
X1245Y1D01*
X1246Y1D01*
X1247Y1D01*
X1248Y1D01*
X1249Y1D01*
X1250Y1D01*
X1251Y1D01*
X1252Y1D01*
X1253Y1D01*
X1254Y1D01*
X1255Y1D01*
X1256Y1D01*
X1257Y1D01*
X1258Y1D01*
X1259Y1D01*
X1260Y1D01*
X1261Y1D01*
X1262Y1D01*
X1263Y1D01*
X1264Y1D01*
X1265Y1D01*
X1266Y1D01*
X1267Y1D01*
X1268Y1D01*
X1269Y1D01*
X1270Y1D01*
X1271Y1D01*
X1272Y1D01*
X1273Y1D01*
X1274Y1D01*
X1275Y1D01*
X1276Y1D01*
X1277Y1D01*
X1278Y1D01*
X1279Y1D01*
X1280Y1D01*
X1281Y1D01*
X1282Y1D01*
X1283Y1D01*
X1284Y1D01*
X1285Y1D01*
X1286Y1D01*
X1287Y1D01*
X1288Y1D01*
X1289Y1D01*
X1290Y1D01*
X1291Y1D01*
X1292Y1D01*
X1293Y1D01*
X1294Y1D01*
X1295Y1D01*
X1296Y1D01*
X1297Y1D01*
X1298Y1D01*
X1299Y1D01*
X1300Y1D01*
X1301Y1D01*
X1302Y1D01*
X1303Y1D01*
X1304Y1D01*
X1305Y1D01*
X1306Y1D01*
X1307Y1D01*
X1308Y1D01*
X1309Y1D01*
X1310Y1D01*
X1311Y1D01*
X1312Y1D01*
X1313Y1D01*
X1314Y1D01*
X1315Y1D01*
X1316Y1D01*
X1317Y1D01*
X1318Y1D01*
X1319Y1D01*
X1320Y1D01*
X1321Y1D01*
X1322Y1D01*
X1323Y1D01*
X1324Y1D01*
X1325Y1D01*
X1326Y1D01*
X1327Y1D01*
X1328Y1D01*
X1329Y1D01*
X1330Y1D01*
X1331Y1D01*
X1332Y1D01*
X1333Y1D01*
X1334Y1D01*
X1335Y1D01*
X1336Y1D01*
X1337Y1D01*
X1338Y1D01*
X1339Y1D01*
X1340Y1D01*
X1341Y1D01*
X1342Y1D01*
X1343Y1D01*
X1344Y1D01*
X1345Y1D01*
X1346Y1D01*
X1347Y1D01*
X1348Y1D01*
X1349Y1D01*
X1350Y1D01*
X1351Y1D01*
X1352Y1D01*
X1353Y1D01*
X1354Y1D01*
X1355Y1D01*
X1356Y1D01*
X1357Y1D01*
X1358Y1D01*
X1359Y1D01*
X1360Y1D01*
X1361Y1D01*
X1362Y1D01*
X1363Y1D01*
X1364Y1D01*
X1365Y1D01*
X1366Y1D01*
X1367Y1D01*
X1368Y1D01*
X1369Y1D01*
X1370Y1D01*
X1371Y1D01*
X1372Y1D01*
X1373Y1D01*
X1374Y1D01*
X1375Y1D01*
X1376Y1D01*
X1377Y1D01*
X1378Y1D01*
X1379Y1D01*
X1380Y1D01*
X1381Y1D01*
X1382Y1D01*
X1383Y1D01*
X1384Y1D01*
X1385Y1D01*
X1386Y1D01*
X1387Y1D01*
X1388Y1D01*
X1389Y1D01*
X1390Y1D01*
X1391Y1D01*
X1392Y1D01*
X1393Y1D01*
X1394Y1D01*
X1395Y1D01*
X1396Y1D01*
X1397Y1D01*
X1398Y1D01*
X1399Y1D01*
X1400Y1D01*
X1401Y1D01*
X1402Y1D01*
X1403Y1D01*
X1404Y1D01*
X1405Y1D01*
X1406Y1D01*
X1407Y1D01*
X1408Y1D01*
X1409Y1D01*
X1410Y1D01*
X1411Y1D01*
X1412Y1D01*
X1413Y1D01*
X1414Y1D01*
X1415Y1D01*
X1416Y1D01*
X1417Y1D01*
X1418Y1D01*
X1419Y1D01*
X1420Y1D01*
X1421Y1D01*
X1422Y1D01*
X1423Y1D01*
X1424Y1D01*
X1425Y1D01*
X1426Y1D01*
X1427Y1D01*
X1428Y1D01*
X1429Y1D01*
X1430Y1D01*
X1431Y1D01*
X1432Y1D01*
X1433Y1D01*
X1434Y1D01*
X1435Y1D01*
X1436Y1D01*
X1437Y1D01*
X1438Y1D01*
X1439Y1D01*
X1440Y1D01*
X1441Y1D01*
X1442Y1D01*
X1443Y1D01*
X1444Y1D01*
X1445Y1D01*
X1446Y1D01*
X1447Y1D01*
X1448Y1D01*
X1449Y1D01*
X1450Y1D01*
X1451Y1D01*
X1452Y1D01*
X1453Y1D01*
X1454Y1D01*
X1455Y1D01*
X1456Y1D01*
X1457Y1D01*
X1458Y1D01*
X1459Y1D01*
X1460Y1D01*
X1461Y1D01*
X1462Y1D01*
X1463Y1D01*
X1464Y1D01*
X1465Y1D01*
X1466Y1D01*
X1467Y1D01*
X1468Y1D01*
X1469Y1D01*
X1470Y1D01*
X1471Y1D01*
X1472Y1D01*
X1473Y1D01*
X1474Y1D01*
X1475Y1D01*
X1476Y1D01*
X1477Y1D01*
X1478Y1D01*
X1479Y1D01*
X1480Y1D01*
X1481Y1D01*
X1482Y1D01*
X1483Y1D01*
X1484Y1D01*
X1485Y1D01*
X1486Y1D01*
X1487Y1D01*
X1488Y1D01*
X1489Y1D01*
X1490Y1D01*
X1491Y1D01*
X1492Y1D01*
X1493Y1D01*
X1494Y1D01*
X1495Y1D01*
X1496Y1D01*
X1497Y1D01*
X1498Y1D01*
X1499Y1D01*
X1500Y1D01*
X1501Y1D01*
X1502Y1D01*
X1503Y1D01*
X1504Y1D01*
X1505Y1D01*
X1506Y1D01*
X1507Y1D01*
X1508Y1D01*
X1509Y1D01*
X1510Y1D01*
X1511Y1D01*
X1512Y1D01*
X1513Y1D01*
X1514Y1D01*
X1515Y1D01*
X1516Y1D01*
X1517Y1D01*
X1518Y1D01*
X1519Y1D01*
X1520Y1D01*
X1521Y1D01*
X1522Y1D01*
X1523Y1D01*
X1524Y1D01*
X1525Y1D01*
X1526Y1D01*
X1527Y1D01*
X1528Y1D01*
X1529Y1D01*
X1530Y1D01*
X1531Y1D01*
X1532Y1D01*
X1533Y1D01*
X1534Y1D01*
X1535Y1D01*
X1536Y1D01*
X1537Y1D01*
X1538Y1D01*
X1539Y1D01*
X1540Y1D01*
X1541Y1D01*
X1542Y1D01*
X1543Y1D01*
X1544Y1D01*
X1545Y1D01*
X1546Y1D01*
X1547Y1D01*
X1548Y1D01*
X1549Y1D01*
X1550Y1D01*
X1551Y1D01*
X1552Y1D01*
X1553Y1D01*
X1554Y1D01*
X1555Y1D01*
X1556Y1D01*
X1557Y1D01*
X1558Y1D01*
X1559Y1D01*
X1560Y1D01*
X1561Y1D01*
X1562Y1D01*
X1563Y1D01*
X1564Y1D01*
X1565Y1D01*
X1566Y1D01*
X1567Y1D01*
X1568Y1D01*
X1569Y1D01*
X1570Y1D01*
X1571Y1D01*
X1572Y1D01*
X1573Y1D01*
X1574Y1D01*
X1575Y1D01*
X1576Y1D01*
X1577Y1D01*
X1578Y1D01*
X1579Y1D01*
X1580Y1D01*
X1581Y1D01*
X1582Y1D01*
X1583Y1D01*
X1584Y1D01*
X1585Y1D01*
X1586Y1D01*
X1587Y1D01*
X1588Y1D01*
X1589Y1D01*
X1590Y1D01*
X1591Y1D01*
X1592Y1D01*
X1593Y1D01*
X1594Y1D01*
X1595Y1D01*
X1596Y1D01*
X1597Y1D01*
X1598Y1D01*
X1599Y1D01*
X1600Y1D01*
X1601Y1D01*
X1602Y1D01*
X1603Y1D01*
X1604Y1D01*
X1605Y1D01*
X1606Y1D01*
X1607Y1D01*
X1608Y1D01*
X1609Y1D01*
X1610Y1D01*
X1611Y1D01*
X1612Y1D01*
X1613Y1D01*
X1614Y1D01*
X1615Y1D01*
X1616Y1D01*
X1617Y1D01*
X1618Y1D01*
X1619Y1D01*
X1620Y1D01*
X1621Y1D01*
X1622Y1D01*
X1623Y1D01*
X1624Y1D01*
X1625Y1D01*
X1626Y1D01*
X1627Y1D01*
X1628Y1D01*
X1629Y1D01*
X1630Y1D01*
X1631Y1D01*
X1632Y1D01*
X1633Y1D01*
X1634Y1D01*
X1635Y1D01*
X1636Y1D01*
X1637Y1D01*
X1638Y1D01*
X1639Y1D01*
X1640Y1D01*
X1641Y1D01*
X1642Y1D01*
X1643Y1D01*
X1644Y1D01*
X1645Y1D01*
X1646Y1D01*
X1647Y1D01*
X1648Y1D01*
X1649Y1D01*
X1650Y1D01*
X1651Y1D01*
X1652Y1D01*
X1653Y1D01*
X1654Y1D01*
X1655Y1D01*
X1656Y1D01*
X1657Y1D01*
X1658Y1D01*
X1659Y1D01*
X1660Y1D01*
X1661Y1D01*
X1662Y1D01*
X1663Y1D01*
X1664Y1D01*
X1665Y1D01*
X1666Y1D01*
X1667Y1D01*
X1668Y1D01*
X1669Y1D01*
X1670Y1D01*
X1671Y1D01*
X1672Y1D01*
X1673Y1D01*
X1674Y1D01*
X1675Y1D01*
X1676Y1D01*
X1677Y1D01*
X1678Y1D01*
X1679Y1D01*
X1680Y1D01*
X1681Y1D01*
X1682Y1D01*
X1683Y1D01*
X1684Y1D01*
X1685Y1D01*
X1686Y1D01*
X1687Y1D01*
X1688Y1D01*
X1689Y1D01*
X1690Y1D01*
X1691Y1D01*
X1692Y1D01*
X1693Y1D01*
X1694Y1D01*
X1695Y1D01*
X1696Y1D01*
X1697Y1D01*
X1698Y1D01*
X1699Y1D01*
X1700Y1D01*
X1701Y1D01*
X1702Y1D01*
X1703Y1D01*
X1704Y1D01*
X1705Y1D01*
X1706Y1D01*
X1707Y1D01*
X1708Y1D01*
X1709Y1D01*
X1710Y1D01*
X1711Y1D01*
X1712Y1D01*
X1713Y1D01*
X1714Y1D01*
X1715Y1D01*
X1716Y1D01*
X1717Y1D01*
X1718Y1D01*
X1719Y1D01*
X1720Y1D01*
X1721Y1D01*
X1722Y1D01*
X1723Y1D01*
X1724Y1D01*
X1725Y1D01*
X1726Y1D01*
X1727Y1D01*
X1728Y1D01*
X1729Y1D01*
X1730Y1D01*
X1731Y1D01*
X1732Y1D01*
X1733Y1D01*
X1734Y1D01*
X1735Y1D01*
X1736Y1D01*
X1737Y1D01*
X1738Y1D01*
X1739Y1D01*
X1740Y1D01*
X1741Y1D01*
X1742Y1D01*
X1743Y1D01*
X1744Y1D01*
X1745Y1D01*
X1746Y1D01*
X1747Y1D01*
X1748Y1D01*
X1749Y1D01*
X1750Y1D01*
X1751Y1D01*
X1752Y1D01*
X1753Y1D01*
X1754Y1D01*
X1755Y1D01*
X1756Y1D01*
X1757Y1D01*
X1758Y1D01*
X1759Y1D01*
X1760Y1D01*
X1761Y1D01*
X1762Y1D01*
X1763Y1D01*
X1764Y1D01*
X1765Y1D01*
X1766Y1D01*
X1767Y1D01*
X1768Y1D01*
X1769Y1D01*
X1770Y1D01*
X1771Y1D01*
X1772Y1D01*
X1773Y1D01*
X1774Y1D01*
X1775Y1D01*
X1776Y1D01*
X1777Y1D01*
X1778Y1D01*
X1779Y1D01*
X1780Y1D01*
X1781Y1D01*
X1782Y1D01*
X1783Y1D01*
X1784Y1D01*
X1785Y1D01*
X1786Y1D01*
X1787Y1D01*
X1788Y1D01*
X1789Y1D01*
X1790Y1D01*
X1791Y1D01*
X1792Y1D01*
X1793Y1D01*
X1794Y1D01*
X1795Y1D01*
X1796Y1D01*
X1797Y1D01*
X1798Y1D01*
X1799Y1D01*
X1800Y1D01*
X1801Y1D01*
X1802Y1D01*
X1803Y1D01*
X1804Y1D01*
X1805Y1D01*
X1806Y1D01*
X1807Y1D01*
X1808Y1D01*
X1809Y1D01*
X1810Y1D01*
X1811Y1D01*
X1812Y1D01*
X1813Y1D01*
X1814Y1D01*
X1815Y1D01*
X1816Y1D01*
X1817Y1D01*
X1818Y1D01*
X1819Y1D01*
X1820Y1D01*
X1821Y1D01*
X1822Y1D01*
X1823Y1D01*
X1824Y1D01*
X1825Y1D01*
X1826Y1D01*
X1827Y1D01*
X1828Y1D01*
X1829Y1D01*
X1830Y1D01*
X1831Y1D01*
X1832Y1D01*
X1833Y1D01*
X1834Y1D01*
X1835Y1D01*
X1836Y1D01*
X1837Y1D01*
X1838Y1D01*
X1839Y1D01*
X1840Y1D01*
X1841Y1D01*
X1842Y1D01*
X1843Y1D01*
X1844Y1D01*
X1845Y1D01*
X1846Y1D01*
X1847Y1D01*
X1848Y1D01*
X1849Y1D01*
X1850Y1D01*
X1851Y1D01*
X1852Y1D01*
X1853Y1D01*
X1854Y1D01*
X1855Y1D01*
X1856Y1D01*
X1857Y1D01*
X1858Y1D01*
X1859Y1D01*
X1860Y1D01*
X1861Y1D01*
X1862Y1D01*
X1863Y1D01*
X1864Y1D01*
X1865Y1D01*
X1866Y1D01*
X1867Y1D01*
X1868Y1D01*
X1869Y1D01*
X1870Y1D01*
X1871Y1D01*
X1872Y1D01*
X1873Y1D01*
X1874Y1D01*
X1875Y1D01*
X1876Y1D01*
X1877Y1D01*
X1878Y1D01*
X1879Y1D01*
X1880Y1D01*
X1881Y1D01*
X1882Y1D01*
X1883Y1D01*
X1884Y1D01*
X1885Y1D01*
X1886Y1D01*
X1887Y1D01*
X1888Y1D01*
X1889Y1D01*
X1890Y1D01*
X1891Y1D01*
X1892Y1D01*
X1893Y1D01*
X1894Y1D01*
X1895Y1D01*
X1896Y1D01*
X1897Y1D01*
X1898Y1D01*
X1899Y1D01*
X1900Y1D01*
X1901Y1D01*
X1902Y1D01*
X1903Y1D01*
X1904Y1D01*
X1905Y1D01*
X1906Y1D01*
X1907Y1D01*
X1908Y1D01*
X1909Y1D01*
X1910Y1D01*
X1911Y1D01*
X1912Y1D01*
X1913Y1D01*
X1914Y1D01*
X1915Y1D01*
X1916Y1D01*
X1917Y1D01*
X1918Y1D01*
X1919Y1D01*
X1920Y1D01*
X1921Y1D01*
X1922Y1D01*
X1923Y1D01*
X1924Y1D01*
X1925Y1D01*
X1926Y1D01*
X1927Y1D01*
X1928Y1D01*
X1929Y1D01*
X1930Y1D01*
X1931Y1D01*
X1932Y1D01*
X1933Y1D01*
X1934Y1D01*
X1935Y1D01*
X1936Y1D01*
X1937Y1D01*
X1938Y1D01*
X1939Y1D01*
X1940Y1D01*
X1941Y1D01*
X1942Y1D01*
X1943Y1D01*
X1944Y1D01*
X1945Y1D01*
X1946Y1D01*
X1947Y1D01*
X1948Y1D01*
X1949Y1D01*
X1950Y1D01*
X1951Y1D01*
X1952Y1D01*
X1953Y1D01*
X1954Y1D01*
X1955Y1D01*
X1956Y1D01*
X1957Y1D01*
X1958Y1D01*
X1959Y1D01*
X1960Y1D01*
X1961Y1D01*
X1962Y1D01*
X1963Y1D01*
X1964Y1D01*
X1965Y1D01*
X1966Y1D01*
X1967Y1D01*
X1968Y1D01*
X1969Y1D01*
X1970Y1D01*
X1971Y1D01*
X1972Y1D01*
X1973Y1D01*
X1974Y1D01*
X1975Y1D01*
X1976Y1D01*
X1977Y1D01*
X1978Y1D01*
X1979Y1D01*
X1980Y1D01*
X1981Y1D01*
X1982Y1D01*
X1983Y1D01*
X1984Y1D01*
X1985Y1D01*
X1986Y1D01*
X1987Y1D01*
X1988Y1D01*
X1989Y1D01*
X1990Y1D01*
X1991Y1D01*
X1992Y1D01*
X1993Y1D01*
X1994Y1D01*
X1995Y1D01*
X1996Y1D01*
X1997Y1D01*
X1998Y1D01*
X1999Y1D01*
X2000Y1D01*
X2001Y1D01*
X2002Y1D01*
X2003Y1D01*
X2004Y1D01*
X2005Y1D01*
X2006Y1D01*
X2007Y1D01*
X2008Y1D01*
X2009Y1D01*
X2010Y1D01*
X2010Y1200D01*
X2009Y1200D01*
X2008Y1200D01*
X2007Y1200D01*
X2006Y1200D01*
X2005Y1200D01*
X2004Y1200D01*
X2003Y1200D01*
X2002Y1200D01*
X2001Y1200D01*
X2000Y1200D01*
X1999Y1200D01*
X1998Y1200D01*
X1997Y1200D01*
X1996Y1200D01*
X1995Y1200D01*
X1994Y1200D01*
X1993Y1200D01*
X1992Y1200D01*
X1991Y1200D01*
X1990Y1200D01*
X1989Y1200D01*
X1988Y1200D01*
X1987Y1200D01*
X1986Y1200D01*
X1985Y1200D01*
X1984Y1200D01*
X1983Y1200D01*
X1982Y1200D01*
X1981Y1200D01*
X1980Y1200D01*
X1979Y1200D01*
X1978Y1200D01*
X1977Y1200D01*
X1976Y1200D01*
X1975Y1200D01*
X1974Y1200D01*
X1973Y1200D01*
X1972Y1200D01*
X1971Y1200D01*
X1970Y1200D01*
X1969Y1200D01*
X1968Y1200D01*
X1967Y1200D01*
X1966Y1200D01*
X1965Y1200D01*
X1964Y1200D01*
X1963Y1200D01*
X1962Y1200D01*
X1961Y1200D01*
X1960Y1200D01*
X1959Y1200D01*
X1958Y1200D01*
X1957Y1200D01*
X1956Y1200D01*
X1955Y1200D01*
X1954Y1200D01*
X1953Y1200D01*
X1952Y1200D01*
X1951Y1200D01*
X1950Y1200D01*
X1949Y1200D01*
X1948Y1200D01*
X1947Y1200D01*
X1946Y1200D01*
X1945Y1200D01*
X1944Y1200D01*
X1943Y1200D01*
X1942Y1200D01*
X1941Y1200D01*
X1940Y1200D01*
X1939Y1200D01*
X1938Y1200D01*
X1937Y1200D01*
X1936Y1200D01*
X1935Y1200D01*
X1934Y1200D01*
X1933Y1200D01*
X1932Y1200D01*
X1931Y1200D01*
X1930Y1200D01*
X1929Y1200D01*
X1928Y1200D01*
X1927Y1200D01*
X1926Y1200D01*
X1925Y1200D01*
X1924Y1200D01*
X1923Y1200D01*
X1922Y1200D01*
X1921Y1200D01*
X1920Y1200D01*
X1919Y1200D01*
X1918Y1200D01*
X1917Y1200D01*
X1916Y1200D01*
X1915Y1200D01*
X1914Y1200D01*
X1913Y1200D01*
X1912Y1200D01*
X1911Y1200D01*
X1910Y1200D01*
X1909Y1200D01*
X1908Y1200D01*
X1907Y1200D01*
X1906Y1200D01*
X1905Y1200D01*
X1904Y1200D01*
X1903Y1200D01*
X1902Y1200D01*
X1901Y1200D01*
X1900Y1200D01*
X1899Y1200D01*
X1898Y1200D01*
X1897Y1200D01*
X1896Y1200D01*
X1895Y1200D01*
X1894Y1200D01*
X1893Y1200D01*
X1892Y1200D01*
X1891Y1200D01*
X1890Y1200D01*
X1889Y1200D01*
X1888Y1200D01*
X1887Y1200D01*
X1886Y1200D01*
X1885Y1200D01*
X1884Y1200D01*
X1883Y1200D01*
X1882Y1200D01*
X1881Y1200D01*
X1880Y1200D01*
X1879Y1200D01*
X1878Y1200D01*
X1877Y1200D01*
X1876Y1200D01*
X1875Y1200D01*
X1874Y1200D01*
X1873Y1200D01*
X1872Y1200D01*
X1871Y1200D01*
X1870Y1200D01*
X1869Y1200D01*
X1868Y1200D01*
X1867Y1200D01*
X1866Y1200D01*
X1865Y1200D01*
X1864Y1200D01*
X1863Y1200D01*
X1862Y1200D01*
X1861Y1200D01*
X1860Y1200D01*
X1859Y1200D01*
X1858Y1200D01*
X1857Y1200D01*
X1856Y1200D01*
X1855Y1200D01*
X1854Y1200D01*
X1853Y1200D01*
X1852Y1200D01*
X1851Y1200D01*
X1850Y1200D01*
X1849Y1200D01*
X1848Y1200D01*
X1847Y1200D01*
X1846Y1200D01*
X1845Y1200D01*
X1844Y1200D01*
X1843Y1200D01*
X1842Y1200D01*
X1841Y1200D01*
X1840Y1200D01*
X1839Y1200D01*
X1838Y1200D01*
X1837Y1200D01*
X1836Y1200D01*
X1835Y1200D01*
X1834Y1200D01*
X1833Y1200D01*
X1832Y1200D01*
X1831Y1200D01*
X1830Y1200D01*
X1829Y1200D01*
X1828Y1200D01*
X1827Y1200D01*
X1826Y1200D01*
X1825Y1200D01*
X1824Y1200D01*
X1823Y1200D01*
X1822Y1200D01*
X1821Y1200D01*
X1820Y1200D01*
X1819Y1200D01*
X1818Y1200D01*
X1817Y1200D01*
X1816Y1200D01*
X1815Y1200D01*
X1814Y1200D01*
X1813Y1200D01*
X1812Y1200D01*
X1811Y1200D01*
X1810Y1200D01*
X1809Y1200D01*
X1808Y1200D01*
X1807Y1200D01*
X1806Y1200D01*
X1805Y1200D01*
X1804Y1200D01*
X1803Y1200D01*
X1802Y1200D01*
X1801Y1200D01*
X1800Y1200D01*
X1799Y1200D01*
X1798Y1200D01*
X1797Y1200D01*
X1796Y1200D01*
X1795Y1200D01*
X1794Y1200D01*
X1793Y1200D01*
X1792Y1200D01*
X1791Y1200D01*
X1790Y1200D01*
X1789Y1200D01*
X1788Y1200D01*
X1787Y1200D01*
X1786Y1200D01*
X1785Y1200D01*
X1784Y1200D01*
X1783Y1200D01*
X1782Y1200D01*
X1781Y1200D01*
X1780Y1200D01*
X1779Y1200D01*
X1778Y1200D01*
X1777Y1200D01*
X1776Y1200D01*
X1775Y1200D01*
X1774Y1200D01*
X1773Y1200D01*
X1772Y1200D01*
X1771Y1200D01*
X1770Y1200D01*
X1769Y1200D01*
X1768Y1200D01*
X1767Y1200D01*
X1766Y1200D01*
X1765Y1200D01*
X1764Y1200D01*
X1763Y1200D01*
X1762Y1200D01*
X1761Y1200D01*
X1760Y1200D01*
X1759Y1200D01*
X1758Y1200D01*
X1757Y1200D01*
X1756Y1200D01*
X1755Y1200D01*
X1754Y1200D01*
X1753Y1200D01*
X1752Y1200D01*
X1751Y1200D01*
X1750Y1200D01*
X1749Y1200D01*
X1748Y1200D01*
X1747Y1200D01*
X1746Y1200D01*
X1745Y1200D01*
X1744Y1200D01*
X1743Y1200D01*
X1742Y1200D01*
X1741Y1200D01*
X1740Y1200D01*
X1739Y1200D01*
X1738Y1200D01*
X1737Y1200D01*
X1736Y1200D01*
X1735Y1200D01*
X1734Y1200D01*
X1733Y1200D01*
X1732Y1200D01*
X1731Y1200D01*
X1730Y1200D01*
X1729Y1200D01*
X1728Y1200D01*
X1727Y1200D01*
X1726Y1200D01*
X1725Y1200D01*
X1724Y1200D01*
X1723Y1200D01*
X1722Y1200D01*
X1721Y1200D01*
X1720Y1200D01*
X1719Y1200D01*
X1718Y1200D01*
X1717Y1200D01*
X1716Y1200D01*
X1715Y1200D01*
X1714Y1200D01*
X1713Y1200D01*
X1712Y1200D01*
X1711Y1200D01*
X1710Y1200D01*
X1709Y1200D01*
X1708Y1200D01*
X1707Y1200D01*
X1706Y1200D01*
X1705Y1200D01*
X1704Y1200D01*
X1703Y1200D01*
X1702Y1200D01*
X1701Y1200D01*
X1700Y1200D01*
X1699Y1200D01*
X1698Y1200D01*
X1697Y1200D01*
X1696Y1200D01*
X1695Y1200D01*
X1694Y1200D01*
X1693Y1200D01*
X1692Y1200D01*
X1691Y1200D01*
X1690Y1200D01*
X1689Y1200D01*
X1688Y1200D01*
X1687Y1200D01*
X1686Y1200D01*
X1685Y1200D01*
X1684Y1200D01*
X1683Y1200D01*
X1682Y1200D01*
X1681Y1200D01*
X1680Y1200D01*
X1679Y1200D01*
X1678Y1200D01*
X1677Y1200D01*
X1676Y1200D01*
X1675Y1200D01*
X1674Y1200D01*
X1673Y1200D01*
X1672Y1200D01*
X1671Y1200D01*
X1670Y1200D01*
X1669Y1200D01*
X1668Y1200D01*
X1667Y1200D01*
X1666Y1200D01*
X1665Y1200D01*
X1664Y1200D01*
X1663Y1200D01*
X1662Y1200D01*
X1661Y1200D01*
X1660Y1200D01*
X1659Y1200D01*
X1658Y1200D01*
X1657Y1200D01*
X1656Y1200D01*
X1655Y1200D01*
X1654Y1200D01*
X1653Y1200D01*
X1652Y1200D01*
X1651Y1200D01*
X1650Y1200D01*
X1649Y1200D01*
X1648Y1200D01*
X1647Y1200D01*
X1646Y1200D01*
X1645Y1200D01*
X1644Y1200D01*
X1643Y1200D01*
X1642Y1200D01*
X1641Y1200D01*
X1640Y1200D01*
X1639Y1200D01*
X1638Y1200D01*
X1637Y1200D01*
X1636Y1200D01*
X1635Y1200D01*
X1634Y1200D01*
X1633Y1200D01*
X1632Y1200D01*
X1631Y1200D01*
X1630Y1200D01*
X1629Y1200D01*
X1628Y1200D01*
X1627Y1200D01*
X1626Y1200D01*
X1625Y1200D01*
X1624Y1200D01*
X1623Y1200D01*
X1622Y1200D01*
X1621Y1200D01*
X1620Y1200D01*
X1619Y1200D01*
X1618Y1200D01*
X1617Y1200D01*
X1616Y1200D01*
X1615Y1200D01*
X1614Y1200D01*
X1613Y1200D01*
X1612Y1200D01*
X1611Y1200D01*
X1610Y1200D01*
X1609Y1200D01*
X1608Y1200D01*
X1607Y1200D01*
X1606Y1200D01*
X1605Y1200D01*
X1604Y1200D01*
X1603Y1200D01*
X1602Y1200D01*
X1601Y1200D01*
X1600Y1200D01*
X1599Y1200D01*
X1598Y1200D01*
X1597Y1200D01*
X1596Y1200D01*
X1595Y1200D01*
X1594Y1200D01*
X1593Y1200D01*
X1592Y1200D01*
X1591Y1200D01*
X1590Y1200D01*
X1589Y1200D01*
X1588Y1200D01*
X1587Y1200D01*
X1586Y1200D01*
X1585Y1200D01*
X1584Y1200D01*
X1583Y1200D01*
X1582Y1200D01*
X1581Y1200D01*
X1580Y1200D01*
X1579Y1200D01*
X1578Y1200D01*
X1577Y1200D01*
X1576Y1200D01*
X1575Y1200D01*
X1574Y1200D01*
X1573Y1200D01*
X1572Y1200D01*
X1571Y1200D01*
X1570Y1200D01*
X1569Y1200D01*
X1568Y1200D01*
X1567Y1200D01*
X1566Y1200D01*
X1565Y1200D01*
X1564Y1200D01*
X1563Y1200D01*
X1562Y1200D01*
X1561Y1200D01*
X1560Y1200D01*
X1559Y1200D01*
X1558Y1200D01*
X1557Y1200D01*
X1556Y1200D01*
X1555Y1200D01*
X1554Y1200D01*
X1553Y1200D01*
X1552Y1200D01*
X1551Y1200D01*
X1550Y1200D01*
X1549Y1200D01*
X1548Y1200D01*
X1547Y1200D01*
X1546Y1200D01*
X1545Y1200D01*
X1544Y1200D01*
X1543Y1200D01*
X1542Y1200D01*
X1541Y1200D01*
X1540Y1200D01*
X1539Y1200D01*
X1538Y1200D01*
X1537Y1200D01*
X1536Y1200D01*
X1535Y1200D01*
X1534Y1200D01*
X1533Y1200D01*
X1532Y1200D01*
X1531Y1200D01*
X1530Y1200D01*
X1529Y1200D01*
X1528Y1200D01*
X1527Y1200D01*
X1526Y1200D01*
X1525Y1200D01*
X1524Y1200D01*
X1523Y1200D01*
X1522Y1200D01*
X1521Y1200D01*
X1520Y1200D01*
X1519Y1200D01*
X1518Y1200D01*
X1517Y1200D01*
X1516Y1200D01*
X1515Y1200D01*
X1514Y1200D01*
X1513Y1200D01*
X1512Y1200D01*
X1511Y1200D01*
X1510Y1200D01*
X1509Y1200D01*
X1508Y1200D01*
X1507Y1200D01*
X1506Y1200D01*
X1505Y1200D01*
X1504Y1200D01*
X1503Y1200D01*
X1502Y1200D01*
X1501Y1200D01*
X1500Y1200D01*
X1499Y1200D01*
X1498Y1200D01*
X1497Y1200D01*
X1496Y1200D01*
X1495Y1200D01*
X1494Y1200D01*
X1493Y1200D01*
X1492Y1200D01*
X1491Y1200D01*
X1490Y1200D01*
X1489Y1200D01*
X1488Y1200D01*
X1487Y1200D01*
X1486Y1200D01*
X1485Y1200D01*
X1484Y1200D01*
X1483Y1200D01*
X1482Y1200D01*
X1481Y1200D01*
X1480Y1200D01*
X1479Y1200D01*
X1478Y1200D01*
X1477Y1200D01*
X1476Y1200D01*
X1475Y1200D01*
X1474Y1200D01*
X1473Y1200D01*
X1472Y1200D01*
X1471Y1200D01*
X1470Y1200D01*
X1469Y1200D01*
X1468Y1200D01*
X1467Y1200D01*
X1466Y1200D01*
X1465Y1200D01*
X1464Y1200D01*
X1463Y1200D01*
X1462Y1200D01*
X1461Y1200D01*
X1460Y1200D01*
X1459Y1200D01*
X1458Y1200D01*
X1457Y1200D01*
X1456Y1200D01*
X1455Y1200D01*
X1454Y1200D01*
X1453Y1200D01*
X1452Y1200D01*
X1451Y1200D01*
X1450Y1200D01*
X1449Y1200D01*
X1448Y1200D01*
X1447Y1200D01*
X1446Y1200D01*
X1445Y1200D01*
X1444Y1200D01*
X1443Y1200D01*
X1442Y1200D01*
X1441Y1200D01*
X1440Y1200D01*
X1439Y1200D01*
X1438Y1200D01*
X1437Y1200D01*
X1436Y1200D01*
X1435Y1200D01*
X1434Y1200D01*
X1433Y1200D01*
X1432Y1200D01*
X1431Y1200D01*
X1430Y1200D01*
X1429Y1200D01*
X1428Y1200D01*
X1427Y1200D01*
X1426Y1200D01*
X1425Y1200D01*
X1424Y1200D01*
X1423Y1200D01*
X1422Y1200D01*
X1421Y1200D01*
X1420Y1200D01*
X1419Y1200D01*
X1418Y1200D01*
X1417Y1200D01*
X1416Y1200D01*
X1415Y1200D01*
X1414Y1200D01*
X1413Y1200D01*
X1412Y1200D01*
X1411Y1200D01*
X1410Y1200D01*
X1409Y1200D01*
X1408Y1200D01*
X1407Y1200D01*
X1406Y1200D01*
X1405Y1200D01*
X1404Y1200D01*
X1403Y1200D01*
X1402Y1200D01*
X1401Y1200D01*
X1400Y1200D01*
X1399Y1200D01*
X1398Y1200D01*
X1397Y1200D01*
X1396Y1200D01*
X1395Y1200D01*
X1394Y1200D01*
X1393Y1200D01*
X1392Y1200D01*
X1391Y1200D01*
X1390Y1200D01*
X1389Y1200D01*
X1388Y1200D01*
X1387Y1200D01*
X1386Y1200D01*
X1385Y1200D01*
X1384Y1200D01*
X1383Y1200D01*
X1382Y1200D01*
X1381Y1200D01*
X1380Y1200D01*
X1379Y1200D01*
X1378Y1200D01*
X1377Y1200D01*
X1376Y1200D01*
X1375Y1200D01*
X1374Y1200D01*
X1373Y1200D01*
X1372Y1200D01*
X1371Y1200D01*
X1370Y1200D01*
X1369Y1200D01*
X1368Y1200D01*
X1367Y1200D01*
X1366Y1200D01*
X1365Y1200D01*
X1364Y1200D01*
X1363Y1200D01*
X1362Y1200D01*
X1361Y1200D01*
X1360Y1200D01*
X1359Y1200D01*
X1358Y1200D01*
X1357Y1200D01*
X1356Y1200D01*
X1355Y1200D01*
X1354Y1200D01*
X1353Y1200D01*
X1352Y1200D01*
X1351Y1200D01*
X1350Y1200D01*
X1349Y1200D01*
X1348Y1200D01*
X1347Y1200D01*
X1346Y1200D01*
X1345Y1200D01*
X1344Y1200D01*
X1343Y1200D01*
X1342Y1200D01*
X1341Y1200D01*
X1340Y1200D01*
X1339Y1200D01*
X1338Y1200D01*
X1337Y1200D01*
X1336Y1200D01*
X1335Y1200D01*
X1334Y1200D01*
X1333Y1200D01*
X1332Y1200D01*
X1331Y1200D01*
X1330Y1200D01*
X1329Y1200D01*
X1328Y1200D01*
X1327Y1200D01*
X1326Y1200D01*
X1325Y1200D01*
X1324Y1200D01*
X1323Y1200D01*
X1322Y1200D01*
X1321Y1200D01*
X1320Y1200D01*
X1319Y1200D01*
X1318Y1200D01*
X1317Y1200D01*
X1316Y1200D01*
X1315Y1200D01*
X1314Y1200D01*
X1313Y1200D01*
X1312Y1200D01*
X1311Y1200D01*
X1310Y1200D01*
X1309Y1200D01*
X1308Y1200D01*
X1307Y1200D01*
X1306Y1200D01*
X1305Y1200D01*
X1304Y1200D01*
X1303Y1200D01*
X1302Y1200D01*
X1301Y1200D01*
X1300Y1200D01*
X1299Y1200D01*
X1298Y1200D01*
X1297Y1200D01*
X1296Y1200D01*
X1295Y1200D01*
X1294Y1200D01*
X1293Y1200D01*
X1292Y1200D01*
X1291Y1200D01*
X1290Y1200D01*
X1289Y1200D01*
X1288Y1200D01*
X1287Y1200D01*
X1286Y1200D01*
X1285Y1200D01*
X1284Y1200D01*
X1283Y1200D01*
X1282Y1200D01*
X1281Y1200D01*
X1280Y1200D01*
X1279Y1200D01*
X1278Y1200D01*
X1277Y1200D01*
X1276Y1200D01*
X1275Y1200D01*
X1274Y1200D01*
X1273Y1200D01*
X1272Y1200D01*
X1271Y1200D01*
X1270Y1200D01*
X1269Y1200D01*
X1268Y1200D01*
X1267Y1200D01*
X1266Y1200D01*
X1265Y1200D01*
X1264Y1200D01*
X1263Y1200D01*
X1262Y1200D01*
X1261Y1200D01*
X1260Y1200D01*
X1259Y1200D01*
X1258Y1200D01*
X1257Y1200D01*
X1256Y1200D01*
X1255Y1200D01*
X1254Y1200D01*
X1253Y1200D01*
X1252Y1200D01*
X1251Y1200D01*
X1250Y1200D01*
X1249Y1200D01*
X1248Y1200D01*
X1247Y1200D01*
X1246Y1200D01*
X1245Y1200D01*
X1244Y1200D01*
X1243Y1200D01*
X1242Y1200D01*
X1241Y1200D01*
X1240Y1200D01*
X1239Y1200D01*
X1238Y1200D01*
X1237Y1200D01*
X1236Y1200D01*
X1235Y1200D01*
X1234Y1200D01*
X1233Y1200D01*
X1232Y1200D01*
X1231Y1200D01*
X1230Y1200D01*
X1229Y1200D01*
X1228Y1200D01*
X1227Y1200D01*
X1226Y1200D01*
X1225Y1200D01*
X1224Y1200D01*
X1223Y1200D01*
X1222Y1200D01*
X1221Y1200D01*
X1220Y1200D01*
X1219Y1200D01*
X1218Y1200D01*
X1217Y1200D01*
X1216Y1200D01*
X1215Y1200D01*
X1214Y1200D01*
X1213Y1200D01*
X1212Y1200D01*
X1211Y1200D01*
X1210Y1200D01*
X1209Y1200D01*
X1208Y1200D01*
X1207Y1200D01*
X1206Y1200D01*
X1205Y1200D01*
X1204Y1200D01*
X1203Y1200D01*
X1202Y1200D01*
X1201Y1200D01*
X1200Y1200D01*
X1199Y1200D01*
X1198Y1200D01*
X1197Y1200D01*
X1196Y1200D01*
X1195Y1200D01*
X1194Y1200D01*
X1193Y1200D01*
X1192Y1200D01*
X1191Y1200D01*
X1190Y1200D01*
X1189Y1200D01*
X1188Y1200D01*
X1187Y1200D01*
X1186Y1200D01*
X1185Y1200D01*
X1184Y1200D01*
X1183Y1200D01*
X1182Y1200D01*
X1181Y1200D01*
X1180Y1200D01*
X1179Y1200D01*
X1178Y1200D01*
X1177Y1200D01*
X1176Y1200D01*
X1175Y1200D01*
X1174Y1200D01*
X1173Y1200D01*
X1172Y1200D01*
X1171Y1200D01*
X1170Y1200D01*
X1169Y1200D01*
X1168Y1200D01*
X1167Y1200D01*
X1166Y1200D01*
X1165Y1200D01*
X1164Y1200D01*
X1163Y1200D01*
X1162Y1200D01*
X1161Y1200D01*
X1160Y1200D01*
X1159Y1200D01*
X1158Y1200D01*
X1157Y1200D01*
X1156Y1200D01*
X1155Y1200D01*
X1154Y1200D01*
X1153Y1200D01*
X1152Y1200D01*
X1151Y1200D01*
X1150Y1200D01*
X1149Y1200D01*
X1148Y1200D01*
X1147Y1200D01*
X1146Y1200D01*
X1145Y1200D01*
X1144Y1200D01*
X1143Y1200D01*
X1142Y1200D01*
X1141Y1200D01*
X1140Y1200D01*
X1139Y1200D01*
X1138Y1200D01*
X1137Y1200D01*
X1136Y1200D01*
X1135Y1200D01*
X1134Y1200D01*
X1133Y1200D01*
X1132Y1200D01*
X1131Y1200D01*
X1130Y1200D01*
X1129Y1200D01*
X1128Y1200D01*
X1127Y1200D01*
X1126Y1200D01*
X1125Y1200D01*
X1124Y1200D01*
X1123Y1200D01*
X1122Y1200D01*
X1121Y1200D01*
X1120Y1200D01*
X1119Y1200D01*
X1118Y1200D01*
X1117Y1200D01*
X1116Y1200D01*
X1115Y1200D01*
X1114Y1200D01*
X1113Y1200D01*
X1112Y1200D01*
X1111Y1200D01*
X1110Y1200D01*
X1109Y1200D01*
X1108Y1200D01*
X1107Y1200D01*
X1106Y1200D01*
X1105Y1200D01*
X1104Y1200D01*
X1103Y1200D01*
X1102Y1200D01*
X1101Y1200D01*
X1100Y1200D01*
X1099Y1200D01*
X1098Y1200D01*
X1097Y1200D01*
X1096Y1200D01*
X1095Y1200D01*
X1094Y1200D01*
X1093Y1200D01*
X1092Y1200D01*
X1091Y1200D01*
X1090Y1200D01*
X1089Y1200D01*
X1088Y1200D01*
X1087Y1200D01*
X1086Y1200D01*
X1085Y1200D01*
X1084Y1200D01*
X1083Y1200D01*
X1082Y1200D01*
X1081Y1200D01*
X1080Y1200D01*
X1079Y1200D01*
X1078Y1200D01*
X1077Y1200D01*
X1076Y1200D01*
X1075Y1200D01*
X1074Y1200D01*
X1073Y1200D01*
X1072Y1200D01*
X1071Y1200D01*
X1070Y1200D01*
X1069Y1200D01*
X1068Y1200D01*
X1067Y1200D01*
X1066Y1200D01*
X1065Y1200D01*
X1064Y1200D01*
X1063Y1200D01*
X1062Y1200D01*
X1061Y1200D01*
X1060Y1200D01*
X1059Y1200D01*
X1058Y1200D01*
X1057Y1200D01*
X1056Y1200D01*
X1055Y1200D01*
X1054Y1200D01*
X1053Y1200D01*
X1052Y1200D01*
X1051Y1200D01*
X1050Y1200D01*
X1049Y1200D01*
X1048Y1200D01*
X1047Y1200D01*
X1046Y1200D01*
X1045Y1200D01*
X1044Y1200D01*
X1043Y1200D01*
X1042Y1200D01*
X1041Y1200D01*
X1040Y1200D01*
X1039Y1200D01*
X1038Y1200D01*
X1037Y1200D01*
X1036Y1200D01*
X1035Y1200D01*
X1034Y1200D01*
X1033Y1200D01*
X1032Y1200D01*
X1031Y1200D01*
X1030Y1200D01*
X1029Y1200D01*
X1028Y1200D01*
X1027Y1200D01*
X1026Y1200D01*
X1025Y1200D01*
X1024Y1200D01*
X1023Y1200D01*
X1022Y1200D01*
X1021Y1200D01*
X1020Y1200D01*
X1019Y1200D01*
X1018Y1200D01*
X1017Y1200D01*
X1016Y1200D01*
X1015Y1200D01*
X1014Y1200D01*
X1013Y1200D01*
X1012Y1200D01*
X1011Y1200D01*
X1010Y1200D01*
X1009Y1200D01*
X1008Y1200D01*
X1007Y1200D01*
X1006Y1200D01*
X1005Y1200D01*
X1004Y1200D01*
X1003Y1200D01*
X1002Y1200D01*
X1001Y1200D01*
X1000Y1200D01*
X999Y1200D01*
X998Y1200D01*
X997Y1200D01*
X996Y1200D01*
X995Y1200D01*
X994Y1200D01*
X993Y1200D01*
X992Y1200D01*
X991Y1200D01*
X990Y1200D01*
X989Y1200D01*
X988Y1200D01*
X987Y1200D01*
X986Y1200D01*
X985Y1200D01*
X984Y1200D01*
X983Y1200D01*
X982Y1200D01*
X981Y1200D01*
X980Y1200D01*
X979Y1200D01*
X978Y1200D01*
X977Y1200D01*
X976Y1200D01*
X975Y1200D01*
X974Y1200D01*
X973Y1200D01*
X972Y1200D01*
X971Y1200D01*
X970Y1200D01*
X969Y1200D01*
X968Y1200D01*
X967Y1200D01*
X966Y1200D01*
X965Y1200D01*
X964Y1200D01*
X963Y1200D01*
X962Y1200D01*
X961Y1200D01*
X960Y1200D01*
X959Y1200D01*
X958Y1200D01*
X957Y1200D01*
X956Y1200D01*
X955Y1200D01*
X954Y1200D01*
X953Y1200D01*
X952Y1200D01*
X951Y1200D01*
X950Y1200D01*
X949Y1200D01*
X948Y1200D01*
X947Y1200D01*
X946Y1200D01*
X945Y1200D01*
X944Y1200D01*
X943Y1200D01*
X942Y1200D01*
X941Y1200D01*
X940Y1200D01*
X939Y1200D01*
X938Y1200D01*
X937Y1200D01*
X936Y1200D01*
X935Y1200D01*
X934Y1200D01*
X933Y1200D01*
X932Y1200D01*
X931Y1200D01*
X930Y1200D01*
X929Y1200D01*
X928Y1200D01*
X927Y1200D01*
X926Y1200D01*
X925Y1200D01*
X924Y1200D01*
X923Y1200D01*
X922Y1200D01*
X921Y1200D01*
X920Y1200D01*
X919Y1200D01*
X918Y1200D01*
X917Y1200D01*
X916Y1200D01*
X915Y1200D01*
X914Y1200D01*
X913Y1200D01*
X912Y1200D01*
X911Y1200D01*
X910Y1200D01*
X909Y1200D01*
X908Y1200D01*
X907Y1200D01*
X906Y1200D01*
X905Y1200D01*
X904Y1200D01*
X903Y1200D01*
X902Y1200D01*
X901Y1200D01*
X900Y1200D01*
X899Y1200D01*
X898Y1200D01*
X897Y1200D01*
X896Y1200D01*
X895Y1200D01*
X894Y1200D01*
X893Y1200D01*
X892Y1200D01*
X891Y1200D01*
X890Y1200D01*
X889Y1200D01*
X888Y1200D01*
X887Y1200D01*
X886Y1200D01*
X885Y1200D01*
X884Y1200D01*
X883Y1200D01*
X882Y1200D01*
X881Y1200D01*
X880Y1200D01*
X879Y1200D01*
X878Y1200D01*
X877Y1200D01*
X876Y1200D01*
X875Y1200D01*
X874Y1200D01*
X873Y1200D01*
X872Y1200D01*
X871Y1200D01*
X870Y1200D01*
X869Y1200D01*
X868Y1200D01*
X867Y1200D01*
X866Y1200D01*
X865Y1200D01*
X864Y1200D01*
X863Y1200D01*
X862Y1200D01*
X861Y1200D01*
X860Y1200D01*
X859Y1200D01*
X858Y1200D01*
X857Y1200D01*
X856Y1200D01*
X855Y1200D01*
X854Y1200D01*
X853Y1200D01*
X852Y1200D01*
X851Y1200D01*
X850Y1200D01*
X849Y1200D01*
X848Y1200D01*
X847Y1200D01*
X846Y1200D01*
X845Y1200D01*
X844Y1200D01*
X843Y1200D01*
X842Y1200D01*
X841Y1200D01*
X840Y1200D01*
X839Y1200D01*
X838Y1200D01*
X837Y1200D01*
X836Y1200D01*
X835Y1200D01*
X834Y1200D01*
X833Y1200D01*
X832Y1200D01*
X831Y1200D01*
X830Y1200D01*
X829Y1200D01*
X828Y1200D01*
X827Y1200D01*
X826Y1200D01*
X825Y1200D01*
X824Y1200D01*
X823Y1200D01*
X822Y1200D01*
X821Y1200D01*
X820Y1200D01*
X819Y1200D01*
X818Y1200D01*
X817Y1200D01*
X816Y1200D01*
X815Y1200D01*
X814Y1200D01*
X813Y1200D01*
X812Y1200D01*
X811Y1200D01*
X810Y1200D01*
X809Y1200D01*
X808Y1200D01*
X807Y1200D01*
X806Y1200D01*
X805Y1200D01*
X804Y1200D01*
X803Y1200D01*
X802Y1200D01*
X801Y1200D01*
X800Y1200D01*
X799Y1200D01*
X798Y1200D01*
X797Y1200D01*
X796Y1200D01*
X795Y1200D01*
X794Y1200D01*
X793Y1200D01*
X792Y1200D01*
X791Y1200D01*
X790Y1200D01*
X789Y1200D01*
X788Y1200D01*
X787Y1200D01*
X786Y1200D01*
X785Y1200D01*
X784Y1200D01*
X783Y1200D01*
X782Y1200D01*
X781Y1200D01*
X780Y1200D01*
X779Y1200D01*
X778Y1200D01*
X777Y1200D01*
X776Y1200D01*
X775Y1200D01*
X774Y1200D01*
X773Y1200D01*
X772Y1200D01*
X771Y1200D01*
X770Y1200D01*
X769Y1200D01*
X768Y1200D01*
X767Y1200D01*
X766Y1200D01*
X765Y1200D01*
X764Y1200D01*
X763Y1200D01*
X762Y1200D01*
X761Y1200D01*
X760Y1200D01*
X759Y1200D01*
X758Y1200D01*
X757Y1200D01*
X756Y1200D01*
X755Y1200D01*
X754Y1200D01*
X753Y1200D01*
X752Y1200D01*
X751Y1200D01*
X750Y1200D01*
X749Y1200D01*
X748Y1200D01*
X747Y1200D01*
X746Y1200D01*
X745Y1200D01*
X744Y1200D01*
X743Y1200D01*
X742Y1200D01*
X741Y1200D01*
X740Y1200D01*
X739Y1200D01*
X738Y1200D01*
X737Y1200D01*
X736Y1200D01*
X735Y1200D01*
X734Y1200D01*
X733Y1200D01*
X732Y1200D01*
X731Y1200D01*
X730Y1200D01*
X729Y1200D01*
X728Y1200D01*
X727Y1200D01*
X726Y1200D01*
X725Y1200D01*
X724Y1200D01*
X723Y1200D01*
X722Y1200D01*
X721Y1200D01*
X720Y1200D01*
X719Y1200D01*
X718Y1200D01*
X717Y1200D01*
X716Y1200D01*
X715Y1200D01*
X714Y1200D01*
X713Y1200D01*
X712Y1200D01*
X711Y1200D01*
X710Y1200D01*
X709Y1200D01*
X708Y1200D01*
X707Y1200D01*
X706Y1200D01*
X705Y1200D01*
X704Y1200D01*
X703Y1200D01*
X702Y1200D01*
X701Y1200D01*
X700Y1200D01*
X699Y1200D01*
X698Y1200D01*
X697Y1200D01*
X696Y1200D01*
X695Y1200D01*
X694Y1200D01*
X693Y1200D01*
X692Y1200D01*
X691Y1200D01*
X690Y1200D01*
X689Y1200D01*
X688Y1200D01*
X687Y1200D01*
X686Y1200D01*
X685Y1200D01*
X684Y1200D01*
X683Y1200D01*
X682Y1200D01*
X681Y1200D01*
X680Y1200D01*
X679Y1200D01*
X678Y1200D01*
X677Y1200D01*
X676Y1200D01*
X675Y1200D01*
X674Y1200D01*
X673Y1200D01*
X672Y1200D01*
X671Y1200D01*
X670Y1200D01*
X669Y1200D01*
X668Y1200D01*
X667Y1200D01*
X666Y1200D01*
X665Y1200D01*
X664Y1200D01*
X663Y1200D01*
X662Y1200D01*
X661Y1200D01*
X660Y1200D01*
X659Y1200D01*
X658Y1200D01*
X657Y1200D01*
X656Y1200D01*
X655Y1200D01*
X654Y1200D01*
X653Y1200D01*
X652Y1200D01*
X651Y1200D01*
X650Y1200D01*
X649Y1200D01*
X648Y1200D01*
X647Y1200D01*
X646Y1200D01*
X645Y1200D01*
X644Y1200D01*
X643Y1200D01*
X642Y1200D01*
X641Y1200D01*
X640Y1200D01*
X639Y1200D01*
X638Y1200D01*
X637Y1200D01*
X636Y1200D01*
X635Y1200D01*
X634Y1200D01*
X633Y1200D01*
X632Y1200D01*
X631Y1200D01*
X630Y1200D01*
X629Y1200D01*
X628Y1200D01*
X627Y1200D01*
X626Y1200D01*
X625Y1200D01*
X624Y1200D01*
X623Y1200D01*
X622Y1200D01*
X621Y1200D01*
X620Y1200D01*
X619Y1200D01*
X618Y1200D01*
X617Y1200D01*
X616Y1200D01*
X615Y1200D01*
X614Y1200D01*
X613Y1200D01*
X612Y1200D01*
X611Y1200D01*
X610Y1200D01*
X609Y1200D01*
X608Y1200D01*
X607Y1200D01*
X606Y1200D01*
X605Y1200D01*
X604Y1200D01*
X603Y1200D01*
X602Y1200D01*
X601Y1200D01*
X600Y1200D01*
X599Y1200D01*
X598Y1200D01*
X597Y1200D01*
X596Y1200D01*
X595Y1200D01*
X594Y1200D01*
X593Y1200D01*
X592Y1200D01*
X591Y1200D01*
X590Y1200D01*
X589Y1200D01*
X588Y1200D01*
X587Y1200D01*
X586Y1200D01*
X585Y1200D01*
X584Y1200D01*
X583Y1200D01*
X582Y1200D01*
X581Y1200D01*
X580Y1200D01*
X579Y1200D01*
X578Y1200D01*
X577Y1200D01*
X576Y1200D01*
X575Y1200D01*
X574Y1200D01*
X573Y1200D01*
X572Y1200D01*
X571Y1200D01*
X570Y1200D01*
X569Y1200D01*
X568Y1200D01*
X567Y1200D01*
X566Y1200D01*
X565Y1200D01*
X564Y1200D01*
X563Y1200D01*
X562Y1200D01*
X561Y1200D01*
X560Y1200D01*
X559Y1200D01*
X558Y1200D01*
X557Y1200D01*
X556Y1200D01*
X555Y1200D01*
X554Y1200D01*
X553Y1200D01*
X552Y1200D01*
X551Y1200D01*
X550Y1200D01*
X549Y1200D01*
X548Y1200D01*
X547Y1200D01*
X546Y1200D01*
X545Y1200D01*
X544Y1200D01*
X543Y1200D01*
X542Y1200D01*
X541Y1200D01*
X540Y1200D01*
X539Y1200D01*
X538Y1200D01*
X537Y1200D01*
X536Y1200D01*
X535Y1200D01*
X534Y1200D01*
X533Y1200D01*
X532Y1200D01*
X531Y1200D01*
X530Y1200D01*
X529Y1200D01*
X528Y1200D01*
X527Y1200D01*
X526Y1200D01*
X525Y1200D01*
X524Y1200D01*
X523Y1200D01*
X522Y1200D01*
X521Y1200D01*
X520Y1200D01*
X519Y1200D01*
X518Y1200D01*
X517Y1200D01*
X516Y1200D01*
X515Y1200D01*
X514Y1200D01*
X513Y1200D01*
X512Y1200D01*
X511Y1200D01*
X510Y1200D01*
X509Y1200D01*
X508Y1200D01*
X507Y1200D01*
X506Y1200D01*
X505Y1200D01*
X504Y1200D01*
X503Y1200D01*
X502Y1200D01*
X501Y1200D01*
X500Y1200D01*
X499Y1200D01*
X498Y1200D01*
X497Y1200D01*
X496Y1200D01*
X495Y1200D01*
X494Y1200D01*
X493Y1200D01*
X492Y1200D01*
X491Y1200D01*
X490Y1200D01*
X489Y1200D01*
X488Y1200D01*
X487Y1200D01*
X486Y1200D01*
X485Y1200D01*
X484Y1200D01*
X483Y1200D01*
X482Y1200D01*
X481Y1200D01*
X480Y1200D01*
X479Y1200D01*
X478Y1200D01*
X477Y1200D01*
X476Y1200D01*
X475Y1200D01*
X474Y1200D01*
X473Y1200D01*
X472Y1200D01*
X471Y1200D01*
X470Y1200D01*
X469Y1200D01*
X468Y1200D01*
X467Y1200D01*
X466Y1200D01*
X465Y1200D01*
X464Y1200D01*
X463Y1200D01*
X462Y1200D01*
X461Y1200D01*
X460Y1200D01*
X459Y1200D01*
X458Y1200D01*
X457Y1200D01*
X456Y1200D01*
X455Y1200D01*
X454Y1200D01*
X453Y1200D01*
X452Y1200D01*
X451Y1200D01*
X450Y1200D01*
X449Y1200D01*
X448Y1200D01*
X447Y1200D01*
X446Y1200D01*
X445Y1200D01*
X444Y1200D01*
X443Y1200D01*
X442Y1200D01*
X441Y1200D01*
X440Y1200D01*
X439Y1200D01*
X438Y1200D01*
X437Y1200D01*
X436Y1200D01*
X435Y1200D01*
X434Y1200D01*
X433Y1200D01*
X432Y1200D01*
X431Y1200D01*
X430Y1200D01*
X429Y1200D01*
X428Y1200D01*
X427Y1200D01*
X426Y1200D01*
X425Y1200D01*
X424Y1200D01*
X423Y1200D01*
X422Y1200D01*
X421Y1200D01*
X420Y1200D01*
X419Y1200D01*
X418Y1200D01*
X417Y1200D01*
X416Y1200D01*
X415Y1200D01*
X414Y1200D01*
X413Y1200D01*
X412Y1200D01*
X411Y1200D01*
X410Y1200D01*
X409Y1200D01*
X408Y1200D01*
X407Y1200D01*
X406Y1200D01*
X405Y1200D01*
X404Y1200D01*
X403Y1200D01*
X402Y1200D01*
X401Y1200D01*
X400Y1200D01*
X399Y1200D01*
X398Y1200D01*
X397Y1200D01*
X396Y1200D01*
X395Y1200D01*
X394Y1200D01*
X393Y1200D01*
X392Y1200D01*
X391Y1200D01*
X390Y1200D01*
X389Y1200D01*
X388Y1200D01*
X387Y1200D01*
X386Y1200D01*
X385Y1200D01*
X384Y1200D01*
X383Y1200D01*
X382Y1200D01*
X381Y1200D01*
X380Y1200D01*
X379Y1200D01*
X378Y1200D01*
X377Y1200D01*
X376Y1200D01*
X375Y1200D01*
X374Y1200D01*
X373Y1200D01*
X372Y1200D01*
X371Y1200D01*
X370Y1200D01*
X369Y1200D01*
X368Y1200D01*
X367Y1200D01*
X366Y1200D01*
X365Y1200D01*
X364Y1200D01*
X363Y1200D01*
X362Y1200D01*
X361Y1200D01*
X360Y1200D01*
X359Y1200D01*
X358Y1200D01*
X357Y1200D01*
X356Y1200D01*
X355Y1200D01*
X354Y1200D01*
X353Y1200D01*
X352Y1200D01*
X351Y1200D01*
X350Y1200D01*
X349Y1200D01*
X348Y1200D01*
X347Y1200D01*
X346Y1200D01*
X345Y1200D01*
X344Y1200D01*
X343Y1200D01*
X342Y1200D01*
X341Y1200D01*
X340Y1200D01*
X339Y1200D01*
X338Y1200D01*
X337Y1200D01*
X336Y1200D01*
X335Y1200D01*
X334Y1200D01*
X333Y1200D01*
X332Y1200D01*
X331Y1200D01*
X330Y1200D01*
X329Y1200D01*
X328Y1200D01*
X327Y1200D01*
X326Y1200D01*
X325Y1200D01*
X324Y1200D01*
X323Y1200D01*
X322Y1200D01*
X321Y1200D01*
X320Y1200D01*
X319Y1200D01*
X318Y1200D01*
X317Y1200D01*
X316Y1200D01*
X315Y1200D01*
X314Y1200D01*
X313Y1200D01*
X312Y1200D01*
X311Y1200D01*
X310Y1200D01*
X309Y1200D01*
X308Y1200D01*
X307Y1200D01*
X306Y1200D01*
X305Y1200D01*
X304Y1200D01*
X303Y1200D01*
X302Y1200D01*
X301Y1200D01*
X300Y1200D01*
X299Y1200D01*
X298Y1200D01*
X297Y1200D01*
X296Y1200D01*
X295Y1200D01*
X294Y1200D01*
X293Y1200D01*
X292Y1200D01*
X291Y1200D01*
X290Y1200D01*
X289Y1200D01*
X288Y1200D01*
X287Y1200D01*
X286Y1200D01*
X285Y1200D01*
X284Y1200D01*
X283Y1200D01*
X282Y1200D01*
X281Y1200D01*
X280Y1200D01*
X279Y1200D01*
X278Y1200D01*
X277Y1200D01*
X276Y1200D01*
X275Y1200D01*
X274Y1200D01*
X273Y1200D01*
X272Y1200D01*
X271Y1200D01*
X270Y1200D01*
X269Y1200D01*
X268Y1200D01*
X267Y1200D01*
X266Y1200D01*
X265Y1200D01*
X264Y1200D01*
X263Y1200D01*
X262Y1200D01*
X261Y1200D01*
X260Y1200D01*
X259Y1200D01*
X258Y1200D01*
X257Y1200D01*
X256Y1200D01*
X255Y1200D01*
X254Y1200D01*
X253Y1200D01*
X252Y1200D01*
X251Y1200D01*
X250Y1200D01*
X249Y1200D01*
X248Y1200D01*
X247Y1200D01*
X246Y1200D01*
X245Y1200D01*
X244Y1200D01*
X243Y1200D01*
X242Y1200D01*
X241Y1200D01*
X240Y1200D01*
X239Y1200D01*
X238Y1200D01*
X237Y1200D01*
X236Y1200D01*
X235Y1200D01*
X234Y1200D01*
X233Y1200D01*
X232Y1200D01*
X231Y1200D01*
X230Y1200D01*
X229Y1200D01*
X228Y1200D01*
X227Y1200D01*
X226Y1200D01*
X225Y1200D01*
X224Y1200D01*
X223Y1200D01*
X222Y1200D01*
X221Y1200D01*
X220Y1200D01*
X219Y1200D01*
X218Y1200D01*
X217Y1200D01*
X216Y1200D01*
X215Y1200D01*
X214Y1200D01*
X213Y1200D01*
X212Y1200D01*
X211Y1200D01*
X210Y1200D01*
X209Y1200D01*
X208Y1200D01*
X207Y1200D01*
X206Y1200D01*
X205Y1200D01*
X204Y1200D01*
X203Y1200D01*
X202Y1200D01*
X201Y1200D01*
X200Y1200D01*
X199Y1200D01*
X198Y1200D01*
X197Y1200D01*
X196Y1200D01*
X195Y1200D01*
X194Y1200D01*
X193Y1200D01*
X192Y1200D01*
X191Y1200D01*
X190Y1200D01*
X189Y1200D01*
X188Y1200D01*
X187Y1200D01*
X186Y1200D01*
X185Y1200D01*
X184Y1200D01*
X183Y1200D01*
X182Y1200D01*
X181Y1200D01*
X180Y1200D01*
X179Y1200D01*
X178Y1200D01*
X177Y1200D01*
X176Y1200D01*
X175Y1200D01*
X174Y1200D01*
X173Y1200D01*
X172Y1200D01*
X171Y1200D01*
X170Y1200D01*
X169Y1200D01*
X168Y1200D01*
X167Y1200D01*
X166Y1200D01*
X165Y1200D01*
X164Y1200D01*
X163Y1200D01*
X162Y1200D01*
X161Y1200D01*
X160Y1200D01*
X159Y1200D01*
X158Y1200D01*
X157Y1200D01*
X156Y1200D01*
X155Y1200D01*
X154Y1200D01*
X153Y1200D01*
X152Y1200D01*
X151Y1200D01*
X150Y1200D01*
X149Y1200D01*
X148Y1200D01*
X147Y1200D01*
X146Y1200D01*
X145Y1200D01*
X144Y1200D01*
X143Y1200D01*
X142Y1200D01*
X141Y1200D01*
X140Y1200D01*
X139Y1200D01*
X138Y1200D01*
X137Y1200D01*
X136Y1200D01*
X135Y1200D01*
X134Y1200D01*
X133Y1200D01*
X132Y1200D01*
X131Y1200D01*
X130Y1200D01*
X129Y1200D01*
X128Y1200D01*
X127Y1200D01*
X126Y1200D01*
X125Y1200D01*
X124Y1200D01*
X123Y1200D01*
X122Y1200D01*
X121Y1200D01*
X120Y1200D01*
X119Y1200D01*
X118Y1200D01*
X117Y1200D01*
X116Y1200D01*
X115Y1200D01*
X114Y1200D01*
X113Y1200D01*
X112Y1200D01*
X111Y1200D01*
X110Y1200D01*
X109Y1200D01*
X108Y1200D01*
X107Y1200D01*
X106Y1200D01*
X105Y1200D01*
X104Y1200D01*
X103Y1200D01*
X102Y1200D01*
X101Y1200D01*
X100Y1200D01*
X99Y1200D01*
X98Y1200D01*
X97Y1200D01*
X96Y1200D01*
X95Y1200D01*
X94Y1200D01*
X93Y1200D01*
X92Y1200D01*
X91Y1200D01*
X90Y1200D01*
X89Y1200D01*
X88Y1200D01*
X87Y1200D01*
X86Y1200D01*
X85Y1200D01*
X84Y1200D01*
X83Y1200D01*
X82Y1200D01*
X81Y1200D01*
X80Y1200D01*
X79Y1200D01*
X78Y1200D01*
X77Y1200D01*
X76Y1200D01*
X75Y1200D01*
X74Y1200D01*
X73Y1200D01*
X72Y1200D01*
X71Y1200D01*
X70Y1200D01*
X69Y1200D01*
X68Y1200D01*
X67Y1200D01*
X66Y1200D01*
X65Y1200D01*
X64Y1200D01*
X63Y1200D01*
X62Y1200D01*
X61Y1200D01*
X60Y1200D01*
X59Y1200D01*
X58Y1200D01*
X57Y1200D01*
X56Y1200D01*
X55Y1200D01*
X54Y1200D01*
X53Y1200D01*
X52Y1200D01*
X51Y1200D01*
X50Y1200D01*
X49Y1200D01*
X48Y1200D01*
X47Y1200D01*
X46Y1200D01*
X45Y1200D01*
X44Y1200D01*
X43Y1200D01*
X42Y1200D01*
X41Y1200D01*
X40Y1200D01*
X39Y1200D01*
X38Y1200D01*
X37Y1200D01*
X36Y1200D01*
X35Y1200D01*
X34Y1200D01*
X33Y1200D01*
X32Y1200D01*
X31Y1200D01*
X30Y1200D01*
X29Y1200D01*
X28Y1200D01*
X27Y1200D01*
X26Y1200D01*
X25Y1200D01*
X24Y1200D01*
X23Y1200D01*
X22Y1200D01*
X21Y1200D01*
X20Y1200D01*
X19Y1200D01*
X18Y1200D01*
X17Y1200D01*
X16Y1200D01*
X15Y1200D01*
X14Y1200D01*
X13Y1200D01*
X12Y1200D01*
X11Y1200D01*
X10Y1200D01*
X9Y1200D01*
X8Y1200D01*
X7Y1200D01*
X6Y1200D01*
X5Y1200D01*
X4Y1200D01*
X3Y1200D01*
X2Y1200D01*
X1Y1200D01*
X0Y1200D01*
D02*
G04 End of contour*
M02*