G04 MADE WITH FRITZING*
G04 WWW.FRITZING.ORG*
G04 DOUBLE SIDED*
G04 HOLES PLATED*
G04 CONTOUR ON CENTER OF CONTOUR VECTOR*
%ASAXBY*%
%FSLAX23Y23*%
%MOIN*%
%OFA0B0*%
%SFA1.0B1.0*%
%ADD10C,0.075000*%
%ADD11C,0.090000*%
%ADD12C,0.082000*%
%ADD13C,0.070000*%
%ADD14C,0.205354*%
%ADD15C,0.047244*%
%ADD16R,0.075000X0.075000*%
%ADD17R,0.082000X0.082000*%
%ADD18R,0.080000X0.026000*%
%ADD19C,0.024000*%
%ADD20C,0.016000*%
%LNCOPPER1*%
G90*
G70*
G54D10*
X66Y970D03*
X1487Y1000D03*
G54D11*
X798Y936D03*
X998Y886D03*
X798Y836D03*
X998Y786D03*
X798Y736D03*
X998Y686D03*
X798Y636D03*
X998Y586D03*
X798Y536D03*
X998Y486D03*
X798Y436D03*
X998Y386D03*
X798Y336D03*
X998Y286D03*
X798Y236D03*
G54D10*
X1852Y814D03*
X1852Y676D03*
X1852Y539D03*
X1852Y401D03*
G54D12*
X1697Y378D03*
X1697Y80D03*
X1589Y378D03*
X1589Y80D03*
X1482Y377D03*
X1482Y79D03*
X1373Y378D03*
X1373Y80D03*
X1686Y1132D03*
X1686Y834D03*
X1579Y1132D03*
X1579Y834D03*
X1473Y1131D03*
X1473Y833D03*
X1367Y1129D03*
X1367Y831D03*
G54D10*
X841Y83D03*
X741Y83D03*
X641Y83D03*
X541Y83D03*
X122Y1112D03*
X222Y1112D03*
X322Y1112D03*
X422Y1112D03*
X112Y175D03*
X112Y275D03*
X112Y375D03*
X112Y475D03*
X112Y575D03*
X112Y675D03*
G54D13*
X641Y202D03*
X541Y202D03*
G54D14*
X1889Y1071D03*
X1886Y119D03*
X360Y121D03*
G54D10*
X1375Y719D03*
X1478Y634D03*
X1591Y547D03*
X1699Y475D03*
X1236Y476D03*
X1291Y593D03*
X1196Y156D03*
X1111Y894D03*
X1209Y836D03*
X579Y828D03*
X547Y993D03*
G54D15*
X667Y591D03*
X209Y657D03*
G54D16*
X1852Y814D03*
G54D17*
X1697Y379D03*
X1589Y379D03*
X1482Y378D03*
X1373Y379D03*
X1686Y1133D03*
X1579Y1133D03*
X1473Y1132D03*
X1367Y1130D03*
G54D16*
X841Y83D03*
X122Y1112D03*
X112Y175D03*
G54D18*
X557Y508D03*
X557Y558D03*
X557Y608D03*
X557Y658D03*
X557Y708D03*
X557Y758D03*
G54D19*
X1368Y994D02*
X1367Y1097D01*
D02*
X1282Y737D02*
X1286Y908D01*
D02*
X1241Y732D02*
X1282Y737D01*
D02*
X1286Y908D02*
X1368Y994D01*
D02*
X1154Y737D02*
X1241Y732D01*
D02*
X1077Y773D02*
X1154Y737D01*
D02*
X1038Y779D02*
X1077Y773D01*
D02*
X1399Y1130D02*
X1441Y1131D01*
D02*
X1505Y1131D02*
X1547Y1132D01*
D02*
X1611Y1132D02*
X1654Y1132D01*
D02*
X1621Y80D02*
X1665Y80D01*
D02*
X1514Y79D02*
X1557Y80D01*
D02*
X1405Y80D02*
X1450Y79D01*
D02*
X973Y80D02*
X1341Y80D01*
D02*
X877Y233D02*
X973Y80D01*
D02*
X839Y235D02*
X877Y233D01*
D02*
X976Y78D02*
X1100Y81D01*
D02*
X882Y236D02*
X976Y78D01*
D02*
X1100Y81D02*
X1094Y585D01*
D02*
X1094Y585D02*
X1039Y586D01*
D02*
X839Y236D02*
X882Y236D01*
D02*
X1748Y721D02*
X1399Y723D01*
D02*
X1788Y808D02*
X1748Y721D01*
D02*
X1824Y811D02*
X1788Y808D01*
D02*
X1748Y639D02*
X1502Y638D01*
D02*
X1825Y667D02*
X1748Y639D01*
D02*
X1774Y554D02*
X1615Y552D01*
D02*
X1824Y544D02*
X1774Y554D01*
D02*
X1774Y481D02*
X1723Y480D01*
D02*
X1794Y403D02*
X1774Y481D01*
D02*
X1824Y402D02*
X1794Y403D01*
D02*
X1260Y480D02*
X1666Y479D01*
D02*
X1339Y554D02*
X1309Y579D01*
D02*
X1558Y552D02*
X1339Y554D01*
D02*
X1151Y279D02*
X1156Y734D01*
D02*
X1079Y773D02*
X1038Y780D01*
D02*
X1156Y734D02*
X1079Y773D01*
D02*
X1183Y187D02*
X1151Y279D01*
D02*
X684Y833D02*
X604Y832D01*
D02*
X685Y979D02*
X684Y833D01*
D02*
X720Y1034D02*
X685Y979D01*
D02*
X905Y1034D02*
X720Y1034D01*
D02*
X902Y707D02*
X905Y1034D01*
D02*
X957Y695D02*
X902Y707D01*
D02*
X542Y1063D02*
X542Y1025D01*
D02*
X611Y1163D02*
X542Y1063D01*
D02*
X1076Y1159D02*
X611Y1163D01*
D02*
X1198Y1036D02*
X1076Y1159D01*
D02*
X1204Y869D02*
X1198Y1036D01*
D02*
X744Y734D02*
X756Y735D01*
D02*
X707Y759D02*
X744Y734D01*
D02*
X591Y758D02*
X707Y759D01*
D02*
X732Y636D02*
X756Y636D01*
D02*
X650Y707D02*
X732Y636D01*
D02*
X591Y708D02*
X650Y707D01*
D02*
X465Y831D02*
X546Y832D01*
D02*
X465Y658D02*
X465Y831D01*
D02*
X522Y658D02*
X465Y658D01*
D02*
X717Y533D02*
X756Y535D01*
D02*
X645Y456D02*
X717Y533D01*
D02*
X591Y457D02*
X645Y456D01*
D02*
X465Y507D02*
X522Y508D01*
D02*
X662Y385D02*
X470Y386D01*
D02*
X717Y435D02*
X662Y385D01*
D02*
X470Y386D02*
X465Y507D01*
D02*
X756Y435D02*
X717Y435D01*
D02*
X640Y608D02*
X642Y607D01*
D02*
X591Y608D02*
X640Y608D01*
D02*
X393Y608D02*
X330Y608D01*
D02*
X396Y907D02*
X393Y608D01*
D02*
X623Y910D02*
X396Y907D01*
D02*
X628Y1023D02*
X623Y910D01*
D02*
X667Y1097D02*
X628Y1023D01*
D02*
X1025Y1092D02*
X667Y1097D01*
D02*
X1104Y1013D02*
X1025Y1092D01*
D02*
X1106Y927D02*
X1104Y1013D01*
D02*
X639Y327D02*
X640Y228D01*
D02*
X394Y331D02*
X639Y327D01*
D02*
X391Y455D02*
X394Y331D01*
D02*
X330Y457D02*
X391Y455D01*
D02*
X274Y270D02*
X220Y275D01*
D02*
X220Y275D02*
X141Y275D01*
D02*
X534Y268D02*
X274Y270D01*
D02*
X538Y228D02*
X534Y268D01*
D02*
X396Y379D02*
X393Y453D01*
D02*
X393Y453D02*
X330Y456D01*
D02*
X141Y375D02*
X396Y379D01*
D02*
X186Y478D02*
X215Y507D01*
D02*
X215Y507D02*
X261Y508D01*
D02*
X141Y476D02*
X186Y478D01*
D02*
X173Y576D02*
X230Y558D01*
D02*
X230Y558D02*
X261Y558D01*
D02*
X141Y575D02*
X173Y576D01*
D02*
X131Y821D02*
X133Y771D01*
D02*
X220Y1024D02*
X217Y878D01*
D02*
X144Y1042D02*
X220Y1024D01*
D02*
X217Y878D02*
X174Y853D01*
D02*
X174Y853D02*
X131Y821D01*
D02*
X133Y771D02*
X37Y771D01*
D02*
X38Y270D02*
X84Y273D01*
D02*
X37Y771D02*
X38Y270D01*
D02*
X131Y1085D02*
X144Y1042D01*
D02*
X261Y658D02*
X236Y658D01*
G54D20*
D02*
X190Y778D02*
X224Y816D01*
D02*
X277Y816D02*
X279Y1024D01*
D02*
X224Y816D02*
X277Y816D01*
D02*
X424Y1021D02*
X422Y1089D01*
D02*
X279Y1024D02*
X424Y1021D01*
D02*
X190Y732D02*
X190Y778D01*
D02*
X232Y714D02*
X190Y732D01*
D02*
X261Y711D02*
X232Y714D01*
G54D19*
D02*
X334Y759D02*
X338Y964D01*
D02*
X338Y964D02*
X507Y967D01*
D02*
X507Y967D02*
X521Y978D01*
D02*
X330Y759D02*
X334Y759D01*
G36*
X4Y1196D02*
X4Y1182D01*
X438Y1182D01*
X438Y1180D01*
X444Y1180D01*
X444Y1178D01*
X450Y1178D01*
X450Y1176D01*
X454Y1176D01*
X454Y1174D01*
X458Y1174D01*
X458Y1172D01*
X460Y1172D01*
X460Y1170D01*
X462Y1170D01*
X462Y1168D01*
X466Y1168D01*
X466Y1166D01*
X468Y1166D01*
X468Y1164D01*
X470Y1164D01*
X470Y1162D01*
X472Y1162D01*
X472Y1160D01*
X474Y1160D01*
X474Y1158D01*
X476Y1158D01*
X476Y1156D01*
X478Y1156D01*
X478Y1152D01*
X480Y1152D01*
X480Y1150D01*
X482Y1150D01*
X482Y1146D01*
X484Y1146D01*
X484Y1142D01*
X486Y1142D01*
X486Y1138D01*
X488Y1138D01*
X488Y1134D01*
X490Y1134D01*
X490Y1126D01*
X530Y1126D01*
X530Y1128D01*
X532Y1128D01*
X532Y1132D01*
X534Y1132D01*
X534Y1134D01*
X536Y1134D01*
X536Y1138D01*
X538Y1138D01*
X538Y1140D01*
X540Y1140D01*
X540Y1144D01*
X542Y1144D01*
X542Y1146D01*
X544Y1146D01*
X544Y1150D01*
X546Y1150D01*
X546Y1152D01*
X548Y1152D01*
X548Y1154D01*
X550Y1154D01*
X550Y1158D01*
X552Y1158D01*
X552Y1160D01*
X554Y1160D01*
X554Y1164D01*
X556Y1164D01*
X556Y1166D01*
X558Y1166D01*
X558Y1170D01*
X560Y1170D01*
X560Y1172D01*
X562Y1172D01*
X562Y1176D01*
X564Y1176D01*
X564Y1178D01*
X566Y1178D01*
X566Y1182D01*
X568Y1182D01*
X568Y1184D01*
X570Y1184D01*
X570Y1186D01*
X572Y1186D01*
X572Y1190D01*
X574Y1190D01*
X574Y1192D01*
X576Y1192D01*
X576Y1194D01*
X578Y1194D01*
X578Y1196D01*
X4Y1196D01*
G37*
D02*
G36*
X4Y1182D02*
X4Y814D01*
X86Y814D01*
X86Y832D01*
X88Y832D01*
X88Y840D01*
X90Y840D01*
X90Y846D01*
X92Y846D01*
X92Y848D01*
X94Y848D01*
X94Y852D01*
X96Y852D01*
X96Y854D01*
X98Y854D01*
X98Y856D01*
X100Y856D01*
X100Y858D01*
X104Y858D01*
X104Y860D01*
X106Y860D01*
X106Y862D01*
X108Y862D01*
X108Y864D01*
X112Y864D01*
X112Y866D01*
X114Y866D01*
X114Y868D01*
X118Y868D01*
X118Y870D01*
X120Y870D01*
X120Y872D01*
X122Y872D01*
X122Y874D01*
X126Y874D01*
X126Y876D01*
X128Y876D01*
X128Y878D01*
X130Y878D01*
X130Y880D01*
X134Y880D01*
X134Y882D01*
X136Y882D01*
X136Y884D01*
X138Y884D01*
X138Y886D01*
X142Y886D01*
X142Y888D01*
X144Y888D01*
X144Y890D01*
X148Y890D01*
X148Y892D01*
X150Y892D01*
X150Y894D01*
X154Y894D01*
X154Y896D01*
X158Y896D01*
X158Y898D01*
X160Y898D01*
X160Y900D01*
X164Y900D01*
X164Y902D01*
X168Y902D01*
X168Y904D01*
X172Y904D01*
X172Y906D01*
X174Y906D01*
X174Y988D01*
X170Y988D01*
X170Y990D01*
X162Y990D01*
X162Y992D01*
X154Y992D01*
X154Y994D01*
X146Y994D01*
X146Y996D01*
X138Y996D01*
X138Y998D01*
X130Y998D01*
X130Y1000D01*
X124Y1000D01*
X124Y1002D01*
X120Y1002D01*
X120Y1004D01*
X116Y1004D01*
X116Y1006D01*
X114Y1006D01*
X114Y1008D01*
X112Y1008D01*
X112Y1010D01*
X110Y1010D01*
X110Y1012D01*
X108Y1012D01*
X108Y1014D01*
X106Y1014D01*
X106Y1018D01*
X104Y1018D01*
X104Y1022D01*
X102Y1022D01*
X102Y1028D01*
X100Y1028D01*
X100Y1034D01*
X98Y1034D01*
X98Y1040D01*
X96Y1040D01*
X96Y1042D01*
X54Y1042D01*
X54Y1044D01*
X52Y1044D01*
X52Y1182D01*
X4Y1182D01*
G37*
D02*
G36*
X238Y1182D02*
X238Y1180D01*
X244Y1180D01*
X244Y1178D01*
X250Y1178D01*
X250Y1176D01*
X294Y1176D01*
X294Y1178D01*
X298Y1178D01*
X298Y1180D01*
X306Y1180D01*
X306Y1182D01*
X238Y1182D01*
G37*
D02*
G36*
X338Y1182D02*
X338Y1180D01*
X344Y1180D01*
X344Y1178D01*
X350Y1178D01*
X350Y1176D01*
X394Y1176D01*
X394Y1178D01*
X398Y1178D01*
X398Y1180D01*
X406Y1180D01*
X406Y1182D01*
X338Y1182D01*
G37*
D02*
G36*
X1106Y1196D02*
X1106Y1194D01*
X1108Y1194D01*
X1108Y1192D01*
X1110Y1192D01*
X1110Y1190D01*
X1112Y1190D01*
X1112Y1188D01*
X1114Y1188D01*
X1114Y1186D01*
X1116Y1186D01*
X1116Y1184D01*
X1118Y1184D01*
X1118Y1182D01*
X1120Y1182D01*
X1120Y1180D01*
X1122Y1180D01*
X1122Y1178D01*
X1124Y1178D01*
X1124Y1176D01*
X1126Y1176D01*
X1126Y1174D01*
X1128Y1174D01*
X1128Y1172D01*
X1130Y1172D01*
X1130Y1170D01*
X1132Y1170D01*
X1132Y1168D01*
X1134Y1168D01*
X1134Y1166D01*
X1136Y1166D01*
X1136Y1164D01*
X1138Y1164D01*
X1138Y1162D01*
X1140Y1162D01*
X1140Y1160D01*
X1142Y1160D01*
X1142Y1158D01*
X1144Y1158D01*
X1144Y1156D01*
X1146Y1156D01*
X1146Y1154D01*
X1148Y1154D01*
X1148Y1152D01*
X1150Y1152D01*
X1150Y1150D01*
X1152Y1150D01*
X1152Y1148D01*
X1154Y1148D01*
X1154Y1146D01*
X1156Y1146D01*
X1156Y1144D01*
X1158Y1144D01*
X1158Y1142D01*
X1160Y1142D01*
X1160Y1140D01*
X1162Y1140D01*
X1162Y1138D01*
X1164Y1138D01*
X1164Y1136D01*
X1166Y1136D01*
X1166Y1134D01*
X1168Y1134D01*
X1168Y1132D01*
X1170Y1132D01*
X1170Y1130D01*
X1172Y1130D01*
X1172Y1128D01*
X1174Y1128D01*
X1174Y1126D01*
X1176Y1126D01*
X1176Y1124D01*
X1178Y1124D01*
X1178Y1122D01*
X1180Y1122D01*
X1180Y1120D01*
X1182Y1120D01*
X1182Y1118D01*
X1184Y1118D01*
X1184Y1116D01*
X1186Y1116D01*
X1186Y1114D01*
X1188Y1114D01*
X1188Y1112D01*
X1190Y1112D01*
X1190Y1110D01*
X1192Y1110D01*
X1192Y1108D01*
X1194Y1108D01*
X1194Y1106D01*
X1196Y1106D01*
X1196Y1104D01*
X1198Y1104D01*
X1198Y1102D01*
X1200Y1102D01*
X1200Y1100D01*
X1202Y1100D01*
X1202Y1098D01*
X1204Y1098D01*
X1204Y1096D01*
X1206Y1096D01*
X1206Y1094D01*
X1208Y1094D01*
X1208Y1092D01*
X1210Y1092D01*
X1210Y1090D01*
X1212Y1090D01*
X1212Y1088D01*
X1214Y1088D01*
X1214Y1086D01*
X1216Y1086D01*
X1216Y1084D01*
X1218Y1084D01*
X1218Y1082D01*
X1220Y1082D01*
X1220Y1080D01*
X1222Y1080D01*
X1222Y1078D01*
X1224Y1078D01*
X1224Y1076D01*
X1226Y1076D01*
X1226Y1074D01*
X1228Y1074D01*
X1228Y1072D01*
X1230Y1072D01*
X1230Y1070D01*
X1232Y1070D01*
X1232Y1068D01*
X1234Y1068D01*
X1234Y1066D01*
X1236Y1066D01*
X1236Y1062D01*
X1238Y1062D01*
X1238Y1058D01*
X1240Y1058D01*
X1240Y1052D01*
X1242Y1052D01*
X1242Y1016D01*
X1244Y1016D01*
X1244Y972D01*
X1284Y972D01*
X1284Y974D01*
X1286Y974D01*
X1286Y976D01*
X1288Y976D01*
X1288Y978D01*
X1290Y978D01*
X1290Y980D01*
X1292Y980D01*
X1292Y982D01*
X1294Y982D01*
X1294Y984D01*
X1296Y984D01*
X1296Y988D01*
X1298Y988D01*
X1298Y990D01*
X1300Y990D01*
X1300Y992D01*
X1302Y992D01*
X1302Y994D01*
X1304Y994D01*
X1304Y996D01*
X1306Y996D01*
X1306Y998D01*
X1308Y998D01*
X1308Y1000D01*
X1310Y1000D01*
X1310Y1002D01*
X1312Y1002D01*
X1312Y1004D01*
X1314Y1004D01*
X1314Y1006D01*
X1316Y1006D01*
X1316Y1008D01*
X1318Y1008D01*
X1318Y1010D01*
X1320Y1010D01*
X1320Y1012D01*
X1322Y1012D01*
X1322Y1014D01*
X1324Y1014D01*
X1324Y1058D01*
X1294Y1058D01*
X1294Y1196D01*
X1106Y1196D01*
G37*
D02*
G36*
X1758Y1196D02*
X1758Y1170D01*
X1798Y1170D01*
X1798Y1172D01*
X1800Y1172D01*
X1800Y1174D01*
X1802Y1174D01*
X1802Y1176D01*
X1804Y1176D01*
X1804Y1178D01*
X1808Y1178D01*
X1808Y1180D01*
X1810Y1180D01*
X1810Y1182D01*
X1812Y1182D01*
X1812Y1184D01*
X1816Y1184D01*
X1816Y1186D01*
X1818Y1186D01*
X1818Y1188D01*
X1822Y1188D01*
X1822Y1190D01*
X1826Y1190D01*
X1826Y1192D01*
X1830Y1192D01*
X1830Y1194D01*
X1834Y1194D01*
X1834Y1196D01*
X1758Y1196D01*
G37*
D02*
G36*
X1944Y1196D02*
X1944Y1194D01*
X1948Y1194D01*
X1948Y1192D01*
X1952Y1192D01*
X1952Y1190D01*
X1956Y1190D01*
X1956Y1188D01*
X1958Y1188D01*
X1958Y1186D01*
X1962Y1186D01*
X1962Y1184D01*
X1964Y1184D01*
X1964Y1182D01*
X2006Y1182D01*
X2006Y1196D01*
X1944Y1196D01*
G37*
D02*
G36*
X948Y1048D02*
X948Y964D01*
X1008Y964D01*
X1008Y962D01*
X1020Y962D01*
X1020Y960D01*
X1062Y960D01*
X1062Y968D01*
X1060Y968D01*
X1060Y992D01*
X1058Y992D01*
X1058Y994D01*
X1056Y994D01*
X1056Y996D01*
X1054Y996D01*
X1054Y998D01*
X1052Y998D01*
X1052Y1000D01*
X1050Y1000D01*
X1050Y1002D01*
X1048Y1002D01*
X1048Y1004D01*
X1046Y1004D01*
X1046Y1006D01*
X1044Y1006D01*
X1044Y1008D01*
X1042Y1008D01*
X1042Y1010D01*
X1040Y1010D01*
X1040Y1012D01*
X1038Y1012D01*
X1038Y1014D01*
X1036Y1014D01*
X1036Y1016D01*
X1034Y1016D01*
X1034Y1018D01*
X1032Y1018D01*
X1032Y1020D01*
X1030Y1020D01*
X1030Y1022D01*
X1028Y1022D01*
X1028Y1024D01*
X1026Y1024D01*
X1026Y1026D01*
X1024Y1026D01*
X1024Y1028D01*
X1022Y1028D01*
X1022Y1030D01*
X1020Y1030D01*
X1020Y1032D01*
X1018Y1032D01*
X1018Y1034D01*
X1016Y1034D01*
X1016Y1036D01*
X1014Y1036D01*
X1014Y1038D01*
X1012Y1038D01*
X1012Y1040D01*
X1010Y1040D01*
X1010Y1042D01*
X1008Y1042D01*
X1008Y1044D01*
X1006Y1044D01*
X1006Y1046D01*
X1004Y1046D01*
X1004Y1048D01*
X948Y1048D01*
G37*
D02*
G36*
X948Y964D02*
X948Y962D01*
X988Y962D01*
X988Y964D01*
X948Y964D01*
G37*
D02*
G36*
X1066Y824D02*
X1066Y822D01*
X1068Y822D01*
X1068Y820D01*
X1078Y820D01*
X1078Y818D01*
X1090Y818D01*
X1090Y816D01*
X1098Y816D01*
X1098Y814D01*
X1102Y814D01*
X1102Y812D01*
X1142Y812D01*
X1142Y816D01*
X1140Y816D01*
X1140Y824D01*
X1066Y824D01*
G37*
D02*
G36*
X1258Y690D02*
X1258Y688D01*
X1200Y688D01*
X1200Y640D01*
X1240Y640D01*
X1240Y642D01*
X1242Y642D01*
X1242Y644D01*
X1244Y644D01*
X1244Y646D01*
X1246Y646D01*
X1246Y648D01*
X1248Y648D01*
X1248Y650D01*
X1252Y650D01*
X1252Y652D01*
X1254Y652D01*
X1254Y654D01*
X1258Y654D01*
X1258Y656D01*
X1262Y656D01*
X1262Y658D01*
X1266Y658D01*
X1266Y660D01*
X1272Y660D01*
X1272Y662D01*
X1334Y662D01*
X1334Y664D01*
X1330Y664D01*
X1330Y666D01*
X1328Y666D01*
X1328Y668D01*
X1326Y668D01*
X1326Y670D01*
X1324Y670D01*
X1324Y672D01*
X1322Y672D01*
X1322Y674D01*
X1320Y674D01*
X1320Y678D01*
X1318Y678D01*
X1318Y680D01*
X1316Y680D01*
X1316Y682D01*
X1314Y682D01*
X1314Y686D01*
X1312Y686D01*
X1312Y690D01*
X1258Y690D01*
G37*
D02*
G36*
X1072Y666D02*
X1072Y660D01*
X1070Y660D01*
X1070Y656D01*
X1068Y656D01*
X1068Y652D01*
X1066Y652D01*
X1066Y648D01*
X1064Y648D01*
X1064Y644D01*
X1062Y644D01*
X1062Y642D01*
X1060Y642D01*
X1060Y638D01*
X1058Y638D01*
X1058Y634D01*
X1060Y634D01*
X1060Y630D01*
X1062Y630D01*
X1062Y628D01*
X1064Y628D01*
X1064Y624D01*
X1066Y624D01*
X1066Y622D01*
X1068Y622D01*
X1068Y618D01*
X1070Y618D01*
X1070Y612D01*
X1110Y612D01*
X1110Y614D01*
X1112Y614D01*
X1112Y666D01*
X1072Y666D01*
G37*
D02*
G36*
X1334Y650D02*
X1334Y648D01*
X1336Y648D01*
X1336Y646D01*
X1338Y646D01*
X1338Y644D01*
X1340Y644D01*
X1340Y642D01*
X1342Y642D01*
X1342Y640D01*
X1344Y640D01*
X1344Y638D01*
X1346Y638D01*
X1346Y636D01*
X1348Y636D01*
X1348Y632D01*
X1350Y632D01*
X1350Y630D01*
X1352Y630D01*
X1352Y626D01*
X1354Y626D01*
X1354Y622D01*
X1356Y622D01*
X1356Y618D01*
X1358Y618D01*
X1358Y612D01*
X1360Y612D01*
X1360Y598D01*
X1416Y598D01*
X1416Y602D01*
X1414Y602D01*
X1414Y606D01*
X1412Y606D01*
X1412Y612D01*
X1410Y612D01*
X1410Y618D01*
X1408Y618D01*
X1408Y648D01*
X1410Y648D01*
X1410Y650D01*
X1334Y650D01*
G37*
D02*
G36*
X438Y614D02*
X438Y600D01*
X436Y600D01*
X436Y590D01*
X434Y590D01*
X434Y584D01*
X432Y584D01*
X432Y582D01*
X430Y582D01*
X430Y578D01*
X428Y578D01*
X428Y576D01*
X426Y576D01*
X426Y574D01*
X424Y574D01*
X424Y572D01*
X422Y572D01*
X422Y570D01*
X418Y570D01*
X418Y568D01*
X414Y568D01*
X414Y566D01*
X406Y566D01*
X406Y564D01*
X342Y564D01*
X342Y538D01*
X302Y538D01*
X302Y534D01*
X300Y534D01*
X300Y532D01*
X302Y532D01*
X302Y528D01*
X342Y528D01*
X342Y488D01*
X302Y488D01*
X302Y484D01*
X300Y484D01*
X300Y480D01*
X298Y480D01*
X298Y478D01*
X342Y478D01*
X342Y438D01*
X208Y438D01*
X208Y436D01*
X202Y436D01*
X202Y434D01*
X178Y434D01*
X178Y432D01*
X166Y432D01*
X166Y430D01*
X164Y430D01*
X164Y426D01*
X162Y426D01*
X162Y422D01*
X164Y422D01*
X164Y420D01*
X166Y420D01*
X166Y418D01*
X168Y418D01*
X168Y416D01*
X170Y416D01*
X170Y412D01*
X172Y412D01*
X172Y410D01*
X174Y410D01*
X174Y406D01*
X176Y406D01*
X176Y402D01*
X178Y402D01*
X178Y396D01*
X180Y396D01*
X180Y388D01*
X182Y388D01*
X182Y362D01*
X180Y362D01*
X180Y352D01*
X178Y352D01*
X178Y348D01*
X176Y348D01*
X176Y344D01*
X174Y344D01*
X174Y340D01*
X610Y340D01*
X610Y342D01*
X456Y342D01*
X456Y344D01*
X448Y344D01*
X448Y346D01*
X444Y346D01*
X444Y348D01*
X442Y348D01*
X442Y350D01*
X438Y350D01*
X438Y352D01*
X436Y352D01*
X436Y354D01*
X434Y354D01*
X434Y358D01*
X432Y358D01*
X432Y360D01*
X430Y360D01*
X430Y364D01*
X428Y364D01*
X428Y370D01*
X426Y370D01*
X426Y394D01*
X424Y394D01*
X424Y442D01*
X422Y442D01*
X422Y492D01*
X420Y492D01*
X420Y520D01*
X422Y520D01*
X422Y528D01*
X424Y528D01*
X424Y532D01*
X426Y532D01*
X426Y534D01*
X428Y534D01*
X428Y538D01*
X430Y538D01*
X430Y540D01*
X432Y540D01*
X432Y542D01*
X434Y542D01*
X434Y544D01*
X438Y544D01*
X438Y546D01*
X440Y546D01*
X440Y548D01*
X444Y548D01*
X444Y550D01*
X454Y550D01*
X454Y552D01*
X510Y552D01*
X510Y578D01*
X554Y578D01*
X554Y580D01*
X552Y580D01*
X552Y584D01*
X550Y584D01*
X550Y588D01*
X510Y588D01*
X510Y614D01*
X438Y614D01*
G37*
D02*
G36*
X674Y342D02*
X674Y340D01*
X720Y340D01*
X720Y342D01*
X674Y342D01*
G37*
D02*
G36*
X172Y340D02*
X172Y338D01*
X720Y338D01*
X720Y340D01*
X172Y340D01*
G37*
D02*
G36*
X172Y340D02*
X172Y338D01*
X720Y338D01*
X720Y340D01*
X172Y340D01*
G37*
D02*
G36*
X172Y338D02*
X172Y336D01*
X170Y336D01*
X170Y334D01*
X168Y334D01*
X168Y332D01*
X166Y332D01*
X166Y330D01*
X164Y330D01*
X164Y326D01*
X162Y326D01*
X162Y322D01*
X164Y322D01*
X164Y320D01*
X230Y320D01*
X230Y318D01*
X254Y318D01*
X254Y316D01*
X276Y316D01*
X276Y314D01*
X454Y314D01*
X454Y312D01*
X552Y312D01*
X552Y310D01*
X556Y310D01*
X556Y308D01*
X560Y308D01*
X560Y306D01*
X564Y306D01*
X564Y304D01*
X566Y304D01*
X566Y302D01*
X568Y302D01*
X568Y300D01*
X570Y300D01*
X570Y298D01*
X572Y298D01*
X572Y294D01*
X574Y294D01*
X574Y290D01*
X576Y290D01*
X576Y286D01*
X578Y286D01*
X578Y272D01*
X580Y272D01*
X580Y268D01*
X660Y268D01*
X660Y266D01*
X666Y266D01*
X666Y264D01*
X670Y264D01*
X670Y262D01*
X674Y262D01*
X674Y260D01*
X678Y260D01*
X678Y258D01*
X680Y258D01*
X680Y256D01*
X682Y256D01*
X682Y254D01*
X722Y254D01*
X722Y260D01*
X724Y260D01*
X724Y264D01*
X726Y264D01*
X726Y270D01*
X728Y270D01*
X728Y274D01*
X730Y274D01*
X730Y276D01*
X732Y276D01*
X732Y280D01*
X734Y280D01*
X734Y282D01*
X736Y282D01*
X736Y284D01*
X738Y284D01*
X738Y288D01*
X736Y288D01*
X736Y290D01*
X734Y290D01*
X734Y292D01*
X732Y292D01*
X732Y296D01*
X730Y296D01*
X730Y300D01*
X728Y300D01*
X728Y302D01*
X726Y302D01*
X726Y308D01*
X724Y308D01*
X724Y314D01*
X722Y314D01*
X722Y322D01*
X720Y322D01*
X720Y338D01*
X172Y338D01*
G37*
D02*
G36*
X580Y268D02*
X580Y266D01*
X622Y266D01*
X622Y268D01*
X580Y268D01*
G37*
D02*
G36*
X1070Y560D02*
X1070Y556D01*
X1068Y556D01*
X1068Y552D01*
X1066Y552D01*
X1066Y548D01*
X1064Y548D01*
X1064Y544D01*
X1062Y544D01*
X1062Y542D01*
X1060Y542D01*
X1060Y538D01*
X1058Y538D01*
X1058Y534D01*
X1060Y534D01*
X1060Y530D01*
X1062Y530D01*
X1062Y528D01*
X1064Y528D01*
X1064Y524D01*
X1066Y524D01*
X1066Y522D01*
X1068Y522D01*
X1068Y518D01*
X1070Y518D01*
X1070Y512D01*
X1110Y512D01*
X1110Y560D01*
X1070Y560D01*
G37*
D02*
G36*
X604Y540D02*
X604Y538D01*
X558Y538D01*
X558Y536D01*
X560Y536D01*
X560Y534D01*
X562Y534D01*
X562Y530D01*
X564Y530D01*
X564Y528D01*
X604Y528D01*
X604Y522D01*
X644Y522D01*
X644Y526D01*
X646Y526D01*
X646Y528D01*
X648Y528D01*
X648Y530D01*
X650Y530D01*
X650Y532D01*
X652Y532D01*
X652Y534D01*
X654Y534D01*
X654Y536D01*
X650Y536D01*
X650Y538D01*
X644Y538D01*
X644Y540D01*
X604Y540D01*
G37*
D02*
G36*
X1070Y460D02*
X1070Y456D01*
X1068Y456D01*
X1068Y452D01*
X1066Y452D01*
X1066Y448D01*
X1064Y448D01*
X1064Y444D01*
X1062Y444D01*
X1062Y442D01*
X1060Y442D01*
X1060Y438D01*
X1058Y438D01*
X1058Y434D01*
X1060Y434D01*
X1060Y430D01*
X1062Y430D01*
X1062Y428D01*
X1064Y428D01*
X1064Y424D01*
X1066Y424D01*
X1066Y422D01*
X1068Y422D01*
X1068Y418D01*
X1108Y418D01*
X1108Y436D01*
X1110Y436D01*
X1110Y460D01*
X1070Y460D01*
G37*
D02*
G36*
X1068Y356D02*
X1068Y352D01*
X1066Y352D01*
X1066Y348D01*
X1064Y348D01*
X1064Y344D01*
X1062Y344D01*
X1062Y342D01*
X1060Y342D01*
X1060Y338D01*
X1058Y338D01*
X1058Y334D01*
X1060Y334D01*
X1060Y330D01*
X1062Y330D01*
X1062Y328D01*
X1064Y328D01*
X1064Y324D01*
X1066Y324D01*
X1066Y322D01*
X1068Y322D01*
X1068Y318D01*
X1108Y318D01*
X1108Y356D01*
X1068Y356D01*
G37*
D02*
G36*
X182Y230D02*
X182Y106D01*
X4Y106D01*
X4Y4D01*
X290Y4D01*
X290Y6D01*
X286Y6D01*
X286Y8D01*
X284Y8D01*
X284Y10D01*
X282Y10D01*
X282Y12D01*
X278Y12D01*
X278Y14D01*
X276Y14D01*
X276Y16D01*
X274Y16D01*
X274Y18D01*
X272Y18D01*
X272Y20D01*
X270Y20D01*
X270Y22D01*
X266Y22D01*
X266Y24D01*
X264Y24D01*
X264Y26D01*
X262Y26D01*
X262Y28D01*
X260Y28D01*
X260Y32D01*
X258Y32D01*
X258Y34D01*
X256Y34D01*
X256Y36D01*
X254Y36D01*
X254Y38D01*
X252Y38D01*
X252Y40D01*
X250Y40D01*
X250Y44D01*
X248Y44D01*
X248Y46D01*
X246Y46D01*
X246Y50D01*
X244Y50D01*
X244Y52D01*
X242Y52D01*
X242Y56D01*
X240Y56D01*
X240Y60D01*
X238Y60D01*
X238Y64D01*
X236Y64D01*
X236Y68D01*
X234Y68D01*
X234Y74D01*
X232Y74D01*
X232Y78D01*
X230Y78D01*
X230Y86D01*
X228Y86D01*
X228Y94D01*
X226Y94D01*
X226Y148D01*
X228Y148D01*
X228Y156D01*
X230Y156D01*
X230Y162D01*
X232Y162D01*
X232Y168D01*
X234Y168D01*
X234Y174D01*
X236Y174D01*
X236Y178D01*
X238Y178D01*
X238Y182D01*
X240Y182D01*
X240Y186D01*
X242Y186D01*
X242Y188D01*
X244Y188D01*
X244Y192D01*
X246Y192D01*
X246Y196D01*
X248Y196D01*
X248Y198D01*
X250Y198D01*
X250Y200D01*
X252Y200D01*
X252Y204D01*
X254Y204D01*
X254Y206D01*
X256Y206D01*
X256Y208D01*
X258Y208D01*
X258Y210D01*
X260Y210D01*
X260Y212D01*
X262Y212D01*
X262Y214D01*
X264Y214D01*
X264Y216D01*
X266Y216D01*
X266Y218D01*
X268Y218D01*
X268Y220D01*
X270Y220D01*
X270Y222D01*
X272Y222D01*
X272Y224D01*
X274Y224D01*
X274Y226D01*
X260Y226D01*
X260Y228D01*
X236Y228D01*
X236Y230D01*
X182Y230D01*
G37*
D02*
G36*
X1488Y1060D02*
X1488Y1058D01*
X1568Y1058D01*
X1568Y1060D01*
X1488Y1060D01*
G37*
D02*
G36*
X1590Y1060D02*
X1590Y1058D01*
X1754Y1058D01*
X1754Y1060D01*
X1590Y1060D01*
G37*
D02*
G36*
X1412Y1058D02*
X1412Y1056D01*
X1754Y1056D01*
X1754Y1058D01*
X1412Y1058D01*
G37*
D02*
G36*
X1412Y1058D02*
X1412Y1056D01*
X1754Y1056D01*
X1754Y1058D01*
X1412Y1058D01*
G37*
D02*
G36*
X1412Y1056D02*
X1412Y978D01*
X1410Y978D01*
X1410Y972D01*
X1408Y972D01*
X1408Y968D01*
X1406Y968D01*
X1406Y966D01*
X1404Y966D01*
X1404Y962D01*
X1402Y962D01*
X1402Y960D01*
X1400Y960D01*
X1400Y958D01*
X1398Y958D01*
X1398Y956D01*
X1396Y956D01*
X1396Y954D01*
X1394Y954D01*
X1394Y952D01*
X1392Y952D01*
X1392Y950D01*
X1390Y950D01*
X1390Y948D01*
X1388Y948D01*
X1388Y946D01*
X1386Y946D01*
X1386Y944D01*
X1384Y944D01*
X1384Y942D01*
X1382Y942D01*
X1382Y940D01*
X1380Y940D01*
X1380Y938D01*
X1378Y938D01*
X1378Y936D01*
X1874Y936D01*
X1874Y938D01*
X1860Y938D01*
X1860Y940D01*
X1852Y940D01*
X1852Y942D01*
X1846Y942D01*
X1846Y944D01*
X1840Y944D01*
X1840Y946D01*
X1836Y946D01*
X1836Y948D01*
X1830Y948D01*
X1830Y950D01*
X1826Y950D01*
X1826Y952D01*
X1824Y952D01*
X1824Y954D01*
X1820Y954D01*
X1820Y956D01*
X1816Y956D01*
X1816Y958D01*
X1814Y958D01*
X1814Y960D01*
X1810Y960D01*
X1810Y962D01*
X1808Y962D01*
X1808Y964D01*
X1806Y964D01*
X1806Y966D01*
X1804Y966D01*
X1804Y968D01*
X1800Y968D01*
X1800Y970D01*
X1798Y970D01*
X1798Y972D01*
X1796Y972D01*
X1796Y974D01*
X1794Y974D01*
X1794Y976D01*
X1792Y976D01*
X1792Y978D01*
X1790Y978D01*
X1790Y980D01*
X1788Y980D01*
X1788Y982D01*
X1786Y982D01*
X1786Y986D01*
X1784Y986D01*
X1784Y988D01*
X1782Y988D01*
X1782Y990D01*
X1780Y990D01*
X1780Y992D01*
X1778Y992D01*
X1778Y996D01*
X1776Y996D01*
X1776Y998D01*
X1774Y998D01*
X1774Y1002D01*
X1772Y1002D01*
X1772Y1004D01*
X1770Y1004D01*
X1770Y1008D01*
X1768Y1008D01*
X1768Y1012D01*
X1766Y1012D01*
X1766Y1016D01*
X1764Y1016D01*
X1764Y1022D01*
X1762Y1022D01*
X1762Y1026D01*
X1760Y1026D01*
X1760Y1032D01*
X1758Y1032D01*
X1758Y1040D01*
X1756Y1040D01*
X1756Y1050D01*
X1754Y1050D01*
X1754Y1056D01*
X1412Y1056D01*
G37*
D02*
G36*
X1966Y962D02*
X1966Y960D01*
X1964Y960D01*
X1964Y958D01*
X1960Y958D01*
X1960Y956D01*
X1958Y956D01*
X1958Y954D01*
X1954Y954D01*
X1954Y952D01*
X1950Y952D01*
X1950Y950D01*
X1946Y950D01*
X1946Y948D01*
X1942Y948D01*
X1942Y946D01*
X1938Y946D01*
X1938Y944D01*
X1932Y944D01*
X1932Y942D01*
X1926Y942D01*
X1926Y940D01*
X1918Y940D01*
X1918Y938D01*
X1904Y938D01*
X1904Y936D01*
X2006Y936D01*
X2006Y962D01*
X1966Y962D01*
G37*
D02*
G36*
X1376Y936D02*
X1376Y934D01*
X2006Y934D01*
X2006Y936D01*
X1376Y936D01*
G37*
D02*
G36*
X1376Y936D02*
X1376Y934D01*
X2006Y934D01*
X2006Y936D01*
X1376Y936D01*
G37*
D02*
G36*
X1374Y934D02*
X1374Y930D01*
X1372Y930D01*
X1372Y928D01*
X1370Y928D01*
X1370Y926D01*
X1368Y926D01*
X1368Y924D01*
X1366Y924D01*
X1366Y922D01*
X1364Y922D01*
X1364Y920D01*
X1362Y920D01*
X1362Y918D01*
X1360Y918D01*
X1360Y916D01*
X1358Y916D01*
X1358Y914D01*
X1356Y914D01*
X1356Y912D01*
X1354Y912D01*
X1354Y910D01*
X1352Y910D01*
X1352Y908D01*
X1698Y908D01*
X1698Y906D01*
X1708Y906D01*
X1708Y904D01*
X1714Y904D01*
X1714Y902D01*
X1718Y902D01*
X1718Y900D01*
X1722Y900D01*
X1722Y898D01*
X1724Y898D01*
X1724Y896D01*
X1728Y896D01*
X1728Y894D01*
X1730Y894D01*
X1730Y892D01*
X1732Y892D01*
X1732Y890D01*
X1734Y890D01*
X1734Y888D01*
X1738Y888D01*
X1738Y884D01*
X1922Y884D01*
X1922Y744D01*
X1876Y744D01*
X1876Y742D01*
X1880Y742D01*
X1880Y740D01*
X1884Y740D01*
X1884Y738D01*
X1888Y738D01*
X1888Y736D01*
X1890Y736D01*
X1890Y734D01*
X1894Y734D01*
X1894Y732D01*
X1896Y732D01*
X1896Y730D01*
X1898Y730D01*
X1898Y728D01*
X1900Y728D01*
X1900Y726D01*
X1902Y726D01*
X1902Y724D01*
X1904Y724D01*
X1904Y722D01*
X1906Y722D01*
X1906Y720D01*
X1908Y720D01*
X1908Y718D01*
X1910Y718D01*
X1910Y714D01*
X1912Y714D01*
X1912Y712D01*
X1914Y712D01*
X1914Y708D01*
X1916Y708D01*
X1916Y704D01*
X1918Y704D01*
X1918Y700D01*
X1920Y700D01*
X1920Y692D01*
X1922Y692D01*
X1922Y660D01*
X1920Y660D01*
X1920Y654D01*
X1918Y654D01*
X1918Y648D01*
X1916Y648D01*
X1916Y644D01*
X1914Y644D01*
X1914Y642D01*
X1912Y642D01*
X1912Y638D01*
X1910Y638D01*
X1910Y636D01*
X1908Y636D01*
X1908Y632D01*
X1906Y632D01*
X1906Y630D01*
X1904Y630D01*
X1904Y628D01*
X1902Y628D01*
X1902Y626D01*
X1900Y626D01*
X1900Y624D01*
X1898Y624D01*
X1898Y622D01*
X1896Y622D01*
X1896Y620D01*
X1892Y620D01*
X1892Y618D01*
X1890Y618D01*
X1890Y616D01*
X1886Y616D01*
X1886Y614D01*
X1882Y614D01*
X1882Y612D01*
X1878Y612D01*
X1878Y610D01*
X1872Y610D01*
X1872Y608D01*
X1870Y608D01*
X1870Y606D01*
X1876Y606D01*
X1876Y604D01*
X1880Y604D01*
X1880Y602D01*
X1884Y602D01*
X1884Y600D01*
X1888Y600D01*
X1888Y598D01*
X1892Y598D01*
X1892Y596D01*
X1894Y596D01*
X1894Y594D01*
X1896Y594D01*
X1896Y592D01*
X1898Y592D01*
X1898Y590D01*
X1900Y590D01*
X1900Y588D01*
X1902Y588D01*
X1902Y586D01*
X1904Y586D01*
X1904Y584D01*
X1906Y584D01*
X1906Y582D01*
X1908Y582D01*
X1908Y580D01*
X1910Y580D01*
X1910Y576D01*
X1912Y576D01*
X1912Y574D01*
X1914Y574D01*
X1914Y570D01*
X1916Y570D01*
X1916Y566D01*
X1918Y566D01*
X1918Y562D01*
X1920Y562D01*
X1920Y554D01*
X1922Y554D01*
X1922Y522D01*
X1920Y522D01*
X1920Y516D01*
X1918Y516D01*
X1918Y510D01*
X1916Y510D01*
X1916Y506D01*
X1914Y506D01*
X1914Y504D01*
X1912Y504D01*
X1912Y500D01*
X1910Y500D01*
X1910Y498D01*
X1908Y498D01*
X1908Y496D01*
X1906Y496D01*
X1906Y492D01*
X1904Y492D01*
X1904Y490D01*
X1902Y490D01*
X1902Y488D01*
X1900Y488D01*
X1900Y486D01*
X1898Y486D01*
X1898Y484D01*
X1894Y484D01*
X1894Y482D01*
X1892Y482D01*
X1892Y480D01*
X1890Y480D01*
X1890Y478D01*
X1886Y478D01*
X1886Y476D01*
X1882Y476D01*
X1882Y474D01*
X1878Y474D01*
X1878Y472D01*
X1872Y472D01*
X1872Y470D01*
X1870Y470D01*
X1870Y468D01*
X1876Y468D01*
X1876Y466D01*
X1882Y466D01*
X1882Y464D01*
X1884Y464D01*
X1884Y462D01*
X1888Y462D01*
X1888Y460D01*
X1892Y460D01*
X1892Y458D01*
X1894Y458D01*
X1894Y456D01*
X1896Y456D01*
X1896Y454D01*
X1898Y454D01*
X1898Y452D01*
X1900Y452D01*
X1900Y450D01*
X1902Y450D01*
X1902Y448D01*
X1904Y448D01*
X1904Y446D01*
X1906Y446D01*
X1906Y444D01*
X1908Y444D01*
X1908Y442D01*
X1910Y442D01*
X1910Y440D01*
X1912Y440D01*
X1912Y436D01*
X1914Y436D01*
X1914Y432D01*
X1916Y432D01*
X1916Y428D01*
X1918Y428D01*
X1918Y424D01*
X1920Y424D01*
X1920Y416D01*
X1922Y416D01*
X1922Y386D01*
X1920Y386D01*
X1920Y378D01*
X1918Y378D01*
X1918Y374D01*
X1916Y374D01*
X1916Y370D01*
X1914Y370D01*
X1914Y366D01*
X1912Y366D01*
X1912Y362D01*
X1910Y362D01*
X1910Y360D01*
X1908Y360D01*
X1908Y358D01*
X1906Y358D01*
X1906Y354D01*
X1904Y354D01*
X1904Y352D01*
X1902Y352D01*
X1902Y350D01*
X1900Y350D01*
X1900Y348D01*
X1896Y348D01*
X1896Y346D01*
X1894Y346D01*
X1894Y344D01*
X1892Y344D01*
X1892Y342D01*
X1888Y342D01*
X1888Y340D01*
X1886Y340D01*
X1886Y338D01*
X1882Y338D01*
X1882Y336D01*
X1878Y336D01*
X1878Y334D01*
X1872Y334D01*
X1872Y332D01*
X2006Y332D01*
X2006Y934D01*
X1374Y934D01*
G37*
D02*
G36*
X1350Y908D02*
X1350Y906D01*
X1600Y906D01*
X1600Y904D01*
X1606Y904D01*
X1606Y902D01*
X1610Y902D01*
X1610Y900D01*
X1654Y900D01*
X1654Y902D01*
X1658Y902D01*
X1658Y904D01*
X1664Y904D01*
X1664Y906D01*
X1674Y906D01*
X1674Y908D01*
X1350Y908D01*
G37*
D02*
G36*
X1348Y906D02*
X1348Y904D01*
X1384Y904D01*
X1384Y902D01*
X1390Y902D01*
X1390Y900D01*
X1396Y900D01*
X1396Y898D01*
X1440Y898D01*
X1440Y900D01*
X1444Y900D01*
X1444Y902D01*
X1448Y902D01*
X1448Y904D01*
X1456Y904D01*
X1456Y906D01*
X1348Y906D01*
G37*
D02*
G36*
X1490Y906D02*
X1490Y904D01*
X1496Y904D01*
X1496Y902D01*
X1502Y902D01*
X1502Y900D01*
X1548Y900D01*
X1548Y902D01*
X1552Y902D01*
X1552Y904D01*
X1558Y904D01*
X1558Y906D01*
X1490Y906D01*
G37*
D02*
G36*
X1740Y884D02*
X1740Y882D01*
X1742Y882D01*
X1742Y880D01*
X1782Y880D01*
X1782Y882D01*
X1784Y882D01*
X1784Y884D01*
X1740Y884D01*
G37*
D02*
G36*
X872Y660D02*
X872Y656D01*
X874Y656D01*
X874Y616D01*
X872Y616D01*
X872Y610D01*
X870Y610D01*
X870Y606D01*
X868Y606D01*
X868Y602D01*
X866Y602D01*
X866Y598D01*
X864Y598D01*
X864Y594D01*
X862Y594D01*
X862Y592D01*
X860Y592D01*
X860Y588D01*
X858Y588D01*
X858Y584D01*
X860Y584D01*
X860Y580D01*
X862Y580D01*
X862Y578D01*
X864Y578D01*
X864Y574D01*
X866Y574D01*
X866Y572D01*
X868Y572D01*
X868Y568D01*
X870Y568D01*
X870Y562D01*
X872Y562D01*
X872Y556D01*
X874Y556D01*
X874Y516D01*
X872Y516D01*
X872Y510D01*
X870Y510D01*
X870Y506D01*
X868Y506D01*
X868Y502D01*
X866Y502D01*
X866Y498D01*
X864Y498D01*
X864Y494D01*
X862Y494D01*
X862Y492D01*
X860Y492D01*
X860Y488D01*
X858Y488D01*
X858Y484D01*
X860Y484D01*
X860Y480D01*
X862Y480D01*
X862Y478D01*
X864Y478D01*
X864Y474D01*
X866Y474D01*
X866Y472D01*
X868Y472D01*
X868Y468D01*
X870Y468D01*
X870Y462D01*
X872Y462D01*
X872Y456D01*
X874Y456D01*
X874Y416D01*
X872Y416D01*
X872Y410D01*
X870Y410D01*
X870Y406D01*
X868Y406D01*
X868Y402D01*
X866Y402D01*
X866Y398D01*
X864Y398D01*
X864Y394D01*
X862Y394D01*
X862Y392D01*
X860Y392D01*
X860Y388D01*
X858Y388D01*
X858Y384D01*
X860Y384D01*
X860Y380D01*
X862Y380D01*
X862Y378D01*
X864Y378D01*
X864Y374D01*
X866Y374D01*
X866Y372D01*
X868Y372D01*
X868Y368D01*
X870Y368D01*
X870Y362D01*
X872Y362D01*
X872Y356D01*
X874Y356D01*
X874Y316D01*
X872Y316D01*
X872Y310D01*
X870Y310D01*
X870Y306D01*
X868Y306D01*
X868Y302D01*
X866Y302D01*
X866Y298D01*
X864Y298D01*
X864Y294D01*
X862Y294D01*
X862Y292D01*
X860Y292D01*
X860Y288D01*
X858Y288D01*
X858Y284D01*
X860Y284D01*
X860Y280D01*
X862Y280D01*
X862Y278D01*
X864Y278D01*
X864Y274D01*
X866Y274D01*
X866Y272D01*
X868Y272D01*
X868Y268D01*
X870Y268D01*
X870Y262D01*
X872Y262D01*
X872Y256D01*
X874Y256D01*
X874Y216D01*
X872Y216D01*
X872Y210D01*
X976Y210D01*
X976Y212D01*
X970Y212D01*
X970Y214D01*
X966Y214D01*
X966Y216D01*
X962Y216D01*
X962Y218D01*
X958Y218D01*
X958Y220D01*
X956Y220D01*
X956Y222D01*
X952Y222D01*
X952Y224D01*
X950Y224D01*
X950Y226D01*
X948Y226D01*
X948Y228D01*
X946Y228D01*
X946Y230D01*
X942Y230D01*
X942Y234D01*
X940Y234D01*
X940Y236D01*
X938Y236D01*
X938Y238D01*
X936Y238D01*
X936Y240D01*
X934Y240D01*
X934Y242D01*
X932Y242D01*
X932Y246D01*
X930Y246D01*
X930Y250D01*
X928Y250D01*
X928Y252D01*
X926Y252D01*
X926Y258D01*
X924Y258D01*
X924Y264D01*
X922Y264D01*
X922Y272D01*
X920Y272D01*
X920Y300D01*
X922Y300D01*
X922Y310D01*
X924Y310D01*
X924Y314D01*
X926Y314D01*
X926Y320D01*
X928Y320D01*
X928Y324D01*
X930Y324D01*
X930Y326D01*
X932Y326D01*
X932Y330D01*
X934Y330D01*
X934Y332D01*
X936Y332D01*
X936Y334D01*
X938Y334D01*
X938Y338D01*
X936Y338D01*
X936Y340D01*
X934Y340D01*
X934Y342D01*
X932Y342D01*
X932Y346D01*
X930Y346D01*
X930Y350D01*
X928Y350D01*
X928Y352D01*
X926Y352D01*
X926Y358D01*
X924Y358D01*
X924Y364D01*
X922Y364D01*
X922Y372D01*
X920Y372D01*
X920Y400D01*
X922Y400D01*
X922Y410D01*
X924Y410D01*
X924Y414D01*
X926Y414D01*
X926Y420D01*
X928Y420D01*
X928Y424D01*
X930Y424D01*
X930Y426D01*
X932Y426D01*
X932Y430D01*
X934Y430D01*
X934Y432D01*
X936Y432D01*
X936Y434D01*
X938Y434D01*
X938Y438D01*
X936Y438D01*
X936Y440D01*
X934Y440D01*
X934Y442D01*
X932Y442D01*
X932Y446D01*
X930Y446D01*
X930Y450D01*
X928Y450D01*
X928Y452D01*
X926Y452D01*
X926Y458D01*
X924Y458D01*
X924Y464D01*
X922Y464D01*
X922Y472D01*
X920Y472D01*
X920Y500D01*
X922Y500D01*
X922Y510D01*
X924Y510D01*
X924Y514D01*
X926Y514D01*
X926Y520D01*
X928Y520D01*
X928Y524D01*
X930Y524D01*
X930Y526D01*
X932Y526D01*
X932Y530D01*
X934Y530D01*
X934Y532D01*
X936Y532D01*
X936Y534D01*
X938Y534D01*
X938Y538D01*
X936Y538D01*
X936Y540D01*
X934Y540D01*
X934Y542D01*
X932Y542D01*
X932Y546D01*
X930Y546D01*
X930Y550D01*
X928Y550D01*
X928Y552D01*
X926Y552D01*
X926Y558D01*
X924Y558D01*
X924Y564D01*
X922Y564D01*
X922Y572D01*
X920Y572D01*
X920Y600D01*
X922Y600D01*
X922Y610D01*
X924Y610D01*
X924Y614D01*
X926Y614D01*
X926Y620D01*
X928Y620D01*
X928Y624D01*
X930Y624D01*
X930Y626D01*
X932Y626D01*
X932Y630D01*
X934Y630D01*
X934Y632D01*
X936Y632D01*
X936Y634D01*
X938Y634D01*
X938Y638D01*
X936Y638D01*
X936Y640D01*
X934Y640D01*
X934Y642D01*
X932Y642D01*
X932Y646D01*
X930Y646D01*
X930Y650D01*
X928Y650D01*
X928Y652D01*
X926Y652D01*
X926Y656D01*
X920Y656D01*
X920Y658D01*
X912Y658D01*
X912Y660D01*
X872Y660D01*
G37*
D02*
G36*
X1256Y410D02*
X1256Y408D01*
X1248Y408D01*
X1248Y406D01*
X1196Y406D01*
X1196Y304D01*
X1466Y304D01*
X1466Y306D01*
X1300Y306D01*
X1300Y410D01*
X1256Y410D01*
G37*
D02*
G36*
X1770Y346D02*
X1770Y332D01*
X1834Y332D01*
X1834Y334D01*
X1828Y334D01*
X1828Y336D01*
X1822Y336D01*
X1822Y338D01*
X1820Y338D01*
X1820Y340D01*
X1816Y340D01*
X1816Y342D01*
X1812Y342D01*
X1812Y344D01*
X1810Y344D01*
X1810Y346D01*
X1770Y346D01*
G37*
D02*
G36*
X1770Y332D02*
X1770Y330D01*
X2006Y330D01*
X2006Y332D01*
X1770Y332D01*
G37*
D02*
G36*
X1770Y332D02*
X1770Y330D01*
X2006Y330D01*
X2006Y332D01*
X1770Y332D01*
G37*
D02*
G36*
X1770Y330D02*
X1770Y306D01*
X1496Y306D01*
X1496Y304D01*
X2006Y304D01*
X2006Y330D01*
X1770Y330D01*
G37*
D02*
G36*
X1196Y304D02*
X1196Y302D01*
X2006Y302D01*
X2006Y304D01*
X1196Y304D01*
G37*
D02*
G36*
X1196Y304D02*
X1196Y302D01*
X2006Y302D01*
X2006Y304D01*
X1196Y304D01*
G37*
D02*
G36*
X1196Y302D02*
X1196Y286D01*
X1198Y286D01*
X1198Y282D01*
X1200Y282D01*
X1200Y276D01*
X1202Y276D01*
X1202Y270D01*
X1204Y270D01*
X1204Y264D01*
X1206Y264D01*
X1206Y258D01*
X1208Y258D01*
X1208Y254D01*
X1904Y254D01*
X1904Y252D01*
X1916Y252D01*
X1916Y250D01*
X1924Y250D01*
X1924Y248D01*
X1930Y248D01*
X1930Y246D01*
X1936Y246D01*
X1936Y244D01*
X1940Y244D01*
X1940Y242D01*
X1944Y242D01*
X1944Y240D01*
X1948Y240D01*
X1948Y238D01*
X1952Y238D01*
X1952Y236D01*
X1956Y236D01*
X1956Y234D01*
X1958Y234D01*
X1958Y232D01*
X1962Y232D01*
X1962Y230D01*
X1964Y230D01*
X1964Y228D01*
X2006Y228D01*
X2006Y302D01*
X1196Y302D01*
G37*
D02*
G36*
X1070Y260D02*
X1070Y256D01*
X1068Y256D01*
X1068Y252D01*
X1066Y252D01*
X1066Y248D01*
X1064Y248D01*
X1064Y244D01*
X1062Y244D01*
X1062Y242D01*
X1060Y242D01*
X1060Y238D01*
X1058Y238D01*
X1058Y236D01*
X1056Y236D01*
X1056Y234D01*
X1054Y234D01*
X1054Y232D01*
X1052Y232D01*
X1052Y230D01*
X1050Y230D01*
X1050Y228D01*
X1048Y228D01*
X1048Y226D01*
X1046Y226D01*
X1046Y224D01*
X1042Y224D01*
X1042Y222D01*
X1040Y222D01*
X1040Y220D01*
X1036Y220D01*
X1036Y218D01*
X1034Y218D01*
X1034Y216D01*
X1030Y216D01*
X1030Y214D01*
X1024Y214D01*
X1024Y212D01*
X1018Y212D01*
X1018Y210D01*
X1126Y210D01*
X1126Y214D01*
X1124Y214D01*
X1124Y220D01*
X1122Y220D01*
X1122Y226D01*
X1120Y226D01*
X1120Y232D01*
X1118Y232D01*
X1118Y238D01*
X1116Y238D01*
X1116Y244D01*
X1114Y244D01*
X1114Y248D01*
X1112Y248D01*
X1112Y254D01*
X1110Y254D01*
X1110Y260D01*
X1070Y260D01*
G37*
D02*
G36*
X1208Y254D02*
X1208Y252D01*
X1210Y252D01*
X1210Y246D01*
X1212Y246D01*
X1212Y240D01*
X1214Y240D01*
X1214Y234D01*
X1216Y234D01*
X1216Y228D01*
X1218Y228D01*
X1218Y222D01*
X1222Y222D01*
X1222Y220D01*
X1226Y220D01*
X1226Y218D01*
X1230Y218D01*
X1230Y216D01*
X1234Y216D01*
X1234Y214D01*
X1236Y214D01*
X1236Y212D01*
X1238Y212D01*
X1238Y210D01*
X1242Y210D01*
X1242Y208D01*
X1244Y208D01*
X1244Y206D01*
X1246Y206D01*
X1246Y204D01*
X1248Y204D01*
X1248Y202D01*
X1250Y202D01*
X1250Y198D01*
X1252Y198D01*
X1252Y196D01*
X1254Y196D01*
X1254Y194D01*
X1256Y194D01*
X1256Y190D01*
X1258Y190D01*
X1258Y188D01*
X1260Y188D01*
X1260Y184D01*
X1262Y184D01*
X1262Y178D01*
X1264Y178D01*
X1264Y170D01*
X1266Y170D01*
X1266Y154D01*
X1710Y154D01*
X1710Y152D01*
X1756Y152D01*
X1756Y160D01*
X1758Y160D01*
X1758Y164D01*
X1760Y164D01*
X1760Y170D01*
X1762Y170D01*
X1762Y174D01*
X1764Y174D01*
X1764Y178D01*
X1766Y178D01*
X1766Y182D01*
X1768Y182D01*
X1768Y186D01*
X1770Y186D01*
X1770Y190D01*
X1772Y190D01*
X1772Y192D01*
X1774Y192D01*
X1774Y196D01*
X1776Y196D01*
X1776Y198D01*
X1778Y198D01*
X1778Y200D01*
X1780Y200D01*
X1780Y204D01*
X1782Y204D01*
X1782Y206D01*
X1784Y206D01*
X1784Y208D01*
X1786Y208D01*
X1786Y210D01*
X1788Y210D01*
X1788Y212D01*
X1790Y212D01*
X1790Y214D01*
X1792Y214D01*
X1792Y216D01*
X1794Y216D01*
X1794Y218D01*
X1796Y218D01*
X1796Y220D01*
X1798Y220D01*
X1798Y222D01*
X1800Y222D01*
X1800Y224D01*
X1802Y224D01*
X1802Y226D01*
X1806Y226D01*
X1806Y228D01*
X1808Y228D01*
X1808Y230D01*
X1810Y230D01*
X1810Y232D01*
X1814Y232D01*
X1814Y234D01*
X1818Y234D01*
X1818Y236D01*
X1820Y236D01*
X1820Y238D01*
X1824Y238D01*
X1824Y240D01*
X1828Y240D01*
X1828Y242D01*
X1832Y242D01*
X1832Y244D01*
X1836Y244D01*
X1836Y246D01*
X1842Y246D01*
X1842Y248D01*
X1848Y248D01*
X1848Y250D01*
X1856Y250D01*
X1856Y252D01*
X1870Y252D01*
X1870Y254D01*
X1208Y254D01*
G37*
D02*
G36*
X870Y210D02*
X870Y208D01*
X1126Y208D01*
X1126Y210D01*
X870Y210D01*
G37*
D02*
G36*
X870Y210D02*
X870Y208D01*
X1126Y208D01*
X1126Y210D01*
X870Y210D01*
G37*
D02*
G36*
X870Y208D02*
X870Y206D01*
X868Y206D01*
X868Y202D01*
X866Y202D01*
X866Y198D01*
X864Y198D01*
X864Y194D01*
X862Y194D01*
X862Y192D01*
X860Y192D01*
X860Y188D01*
X858Y188D01*
X858Y186D01*
X856Y186D01*
X856Y184D01*
X854Y184D01*
X854Y182D01*
X852Y182D01*
X852Y180D01*
X850Y180D01*
X850Y178D01*
X848Y178D01*
X848Y176D01*
X846Y176D01*
X846Y174D01*
X842Y174D01*
X842Y172D01*
X840Y172D01*
X840Y170D01*
X836Y170D01*
X836Y168D01*
X834Y168D01*
X834Y166D01*
X830Y166D01*
X830Y164D01*
X824Y164D01*
X824Y162D01*
X818Y162D01*
X818Y160D01*
X1126Y160D01*
X1126Y168D01*
X1128Y168D01*
X1128Y176D01*
X1130Y176D01*
X1130Y182D01*
X1132Y182D01*
X1132Y186D01*
X1134Y186D01*
X1134Y190D01*
X1132Y190D01*
X1132Y196D01*
X1130Y196D01*
X1130Y202D01*
X1128Y202D01*
X1128Y208D01*
X870Y208D01*
G37*
D02*
G36*
X704Y180D02*
X704Y174D01*
X702Y174D01*
X702Y170D01*
X700Y170D01*
X700Y168D01*
X698Y168D01*
X698Y164D01*
X696Y164D01*
X696Y162D01*
X694Y162D01*
X694Y160D01*
X776Y160D01*
X776Y162D01*
X770Y162D01*
X770Y164D01*
X766Y164D01*
X766Y166D01*
X762Y166D01*
X762Y168D01*
X758Y168D01*
X758Y170D01*
X756Y170D01*
X756Y172D01*
X752Y172D01*
X752Y174D01*
X750Y174D01*
X750Y176D01*
X748Y176D01*
X748Y178D01*
X746Y178D01*
X746Y180D01*
X704Y180D01*
G37*
D02*
G36*
X692Y160D02*
X692Y158D01*
X1126Y158D01*
X1126Y160D01*
X692Y160D01*
G37*
D02*
G36*
X692Y160D02*
X692Y158D01*
X1126Y158D01*
X1126Y160D01*
X692Y160D01*
G37*
D02*
G36*
X692Y158D02*
X692Y156D01*
X690Y156D01*
X690Y154D01*
X688Y154D01*
X688Y152D01*
X910Y152D01*
X910Y86D01*
X1180Y86D01*
X1180Y88D01*
X1174Y88D01*
X1174Y90D01*
X1168Y90D01*
X1168Y92D01*
X1164Y92D01*
X1164Y94D01*
X1160Y94D01*
X1160Y96D01*
X1158Y96D01*
X1158Y98D01*
X1156Y98D01*
X1156Y100D01*
X1152Y100D01*
X1152Y102D01*
X1150Y102D01*
X1150Y104D01*
X1148Y104D01*
X1148Y106D01*
X1146Y106D01*
X1146Y108D01*
X1144Y108D01*
X1144Y110D01*
X1142Y110D01*
X1142Y112D01*
X1140Y112D01*
X1140Y116D01*
X1138Y116D01*
X1138Y118D01*
X1136Y118D01*
X1136Y122D01*
X1134Y122D01*
X1134Y124D01*
X1132Y124D01*
X1132Y130D01*
X1130Y130D01*
X1130Y134D01*
X1128Y134D01*
X1128Y144D01*
X1126Y144D01*
X1126Y158D01*
X692Y158D01*
G37*
D02*
G36*
X1266Y154D02*
X1266Y140D01*
X1264Y140D01*
X1264Y134D01*
X1262Y134D01*
X1262Y128D01*
X1260Y128D01*
X1260Y124D01*
X1258Y124D01*
X1258Y120D01*
X1256Y120D01*
X1256Y118D01*
X1254Y118D01*
X1254Y114D01*
X1252Y114D01*
X1252Y112D01*
X1250Y112D01*
X1250Y110D01*
X1248Y110D01*
X1248Y108D01*
X1246Y108D01*
X1246Y106D01*
X1244Y106D01*
X1244Y104D01*
X1242Y104D01*
X1242Y102D01*
X1240Y102D01*
X1240Y100D01*
X1238Y100D01*
X1238Y98D01*
X1234Y98D01*
X1234Y96D01*
X1232Y96D01*
X1232Y94D01*
X1228Y94D01*
X1228Y92D01*
X1224Y92D01*
X1224Y90D01*
X1220Y90D01*
X1220Y88D01*
X1212Y88D01*
X1212Y86D01*
X1300Y86D01*
X1300Y96D01*
X1302Y96D01*
X1302Y104D01*
X1304Y104D01*
X1304Y108D01*
X1306Y108D01*
X1306Y112D01*
X1308Y112D01*
X1308Y116D01*
X1310Y116D01*
X1310Y120D01*
X1312Y120D01*
X1312Y122D01*
X1314Y122D01*
X1314Y124D01*
X1316Y124D01*
X1316Y128D01*
X1318Y128D01*
X1318Y130D01*
X1320Y130D01*
X1320Y132D01*
X1322Y132D01*
X1322Y134D01*
X1324Y134D01*
X1324Y136D01*
X1326Y136D01*
X1326Y138D01*
X1330Y138D01*
X1330Y140D01*
X1332Y140D01*
X1332Y142D01*
X1334Y142D01*
X1334Y144D01*
X1338Y144D01*
X1338Y146D01*
X1342Y146D01*
X1342Y148D01*
X1346Y148D01*
X1346Y150D01*
X1352Y150D01*
X1352Y152D01*
X1364Y152D01*
X1364Y154D01*
X1266Y154D01*
G37*
D02*
G36*
X1382Y154D02*
X1382Y152D01*
X1610Y152D01*
X1610Y150D01*
X1616Y150D01*
X1616Y148D01*
X1620Y148D01*
X1620Y146D01*
X1666Y146D01*
X1666Y148D01*
X1670Y148D01*
X1670Y150D01*
X1674Y150D01*
X1674Y152D01*
X1684Y152D01*
X1684Y154D01*
X1382Y154D01*
G37*
D02*
G36*
X1394Y152D02*
X1394Y150D01*
X1400Y150D01*
X1400Y148D01*
X1404Y148D01*
X1404Y146D01*
X1408Y146D01*
X1408Y144D01*
X1448Y144D01*
X1448Y146D01*
X1452Y146D01*
X1452Y148D01*
X1458Y148D01*
X1458Y150D01*
X1464Y150D01*
X1464Y152D01*
X1394Y152D01*
G37*
D02*
G36*
X1500Y152D02*
X1500Y150D01*
X1506Y150D01*
X1506Y148D01*
X1510Y148D01*
X1510Y146D01*
X1514Y146D01*
X1514Y144D01*
X1554Y144D01*
X1554Y146D01*
X1558Y146D01*
X1558Y148D01*
X1562Y148D01*
X1562Y150D01*
X1568Y150D01*
X1568Y152D01*
X1500Y152D01*
G37*
D02*
G36*
X910Y86D02*
X910Y84D01*
X1300Y84D01*
X1300Y86D01*
X910Y86D01*
G37*
D02*
G36*
X910Y86D02*
X910Y84D01*
X1300Y84D01*
X1300Y86D01*
X910Y86D01*
G37*
D02*
G36*
X910Y84D02*
X910Y14D01*
X1338Y14D01*
X1338Y16D01*
X1336Y16D01*
X1336Y18D01*
X1332Y18D01*
X1332Y20D01*
X1330Y20D01*
X1330Y22D01*
X1326Y22D01*
X1326Y24D01*
X1324Y24D01*
X1324Y26D01*
X1322Y26D01*
X1322Y28D01*
X1320Y28D01*
X1320Y30D01*
X1318Y30D01*
X1318Y32D01*
X1316Y32D01*
X1316Y36D01*
X1314Y36D01*
X1314Y38D01*
X1312Y38D01*
X1312Y40D01*
X1310Y40D01*
X1310Y44D01*
X1308Y44D01*
X1308Y48D01*
X1306Y48D01*
X1306Y52D01*
X1304Y52D01*
X1304Y56D01*
X1302Y56D01*
X1302Y64D01*
X1300Y64D01*
X1300Y84D01*
X910Y84D01*
G37*
D02*
G36*
X456Y28D02*
X456Y26D01*
X454Y26D01*
X454Y24D01*
X452Y24D01*
X452Y22D01*
X450Y22D01*
X450Y20D01*
X448Y20D01*
X448Y18D01*
X446Y18D01*
X446Y16D01*
X444Y16D01*
X444Y14D01*
X522Y14D01*
X522Y16D01*
X516Y16D01*
X516Y18D01*
X512Y18D01*
X512Y20D01*
X508Y20D01*
X508Y22D01*
X504Y22D01*
X504Y24D01*
X502Y24D01*
X502Y26D01*
X498Y26D01*
X498Y28D01*
X456Y28D01*
G37*
D02*
G36*
X1748Y28D02*
X1748Y26D01*
X1746Y26D01*
X1746Y24D01*
X1742Y24D01*
X1742Y22D01*
X1740Y22D01*
X1740Y20D01*
X1738Y20D01*
X1738Y18D01*
X1734Y18D01*
X1734Y16D01*
X1730Y16D01*
X1730Y14D01*
X1726Y14D01*
X1726Y12D01*
X1722Y12D01*
X1722Y10D01*
X1716Y10D01*
X1716Y8D01*
X1808Y8D01*
X1808Y10D01*
X1806Y10D01*
X1806Y12D01*
X1802Y12D01*
X1802Y14D01*
X1800Y14D01*
X1800Y16D01*
X1798Y16D01*
X1798Y18D01*
X1796Y18D01*
X1796Y20D01*
X1794Y20D01*
X1794Y22D01*
X1792Y22D01*
X1792Y24D01*
X1790Y24D01*
X1790Y26D01*
X1788Y26D01*
X1788Y28D01*
X1748Y28D01*
G37*
D02*
G36*
X570Y20D02*
X570Y18D01*
X566Y18D01*
X566Y16D01*
X560Y16D01*
X560Y14D01*
X622Y14D01*
X622Y16D01*
X616Y16D01*
X616Y18D01*
X612Y18D01*
X612Y20D01*
X570Y20D01*
G37*
D02*
G36*
X670Y20D02*
X670Y18D01*
X666Y18D01*
X666Y16D01*
X660Y16D01*
X660Y14D01*
X722Y14D01*
X722Y16D01*
X716Y16D01*
X716Y18D01*
X712Y18D01*
X712Y20D01*
X670Y20D01*
G37*
D02*
G36*
X1624Y16D02*
X1624Y14D01*
X1620Y14D01*
X1620Y12D01*
X1616Y12D01*
X1616Y10D01*
X1610Y10D01*
X1610Y8D01*
X1678Y8D01*
X1678Y10D01*
X1672Y10D01*
X1672Y12D01*
X1668Y12D01*
X1668Y14D01*
X1664Y14D01*
X1664Y16D01*
X1624Y16D01*
G37*
D02*
G36*
X442Y14D02*
X442Y12D01*
X1342Y12D01*
X1342Y14D01*
X442Y14D01*
G37*
D02*
G36*
X442Y14D02*
X442Y12D01*
X1342Y12D01*
X1342Y14D01*
X442Y14D01*
G37*
D02*
G36*
X442Y14D02*
X442Y12D01*
X1342Y12D01*
X1342Y14D01*
X442Y14D01*
G37*
D02*
G36*
X442Y14D02*
X442Y12D01*
X1342Y12D01*
X1342Y14D01*
X442Y14D01*
G37*
D02*
G36*
X1404Y14D02*
X1404Y12D01*
X1400Y12D01*
X1400Y10D01*
X1394Y10D01*
X1394Y8D01*
X1458Y8D01*
X1458Y10D01*
X1454Y10D01*
X1454Y12D01*
X1450Y12D01*
X1450Y14D01*
X1404Y14D01*
G37*
D02*
G36*
X1514Y14D02*
X1514Y12D01*
X1510Y12D01*
X1510Y10D01*
X1504Y10D01*
X1504Y8D01*
X1568Y8D01*
X1568Y10D01*
X1562Y10D01*
X1562Y12D01*
X1558Y12D01*
X1558Y14D01*
X1514Y14D01*
G37*
D02*
G36*
X438Y12D02*
X438Y10D01*
X436Y10D01*
X436Y8D01*
X1352Y8D01*
X1352Y10D01*
X1346Y10D01*
X1346Y12D01*
X438Y12D01*
G37*
D02*
G36*
X432Y8D02*
X432Y6D01*
X1466Y6D01*
X1466Y8D01*
X432Y8D01*
G37*
D02*
G36*
X432Y8D02*
X432Y6D01*
X1466Y6D01*
X1466Y8D01*
X432Y8D01*
G37*
D02*
G36*
X1496Y8D02*
X1496Y6D01*
X1810Y6D01*
X1810Y8D01*
X1496Y8D01*
G37*
D02*
G36*
X1496Y8D02*
X1496Y6D01*
X1810Y6D01*
X1810Y8D01*
X1496Y8D01*
G37*
D02*
G36*
X1496Y8D02*
X1496Y6D01*
X1810Y6D01*
X1810Y8D01*
X1496Y8D01*
G37*
D02*
G36*
X430Y6D02*
X430Y4D01*
X1814Y4D01*
X1814Y6D01*
X430Y6D01*
G37*
D02*
G36*
X430Y6D02*
X430Y4D01*
X1814Y4D01*
X1814Y6D01*
X430Y6D01*
G37*
D02*
G36*
X517Y471D02*
X597Y471D01*
X597Y445D01*
X517Y445D01*
X517Y471D01*
G37*
D02*
G36*
X256Y771D02*
X336Y771D01*
X336Y745D01*
X256Y745D01*
X256Y771D01*
G37*
D02*
G36*
X256Y721D02*
X336Y721D01*
X336Y695D01*
X256Y695D01*
X256Y721D01*
G37*
D02*
G36*
X256Y671D02*
X336Y671D01*
X336Y645D01*
X256Y645D01*
X256Y671D01*
G37*
D02*
G36*
X256Y621D02*
X336Y621D01*
X336Y595D01*
X256Y595D01*
X256Y621D01*
G37*
D02*
G36*
X256Y571D02*
X336Y571D01*
X336Y545D01*
X256Y545D01*
X256Y571D01*
G37*
D02*
G36*
X256Y521D02*
X336Y521D01*
X336Y495D01*
X256Y495D01*
X256Y521D01*
G37*
D02*
G36*
X256Y471D02*
X336Y471D01*
X336Y445D01*
X256Y445D01*
X256Y471D01*
G37*
D02*
G04 End of Copper1*
M02*