G04 MADE WITH FRITZING*
G04 WWW.FRITZING.ORG*
G04 DOUBLE SIDED*
G04 HOLES PLATED*
G04 CONTOUR ON CENTER OF CONTOUR VECTOR*
%ASAXBY*%
%FSLAX23Y23*%
%MOIN*%
%OFA0B0*%
%SFA1.0B1.0*%
%ADD10C,0.075000*%
%ADD11C,0.090000*%
%ADD12C,0.082000*%
%ADD13C,0.070000*%
%ADD14C,0.205354*%
%ADD15C,0.047244*%
%ADD16R,0.075000X0.075000*%
%ADD17R,0.082000X0.082000*%
%ADD18C,0.024000*%
%ADD19C,0.016000*%
%LNCOPPER0*%
G90*
G70*
G54D10*
X77Y966D03*
X432Y297D03*
X1573Y1000D03*
G54D11*
X798Y936D03*
X998Y886D03*
X798Y836D03*
X998Y786D03*
X798Y736D03*
X998Y686D03*
X798Y636D03*
X998Y586D03*
X798Y536D03*
X998Y486D03*
X798Y436D03*
X998Y386D03*
X798Y336D03*
X998Y286D03*
X798Y236D03*
G54D10*
X1852Y814D03*
X1852Y676D03*
X1852Y539D03*
X1852Y401D03*
G54D12*
X1697Y378D03*
X1697Y80D03*
X1589Y378D03*
X1589Y80D03*
X1482Y377D03*
X1482Y79D03*
X1373Y378D03*
X1373Y80D03*
X1686Y1132D03*
X1686Y834D03*
X1579Y1132D03*
X1579Y834D03*
X1473Y1131D03*
X1473Y833D03*
X1367Y1129D03*
X1367Y831D03*
G54D10*
X841Y83D03*
X741Y83D03*
X641Y83D03*
X541Y83D03*
X122Y1112D03*
X222Y1112D03*
X322Y1112D03*
X422Y1112D03*
X112Y175D03*
X112Y275D03*
X112Y375D03*
X112Y475D03*
X112Y575D03*
X112Y675D03*
G54D13*
X641Y202D03*
X541Y202D03*
G54D14*
X1889Y1071D03*
X1886Y119D03*
X360Y121D03*
G54D10*
X1375Y719D03*
X1478Y634D03*
X1591Y547D03*
X1699Y475D03*
X1236Y476D03*
X1291Y593D03*
X1196Y156D03*
X1111Y894D03*
X1209Y836D03*
X579Y828D03*
X547Y993D03*
G54D15*
X667Y591D03*
X209Y657D03*
G54D16*
X1852Y814D03*
G54D17*
X1697Y379D03*
X1589Y379D03*
X1482Y378D03*
X1373Y379D03*
X1686Y1133D03*
X1579Y1133D03*
X1473Y1132D03*
X1367Y1130D03*
G54D16*
X841Y83D03*
X122Y1112D03*
X112Y175D03*
G54D18*
X1373Y410D02*
X1371Y695D01*
D02*
X1370Y752D02*
X1368Y799D01*
D02*
X1473Y667D02*
X1473Y801D01*
D02*
X1481Y409D02*
X1474Y609D01*
D02*
X1580Y802D02*
X1586Y580D01*
D02*
X1589Y410D02*
X1587Y523D01*
D02*
X1696Y411D02*
X1695Y451D01*
D02*
X1694Y508D02*
X1687Y802D01*
D02*
X1196Y330D02*
X1225Y453D01*
D02*
X1038Y295D02*
X1196Y330D01*
D02*
X1305Y538D02*
X1295Y570D01*
D02*
X1305Y456D02*
X1305Y538D01*
D02*
X1291Y391D02*
X1305Y456D01*
D02*
X1140Y247D02*
X1234Y253D01*
D02*
X1234Y253D02*
X1291Y391D01*
D02*
X1036Y174D02*
X1140Y247D01*
D02*
X896Y174D02*
X1036Y174D01*
D02*
X891Y323D02*
X896Y174D01*
D02*
X838Y330D02*
X891Y323D01*
D02*
X1049Y992D02*
X1016Y923D01*
D02*
X1202Y987D02*
X1049Y992D01*
D02*
X1351Y895D02*
X1202Y987D01*
D02*
X1359Y862D02*
X1351Y895D01*
D02*
X1127Y103D02*
X1171Y141D01*
D02*
X870Y85D02*
X1127Y103D01*
D02*
X901Y587D02*
X903Y934D01*
D02*
X903Y934D02*
X839Y935D01*
D02*
X956Y587D02*
X901Y587D01*
D02*
X670Y83D02*
X712Y83D01*
D02*
X746Y159D02*
X775Y202D01*
D02*
X743Y111D02*
X746Y159D01*
D02*
X1342Y999D02*
X1194Y1076D01*
D02*
X1194Y1076D02*
X685Y1079D01*
D02*
X685Y1079D02*
X689Y879D01*
D02*
X689Y879D02*
X759Y851D01*
D02*
X1472Y997D02*
X1342Y999D01*
D02*
X1473Y865D02*
X1472Y997D01*
D02*
X1100Y574D02*
X1106Y870D01*
D02*
X1071Y530D02*
X1100Y574D01*
D02*
X1033Y507D02*
X1071Y530D01*
D02*
X1207Y634D02*
X1205Y811D01*
D02*
X1098Y410D02*
X1207Y634D01*
D02*
X1038Y395D02*
X1098Y410D01*
D02*
X539Y324D02*
X692Y322D01*
D02*
X694Y497D02*
X724Y532D01*
D02*
X692Y322D02*
X694Y497D01*
D02*
X724Y532D02*
X756Y534D01*
D02*
X541Y111D02*
X539Y324D01*
D02*
X541Y176D02*
X541Y111D01*
D02*
X217Y320D02*
X217Y176D01*
D02*
X217Y176D02*
X141Y175D01*
D02*
X433Y399D02*
X217Y320D01*
D02*
X608Y399D02*
X433Y399D01*
D02*
X603Y544D02*
X608Y399D01*
D02*
X643Y575D02*
X603Y544D01*
D02*
X641Y176D02*
X641Y111D01*
G54D19*
D02*
X322Y659D02*
X231Y658D01*
D02*
X322Y1089D02*
X322Y659D01*
G54D18*
D02*
X258Y974D02*
X256Y762D01*
D02*
X32Y372D02*
X83Y374D01*
D02*
X40Y759D02*
X32Y372D01*
D02*
X256Y762D02*
X40Y759D01*
D02*
X220Y1010D02*
X258Y974D01*
D02*
X221Y1084D02*
X220Y1010D01*
G36*
X1758Y1196D02*
X1758Y1170D01*
X1798Y1170D01*
X1798Y1172D01*
X1800Y1172D01*
X1800Y1174D01*
X1802Y1174D01*
X1802Y1176D01*
X1804Y1176D01*
X1804Y1178D01*
X1808Y1178D01*
X1808Y1180D01*
X1810Y1180D01*
X1810Y1182D01*
X1812Y1182D01*
X1812Y1184D01*
X1816Y1184D01*
X1816Y1186D01*
X1818Y1186D01*
X1818Y1188D01*
X1822Y1188D01*
X1822Y1190D01*
X1826Y1190D01*
X1826Y1192D01*
X1830Y1192D01*
X1830Y1194D01*
X1834Y1194D01*
X1834Y1196D01*
X1758Y1196D01*
G37*
D02*
G36*
X1944Y1196D02*
X1944Y1194D01*
X1948Y1194D01*
X1948Y1192D01*
X1952Y1192D01*
X1952Y1190D01*
X1956Y1190D01*
X1956Y1188D01*
X1958Y1188D01*
X1958Y1186D01*
X1962Y1186D01*
X1962Y1184D01*
X1964Y1184D01*
X1964Y1182D01*
X2006Y1182D01*
X2006Y1196D01*
X1944Y1196D01*
G37*
D02*
G36*
X4Y1196D02*
X4Y1182D01*
X438Y1182D01*
X438Y1180D01*
X444Y1180D01*
X444Y1178D01*
X450Y1178D01*
X450Y1176D01*
X454Y1176D01*
X454Y1174D01*
X458Y1174D01*
X458Y1172D01*
X460Y1172D01*
X460Y1170D01*
X462Y1170D01*
X462Y1168D01*
X466Y1168D01*
X466Y1166D01*
X468Y1166D01*
X468Y1164D01*
X470Y1164D01*
X470Y1162D01*
X472Y1162D01*
X472Y1160D01*
X474Y1160D01*
X474Y1158D01*
X476Y1158D01*
X476Y1156D01*
X478Y1156D01*
X478Y1152D01*
X480Y1152D01*
X480Y1150D01*
X482Y1150D01*
X482Y1146D01*
X484Y1146D01*
X484Y1142D01*
X486Y1142D01*
X486Y1138D01*
X488Y1138D01*
X488Y1134D01*
X490Y1134D01*
X490Y1124D01*
X492Y1124D01*
X492Y1122D01*
X966Y1122D01*
X966Y1120D01*
X1208Y1120D01*
X1208Y1118D01*
X1214Y1118D01*
X1214Y1116D01*
X1218Y1116D01*
X1218Y1114D01*
X1222Y1114D01*
X1222Y1112D01*
X1226Y1112D01*
X1226Y1110D01*
X1230Y1110D01*
X1230Y1108D01*
X1234Y1108D01*
X1234Y1106D01*
X1238Y1106D01*
X1238Y1104D01*
X1242Y1104D01*
X1242Y1102D01*
X1246Y1102D01*
X1246Y1100D01*
X1250Y1100D01*
X1250Y1098D01*
X1254Y1098D01*
X1254Y1096D01*
X1294Y1096D01*
X1294Y1196D01*
X4Y1196D01*
G37*
D02*
G36*
X4Y1182D02*
X4Y1042D01*
X54Y1042D01*
X54Y1044D01*
X52Y1044D01*
X52Y1182D01*
X4Y1182D01*
G37*
D02*
G36*
X238Y1182D02*
X238Y1180D01*
X244Y1180D01*
X244Y1178D01*
X250Y1178D01*
X250Y1176D01*
X294Y1176D01*
X294Y1178D01*
X298Y1178D01*
X298Y1180D01*
X306Y1180D01*
X306Y1182D01*
X238Y1182D01*
G37*
D02*
G36*
X338Y1182D02*
X338Y1180D01*
X344Y1180D01*
X344Y1178D01*
X350Y1178D01*
X350Y1176D01*
X394Y1176D01*
X394Y1178D01*
X398Y1178D01*
X398Y1180D01*
X406Y1180D01*
X406Y1182D01*
X338Y1182D01*
G37*
D02*
G36*
X492Y1122D02*
X492Y1102D01*
X490Y1102D01*
X490Y1092D01*
X488Y1092D01*
X488Y1086D01*
X486Y1086D01*
X486Y1082D01*
X484Y1082D01*
X484Y1078D01*
X482Y1078D01*
X482Y1076D01*
X480Y1076D01*
X480Y1072D01*
X478Y1072D01*
X478Y1070D01*
X476Y1070D01*
X476Y1068D01*
X474Y1068D01*
X474Y1064D01*
X472Y1064D01*
X472Y1062D01*
X564Y1062D01*
X564Y1060D01*
X570Y1060D01*
X570Y1058D01*
X576Y1058D01*
X576Y1056D01*
X578Y1056D01*
X578Y1054D01*
X582Y1054D01*
X582Y1052D01*
X586Y1052D01*
X586Y1050D01*
X588Y1050D01*
X588Y1048D01*
X590Y1048D01*
X590Y1046D01*
X592Y1046D01*
X592Y1044D01*
X596Y1044D01*
X596Y1042D01*
X598Y1042D01*
X598Y1038D01*
X600Y1038D01*
X600Y1036D01*
X602Y1036D01*
X602Y1034D01*
X642Y1034D01*
X642Y1056D01*
X640Y1056D01*
X640Y1090D01*
X642Y1090D01*
X642Y1098D01*
X644Y1098D01*
X644Y1102D01*
X646Y1102D01*
X646Y1106D01*
X648Y1106D01*
X648Y1108D01*
X650Y1108D01*
X650Y1112D01*
X652Y1112D01*
X652Y1114D01*
X656Y1114D01*
X656Y1116D01*
X658Y1116D01*
X658Y1118D01*
X662Y1118D01*
X662Y1120D01*
X666Y1120D01*
X666Y1122D01*
X492Y1122D01*
G37*
D02*
G36*
X468Y1062D02*
X468Y1060D01*
X466Y1060D01*
X466Y1058D01*
X464Y1058D01*
X464Y1056D01*
X462Y1056D01*
X462Y1054D01*
X458Y1054D01*
X458Y1052D01*
X456Y1052D01*
X456Y1050D01*
X452Y1050D01*
X452Y1048D01*
X448Y1048D01*
X448Y1046D01*
X442Y1046D01*
X442Y1044D01*
X432Y1044D01*
X432Y1042D01*
X498Y1042D01*
X498Y1044D01*
X500Y1044D01*
X500Y1046D01*
X502Y1046D01*
X502Y1048D01*
X506Y1048D01*
X506Y1050D01*
X508Y1050D01*
X508Y1052D01*
X510Y1052D01*
X510Y1054D01*
X514Y1054D01*
X514Y1056D01*
X518Y1056D01*
X518Y1058D01*
X522Y1058D01*
X522Y1060D01*
X530Y1060D01*
X530Y1062D01*
X468Y1062D01*
G37*
D02*
G36*
X242Y1046D02*
X242Y1044D01*
X232Y1044D01*
X232Y1042D01*
X282Y1042D01*
X282Y1046D01*
X242Y1046D01*
G37*
D02*
G36*
X362Y1046D02*
X362Y1042D01*
X412Y1042D01*
X412Y1044D01*
X402Y1044D01*
X402Y1046D01*
X362Y1046D01*
G37*
D02*
G36*
X4Y1042D02*
X4Y1040D01*
X282Y1040D01*
X282Y1042D01*
X4Y1042D01*
G37*
D02*
G36*
X4Y1042D02*
X4Y1040D01*
X282Y1040D01*
X282Y1042D01*
X4Y1042D01*
G37*
D02*
G36*
X362Y1042D02*
X362Y1040D01*
X496Y1040D01*
X496Y1042D01*
X362Y1042D01*
G37*
D02*
G36*
X362Y1042D02*
X362Y1040D01*
X496Y1040D01*
X496Y1042D01*
X362Y1042D01*
G37*
D02*
G36*
X4Y1040D02*
X4Y744D01*
X130Y744D01*
X130Y742D01*
X136Y742D01*
X136Y740D01*
X140Y740D01*
X140Y738D01*
X144Y738D01*
X144Y736D01*
X148Y736D01*
X148Y734D01*
X150Y734D01*
X150Y732D01*
X154Y732D01*
X154Y730D01*
X156Y730D01*
X156Y728D01*
X158Y728D01*
X158Y726D01*
X160Y726D01*
X160Y724D01*
X162Y724D01*
X162Y722D01*
X164Y722D01*
X164Y720D01*
X166Y720D01*
X166Y718D01*
X168Y718D01*
X168Y716D01*
X170Y716D01*
X170Y712D01*
X226Y712D01*
X226Y710D01*
X232Y710D01*
X232Y708D01*
X236Y708D01*
X236Y706D01*
X238Y706D01*
X238Y704D01*
X242Y704D01*
X242Y702D01*
X282Y702D01*
X282Y1040D01*
X4Y1040D01*
G37*
D02*
G36*
X362Y1040D02*
X362Y924D01*
X528Y924D01*
X528Y926D01*
X522Y926D01*
X522Y928D01*
X516Y928D01*
X516Y930D01*
X514Y930D01*
X514Y932D01*
X510Y932D01*
X510Y934D01*
X506Y934D01*
X506Y936D01*
X504Y936D01*
X504Y938D01*
X502Y938D01*
X502Y940D01*
X500Y940D01*
X500Y942D01*
X498Y942D01*
X498Y944D01*
X496Y944D01*
X496Y946D01*
X494Y946D01*
X494Y948D01*
X492Y948D01*
X492Y950D01*
X490Y950D01*
X490Y952D01*
X488Y952D01*
X488Y956D01*
X486Y956D01*
X486Y960D01*
X484Y960D01*
X484Y962D01*
X482Y962D01*
X482Y968D01*
X480Y968D01*
X480Y972D01*
X478Y972D01*
X478Y1012D01*
X480Y1012D01*
X480Y1018D01*
X482Y1018D01*
X482Y1022D01*
X484Y1022D01*
X484Y1026D01*
X486Y1026D01*
X486Y1030D01*
X488Y1030D01*
X488Y1032D01*
X490Y1032D01*
X490Y1036D01*
X492Y1036D01*
X492Y1038D01*
X494Y1038D01*
X494Y1040D01*
X362Y1040D01*
G37*
D02*
G36*
X604Y954D02*
X604Y952D01*
X602Y952D01*
X602Y948D01*
X600Y948D01*
X600Y946D01*
X598Y946D01*
X598Y944D01*
X596Y944D01*
X596Y942D01*
X594Y942D01*
X594Y940D01*
X592Y940D01*
X592Y938D01*
X588Y938D01*
X588Y936D01*
X586Y936D01*
X586Y934D01*
X584Y934D01*
X584Y932D01*
X580Y932D01*
X580Y930D01*
X576Y930D01*
X576Y928D01*
X572Y928D01*
X572Y926D01*
X566Y926D01*
X566Y924D01*
X644Y924D01*
X644Y954D01*
X604Y954D01*
G37*
D02*
G36*
X362Y924D02*
X362Y922D01*
X644Y922D01*
X644Y924D01*
X362Y924D01*
G37*
D02*
G36*
X362Y924D02*
X362Y922D01*
X644Y922D01*
X644Y924D01*
X362Y924D01*
G37*
D02*
G36*
X362Y922D02*
X362Y898D01*
X592Y898D01*
X592Y896D01*
X600Y896D01*
X600Y894D01*
X644Y894D01*
X644Y922D01*
X362Y922D01*
G37*
D02*
G36*
X362Y898D02*
X362Y758D01*
X564Y758D01*
X564Y760D01*
X558Y760D01*
X558Y762D01*
X552Y762D01*
X552Y764D01*
X548Y764D01*
X548Y766D01*
X544Y766D01*
X544Y768D01*
X542Y768D01*
X542Y770D01*
X538Y770D01*
X538Y772D01*
X536Y772D01*
X536Y774D01*
X534Y774D01*
X534Y776D01*
X532Y776D01*
X532Y778D01*
X530Y778D01*
X530Y780D01*
X528Y780D01*
X528Y782D01*
X526Y782D01*
X526Y784D01*
X524Y784D01*
X524Y786D01*
X522Y786D01*
X522Y788D01*
X520Y788D01*
X520Y792D01*
X518Y792D01*
X518Y796D01*
X516Y796D01*
X516Y800D01*
X514Y800D01*
X514Y804D01*
X512Y804D01*
X512Y810D01*
X510Y810D01*
X510Y846D01*
X512Y846D01*
X512Y852D01*
X514Y852D01*
X514Y856D01*
X516Y856D01*
X516Y860D01*
X518Y860D01*
X518Y864D01*
X520Y864D01*
X520Y866D01*
X522Y866D01*
X522Y870D01*
X524Y870D01*
X524Y872D01*
X526Y872D01*
X526Y874D01*
X528Y874D01*
X528Y876D01*
X530Y876D01*
X530Y878D01*
X532Y878D01*
X532Y880D01*
X534Y880D01*
X534Y882D01*
X536Y882D01*
X536Y884D01*
X538Y884D01*
X538Y886D01*
X542Y886D01*
X542Y888D01*
X544Y888D01*
X544Y890D01*
X548Y890D01*
X548Y892D01*
X552Y892D01*
X552Y894D01*
X558Y894D01*
X558Y896D01*
X566Y896D01*
X566Y898D01*
X362Y898D01*
G37*
D02*
G36*
X648Y830D02*
X648Y810D01*
X646Y810D01*
X646Y802D01*
X644Y802D01*
X644Y798D01*
X642Y798D01*
X642Y794D01*
X640Y794D01*
X640Y792D01*
X638Y792D01*
X638Y788D01*
X636Y788D01*
X636Y786D01*
X634Y786D01*
X634Y784D01*
X632Y784D01*
X632Y782D01*
X630Y782D01*
X630Y778D01*
X628Y778D01*
X628Y776D01*
X624Y776D01*
X624Y774D01*
X622Y774D01*
X622Y772D01*
X620Y772D01*
X620Y770D01*
X618Y770D01*
X618Y768D01*
X614Y768D01*
X614Y766D01*
X610Y766D01*
X610Y764D01*
X606Y764D01*
X606Y762D01*
X602Y762D01*
X602Y760D01*
X594Y760D01*
X594Y758D01*
X722Y758D01*
X722Y760D01*
X724Y760D01*
X724Y764D01*
X726Y764D01*
X726Y770D01*
X728Y770D01*
X728Y774D01*
X730Y774D01*
X730Y776D01*
X732Y776D01*
X732Y780D01*
X734Y780D01*
X734Y782D01*
X736Y782D01*
X736Y784D01*
X738Y784D01*
X738Y788D01*
X736Y788D01*
X736Y790D01*
X734Y790D01*
X734Y792D01*
X732Y792D01*
X732Y796D01*
X730Y796D01*
X730Y800D01*
X728Y800D01*
X728Y802D01*
X726Y802D01*
X726Y808D01*
X724Y808D01*
X724Y814D01*
X722Y814D01*
X722Y816D01*
X720Y816D01*
X720Y818D01*
X714Y818D01*
X714Y820D01*
X710Y820D01*
X710Y822D01*
X704Y822D01*
X704Y824D01*
X700Y824D01*
X700Y826D01*
X694Y826D01*
X694Y828D01*
X690Y828D01*
X690Y830D01*
X648Y830D01*
G37*
D02*
G36*
X362Y758D02*
X362Y756D01*
X722Y756D01*
X722Y758D01*
X362Y758D01*
G37*
D02*
G36*
X362Y758D02*
X362Y756D01*
X722Y756D01*
X722Y758D01*
X362Y758D01*
G37*
D02*
G36*
X362Y756D02*
X362Y644D01*
X360Y644D01*
X360Y638D01*
X358Y638D01*
X358Y634D01*
X356Y634D01*
X356Y632D01*
X354Y632D01*
X354Y630D01*
X352Y630D01*
X352Y628D01*
X350Y628D01*
X350Y626D01*
X348Y626D01*
X348Y624D01*
X344Y624D01*
X344Y622D01*
X340Y622D01*
X340Y620D01*
X308Y620D01*
X308Y618D01*
X248Y618D01*
X248Y616D01*
X246Y616D01*
X246Y614D01*
X244Y614D01*
X244Y612D01*
X242Y612D01*
X242Y610D01*
X240Y610D01*
X240Y608D01*
X236Y608D01*
X236Y606D01*
X232Y606D01*
X232Y604D01*
X226Y604D01*
X226Y602D01*
X178Y602D01*
X178Y596D01*
X180Y596D01*
X180Y588D01*
X182Y588D01*
X182Y562D01*
X180Y562D01*
X180Y552D01*
X178Y552D01*
X178Y548D01*
X176Y548D01*
X176Y544D01*
X174Y544D01*
X174Y540D01*
X172Y540D01*
X172Y536D01*
X170Y536D01*
X170Y534D01*
X168Y534D01*
X168Y532D01*
X166Y532D01*
X166Y530D01*
X164Y530D01*
X164Y526D01*
X162Y526D01*
X162Y522D01*
X164Y522D01*
X164Y520D01*
X166Y520D01*
X166Y518D01*
X168Y518D01*
X168Y516D01*
X170Y516D01*
X170Y512D01*
X172Y512D01*
X172Y510D01*
X174Y510D01*
X174Y506D01*
X176Y506D01*
X176Y502D01*
X178Y502D01*
X178Y496D01*
X180Y496D01*
X180Y488D01*
X182Y488D01*
X182Y462D01*
X180Y462D01*
X180Y452D01*
X178Y452D01*
X178Y448D01*
X176Y448D01*
X176Y444D01*
X174Y444D01*
X174Y440D01*
X172Y440D01*
X172Y436D01*
X170Y436D01*
X170Y434D01*
X168Y434D01*
X168Y432D01*
X166Y432D01*
X166Y430D01*
X164Y430D01*
X164Y426D01*
X162Y426D01*
X162Y422D01*
X164Y422D01*
X164Y420D01*
X166Y420D01*
X166Y418D01*
X168Y418D01*
X168Y416D01*
X170Y416D01*
X170Y412D01*
X172Y412D01*
X172Y410D01*
X174Y410D01*
X174Y406D01*
X176Y406D01*
X176Y402D01*
X178Y402D01*
X178Y396D01*
X180Y396D01*
X180Y388D01*
X182Y388D01*
X182Y370D01*
X224Y370D01*
X224Y372D01*
X230Y372D01*
X230Y374D01*
X234Y374D01*
X234Y376D01*
X240Y376D01*
X240Y378D01*
X246Y378D01*
X246Y380D01*
X252Y380D01*
X252Y382D01*
X256Y382D01*
X256Y384D01*
X262Y384D01*
X262Y386D01*
X268Y386D01*
X268Y388D01*
X274Y388D01*
X274Y390D01*
X278Y390D01*
X278Y392D01*
X284Y392D01*
X284Y394D01*
X290Y394D01*
X290Y396D01*
X294Y396D01*
X294Y398D01*
X300Y398D01*
X300Y400D01*
X306Y400D01*
X306Y402D01*
X312Y402D01*
X312Y404D01*
X316Y404D01*
X316Y406D01*
X322Y406D01*
X322Y408D01*
X328Y408D01*
X328Y410D01*
X332Y410D01*
X332Y412D01*
X338Y412D01*
X338Y414D01*
X344Y414D01*
X344Y416D01*
X350Y416D01*
X350Y418D01*
X354Y418D01*
X354Y420D01*
X360Y420D01*
X360Y422D01*
X366Y422D01*
X366Y424D01*
X372Y424D01*
X372Y426D01*
X376Y426D01*
X376Y428D01*
X382Y428D01*
X382Y430D01*
X388Y430D01*
X388Y432D01*
X392Y432D01*
X392Y434D01*
X398Y434D01*
X398Y436D01*
X404Y436D01*
X404Y438D01*
X410Y438D01*
X410Y440D01*
X414Y440D01*
X414Y442D01*
X562Y442D01*
X562Y476D01*
X560Y476D01*
X560Y534D01*
X558Y534D01*
X558Y540D01*
X560Y540D01*
X560Y542D01*
X558Y542D01*
X558Y546D01*
X560Y546D01*
X560Y548D01*
X558Y548D01*
X558Y554D01*
X560Y554D01*
X560Y564D01*
X562Y564D01*
X562Y568D01*
X564Y568D01*
X564Y572D01*
X566Y572D01*
X566Y574D01*
X568Y574D01*
X568Y576D01*
X570Y576D01*
X570Y578D01*
X572Y578D01*
X572Y580D01*
X574Y580D01*
X574Y582D01*
X576Y582D01*
X576Y584D01*
X580Y584D01*
X580Y586D01*
X582Y586D01*
X582Y588D01*
X584Y588D01*
X584Y590D01*
X586Y590D01*
X586Y592D01*
X590Y592D01*
X590Y594D01*
X592Y594D01*
X592Y596D01*
X594Y596D01*
X594Y598D01*
X598Y598D01*
X598Y600D01*
X600Y600D01*
X600Y602D01*
X602Y602D01*
X602Y604D01*
X606Y604D01*
X606Y606D01*
X608Y606D01*
X608Y608D01*
X610Y608D01*
X610Y610D01*
X614Y610D01*
X614Y612D01*
X616Y612D01*
X616Y616D01*
X618Y616D01*
X618Y620D01*
X620Y620D01*
X620Y624D01*
X622Y624D01*
X622Y626D01*
X624Y626D01*
X624Y628D01*
X626Y628D01*
X626Y630D01*
X628Y630D01*
X628Y632D01*
X630Y632D01*
X630Y634D01*
X632Y634D01*
X632Y636D01*
X634Y636D01*
X634Y638D01*
X638Y638D01*
X638Y640D01*
X640Y640D01*
X640Y642D01*
X644Y642D01*
X644Y644D01*
X650Y644D01*
X650Y646D01*
X720Y646D01*
X720Y650D01*
X722Y650D01*
X722Y660D01*
X724Y660D01*
X724Y664D01*
X726Y664D01*
X726Y670D01*
X728Y670D01*
X728Y674D01*
X730Y674D01*
X730Y676D01*
X732Y676D01*
X732Y680D01*
X734Y680D01*
X734Y682D01*
X736Y682D01*
X736Y684D01*
X738Y684D01*
X738Y688D01*
X736Y688D01*
X736Y690D01*
X734Y690D01*
X734Y692D01*
X732Y692D01*
X732Y696D01*
X730Y696D01*
X730Y700D01*
X728Y700D01*
X728Y702D01*
X726Y702D01*
X726Y708D01*
X724Y708D01*
X724Y714D01*
X722Y714D01*
X722Y722D01*
X720Y722D01*
X720Y750D01*
X722Y750D01*
X722Y756D01*
X362Y756D01*
G37*
D02*
G36*
X4Y744D02*
X4Y688D01*
X44Y688D01*
X44Y696D01*
X46Y696D01*
X46Y702D01*
X48Y702D01*
X48Y706D01*
X50Y706D01*
X50Y710D01*
X52Y710D01*
X52Y712D01*
X54Y712D01*
X54Y716D01*
X56Y716D01*
X56Y718D01*
X58Y718D01*
X58Y720D01*
X60Y720D01*
X60Y722D01*
X62Y722D01*
X62Y724D01*
X64Y724D01*
X64Y726D01*
X66Y726D01*
X66Y728D01*
X68Y728D01*
X68Y730D01*
X70Y730D01*
X70Y732D01*
X74Y732D01*
X74Y734D01*
X76Y734D01*
X76Y736D01*
X80Y736D01*
X80Y738D01*
X84Y738D01*
X84Y740D01*
X88Y740D01*
X88Y742D01*
X94Y742D01*
X94Y744D01*
X4Y744D01*
G37*
D02*
G36*
X730Y1034D02*
X730Y1014D01*
X808Y1014D01*
X808Y1012D01*
X820Y1012D01*
X820Y1010D01*
X826Y1010D01*
X826Y1008D01*
X830Y1008D01*
X830Y1006D01*
X834Y1006D01*
X834Y1004D01*
X838Y1004D01*
X838Y1002D01*
X840Y1002D01*
X840Y1000D01*
X842Y1000D01*
X842Y998D01*
X846Y998D01*
X846Y996D01*
X848Y996D01*
X848Y994D01*
X850Y994D01*
X850Y992D01*
X852Y992D01*
X852Y990D01*
X854Y990D01*
X854Y988D01*
X856Y988D01*
X856Y986D01*
X858Y986D01*
X858Y984D01*
X860Y984D01*
X860Y980D01*
X862Y980D01*
X862Y978D01*
X864Y978D01*
X864Y974D01*
X866Y974D01*
X866Y972D01*
X868Y972D01*
X868Y968D01*
X870Y968D01*
X870Y962D01*
X872Y962D01*
X872Y956D01*
X874Y956D01*
X874Y916D01*
X872Y916D01*
X872Y910D01*
X870Y910D01*
X870Y906D01*
X868Y906D01*
X868Y902D01*
X866Y902D01*
X866Y898D01*
X864Y898D01*
X864Y894D01*
X862Y894D01*
X862Y892D01*
X860Y892D01*
X860Y888D01*
X858Y888D01*
X858Y884D01*
X860Y884D01*
X860Y880D01*
X862Y880D01*
X862Y878D01*
X864Y878D01*
X864Y874D01*
X866Y874D01*
X866Y872D01*
X868Y872D01*
X868Y868D01*
X870Y868D01*
X870Y862D01*
X872Y862D01*
X872Y856D01*
X874Y856D01*
X874Y816D01*
X872Y816D01*
X872Y810D01*
X870Y810D01*
X870Y806D01*
X868Y806D01*
X868Y802D01*
X866Y802D01*
X866Y798D01*
X864Y798D01*
X864Y794D01*
X862Y794D01*
X862Y792D01*
X860Y792D01*
X860Y788D01*
X858Y788D01*
X858Y784D01*
X860Y784D01*
X860Y780D01*
X862Y780D01*
X862Y778D01*
X864Y778D01*
X864Y774D01*
X866Y774D01*
X866Y772D01*
X868Y772D01*
X868Y768D01*
X870Y768D01*
X870Y762D01*
X872Y762D01*
X872Y756D01*
X874Y756D01*
X874Y716D01*
X872Y716D01*
X872Y710D01*
X870Y710D01*
X870Y706D01*
X868Y706D01*
X868Y702D01*
X866Y702D01*
X866Y698D01*
X864Y698D01*
X864Y694D01*
X862Y694D01*
X862Y692D01*
X860Y692D01*
X860Y688D01*
X858Y688D01*
X858Y684D01*
X860Y684D01*
X860Y680D01*
X862Y680D01*
X862Y678D01*
X864Y678D01*
X864Y674D01*
X866Y674D01*
X866Y672D01*
X868Y672D01*
X868Y668D01*
X870Y668D01*
X870Y662D01*
X872Y662D01*
X872Y656D01*
X874Y656D01*
X874Y616D01*
X872Y616D01*
X872Y610D01*
X870Y610D01*
X870Y606D01*
X868Y606D01*
X868Y602D01*
X866Y602D01*
X866Y598D01*
X864Y598D01*
X864Y594D01*
X862Y594D01*
X862Y592D01*
X860Y592D01*
X860Y588D01*
X858Y588D01*
X858Y584D01*
X860Y584D01*
X860Y580D01*
X862Y580D01*
X862Y578D01*
X864Y578D01*
X864Y574D01*
X866Y574D01*
X866Y572D01*
X868Y572D01*
X868Y568D01*
X870Y568D01*
X870Y562D01*
X872Y562D01*
X872Y556D01*
X874Y556D01*
X874Y516D01*
X872Y516D01*
X872Y510D01*
X870Y510D01*
X870Y506D01*
X868Y506D01*
X868Y502D01*
X866Y502D01*
X866Y498D01*
X864Y498D01*
X864Y494D01*
X862Y494D01*
X862Y492D01*
X860Y492D01*
X860Y488D01*
X858Y488D01*
X858Y484D01*
X860Y484D01*
X860Y480D01*
X862Y480D01*
X862Y478D01*
X864Y478D01*
X864Y474D01*
X866Y474D01*
X866Y472D01*
X868Y472D01*
X868Y468D01*
X870Y468D01*
X870Y462D01*
X872Y462D01*
X872Y456D01*
X874Y456D01*
X874Y416D01*
X872Y416D01*
X872Y410D01*
X870Y410D01*
X870Y406D01*
X868Y406D01*
X868Y402D01*
X866Y402D01*
X866Y398D01*
X864Y398D01*
X864Y394D01*
X862Y394D01*
X862Y392D01*
X860Y392D01*
X860Y388D01*
X858Y388D01*
X858Y384D01*
X860Y384D01*
X860Y380D01*
X862Y380D01*
X862Y378D01*
X864Y378D01*
X864Y374D01*
X866Y374D01*
X866Y372D01*
X872Y372D01*
X872Y370D01*
X922Y370D01*
X922Y372D01*
X920Y372D01*
X920Y400D01*
X922Y400D01*
X922Y410D01*
X924Y410D01*
X924Y414D01*
X926Y414D01*
X926Y420D01*
X928Y420D01*
X928Y424D01*
X930Y424D01*
X930Y426D01*
X932Y426D01*
X932Y430D01*
X934Y430D01*
X934Y432D01*
X936Y432D01*
X936Y434D01*
X938Y434D01*
X938Y438D01*
X936Y438D01*
X936Y440D01*
X934Y440D01*
X934Y442D01*
X932Y442D01*
X932Y446D01*
X930Y446D01*
X930Y450D01*
X928Y450D01*
X928Y452D01*
X926Y452D01*
X926Y458D01*
X924Y458D01*
X924Y464D01*
X922Y464D01*
X922Y472D01*
X920Y472D01*
X920Y500D01*
X922Y500D01*
X922Y510D01*
X924Y510D01*
X924Y514D01*
X926Y514D01*
X926Y520D01*
X928Y520D01*
X928Y524D01*
X930Y524D01*
X930Y526D01*
X932Y526D01*
X932Y530D01*
X934Y530D01*
X934Y532D01*
X936Y532D01*
X936Y534D01*
X938Y534D01*
X938Y538D01*
X936Y538D01*
X936Y540D01*
X934Y540D01*
X934Y542D01*
X932Y542D01*
X932Y546D01*
X930Y546D01*
X930Y550D01*
X928Y550D01*
X928Y552D01*
X926Y552D01*
X926Y558D01*
X924Y558D01*
X924Y564D01*
X922Y564D01*
X922Y572D01*
X920Y572D01*
X920Y600D01*
X922Y600D01*
X922Y610D01*
X924Y610D01*
X924Y614D01*
X926Y614D01*
X926Y620D01*
X928Y620D01*
X928Y624D01*
X930Y624D01*
X930Y626D01*
X932Y626D01*
X932Y630D01*
X934Y630D01*
X934Y632D01*
X936Y632D01*
X936Y634D01*
X938Y634D01*
X938Y638D01*
X936Y638D01*
X936Y640D01*
X934Y640D01*
X934Y642D01*
X932Y642D01*
X932Y646D01*
X930Y646D01*
X930Y650D01*
X928Y650D01*
X928Y652D01*
X926Y652D01*
X926Y658D01*
X924Y658D01*
X924Y664D01*
X922Y664D01*
X922Y672D01*
X920Y672D01*
X920Y700D01*
X922Y700D01*
X922Y710D01*
X924Y710D01*
X924Y714D01*
X926Y714D01*
X926Y720D01*
X928Y720D01*
X928Y724D01*
X930Y724D01*
X930Y726D01*
X932Y726D01*
X932Y730D01*
X934Y730D01*
X934Y732D01*
X936Y732D01*
X936Y734D01*
X938Y734D01*
X938Y738D01*
X936Y738D01*
X936Y740D01*
X934Y740D01*
X934Y742D01*
X932Y742D01*
X932Y746D01*
X930Y746D01*
X930Y750D01*
X928Y750D01*
X928Y752D01*
X926Y752D01*
X926Y758D01*
X924Y758D01*
X924Y764D01*
X922Y764D01*
X922Y772D01*
X920Y772D01*
X920Y800D01*
X922Y800D01*
X922Y810D01*
X924Y810D01*
X924Y814D01*
X926Y814D01*
X926Y820D01*
X928Y820D01*
X928Y824D01*
X930Y824D01*
X930Y826D01*
X932Y826D01*
X932Y830D01*
X934Y830D01*
X934Y832D01*
X936Y832D01*
X936Y834D01*
X938Y834D01*
X938Y838D01*
X936Y838D01*
X936Y840D01*
X934Y840D01*
X934Y842D01*
X932Y842D01*
X932Y846D01*
X930Y846D01*
X930Y850D01*
X928Y850D01*
X928Y852D01*
X926Y852D01*
X926Y858D01*
X924Y858D01*
X924Y864D01*
X922Y864D01*
X922Y872D01*
X920Y872D01*
X920Y900D01*
X922Y900D01*
X922Y910D01*
X924Y910D01*
X924Y914D01*
X926Y914D01*
X926Y920D01*
X928Y920D01*
X928Y924D01*
X930Y924D01*
X930Y926D01*
X932Y926D01*
X932Y930D01*
X934Y930D01*
X934Y932D01*
X936Y932D01*
X936Y934D01*
X938Y934D01*
X938Y936D01*
X940Y936D01*
X940Y940D01*
X942Y940D01*
X942Y942D01*
X944Y942D01*
X944Y944D01*
X948Y944D01*
X948Y946D01*
X950Y946D01*
X950Y948D01*
X952Y948D01*
X952Y950D01*
X954Y950D01*
X954Y952D01*
X958Y952D01*
X958Y954D01*
X962Y954D01*
X962Y956D01*
X966Y956D01*
X966Y958D01*
X970Y958D01*
X970Y960D01*
X976Y960D01*
X976Y962D01*
X984Y962D01*
X984Y966D01*
X986Y966D01*
X986Y970D01*
X988Y970D01*
X988Y974D01*
X990Y974D01*
X990Y978D01*
X992Y978D01*
X992Y982D01*
X994Y982D01*
X994Y986D01*
X996Y986D01*
X996Y990D01*
X998Y990D01*
X998Y994D01*
X1000Y994D01*
X1000Y1000D01*
X1002Y1000D01*
X1002Y1004D01*
X1004Y1004D01*
X1004Y1008D01*
X1006Y1008D01*
X1006Y1012D01*
X1008Y1012D01*
X1008Y1016D01*
X1010Y1016D01*
X1010Y1018D01*
X1012Y1018D01*
X1012Y1022D01*
X1014Y1022D01*
X1014Y1024D01*
X1016Y1024D01*
X1016Y1026D01*
X1018Y1026D01*
X1018Y1028D01*
X1020Y1028D01*
X1020Y1030D01*
X1024Y1030D01*
X1024Y1032D01*
X950Y1032D01*
X950Y1034D01*
X730Y1034D01*
G37*
D02*
G36*
X730Y1014D02*
X730Y1008D01*
X770Y1008D01*
X770Y1010D01*
X776Y1010D01*
X776Y1012D01*
X788Y1012D01*
X788Y1014D01*
X730Y1014D01*
G37*
D02*
G36*
X1346Y954D02*
X1346Y952D01*
X1350Y952D01*
X1350Y950D01*
X1352Y950D01*
X1352Y948D01*
X1356Y948D01*
X1356Y946D01*
X1360Y946D01*
X1360Y944D01*
X1362Y944D01*
X1362Y942D01*
X1366Y942D01*
X1366Y940D01*
X1368Y940D01*
X1368Y938D01*
X1372Y938D01*
X1372Y936D01*
X1376Y936D01*
X1376Y934D01*
X1378Y934D01*
X1378Y932D01*
X1382Y932D01*
X1382Y930D01*
X1384Y930D01*
X1384Y928D01*
X1386Y928D01*
X1386Y924D01*
X1388Y924D01*
X1388Y922D01*
X1428Y922D01*
X1428Y954D01*
X1346Y954D01*
G37*
D02*
G36*
X1174Y926D02*
X1174Y922D01*
X1176Y922D01*
X1176Y918D01*
X1178Y918D01*
X1178Y912D01*
X1180Y912D01*
X1180Y906D01*
X1242Y906D01*
X1242Y908D01*
X1240Y908D01*
X1240Y910D01*
X1236Y910D01*
X1236Y912D01*
X1234Y912D01*
X1234Y914D01*
X1230Y914D01*
X1230Y916D01*
X1226Y916D01*
X1226Y918D01*
X1224Y918D01*
X1224Y920D01*
X1220Y920D01*
X1220Y922D01*
X1216Y922D01*
X1216Y924D01*
X1214Y924D01*
X1214Y926D01*
X1174Y926D01*
G37*
D02*
G36*
X1264Y794D02*
X1264Y792D01*
X1262Y792D01*
X1262Y790D01*
X1260Y790D01*
X1260Y788D01*
X1258Y788D01*
X1258Y786D01*
X1256Y786D01*
X1256Y784D01*
X1254Y784D01*
X1254Y782D01*
X1252Y782D01*
X1252Y780D01*
X1250Y780D01*
X1250Y662D01*
X1328Y662D01*
X1328Y668D01*
X1326Y668D01*
X1326Y670D01*
X1324Y670D01*
X1324Y672D01*
X1322Y672D01*
X1322Y674D01*
X1320Y674D01*
X1320Y678D01*
X1318Y678D01*
X1318Y680D01*
X1316Y680D01*
X1316Y682D01*
X1314Y682D01*
X1314Y686D01*
X1312Y686D01*
X1312Y690D01*
X1310Y690D01*
X1310Y694D01*
X1308Y694D01*
X1308Y700D01*
X1306Y700D01*
X1306Y738D01*
X1308Y738D01*
X1308Y744D01*
X1310Y744D01*
X1310Y748D01*
X1312Y748D01*
X1312Y752D01*
X1314Y752D01*
X1314Y756D01*
X1316Y756D01*
X1316Y758D01*
X1318Y758D01*
X1318Y762D01*
X1320Y762D01*
X1320Y764D01*
X1322Y764D01*
X1322Y766D01*
X1324Y766D01*
X1324Y772D01*
X1322Y772D01*
X1322Y774D01*
X1320Y774D01*
X1320Y776D01*
X1318Y776D01*
X1318Y778D01*
X1316Y778D01*
X1316Y780D01*
X1314Y780D01*
X1314Y782D01*
X1312Y782D01*
X1312Y784D01*
X1310Y784D01*
X1310Y786D01*
X1308Y786D01*
X1308Y788D01*
X1306Y788D01*
X1306Y792D01*
X1304Y792D01*
X1304Y794D01*
X1264Y794D01*
G37*
D02*
G36*
X1742Y788D02*
X1742Y786D01*
X1740Y786D01*
X1740Y784D01*
X1738Y784D01*
X1738Y782D01*
X1736Y782D01*
X1736Y780D01*
X1734Y780D01*
X1734Y778D01*
X1732Y778D01*
X1732Y718D01*
X1734Y718D01*
X1734Y636D01*
X1736Y636D01*
X1736Y556D01*
X1738Y556D01*
X1738Y532D01*
X1742Y532D01*
X1742Y530D01*
X1782Y530D01*
X1782Y534D01*
X1784Y534D01*
X1784Y536D01*
X1782Y536D01*
X1782Y548D01*
X1784Y548D01*
X1784Y560D01*
X1786Y560D01*
X1786Y564D01*
X1788Y564D01*
X1788Y568D01*
X1790Y568D01*
X1790Y572D01*
X1792Y572D01*
X1792Y576D01*
X1794Y576D01*
X1794Y578D01*
X1796Y578D01*
X1796Y582D01*
X1798Y582D01*
X1798Y584D01*
X1800Y584D01*
X1800Y586D01*
X1802Y586D01*
X1802Y588D01*
X1804Y588D01*
X1804Y590D01*
X1806Y590D01*
X1806Y592D01*
X1808Y592D01*
X1808Y594D01*
X1812Y594D01*
X1812Y596D01*
X1814Y596D01*
X1814Y598D01*
X1816Y598D01*
X1816Y600D01*
X1820Y600D01*
X1820Y602D01*
X1824Y602D01*
X1824Y604D01*
X1828Y604D01*
X1828Y606D01*
X1836Y606D01*
X1836Y608D01*
X1832Y608D01*
X1832Y610D01*
X1826Y610D01*
X1826Y612D01*
X1822Y612D01*
X1822Y614D01*
X1818Y614D01*
X1818Y616D01*
X1816Y616D01*
X1816Y618D01*
X1812Y618D01*
X1812Y620D01*
X1810Y620D01*
X1810Y622D01*
X1808Y622D01*
X1808Y624D01*
X1806Y624D01*
X1806Y626D01*
X1804Y626D01*
X1804Y628D01*
X1802Y628D01*
X1802Y630D01*
X1800Y630D01*
X1800Y632D01*
X1798Y632D01*
X1798Y634D01*
X1796Y634D01*
X1796Y636D01*
X1794Y636D01*
X1794Y640D01*
X1792Y640D01*
X1792Y642D01*
X1790Y642D01*
X1790Y646D01*
X1788Y646D01*
X1788Y650D01*
X1786Y650D01*
X1786Y656D01*
X1784Y656D01*
X1784Y666D01*
X1782Y666D01*
X1782Y672D01*
X1784Y672D01*
X1784Y674D01*
X1782Y674D01*
X1782Y686D01*
X1784Y686D01*
X1784Y696D01*
X1786Y696D01*
X1786Y702D01*
X1788Y702D01*
X1788Y706D01*
X1790Y706D01*
X1790Y710D01*
X1792Y710D01*
X1792Y714D01*
X1794Y714D01*
X1794Y716D01*
X1796Y716D01*
X1796Y720D01*
X1798Y720D01*
X1798Y722D01*
X1800Y722D01*
X1800Y724D01*
X1802Y724D01*
X1802Y726D01*
X1804Y726D01*
X1804Y728D01*
X1806Y728D01*
X1806Y730D01*
X1808Y730D01*
X1808Y732D01*
X1812Y732D01*
X1812Y734D01*
X1814Y734D01*
X1814Y736D01*
X1818Y736D01*
X1818Y738D01*
X1820Y738D01*
X1820Y740D01*
X1824Y740D01*
X1824Y742D01*
X1830Y742D01*
X1830Y744D01*
X1784Y744D01*
X1784Y746D01*
X1782Y746D01*
X1782Y788D01*
X1742Y788D01*
G37*
D02*
G36*
X4Y662D02*
X4Y588D01*
X44Y588D01*
X44Y596D01*
X46Y596D01*
X46Y602D01*
X48Y602D01*
X48Y606D01*
X50Y606D01*
X50Y610D01*
X52Y610D01*
X52Y612D01*
X54Y612D01*
X54Y616D01*
X56Y616D01*
X56Y618D01*
X58Y618D01*
X58Y620D01*
X60Y620D01*
X60Y622D01*
X62Y622D01*
X62Y624D01*
X64Y624D01*
X64Y626D01*
X62Y626D01*
X62Y628D01*
X60Y628D01*
X60Y630D01*
X58Y630D01*
X58Y632D01*
X56Y632D01*
X56Y634D01*
X54Y634D01*
X54Y638D01*
X52Y638D01*
X52Y640D01*
X50Y640D01*
X50Y644D01*
X48Y644D01*
X48Y648D01*
X46Y648D01*
X46Y654D01*
X44Y654D01*
X44Y662D01*
X4Y662D01*
G37*
D02*
G36*
X4Y562D02*
X4Y488D01*
X44Y488D01*
X44Y496D01*
X46Y496D01*
X46Y502D01*
X48Y502D01*
X48Y506D01*
X50Y506D01*
X50Y510D01*
X52Y510D01*
X52Y512D01*
X54Y512D01*
X54Y516D01*
X56Y516D01*
X56Y518D01*
X58Y518D01*
X58Y520D01*
X60Y520D01*
X60Y522D01*
X62Y522D01*
X62Y524D01*
X64Y524D01*
X64Y526D01*
X62Y526D01*
X62Y528D01*
X60Y528D01*
X60Y530D01*
X58Y530D01*
X58Y532D01*
X56Y532D01*
X56Y534D01*
X54Y534D01*
X54Y538D01*
X52Y538D01*
X52Y540D01*
X50Y540D01*
X50Y544D01*
X48Y544D01*
X48Y548D01*
X46Y548D01*
X46Y554D01*
X44Y554D01*
X44Y562D01*
X4Y562D01*
G37*
D02*
G36*
X1768Y486D02*
X1768Y458D01*
X1766Y458D01*
X1766Y452D01*
X1806Y452D01*
X1806Y454D01*
X1808Y454D01*
X1808Y456D01*
X1810Y456D01*
X1810Y458D01*
X1814Y458D01*
X1814Y460D01*
X1816Y460D01*
X1816Y462D01*
X1820Y462D01*
X1820Y464D01*
X1824Y464D01*
X1824Y466D01*
X1828Y466D01*
X1828Y468D01*
X1834Y468D01*
X1834Y470D01*
X1832Y470D01*
X1832Y472D01*
X1826Y472D01*
X1826Y474D01*
X1822Y474D01*
X1822Y476D01*
X1818Y476D01*
X1818Y478D01*
X1816Y478D01*
X1816Y480D01*
X1812Y480D01*
X1812Y482D01*
X1810Y482D01*
X1810Y484D01*
X1808Y484D01*
X1808Y486D01*
X1768Y486D01*
G37*
D02*
G36*
X4Y462D02*
X4Y388D01*
X44Y388D01*
X44Y396D01*
X46Y396D01*
X46Y402D01*
X48Y402D01*
X48Y406D01*
X50Y406D01*
X50Y410D01*
X52Y410D01*
X52Y412D01*
X54Y412D01*
X54Y416D01*
X56Y416D01*
X56Y418D01*
X58Y418D01*
X58Y420D01*
X60Y420D01*
X60Y422D01*
X62Y422D01*
X62Y424D01*
X64Y424D01*
X64Y426D01*
X62Y426D01*
X62Y428D01*
X60Y428D01*
X60Y430D01*
X58Y430D01*
X58Y432D01*
X56Y432D01*
X56Y434D01*
X54Y434D01*
X54Y438D01*
X52Y438D01*
X52Y440D01*
X50Y440D01*
X50Y444D01*
X48Y444D01*
X48Y448D01*
X46Y448D01*
X46Y454D01*
X44Y454D01*
X44Y462D01*
X4Y462D01*
G37*
D02*
G36*
X4Y362D02*
X4Y288D01*
X44Y288D01*
X44Y296D01*
X46Y296D01*
X46Y302D01*
X48Y302D01*
X48Y306D01*
X50Y306D01*
X50Y310D01*
X52Y310D01*
X52Y312D01*
X54Y312D01*
X54Y316D01*
X56Y316D01*
X56Y318D01*
X58Y318D01*
X58Y320D01*
X60Y320D01*
X60Y322D01*
X62Y322D01*
X62Y324D01*
X64Y324D01*
X64Y326D01*
X62Y326D01*
X62Y328D01*
X60Y328D01*
X60Y330D01*
X58Y330D01*
X58Y332D01*
X56Y332D01*
X56Y334D01*
X54Y334D01*
X54Y338D01*
X52Y338D01*
X52Y340D01*
X50Y340D01*
X50Y344D01*
X48Y344D01*
X48Y348D01*
X46Y348D01*
X46Y354D01*
X44Y354D01*
X44Y362D01*
X4Y362D01*
G37*
D02*
G36*
X442Y354D02*
X442Y352D01*
X436Y352D01*
X436Y350D01*
X430Y350D01*
X430Y348D01*
X426Y348D01*
X426Y346D01*
X420Y346D01*
X420Y344D01*
X414Y344D01*
X414Y342D01*
X410Y342D01*
X410Y340D01*
X404Y340D01*
X404Y338D01*
X398Y338D01*
X398Y336D01*
X392Y336D01*
X392Y334D01*
X388Y334D01*
X388Y332D01*
X382Y332D01*
X382Y330D01*
X376Y330D01*
X376Y328D01*
X372Y328D01*
X372Y326D01*
X366Y326D01*
X366Y324D01*
X360Y324D01*
X360Y322D01*
X354Y322D01*
X354Y320D01*
X350Y320D01*
X350Y318D01*
X344Y318D01*
X344Y316D01*
X338Y316D01*
X338Y314D01*
X332Y314D01*
X332Y312D01*
X328Y312D01*
X328Y310D01*
X322Y310D01*
X322Y308D01*
X316Y308D01*
X316Y306D01*
X312Y306D01*
X312Y304D01*
X306Y304D01*
X306Y302D01*
X300Y302D01*
X300Y300D01*
X294Y300D01*
X294Y298D01*
X290Y298D01*
X290Y296D01*
X284Y296D01*
X284Y294D01*
X278Y294D01*
X278Y292D01*
X272Y292D01*
X272Y290D01*
X268Y290D01*
X268Y288D01*
X262Y288D01*
X262Y256D01*
X376Y256D01*
X376Y254D01*
X390Y254D01*
X390Y252D01*
X398Y252D01*
X398Y250D01*
X404Y250D01*
X404Y248D01*
X410Y248D01*
X410Y246D01*
X414Y246D01*
X414Y244D01*
X418Y244D01*
X418Y242D01*
X422Y242D01*
X422Y240D01*
X426Y240D01*
X426Y238D01*
X430Y238D01*
X430Y236D01*
X432Y236D01*
X432Y234D01*
X436Y234D01*
X436Y232D01*
X438Y232D01*
X438Y230D01*
X480Y230D01*
X480Y234D01*
X482Y234D01*
X482Y236D01*
X484Y236D01*
X484Y240D01*
X486Y240D01*
X486Y242D01*
X488Y242D01*
X488Y244D01*
X490Y244D01*
X490Y248D01*
X492Y248D01*
X492Y250D01*
X494Y250D01*
X494Y252D01*
X496Y252D01*
X496Y290D01*
X494Y290D01*
X494Y336D01*
X496Y336D01*
X496Y344D01*
X498Y344D01*
X498Y348D01*
X500Y348D01*
X500Y352D01*
X502Y352D01*
X502Y354D01*
X442Y354D01*
G37*
D02*
G36*
X262Y256D02*
X262Y242D01*
X302Y242D01*
X302Y244D01*
X306Y244D01*
X306Y246D01*
X310Y246D01*
X310Y248D01*
X316Y248D01*
X316Y250D01*
X322Y250D01*
X322Y252D01*
X330Y252D01*
X330Y254D01*
X342Y254D01*
X342Y256D01*
X262Y256D01*
G37*
D02*
G36*
X584Y280D02*
X584Y268D01*
X660Y268D01*
X660Y266D01*
X666Y266D01*
X666Y264D01*
X670Y264D01*
X670Y262D01*
X674Y262D01*
X674Y260D01*
X678Y260D01*
X678Y258D01*
X680Y258D01*
X680Y256D01*
X682Y256D01*
X682Y254D01*
X722Y254D01*
X722Y260D01*
X724Y260D01*
X724Y264D01*
X726Y264D01*
X726Y270D01*
X728Y270D01*
X728Y274D01*
X730Y274D01*
X730Y276D01*
X732Y276D01*
X732Y278D01*
X626Y278D01*
X626Y280D01*
X584Y280D01*
G37*
D02*
G36*
X704Y180D02*
X704Y174D01*
X702Y174D01*
X702Y170D01*
X700Y170D01*
X700Y168D01*
X698Y168D01*
X698Y164D01*
X696Y164D01*
X696Y162D01*
X694Y162D01*
X694Y160D01*
X692Y160D01*
X692Y156D01*
X690Y156D01*
X690Y154D01*
X688Y154D01*
X688Y152D01*
X854Y152D01*
X854Y158D01*
X852Y158D01*
X852Y160D01*
X776Y160D01*
X776Y162D01*
X770Y162D01*
X770Y164D01*
X766Y164D01*
X766Y166D01*
X762Y166D01*
X762Y168D01*
X758Y168D01*
X758Y170D01*
X756Y170D01*
X756Y172D01*
X752Y172D01*
X752Y174D01*
X750Y174D01*
X750Y176D01*
X748Y176D01*
X748Y178D01*
X746Y178D01*
X746Y180D01*
X704Y180D01*
G37*
D02*
G36*
X182Y132D02*
X182Y106D01*
X4Y106D01*
X4Y4D01*
X290Y4D01*
X290Y6D01*
X286Y6D01*
X286Y8D01*
X284Y8D01*
X284Y10D01*
X282Y10D01*
X282Y12D01*
X278Y12D01*
X278Y14D01*
X276Y14D01*
X276Y16D01*
X274Y16D01*
X274Y18D01*
X272Y18D01*
X272Y20D01*
X270Y20D01*
X270Y22D01*
X266Y22D01*
X266Y24D01*
X264Y24D01*
X264Y26D01*
X262Y26D01*
X262Y28D01*
X260Y28D01*
X260Y32D01*
X258Y32D01*
X258Y34D01*
X256Y34D01*
X256Y36D01*
X254Y36D01*
X254Y38D01*
X252Y38D01*
X252Y40D01*
X250Y40D01*
X250Y44D01*
X248Y44D01*
X248Y46D01*
X246Y46D01*
X246Y50D01*
X244Y50D01*
X244Y52D01*
X242Y52D01*
X242Y56D01*
X240Y56D01*
X240Y60D01*
X238Y60D01*
X238Y64D01*
X236Y64D01*
X236Y68D01*
X234Y68D01*
X234Y74D01*
X232Y74D01*
X232Y78D01*
X230Y78D01*
X230Y86D01*
X228Y86D01*
X228Y94D01*
X226Y94D01*
X226Y132D01*
X182Y132D01*
G37*
D02*
G36*
X1488Y1060D02*
X1488Y1058D01*
X1568Y1058D01*
X1568Y1060D01*
X1488Y1060D01*
G37*
D02*
G36*
X1590Y1060D02*
X1590Y1058D01*
X1754Y1058D01*
X1754Y1060D01*
X1590Y1060D01*
G37*
D02*
G36*
X1382Y1058D02*
X1382Y1056D01*
X1754Y1056D01*
X1754Y1058D01*
X1382Y1058D01*
G37*
D02*
G36*
X1382Y1058D02*
X1382Y1056D01*
X1754Y1056D01*
X1754Y1058D01*
X1382Y1058D01*
G37*
D02*
G36*
X1334Y1056D02*
X1334Y1054D01*
X1338Y1054D01*
X1338Y1052D01*
X1342Y1052D01*
X1342Y1050D01*
X1346Y1050D01*
X1346Y1048D01*
X1350Y1048D01*
X1350Y1046D01*
X1354Y1046D01*
X1354Y1044D01*
X1358Y1044D01*
X1358Y1042D01*
X1484Y1042D01*
X1484Y1040D01*
X1492Y1040D01*
X1492Y1038D01*
X1496Y1038D01*
X1496Y1036D01*
X1500Y1036D01*
X1500Y1034D01*
X1502Y1034D01*
X1502Y1032D01*
X1504Y1032D01*
X1504Y1030D01*
X1506Y1030D01*
X1506Y1028D01*
X1508Y1028D01*
X1508Y1026D01*
X1510Y1026D01*
X1510Y1024D01*
X1512Y1024D01*
X1512Y1020D01*
X1514Y1020D01*
X1514Y1014D01*
X1516Y1014D01*
X1516Y936D01*
X1874Y936D01*
X1874Y938D01*
X1860Y938D01*
X1860Y940D01*
X1852Y940D01*
X1852Y942D01*
X1846Y942D01*
X1846Y944D01*
X1840Y944D01*
X1840Y946D01*
X1836Y946D01*
X1836Y948D01*
X1830Y948D01*
X1830Y950D01*
X1826Y950D01*
X1826Y952D01*
X1824Y952D01*
X1824Y954D01*
X1820Y954D01*
X1820Y956D01*
X1816Y956D01*
X1816Y958D01*
X1814Y958D01*
X1814Y960D01*
X1810Y960D01*
X1810Y962D01*
X1808Y962D01*
X1808Y964D01*
X1806Y964D01*
X1806Y966D01*
X1804Y966D01*
X1804Y968D01*
X1800Y968D01*
X1800Y970D01*
X1798Y970D01*
X1798Y972D01*
X1796Y972D01*
X1796Y974D01*
X1794Y974D01*
X1794Y976D01*
X1792Y976D01*
X1792Y978D01*
X1790Y978D01*
X1790Y980D01*
X1788Y980D01*
X1788Y982D01*
X1786Y982D01*
X1786Y986D01*
X1784Y986D01*
X1784Y988D01*
X1782Y988D01*
X1782Y990D01*
X1780Y990D01*
X1780Y992D01*
X1778Y992D01*
X1778Y996D01*
X1776Y996D01*
X1776Y998D01*
X1774Y998D01*
X1774Y1002D01*
X1772Y1002D01*
X1772Y1004D01*
X1770Y1004D01*
X1770Y1008D01*
X1768Y1008D01*
X1768Y1012D01*
X1766Y1012D01*
X1766Y1016D01*
X1764Y1016D01*
X1764Y1022D01*
X1762Y1022D01*
X1762Y1026D01*
X1760Y1026D01*
X1760Y1032D01*
X1758Y1032D01*
X1758Y1040D01*
X1756Y1040D01*
X1756Y1050D01*
X1754Y1050D01*
X1754Y1056D01*
X1334Y1056D01*
G37*
D02*
G36*
X1966Y962D02*
X1966Y960D01*
X1964Y960D01*
X1964Y958D01*
X1960Y958D01*
X1960Y956D01*
X1958Y956D01*
X1958Y954D01*
X1954Y954D01*
X1954Y952D01*
X1950Y952D01*
X1950Y950D01*
X1946Y950D01*
X1946Y948D01*
X1942Y948D01*
X1942Y946D01*
X1938Y946D01*
X1938Y944D01*
X1932Y944D01*
X1932Y942D01*
X1926Y942D01*
X1926Y940D01*
X1918Y940D01*
X1918Y938D01*
X1904Y938D01*
X1904Y936D01*
X2006Y936D01*
X2006Y962D01*
X1966Y962D01*
G37*
D02*
G36*
X1516Y936D02*
X1516Y934D01*
X2006Y934D01*
X2006Y936D01*
X1516Y936D01*
G37*
D02*
G36*
X1516Y936D02*
X1516Y934D01*
X2006Y934D01*
X2006Y936D01*
X1516Y936D01*
G37*
D02*
G36*
X1516Y934D02*
X1516Y908D01*
X1698Y908D01*
X1698Y906D01*
X1708Y906D01*
X1708Y904D01*
X1714Y904D01*
X1714Y902D01*
X1718Y902D01*
X1718Y900D01*
X1722Y900D01*
X1722Y898D01*
X1724Y898D01*
X1724Y896D01*
X1728Y896D01*
X1728Y894D01*
X1730Y894D01*
X1730Y892D01*
X1732Y892D01*
X1732Y890D01*
X1734Y890D01*
X1734Y888D01*
X1738Y888D01*
X1738Y884D01*
X1922Y884D01*
X1922Y744D01*
X1876Y744D01*
X1876Y742D01*
X1880Y742D01*
X1880Y740D01*
X1884Y740D01*
X1884Y738D01*
X1888Y738D01*
X1888Y736D01*
X1890Y736D01*
X1890Y734D01*
X1894Y734D01*
X1894Y732D01*
X1896Y732D01*
X1896Y730D01*
X1898Y730D01*
X1898Y728D01*
X1900Y728D01*
X1900Y726D01*
X1902Y726D01*
X1902Y724D01*
X1904Y724D01*
X1904Y722D01*
X1906Y722D01*
X1906Y720D01*
X1908Y720D01*
X1908Y718D01*
X1910Y718D01*
X1910Y714D01*
X1912Y714D01*
X1912Y712D01*
X1914Y712D01*
X1914Y708D01*
X1916Y708D01*
X1916Y704D01*
X1918Y704D01*
X1918Y700D01*
X1920Y700D01*
X1920Y692D01*
X1922Y692D01*
X1922Y660D01*
X1920Y660D01*
X1920Y654D01*
X1918Y654D01*
X1918Y648D01*
X1916Y648D01*
X1916Y644D01*
X1914Y644D01*
X1914Y642D01*
X1912Y642D01*
X1912Y638D01*
X1910Y638D01*
X1910Y636D01*
X1908Y636D01*
X1908Y632D01*
X1906Y632D01*
X1906Y630D01*
X1904Y630D01*
X1904Y628D01*
X1902Y628D01*
X1902Y626D01*
X1900Y626D01*
X1900Y624D01*
X1898Y624D01*
X1898Y622D01*
X1896Y622D01*
X1896Y620D01*
X1892Y620D01*
X1892Y618D01*
X1890Y618D01*
X1890Y616D01*
X1886Y616D01*
X1886Y614D01*
X1882Y614D01*
X1882Y612D01*
X1878Y612D01*
X1878Y610D01*
X1872Y610D01*
X1872Y608D01*
X1870Y608D01*
X1870Y606D01*
X1876Y606D01*
X1876Y604D01*
X1880Y604D01*
X1880Y602D01*
X1884Y602D01*
X1884Y600D01*
X1888Y600D01*
X1888Y598D01*
X1892Y598D01*
X1892Y596D01*
X1894Y596D01*
X1894Y594D01*
X1896Y594D01*
X1896Y592D01*
X1898Y592D01*
X1898Y590D01*
X1900Y590D01*
X1900Y588D01*
X1902Y588D01*
X1902Y586D01*
X1904Y586D01*
X1904Y584D01*
X1906Y584D01*
X1906Y582D01*
X1908Y582D01*
X1908Y580D01*
X1910Y580D01*
X1910Y576D01*
X1912Y576D01*
X1912Y574D01*
X1914Y574D01*
X1914Y570D01*
X1916Y570D01*
X1916Y566D01*
X1918Y566D01*
X1918Y562D01*
X1920Y562D01*
X1920Y554D01*
X1922Y554D01*
X1922Y522D01*
X1920Y522D01*
X1920Y516D01*
X1918Y516D01*
X1918Y510D01*
X1916Y510D01*
X1916Y506D01*
X1914Y506D01*
X1914Y504D01*
X1912Y504D01*
X1912Y500D01*
X1910Y500D01*
X1910Y498D01*
X1908Y498D01*
X1908Y496D01*
X1906Y496D01*
X1906Y492D01*
X1904Y492D01*
X1904Y490D01*
X1902Y490D01*
X1902Y488D01*
X1900Y488D01*
X1900Y486D01*
X1898Y486D01*
X1898Y484D01*
X1894Y484D01*
X1894Y482D01*
X1892Y482D01*
X1892Y480D01*
X1890Y480D01*
X1890Y478D01*
X1886Y478D01*
X1886Y476D01*
X1882Y476D01*
X1882Y474D01*
X1878Y474D01*
X1878Y472D01*
X1872Y472D01*
X1872Y470D01*
X1870Y470D01*
X1870Y468D01*
X1876Y468D01*
X1876Y466D01*
X1882Y466D01*
X1882Y464D01*
X1884Y464D01*
X1884Y462D01*
X1888Y462D01*
X1888Y460D01*
X1892Y460D01*
X1892Y458D01*
X1894Y458D01*
X1894Y456D01*
X1896Y456D01*
X1896Y454D01*
X1898Y454D01*
X1898Y452D01*
X1900Y452D01*
X1900Y450D01*
X1902Y450D01*
X1902Y448D01*
X1904Y448D01*
X1904Y446D01*
X1906Y446D01*
X1906Y444D01*
X1908Y444D01*
X1908Y442D01*
X1910Y442D01*
X1910Y440D01*
X1912Y440D01*
X1912Y436D01*
X1914Y436D01*
X1914Y432D01*
X1916Y432D01*
X1916Y428D01*
X1918Y428D01*
X1918Y424D01*
X1920Y424D01*
X1920Y416D01*
X1922Y416D01*
X1922Y386D01*
X1920Y386D01*
X1920Y378D01*
X1918Y378D01*
X1918Y374D01*
X1916Y374D01*
X1916Y370D01*
X1914Y370D01*
X1914Y366D01*
X1912Y366D01*
X1912Y362D01*
X1910Y362D01*
X1910Y360D01*
X1908Y360D01*
X1908Y358D01*
X1906Y358D01*
X1906Y354D01*
X1904Y354D01*
X1904Y352D01*
X1902Y352D01*
X1902Y350D01*
X1900Y350D01*
X1900Y348D01*
X1896Y348D01*
X1896Y346D01*
X1894Y346D01*
X1894Y344D01*
X1892Y344D01*
X1892Y342D01*
X1888Y342D01*
X1888Y340D01*
X1886Y340D01*
X1886Y338D01*
X1882Y338D01*
X1882Y336D01*
X1878Y336D01*
X1878Y334D01*
X1872Y334D01*
X1872Y332D01*
X2006Y332D01*
X2006Y934D01*
X1516Y934D01*
G37*
D02*
G36*
X1516Y908D02*
X1516Y906D01*
X1600Y906D01*
X1600Y904D01*
X1606Y904D01*
X1606Y902D01*
X1610Y902D01*
X1610Y900D01*
X1654Y900D01*
X1654Y902D01*
X1658Y902D01*
X1658Y904D01*
X1664Y904D01*
X1664Y906D01*
X1674Y906D01*
X1674Y908D01*
X1516Y908D01*
G37*
D02*
G36*
X1516Y906D02*
X1516Y904D01*
X1558Y904D01*
X1558Y906D01*
X1516Y906D01*
G37*
D02*
G36*
X1740Y884D02*
X1740Y882D01*
X1742Y882D01*
X1742Y880D01*
X1782Y880D01*
X1782Y882D01*
X1784Y882D01*
X1784Y884D01*
X1740Y884D01*
G37*
D02*
G36*
X1770Y346D02*
X1770Y332D01*
X1834Y332D01*
X1834Y334D01*
X1828Y334D01*
X1828Y336D01*
X1822Y336D01*
X1822Y338D01*
X1820Y338D01*
X1820Y340D01*
X1816Y340D01*
X1816Y342D01*
X1812Y342D01*
X1812Y344D01*
X1810Y344D01*
X1810Y346D01*
X1770Y346D01*
G37*
D02*
G36*
X1770Y332D02*
X1770Y330D01*
X2006Y330D01*
X2006Y332D01*
X1770Y332D01*
G37*
D02*
G36*
X1770Y332D02*
X1770Y330D01*
X2006Y330D01*
X2006Y332D01*
X1770Y332D01*
G37*
D02*
G36*
X1770Y330D02*
X1770Y306D01*
X1496Y306D01*
X1496Y304D01*
X2006Y304D01*
X2006Y330D01*
X1770Y330D01*
G37*
D02*
G36*
X1306Y306D02*
X1306Y304D01*
X1466Y304D01*
X1466Y306D01*
X1306Y306D01*
G37*
D02*
G36*
X1304Y304D02*
X1304Y302D01*
X2006Y302D01*
X2006Y304D01*
X1304Y304D01*
G37*
D02*
G36*
X1304Y304D02*
X1304Y302D01*
X2006Y302D01*
X2006Y304D01*
X1304Y304D01*
G37*
D02*
G36*
X1304Y302D02*
X1304Y300D01*
X1302Y300D01*
X1302Y296D01*
X1300Y296D01*
X1300Y290D01*
X1298Y290D01*
X1298Y286D01*
X1296Y286D01*
X1296Y280D01*
X1294Y280D01*
X1294Y276D01*
X1292Y276D01*
X1292Y270D01*
X1290Y270D01*
X1290Y266D01*
X1288Y266D01*
X1288Y262D01*
X1286Y262D01*
X1286Y256D01*
X1284Y256D01*
X1284Y254D01*
X1904Y254D01*
X1904Y252D01*
X1916Y252D01*
X1916Y250D01*
X1924Y250D01*
X1924Y248D01*
X1930Y248D01*
X1930Y246D01*
X1936Y246D01*
X1936Y244D01*
X1940Y244D01*
X1940Y242D01*
X1944Y242D01*
X1944Y240D01*
X1948Y240D01*
X1948Y238D01*
X1952Y238D01*
X1952Y236D01*
X1956Y236D01*
X1956Y234D01*
X1958Y234D01*
X1958Y232D01*
X1962Y232D01*
X1962Y230D01*
X1964Y230D01*
X1964Y228D01*
X2006Y228D01*
X2006Y302D01*
X1304Y302D01*
G37*
D02*
G36*
X1284Y254D02*
X1284Y252D01*
X1282Y252D01*
X1282Y246D01*
X1280Y246D01*
X1280Y242D01*
X1278Y242D01*
X1278Y236D01*
X1276Y236D01*
X1276Y232D01*
X1274Y232D01*
X1274Y228D01*
X1272Y228D01*
X1272Y224D01*
X1270Y224D01*
X1270Y222D01*
X1268Y222D01*
X1268Y220D01*
X1266Y220D01*
X1266Y218D01*
X1264Y218D01*
X1264Y216D01*
X1260Y216D01*
X1260Y214D01*
X1256Y214D01*
X1256Y212D01*
X1252Y212D01*
X1252Y210D01*
X1242Y210D01*
X1242Y208D01*
X1244Y208D01*
X1244Y206D01*
X1246Y206D01*
X1246Y204D01*
X1248Y204D01*
X1248Y202D01*
X1250Y202D01*
X1250Y198D01*
X1252Y198D01*
X1252Y196D01*
X1254Y196D01*
X1254Y194D01*
X1256Y194D01*
X1256Y190D01*
X1258Y190D01*
X1258Y188D01*
X1260Y188D01*
X1260Y184D01*
X1262Y184D01*
X1262Y178D01*
X1264Y178D01*
X1264Y170D01*
X1266Y170D01*
X1266Y154D01*
X1710Y154D01*
X1710Y152D01*
X1756Y152D01*
X1756Y160D01*
X1758Y160D01*
X1758Y164D01*
X1760Y164D01*
X1760Y170D01*
X1762Y170D01*
X1762Y174D01*
X1764Y174D01*
X1764Y178D01*
X1766Y178D01*
X1766Y182D01*
X1768Y182D01*
X1768Y186D01*
X1770Y186D01*
X1770Y190D01*
X1772Y190D01*
X1772Y192D01*
X1774Y192D01*
X1774Y196D01*
X1776Y196D01*
X1776Y198D01*
X1778Y198D01*
X1778Y200D01*
X1780Y200D01*
X1780Y204D01*
X1782Y204D01*
X1782Y206D01*
X1784Y206D01*
X1784Y208D01*
X1786Y208D01*
X1786Y210D01*
X1788Y210D01*
X1788Y212D01*
X1790Y212D01*
X1790Y214D01*
X1792Y214D01*
X1792Y216D01*
X1794Y216D01*
X1794Y218D01*
X1796Y218D01*
X1796Y220D01*
X1798Y220D01*
X1798Y222D01*
X1800Y222D01*
X1800Y224D01*
X1802Y224D01*
X1802Y226D01*
X1806Y226D01*
X1806Y228D01*
X1808Y228D01*
X1808Y230D01*
X1810Y230D01*
X1810Y232D01*
X1814Y232D01*
X1814Y234D01*
X1818Y234D01*
X1818Y236D01*
X1820Y236D01*
X1820Y238D01*
X1824Y238D01*
X1824Y240D01*
X1828Y240D01*
X1828Y242D01*
X1832Y242D01*
X1832Y244D01*
X1836Y244D01*
X1836Y246D01*
X1842Y246D01*
X1842Y248D01*
X1848Y248D01*
X1848Y250D01*
X1856Y250D01*
X1856Y252D01*
X1870Y252D01*
X1870Y254D01*
X1284Y254D01*
G37*
D02*
G36*
X1266Y154D02*
X1266Y140D01*
X1264Y140D01*
X1264Y134D01*
X1262Y134D01*
X1262Y128D01*
X1260Y128D01*
X1260Y124D01*
X1258Y124D01*
X1258Y120D01*
X1256Y120D01*
X1256Y118D01*
X1254Y118D01*
X1254Y114D01*
X1252Y114D01*
X1252Y112D01*
X1250Y112D01*
X1250Y110D01*
X1248Y110D01*
X1248Y108D01*
X1246Y108D01*
X1246Y106D01*
X1244Y106D01*
X1244Y104D01*
X1242Y104D01*
X1242Y102D01*
X1240Y102D01*
X1240Y100D01*
X1238Y100D01*
X1238Y98D01*
X1234Y98D01*
X1234Y96D01*
X1232Y96D01*
X1232Y94D01*
X1228Y94D01*
X1228Y92D01*
X1224Y92D01*
X1224Y90D01*
X1220Y90D01*
X1220Y88D01*
X1212Y88D01*
X1212Y86D01*
X1178Y86D01*
X1178Y84D01*
X1176Y84D01*
X1176Y82D01*
X1172Y82D01*
X1172Y80D01*
X1170Y80D01*
X1170Y78D01*
X1168Y78D01*
X1168Y76D01*
X1166Y76D01*
X1166Y74D01*
X1164Y74D01*
X1164Y72D01*
X1162Y72D01*
X1162Y70D01*
X1160Y70D01*
X1160Y68D01*
X1156Y68D01*
X1156Y66D01*
X1154Y66D01*
X1154Y64D01*
X1150Y64D01*
X1150Y62D01*
X1146Y62D01*
X1146Y60D01*
X1134Y60D01*
X1134Y58D01*
X1106Y58D01*
X1106Y56D01*
X1078Y56D01*
X1078Y54D01*
X1050Y54D01*
X1050Y52D01*
X1022Y52D01*
X1022Y50D01*
X994Y50D01*
X994Y48D01*
X966Y48D01*
X966Y46D01*
X938Y46D01*
X938Y44D01*
X910Y44D01*
X910Y14D01*
X1338Y14D01*
X1338Y16D01*
X1336Y16D01*
X1336Y18D01*
X1332Y18D01*
X1332Y20D01*
X1330Y20D01*
X1330Y22D01*
X1326Y22D01*
X1326Y24D01*
X1324Y24D01*
X1324Y26D01*
X1322Y26D01*
X1322Y28D01*
X1320Y28D01*
X1320Y30D01*
X1318Y30D01*
X1318Y32D01*
X1316Y32D01*
X1316Y36D01*
X1314Y36D01*
X1314Y38D01*
X1312Y38D01*
X1312Y40D01*
X1310Y40D01*
X1310Y44D01*
X1308Y44D01*
X1308Y48D01*
X1306Y48D01*
X1306Y52D01*
X1304Y52D01*
X1304Y56D01*
X1302Y56D01*
X1302Y64D01*
X1300Y64D01*
X1300Y96D01*
X1302Y96D01*
X1302Y104D01*
X1304Y104D01*
X1304Y108D01*
X1306Y108D01*
X1306Y112D01*
X1308Y112D01*
X1308Y116D01*
X1310Y116D01*
X1310Y120D01*
X1312Y120D01*
X1312Y122D01*
X1314Y122D01*
X1314Y124D01*
X1316Y124D01*
X1316Y128D01*
X1318Y128D01*
X1318Y130D01*
X1320Y130D01*
X1320Y132D01*
X1322Y132D01*
X1322Y134D01*
X1324Y134D01*
X1324Y136D01*
X1326Y136D01*
X1326Y138D01*
X1330Y138D01*
X1330Y140D01*
X1332Y140D01*
X1332Y142D01*
X1334Y142D01*
X1334Y144D01*
X1338Y144D01*
X1338Y146D01*
X1342Y146D01*
X1342Y148D01*
X1346Y148D01*
X1346Y150D01*
X1352Y150D01*
X1352Y152D01*
X1364Y152D01*
X1364Y154D01*
X1266Y154D01*
G37*
D02*
G36*
X1382Y154D02*
X1382Y152D01*
X1610Y152D01*
X1610Y150D01*
X1616Y150D01*
X1616Y148D01*
X1620Y148D01*
X1620Y146D01*
X1666Y146D01*
X1666Y148D01*
X1670Y148D01*
X1670Y150D01*
X1674Y150D01*
X1674Y152D01*
X1684Y152D01*
X1684Y154D01*
X1382Y154D01*
G37*
D02*
G36*
X1394Y152D02*
X1394Y150D01*
X1400Y150D01*
X1400Y148D01*
X1404Y148D01*
X1404Y146D01*
X1408Y146D01*
X1408Y144D01*
X1448Y144D01*
X1448Y146D01*
X1452Y146D01*
X1452Y148D01*
X1458Y148D01*
X1458Y150D01*
X1464Y150D01*
X1464Y152D01*
X1394Y152D01*
G37*
D02*
G36*
X1500Y152D02*
X1500Y150D01*
X1506Y150D01*
X1506Y148D01*
X1510Y148D01*
X1510Y146D01*
X1514Y146D01*
X1514Y144D01*
X1554Y144D01*
X1554Y146D01*
X1558Y146D01*
X1558Y148D01*
X1562Y148D01*
X1562Y150D01*
X1568Y150D01*
X1568Y152D01*
X1500Y152D01*
G37*
D02*
G36*
X456Y28D02*
X456Y26D01*
X454Y26D01*
X454Y24D01*
X452Y24D01*
X452Y22D01*
X450Y22D01*
X450Y20D01*
X448Y20D01*
X448Y18D01*
X446Y18D01*
X446Y16D01*
X444Y16D01*
X444Y14D01*
X522Y14D01*
X522Y16D01*
X516Y16D01*
X516Y18D01*
X512Y18D01*
X512Y20D01*
X508Y20D01*
X508Y22D01*
X504Y22D01*
X504Y24D01*
X502Y24D01*
X502Y26D01*
X498Y26D01*
X498Y28D01*
X456Y28D01*
G37*
D02*
G36*
X1748Y28D02*
X1748Y26D01*
X1746Y26D01*
X1746Y24D01*
X1742Y24D01*
X1742Y22D01*
X1740Y22D01*
X1740Y20D01*
X1738Y20D01*
X1738Y18D01*
X1734Y18D01*
X1734Y16D01*
X1730Y16D01*
X1730Y14D01*
X1726Y14D01*
X1726Y12D01*
X1722Y12D01*
X1722Y10D01*
X1716Y10D01*
X1716Y8D01*
X1808Y8D01*
X1808Y10D01*
X1806Y10D01*
X1806Y12D01*
X1802Y12D01*
X1802Y14D01*
X1800Y14D01*
X1800Y16D01*
X1798Y16D01*
X1798Y18D01*
X1796Y18D01*
X1796Y20D01*
X1794Y20D01*
X1794Y22D01*
X1792Y22D01*
X1792Y24D01*
X1790Y24D01*
X1790Y26D01*
X1788Y26D01*
X1788Y28D01*
X1748Y28D01*
G37*
D02*
G36*
X570Y20D02*
X570Y18D01*
X566Y18D01*
X566Y16D01*
X560Y16D01*
X560Y14D01*
X622Y14D01*
X622Y16D01*
X616Y16D01*
X616Y18D01*
X612Y18D01*
X612Y20D01*
X570Y20D01*
G37*
D02*
G36*
X670Y20D02*
X670Y18D01*
X666Y18D01*
X666Y16D01*
X660Y16D01*
X660Y14D01*
X722Y14D01*
X722Y16D01*
X716Y16D01*
X716Y18D01*
X712Y18D01*
X712Y20D01*
X670Y20D01*
G37*
D02*
G36*
X1624Y16D02*
X1624Y14D01*
X1620Y14D01*
X1620Y12D01*
X1616Y12D01*
X1616Y10D01*
X1610Y10D01*
X1610Y8D01*
X1678Y8D01*
X1678Y10D01*
X1672Y10D01*
X1672Y12D01*
X1668Y12D01*
X1668Y14D01*
X1664Y14D01*
X1664Y16D01*
X1624Y16D01*
G37*
D02*
G36*
X442Y14D02*
X442Y12D01*
X1342Y12D01*
X1342Y14D01*
X442Y14D01*
G37*
D02*
G36*
X442Y14D02*
X442Y12D01*
X1342Y12D01*
X1342Y14D01*
X442Y14D01*
G37*
D02*
G36*
X442Y14D02*
X442Y12D01*
X1342Y12D01*
X1342Y14D01*
X442Y14D01*
G37*
D02*
G36*
X442Y14D02*
X442Y12D01*
X1342Y12D01*
X1342Y14D01*
X442Y14D01*
G37*
D02*
G36*
X1404Y14D02*
X1404Y12D01*
X1400Y12D01*
X1400Y10D01*
X1394Y10D01*
X1394Y8D01*
X1458Y8D01*
X1458Y10D01*
X1454Y10D01*
X1454Y12D01*
X1450Y12D01*
X1450Y14D01*
X1404Y14D01*
G37*
D02*
G36*
X1514Y14D02*
X1514Y12D01*
X1510Y12D01*
X1510Y10D01*
X1504Y10D01*
X1504Y8D01*
X1568Y8D01*
X1568Y10D01*
X1562Y10D01*
X1562Y12D01*
X1558Y12D01*
X1558Y14D01*
X1514Y14D01*
G37*
D02*
G36*
X438Y12D02*
X438Y10D01*
X436Y10D01*
X436Y8D01*
X1352Y8D01*
X1352Y10D01*
X1346Y10D01*
X1346Y12D01*
X438Y12D01*
G37*
D02*
G36*
X432Y8D02*
X432Y6D01*
X1466Y6D01*
X1466Y8D01*
X432Y8D01*
G37*
D02*
G36*
X432Y8D02*
X432Y6D01*
X1466Y6D01*
X1466Y8D01*
X432Y8D01*
G37*
D02*
G36*
X1496Y8D02*
X1496Y6D01*
X1810Y6D01*
X1810Y8D01*
X1496Y8D01*
G37*
D02*
G36*
X1496Y8D02*
X1496Y6D01*
X1810Y6D01*
X1810Y8D01*
X1496Y8D01*
G37*
D02*
G36*
X1496Y8D02*
X1496Y6D01*
X1810Y6D01*
X1810Y8D01*
X1496Y8D01*
G37*
D02*
G36*
X430Y6D02*
X430Y4D01*
X1814Y4D01*
X1814Y6D01*
X430Y6D01*
G37*
D02*
G36*
X430Y6D02*
X430Y4D01*
X1814Y4D01*
X1814Y6D01*
X430Y6D01*
G37*
D02*
G04 End of Copper0*
M02*