<?xml version="1.0" standalone="no"?>
<!DOCTYPE svg PUBLIC "-//W3C//DTD SVG 20010904//EN" 
"http://www.w3.org/TR/2001/REC-SVG-20010904/DTD/svg10.dtd"> 
<svg xmlns="http://www.w3.org/2000/svg" xmlns:xlink="http://www.w3.org/1999/xlink" 
    width="29.72cm" height="21.00cm" viewBox="0 0 117000 82670 "> 
<title>SVG Picture created as soic20adapter-SilkS_Front.svg </title>
<desc>Picture generated by wxSVG v0100 </desc>
<g style="fill:black; stroke:black; stroke-width:1">
</g>
<g style="fill:#000000; fill-opacity:0.0; stroke:#FFFF00; stroke-opacity:1.00; stroke-linecap:round; stroke-linejoin:round; stroke-width:150" 
   transform="translate(0.00 0.00) scale(1.00 1.00)">
<path d="M4724 24409 L4724 4724" /> 
<path d="M24409 24409 L4724 24409" /> 
<path d="M24409 4724 L24409 24409" /> 
<path d="M4724 4724 L24409 4724" /> 
</g>
<g style="fill:#000000; fill-opacity:0.0; stroke:#0000C0; stroke-opacity:1.00; stroke-linecap:round; stroke-linejoin:round; stroke-width:0" 
   transform="translate(0.00 0.00) scale(1.00 1.00)">
<path d="M9998 8000 L10002 8000" /> 
<path d="M10000 7998 L10000 8002" /> 
</g>
<g style="fill:#C0C0C0; fill-opacity:0.0; stroke:#C0C0C0; stroke-opacity:1.00; stroke-linecap:round; stroke-linejoin:round; stroke-width:50" 
   transform="translate(0.00 0.00) scale(1.00 1.00)">
<path d="M9558 8243 L9558 7643" /> 
<path d="M9558 7643 L9786 7643" /> 
<path d="M9786 7643 L9844 7671" /> 
<path d="M9844 7671 L9872 7700" /> 
<path d="M9872 7700 L9901 7757" /> 
<path d="M9901 7757 L9901 7843" /> 
<path d="M9901 7843 L9872 7900" /> 
<path d="M9872 7900 L9844 7929" /> 
<path d="M9844 7929 L9786 7957" /> 
<path d="M9786 7957 L9558 7957" /> 
<g style = "stroke-linecap:round;" > 
<path d="M9558 7957 L9558 7957" /> 
</g><path d="M10472 8243 L10129 8243" /> 
<g style = "stroke-linecap:round;" > 
<path d="M10129 8243 L10129 8243" /> 
</g><path d="M10301 8243 L10301 7643" /> 
<path d="M10301 7643 L10244 7729" /> 
<path d="M10244 7729 L10186 7786" /> 
<path d="M10186 7786 L10129 7814" /> 
<g style = "stroke-linecap:round;" > 
<path d="M10129 7814 L10129 7814" /> 
</g></g>
<g style="fill:#C0C0C0; fill-opacity:0.0; stroke:#0000C0; stroke-opacity:1.00; stroke-linecap:round; stroke-linejoin:round; stroke-width:0" 
   transform="translate(0.00 0.00) scale(1.00 1.00)">
<path d="M9998 9000 L10002 9000" /> 
<path d="M10000 8998 L10000 9002" /> 
</g>
<g style="fill:#C0C0C0; fill-opacity:0.0; stroke:#C0C0C0; stroke-opacity:1.00; stroke-linecap:round; stroke-linejoin:round; stroke-width:50" 
   transform="translate(0.00 0.00) scale(1.00 1.00)">
<path d="M9072 9243 L9072 8643" /> 
<path d="M9072 8643 L9191 8643" /> 
<path d="M9191 8643 L9263 8671" /> 
<path d="M9263 8671 L9310 8729" /> 
<path d="M9310 8729 L9334 8786" /> 
<path d="M9334 8786 L9358 8900" /> 
<path d="M9358 8900 L9358 8986" /> 
<path d="M9358 8986 L9334 9100" /> 
<path d="M9334 9100 L9310 9157" /> 
<path d="M9310 9157 L9263 9214" /> 
<path d="M9263 9214 L9191 9243" /> 
<path d="M9191 9243 L9072 9243" /> 
<path d="M9572 9243 L9572 8643" /> 
<g style = "stroke-linecap:round;" > 
<path d="M9572 8643 L9572 8643" /> 
</g><path d="M10048 9243 L9810 9243" /> 
<path d="M9810 9243 L9810 8643" /> 
<g style = "stroke-linecap:round;" > 
<path d="M9810 8643 L9810 8643" /> 
</g><path d="M10191 8700 L10215 8671" /> 
<path d="M10215 8671 L10263 8643" /> 
<path d="M10263 8643 L10382 8643" /> 
<path d="M10382 8643 L10429 8671" /> 
<path d="M10429 8671 L10453 8700" /> 
<path d="M10453 8700 L10477 8757" /> 
<path d="M10477 8757 L10477 8814" /> 
<path d="M10477 8814 L10453 8900" /> 
<path d="M10453 8900 L10167 9243" /> 
<path d="M10167 9243 L10477 9243" /> 
<g style = "stroke-linecap:round;" > 
<path d="M10477 9243 L10477 9243" /> 
</g><path d="M10786 8643 L10834 8643" /> 
<path d="M10834 8643 L10882 8671" /> 
<path d="M10882 8671 L10905 8700" /> 
<path d="M10905 8700 L10929 8757" /> 
<path d="M10929 8757 L10953 8871" /> 
<path d="M10953 8871 L10953 9014" /> 
<path d="M10953 9014 L10929 9129" /> 
<path d="M10929 9129 L10905 9186" /> 
<path d="M10905 9186 L10882 9214" /> 
<path d="M10882 9214 L10834 9243" /> 
<path d="M10834 9243 L10786 9243" /> 
<path d="M10786 9243 L10739 9214" /> 
<path d="M10739 9214 L10715 9186" /> 
<path d="M10715 9186 L10691 9129" /> 
<path d="M10691 9129 L10667 9014" /> 
<path d="M10667 9014 L10667 8871" /> 
<path d="M10667 8871 L10691 8757" /> 
<path d="M10691 8757 L10715 8700" /> 
<path d="M10715 8700 L10739 8671" /> 
<path d="M10739 8671 L10786 8643" /> 
</g>
<g style="fill:#C0C0C0; fill-opacity:0.0; stroke:#00A0A0; stroke-opacity:1.00; stroke-linecap:round; stroke-linejoin:round; stroke-width:50" 
   transform="translate(0.00 0.00) scale(1.00 1.00)">
<path d="M12500 9950 L12500 7050" /> 
<path d="M7500 7050 L7500 9950" /> 
<path d="M12500 9950 L7500 9950" /> 
<path d="M7500 7050 L12500 7050" /> 
<path d="M7500 8250 L8000 8250" /> 
<path d="M8000 8250 L8000 8750" /> 
<path d="M8000 8750 L7500 8750" /> 
</g>
<g style="fill:#C0C0C0; fill-opacity:0.0; stroke:#0000C0; stroke-opacity:1.00; stroke-linecap:round; stroke-linejoin:round; stroke-width:0" 
   transform="translate(0.00 0.00) scale(1.00 1.00)">
<path d="M18998 20000 L19002 20000" /> 
<path d="M19000 19998 L19000 20002" /> 
</g>
<g style="fill:#C0C0C0; fill-opacity:0.0; stroke:#C0C0C0; stroke-opacity:1.00; stroke-linecap:round; stroke-linejoin:round; stroke-width:50" 
   transform="translate(0.00 0.00) scale(1.00 1.00)">
<path d="M18558 20243 L18558 19643" /> 
<path d="M18558 19643 L18786 19643" /> 
<path d="M18786 19643 L18844 19671" /> 
<path d="M18844 19671 L18872 19700" /> 
<path d="M18872 19700 L18901 19757" /> 
<path d="M18901 19757 L18901 19843" /> 
<path d="M18901 19843 L18872 19900" /> 
<path d="M18872 19900 L18844 19929" /> 
<path d="M18844 19929 L18786 19957" /> 
<path d="M18786 19957 L18558 19957" /> 
<g style = "stroke-linecap:round;" > 
<path d="M18558 19957 L18558 19957" /> 
</g><path d="M19129 19700 L19158 19671" /> 
<path d="M19158 19671 L19215 19643" /> 
<path d="M19215 19643 L19358 19643" /> 
<path d="M19358 19643 L19415 19671" /> 
<path d="M19415 19671 L19444 19700" /> 
<path d="M19444 19700 L19472 19757" /> 
<path d="M19472 19757 L19472 19814" /> 
<path d="M19472 19814 L19444 19900" /> 
<path d="M19444 19900 L19101 20243" /> 
<path d="M19101 20243 L19472 20243" /> 
<g style = "stroke-linecap:round;" > 
<path d="M19472 20243 L19472 20243" /> 
</g></g>
<g style="fill:#C0C0C0; fill-opacity:0.0; stroke:#0000C0; stroke-opacity:1.00; stroke-linecap:round; stroke-linejoin:round; stroke-width:0" 
   transform="translate(0.00 0.00) scale(1.00 1.00)">
<path d="M18998 21000 L19002 21000" /> 
<path d="M19000 20998 L19000 21002" /> 
</g>
<g style="fill:#C0C0C0; fill-opacity:0.0; stroke:#C0C0C0; stroke-opacity:1.00; stroke-linecap:round; stroke-linejoin:round; stroke-width:50" 
   transform="translate(0.00 0.00) scale(1.00 1.00)">
<path d="M18072 21243 L18072 20643" /> 
<path d="M18072 20643 L18191 20643" /> 
<path d="M18191 20643 L18263 20671" /> 
<path d="M18263 20671 L18310 20729" /> 
<path d="M18310 20729 L18334 20786" /> 
<path d="M18334 20786 L18358 20900" /> 
<path d="M18358 20900 L18358 20986" /> 
<path d="M18358 20986 L18334 21100" /> 
<path d="M18334 21100 L18310 21157" /> 
<path d="M18310 21157 L18263 21214" /> 
<path d="M18263 21214 L18191 21243" /> 
<path d="M18191 21243 L18072 21243" /> 
<path d="M18572 21243 L18572 20643" /> 
<g style = "stroke-linecap:round;" > 
<path d="M18572 20643 L18572 20643" /> 
</g><path d="M19048 21243 L18810 21243" /> 
<path d="M18810 21243 L18810 20643" /> 
<g style = "stroke-linecap:round;" > 
<path d="M18810 20643 L18810 20643" /> 
</g><path d="M19191 20700 L19215 20671" /> 
<path d="M19215 20671 L19263 20643" /> 
<path d="M19263 20643 L19382 20643" /> 
<path d="M19382 20643 L19429 20671" /> 
<path d="M19429 20671 L19453 20700" /> 
<path d="M19453 20700 L19477 20757" /> 
<path d="M19477 20757 L19477 20814" /> 
<path d="M19477 20814 L19453 20900" /> 
<path d="M19453 20900 L19167 21243" /> 
<path d="M19167 21243 L19477 21243" /> 
<g style = "stroke-linecap:round;" > 
<path d="M19477 21243 L19477 21243" /> 
</g><path d="M19786 20643 L19834 20643" /> 
<path d="M19834 20643 L19882 20671" /> 
<path d="M19882 20671 L19905 20700" /> 
<path d="M19905 20700 L19929 20757" /> 
<path d="M19929 20757 L19953 20871" /> 
<path d="M19953 20871 L19953 21014" /> 
<path d="M19953 21014 L19929 21129" /> 
<path d="M19929 21129 L19905 21186" /> 
<path d="M19905 21186 L19882 21214" /> 
<path d="M19882 21214 L19834 21243" /> 
<path d="M19834 21243 L19786 21243" /> 
<path d="M19786 21243 L19739 21214" /> 
<path d="M19739 21214 L19715 21186" /> 
<path d="M19715 21186 L19691 21129" /> 
<path d="M19691 21129 L19667 21014" /> 
<path d="M19667 21014 L19667 20871" /> 
<path d="M19667 20871 L19691 20757" /> 
<path d="M19691 20757 L19715 20700" /> 
<path d="M19715 20700 L19739 20671" /> 
<path d="M19739 20671 L19786 20643" /> 
</g>
<g style="fill:#C0C0C0; fill-opacity:0.0; stroke:#00A0A0; stroke-opacity:1.00; stroke-linecap:round; stroke-linejoin:round; stroke-width:50" 
   transform="translate(0.00 0.00) scale(1.00 1.00)">
<path d="M21500 21950 L21500 19050" /> 
<path d="M16500 19050 L16500 21950" /> 
<path d="M21500 21950 L16500 21950" /> 
<path d="M16500 19050 L21500 19050" /> 
<path d="M16500 20250 L17000 20250" /> 
<path d="M17000 20250 L17000 20750" /> 
<path d="M17000 20750 L16500 20750" /> 
</g>
<g style="fill:#808000; fill-opacity:0.0; stroke:#808000; stroke-opacity:1.00; stroke-linecap:round; stroke-linejoin:round; stroke-width:59" 
   transform="translate(0.00 0.00) scale(1.00 1.00)">
<path d="M5225 11775 L5225 11225" /> 
<path d="M5225 11225 L5775 11225" /> 
<path d="M5775 11225 L5775 11775" /> 
<path d="M5225 11775 L5775 11775" /> 
<ellipse cx="6500" cy="11500" rx="275" ry="275"  /> 
<ellipse cx="7500" cy="11500" rx="275" ry="275"  /> 
<ellipse cx="8500" cy="11500" rx="275" ry="275"  /> 
<ellipse cx="9500" cy="11500" rx="275" ry="275"  /> 
<ellipse cx="10500" cy="11500" rx="275" ry="275"  /> 
<ellipse cx="11500" cy="11500" rx="275" ry="275"  /> 
<ellipse cx="12500" cy="11500" rx="275" ry="275"  /> 
<ellipse cx="13500" cy="11500" rx="275" ry="275"  /> 
<ellipse cx="14500" cy="11500" rx="275" ry="275"  /> 
</g>
<g style="fill:#808000; fill-opacity:0.0; stroke:#0000C0; stroke-opacity:1.00; stroke-linecap:round; stroke-linejoin:round; stroke-width:0" 
   transform="translate(0.00 0.00) scale(1.00 1.00)">
<path d="M5498 10500 L5502 10500" /> 
<path d="M5500 10498 L5500 10502" /> 
</g>
<g style="fill:#C0C0C0; fill-opacity:0.0; stroke:#C0C0C0; stroke-opacity:1.00; stroke-linecap:round; stroke-linejoin:round; stroke-width:107" 
   transform="translate(0.00 0.00) scale(1.00 1.00)">
<path d="M5357 10094 L5357 10581" /> 
<path d="M5357 10581 L5337 10678" /> 
<path d="M5337 10678 L5296 10743" /> 
<path d="M5296 10743 L5235 10775" /> 
<path d="M5235 10775 L5194 10775" /> 
<g style = "stroke-linecap:round;" > 
<path d="M5194 10775 L5194 10775" /> 
</g><path d="M5785 10775 L5541 10775" /> 
<g style = "stroke-linecap:round;" > 
<path d="M5541 10775 L5541 10775" /> 
</g><path d="M5663 10775 L5663 10094" /> 
<path d="M5663 10094 L5622 10191" /> 
<path d="M5622 10191 L5581 10256" /> 
<path d="M5581 10256 L5541 10289" /> 
<g style = "stroke-linecap:round;" > 
<path d="M5541 10289 L5541 10289" /> 
</g></g>
<g style="fill:#C0C0C0; fill-opacity:0.0; stroke:#0000C0; stroke-opacity:1.00; stroke-linecap:round; stroke-linejoin:round; stroke-width:0" 
   transform="translate(0.00 0.00) scale(1.00 1.00)">
<path d="M13748 10500 L13752 10500" /> 
<path d="M13750 10498 L13750 10502" /> 
</g>
<g style="fill:#C0C0C0; fill-opacity:0.0; stroke:#C0C0C0; stroke-opacity:1.00; stroke-linecap:round; stroke-linejoin:round; stroke-width:100" 
   transform="translate(0.00 0.00) scale(1.00 1.00)">
<path d="M12998 10714 L13055 10743" /> 
<path d="M13055 10743 L13151 10743" /> 
<path d="M13151 10743 L13189 10714" /> 
<path d="M13189 10714 L13208 10686" /> 
<path d="M13208 10686 L13227 10629" /> 
<path d="M13227 10629 L13227 10571" /> 
<path d="M13227 10571 L13208 10514" /> 
<path d="M13208 10514 L13189 10486" /> 
<path d="M13189 10486 L13151 10457" /> 
<path d="M13151 10457 L13074 10429" /> 
<path d="M13074 10429 L13036 10400" /> 
<path d="M13036 10400 L13017 10371" /> 
<path d="M13017 10371 L12998 10314" /> 
<path d="M12998 10314 L12998 10257" /> 
<path d="M12998 10257 L13017 10200" /> 
<path d="M13017 10200 L13036 10171" /> 
<path d="M13036 10171 L13074 10143" /> 
<path d="M13074 10143 L13170 10143" /> 
<path d="M13170 10143 L13227 10171" /> 
<g style = "stroke-linecap:round;" > 
<path d="M13227 10171 L13227 10171" /> 
</g><path d="M13398 10743 L13398 10143" /> 
<g style = "stroke-linecap:round;" > 
<path d="M13398 10143 L13398 10143" /> 
</g><path d="M13779 10743 L13588 10743" /> 
<path d="M13588 10743 L13588 10143" /> 
<g style = "stroke-linecap:round;" > 
<path d="M13588 10143 L13588 10143" /> 
</g><path d="M14122 10743 L13893 10743" /> 
<g style = "stroke-linecap:round;" > 
<path d="M13893 10743 L13893 10743" /> 
</g><path d="M14007 10743 L14007 10143" /> 
<path d="M14007 10143 L13969 10229" /> 
<path d="M13969 10229 L13931 10286" /> 
<path d="M13931 10286 L13893 10314" /> 
<g style = "stroke-linecap:round;" > 
<path d="M13893 10314 L13893 10314" /> 
</g><path d="M14369 10143 L14408 10143" /> 
<path d="M14408 10143 L14446 10171" /> 
<path d="M14446 10171 L14465 10200" /> 
<path d="M14465 10200 L14484 10257" /> 
<path d="M14484 10257 L14503 10371" /> 
<path d="M14503 10371 L14503 10514" /> 
<path d="M14503 10514 L14484 10629" /> 
<path d="M14484 10629 L14465 10686" /> 
<path d="M14465 10686 L14446 10714" /> 
<path d="M14446 10714 L14408 10743" /> 
<path d="M14408 10743 L14369 10743" /> 
<path d="M14369 10743 L14331 10714" /> 
<path d="M14331 10714 L14312 10686" /> 
<path d="M14312 10686 L14293 10629" /> 
<path d="M14293 10629 L14274 10514" /> 
<path d="M14274 10514 L14274 10371" /> 
<path d="M14274 10371 L14293 10257" /> 
<path d="M14293 10257 L14312 10200" /> 
<path d="M14312 10200 L14331 10171" /> 
<path d="M14331 10171 L14369 10143" /> 
</g>
<g style="fill:#C0C0C0; fill-opacity:0.0; stroke:#00A0A0; stroke-opacity:1.00; stroke-linecap:round; stroke-linejoin:round; stroke-width:120" 
   transform="translate(0.00 0.00) scale(1.00 1.00)">
<path d="M5000 12000 L5000 11000" /> 
<path d="M5000 11000 L15000 11000" /> 
<path d="M15000 11000 L15000 12000" /> 
<path d="M15000 12000 L5000 12000" /> 
<path d="M6000 12000 L6000 11000" /> 
</g>
<g style="fill:#808000; fill-opacity:0.0; stroke:#808000; stroke-opacity:1.00; stroke-linecap:round; stroke-linejoin:round; stroke-width:59" 
   transform="translate(0.00 0.00) scale(1.00 1.00)">
<path d="M5225 5775 L5225 5225" /> 
<path d="M5225 5225 L5775 5225" /> 
<path d="M5775 5225 L5775 5775" /> 
<path d="M5225 5775 L5775 5775" /> 
<ellipse cx="6500" cy="5500" rx="275" ry="275"  /> 
<ellipse cx="7500" cy="5500" rx="275" ry="275"  /> 
<ellipse cx="8500" cy="5500" rx="275" ry="275"  /> 
<ellipse cx="9500" cy="5500" rx="275" ry="275"  /> 
<ellipse cx="10500" cy="5500" rx="275" ry="275"  /> 
<ellipse cx="11500" cy="5500" rx="275" ry="275"  /> 
<ellipse cx="12500" cy="5500" rx="275" ry="275"  /> 
<ellipse cx="13500" cy="5500" rx="275" ry="275"  /> 
<ellipse cx="14500" cy="5500" rx="275" ry="275"  /> 
</g>
<g style="fill:#808000; fill-opacity:0.0; stroke:#0000C0; stroke-opacity:1.00; stroke-linecap:round; stroke-linejoin:round; stroke-width:0" 
   transform="translate(0.00 0.00) scale(1.00 1.00)">
<path d="M5498 7000 L5502 7000" /> 
<path d="M5500 6998 L5500 7002" /> 
</g>
<g style="fill:#C0C0C0; fill-opacity:0.0; stroke:#C0C0C0; stroke-opacity:1.00; stroke-linecap:round; stroke-linejoin:round; stroke-width:107" 
   transform="translate(0.00 0.00) scale(1.00 1.00)">
<path d="M5357 6594 L5357 7081" /> 
<path d="M5357 7081 L5337 7178" /> 
<path d="M5337 7178 L5296 7243" /> 
<path d="M5296 7243 L5235 7275" /> 
<path d="M5235 7275 L5194 7275" /> 
<g style = "stroke-linecap:round;" > 
<path d="M5194 7275 L5194 7275" /> 
</g><path d="M5541 6659 L5561 6627" /> 
<path d="M5561 6627 L5602 6594" /> 
<path d="M5602 6594 L5704 6594" /> 
<path d="M5704 6594 L5744 6627" /> 
<path d="M5744 6627 L5765 6659" /> 
<path d="M5765 6659 L5785 6724" /> 
<path d="M5785 6724 L5785 6789" /> 
<path d="M5785 6789 L5765 6886" /> 
<path d="M5765 6886 L5520 7275" /> 
<path d="M5520 7275 L5785 7275" /> 
<g style = "stroke-linecap:round;" > 
<path d="M5785 7275 L5785 7275" /> 
</g></g>
<g style="fill:#C0C0C0; fill-opacity:0.0; stroke:#0000C0; stroke-opacity:1.00; stroke-linecap:round; stroke-linejoin:round; stroke-width:0" 
   transform="translate(0.00 0.00) scale(1.00 1.00)">
<path d="M13748 6500 L13752 6500" /> 
<path d="M13750 6498 L13750 6502" /> 
</g>
<g style="fill:#C0C0C0; fill-opacity:0.0; stroke:#C0C0C0; stroke-opacity:1.00; stroke-linecap:round; stroke-linejoin:round; stroke-width:100" 
   transform="translate(0.00 0.00) scale(1.00 1.00)">
<path d="M12998 6714 L13055 6743" /> 
<path d="M13055 6743 L13151 6743" /> 
<path d="M13151 6743 L13189 6714" /> 
<path d="M13189 6714 L13208 6686" /> 
<path d="M13208 6686 L13227 6629" /> 
<path d="M13227 6629 L13227 6571" /> 
<path d="M13227 6571 L13208 6514" /> 
<path d="M13208 6514 L13189 6486" /> 
<path d="M13189 6486 L13151 6457" /> 
<path d="M13151 6457 L13074 6429" /> 
<path d="M13074 6429 L13036 6400" /> 
<path d="M13036 6400 L13017 6371" /> 
<path d="M13017 6371 L12998 6314" /> 
<path d="M12998 6314 L12998 6257" /> 
<path d="M12998 6257 L13017 6200" /> 
<path d="M13017 6200 L13036 6171" /> 
<path d="M13036 6171 L13074 6143" /> 
<path d="M13074 6143 L13170 6143" /> 
<path d="M13170 6143 L13227 6171" /> 
<g style = "stroke-linecap:round;" > 
<path d="M13227 6171 L13227 6171" /> 
</g><path d="M13398 6743 L13398 6143" /> 
<g style = "stroke-linecap:round;" > 
<path d="M13398 6143 L13398 6143" /> 
</g><path d="M13779 6743 L13588 6743" /> 
<path d="M13588 6743 L13588 6143" /> 
<g style = "stroke-linecap:round;" > 
<path d="M13588 6143 L13588 6143" /> 
</g><path d="M14122 6743 L13893 6743" /> 
<g style = "stroke-linecap:round;" > 
<path d="M13893 6743 L13893 6743" /> 
</g><path d="M14007 6743 L14007 6143" /> 
<path d="M14007 6143 L13969 6229" /> 
<path d="M13969 6229 L13931 6286" /> 
<path d="M13931 6286 L13893 6314" /> 
<g style = "stroke-linecap:round;" > 
<path d="M13893 6314 L13893 6314" /> 
</g><path d="M14369 6143 L14408 6143" /> 
<path d="M14408 6143 L14446 6171" /> 
<path d="M14446 6171 L14465 6200" /> 
<path d="M14465 6200 L14484 6257" /> 
<path d="M14484 6257 L14503 6371" /> 
<path d="M14503 6371 L14503 6514" /> 
<path d="M14503 6514 L14484 6629" /> 
<path d="M14484 6629 L14465 6686" /> 
<path d="M14465 6686 L14446 6714" /> 
<path d="M14446 6714 L14408 6743" /> 
<path d="M14408 6743 L14369 6743" /> 
<path d="M14369 6743 L14331 6714" /> 
<path d="M14331 6714 L14312 6686" /> 
<path d="M14312 6686 L14293 6629" /> 
<path d="M14293 6629 L14274 6514" /> 
<path d="M14274 6514 L14274 6371" /> 
<path d="M14274 6371 L14293 6257" /> 
<path d="M14293 6257 L14312 6200" /> 
<path d="M14312 6200 L14331 6171" /> 
<path d="M14331 6171 L14369 6143" /> 
</g>
<g style="fill:#C0C0C0; fill-opacity:0.0; stroke:#00A0A0; stroke-opacity:1.00; stroke-linecap:round; stroke-linejoin:round; stroke-width:120" 
   transform="translate(0.00 0.00) scale(1.00 1.00)">
<path d="M5000 6000 L5000 5000" /> 
<path d="M5000 5000 L15000 5000" /> 
<path d="M15000 5000 L15000 6000" /> 
<path d="M15000 6000 L5000 6000" /> 
<path d="M6000 6000 L6000 5000" /> 
</g>
<g style="fill:#808000; fill-opacity:0.0; stroke:#808000; stroke-opacity:1.00; stroke-linecap:round; stroke-linejoin:round; stroke-width:59" 
   transform="translate(0.00 0.00) scale(1.00 1.00)">
<path d="M14225 23775 L14225 23225" /> 
<path d="M14225 23225 L14775 23225" /> 
<path d="M14775 23225 L14775 23775" /> 
<path d="M14225 23775 L14775 23775" /> 
<ellipse cx="15500" cy="23500" rx="275" ry="275"  /> 
<ellipse cx="16500" cy="23500" rx="275" ry="275"  /> 
<ellipse cx="17500" cy="23500" rx="275" ry="275"  /> 
<ellipse cx="18500" cy="23500" rx="275" ry="275"  /> 
<ellipse cx="19500" cy="23500" rx="275" ry="275"  /> 
<ellipse cx="20500" cy="23500" rx="275" ry="275"  /> 
<ellipse cx="21500" cy="23500" rx="275" ry="275"  /> 
<ellipse cx="22500" cy="23500" rx="275" ry="275"  /> 
<ellipse cx="23500" cy="23500" rx="275" ry="275"  /> 
</g>
<g style="fill:#808000; fill-opacity:0.0; stroke:#0000C0; stroke-opacity:1.00; stroke-linecap:round; stroke-linejoin:round; stroke-width:0" 
   transform="translate(0.00 0.00) scale(1.00 1.00)">
<path d="M14498 22500 L14502 22500" /> 
<path d="M14500 22498 L14500 22502" /> 
</g>
<g style="fill:#C0C0C0; fill-opacity:0.0; stroke:#C0C0C0; stroke-opacity:1.00; stroke-linecap:round; stroke-linejoin:round; stroke-width:107" 
   transform="translate(0.00 0.00) scale(1.00 1.00)">
<path d="M14357 22094 L14357 22581" /> 
<path d="M14357 22581 L14337 22678" /> 
<path d="M14337 22678 L14296 22743" /> 
<path d="M14296 22743 L14235 22775" /> 
<path d="M14235 22775 L14194 22775" /> 
<g style = "stroke-linecap:round;" > 
<path d="M14194 22775 L14194 22775" /> 
</g><path d="M14520 22094 L14785 22094" /> 
<path d="M14785 22094 L14642 22354" /> 
<path d="M14642 22354 L14704 22354" /> 
<path d="M14704 22354 L14744 22386" /> 
<path d="M14744 22386 L14765 22418" /> 
<path d="M14765 22418 L14785 22483" /> 
<path d="M14785 22483 L14785 22645" /> 
<path d="M14785 22645 L14765 22710" /> 
<path d="M14765 22710 L14744 22743" /> 
<path d="M14744 22743 L14704 22775" /> 
<path d="M14704 22775 L14581 22775" /> 
<path d="M14581 22775 L14541 22743" /> 
<path d="M14541 22743 L14520 22710" /> 
<g style = "stroke-linecap:round;" > 
<path d="M14520 22710 L14520 22710" /> 
</g></g>
<g style="fill:#C0C0C0; fill-opacity:0.0; stroke:#0000C0; stroke-opacity:1.00; stroke-linecap:round; stroke-linejoin:round; stroke-width:0" 
   transform="translate(0.00 0.00) scale(1.00 1.00)">
<path d="M22998 22500 L23002 22500" /> 
<path d="M23000 22498 L23000 22502" /> 
</g>
<g style="fill:#C0C0C0; fill-opacity:0.0; stroke:#C0C0C0; stroke-opacity:1.00; stroke-linecap:round; stroke-linejoin:round; stroke-width:100" 
   transform="translate(0.00 0.00) scale(1.00 1.00)">
<path d="M22248 22714 L22305 22743" /> 
<path d="M22305 22743 L22401 22743" /> 
<path d="M22401 22743 L22439 22714" /> 
<path d="M22439 22714 L22458 22686" /> 
<path d="M22458 22686 L22477 22629" /> 
<path d="M22477 22629 L22477 22571" /> 
<path d="M22477 22571 L22458 22514" /> 
<path d="M22458 22514 L22439 22486" /> 
<path d="M22439 22486 L22401 22457" /> 
<path d="M22401 22457 L22324 22429" /> 
<path d="M22324 22429 L22286 22400" /> 
<path d="M22286 22400 L22267 22371" /> 
<path d="M22267 22371 L22248 22314" /> 
<path d="M22248 22314 L22248 22257" /> 
<path d="M22248 22257 L22267 22200" /> 
<path d="M22267 22200 L22286 22171" /> 
<path d="M22286 22171 L22324 22143" /> 
<path d="M22324 22143 L22420 22143" /> 
<path d="M22420 22143 L22477 22171" /> 
<g style = "stroke-linecap:round;" > 
<path d="M22477 22171 L22477 22171" /> 
</g><path d="M22648 22743 L22648 22143" /> 
<g style = "stroke-linecap:round;" > 
<path d="M22648 22143 L22648 22143" /> 
</g><path d="M23029 22743 L22838 22743" /> 
<path d="M22838 22743 L22838 22143" /> 
<g style = "stroke-linecap:round;" > 
<path d="M22838 22143 L22838 22143" /> 
</g><path d="M23372 22743 L23143 22743" /> 
<g style = "stroke-linecap:round;" > 
<path d="M23143 22743 L23143 22743" /> 
</g><path d="M23257 22743 L23257 22143" /> 
<path d="M23257 22143 L23219 22229" /> 
<path d="M23219 22229 L23181 22286" /> 
<path d="M23181 22286 L23143 22314" /> 
<g style = "stroke-linecap:round;" > 
<path d="M23143 22314 L23143 22314" /> 
</g><path d="M23619 22143 L23658 22143" /> 
<path d="M23658 22143 L23696 22171" /> 
<path d="M23696 22171 L23715 22200" /> 
<path d="M23715 22200 L23734 22257" /> 
<path d="M23734 22257 L23753 22371" /> 
<path d="M23753 22371 L23753 22514" /> 
<path d="M23753 22514 L23734 22629" /> 
<path d="M23734 22629 L23715 22686" /> 
<path d="M23715 22686 L23696 22714" /> 
<path d="M23696 22714 L23658 22743" /> 
<path d="M23658 22743 L23619 22743" /> 
<path d="M23619 22743 L23581 22714" /> 
<path d="M23581 22714 L23562 22686" /> 
<path d="M23562 22686 L23543 22629" /> 
<path d="M23543 22629 L23524 22514" /> 
<path d="M23524 22514 L23524 22371" /> 
<path d="M23524 22371 L23543 22257" /> 
<path d="M23543 22257 L23562 22200" /> 
<path d="M23562 22200 L23581 22171" /> 
<path d="M23581 22171 L23619 22143" /> 
</g>
<g style="fill:#C0C0C0; fill-opacity:0.0; stroke:#00A0A0; stroke-opacity:1.00; stroke-linecap:round; stroke-linejoin:round; stroke-width:120" 
   transform="translate(0.00 0.00) scale(1.00 1.00)">
<path d="M14000 24000 L14000 23000" /> 
<path d="M14000 23000 L24000 23000" /> 
<path d="M24000 23000 L24000 24000" /> 
<path d="M24000 24000 L14000 24000" /> 
<path d="M15000 24000 L15000 23000" /> 
</g>
<g style="fill:#808000; fill-opacity:0.0; stroke:#808000; stroke-opacity:1.00; stroke-linecap:round; stroke-linejoin:round; stroke-width:59" 
   transform="translate(0.00 0.00) scale(1.00 1.00)">
<path d="M14225 17775 L14225 17225" /> 
<path d="M14225 17225 L14775 17225" /> 
<path d="M14775 17225 L14775 17775" /> 
<path d="M14225 17775 L14775 17775" /> 
<ellipse cx="15500" cy="17500" rx="275" ry="275"  /> 
<ellipse cx="16500" cy="17500" rx="275" ry="275"  /> 
<ellipse cx="17500" cy="17500" rx="275" ry="275"  /> 
<ellipse cx="18500" cy="17500" rx="275" ry="275"  /> 
<ellipse cx="19500" cy="17500" rx="275" ry="275"  /> 
<ellipse cx="20500" cy="17500" rx="275" ry="275"  /> 
<ellipse cx="21500" cy="17500" rx="275" ry="275"  /> 
<ellipse cx="22500" cy="17500" rx="275" ry="275"  /> 
<ellipse cx="23500" cy="17500" rx="275" ry="275"  /> 
</g>
<g style="fill:#808000; fill-opacity:0.0; stroke:#0000C0; stroke-opacity:1.00; stroke-linecap:round; stroke-linejoin:round; stroke-width:0" 
   transform="translate(0.00 0.00) scale(1.00 1.00)">
<path d="M14498 18500 L14502 18500" /> 
<path d="M14500 18498 L14500 18502" /> 
</g>
<g style="fill:#C0C0C0; fill-opacity:0.0; stroke:#C0C0C0; stroke-opacity:1.00; stroke-linecap:round; stroke-linejoin:round; stroke-width:107" 
   transform="translate(0.00 0.00) scale(1.00 1.00)">
<path d="M14357 18094 L14357 18581" /> 
<path d="M14357 18581 L14337 18678" /> 
<path d="M14337 18678 L14296 18743" /> 
<path d="M14296 18743 L14235 18775" /> 
<path d="M14235 18775 L14194 18775" /> 
<g style = "stroke-linecap:round;" > 
<path d="M14194 18775 L14194 18775" /> 
</g><path d="M14744 18321 L14744 18775" /> 
<g style = "stroke-linecap:round;" > 
<path d="M14744 18775 L14744 18775" /> 
</g><path d="M14642 18062 L14541 18548" /> 
<path d="M14541 18548 L14805 18548" /> 
<g style = "stroke-linecap:round;" > 
<path d="M14805 18548 L14805 18548" /> 
</g></g>
<g style="fill:#C0C0C0; fill-opacity:0.0; stroke:#0000C0; stroke-opacity:1.00; stroke-linecap:round; stroke-linejoin:round; stroke-width:0" 
   transform="translate(0.00 0.00) scale(1.00 1.00)">
<path d="M22998 18500 L23002 18500" /> 
<path d="M23000 18498 L23000 18502" /> 
</g>
<g style="fill:#C0C0C0; fill-opacity:0.0; stroke:#C0C0C0; stroke-opacity:1.00; stroke-linecap:round; stroke-linejoin:round; stroke-width:100" 
   transform="translate(0.00 0.00) scale(1.00 1.00)">
<path d="M22248 18714 L22305 18743" /> 
<path d="M22305 18743 L22401 18743" /> 
<path d="M22401 18743 L22439 18714" /> 
<path d="M22439 18714 L22458 18686" /> 
<path d="M22458 18686 L22477 18629" /> 
<path d="M22477 18629 L22477 18571" /> 
<path d="M22477 18571 L22458 18514" /> 
<path d="M22458 18514 L22439 18486" /> 
<path d="M22439 18486 L22401 18457" /> 
<path d="M22401 18457 L22324 18429" /> 
<path d="M22324 18429 L22286 18400" /> 
<path d="M22286 18400 L22267 18371" /> 
<path d="M22267 18371 L22248 18314" /> 
<path d="M22248 18314 L22248 18257" /> 
<path d="M22248 18257 L22267 18200" /> 
<path d="M22267 18200 L22286 18171" /> 
<path d="M22286 18171 L22324 18143" /> 
<path d="M22324 18143 L22420 18143" /> 
<path d="M22420 18143 L22477 18171" /> 
<g style = "stroke-linecap:round;" > 
<path d="M22477 18171 L22477 18171" /> 
</g><path d="M22648 18743 L22648 18143" /> 
<g style = "stroke-linecap:round;" > 
<path d="M22648 18143 L22648 18143" /> 
</g><path d="M23029 18743 L22838 18743" /> 
<path d="M22838 18743 L22838 18143" /> 
<g style = "stroke-linecap:round;" > 
<path d="M22838 18143 L22838 18143" /> 
</g><path d="M23372 18743 L23143 18743" /> 
<g style = "stroke-linecap:round;" > 
<path d="M23143 18743 L23143 18743" /> 
</g><path d="M23257 18743 L23257 18143" /> 
<path d="M23257 18143 L23219 18229" /> 
<path d="M23219 18229 L23181 18286" /> 
<path d="M23181 18286 L23143 18314" /> 
<g style = "stroke-linecap:round;" > 
<path d="M23143 18314 L23143 18314" /> 
</g><path d="M23619 18143 L23658 18143" /> 
<path d="M23658 18143 L23696 18171" /> 
<path d="M23696 18171 L23715 18200" /> 
<path d="M23715 18200 L23734 18257" /> 
<path d="M23734 18257 L23753 18371" /> 
<path d="M23753 18371 L23753 18514" /> 
<path d="M23753 18514 L23734 18629" /> 
<path d="M23734 18629 L23715 18686" /> 
<path d="M23715 18686 L23696 18714" /> 
<path d="M23696 18714 L23658 18743" /> 
<path d="M23658 18743 L23619 18743" /> 
<path d="M23619 18743 L23581 18714" /> 
<path d="M23581 18714 L23562 18686" /> 
<path d="M23562 18686 L23543 18629" /> 
<path d="M23543 18629 L23524 18514" /> 
<path d="M23524 18514 L23524 18371" /> 
<path d="M23524 18371 L23543 18257" /> 
<path d="M23543 18257 L23562 18200" /> 
<path d="M23562 18200 L23581 18171" /> 
<path d="M23581 18171 L23619 18143" /> 
</g>
<g style="fill:#C0C0C0; fill-opacity:0.0; stroke:#00A0A0; stroke-opacity:1.00; stroke-linecap:round; stroke-linejoin:round; stroke-width:120" 
   transform="translate(0.00 0.00) scale(1.00 1.00)">
<path d="M14000 18000 L14000 17000" /> 
<path d="M14000 17000 L24000 17000" /> 
<path d="M24000 17000 L24000 18000" /> 
<path d="M24000 18000 L14000 18000" /> 
<path d="M15000 18000 L15000 17000" /> 
</g>
<g style="fill:#C0C0C0; fill-opacity:0.0; stroke:#0000C0; stroke-opacity:1.00; stroke-linecap:round; stroke-linejoin:round; stroke-width:0" 
   transform="translate(0.00 0.00) scale(1.00 1.00)">
<path d="M20498 7200 L20502 7200" /> 
<path d="M20500 7198 L20500 7202" /> 
</g>
<g style="fill:#C0C0C0; fill-opacity:0.0; stroke:#C0C0C0; stroke-opacity:1.00; stroke-linecap:round; stroke-linejoin:round; stroke-width:50" 
   transform="translate(0.00 0.00) scale(1.00 1.00)">
<path d="M20168 7362 L20168 6962" /> 
<path d="M20168 6962 L20340 6962" /> 
<path d="M20340 6962 L20382 6981" /> 
<path d="M20382 6981 L20404 7000" /> 
<path d="M20404 7000 L20425 7038" /> 
<path d="M20425 7038 L20425 7095" /> 
<path d="M20425 7095 L20404 7133" /> 
<path d="M20404 7133 L20382 7152" /> 
<path d="M20382 7152 L20340 7171" /> 
<path d="M20340 7171 L20168 7171" /> 
<g style = "stroke-linecap:round;" > 
<path d="M20168 7171 L20168 7171" /> 
</g><path d="M20832 6962 L20618 6962" /> 
<path d="M20618 6962 L20597 7152" /> 
<path d="M20597 7152 L20618 7133" /> 
<path d="M20618 7133 L20661 7114" /> 
<path d="M20661 7114 L20768 7114" /> 
<path d="M20768 7114 L20811 7133" /> 
<path d="M20811 7133 L20832 7152" /> 
<path d="M20832 7152 L20854 7190" /> 
<path d="M20854 7190 L20854 7286" /> 
<path d="M20854 7286 L20832 7324" /> 
<path d="M20832 7324 L20811 7343" /> 
<path d="M20811 7343 L20768 7362" /> 
<path d="M20768 7362 L20661 7362" /> 
<path d="M20661 7362 L20618 7343" /> 
<path d="M20618 7343 L20597 7324" /> 
<g style = "stroke-linecap:round;" > 
<path d="M20597 7324 L20597 7324" /> 
</g></g>
<g style="fill:#C0C0C0; fill-opacity:0.0; stroke:#0000C0; stroke-opacity:1.00; stroke-linecap:round; stroke-linejoin:round; stroke-width:0" 
   transform="translate(0.00 0.00) scale(1.00 1.00)">
<path d="M20498 7900 L20502 7900" /> 
<path d="M20500 7898 L20500 7902" /> 
</g>
<g style="fill:#C0C0C0; fill-opacity:0.0; stroke:#C0C0C0; stroke-opacity:1.00; stroke-linecap:round; stroke-linejoin:round; stroke-width:50" 
   transform="translate(0.00 0.00) scale(1.00 1.00)">
<path d="M19757 8062 L19757 7662" /> 
<path d="M19757 7662 L19852 7662" /> 
<path d="M19852 7662 L19910 7681" /> 
<path d="M19910 7681 L19948 7719" /> 
<path d="M19948 7719 L19967 7757" /> 
<path d="M19967 7757 L19986 7833" /> 
<path d="M19986 7833 L19986 7890" /> 
<path d="M19986 7890 L19967 7967" /> 
<path d="M19967 7967 L19948 8005" /> 
<path d="M19948 8005 L19910 8043" /> 
<path d="M19910 8043 L19852 8062" /> 
<path d="M19852 8062 L19757 8062" /> 
<path d="M20157 8062 L20157 7662" /> 
<g style = "stroke-linecap:round;" > 
<path d="M20157 7662 L20157 7662" /> 
</g><path d="M20538 8062 L20347 8062" /> 
<path d="M20347 8062 L20347 7662" /> 
<g style = "stroke-linecap:round;" > 
<path d="M20347 7662 L20347 7662" /> 
</g><path d="M20881 8062 L20652 8062" /> 
<g style = "stroke-linecap:round;" > 
<path d="M20652 8062 L20652 8062" /> 
</g><path d="M20766 8062 L20766 7662" /> 
<path d="M20766 7662 L20728 7719" /> 
<path d="M20728 7719 L20690 7757" /> 
<path d="M20690 7757 L20652 7776" /> 
<g style = "stroke-linecap:round;" > 
<path d="M20652 7776 L20652 7776" /> 
</g><path d="M21224 7795 L21224 8062" /> 
<g style = "stroke-linecap:round;" > 
<path d="M21224 8062 L21224 8062" /> 
</g><path d="M21128 7643 L21033 7929" /> 
<path d="M21033 7929 L21281 7929" /> 
<g style = "stroke-linecap:round;" > 
<path d="M21281 7929 L21281 7929" /> 
</g></g>
<g style="fill:#C0C0C0; fill-opacity:0.0; stroke:#00A0A0; stroke-opacity:1.00; stroke-linecap:round; stroke-linejoin:round; stroke-width:80" 
   transform="translate(0.00 0.00) scale(1.00 1.00)">
<path d="M18600 6800 L22400 6800" /> 
<path d="M22400 6800 L22400 8300" /> 
<path d="M22400 8300 L18600 8300" /> 
<path d="M18600 8300 L18600 6800" /> 
<path d="M18600 7300 L18900 7300" /> 
<path d="M18900 7300 L18900 7700" /> 
<path d="M18900 7700 L18600 7700" /> 
</g>
<g style="fill:#C0C0C0; fill-opacity:0.0; stroke:#0000C0; stroke-opacity:1.00; stroke-linecap:round; stroke-linejoin:round; stroke-width:0" 
   transform="translate(0.00 0.00) scale(1.00 1.00)">
<path d="M8498 15200 L8502 15200" /> 
<path d="M8500 15198 L8500 15202" /> 
</g>
<g style="fill:#C0C0C0; fill-opacity:0.0; stroke:#C0C0C0; stroke-opacity:1.00; stroke-linecap:round; stroke-linejoin:round; stroke-width:50" 
   transform="translate(0.00 0.00) scale(1.00 1.00)">
<path d="M7953 15362 L7953 14962" /> 
<path d="M7953 14962 L8125 14962" /> 
<path d="M8125 14962 L8167 14981" /> 
<path d="M8167 14981 L8189 15000" /> 
<path d="M8189 15000 L8210 15038" /> 
<path d="M8210 15038 L8210 15095" /> 
<path d="M8210 15095 L8189 15133" /> 
<path d="M8189 15133 L8167 15152" /> 
<path d="M8167 15152 L8125 15171" /> 
<path d="M8125 15171 L7953 15171" /> 
<g style = "stroke-linecap:round;" > 
<path d="M7953 15171 L7953 15171" /> 
</g><path d="M8639 15362 L8382 15362" /> 
<g style = "stroke-linecap:round;" > 
<path d="M8382 15362 L8382 15362" /> 
</g><path d="M8510 15362 L8510 14962" /> 
<path d="M8510 14962 L8467 15019" /> 
<path d="M8467 15019 L8425 15057" /> 
<path d="M8425 15057 L8382 15076" /> 
<g style = "stroke-linecap:round;" > 
<path d="M8382 15076 L8382 15076" /> 
</g><path d="M9068 15362 L8811 15362" /> 
<g style = "stroke-linecap:round;" > 
<path d="M8811 15362 L8811 15362" /> 
</g><path d="M8939 15362 L8939 14962" /> 
<path d="M8939 14962 L8896 15019" /> 
<path d="M8896 15019 L8854 15057" /> 
<path d="M8854 15057 L8811 15076" /> 
<g style = "stroke-linecap:round;" > 
<path d="M8811 15076 L8811 15076" /> 
</g></g>
<g style="fill:#C0C0C0; fill-opacity:0.0; stroke:#0000C0; stroke-opacity:1.00; stroke-linecap:round; stroke-linejoin:round; stroke-width:0" 
   transform="translate(0.00 0.00) scale(1.00 1.00)">
<path d="M8498 15900 L8502 15900" /> 
<path d="M8500 15898 L8500 15902" /> 
</g>
<g style="fill:#C0C0C0; fill-opacity:0.0; stroke:#C0C0C0; stroke-opacity:1.00; stroke-linecap:round; stroke-linejoin:round; stroke-width:50" 
   transform="translate(0.00 0.00) scale(1.00 1.00)">
<path d="M7757 16062 L7757 15662" /> 
<path d="M7757 15662 L7852 15662" /> 
<path d="M7852 15662 L7910 15681" /> 
<path d="M7910 15681 L7948 15719" /> 
<path d="M7948 15719 L7967 15757" /> 
<path d="M7967 15757 L7986 15833" /> 
<path d="M7986 15833 L7986 15890" /> 
<path d="M7986 15890 L7967 15967" /> 
<path d="M7967 15967 L7948 16005" /> 
<path d="M7948 16005 L7910 16043" /> 
<path d="M7910 16043 L7852 16062" /> 
<path d="M7852 16062 L7757 16062" /> 
<path d="M8157 16062 L8157 15662" /> 
<g style = "stroke-linecap:round;" > 
<path d="M8157 15662 L8157 15662" /> 
</g><path d="M8538 16062 L8347 16062" /> 
<path d="M8347 16062 L8347 15662" /> 
<g style = "stroke-linecap:round;" > 
<path d="M8347 15662 L8347 15662" /> 
</g><path d="M8881 16062 L8652 16062" /> 
<g style = "stroke-linecap:round;" > 
<path d="M8652 16062 L8652 16062" /> 
</g><path d="M8766 16062 L8766 15662" /> 
<path d="M8766 15662 L8728 15719" /> 
<path d="M8728 15719 L8690 15757" /> 
<path d="M8690 15757 L8652 15776" /> 
<g style = "stroke-linecap:round;" > 
<path d="M8652 15776 L8652 15776" /> 
</g><path d="M9224 15795 L9224 16062" /> 
<g style = "stroke-linecap:round;" > 
<path d="M9224 16062 L9224 16062" /> 
</g><path d="M9128 15643 L9033 15929" /> 
<path d="M9033 15929 L9281 15929" /> 
<g style = "stroke-linecap:round;" > 
<path d="M9281 15929 L9281 15929" /> 
</g></g>
<g style="fill:#C0C0C0; fill-opacity:0.0; stroke:#00A0A0; stroke-opacity:1.00; stroke-linecap:round; stroke-linejoin:round; stroke-width:80" 
   transform="translate(0.00 0.00) scale(1.00 1.00)">
<path d="M6600 14800 L10400 14800" /> 
<path d="M10400 14800 L10400 16300" /> 
<path d="M10400 16300 L6600 16300" /> 
<path d="M6600 16300 L6600 14800" /> 
<path d="M6600 15300 L6900 15300" /> 
<path d="M6900 15300 L6900 15700" /> 
<path d="M6900 15700 L6600 15700" /> 
</g>
<g style="fill:#808000; fill-opacity:0.0; stroke:#808000; stroke-opacity:1.00; stroke-linecap:round; stroke-linejoin:round; stroke-width:59" 
   transform="translate(0.00 0.00) scale(1.00 1.00)">
<path d="M17225 11775 L17225 11225" /> 
<path d="M17225 11225 L17775 11225" /> 
<path d="M17775 11225 L17775 11775" /> 
<path d="M17225 11775 L17775 11775" /> 
<ellipse cx="18500" cy="11500" rx="275" ry="275"  /> 
<ellipse cx="19500" cy="11500" rx="275" ry="275"  /> 
<ellipse cx="20500" cy="11500" rx="275" ry="275"  /> 
<ellipse cx="21500" cy="11500" rx="275" ry="275"  /> 
<ellipse cx="22500" cy="11500" rx="275" ry="275"  /> 
<ellipse cx="23500" cy="11500" rx="275" ry="275"  /> 
</g>
<g style="fill:#808000; fill-opacity:0.0; stroke:#0000C0; stroke-opacity:1.00; stroke-linecap:round; stroke-linejoin:round; stroke-width:0" 
   transform="translate(0.00 0.00) scale(1.00 1.00)">
<path d="M17498 12500 L17502 12500" /> 
<path d="M17500 12498 L17500 12502" /> 
</g>
<g style="fill:#C0C0C0; fill-opacity:0.0; stroke:#C0C0C0; stroke-opacity:1.00; stroke-linecap:round; stroke-linejoin:round; stroke-width:107" 
   transform="translate(0.00 0.00) scale(1.00 1.00)">
<path d="M17184 12775 L17184 12094" /> 
<path d="M17184 12094 L17347 12094" /> 
<path d="M17347 12094 L17388 12127" /> 
<path d="M17388 12127 L17408 12159" /> 
<path d="M17408 12159 L17428 12224" /> 
<path d="M17428 12224 L17428 12321" /> 
<path d="M17428 12321 L17408 12386" /> 
<path d="M17408 12386 L17388 12418" /> 
<path d="M17388 12418 L17347 12451" /> 
<path d="M17347 12451 L17184 12451" /> 
<g style = "stroke-linecap:round;" > 
<path d="M17184 12451 L17184 12451" /> 
</g><path d="M17673 12386 L17632 12354" /> 
<path d="M17632 12354 L17612 12321" /> 
<path d="M17612 12321 L17592 12256" /> 
<path d="M17592 12256 L17592 12224" /> 
<path d="M17592 12224 L17612 12159" /> 
<path d="M17612 12159 L17632 12127" /> 
<path d="M17632 12127 L17673 12094" /> 
<path d="M17673 12094 L17755 12094" /> 
<path d="M17755 12094 L17795 12127" /> 
<path d="M17795 12127 L17816 12159" /> 
<path d="M17816 12159 L17836 12224" /> 
<path d="M17836 12224 L17836 12256" /> 
<path d="M17836 12256 L17816 12321" /> 
<path d="M17816 12321 L17795 12354" /> 
<path d="M17795 12354 L17755 12386" /> 
<path d="M17755 12386 L17673 12386" /> 
<path d="M17673 12386 L17632 12418" /> 
<path d="M17632 12418 L17612 12451" /> 
<path d="M17612 12451 L17592 12516" /> 
<path d="M17592 12516 L17592 12645" /> 
<path d="M17592 12645 L17612 12710" /> 
<path d="M17612 12710 L17632 12743" /> 
<path d="M17632 12743 L17673 12775" /> 
<path d="M17673 12775 L17755 12775" /> 
<path d="M17755 12775 L17795 12743" /> 
<path d="M17795 12743 L17816 12710" /> 
<path d="M17816 12710 L17836 12645" /> 
<path d="M17836 12645 L17836 12516" /> 
<path d="M17836 12516 L17816 12451" /> 
<path d="M17816 12451 L17795 12418" /> 
<path d="M17795 12418 L17755 12386" /> 
<g style = "stroke-linecap:round;" > 
<path d="M17755 12386 L17755 12386" /> 
</g></g>
<g style="fill:#C0C0C0; fill-opacity:0.0; stroke:#00A0A0; stroke-opacity:1.00; stroke-linecap:round; stroke-linejoin:round; stroke-width:120" 
   transform="translate(0.00 0.00) scale(1.00 1.00)">
<path d="M17000 11000 L17000 11000" /> 
<path d="M17000 11000 L24000 11000" /> 
<path d="M24000 11000 L24000 12000" /> 
<path d="M24000 12000 L17000 12000" /> 
<path d="M17000 12000 L17000 11000" /> 
<path d="M18000 12000 L18000 12000" /> 
<path d="M18000 12000 L18000 11000" /> 
</g>
<g style="fill:#808000; fill-opacity:0.0; stroke:#808000; stroke-opacity:1.00; stroke-linecap:round; stroke-linejoin:round; stroke-width:59" 
   transform="translate(0.00 0.00) scale(1.00 1.00)">
<path d="M5225 17775 L5225 17225" /> 
<path d="M5225 17225 L5775 17225" /> 
<path d="M5775 17225 L5775 17775" /> 
<path d="M5225 17775 L5775 17775" /> 
<ellipse cx="6500" cy="17500" rx="275" ry="275"  /> 
<ellipse cx="7500" cy="17500" rx="275" ry="275"  /> 
<ellipse cx="8500" cy="17500" rx="275" ry="275"  /> 
<ellipse cx="9500" cy="17500" rx="275" ry="275"  /> 
<ellipse cx="10500" cy="17500" rx="275" ry="275"  /> 
<ellipse cx="11500" cy="17500" rx="275" ry="275"  /> 
</g>
<g style="fill:#808000; fill-opacity:0.0; stroke:#0000C0; stroke-opacity:1.00; stroke-linecap:round; stroke-linejoin:round; stroke-width:0" 
   transform="translate(0.00 0.00) scale(1.00 1.00)">
<path d="M5498 16500 L5502 16500" /> 
<path d="M5500 16498 L5500 16502" /> 
</g>
<g style="fill:#C0C0C0; fill-opacity:0.0; stroke:#C0C0C0; stroke-opacity:1.00; stroke-linecap:round; stroke-linejoin:round; stroke-width:107" 
   transform="translate(0.00 0.00) scale(1.00 1.00)">
<path d="M5184 16775 L5184 16094" /> 
<path d="M5184 16094 L5347 16094" /> 
<path d="M5347 16094 L5388 16127" /> 
<path d="M5388 16127 L5408 16159" /> 
<path d="M5408 16159 L5428 16224" /> 
<path d="M5428 16224 L5428 16321" /> 
<path d="M5428 16321 L5408 16386" /> 
<path d="M5408 16386 L5388 16418" /> 
<path d="M5388 16418 L5347 16451" /> 
<path d="M5347 16451 L5184 16451" /> 
<g style = "stroke-linecap:round;" > 
<path d="M5184 16451 L5184 16451" /> 
</g><path d="M5632 16775 L5714 16775" /> 
<path d="M5714 16775 L5755 16743" /> 
<path d="M5755 16743 L5775 16710" /> 
<path d="M5775 16710 L5816 16613" /> 
<path d="M5816 16613 L5836 16483" /> 
<path d="M5836 16483 L5836 16224" /> 
<path d="M5836 16224 L5816 16159" /> 
<path d="M5816 16159 L5795 16127" /> 
<path d="M5795 16127 L5755 16094" /> 
<path d="M5755 16094 L5673 16094" /> 
<path d="M5673 16094 L5632 16127" /> 
<path d="M5632 16127 L5612 16159" /> 
<path d="M5612 16159 L5592 16224" /> 
<path d="M5592 16224 L5592 16386" /> 
<path d="M5592 16386 L5612 16451" /> 
<path d="M5612 16451 L5632 16483" /> 
<path d="M5632 16483 L5673 16516" /> 
<path d="M5673 16516 L5755 16516" /> 
<path d="M5755 16516 L5795 16483" /> 
<path d="M5795 16483 L5816 16451" /> 
<path d="M5816 16451 L5836 16386" /> 
<g style = "stroke-linecap:round;" > 
<path d="M5836 16386 L5836 16386" /> 
</g></g>
<g style="fill:#C0C0C0; fill-opacity:0.0; stroke:#00A0A0; stroke-opacity:1.00; stroke-linecap:round; stroke-linejoin:round; stroke-width:120" 
   transform="translate(0.00 0.00) scale(1.00 1.00)">
<path d="M5000 17000 L5000 17000" /> 
<path d="M5000 17000 L12000 17000" /> 
<path d="M12000 17000 L12000 18000" /> 
<path d="M12000 18000 L5000 18000" /> 
<path d="M5000 18000 L5000 17000" /> 
<path d="M6000 18000 L6000 18000" /> 
<path d="M6000 18000 L6000 17000" /> 
</g>
<g style="fill:#808000; fill-opacity:0.0; stroke:#808000; stroke-opacity:1.00; stroke-linecap:round; stroke-linejoin:round; stroke-width:59" 
   transform="translate(0.00 0.00) scale(1.00 1.00)">
<path d="M5225 23775 L5225 23225" /> 
<path d="M5225 23225 L5775 23225" /> 
<path d="M5775 23225 L5775 23775" /> 
<path d="M5225 23775 L5775 23775" /> 
<ellipse cx="6500" cy="23500" rx="275" ry="275"  /> 
<ellipse cx="7500" cy="23500" rx="275" ry="275"  /> 
<ellipse cx="8500" cy="23500" rx="275" ry="275"  /> 
<ellipse cx="9500" cy="23500" rx="275" ry="275"  /> 
<ellipse cx="10500" cy="23500" rx="275" ry="275"  /> 
<ellipse cx="11500" cy="23500" rx="275" ry="275"  /> 
</g>
<g style="fill:#808000; fill-opacity:0.0; stroke:#0000C0; stroke-opacity:1.00; stroke-linecap:round; stroke-linejoin:round; stroke-width:0" 
   transform="translate(0.00 0.00) scale(1.00 1.00)">
<path d="M5498 22500 L5502 22500" /> 
<path d="M5500 22498 L5500 22502" /> 
</g>
<g style="fill:#C0C0C0; fill-opacity:0.0; stroke:#C0C0C0; stroke-opacity:1.00; stroke-linecap:round; stroke-linejoin:round; stroke-width:107" 
   transform="translate(0.00 0.00) scale(1.00 1.00)">
<path d="M4980 22775 L4980 22094" /> 
<path d="M4980 22094 L5143 22094" /> 
<path d="M5143 22094 L5184 22127" /> 
<path d="M5184 22127 L5204 22159" /> 
<path d="M5204 22159 L5224 22224" /> 
<path d="M5224 22224 L5224 22321" /> 
<path d="M5224 22321 L5204 22386" /> 
<path d="M5204 22386 L5184 22418" /> 
<path d="M5184 22418 L5143 22451" /> 
<path d="M5143 22451 L4980 22451" /> 
<g style = "stroke-linecap:round;" > 
<path d="M4980 22451 L4980 22451" /> 
</g><path d="M5632 22775 L5388 22775" /> 
<g style = "stroke-linecap:round;" > 
<path d="M5388 22775 L5388 22775" /> 
</g><path d="M5510 22775 L5510 22094" /> 
<path d="M5510 22094 L5469 22191" /> 
<path d="M5469 22191 L5428 22256" /> 
<path d="M5428 22256 L5388 22289" /> 
<g style = "stroke-linecap:round;" > 
<path d="M5388 22289 L5388 22289" /> 
</g><path d="M5897 22094 L5938 22094" /> 
<path d="M5938 22094 L5979 22127" /> 
<path d="M5979 22127 L5999 22159" /> 
<path d="M5999 22159 L6020 22224" /> 
<path d="M6020 22224 L6040 22354" /> 
<path d="M6040 22354 L6040 22516" /> 
<path d="M6040 22516 L6020 22645" /> 
<path d="M6020 22645 L5999 22710" /> 
<path d="M5999 22710 L5979 22743" /> 
<path d="M5979 22743 L5938 22775" /> 
<path d="M5938 22775 L5897 22775" /> 
<path d="M5897 22775 L5857 22743" /> 
<path d="M5857 22743 L5836 22710" /> 
<path d="M5836 22710 L5816 22645" /> 
<path d="M5816 22645 L5796 22516" /> 
<path d="M5796 22516 L5796 22354" /> 
<path d="M5796 22354 L5816 22224" /> 
<path d="M5816 22224 L5836 22159" /> 
<path d="M5836 22159 L5857 22127" /> 
<path d="M5857 22127 L5897 22094" /> 
</g>
<g style="fill:#C0C0C0; fill-opacity:0.0; stroke:#00A0A0; stroke-opacity:1.00; stroke-linecap:round; stroke-linejoin:round; stroke-width:120" 
   transform="translate(0.00 0.00) scale(1.00 1.00)">
<path d="M5000 23000 L5000 23000" /> 
<path d="M5000 23000 L12000 23000" /> 
<path d="M12000 23000 L12000 24000" /> 
<path d="M12000 24000 L5000 24000" /> 
<path d="M5000 24000 L5000 23000" /> 
<path d="M6000 24000 L6000 24000" /> 
<path d="M6000 24000 L6000 23000" /> 
</g>
<g style="fill:#808000; fill-opacity:0.0; stroke:#808000; stroke-opacity:1.00; stroke-linecap:round; stroke-linejoin:round; stroke-width:59" 
   transform="translate(0.00 0.00) scale(1.00 1.00)">
<path d="M17225 15775 L17225 15225" /> 
<path d="M17225 15225 L17775 15225" /> 
<path d="M17775 15225 L17775 15775" /> 
<path d="M17225 15775 L17775 15775" /> 
<ellipse cx="18500" cy="15500" rx="275" ry="275"  /> 
<ellipse cx="19500" cy="15500" rx="275" ry="275"  /> 
<ellipse cx="20500" cy="15500" rx="275" ry="275"  /> 
<ellipse cx="21500" cy="15500" rx="275" ry="275"  /> 
<ellipse cx="22500" cy="15500" rx="275" ry="275"  /> 
<ellipse cx="23500" cy="15500" rx="275" ry="275"  /> 
</g>
<g style="fill:#808000; fill-opacity:0.0; stroke:#0000C0; stroke-opacity:1.00; stroke-linecap:round; stroke-linejoin:round; stroke-width:0" 
   transform="translate(0.00 0.00) scale(1.00 1.00)">
<path d="M17498 14500 L17502 14500" /> 
<path d="M17500 14498 L17500 14502" /> 
</g>
<g style="fill:#C0C0C0; fill-opacity:0.0; stroke:#C0C0C0; stroke-opacity:1.00; stroke-linecap:round; stroke-linejoin:round; stroke-width:107" 
   transform="translate(0.00 0.00) scale(1.00 1.00)">
<path d="M17184 14775 L17184 14094" /> 
<path d="M17184 14094 L17347 14094" /> 
<path d="M17347 14094 L17388 14127" /> 
<path d="M17388 14127 L17408 14159" /> 
<path d="M17408 14159 L17428 14224" /> 
<path d="M17428 14224 L17428 14321" /> 
<path d="M17428 14321 L17408 14386" /> 
<path d="M17408 14386 L17388 14418" /> 
<path d="M17388 14418 L17347 14451" /> 
<path d="M17347 14451 L17184 14451" /> 
<g style = "stroke-linecap:round;" > 
<path d="M17184 14451 L17184 14451" /> 
</g><path d="M17795 14321 L17795 14775" /> 
<g style = "stroke-linecap:round;" > 
<path d="M17795 14775 L17795 14775" /> 
</g><path d="M17693 14062 L17592 14548" /> 
<path d="M17592 14548 L17856 14548" /> 
<g style = "stroke-linecap:round;" > 
<path d="M17856 14548 L17856 14548" /> 
</g></g>
<g style="fill:#C0C0C0; fill-opacity:0.0; stroke:#00A0A0; stroke-opacity:1.00; stroke-linecap:round; stroke-linejoin:round; stroke-width:120" 
   transform="translate(0.00 0.00) scale(1.00 1.00)">
<path d="M17000 15000 L17000 15000" /> 
<path d="M17000 15000 L24000 15000" /> 
<path d="M24000 15000 L24000 16000" /> 
<path d="M24000 16000 L17000 16000" /> 
<path d="M17000 16000 L17000 15000" /> 
<path d="M18000 16000 L18000 16000" /> 
<path d="M18000 16000 L18000 15000" /> 
</g>
<g style="fill:#808000; fill-opacity:0.0; stroke:#808000; stroke-opacity:1.00; stroke-linecap:round; stroke-linejoin:round; stroke-width:59" 
   transform="translate(0.00 0.00) scale(1.00 1.00)">
<path d="M5225 13775 L5225 13225" /> 
<path d="M5225 13225 L5775 13225" /> 
<path d="M5775 13225 L5775 13775" /> 
<path d="M5225 13775 L5775 13775" /> 
<ellipse cx="6500" cy="13500" rx="275" ry="275"  /> 
<ellipse cx="7500" cy="13500" rx="275" ry="275"  /> 
<ellipse cx="8500" cy="13500" rx="275" ry="275"  /> 
<ellipse cx="9500" cy="13500" rx="275" ry="275"  /> 
<ellipse cx="10500" cy="13500" rx="275" ry="275"  /> 
<ellipse cx="11500" cy="13500" rx="275" ry="275"  /> 
</g>
<g style="fill:#808000; fill-opacity:0.0; stroke:#0000C0; stroke-opacity:1.00; stroke-linecap:round; stroke-linejoin:round; stroke-width:0" 
   transform="translate(0.00 0.00) scale(1.00 1.00)">
<path d="M5498 14500 L5502 14500" /> 
<path d="M5500 14498 L5500 14502" /> 
</g>
<g style="fill:#C0C0C0; fill-opacity:0.0; stroke:#C0C0C0; stroke-opacity:1.00; stroke-linecap:round; stroke-linejoin:round; stroke-width:107" 
   transform="translate(0.00 0.00) scale(1.00 1.00)">
<path d="M4980 14775 L4980 14094" /> 
<path d="M4980 14094 L5143 14094" /> 
<path d="M5143 14094 L5184 14127" /> 
<path d="M5184 14127 L5204 14159" /> 
<path d="M5204 14159 L5224 14224" /> 
<path d="M5224 14224 L5224 14321" /> 
<path d="M5224 14321 L5204 14386" /> 
<path d="M5204 14386 L5184 14418" /> 
<path d="M5184 14418 L5143 14451" /> 
<path d="M5143 14451 L4980 14451" /> 
<g style = "stroke-linecap:round;" > 
<path d="M4980 14451 L4980 14451" /> 
</g><path d="M5632 14775 L5388 14775" /> 
<g style = "stroke-linecap:round;" > 
<path d="M5388 14775 L5388 14775" /> 
</g><path d="M5510 14775 L5510 14094" /> 
<path d="M5510 14094 L5469 14191" /> 
<path d="M5469 14191 L5428 14256" /> 
<path d="M5428 14256 L5388 14289" /> 
<g style = "stroke-linecap:round;" > 
<path d="M5388 14289 L5388 14289" /> 
</g><path d="M5775 14094 L6040 14094" /> 
<path d="M6040 14094 L5897 14354" /> 
<path d="M5897 14354 L5959 14354" /> 
<path d="M5959 14354 L5999 14386" /> 
<path d="M5999 14386 L6020 14418" /> 
<path d="M6020 14418 L6040 14483" /> 
<path d="M6040 14483 L6040 14645" /> 
<path d="M6040 14645 L6020 14710" /> 
<path d="M6020 14710 L5999 14743" /> 
<path d="M5999 14743 L5959 14775" /> 
<path d="M5959 14775 L5836 14775" /> 
<path d="M5836 14775 L5796 14743" /> 
<path d="M5796 14743 L5775 14710" /> 
<g style = "stroke-linecap:round;" > 
<path d="M5775 14710 L5775 14710" /> 
</g></g>
<g style="fill:#C0C0C0; fill-opacity:0.0; stroke:#00A0A0; stroke-opacity:1.00; stroke-linecap:round; stroke-linejoin:round; stroke-width:120" 
   transform="translate(0.00 0.00) scale(1.00 1.00)">
<path d="M5000 13000 L5000 13000" /> 
<path d="M5000 13000 L12000 13000" /> 
<path d="M12000 13000 L12000 14000" /> 
<path d="M12000 14000 L5000 14000" /> 
<path d="M5000 14000 L5000 13000" /> 
<path d="M6000 14000 L6000 14000" /> 
<path d="M6000 14000 L6000 13000" /> 
</g>
<g style="fill:#808000; fill-opacity:0.0; stroke:#808000; stroke-opacity:1.00; stroke-linecap:round; stroke-linejoin:round; stroke-width:59" 
   transform="translate(0.00 0.00) scale(1.00 1.00)">
<path d="M5225 19775 L5225 19225" /> 
<path d="M5225 19225 L5775 19225" /> 
<path d="M5775 19225 L5775 19775" /> 
<path d="M5225 19775 L5775 19775" /> 
<ellipse cx="6500" cy="19500" rx="275" ry="275"  /> 
<ellipse cx="7500" cy="19500" rx="275" ry="275"  /> 
<ellipse cx="8500" cy="19500" rx="275" ry="275"  /> 
<ellipse cx="9500" cy="19500" rx="275" ry="275"  /> 
<ellipse cx="10500" cy="19500" rx="275" ry="275"  /> 
<ellipse cx="11500" cy="19500" rx="275" ry="275"  /> 
</g>
<g style="fill:#808000; fill-opacity:0.0; stroke:#0000C0; stroke-opacity:1.00; stroke-linecap:round; stroke-linejoin:round; stroke-width:0" 
   transform="translate(0.00 0.00) scale(1.00 1.00)">
<path d="M5498 20500 L5502 20500" /> 
<path d="M5500 20498 L5500 20502" /> 
</g>
<g style="fill:#C0C0C0; fill-opacity:0.0; stroke:#C0C0C0; stroke-opacity:1.00; stroke-linecap:round; stroke-linejoin:round; stroke-width:107" 
   transform="translate(0.00 0.00) scale(1.00 1.00)">
<path d="M4980 20775 L4980 20094" /> 
<path d="M4980 20094 L5143 20094" /> 
<path d="M5143 20094 L5184 20127" /> 
<path d="M5184 20127 L5204 20159" /> 
<path d="M5204 20159 L5224 20224" /> 
<path d="M5224 20224 L5224 20321" /> 
<path d="M5224 20321 L5204 20386" /> 
<path d="M5204 20386 L5184 20418" /> 
<path d="M5184 20418 L5143 20451" /> 
<path d="M5143 20451 L4980 20451" /> 
<g style = "stroke-linecap:round;" > 
<path d="M4980 20451 L4980 20451" /> 
</g><path d="M5632 20775 L5388 20775" /> 
<g style = "stroke-linecap:round;" > 
<path d="M5388 20775 L5388 20775" /> 
</g><path d="M5510 20775 L5510 20094" /> 
<path d="M5510 20094 L5469 20191" /> 
<path d="M5469 20191 L5428 20256" /> 
<path d="M5428 20256 L5388 20289" /> 
<g style = "stroke-linecap:round;" > 
<path d="M5388 20289 L5388 20289" /> 
</g><path d="M5999 20321 L5999 20775" /> 
<g style = "stroke-linecap:round;" > 
<path d="M5999 20775 L5999 20775" /> 
</g><path d="M5897 20062 L5796 20548" /> 
<path d="M5796 20548 L6060 20548" /> 
<g style = "stroke-linecap:round;" > 
<path d="M6060 20548 L6060 20548" /> 
</g></g>
<g style="fill:#C0C0C0; fill-opacity:0.0; stroke:#00A0A0; stroke-opacity:1.00; stroke-linecap:round; stroke-linejoin:round; stroke-width:120" 
   transform="translate(0.00 0.00) scale(1.00 1.00)">
<path d="M5000 19000 L5000 19000" /> 
<path d="M5000 19000 L12000 19000" /> 
<path d="M12000 19000 L12000 20000" /> 
<path d="M12000 20000 L5000 20000" /> 
<path d="M5000 20000 L5000 19000" /> 
<path d="M6000 20000 L6000 20000" /> 
<path d="M6000 20000 L6000 19000" /> 
</g>
<g style="fill:#808000; fill-opacity:0.0; stroke:#808000; stroke-opacity:1.00; stroke-linecap:round; stroke-linejoin:round; stroke-width:59" 
   transform="translate(0.00 0.00) scale(1.00 1.00)">
<path d="M17225 9775 L17225 9225" /> 
<path d="M17225 9225 L17775 9225" /> 
<path d="M17775 9225 L17775 9775" /> 
<path d="M17225 9775 L17775 9775" /> 
<ellipse cx="18500" cy="9500" rx="275" ry="275"  /> 
<ellipse cx="19500" cy="9500" rx="275" ry="275"  /> 
<ellipse cx="20500" cy="9500" rx="275" ry="275"  /> 
<ellipse cx="21500" cy="9500" rx="275" ry="275"  /> 
<ellipse cx="22500" cy="9500" rx="275" ry="275"  /> 
<ellipse cx="23500" cy="9500" rx="275" ry="275"  /> 
</g>
<g style="fill:#808000; fill-opacity:0.0; stroke:#0000C0; stroke-opacity:1.00; stroke-linecap:round; stroke-linejoin:round; stroke-width:0" 
   transform="translate(0.00 0.00) scale(1.00 1.00)">
<path d="M17498 8500 L17502 8500" /> 
<path d="M17500 8498 L17500 8502" /> 
</g>
<g style="fill:#C0C0C0; fill-opacity:0.0; stroke:#C0C0C0; stroke-opacity:1.00; stroke-linecap:round; stroke-linejoin:round; stroke-width:107" 
   transform="translate(0.00 0.00) scale(1.00 1.00)">
<path d="M17184 8775 L17184 8094" /> 
<path d="M17184 8094 L17347 8094" /> 
<path d="M17347 8094 L17388 8127" /> 
<path d="M17388 8127 L17408 8159" /> 
<path d="M17408 8159 L17428 8224" /> 
<path d="M17428 8224 L17428 8321" /> 
<path d="M17428 8321 L17408 8386" /> 
<path d="M17408 8386 L17388 8418" /> 
<path d="M17388 8418 L17347 8451" /> 
<path d="M17347 8451 L17184 8451" /> 
<g style = "stroke-linecap:round;" > 
<path d="M17184 8451 L17184 8451" /> 
</g><path d="M17571 8094 L17836 8094" /> 
<path d="M17836 8094 L17693 8354" /> 
<path d="M17693 8354 L17755 8354" /> 
<path d="M17755 8354 L17795 8386" /> 
<path d="M17795 8386 L17816 8418" /> 
<path d="M17816 8418 L17836 8483" /> 
<path d="M17836 8483 L17836 8645" /> 
<path d="M17836 8645 L17816 8710" /> 
<path d="M17816 8710 L17795 8743" /> 
<path d="M17795 8743 L17755 8775" /> 
<path d="M17755 8775 L17632 8775" /> 
<path d="M17632 8775 L17592 8743" /> 
<path d="M17592 8743 L17571 8710" /> 
<g style = "stroke-linecap:round;" > 
<path d="M17571 8710 L17571 8710" /> 
</g></g>
<g style="fill:#C0C0C0; fill-opacity:0.0; stroke:#00A0A0; stroke-opacity:1.00; stroke-linecap:round; stroke-linejoin:round; stroke-width:120" 
   transform="translate(0.00 0.00) scale(1.00 1.00)">
<path d="M17000 9000 L17000 9000" /> 
<path d="M17000 9000 L24000 9000" /> 
<path d="M24000 9000 L24000 10000" /> 
<path d="M24000 10000 L17000 10000" /> 
<path d="M17000 10000 L17000 9000" /> 
<path d="M18000 10000 L18000 10000" /> 
<path d="M18000 10000 L18000 9000" /> 
</g>
<g style="fill:#C0C0C0; fill-opacity:0.0; stroke:#0000C0; stroke-opacity:1.00; stroke-linecap:round; stroke-linejoin:round; stroke-width:0" 
   transform="translate(0.00 0.00) scale(1.00 1.00)">
<path d="M20498 13200 L20502 13200" /> 
<path d="M20500 13198 L20500 13202" /> 
</g>
<g style="fill:#C0C0C0; fill-opacity:0.0; stroke:#C0C0C0; stroke-opacity:1.00; stroke-linecap:round; stroke-linejoin:round; stroke-width:50" 
   transform="translate(0.00 0.00) scale(1.00 1.00)">
<path d="M20168 13362 L20168 12962" /> 
<path d="M20168 12962 L20340 12962" /> 
<path d="M20340 12962 L20382 12981" /> 
<path d="M20382 12981 L20404 13000" /> 
<path d="M20404 13000 L20425 13038" /> 
<path d="M20425 13038 L20425 13095" /> 
<path d="M20425 13095 L20404 13133" /> 
<path d="M20404 13133 L20382 13152" /> 
<path d="M20382 13152 L20340 13171" /> 
<path d="M20340 13171 L20168 13171" /> 
<g style = "stroke-linecap:round;" > 
<path d="M20168 13171 L20168 13171" /> 
</g><path d="M20811 12962 L20725 12962" /> 
<path d="M20725 12962 L20682 12981" /> 
<path d="M20682 12981 L20661 13000" /> 
<path d="M20661 13000 L20618 13057" /> 
<path d="M20618 13057 L20597 13133" /> 
<path d="M20597 13133 L20597 13286" /> 
<path d="M20597 13286 L20618 13324" /> 
<path d="M20618 13324 L20640 13343" /> 
<path d="M20640 13343 L20682 13362" /> 
<path d="M20682 13362 L20768 13362" /> 
<path d="M20768 13362 L20811 13343" /> 
<path d="M20811 13343 L20832 13324" /> 
<path d="M20832 13324 L20854 13286" /> 
<path d="M20854 13286 L20854 13190" /> 
<path d="M20854 13190 L20832 13152" /> 
<path d="M20832 13152 L20811 13133" /> 
<path d="M20811 13133 L20768 13114" /> 
<path d="M20768 13114 L20682 13114" /> 
<path d="M20682 13114 L20640 13133" /> 
<path d="M20640 13133 L20618 13152" /> 
<path d="M20618 13152 L20597 13190" /> 
<g style = "stroke-linecap:round;" > 
<path d="M20597 13190 L20597 13190" /> 
</g></g>
<g style="fill:#C0C0C0; fill-opacity:0.0; stroke:#0000C0; stroke-opacity:1.00; stroke-linecap:round; stroke-linejoin:round; stroke-width:0" 
   transform="translate(0.00 0.00) scale(1.00 1.00)">
<path d="M20498 14000 L20502 14000" /> 
<path d="M20500 13998 L20500 14002" /> 
</g>
<g style="fill:#C0C0C0; fill-opacity:0.0; stroke:#C0C0C0; stroke-opacity:1.00; stroke-linecap:round; stroke-linejoin:round; stroke-width:50" 
   transform="translate(0.00 0.00) scale(1.00 1.00)">
<path d="M19757 14162 L19757 13762" /> 
<path d="M19757 13762 L19852 13762" /> 
<path d="M19852 13762 L19910 13781" /> 
<path d="M19910 13781 L19948 13819" /> 
<path d="M19948 13819 L19967 13857" /> 
<path d="M19967 13857 L19986 13933" /> 
<path d="M19986 13933 L19986 13990" /> 
<path d="M19986 13990 L19967 14067" /> 
<path d="M19967 14067 L19948 14105" /> 
<path d="M19948 14105 L19910 14143" /> 
<path d="M19910 14143 L19852 14162" /> 
<path d="M19852 14162 L19757 14162" /> 
<path d="M20157 14162 L20157 13762" /> 
<g style = "stroke-linecap:round;" > 
<path d="M20157 13762 L20157 13762" /> 
</g><path d="M20538 14162 L20347 14162" /> 
<path d="M20347 14162 L20347 13762" /> 
<g style = "stroke-linecap:round;" > 
<path d="M20347 13762 L20347 13762" /> 
</g><path d="M20881 14162 L20652 14162" /> 
<g style = "stroke-linecap:round;" > 
<path d="M20652 14162 L20652 14162" /> 
</g><path d="M20766 14162 L20766 13762" /> 
<path d="M20766 13762 L20728 13819" /> 
<path d="M20728 13819 L20690 13857" /> 
<path d="M20690 13857 L20652 13876" /> 
<g style = "stroke-linecap:round;" > 
<path d="M20652 13876 L20652 13876" /> 
</g><path d="M21224 13895 L21224 14162" /> 
<g style = "stroke-linecap:round;" > 
<path d="M21224 14162 L21224 14162" /> 
</g><path d="M21128 13743 L21033 14029" /> 
<path d="M21033 14029 L21281 14029" /> 
<g style = "stroke-linecap:round;" > 
<path d="M21281 14029 L21281 14029" /> 
</g></g>
<g style="fill:#C0C0C0; fill-opacity:0.0; stroke:#00A0A0; stroke-opacity:1.00; stroke-linecap:round; stroke-linejoin:round; stroke-width:80" 
   transform="translate(0.00 0.00) scale(1.00 1.00)">
<path d="M18600 12800 L22400 12800" /> 
<path d="M22400 12800 L22400 14300" /> 
<path d="M22400 14300 L18600 14300" /> 
<path d="M18600 14300 L18600 12800" /> 
<path d="M18600 13300 L18900 13300" /> 
<path d="M18900 13300 L18900 13700" /> 
<path d="M18900 13700 L18600 13700" /> 
</g>
<g style="fill:#808000; fill-opacity:0.0; stroke:#808000; stroke-opacity:1.00; stroke-linecap:round; stroke-linejoin:round; stroke-width:59" 
   transform="translate(0.00 0.00) scale(1.00 1.00)">
<path d="M17225 5775 L17225 5225" /> 
<path d="M17225 5225 L17775 5225" /> 
<path d="M17775 5225 L17775 5775" /> 
<path d="M17225 5775 L17775 5775" /> 
<ellipse cx="18500" cy="5500" rx="275" ry="275"  /> 
<ellipse cx="19500" cy="5500" rx="275" ry="275"  /> 
<ellipse cx="20500" cy="5500" rx="275" ry="275"  /> 
<ellipse cx="21500" cy="5500" rx="275" ry="275"  /> 
<ellipse cx="22500" cy="5500" rx="275" ry="275"  /> 
<ellipse cx="23500" cy="5500" rx="275" ry="275"  /> 
</g>
<g style="fill:#808000; fill-opacity:0.0; stroke:#0000C0; stroke-opacity:1.00; stroke-linecap:round; stroke-linejoin:round; stroke-width:0" 
   transform="translate(0.00 0.00) scale(1.00 1.00)">
<path d="M17498 6500 L17502 6500" /> 
<path d="M17500 6498 L17500 6502" /> 
</g>
<g style="fill:#C0C0C0; fill-opacity:0.0; stroke:#C0C0C0; stroke-opacity:1.00; stroke-linecap:round; stroke-linejoin:round; stroke-width:107" 
   transform="translate(0.00 0.00) scale(1.00 1.00)">
<path d="M17184 6775 L17184 6094" /> 
<path d="M17184 6094 L17347 6094" /> 
<path d="M17347 6094 L17388 6127" /> 
<path d="M17388 6127 L17408 6159" /> 
<path d="M17408 6159 L17428 6224" /> 
<path d="M17428 6224 L17428 6321" /> 
<path d="M17428 6321 L17408 6386" /> 
<path d="M17408 6386 L17388 6418" /> 
<path d="M17388 6418 L17347 6451" /> 
<path d="M17347 6451 L17184 6451" /> 
<g style = "stroke-linecap:round;" > 
<path d="M17184 6451 L17184 6451" /> 
</g><path d="M17571 6094 L17856 6094" /> 
<path d="M17856 6094 L17673 6775" /> 
<g style = "stroke-linecap:round;" > 
<path d="M17673 6775 L17673 6775" /> 
</g></g>
<g style="fill:#C0C0C0; fill-opacity:0.0; stroke:#00A0A0; stroke-opacity:1.00; stroke-linecap:round; stroke-linejoin:round; stroke-width:120" 
   transform="translate(0.00 0.00) scale(1.00 1.00)">
<path d="M17000 5000 L17000 5000" /> 
<path d="M17000 5000 L24000 5000" /> 
<path d="M24000 5000 L24000 6000" /> 
<path d="M24000 6000 L17000 6000" /> 
<path d="M17000 6000 L17000 5000" /> 
<path d="M18000 6000 L18000 6000" /> 
<path d="M18000 6000 L18000 5000" /> 
</g>
<g style="fill:#C0C0C0; fill-opacity:0.0; stroke:#0000C0; stroke-opacity:1.00; stroke-linecap:round; stroke-linejoin:round; stroke-width:0" 
   transform="translate(0.00 0.00) scale(1.00 1.00)">
<path d="M8498 21200 L8502 21200" /> 
<path d="M8500 21198 L8500 21202" /> 
</g>
<g style="fill:#C0C0C0; fill-opacity:0.0; stroke:#C0C0C0; stroke-opacity:1.00; stroke-linecap:round; stroke-linejoin:round; stroke-width:50" 
   transform="translate(0.00 0.00) scale(1.00 1.00)">
<path d="M7953 21362 L7953 20962" /> 
<path d="M7953 20962 L8125 20962" /> 
<path d="M8125 20962 L8167 20981" /> 
<path d="M8167 20981 L8189 21000" /> 
<path d="M8189 21000 L8210 21038" /> 
<path d="M8210 21038 L8210 21095" /> 
<path d="M8210 21095 L8189 21133" /> 
<path d="M8189 21133 L8167 21152" /> 
<path d="M8167 21152 L8125 21171" /> 
<path d="M8125 21171 L7953 21171" /> 
<g style = "stroke-linecap:round;" > 
<path d="M7953 21171 L7953 21171" /> 
</g><path d="M8639 21362 L8382 21362" /> 
<g style = "stroke-linecap:round;" > 
<path d="M8382 21362 L8382 21362" /> 
</g><path d="M8510 21362 L8510 20962" /> 
<path d="M8510 20962 L8467 21019" /> 
<path d="M8467 21019 L8425 21057" /> 
<path d="M8425 21057 L8382 21076" /> 
<g style = "stroke-linecap:round;" > 
<path d="M8382 21076 L8382 21076" /> 
</g><path d="M8811 21000 L8832 20981" /> 
<path d="M8832 20981 L8875 20962" /> 
<path d="M8875 20962 L8982 20962" /> 
<path d="M8982 20962 L9025 20981" /> 
<path d="M9025 20981 L9046 21000" /> 
<path d="M9046 21000 L9068 21038" /> 
<path d="M9068 21038 L9068 21076" /> 
<path d="M9068 21076 L9046 21133" /> 
<path d="M9046 21133 L8789 21362" /> 
<path d="M8789 21362 L9068 21362" /> 
<g style = "stroke-linecap:round;" > 
<path d="M9068 21362 L9068 21362" /> 
</g></g>
<g style="fill:#C0C0C0; fill-opacity:0.0; stroke:#0000C0; stroke-opacity:1.00; stroke-linecap:round; stroke-linejoin:round; stroke-width:0" 
   transform="translate(0.00 0.00) scale(1.00 1.00)">
<path d="M8498 21900 L8502 21900" /> 
<path d="M8500 21898 L8500 21902" /> 
</g>
<g style="fill:#C0C0C0; fill-opacity:0.0; stroke:#C0C0C0; stroke-opacity:1.00; stroke-linecap:round; stroke-linejoin:round; stroke-width:50" 
   transform="translate(0.00 0.00) scale(1.00 1.00)">
<path d="M7757 22062 L7757 21662" /> 
<path d="M7757 21662 L7852 21662" /> 
<path d="M7852 21662 L7910 21681" /> 
<path d="M7910 21681 L7948 21719" /> 
<path d="M7948 21719 L7967 21757" /> 
<path d="M7967 21757 L7986 21833" /> 
<path d="M7986 21833 L7986 21890" /> 
<path d="M7986 21890 L7967 21967" /> 
<path d="M7967 21967 L7948 22005" /> 
<path d="M7948 22005 L7910 22043" /> 
<path d="M7910 22043 L7852 22062" /> 
<path d="M7852 22062 L7757 22062" /> 
<path d="M8157 22062 L8157 21662" /> 
<g style = "stroke-linecap:round;" > 
<path d="M8157 21662 L8157 21662" /> 
</g><path d="M8538 22062 L8347 22062" /> 
<path d="M8347 22062 L8347 21662" /> 
<g style = "stroke-linecap:round;" > 
<path d="M8347 21662 L8347 21662" /> 
</g><path d="M8881 22062 L8652 22062" /> 
<g style = "stroke-linecap:round;" > 
<path d="M8652 22062 L8652 22062" /> 
</g><path d="M8766 22062 L8766 21662" /> 
<path d="M8766 21662 L8728 21719" /> 
<path d="M8728 21719 L8690 21757" /> 
<path d="M8690 21757 L8652 21776" /> 
<g style = "stroke-linecap:round;" > 
<path d="M8652 21776 L8652 21776" /> 
</g><path d="M9224 21795 L9224 22062" /> 
<g style = "stroke-linecap:round;" > 
<path d="M9224 22062 L9224 22062" /> 
</g><path d="M9128 21643 L9033 21929" /> 
<path d="M9033 21929 L9281 21929" /> 
<g style = "stroke-linecap:round;" > 
<path d="M9281 21929 L9281 21929" /> 
</g></g>
<g style="fill:#C0C0C0; fill-opacity:0.0; stroke:#00A0A0; stroke-opacity:1.00; stroke-linecap:round; stroke-linejoin:round; stroke-width:80" 
   transform="translate(0.00 0.00) scale(1.00 1.00)">
<path d="M6600 20800 L10400 20800" /> 
<path d="M10400 20800 L10400 22300" /> 
<path d="M10400 22300 L6600 22300" /> 
<path d="M6600 22300 L6600 20800" /> 
<path d="M6600 21300 L6900 21300" /> 
<path d="M6900 21300 L6900 21700" /> 
<path d="M6900 21700 L6600 21700" /> 
</g> 
</svg> 
