G04 (created by PCBNEW-RS274X (2011-12-28 BZR 3254)-stable) date 2012. 03. 05. 18:39:53*
G01*
G70*
G90*
%MOIN*%
G04 Gerber Fmt 3.4, Leading zero omitted, Abs format*
%FSLAX34Y34*%
G04 APERTURE LIST*
%ADD10C,0.006000*%
%ADD11R,0.020000X0.050000*%
%ADD12R,0.055000X0.055000*%
%ADD13C,0.055000*%
%ADD14R,0.020000X0.045000*%
%ADD15C,0.035000*%
%ADD16C,0.008000*%
%ADD17C,0.010000*%
G04 APERTURE END LIST*
G54D10*
G54D11*
X12250Y-06600D03*
X11750Y-06600D03*
X11250Y-06600D03*
X10750Y-06600D03*
X10250Y-06600D03*
X09750Y-06600D03*
X09250Y-06600D03*
X08750Y-06600D03*
X08250Y-06600D03*
X07750Y-06600D03*
X07750Y-10400D03*
X08250Y-10400D03*
X08750Y-10400D03*
X09250Y-10400D03*
X09750Y-10400D03*
X10250Y-10400D03*
X10750Y-10400D03*
X11250Y-10400D03*
X11750Y-10400D03*
X12250Y-10400D03*
X21250Y-18600D03*
X20750Y-18600D03*
X20250Y-18600D03*
X19750Y-18600D03*
X19250Y-18600D03*
X18750Y-18600D03*
X18250Y-18600D03*
X17750Y-18600D03*
X17250Y-18600D03*
X16750Y-18600D03*
X16750Y-22400D03*
X17250Y-22400D03*
X17750Y-22400D03*
X18250Y-22400D03*
X18750Y-22400D03*
X19250Y-22400D03*
X19750Y-22400D03*
X20250Y-22400D03*
X20750Y-22400D03*
X21250Y-22400D03*
G54D12*
X05500Y-11500D03*
G54D13*
X06500Y-11500D03*
X07500Y-11500D03*
X08500Y-11500D03*
X09500Y-11500D03*
X10500Y-11500D03*
X11500Y-11500D03*
X12500Y-11500D03*
X13500Y-11500D03*
X14500Y-11500D03*
G54D12*
X05500Y-05500D03*
G54D13*
X06500Y-05500D03*
X07500Y-05500D03*
X08500Y-05500D03*
X09500Y-05500D03*
X10500Y-05500D03*
X11500Y-05500D03*
X12500Y-05500D03*
X13500Y-05500D03*
X14500Y-05500D03*
G54D12*
X14500Y-23500D03*
G54D13*
X15500Y-23500D03*
X16500Y-23500D03*
X17500Y-23500D03*
X18500Y-23500D03*
X19500Y-23500D03*
X20500Y-23500D03*
X21500Y-23500D03*
X22500Y-23500D03*
X23500Y-23500D03*
G54D12*
X14500Y-17500D03*
G54D13*
X15500Y-17500D03*
X16500Y-17500D03*
X17500Y-17500D03*
X18500Y-17500D03*
X19500Y-17500D03*
X20500Y-17500D03*
X21500Y-17500D03*
X22500Y-17500D03*
X23500Y-17500D03*
G54D14*
X19000Y-08600D03*
X19500Y-08600D03*
X20000Y-08600D03*
X20500Y-08600D03*
X21000Y-08600D03*
X21500Y-08600D03*
X22000Y-08600D03*
X22000Y-06500D03*
X21500Y-06500D03*
X21000Y-06500D03*
X20500Y-06500D03*
X20000Y-06500D03*
X19500Y-06500D03*
X19000Y-06500D03*
X07000Y-16600D03*
X07500Y-16600D03*
X08000Y-16600D03*
X08500Y-16600D03*
X09000Y-16600D03*
X09500Y-16600D03*
X10000Y-16600D03*
X10000Y-14500D03*
X09500Y-14500D03*
X09000Y-14500D03*
X08500Y-14500D03*
X08000Y-14500D03*
X07500Y-14500D03*
X07000Y-14500D03*
G54D12*
X17500Y-11500D03*
G54D13*
X18500Y-11500D03*
X19500Y-11500D03*
X20500Y-11500D03*
X21500Y-11500D03*
X22500Y-11500D03*
X23500Y-11500D03*
G54D12*
X05500Y-17500D03*
G54D13*
X06500Y-17500D03*
X07500Y-17500D03*
X08500Y-17500D03*
X09500Y-17500D03*
X10500Y-17500D03*
X11500Y-17500D03*
G54D12*
X05500Y-23500D03*
G54D13*
X06500Y-23500D03*
X07500Y-23500D03*
X08500Y-23500D03*
X09500Y-23500D03*
X10500Y-23500D03*
X11500Y-23500D03*
G54D12*
X17500Y-15500D03*
G54D13*
X18500Y-15500D03*
X19500Y-15500D03*
X20500Y-15500D03*
X21500Y-15500D03*
X22500Y-15500D03*
X23500Y-15500D03*
G54D12*
X05500Y-13500D03*
G54D13*
X06500Y-13500D03*
X07500Y-13500D03*
X08500Y-13500D03*
X09500Y-13500D03*
X10500Y-13500D03*
X11500Y-13500D03*
G54D12*
X05500Y-19500D03*
G54D13*
X06500Y-19500D03*
X07500Y-19500D03*
X08500Y-19500D03*
X09500Y-19500D03*
X10500Y-19500D03*
X11500Y-19500D03*
G54D12*
X17500Y-09500D03*
G54D13*
X18500Y-09500D03*
X19500Y-09500D03*
X20500Y-09500D03*
X21500Y-09500D03*
X22500Y-09500D03*
X23500Y-09500D03*
G54D14*
X19000Y-14600D03*
X19500Y-14600D03*
X20000Y-14600D03*
X20500Y-14600D03*
X21000Y-14600D03*
X21500Y-14600D03*
X22000Y-14600D03*
X22000Y-12500D03*
X21500Y-12500D03*
X21000Y-12500D03*
X20500Y-12500D03*
X20000Y-12500D03*
X19500Y-12500D03*
X19000Y-12500D03*
G54D12*
X17500Y-05500D03*
G54D13*
X18500Y-05500D03*
X19500Y-05500D03*
X20500Y-05500D03*
X21500Y-05500D03*
X22500Y-05500D03*
X23500Y-05500D03*
G54D14*
X07000Y-22600D03*
X07500Y-22600D03*
X08000Y-22600D03*
X08500Y-22600D03*
X09000Y-22600D03*
X09500Y-22600D03*
X10000Y-22600D03*
X10000Y-20500D03*
X09500Y-20500D03*
X09000Y-20500D03*
X08500Y-20500D03*
X08000Y-20500D03*
X07500Y-20500D03*
X07000Y-20500D03*
G54D15*
X19500Y-07900D03*
X20250Y-21500D03*
X19500Y-07200D03*
X21500Y-07200D03*
X21500Y-07900D03*
X11250Y-09500D03*
X07750Y-08000D03*
X11250Y-07500D03*
X07750Y-09000D03*
X20250Y-19500D03*
X16750Y-20000D03*
X12250Y-08000D03*
X08750Y-07500D03*
X12250Y-09000D03*
X08750Y-09500D03*
X17750Y-21500D03*
X16750Y-21000D03*
X21250Y-20000D03*
X17750Y-19500D03*
X21250Y-21000D03*
X19500Y-13200D03*
X19500Y-13900D03*
X21500Y-13900D03*
X09500Y-21100D03*
X21500Y-13200D03*
X07500Y-21100D03*
X07500Y-22000D03*
X09500Y-22000D03*
X09500Y-15900D03*
X07500Y-15900D03*
X07500Y-15200D03*
X09500Y-15200D03*
G54D16*
X20000Y-09000D02*
X19500Y-09500D01*
X20000Y-08600D02*
X20000Y-09000D01*
X20500Y-08600D02*
X20500Y-09500D01*
X21000Y-08600D02*
X21000Y-09000D01*
X21000Y-09000D02*
X21500Y-09500D01*
X19500Y-08600D02*
X19500Y-07900D01*
X19000Y-08600D02*
X19000Y-08000D01*
X19000Y-08000D02*
X18750Y-07750D01*
X18750Y-07750D02*
X18000Y-07750D01*
X18000Y-07750D02*
X17500Y-08250D01*
X17500Y-08250D02*
X17500Y-09500D01*
X20250Y-22400D02*
X20250Y-21500D01*
X19250Y-23250D02*
X19500Y-23500D01*
X19250Y-22400D02*
X19250Y-23250D01*
X19000Y-06500D02*
X19000Y-07000D01*
X17500Y-06750D02*
X17500Y-05500D01*
X18000Y-07250D02*
X17500Y-06750D01*
X18750Y-07250D02*
X18000Y-07250D01*
X19000Y-07000D02*
X18750Y-07250D01*
X19500Y-06500D02*
X19500Y-07200D01*
X20000Y-06500D02*
X20000Y-06000D01*
X20000Y-06000D02*
X19500Y-05500D01*
X20500Y-06500D02*
X20500Y-05500D01*
X21000Y-06500D02*
X21000Y-06000D01*
X21000Y-06000D02*
X21500Y-05500D01*
X21500Y-06500D02*
X21500Y-07200D01*
X22000Y-06500D02*
X22000Y-07000D01*
X22250Y-07250D02*
X23000Y-07250D01*
X23000Y-07250D02*
X23500Y-06750D01*
X23500Y-06750D02*
X23500Y-05500D01*
X22000Y-07000D02*
X22250Y-07250D01*
X22000Y-08600D02*
X22000Y-08000D01*
X23500Y-08250D02*
X23500Y-09500D01*
X23000Y-07750D02*
X23500Y-08250D01*
X22250Y-07750D02*
X23000Y-07750D01*
X22000Y-08000D02*
X22250Y-07750D01*
X21500Y-08600D02*
X21500Y-07900D01*
X12250Y-06600D02*
X12250Y-07250D01*
X14500Y-07000D02*
X14500Y-05500D01*
X14000Y-07500D02*
X14500Y-07000D01*
X12500Y-07500D02*
X14000Y-07500D01*
X12250Y-07250D02*
X12500Y-07500D01*
X09250Y-10400D02*
X09250Y-10750D01*
X09250Y-10750D02*
X08500Y-11500D01*
X10250Y-10400D02*
X10250Y-11250D01*
X10250Y-11250D02*
X10500Y-11500D01*
X11250Y-10400D02*
X11250Y-09500D01*
X12500Y-09500D02*
X14000Y-09500D01*
X12250Y-10400D02*
X12250Y-09750D01*
X12250Y-09750D02*
X12500Y-09500D01*
X14500Y-10000D02*
X14500Y-11500D01*
X14000Y-09500D02*
X14500Y-10000D01*
X08250Y-07500D02*
X07750Y-08000D01*
X08250Y-06600D02*
X08250Y-07500D01*
X09250Y-06250D02*
X08500Y-05500D01*
X09250Y-06600D02*
X09250Y-06250D01*
X10250Y-06600D02*
X10250Y-05750D01*
X10250Y-05750D02*
X10500Y-05500D01*
X11250Y-06600D02*
X11250Y-07500D01*
X08250Y-09500D02*
X07750Y-09000D01*
X08250Y-10400D02*
X08250Y-09500D01*
X21250Y-19250D02*
X21500Y-19500D01*
X21500Y-19500D02*
X23000Y-19500D01*
X23000Y-19500D02*
X23500Y-19000D01*
X23500Y-19000D02*
X23500Y-17500D01*
X21250Y-18600D02*
X21250Y-19250D01*
X20250Y-18600D02*
X20250Y-19500D01*
X19250Y-18600D02*
X19250Y-17750D01*
X19250Y-17750D02*
X19500Y-17500D01*
X18250Y-18600D02*
X18250Y-18250D01*
X18250Y-18250D02*
X17500Y-17500D01*
X17250Y-19500D02*
X16750Y-20000D01*
X17250Y-18600D02*
X17250Y-19500D01*
X21250Y-22400D02*
X21250Y-21750D01*
X23500Y-22000D02*
X23500Y-23500D01*
X23000Y-21500D02*
X23500Y-22000D01*
X21500Y-21500D02*
X23000Y-21500D01*
X21250Y-21750D02*
X21500Y-21500D01*
X10750Y-06250D02*
X11500Y-05500D01*
X10750Y-06600D02*
X10750Y-06250D01*
X11750Y-07500D02*
X12250Y-08000D01*
X11750Y-06600D02*
X11750Y-07500D01*
X09750Y-06600D02*
X09750Y-05750D01*
X09750Y-05750D02*
X09500Y-05500D01*
X08750Y-06600D02*
X08750Y-07500D01*
X07750Y-06600D02*
X07750Y-07250D01*
X07750Y-07250D02*
X07500Y-07500D01*
X07500Y-07500D02*
X06000Y-07500D01*
X05500Y-07000D02*
X05500Y-05500D01*
X06000Y-07500D02*
X05500Y-07000D01*
X11750Y-10400D02*
X11750Y-09500D01*
X11750Y-09500D02*
X12250Y-09000D01*
X10750Y-10400D02*
X10750Y-10750D01*
X10750Y-10750D02*
X11500Y-11500D01*
X09750Y-11250D02*
X09500Y-11500D01*
X09750Y-10400D02*
X09750Y-11250D01*
X08750Y-10400D02*
X08750Y-09500D01*
X06000Y-09500D02*
X05500Y-10000D01*
X07750Y-10400D02*
X07750Y-09750D01*
X07750Y-09750D02*
X07500Y-09500D01*
X07500Y-09500D02*
X06000Y-09500D01*
X05500Y-10000D02*
X05500Y-11500D01*
X18750Y-22400D02*
X18750Y-23250D01*
X18750Y-23250D02*
X18500Y-23500D01*
X18250Y-22750D02*
X17500Y-23500D01*
X18250Y-22400D02*
X18250Y-22750D01*
X17750Y-22400D02*
X17750Y-21500D01*
X17250Y-22400D02*
X17250Y-21500D01*
X17250Y-21500D02*
X16750Y-21000D01*
X16500Y-21500D02*
X15000Y-21500D01*
X14500Y-22000D02*
X14500Y-23500D01*
X15000Y-21500D02*
X14500Y-22000D01*
X16750Y-22400D02*
X16750Y-21750D01*
X16750Y-21750D02*
X16500Y-21500D01*
X19750Y-22400D02*
X19750Y-22750D01*
X19750Y-22750D02*
X20500Y-23500D01*
X20750Y-19500D02*
X21250Y-20000D01*
X20750Y-18600D02*
X20750Y-19500D01*
X19750Y-18600D02*
X19750Y-18250D01*
X19750Y-18250D02*
X20500Y-17500D01*
X18750Y-18600D02*
X18750Y-17750D01*
X18750Y-17750D02*
X18500Y-17500D01*
X17750Y-18600D02*
X17750Y-19500D01*
X16500Y-19500D02*
X15000Y-19500D01*
X16750Y-19250D02*
X16500Y-19500D01*
X15000Y-19500D02*
X14500Y-19000D01*
X14500Y-19000D02*
X14500Y-17500D01*
X16750Y-18600D02*
X16750Y-19250D01*
X20750Y-22400D02*
X20750Y-21500D01*
X20750Y-21500D02*
X21250Y-21000D01*
X19000Y-13000D02*
X18750Y-13250D01*
X18750Y-13250D02*
X18000Y-13250D01*
X18000Y-13250D02*
X17500Y-12750D01*
X17500Y-12750D02*
X17500Y-11500D01*
X19000Y-12500D02*
X19000Y-13000D01*
X19500Y-12500D02*
X19500Y-13200D01*
X22000Y-14600D02*
X22000Y-14000D01*
X23500Y-14250D02*
X23500Y-15500D01*
X23000Y-13750D02*
X23500Y-14250D01*
X22250Y-13750D02*
X23000Y-13750D01*
X22000Y-14000D02*
X22250Y-13750D01*
X21000Y-14600D02*
X21000Y-15000D01*
X21000Y-15000D02*
X21500Y-15500D01*
X20000Y-14600D02*
X20000Y-15000D01*
X20000Y-15000D02*
X19500Y-15500D01*
X19000Y-14600D02*
X19000Y-14000D01*
X17500Y-14250D02*
X17500Y-15500D01*
X18000Y-13750D02*
X17500Y-14250D01*
X18750Y-13750D02*
X18000Y-13750D01*
X19000Y-14000D02*
X18750Y-13750D01*
X19500Y-14600D02*
X19500Y-13900D01*
X20500Y-14600D02*
X20500Y-15500D01*
X21500Y-14600D02*
X21500Y-13900D01*
X20500Y-12500D02*
X20500Y-11500D01*
X20000Y-12500D02*
X20000Y-12000D01*
X20000Y-12000D02*
X19500Y-11500D01*
X21000Y-12500D02*
X21000Y-12000D01*
X21000Y-12000D02*
X21500Y-11500D01*
X22000Y-12500D02*
X22000Y-13000D01*
X23500Y-12750D02*
X23500Y-11500D01*
X23000Y-13250D02*
X23500Y-12750D01*
X22250Y-13250D02*
X23000Y-13250D01*
X22000Y-13000D02*
X22250Y-13250D01*
X09500Y-20500D02*
X09500Y-21100D01*
X21500Y-12500D02*
X21500Y-13200D01*
X09000Y-22600D02*
X09000Y-23000D01*
X09000Y-23000D02*
X09500Y-23500D01*
X08500Y-20500D02*
X08500Y-19500D01*
X08000Y-20500D02*
X08000Y-20000D01*
X08000Y-20000D02*
X07500Y-19500D01*
X07500Y-20500D02*
X07500Y-21100D01*
X07000Y-20500D02*
X07000Y-21000D01*
X05500Y-20750D02*
X05500Y-19500D01*
X06000Y-21250D02*
X05500Y-20750D01*
X06750Y-21250D02*
X06000Y-21250D01*
X07000Y-21000D02*
X06750Y-21250D01*
X10000Y-22600D02*
X10000Y-22000D01*
X11500Y-22250D02*
X11500Y-23500D01*
X10250Y-21750D02*
X11000Y-21750D01*
X11000Y-21750D02*
X11500Y-22250D01*
X10000Y-22000D02*
X10250Y-21750D01*
X09000Y-20500D02*
X09000Y-20000D01*
X09000Y-20000D02*
X09500Y-19500D01*
X08000Y-22600D02*
X08000Y-23000D01*
X08000Y-23000D02*
X07500Y-23500D01*
X06750Y-21750D02*
X06000Y-21750D01*
X07000Y-22000D02*
X06750Y-21750D01*
X06000Y-21750D02*
X05500Y-22250D01*
X05500Y-22250D02*
X05500Y-23500D01*
X07000Y-22600D02*
X07000Y-22000D01*
X07500Y-22600D02*
X07500Y-22000D01*
X08500Y-22600D02*
X08500Y-23500D01*
X09500Y-22600D02*
X09500Y-22000D01*
X10000Y-20500D02*
X10000Y-21000D01*
X11500Y-20750D02*
X11500Y-19500D01*
X11000Y-21250D02*
X11500Y-20750D01*
X10250Y-21250D02*
X11000Y-21250D01*
X10000Y-21000D02*
X10250Y-21250D01*
X08000Y-16600D02*
X08000Y-17000D01*
X08000Y-17000D02*
X07500Y-17500D01*
X11500Y-14750D02*
X11500Y-13500D01*
X10000Y-15000D02*
X10250Y-15250D01*
X10000Y-14500D02*
X10000Y-15000D01*
X11000Y-15250D02*
X11500Y-14750D01*
X10250Y-15250D02*
X11000Y-15250D01*
X09000Y-14500D02*
X09000Y-14000D01*
X09000Y-14000D02*
X09500Y-13500D01*
X08000Y-14500D02*
X08000Y-14000D01*
X08000Y-14000D02*
X07500Y-13500D01*
X07000Y-15000D02*
X06750Y-15250D01*
X06750Y-15250D02*
X06000Y-15250D01*
X06000Y-15250D02*
X05500Y-14750D01*
X05500Y-14750D02*
X05500Y-13500D01*
X07000Y-14500D02*
X07000Y-15000D01*
X09500Y-16600D02*
X09500Y-15900D01*
X08500Y-16600D02*
X08500Y-17500D01*
X07500Y-16600D02*
X07500Y-15900D01*
X07000Y-16600D02*
X07000Y-16000D01*
X06750Y-15750D02*
X06000Y-15750D01*
X07000Y-16000D02*
X06750Y-15750D01*
X05500Y-16250D02*
X05500Y-17500D01*
X06000Y-15750D02*
X05500Y-16250D01*
X09000Y-16600D02*
X09000Y-17000D01*
X09000Y-17000D02*
X09500Y-17500D01*
X10000Y-16600D02*
X10000Y-16000D01*
X11500Y-16250D02*
X11500Y-17500D01*
X11000Y-15750D02*
X11500Y-16250D01*
X10250Y-15750D02*
X11000Y-15750D01*
X10000Y-16000D02*
X10250Y-15750D01*
X07500Y-14500D02*
X07500Y-15200D01*
X08500Y-14500D02*
X08500Y-13500D01*
X09500Y-14500D02*
X09500Y-15200D01*
G54D10*
G36*
X05862Y-15500D02*
X05795Y-15545D01*
X05295Y-16045D01*
X05232Y-16139D01*
X05210Y-16250D01*
X05210Y-16976D01*
X05176Y-16976D01*
X05084Y-17014D01*
X05049Y-17049D01*
X05049Y-13951D01*
X05084Y-13986D01*
X05175Y-14024D01*
X05210Y-14024D01*
X05210Y-14750D01*
X05232Y-14861D01*
X05295Y-14955D01*
X05795Y-15455D01*
X05862Y-15500D01*
X05862Y-15500D01*
G37*
G54D17*
X05862Y-15500D02*
X05795Y-15545D01*
X05295Y-16045D01*
X05232Y-16139D01*
X05210Y-16250D01*
X05210Y-16976D01*
X05176Y-16976D01*
X05084Y-17014D01*
X05049Y-17049D01*
X05049Y-13951D01*
X05084Y-13986D01*
X05175Y-14024D01*
X05210Y-14024D01*
X05210Y-14750D01*
X05232Y-14861D01*
X05295Y-14955D01*
X05795Y-15455D01*
X05862Y-15500D01*
G54D10*
G36*
X05862Y-21500D02*
X05795Y-21545D01*
X05295Y-22045D01*
X05232Y-22139D01*
X05210Y-22250D01*
X05210Y-22976D01*
X05176Y-22976D01*
X05084Y-23014D01*
X05049Y-23049D01*
X05049Y-19951D01*
X05084Y-19986D01*
X05175Y-20024D01*
X05210Y-20024D01*
X05210Y-20750D01*
X05232Y-20861D01*
X05295Y-20955D01*
X05795Y-21455D01*
X05862Y-21500D01*
X05862Y-21500D01*
G37*
G54D17*
X05862Y-21500D02*
X05795Y-21545D01*
X05295Y-22045D01*
X05232Y-22139D01*
X05210Y-22250D01*
X05210Y-22976D01*
X05176Y-22976D01*
X05084Y-23014D01*
X05049Y-23049D01*
X05049Y-19951D01*
X05084Y-19986D01*
X05175Y-20024D01*
X05210Y-20024D01*
X05210Y-20750D01*
X05232Y-20861D01*
X05295Y-20955D01*
X05795Y-21455D01*
X05862Y-21500D01*
G54D10*
G36*
X06217Y-05049D02*
X06203Y-05055D01*
X06055Y-05202D01*
X06024Y-05276D01*
X06024Y-05176D01*
X05986Y-05084D01*
X05951Y-05049D01*
X06217Y-05049D01*
X06217Y-05049D01*
G37*
G54D17*
X06217Y-05049D02*
X06203Y-05055D01*
X06055Y-05202D01*
X06024Y-05276D01*
X06024Y-05176D01*
X05986Y-05084D01*
X05951Y-05049D01*
X06217Y-05049D01*
G54D10*
G36*
X07217Y-05049D02*
X07203Y-05055D01*
X07055Y-05202D01*
X06999Y-05335D01*
X06945Y-05203D01*
X06798Y-05055D01*
X06783Y-05049D01*
X07217Y-05049D01*
X07217Y-05049D01*
G37*
G54D17*
X07217Y-05049D02*
X07203Y-05055D01*
X07055Y-05202D01*
X06999Y-05335D01*
X06945Y-05203D01*
X06798Y-05055D01*
X06783Y-05049D01*
X07217Y-05049D01*
G54D10*
G36*
X07249Y-15550D02*
X07140Y-15659D01*
X07119Y-15709D01*
X06955Y-15545D01*
X06887Y-15500D01*
X06955Y-15455D01*
X07089Y-15320D01*
X07139Y-15440D01*
X07249Y-15550D01*
X07249Y-15550D01*
G37*
G54D17*
X07249Y-15550D02*
X07140Y-15659D01*
X07119Y-15709D01*
X06955Y-15545D01*
X06887Y-15500D01*
X06955Y-15455D01*
X07089Y-15320D01*
X07139Y-15440D01*
X07249Y-15550D01*
G54D10*
G36*
X07256Y-17033D02*
X07203Y-17055D01*
X07055Y-17202D01*
X06999Y-17335D01*
X06945Y-17203D01*
X06798Y-17055D01*
X06605Y-16975D01*
X06396Y-16975D01*
X06203Y-17055D01*
X06055Y-17202D01*
X06024Y-17276D01*
X06024Y-17176D01*
X05986Y-17084D01*
X05916Y-17014D01*
X05825Y-16976D01*
X05790Y-16976D01*
X05790Y-16370D01*
X06120Y-16040D01*
X06630Y-16040D01*
X06710Y-16120D01*
X06710Y-16213D01*
X06689Y-16234D01*
X06651Y-16325D01*
X06651Y-16424D01*
X06651Y-16874D01*
X06689Y-16966D01*
X06759Y-17036D01*
X06850Y-17074D01*
X06949Y-17074D01*
X07149Y-17074D01*
X07241Y-17036D01*
X07250Y-17027D01*
X07256Y-17033D01*
X07256Y-17033D01*
G37*
G54D17*
X07256Y-17033D02*
X07203Y-17055D01*
X07055Y-17202D01*
X06999Y-17335D01*
X06945Y-17203D01*
X06798Y-17055D01*
X06605Y-16975D01*
X06396Y-16975D01*
X06203Y-17055D01*
X06055Y-17202D01*
X06024Y-17276D01*
X06024Y-17176D01*
X05986Y-17084D01*
X05916Y-17014D01*
X05825Y-16976D01*
X05790Y-16976D01*
X05790Y-16370D01*
X06120Y-16040D01*
X06630Y-16040D01*
X06710Y-16120D01*
X06710Y-16213D01*
X06689Y-16234D01*
X06651Y-16325D01*
X06651Y-16424D01*
X06651Y-16874D01*
X06689Y-16966D01*
X06759Y-17036D01*
X06850Y-17074D01*
X06949Y-17074D01*
X07149Y-17074D01*
X07241Y-17036D01*
X07250Y-17027D01*
X07256Y-17033D01*
G54D10*
G36*
X07256Y-23033D02*
X07203Y-23055D01*
X07055Y-23202D01*
X06999Y-23335D01*
X06945Y-23203D01*
X06798Y-23055D01*
X06605Y-22975D01*
X06396Y-22975D01*
X06203Y-23055D01*
X06055Y-23202D01*
X06024Y-23276D01*
X06024Y-23176D01*
X05986Y-23084D01*
X05916Y-23014D01*
X05825Y-22976D01*
X05790Y-22976D01*
X05790Y-22370D01*
X06120Y-22040D01*
X06630Y-22040D01*
X06710Y-22120D01*
X06710Y-22213D01*
X06689Y-22234D01*
X06651Y-22325D01*
X06651Y-22424D01*
X06651Y-22874D01*
X06689Y-22966D01*
X06759Y-23036D01*
X06850Y-23074D01*
X06949Y-23074D01*
X07149Y-23074D01*
X07241Y-23036D01*
X07250Y-23027D01*
X07256Y-23033D01*
X07256Y-23033D01*
G37*
G54D17*
X07256Y-23033D02*
X07203Y-23055D01*
X07055Y-23202D01*
X06999Y-23335D01*
X06945Y-23203D01*
X06798Y-23055D01*
X06605Y-22975D01*
X06396Y-22975D01*
X06203Y-23055D01*
X06055Y-23202D01*
X06024Y-23276D01*
X06024Y-23176D01*
X05986Y-23084D01*
X05916Y-23014D01*
X05825Y-22976D01*
X05790Y-22976D01*
X05790Y-22370D01*
X06120Y-22040D01*
X06630Y-22040D01*
X06710Y-22120D01*
X06710Y-22213D01*
X06689Y-22234D01*
X06651Y-22325D01*
X06651Y-22424D01*
X06651Y-22874D01*
X06689Y-22966D01*
X06759Y-23036D01*
X06850Y-23074D01*
X06949Y-23074D01*
X07149Y-23074D01*
X07241Y-23036D01*
X07250Y-23027D01*
X07256Y-23033D01*
G54D10*
G36*
X07616Y-14026D02*
X07551Y-14026D01*
X07351Y-14026D01*
X07259Y-14064D01*
X07250Y-14073D01*
X07241Y-14064D01*
X07150Y-14026D01*
X07051Y-14026D01*
X06851Y-14026D01*
X06759Y-14064D01*
X06689Y-14134D01*
X06651Y-14225D01*
X06651Y-14324D01*
X06651Y-14774D01*
X06689Y-14866D01*
X06706Y-14883D01*
X06630Y-14960D01*
X06120Y-14960D01*
X05790Y-14630D01*
X05790Y-14024D01*
X05824Y-14024D01*
X05916Y-13986D01*
X05986Y-13916D01*
X06024Y-13825D01*
X06024Y-13726D01*
X06024Y-13722D01*
X06055Y-13797D01*
X06202Y-13945D01*
X06395Y-14025D01*
X06604Y-14025D01*
X06797Y-13945D01*
X06945Y-13798D01*
X07000Y-13664D01*
X07055Y-13797D01*
X07202Y-13945D01*
X07395Y-14025D01*
X07604Y-14025D01*
X07611Y-14021D01*
X07616Y-14026D01*
X07616Y-14026D01*
G37*
G54D17*
X07616Y-14026D02*
X07551Y-14026D01*
X07351Y-14026D01*
X07259Y-14064D01*
X07250Y-14073D01*
X07241Y-14064D01*
X07150Y-14026D01*
X07051Y-14026D01*
X06851Y-14026D01*
X06759Y-14064D01*
X06689Y-14134D01*
X06651Y-14225D01*
X06651Y-14324D01*
X06651Y-14774D01*
X06689Y-14866D01*
X06706Y-14883D01*
X06630Y-14960D01*
X06120Y-14960D01*
X05790Y-14630D01*
X05790Y-14024D01*
X05824Y-14024D01*
X05916Y-13986D01*
X05986Y-13916D01*
X06024Y-13825D01*
X06024Y-13726D01*
X06024Y-13722D01*
X06055Y-13797D01*
X06202Y-13945D01*
X06395Y-14025D01*
X06604Y-14025D01*
X06797Y-13945D01*
X06945Y-13798D01*
X07000Y-13664D01*
X07055Y-13797D01*
X07202Y-13945D01*
X07395Y-14025D01*
X07604Y-14025D01*
X07611Y-14021D01*
X07616Y-14026D01*
G54D10*
G36*
X07616Y-20026D02*
X07551Y-20026D01*
X07351Y-20026D01*
X07259Y-20064D01*
X07250Y-20073D01*
X07241Y-20064D01*
X07150Y-20026D01*
X07051Y-20026D01*
X06851Y-20026D01*
X06759Y-20064D01*
X06689Y-20134D01*
X06651Y-20225D01*
X06651Y-20324D01*
X06651Y-20774D01*
X06689Y-20866D01*
X06706Y-20883D01*
X06630Y-20960D01*
X06120Y-20960D01*
X05790Y-20630D01*
X05790Y-20024D01*
X05824Y-20024D01*
X05916Y-19986D01*
X05986Y-19916D01*
X06024Y-19825D01*
X06024Y-19726D01*
X06024Y-19722D01*
X06055Y-19797D01*
X06202Y-19945D01*
X06395Y-20025D01*
X06604Y-20025D01*
X06797Y-19945D01*
X06945Y-19798D01*
X07000Y-19664D01*
X07055Y-19797D01*
X07202Y-19945D01*
X07395Y-20025D01*
X07604Y-20025D01*
X07611Y-20021D01*
X07616Y-20026D01*
X07616Y-20026D01*
G37*
G54D17*
X07616Y-20026D02*
X07551Y-20026D01*
X07351Y-20026D01*
X07259Y-20064D01*
X07250Y-20073D01*
X07241Y-20064D01*
X07150Y-20026D01*
X07051Y-20026D01*
X06851Y-20026D01*
X06759Y-20064D01*
X06689Y-20134D01*
X06651Y-20225D01*
X06651Y-20324D01*
X06651Y-20774D01*
X06689Y-20866D01*
X06706Y-20883D01*
X06630Y-20960D01*
X06120Y-20960D01*
X05790Y-20630D01*
X05790Y-20024D01*
X05824Y-20024D01*
X05916Y-19986D01*
X05986Y-19916D01*
X06024Y-19825D01*
X06024Y-19726D01*
X06024Y-19722D01*
X06055Y-19797D01*
X06202Y-19945D01*
X06395Y-20025D01*
X06604Y-20025D01*
X06797Y-19945D01*
X06945Y-19798D01*
X07000Y-19664D01*
X07055Y-19797D01*
X07202Y-19945D01*
X07395Y-20025D01*
X07604Y-20025D01*
X07611Y-20021D01*
X07616Y-20026D01*
G54D10*
G36*
X08217Y-05049D02*
X08203Y-05055D01*
X08055Y-05202D01*
X07999Y-05335D01*
X07945Y-05203D01*
X07798Y-05055D01*
X07783Y-05049D01*
X08217Y-05049D01*
X08217Y-05049D01*
G37*
G54D17*
X08217Y-05049D02*
X08203Y-05055D01*
X08055Y-05202D01*
X07999Y-05335D01*
X07945Y-05203D01*
X07798Y-05055D01*
X07783Y-05049D01*
X08217Y-05049D01*
G54D10*
G36*
X08690Y-06101D02*
X08601Y-06101D01*
X08509Y-06139D01*
X08500Y-06148D01*
X08491Y-06139D01*
X08400Y-06101D01*
X08301Y-06101D01*
X08101Y-06101D01*
X08009Y-06139D01*
X08000Y-06148D01*
X07991Y-06139D01*
X07900Y-06101D01*
X07801Y-06101D01*
X07601Y-06101D01*
X07509Y-06139D01*
X07439Y-06209D01*
X07401Y-06300D01*
X07401Y-06399D01*
X07401Y-06899D01*
X07439Y-06991D01*
X07460Y-07012D01*
X07460Y-07130D01*
X07380Y-07210D01*
X06120Y-07210D01*
X05790Y-06880D01*
X05790Y-06024D01*
X05824Y-06024D01*
X05916Y-05986D01*
X05986Y-05916D01*
X06024Y-05825D01*
X06024Y-05726D01*
X06024Y-05722D01*
X06055Y-05797D01*
X06202Y-05945D01*
X06395Y-06025D01*
X06604Y-06025D01*
X06797Y-05945D01*
X06945Y-05798D01*
X07000Y-05664D01*
X07055Y-05797D01*
X07202Y-05945D01*
X07395Y-06025D01*
X07604Y-06025D01*
X07797Y-05945D01*
X07945Y-05798D01*
X08000Y-05664D01*
X08055Y-05797D01*
X08202Y-05945D01*
X08395Y-06025D01*
X08604Y-06025D01*
X08611Y-06021D01*
X08690Y-06101D01*
X08690Y-06101D01*
G37*
G54D17*
X08690Y-06101D02*
X08601Y-06101D01*
X08509Y-06139D01*
X08500Y-06148D01*
X08491Y-06139D01*
X08400Y-06101D01*
X08301Y-06101D01*
X08101Y-06101D01*
X08009Y-06139D01*
X08000Y-06148D01*
X07991Y-06139D01*
X07900Y-06101D01*
X07801Y-06101D01*
X07601Y-06101D01*
X07509Y-06139D01*
X07439Y-06209D01*
X07401Y-06300D01*
X07401Y-06399D01*
X07401Y-06899D01*
X07439Y-06991D01*
X07460Y-07012D01*
X07460Y-07130D01*
X07380Y-07210D01*
X06120Y-07210D01*
X05790Y-06880D01*
X05790Y-06024D01*
X05824Y-06024D01*
X05916Y-05986D01*
X05986Y-05916D01*
X06024Y-05825D01*
X06024Y-05726D01*
X06024Y-05722D01*
X06055Y-05797D01*
X06202Y-05945D01*
X06395Y-06025D01*
X06604Y-06025D01*
X06797Y-05945D01*
X06945Y-05798D01*
X07000Y-05664D01*
X07055Y-05797D01*
X07202Y-05945D01*
X07395Y-06025D01*
X07604Y-06025D01*
X07797Y-05945D01*
X07945Y-05798D01*
X08000Y-05664D01*
X08055Y-05797D01*
X08202Y-05945D01*
X08395Y-06025D01*
X08604Y-06025D01*
X08611Y-06021D01*
X08690Y-06101D01*
G54D10*
G36*
X08690Y-10899D02*
X08611Y-10977D01*
X08605Y-10975D01*
X08396Y-10975D01*
X08203Y-11055D01*
X08055Y-11202D01*
X07999Y-11335D01*
X07945Y-11203D01*
X07798Y-11055D01*
X07605Y-10975D01*
X07396Y-10975D01*
X07203Y-11055D01*
X07055Y-11202D01*
X06999Y-11335D01*
X06945Y-11203D01*
X06798Y-11055D01*
X06605Y-10975D01*
X06396Y-10975D01*
X06203Y-11055D01*
X06055Y-11202D01*
X06024Y-11276D01*
X06024Y-11176D01*
X05986Y-11084D01*
X05916Y-11014D01*
X05825Y-10976D01*
X05790Y-10976D01*
X05790Y-10120D01*
X06120Y-09790D01*
X07380Y-09790D01*
X07460Y-09870D01*
X07460Y-09988D01*
X07439Y-10009D01*
X07401Y-10100D01*
X07401Y-10199D01*
X07401Y-10699D01*
X07439Y-10791D01*
X07509Y-10861D01*
X07600Y-10899D01*
X07699Y-10899D01*
X07899Y-10899D01*
X07991Y-10861D01*
X08000Y-10852D01*
X08009Y-10861D01*
X08100Y-10899D01*
X08199Y-10899D01*
X08399Y-10899D01*
X08491Y-10861D01*
X08500Y-10852D01*
X08509Y-10861D01*
X08600Y-10899D01*
X08690Y-10899D01*
X08690Y-10899D01*
G37*
G54D17*
X08690Y-10899D02*
X08611Y-10977D01*
X08605Y-10975D01*
X08396Y-10975D01*
X08203Y-11055D01*
X08055Y-11202D01*
X07999Y-11335D01*
X07945Y-11203D01*
X07798Y-11055D01*
X07605Y-10975D01*
X07396Y-10975D01*
X07203Y-11055D01*
X07055Y-11202D01*
X06999Y-11335D01*
X06945Y-11203D01*
X06798Y-11055D01*
X06605Y-10975D01*
X06396Y-10975D01*
X06203Y-11055D01*
X06055Y-11202D01*
X06024Y-11276D01*
X06024Y-11176D01*
X05986Y-11084D01*
X05916Y-11014D01*
X05825Y-10976D01*
X05790Y-10976D01*
X05790Y-10120D01*
X06120Y-09790D01*
X07380Y-09790D01*
X07460Y-09870D01*
X07460Y-09988D01*
X07439Y-10009D01*
X07401Y-10100D01*
X07401Y-10199D01*
X07401Y-10699D01*
X07439Y-10791D01*
X07509Y-10861D01*
X07600Y-10899D01*
X07699Y-10899D01*
X07899Y-10899D01*
X07991Y-10861D01*
X08000Y-10852D01*
X08009Y-10861D01*
X08100Y-10899D01*
X08199Y-10899D01*
X08399Y-10899D01*
X08491Y-10861D01*
X08500Y-10852D01*
X08509Y-10861D01*
X08600Y-10899D01*
X08690Y-10899D01*
G54D10*
G36*
X09217Y-05049D02*
X09203Y-05055D01*
X09055Y-05202D01*
X08999Y-05335D01*
X08945Y-05203D01*
X08798Y-05055D01*
X08783Y-05049D01*
X09217Y-05049D01*
X09217Y-05049D01*
G37*
G54D17*
X09217Y-05049D02*
X09203Y-05055D01*
X09055Y-05202D01*
X08999Y-05335D01*
X08945Y-05203D01*
X08798Y-05055D01*
X08783Y-05049D01*
X09217Y-05049D01*
G54D10*
G36*
X09249Y-15550D02*
X09140Y-15659D01*
X09075Y-15815D01*
X09075Y-15984D01*
X09133Y-16126D01*
X09051Y-16126D01*
X08851Y-16126D01*
X08759Y-16164D01*
X08750Y-16173D01*
X08741Y-16164D01*
X08650Y-16126D01*
X08551Y-16126D01*
X08351Y-16126D01*
X08259Y-16164D01*
X08250Y-16173D01*
X08241Y-16164D01*
X08150Y-16126D01*
X08051Y-16126D01*
X07866Y-16126D01*
X07925Y-15985D01*
X07925Y-15816D01*
X07861Y-15660D01*
X07751Y-15550D01*
X07860Y-15441D01*
X07925Y-15285D01*
X07925Y-15116D01*
X07866Y-14974D01*
X07949Y-14974D01*
X08149Y-14974D01*
X08241Y-14936D01*
X08250Y-14927D01*
X08259Y-14936D01*
X08350Y-14974D01*
X08449Y-14974D01*
X08649Y-14974D01*
X08741Y-14936D01*
X08750Y-14927D01*
X08759Y-14936D01*
X08850Y-14974D01*
X08949Y-14974D01*
X09133Y-14974D01*
X09075Y-15115D01*
X09075Y-15284D01*
X09139Y-15440D01*
X09249Y-15550D01*
X09249Y-15550D01*
G37*
G54D17*
X09249Y-15550D02*
X09140Y-15659D01*
X09075Y-15815D01*
X09075Y-15984D01*
X09133Y-16126D01*
X09051Y-16126D01*
X08851Y-16126D01*
X08759Y-16164D01*
X08750Y-16173D01*
X08741Y-16164D01*
X08650Y-16126D01*
X08551Y-16126D01*
X08351Y-16126D01*
X08259Y-16164D01*
X08250Y-16173D01*
X08241Y-16164D01*
X08150Y-16126D01*
X08051Y-16126D01*
X07866Y-16126D01*
X07925Y-15985D01*
X07925Y-15816D01*
X07861Y-15660D01*
X07751Y-15550D01*
X07860Y-15441D01*
X07925Y-15285D01*
X07925Y-15116D01*
X07866Y-14974D01*
X07949Y-14974D01*
X08149Y-14974D01*
X08241Y-14936D01*
X08250Y-14927D01*
X08259Y-14936D01*
X08350Y-14974D01*
X08449Y-14974D01*
X08649Y-14974D01*
X08741Y-14936D01*
X08750Y-14927D01*
X08759Y-14936D01*
X08850Y-14974D01*
X08949Y-14974D01*
X09133Y-14974D01*
X09075Y-15115D01*
X09075Y-15284D01*
X09139Y-15440D01*
X09249Y-15550D01*
G54D10*
G36*
X09460Y-06051D02*
X09455Y-06045D01*
X09455Y-06044D01*
X09435Y-06025D01*
X09460Y-06025D01*
X09460Y-06051D01*
X09460Y-06051D01*
G37*
G54D17*
X09460Y-06051D02*
X09455Y-06045D01*
X09455Y-06044D01*
X09435Y-06025D01*
X09460Y-06025D01*
X09460Y-06051D01*
G54D10*
G36*
X09460Y-10975D02*
X09435Y-10975D01*
X09455Y-10956D01*
X09455Y-10955D01*
X09460Y-10948D01*
X09460Y-10975D01*
X09460Y-10975D01*
G37*
G54D17*
X09460Y-10975D02*
X09435Y-10975D01*
X09455Y-10956D01*
X09455Y-10955D01*
X09460Y-10948D01*
X09460Y-10975D01*
G54D10*
G36*
X10112Y-15500D02*
X10045Y-15545D01*
X09881Y-15708D01*
X09861Y-15660D01*
X09751Y-15550D01*
X09860Y-15441D01*
X09910Y-15320D01*
X10045Y-15455D01*
X10112Y-15500D01*
X10112Y-15500D01*
G37*
G54D17*
X10112Y-15500D02*
X10045Y-15545D01*
X09881Y-15708D01*
X09861Y-15660D01*
X09751Y-15550D01*
X09860Y-15441D01*
X09910Y-15320D01*
X10045Y-15455D01*
X10112Y-15500D01*
G54D10*
G36*
X10112Y-21500D02*
X10045Y-21545D01*
X09845Y-21744D01*
X09741Y-21640D01*
X09585Y-21575D01*
X09416Y-21575D01*
X09260Y-21639D01*
X09140Y-21759D01*
X09075Y-21915D01*
X09075Y-22084D01*
X09092Y-22126D01*
X09051Y-22126D01*
X08851Y-22126D01*
X08759Y-22164D01*
X08750Y-22173D01*
X08741Y-22164D01*
X08650Y-22126D01*
X08551Y-22126D01*
X08351Y-22126D01*
X08259Y-22164D01*
X08250Y-22173D01*
X08241Y-22164D01*
X08150Y-22126D01*
X08051Y-22126D01*
X07907Y-22126D01*
X07925Y-22085D01*
X07925Y-21916D01*
X07861Y-21760D01*
X07741Y-21640D01*
X07585Y-21575D01*
X07416Y-21575D01*
X07260Y-21639D01*
X07154Y-21744D01*
X06955Y-21545D01*
X06887Y-21500D01*
X06955Y-21455D01*
X07118Y-21291D01*
X07139Y-21340D01*
X07259Y-21460D01*
X07415Y-21525D01*
X07584Y-21525D01*
X07740Y-21461D01*
X07860Y-21341D01*
X07925Y-21185D01*
X07925Y-21016D01*
X07907Y-20974D01*
X07949Y-20974D01*
X08149Y-20974D01*
X08241Y-20936D01*
X08250Y-20927D01*
X08259Y-20936D01*
X08350Y-20974D01*
X08449Y-20974D01*
X08649Y-20974D01*
X08741Y-20936D01*
X08750Y-20927D01*
X08759Y-20936D01*
X08850Y-20974D01*
X08949Y-20974D01*
X09092Y-20974D01*
X09075Y-21015D01*
X09075Y-21184D01*
X09139Y-21340D01*
X09259Y-21460D01*
X09415Y-21525D01*
X09584Y-21525D01*
X09740Y-21461D01*
X09860Y-21341D01*
X09880Y-21290D01*
X10045Y-21455D01*
X10112Y-21500D01*
X10112Y-21500D01*
G37*
G54D17*
X10112Y-21500D02*
X10045Y-21545D01*
X09845Y-21744D01*
X09741Y-21640D01*
X09585Y-21575D01*
X09416Y-21575D01*
X09260Y-21639D01*
X09140Y-21759D01*
X09075Y-21915D01*
X09075Y-22084D01*
X09092Y-22126D01*
X09051Y-22126D01*
X08851Y-22126D01*
X08759Y-22164D01*
X08750Y-22173D01*
X08741Y-22164D01*
X08650Y-22126D01*
X08551Y-22126D01*
X08351Y-22126D01*
X08259Y-22164D01*
X08250Y-22173D01*
X08241Y-22164D01*
X08150Y-22126D01*
X08051Y-22126D01*
X07907Y-22126D01*
X07925Y-22085D01*
X07925Y-21916D01*
X07861Y-21760D01*
X07741Y-21640D01*
X07585Y-21575D01*
X07416Y-21575D01*
X07260Y-21639D01*
X07154Y-21744D01*
X06955Y-21545D01*
X06887Y-21500D01*
X06955Y-21455D01*
X07118Y-21291D01*
X07139Y-21340D01*
X07259Y-21460D01*
X07415Y-21525D01*
X07584Y-21525D01*
X07740Y-21461D01*
X07860Y-21341D01*
X07925Y-21185D01*
X07925Y-21016D01*
X07907Y-20974D01*
X07949Y-20974D01*
X08149Y-20974D01*
X08241Y-20936D01*
X08250Y-20927D01*
X08259Y-20936D01*
X08350Y-20974D01*
X08449Y-20974D01*
X08649Y-20974D01*
X08741Y-20936D01*
X08750Y-20927D01*
X08759Y-20936D01*
X08850Y-20974D01*
X08949Y-20974D01*
X09092Y-20974D01*
X09075Y-21015D01*
X09075Y-21184D01*
X09139Y-21340D01*
X09259Y-21460D01*
X09415Y-21525D01*
X09584Y-21525D01*
X09740Y-21461D01*
X09860Y-21341D01*
X09880Y-21290D01*
X10045Y-21455D01*
X10112Y-21500D01*
G54D10*
G36*
X10217Y-05049D02*
X10203Y-05055D01*
X10055Y-05202D01*
X09999Y-05335D01*
X09945Y-05203D01*
X09798Y-05055D01*
X09783Y-05049D01*
X10217Y-05049D01*
X10217Y-05049D01*
G37*
G54D17*
X10217Y-05049D02*
X10203Y-05055D01*
X10055Y-05202D01*
X09999Y-05335D01*
X09945Y-05203D01*
X09798Y-05055D01*
X09783Y-05049D01*
X10217Y-05049D01*
G54D10*
G36*
X10564Y-06025D02*
X10545Y-06045D01*
X10540Y-06052D01*
X10540Y-06025D01*
X10564Y-06025D01*
X10564Y-06025D01*
G37*
G54D17*
X10564Y-06025D02*
X10545Y-06045D01*
X10540Y-06052D01*
X10540Y-06025D01*
X10564Y-06025D01*
G54D10*
G36*
X10564Y-10975D02*
X10540Y-10975D01*
X10540Y-10947D01*
X10545Y-10955D01*
X10564Y-10975D01*
X10564Y-10975D01*
G37*
G54D17*
X10564Y-10975D02*
X10540Y-10975D01*
X10540Y-10947D01*
X10545Y-10955D01*
X10564Y-10975D01*
G54D10*
G36*
X11210Y-14630D02*
X10880Y-14960D01*
X10370Y-14960D01*
X10293Y-14883D01*
X10311Y-14866D01*
X10349Y-14775D01*
X10349Y-14676D01*
X10349Y-14226D01*
X10311Y-14134D01*
X10241Y-14064D01*
X10150Y-14026D01*
X10051Y-14026D01*
X09851Y-14026D01*
X09759Y-14064D01*
X09750Y-14073D01*
X09741Y-14064D01*
X09650Y-14026D01*
X09551Y-14026D01*
X09384Y-14026D01*
X09387Y-14022D01*
X09395Y-14025D01*
X09604Y-14025D01*
X09797Y-13945D01*
X09945Y-13798D01*
X10000Y-13664D01*
X10055Y-13797D01*
X10202Y-13945D01*
X10395Y-14025D01*
X10604Y-14025D01*
X10797Y-13945D01*
X10945Y-13798D01*
X11000Y-13664D01*
X11055Y-13797D01*
X11202Y-13945D01*
X11210Y-13948D01*
X11210Y-14630D01*
X11210Y-14630D01*
G37*
G54D17*
X11210Y-14630D02*
X10880Y-14960D01*
X10370Y-14960D01*
X10293Y-14883D01*
X10311Y-14866D01*
X10349Y-14775D01*
X10349Y-14676D01*
X10349Y-14226D01*
X10311Y-14134D01*
X10241Y-14064D01*
X10150Y-14026D01*
X10051Y-14026D01*
X09851Y-14026D01*
X09759Y-14064D01*
X09750Y-14073D01*
X09741Y-14064D01*
X09650Y-14026D01*
X09551Y-14026D01*
X09384Y-14026D01*
X09387Y-14022D01*
X09395Y-14025D01*
X09604Y-14025D01*
X09797Y-13945D01*
X09945Y-13798D01*
X10000Y-13664D01*
X10055Y-13797D01*
X10202Y-13945D01*
X10395Y-14025D01*
X10604Y-14025D01*
X10797Y-13945D01*
X10945Y-13798D01*
X11000Y-13664D01*
X11055Y-13797D01*
X11202Y-13945D01*
X11210Y-13948D01*
X11210Y-14630D01*
G54D10*
G36*
X11210Y-17052D02*
X11203Y-17055D01*
X11055Y-17202D01*
X10999Y-17335D01*
X10945Y-17203D01*
X10798Y-17055D01*
X10605Y-16975D01*
X10396Y-16975D01*
X10203Y-17055D01*
X10055Y-17202D01*
X09999Y-17335D01*
X09945Y-17203D01*
X09798Y-17055D01*
X09744Y-17032D01*
X09750Y-17027D01*
X09759Y-17036D01*
X09850Y-17074D01*
X09949Y-17074D01*
X10149Y-17074D01*
X10241Y-17036D01*
X10311Y-16966D01*
X10349Y-16875D01*
X10349Y-16776D01*
X10349Y-16326D01*
X10311Y-16234D01*
X10290Y-16213D01*
X10290Y-16120D01*
X10370Y-16040D01*
X10880Y-16040D01*
X11210Y-16370D01*
X11210Y-17052D01*
X11210Y-17052D01*
G37*
G54D17*
X11210Y-17052D02*
X11203Y-17055D01*
X11055Y-17202D01*
X10999Y-17335D01*
X10945Y-17203D01*
X10798Y-17055D01*
X10605Y-16975D01*
X10396Y-16975D01*
X10203Y-17055D01*
X10055Y-17202D01*
X09999Y-17335D01*
X09945Y-17203D01*
X09798Y-17055D01*
X09744Y-17032D01*
X09750Y-17027D01*
X09759Y-17036D01*
X09850Y-17074D01*
X09949Y-17074D01*
X10149Y-17074D01*
X10241Y-17036D01*
X10311Y-16966D01*
X10349Y-16875D01*
X10349Y-16776D01*
X10349Y-16326D01*
X10311Y-16234D01*
X10290Y-16213D01*
X10290Y-16120D01*
X10370Y-16040D01*
X10880Y-16040D01*
X11210Y-16370D01*
X11210Y-17052D01*
G54D10*
G36*
X11210Y-20630D02*
X10880Y-20960D01*
X10370Y-20960D01*
X10293Y-20883D01*
X10311Y-20866D01*
X10349Y-20775D01*
X10349Y-20676D01*
X10349Y-20226D01*
X10311Y-20134D01*
X10241Y-20064D01*
X10150Y-20026D01*
X10051Y-20026D01*
X09851Y-20026D01*
X09759Y-20064D01*
X09750Y-20073D01*
X09741Y-20064D01*
X09650Y-20026D01*
X09551Y-20026D01*
X09384Y-20026D01*
X09387Y-20022D01*
X09395Y-20025D01*
X09604Y-20025D01*
X09797Y-19945D01*
X09945Y-19798D01*
X10000Y-19664D01*
X10055Y-19797D01*
X10202Y-19945D01*
X10395Y-20025D01*
X10604Y-20025D01*
X10797Y-19945D01*
X10945Y-19798D01*
X11000Y-19664D01*
X11055Y-19797D01*
X11202Y-19945D01*
X11210Y-19948D01*
X11210Y-20630D01*
X11210Y-20630D01*
G37*
G54D17*
X11210Y-20630D02*
X10880Y-20960D01*
X10370Y-20960D01*
X10293Y-20883D01*
X10311Y-20866D01*
X10349Y-20775D01*
X10349Y-20676D01*
X10349Y-20226D01*
X10311Y-20134D01*
X10241Y-20064D01*
X10150Y-20026D01*
X10051Y-20026D01*
X09851Y-20026D01*
X09759Y-20064D01*
X09750Y-20073D01*
X09741Y-20064D01*
X09650Y-20026D01*
X09551Y-20026D01*
X09384Y-20026D01*
X09387Y-20022D01*
X09395Y-20025D01*
X09604Y-20025D01*
X09797Y-19945D01*
X09945Y-19798D01*
X10000Y-19664D01*
X10055Y-19797D01*
X10202Y-19945D01*
X10395Y-20025D01*
X10604Y-20025D01*
X10797Y-19945D01*
X10945Y-19798D01*
X11000Y-19664D01*
X11055Y-19797D01*
X11202Y-19945D01*
X11210Y-19948D01*
X11210Y-20630D01*
G54D10*
G36*
X11210Y-23052D02*
X11203Y-23055D01*
X11055Y-23202D01*
X10999Y-23335D01*
X10945Y-23203D01*
X10798Y-23055D01*
X10605Y-22975D01*
X10396Y-22975D01*
X10203Y-23055D01*
X10055Y-23202D01*
X09999Y-23335D01*
X09945Y-23203D01*
X09798Y-23055D01*
X09744Y-23032D01*
X09750Y-23027D01*
X09759Y-23036D01*
X09850Y-23074D01*
X09949Y-23074D01*
X10149Y-23074D01*
X10241Y-23036D01*
X10311Y-22966D01*
X10349Y-22875D01*
X10349Y-22776D01*
X10349Y-22326D01*
X10311Y-22234D01*
X10290Y-22213D01*
X10290Y-22120D01*
X10370Y-22040D01*
X10880Y-22040D01*
X11210Y-22370D01*
X11210Y-23052D01*
X11210Y-23052D01*
G37*
G54D17*
X11210Y-23052D02*
X11203Y-23055D01*
X11055Y-23202D01*
X10999Y-23335D01*
X10945Y-23203D01*
X10798Y-23055D01*
X10605Y-22975D01*
X10396Y-22975D01*
X10203Y-23055D01*
X10055Y-23202D01*
X09999Y-23335D01*
X09945Y-23203D01*
X09798Y-23055D01*
X09744Y-23032D01*
X09750Y-23027D01*
X09759Y-23036D01*
X09850Y-23074D01*
X09949Y-23074D01*
X10149Y-23074D01*
X10241Y-23036D01*
X10311Y-22966D01*
X10349Y-22875D01*
X10349Y-22776D01*
X10349Y-22326D01*
X10311Y-22234D01*
X10290Y-22213D01*
X10290Y-22120D01*
X10370Y-22040D01*
X10880Y-22040D01*
X11210Y-22370D01*
X11210Y-23052D01*
G54D10*
G36*
X11217Y-05049D02*
X11203Y-05055D01*
X11055Y-05202D01*
X10999Y-05335D01*
X10945Y-05203D01*
X10798Y-05055D01*
X10783Y-05049D01*
X11217Y-05049D01*
X11217Y-05049D01*
G37*
G54D17*
X11217Y-05049D02*
X11203Y-05055D01*
X11055Y-05202D01*
X10999Y-05335D01*
X10945Y-05203D01*
X10798Y-05055D01*
X10783Y-05049D01*
X11217Y-05049D01*
G54D10*
G36*
X12217Y-05049D02*
X12203Y-05055D01*
X12055Y-05202D01*
X11999Y-05335D01*
X11945Y-05203D01*
X11798Y-05055D01*
X11783Y-05049D01*
X12217Y-05049D01*
X12217Y-05049D01*
G37*
G54D17*
X12217Y-05049D02*
X12203Y-05055D01*
X12055Y-05202D01*
X11999Y-05335D01*
X11945Y-05203D01*
X11798Y-05055D01*
X11783Y-05049D01*
X12217Y-05049D01*
G54D10*
G36*
X13217Y-05049D02*
X13203Y-05055D01*
X13055Y-05202D01*
X12999Y-05335D01*
X12945Y-05203D01*
X12798Y-05055D01*
X12783Y-05049D01*
X13217Y-05049D01*
X13217Y-05049D01*
G37*
G54D17*
X13217Y-05049D02*
X13203Y-05055D01*
X13055Y-05202D01*
X12999Y-05335D01*
X12945Y-05203D01*
X12798Y-05055D01*
X12783Y-05049D01*
X13217Y-05049D01*
G54D10*
G36*
X14210Y-06880D02*
X13880Y-07210D01*
X12620Y-07210D01*
X12540Y-07130D01*
X12540Y-07012D01*
X12561Y-06991D01*
X12599Y-06900D01*
X12599Y-06801D01*
X12599Y-06301D01*
X12561Y-06209D01*
X12491Y-06139D01*
X12400Y-06101D01*
X12301Y-06101D01*
X12101Y-06101D01*
X12009Y-06139D01*
X12000Y-06148D01*
X11991Y-06139D01*
X11900Y-06101D01*
X11801Y-06101D01*
X11601Y-06101D01*
X11509Y-06139D01*
X11500Y-06148D01*
X11491Y-06139D01*
X11400Y-06101D01*
X11309Y-06101D01*
X11388Y-06022D01*
X11395Y-06025D01*
X11604Y-06025D01*
X11797Y-05945D01*
X11945Y-05798D01*
X12000Y-05664D01*
X12055Y-05797D01*
X12202Y-05945D01*
X12395Y-06025D01*
X12604Y-06025D01*
X12797Y-05945D01*
X12945Y-05798D01*
X13000Y-05664D01*
X13055Y-05797D01*
X13202Y-05945D01*
X13395Y-06025D01*
X13604Y-06025D01*
X13797Y-05945D01*
X13945Y-05798D01*
X14000Y-05664D01*
X14055Y-05797D01*
X14202Y-05945D01*
X14210Y-05948D01*
X14210Y-06880D01*
X14210Y-06880D01*
G37*
G54D17*
X14210Y-06880D02*
X13880Y-07210D01*
X12620Y-07210D01*
X12540Y-07130D01*
X12540Y-07012D01*
X12561Y-06991D01*
X12599Y-06900D01*
X12599Y-06801D01*
X12599Y-06301D01*
X12561Y-06209D01*
X12491Y-06139D01*
X12400Y-06101D01*
X12301Y-06101D01*
X12101Y-06101D01*
X12009Y-06139D01*
X12000Y-06148D01*
X11991Y-06139D01*
X11900Y-06101D01*
X11801Y-06101D01*
X11601Y-06101D01*
X11509Y-06139D01*
X11500Y-06148D01*
X11491Y-06139D01*
X11400Y-06101D01*
X11309Y-06101D01*
X11388Y-06022D01*
X11395Y-06025D01*
X11604Y-06025D01*
X11797Y-05945D01*
X11945Y-05798D01*
X12000Y-05664D01*
X12055Y-05797D01*
X12202Y-05945D01*
X12395Y-06025D01*
X12604Y-06025D01*
X12797Y-05945D01*
X12945Y-05798D01*
X13000Y-05664D01*
X13055Y-05797D01*
X13202Y-05945D01*
X13395Y-06025D01*
X13604Y-06025D01*
X13797Y-05945D01*
X13945Y-05798D01*
X14000Y-05664D01*
X14055Y-05797D01*
X14202Y-05945D01*
X14210Y-05948D01*
X14210Y-06880D01*
G54D10*
G36*
X14210Y-11052D02*
X14203Y-11055D01*
X14055Y-11202D01*
X13999Y-11335D01*
X13945Y-11203D01*
X13798Y-11055D01*
X13605Y-10975D01*
X13396Y-10975D01*
X13203Y-11055D01*
X13055Y-11202D01*
X12999Y-11335D01*
X12945Y-11203D01*
X12798Y-11055D01*
X12605Y-10975D01*
X12396Y-10975D01*
X12203Y-11055D01*
X12055Y-11202D01*
X11999Y-11335D01*
X11945Y-11203D01*
X11798Y-11055D01*
X11605Y-10975D01*
X11396Y-10975D01*
X11388Y-10978D01*
X11309Y-10899D01*
X11399Y-10899D01*
X11491Y-10861D01*
X11500Y-10852D01*
X11509Y-10861D01*
X11600Y-10899D01*
X11699Y-10899D01*
X11899Y-10899D01*
X11991Y-10861D01*
X12000Y-10852D01*
X12009Y-10861D01*
X12100Y-10899D01*
X12199Y-10899D01*
X12399Y-10899D01*
X12491Y-10861D01*
X12561Y-10791D01*
X12599Y-10700D01*
X12599Y-10601D01*
X12599Y-10101D01*
X12561Y-10009D01*
X12540Y-09988D01*
X12540Y-09870D01*
X12620Y-09790D01*
X13880Y-09790D01*
X14210Y-10120D01*
X14210Y-11052D01*
X14210Y-11052D01*
G37*
G54D17*
X14210Y-11052D02*
X14203Y-11055D01*
X14055Y-11202D01*
X13999Y-11335D01*
X13945Y-11203D01*
X13798Y-11055D01*
X13605Y-10975D01*
X13396Y-10975D01*
X13203Y-11055D01*
X13055Y-11202D01*
X12999Y-11335D01*
X12945Y-11203D01*
X12798Y-11055D01*
X12605Y-10975D01*
X12396Y-10975D01*
X12203Y-11055D01*
X12055Y-11202D01*
X11999Y-11335D01*
X11945Y-11203D01*
X11798Y-11055D01*
X11605Y-10975D01*
X11396Y-10975D01*
X11388Y-10978D01*
X11309Y-10899D01*
X11399Y-10899D01*
X11491Y-10861D01*
X11500Y-10852D01*
X11509Y-10861D01*
X11600Y-10899D01*
X11699Y-10899D01*
X11899Y-10899D01*
X11991Y-10861D01*
X12000Y-10852D01*
X12009Y-10861D01*
X12100Y-10899D01*
X12199Y-10899D01*
X12399Y-10899D01*
X12491Y-10861D01*
X12561Y-10791D01*
X12599Y-10700D01*
X12599Y-10601D01*
X12599Y-10101D01*
X12561Y-10009D01*
X12540Y-09988D01*
X12540Y-09870D01*
X12620Y-09790D01*
X13880Y-09790D01*
X14210Y-10120D01*
X14210Y-11052D01*
G54D10*
G36*
X14217Y-05049D02*
X14203Y-05055D01*
X14055Y-05202D01*
X13999Y-05335D01*
X13945Y-05203D01*
X13798Y-05055D01*
X13783Y-05049D01*
X14217Y-05049D01*
X14217Y-05049D01*
G37*
G54D17*
X14217Y-05049D02*
X14203Y-05055D01*
X14055Y-05202D01*
X13999Y-05335D01*
X13945Y-05203D01*
X13798Y-05055D01*
X13783Y-05049D01*
X14217Y-05049D01*
G54D10*
G36*
X17690Y-18101D02*
X17601Y-18101D01*
X17509Y-18139D01*
X17500Y-18148D01*
X17491Y-18139D01*
X17400Y-18101D01*
X17301Y-18101D01*
X17101Y-18101D01*
X17009Y-18139D01*
X17000Y-18148D01*
X16991Y-18139D01*
X16900Y-18101D01*
X16801Y-18101D01*
X16601Y-18101D01*
X16509Y-18139D01*
X16439Y-18209D01*
X16401Y-18300D01*
X16401Y-18399D01*
X16401Y-18899D01*
X16439Y-18991D01*
X16460Y-19012D01*
X16460Y-19130D01*
X16380Y-19210D01*
X15120Y-19210D01*
X14790Y-18880D01*
X14790Y-18024D01*
X14824Y-18024D01*
X14916Y-17986D01*
X14986Y-17916D01*
X15024Y-17825D01*
X15024Y-17726D01*
X15024Y-17722D01*
X15055Y-17797D01*
X15202Y-17945D01*
X15395Y-18025D01*
X15604Y-18025D01*
X15797Y-17945D01*
X15945Y-17798D01*
X16000Y-17664D01*
X16055Y-17797D01*
X16202Y-17945D01*
X16395Y-18025D01*
X16604Y-18025D01*
X16797Y-17945D01*
X16945Y-17798D01*
X17000Y-17664D01*
X17055Y-17797D01*
X17202Y-17945D01*
X17395Y-18025D01*
X17604Y-18025D01*
X17611Y-18021D01*
X17690Y-18101D01*
X17690Y-18101D01*
G37*
G54D17*
X17690Y-18101D02*
X17601Y-18101D01*
X17509Y-18139D01*
X17500Y-18148D01*
X17491Y-18139D01*
X17400Y-18101D01*
X17301Y-18101D01*
X17101Y-18101D01*
X17009Y-18139D01*
X17000Y-18148D01*
X16991Y-18139D01*
X16900Y-18101D01*
X16801Y-18101D01*
X16601Y-18101D01*
X16509Y-18139D01*
X16439Y-18209D01*
X16401Y-18300D01*
X16401Y-18399D01*
X16401Y-18899D01*
X16439Y-18991D01*
X16460Y-19012D01*
X16460Y-19130D01*
X16380Y-19210D01*
X15120Y-19210D01*
X14790Y-18880D01*
X14790Y-18024D01*
X14824Y-18024D01*
X14916Y-17986D01*
X14986Y-17916D01*
X15024Y-17825D01*
X15024Y-17726D01*
X15024Y-17722D01*
X15055Y-17797D01*
X15202Y-17945D01*
X15395Y-18025D01*
X15604Y-18025D01*
X15797Y-17945D01*
X15945Y-17798D01*
X16000Y-17664D01*
X16055Y-17797D01*
X16202Y-17945D01*
X16395Y-18025D01*
X16604Y-18025D01*
X16797Y-17945D01*
X16945Y-17798D01*
X17000Y-17664D01*
X17055Y-17797D01*
X17202Y-17945D01*
X17395Y-18025D01*
X17604Y-18025D01*
X17611Y-18021D01*
X17690Y-18101D01*
G54D10*
G36*
X17690Y-22899D02*
X17611Y-22977D01*
X17605Y-22975D01*
X17396Y-22975D01*
X17203Y-23055D01*
X17055Y-23202D01*
X16999Y-23335D01*
X16945Y-23203D01*
X16798Y-23055D01*
X16605Y-22975D01*
X16396Y-22975D01*
X16203Y-23055D01*
X16055Y-23202D01*
X15999Y-23335D01*
X15945Y-23203D01*
X15798Y-23055D01*
X15605Y-22975D01*
X15396Y-22975D01*
X15203Y-23055D01*
X15055Y-23202D01*
X15024Y-23276D01*
X15024Y-23176D01*
X14986Y-23084D01*
X14916Y-23014D01*
X14825Y-22976D01*
X14790Y-22976D01*
X14790Y-22120D01*
X15120Y-21790D01*
X16380Y-21790D01*
X16460Y-21870D01*
X16460Y-21988D01*
X16439Y-22009D01*
X16401Y-22100D01*
X16401Y-22199D01*
X16401Y-22699D01*
X16439Y-22791D01*
X16509Y-22861D01*
X16600Y-22899D01*
X16699Y-22899D01*
X16899Y-22899D01*
X16991Y-22861D01*
X17000Y-22852D01*
X17009Y-22861D01*
X17100Y-22899D01*
X17199Y-22899D01*
X17399Y-22899D01*
X17491Y-22861D01*
X17500Y-22852D01*
X17509Y-22861D01*
X17600Y-22899D01*
X17690Y-22899D01*
X17690Y-22899D01*
G37*
G54D17*
X17690Y-22899D02*
X17611Y-22977D01*
X17605Y-22975D01*
X17396Y-22975D01*
X17203Y-23055D01*
X17055Y-23202D01*
X16999Y-23335D01*
X16945Y-23203D01*
X16798Y-23055D01*
X16605Y-22975D01*
X16396Y-22975D01*
X16203Y-23055D01*
X16055Y-23202D01*
X15999Y-23335D01*
X15945Y-23203D01*
X15798Y-23055D01*
X15605Y-22975D01*
X15396Y-22975D01*
X15203Y-23055D01*
X15055Y-23202D01*
X15024Y-23276D01*
X15024Y-23176D01*
X14986Y-23084D01*
X14916Y-23014D01*
X14825Y-22976D01*
X14790Y-22976D01*
X14790Y-22120D01*
X15120Y-21790D01*
X16380Y-21790D01*
X16460Y-21870D01*
X16460Y-21988D01*
X16439Y-22009D01*
X16401Y-22100D01*
X16401Y-22199D01*
X16401Y-22699D01*
X16439Y-22791D01*
X16509Y-22861D01*
X16600Y-22899D01*
X16699Y-22899D01*
X16899Y-22899D01*
X16991Y-22861D01*
X17000Y-22852D01*
X17009Y-22861D01*
X17100Y-22899D01*
X17199Y-22899D01*
X17399Y-22899D01*
X17491Y-22861D01*
X17500Y-22852D01*
X17509Y-22861D01*
X17600Y-22899D01*
X17690Y-22899D01*
G54D10*
G36*
X18217Y-05049D02*
X18203Y-05055D01*
X18055Y-05202D01*
X18024Y-05276D01*
X18024Y-05176D01*
X17986Y-05084D01*
X17951Y-05049D01*
X18217Y-05049D01*
X18217Y-05049D01*
G37*
G54D17*
X18217Y-05049D02*
X18203Y-05055D01*
X18055Y-05202D01*
X18024Y-05276D01*
X18024Y-05176D01*
X17986Y-05084D01*
X17951Y-05049D01*
X18217Y-05049D01*
G54D10*
G36*
X18460Y-18051D02*
X18455Y-18045D01*
X18455Y-18044D01*
X18435Y-18025D01*
X18460Y-18025D01*
X18460Y-18051D01*
X18460Y-18051D01*
G37*
G54D17*
X18460Y-18051D02*
X18455Y-18045D01*
X18455Y-18044D01*
X18435Y-18025D01*
X18460Y-18025D01*
X18460Y-18051D01*
G54D10*
G36*
X18460Y-22975D02*
X18435Y-22975D01*
X18455Y-22956D01*
X18455Y-22955D01*
X18460Y-22948D01*
X18460Y-22975D01*
X18460Y-22975D01*
G37*
G54D17*
X18460Y-22975D02*
X18435Y-22975D01*
X18455Y-22956D01*
X18455Y-22955D01*
X18460Y-22948D01*
X18460Y-22975D01*
G54D10*
G36*
X19217Y-05049D02*
X19203Y-05055D01*
X19055Y-05202D01*
X18999Y-05335D01*
X18945Y-05203D01*
X18798Y-05055D01*
X18783Y-05049D01*
X19217Y-05049D01*
X19217Y-05049D01*
G37*
G54D17*
X19217Y-05049D02*
X19203Y-05055D01*
X19055Y-05202D01*
X18999Y-05335D01*
X18945Y-05203D01*
X18798Y-05055D01*
X18783Y-05049D01*
X19217Y-05049D01*
G54D10*
G36*
X19249Y-07550D02*
X19140Y-07659D01*
X19119Y-07709D01*
X18955Y-07545D01*
X18887Y-07500D01*
X18955Y-07455D01*
X19089Y-07320D01*
X19139Y-07440D01*
X19249Y-07550D01*
X19249Y-07550D01*
G37*
G54D17*
X19249Y-07550D02*
X19140Y-07659D01*
X19119Y-07709D01*
X18955Y-07545D01*
X18887Y-07500D01*
X18955Y-07455D01*
X19089Y-07320D01*
X19139Y-07440D01*
X19249Y-07550D01*
G54D10*
G36*
X19249Y-13550D02*
X19140Y-13659D01*
X19119Y-13709D01*
X18955Y-13545D01*
X18887Y-13500D01*
X18955Y-13455D01*
X19089Y-13320D01*
X19139Y-13440D01*
X19249Y-13550D01*
X19249Y-13550D01*
G37*
G54D17*
X19249Y-13550D02*
X19140Y-13659D01*
X19119Y-13709D01*
X18955Y-13545D01*
X18887Y-13500D01*
X18955Y-13455D01*
X19089Y-13320D01*
X19139Y-13440D01*
X19249Y-13550D01*
G54D10*
G36*
X19256Y-09033D02*
X19203Y-09055D01*
X19055Y-09202D01*
X18999Y-09335D01*
X18945Y-09203D01*
X18798Y-09055D01*
X18605Y-08975D01*
X18396Y-08975D01*
X18203Y-09055D01*
X18055Y-09202D01*
X18024Y-09276D01*
X18024Y-09176D01*
X17986Y-09084D01*
X17916Y-09014D01*
X17825Y-08976D01*
X17790Y-08976D01*
X17790Y-08370D01*
X18120Y-08040D01*
X18630Y-08040D01*
X18710Y-08120D01*
X18710Y-08213D01*
X18689Y-08234D01*
X18651Y-08325D01*
X18651Y-08424D01*
X18651Y-08874D01*
X18689Y-08966D01*
X18759Y-09036D01*
X18850Y-09074D01*
X18949Y-09074D01*
X19149Y-09074D01*
X19241Y-09036D01*
X19250Y-09027D01*
X19256Y-09033D01*
X19256Y-09033D01*
G37*
G54D17*
X19256Y-09033D02*
X19203Y-09055D01*
X19055Y-09202D01*
X18999Y-09335D01*
X18945Y-09203D01*
X18798Y-09055D01*
X18605Y-08975D01*
X18396Y-08975D01*
X18203Y-09055D01*
X18055Y-09202D01*
X18024Y-09276D01*
X18024Y-09176D01*
X17986Y-09084D01*
X17916Y-09014D01*
X17825Y-08976D01*
X17790Y-08976D01*
X17790Y-08370D01*
X18120Y-08040D01*
X18630Y-08040D01*
X18710Y-08120D01*
X18710Y-08213D01*
X18689Y-08234D01*
X18651Y-08325D01*
X18651Y-08424D01*
X18651Y-08874D01*
X18689Y-08966D01*
X18759Y-09036D01*
X18850Y-09074D01*
X18949Y-09074D01*
X19149Y-09074D01*
X19241Y-09036D01*
X19250Y-09027D01*
X19256Y-09033D01*
G54D10*
G36*
X19256Y-15033D02*
X19203Y-15055D01*
X19055Y-15202D01*
X18999Y-15335D01*
X18945Y-15203D01*
X18798Y-15055D01*
X18605Y-14975D01*
X18396Y-14975D01*
X18203Y-15055D01*
X18055Y-15202D01*
X18024Y-15276D01*
X18024Y-15176D01*
X17986Y-15084D01*
X17916Y-15014D01*
X17825Y-14976D01*
X17790Y-14976D01*
X17790Y-14370D01*
X18120Y-14040D01*
X18630Y-14040D01*
X18710Y-14120D01*
X18710Y-14213D01*
X18689Y-14234D01*
X18651Y-14325D01*
X18651Y-14424D01*
X18651Y-14874D01*
X18689Y-14966D01*
X18759Y-15036D01*
X18850Y-15074D01*
X18949Y-15074D01*
X19149Y-15074D01*
X19241Y-15036D01*
X19250Y-15027D01*
X19256Y-15033D01*
X19256Y-15033D01*
G37*
G54D17*
X19256Y-15033D02*
X19203Y-15055D01*
X19055Y-15202D01*
X18999Y-15335D01*
X18945Y-15203D01*
X18798Y-15055D01*
X18605Y-14975D01*
X18396Y-14975D01*
X18203Y-15055D01*
X18055Y-15202D01*
X18024Y-15276D01*
X18024Y-15176D01*
X17986Y-15084D01*
X17916Y-15014D01*
X17825Y-14976D01*
X17790Y-14976D01*
X17790Y-14370D01*
X18120Y-14040D01*
X18630Y-14040D01*
X18710Y-14120D01*
X18710Y-14213D01*
X18689Y-14234D01*
X18651Y-14325D01*
X18651Y-14424D01*
X18651Y-14874D01*
X18689Y-14966D01*
X18759Y-15036D01*
X18850Y-15074D01*
X18949Y-15074D01*
X19149Y-15074D01*
X19241Y-15036D01*
X19250Y-15027D01*
X19256Y-15033D01*
G54D10*
G36*
X19564Y-18025D02*
X19545Y-18045D01*
X19540Y-18052D01*
X19540Y-18025D01*
X19564Y-18025D01*
X19564Y-18025D01*
G37*
G54D17*
X19564Y-18025D02*
X19545Y-18045D01*
X19540Y-18052D01*
X19540Y-18025D01*
X19564Y-18025D01*
G54D10*
G36*
X19564Y-22975D02*
X19540Y-22975D01*
X19540Y-22947D01*
X19545Y-22955D01*
X19564Y-22975D01*
X19564Y-22975D01*
G37*
G54D17*
X19564Y-22975D02*
X19540Y-22975D01*
X19540Y-22947D01*
X19545Y-22955D01*
X19564Y-22975D01*
G54D10*
G36*
X19616Y-06026D02*
X19551Y-06026D01*
X19351Y-06026D01*
X19259Y-06064D01*
X19250Y-06073D01*
X19241Y-06064D01*
X19150Y-06026D01*
X19051Y-06026D01*
X18851Y-06026D01*
X18759Y-06064D01*
X18689Y-06134D01*
X18651Y-06225D01*
X18651Y-06324D01*
X18651Y-06774D01*
X18689Y-06866D01*
X18706Y-06883D01*
X18630Y-06960D01*
X18120Y-06960D01*
X17790Y-06630D01*
X17790Y-06024D01*
X17824Y-06024D01*
X17916Y-05986D01*
X17986Y-05916D01*
X18024Y-05825D01*
X18024Y-05726D01*
X18024Y-05722D01*
X18055Y-05797D01*
X18202Y-05945D01*
X18395Y-06025D01*
X18604Y-06025D01*
X18797Y-05945D01*
X18945Y-05798D01*
X19000Y-05664D01*
X19055Y-05797D01*
X19202Y-05945D01*
X19395Y-06025D01*
X19604Y-06025D01*
X19611Y-06021D01*
X19616Y-06026D01*
X19616Y-06026D01*
G37*
G54D17*
X19616Y-06026D02*
X19551Y-06026D01*
X19351Y-06026D01*
X19259Y-06064D01*
X19250Y-06073D01*
X19241Y-06064D01*
X19150Y-06026D01*
X19051Y-06026D01*
X18851Y-06026D01*
X18759Y-06064D01*
X18689Y-06134D01*
X18651Y-06225D01*
X18651Y-06324D01*
X18651Y-06774D01*
X18689Y-06866D01*
X18706Y-06883D01*
X18630Y-06960D01*
X18120Y-06960D01*
X17790Y-06630D01*
X17790Y-06024D01*
X17824Y-06024D01*
X17916Y-05986D01*
X17986Y-05916D01*
X18024Y-05825D01*
X18024Y-05726D01*
X18024Y-05722D01*
X18055Y-05797D01*
X18202Y-05945D01*
X18395Y-06025D01*
X18604Y-06025D01*
X18797Y-05945D01*
X18945Y-05798D01*
X19000Y-05664D01*
X19055Y-05797D01*
X19202Y-05945D01*
X19395Y-06025D01*
X19604Y-06025D01*
X19611Y-06021D01*
X19616Y-06026D01*
G54D10*
G36*
X19616Y-12026D02*
X19551Y-12026D01*
X19351Y-12026D01*
X19259Y-12064D01*
X19250Y-12073D01*
X19241Y-12064D01*
X19150Y-12026D01*
X19051Y-12026D01*
X18851Y-12026D01*
X18759Y-12064D01*
X18689Y-12134D01*
X18651Y-12225D01*
X18651Y-12324D01*
X18651Y-12774D01*
X18689Y-12866D01*
X18706Y-12883D01*
X18630Y-12960D01*
X18120Y-12960D01*
X17790Y-12630D01*
X17790Y-12024D01*
X17824Y-12024D01*
X17916Y-11986D01*
X17986Y-11916D01*
X18024Y-11825D01*
X18024Y-11726D01*
X18024Y-11722D01*
X18055Y-11797D01*
X18202Y-11945D01*
X18395Y-12025D01*
X18604Y-12025D01*
X18797Y-11945D01*
X18945Y-11798D01*
X19000Y-11664D01*
X19055Y-11797D01*
X19202Y-11945D01*
X19395Y-12025D01*
X19604Y-12025D01*
X19611Y-12021D01*
X19616Y-12026D01*
X19616Y-12026D01*
G37*
G54D17*
X19616Y-12026D02*
X19551Y-12026D01*
X19351Y-12026D01*
X19259Y-12064D01*
X19250Y-12073D01*
X19241Y-12064D01*
X19150Y-12026D01*
X19051Y-12026D01*
X18851Y-12026D01*
X18759Y-12064D01*
X18689Y-12134D01*
X18651Y-12225D01*
X18651Y-12324D01*
X18651Y-12774D01*
X18689Y-12866D01*
X18706Y-12883D01*
X18630Y-12960D01*
X18120Y-12960D01*
X17790Y-12630D01*
X17790Y-12024D01*
X17824Y-12024D01*
X17916Y-11986D01*
X17986Y-11916D01*
X18024Y-11825D01*
X18024Y-11726D01*
X18024Y-11722D01*
X18055Y-11797D01*
X18202Y-11945D01*
X18395Y-12025D01*
X18604Y-12025D01*
X18797Y-11945D01*
X18945Y-11798D01*
X19000Y-11664D01*
X19055Y-11797D01*
X19202Y-11945D01*
X19395Y-12025D01*
X19604Y-12025D01*
X19611Y-12021D01*
X19616Y-12026D01*
G54D10*
G36*
X20217Y-05049D02*
X20203Y-05055D01*
X20055Y-05202D01*
X19999Y-05335D01*
X19945Y-05203D01*
X19798Y-05055D01*
X19783Y-05049D01*
X20217Y-05049D01*
X20217Y-05049D01*
G37*
G54D17*
X20217Y-05049D02*
X20203Y-05055D01*
X20055Y-05202D01*
X19999Y-05335D01*
X19945Y-05203D01*
X19798Y-05055D01*
X19783Y-05049D01*
X20217Y-05049D01*
G54D10*
G36*
X21217Y-05049D02*
X21203Y-05055D01*
X21055Y-05202D01*
X20999Y-05335D01*
X20945Y-05203D01*
X20798Y-05055D01*
X20783Y-05049D01*
X21217Y-05049D01*
X21217Y-05049D01*
G37*
G54D17*
X21217Y-05049D02*
X21203Y-05055D01*
X21055Y-05202D01*
X20999Y-05335D01*
X20945Y-05203D01*
X20798Y-05055D01*
X20783Y-05049D01*
X21217Y-05049D01*
G54D10*
G36*
X21249Y-07550D02*
X21140Y-07659D01*
X21075Y-07815D01*
X21075Y-07984D01*
X21133Y-08126D01*
X21051Y-08126D01*
X20851Y-08126D01*
X20759Y-08164D01*
X20750Y-08173D01*
X20741Y-08164D01*
X20650Y-08126D01*
X20551Y-08126D01*
X20351Y-08126D01*
X20259Y-08164D01*
X20250Y-08173D01*
X20241Y-08164D01*
X20150Y-08126D01*
X20051Y-08126D01*
X19866Y-08126D01*
X19925Y-07985D01*
X19925Y-07816D01*
X19861Y-07660D01*
X19751Y-07550D01*
X19860Y-07441D01*
X19925Y-07285D01*
X19925Y-07116D01*
X19866Y-06974D01*
X19949Y-06974D01*
X20149Y-06974D01*
X20241Y-06936D01*
X20250Y-06927D01*
X20259Y-06936D01*
X20350Y-06974D01*
X20449Y-06974D01*
X20649Y-06974D01*
X20741Y-06936D01*
X20750Y-06927D01*
X20759Y-06936D01*
X20850Y-06974D01*
X20949Y-06974D01*
X21133Y-06974D01*
X21075Y-07115D01*
X21075Y-07284D01*
X21139Y-07440D01*
X21249Y-07550D01*
X21249Y-07550D01*
G37*
G54D17*
X21249Y-07550D02*
X21140Y-07659D01*
X21075Y-07815D01*
X21075Y-07984D01*
X21133Y-08126D01*
X21051Y-08126D01*
X20851Y-08126D01*
X20759Y-08164D01*
X20750Y-08173D01*
X20741Y-08164D01*
X20650Y-08126D01*
X20551Y-08126D01*
X20351Y-08126D01*
X20259Y-08164D01*
X20250Y-08173D01*
X20241Y-08164D01*
X20150Y-08126D01*
X20051Y-08126D01*
X19866Y-08126D01*
X19925Y-07985D01*
X19925Y-07816D01*
X19861Y-07660D01*
X19751Y-07550D01*
X19860Y-07441D01*
X19925Y-07285D01*
X19925Y-07116D01*
X19866Y-06974D01*
X19949Y-06974D01*
X20149Y-06974D01*
X20241Y-06936D01*
X20250Y-06927D01*
X20259Y-06936D01*
X20350Y-06974D01*
X20449Y-06974D01*
X20649Y-06974D01*
X20741Y-06936D01*
X20750Y-06927D01*
X20759Y-06936D01*
X20850Y-06974D01*
X20949Y-06974D01*
X21133Y-06974D01*
X21075Y-07115D01*
X21075Y-07284D01*
X21139Y-07440D01*
X21249Y-07550D01*
G54D10*
G36*
X21249Y-13550D02*
X21140Y-13659D01*
X21075Y-13815D01*
X21075Y-13984D01*
X21133Y-14126D01*
X21051Y-14126D01*
X20851Y-14126D01*
X20759Y-14164D01*
X20750Y-14173D01*
X20741Y-14164D01*
X20650Y-14126D01*
X20551Y-14126D01*
X20351Y-14126D01*
X20259Y-14164D01*
X20250Y-14173D01*
X20241Y-14164D01*
X20150Y-14126D01*
X20051Y-14126D01*
X19866Y-14126D01*
X19925Y-13985D01*
X19925Y-13816D01*
X19861Y-13660D01*
X19751Y-13550D01*
X19860Y-13441D01*
X19925Y-13285D01*
X19925Y-13116D01*
X19866Y-12974D01*
X19949Y-12974D01*
X20149Y-12974D01*
X20241Y-12936D01*
X20250Y-12927D01*
X20259Y-12936D01*
X20350Y-12974D01*
X20449Y-12974D01*
X20649Y-12974D01*
X20741Y-12936D01*
X20750Y-12927D01*
X20759Y-12936D01*
X20850Y-12974D01*
X20949Y-12974D01*
X21133Y-12974D01*
X21075Y-13115D01*
X21075Y-13284D01*
X21139Y-13440D01*
X21249Y-13550D01*
X21249Y-13550D01*
G37*
G54D17*
X21249Y-13550D02*
X21140Y-13659D01*
X21075Y-13815D01*
X21075Y-13984D01*
X21133Y-14126D01*
X21051Y-14126D01*
X20851Y-14126D01*
X20759Y-14164D01*
X20750Y-14173D01*
X20741Y-14164D01*
X20650Y-14126D01*
X20551Y-14126D01*
X20351Y-14126D01*
X20259Y-14164D01*
X20250Y-14173D01*
X20241Y-14164D01*
X20150Y-14126D01*
X20051Y-14126D01*
X19866Y-14126D01*
X19925Y-13985D01*
X19925Y-13816D01*
X19861Y-13660D01*
X19751Y-13550D01*
X19860Y-13441D01*
X19925Y-13285D01*
X19925Y-13116D01*
X19866Y-12974D01*
X19949Y-12974D01*
X20149Y-12974D01*
X20241Y-12936D01*
X20250Y-12927D01*
X20259Y-12936D01*
X20350Y-12974D01*
X20449Y-12974D01*
X20649Y-12974D01*
X20741Y-12936D01*
X20750Y-12927D01*
X20759Y-12936D01*
X20850Y-12974D01*
X20949Y-12974D01*
X21133Y-12974D01*
X21075Y-13115D01*
X21075Y-13284D01*
X21139Y-13440D01*
X21249Y-13550D01*
G54D10*
G36*
X22112Y-07500D02*
X22045Y-07545D01*
X21881Y-07708D01*
X21861Y-07660D01*
X21751Y-07550D01*
X21860Y-07441D01*
X21910Y-07320D01*
X22045Y-07455D01*
X22112Y-07500D01*
X22112Y-07500D01*
G37*
G54D17*
X22112Y-07500D02*
X22045Y-07545D01*
X21881Y-07708D01*
X21861Y-07660D01*
X21751Y-07550D01*
X21860Y-07441D01*
X21910Y-07320D01*
X22045Y-07455D01*
X22112Y-07500D01*
G54D10*
G36*
X22112Y-13500D02*
X22045Y-13545D01*
X21881Y-13708D01*
X21861Y-13660D01*
X21751Y-13550D01*
X21860Y-13441D01*
X21910Y-13320D01*
X22045Y-13455D01*
X22112Y-13500D01*
X22112Y-13500D01*
G37*
G54D17*
X22112Y-13500D02*
X22045Y-13545D01*
X21881Y-13708D01*
X21861Y-13660D01*
X21751Y-13550D01*
X21860Y-13441D01*
X21910Y-13320D01*
X22045Y-13455D01*
X22112Y-13500D01*
G54D10*
G36*
X22217Y-05049D02*
X22203Y-05055D01*
X22055Y-05202D01*
X21999Y-05335D01*
X21945Y-05203D01*
X21798Y-05055D01*
X21783Y-05049D01*
X22217Y-05049D01*
X22217Y-05049D01*
G37*
G54D17*
X22217Y-05049D02*
X22203Y-05055D01*
X22055Y-05202D01*
X21999Y-05335D01*
X21945Y-05203D01*
X21798Y-05055D01*
X21783Y-05049D01*
X22217Y-05049D01*
G54D10*
G36*
X23210Y-06630D02*
X22880Y-06960D01*
X22370Y-06960D01*
X22293Y-06883D01*
X22311Y-06866D01*
X22349Y-06775D01*
X22349Y-06676D01*
X22349Y-06226D01*
X22311Y-06134D01*
X22241Y-06064D01*
X22150Y-06026D01*
X22051Y-06026D01*
X21851Y-06026D01*
X21759Y-06064D01*
X21750Y-06073D01*
X21741Y-06064D01*
X21650Y-06026D01*
X21551Y-06026D01*
X21384Y-06026D01*
X21387Y-06022D01*
X21395Y-06025D01*
X21604Y-06025D01*
X21797Y-05945D01*
X21945Y-05798D01*
X22000Y-05664D01*
X22055Y-05797D01*
X22202Y-05945D01*
X22395Y-06025D01*
X22604Y-06025D01*
X22797Y-05945D01*
X22945Y-05798D01*
X23000Y-05664D01*
X23055Y-05797D01*
X23202Y-05945D01*
X23210Y-05948D01*
X23210Y-06630D01*
X23210Y-06630D01*
G37*
G54D17*
X23210Y-06630D02*
X22880Y-06960D01*
X22370Y-06960D01*
X22293Y-06883D01*
X22311Y-06866D01*
X22349Y-06775D01*
X22349Y-06676D01*
X22349Y-06226D01*
X22311Y-06134D01*
X22241Y-06064D01*
X22150Y-06026D01*
X22051Y-06026D01*
X21851Y-06026D01*
X21759Y-06064D01*
X21750Y-06073D01*
X21741Y-06064D01*
X21650Y-06026D01*
X21551Y-06026D01*
X21384Y-06026D01*
X21387Y-06022D01*
X21395Y-06025D01*
X21604Y-06025D01*
X21797Y-05945D01*
X21945Y-05798D01*
X22000Y-05664D01*
X22055Y-05797D01*
X22202Y-05945D01*
X22395Y-06025D01*
X22604Y-06025D01*
X22797Y-05945D01*
X22945Y-05798D01*
X23000Y-05664D01*
X23055Y-05797D01*
X23202Y-05945D01*
X23210Y-05948D01*
X23210Y-06630D01*
G54D10*
G36*
X23210Y-09052D02*
X23203Y-09055D01*
X23055Y-09202D01*
X22999Y-09335D01*
X22945Y-09203D01*
X22798Y-09055D01*
X22605Y-08975D01*
X22396Y-08975D01*
X22203Y-09055D01*
X22055Y-09202D01*
X21999Y-09335D01*
X21945Y-09203D01*
X21798Y-09055D01*
X21744Y-09032D01*
X21750Y-09027D01*
X21759Y-09036D01*
X21850Y-09074D01*
X21949Y-09074D01*
X22149Y-09074D01*
X22241Y-09036D01*
X22311Y-08966D01*
X22349Y-08875D01*
X22349Y-08776D01*
X22349Y-08326D01*
X22311Y-08234D01*
X22290Y-08213D01*
X22290Y-08120D01*
X22370Y-08040D01*
X22880Y-08040D01*
X23210Y-08370D01*
X23210Y-09052D01*
X23210Y-09052D01*
G37*
G54D17*
X23210Y-09052D02*
X23203Y-09055D01*
X23055Y-09202D01*
X22999Y-09335D01*
X22945Y-09203D01*
X22798Y-09055D01*
X22605Y-08975D01*
X22396Y-08975D01*
X22203Y-09055D01*
X22055Y-09202D01*
X21999Y-09335D01*
X21945Y-09203D01*
X21798Y-09055D01*
X21744Y-09032D01*
X21750Y-09027D01*
X21759Y-09036D01*
X21850Y-09074D01*
X21949Y-09074D01*
X22149Y-09074D01*
X22241Y-09036D01*
X22311Y-08966D01*
X22349Y-08875D01*
X22349Y-08776D01*
X22349Y-08326D01*
X22311Y-08234D01*
X22290Y-08213D01*
X22290Y-08120D01*
X22370Y-08040D01*
X22880Y-08040D01*
X23210Y-08370D01*
X23210Y-09052D01*
G54D10*
G36*
X23210Y-12630D02*
X22880Y-12960D01*
X22370Y-12960D01*
X22293Y-12883D01*
X22311Y-12866D01*
X22349Y-12775D01*
X22349Y-12676D01*
X22349Y-12226D01*
X22311Y-12134D01*
X22241Y-12064D01*
X22150Y-12026D01*
X22051Y-12026D01*
X21851Y-12026D01*
X21759Y-12064D01*
X21750Y-12073D01*
X21741Y-12064D01*
X21650Y-12026D01*
X21551Y-12026D01*
X21384Y-12026D01*
X21387Y-12022D01*
X21395Y-12025D01*
X21604Y-12025D01*
X21797Y-11945D01*
X21945Y-11798D01*
X22000Y-11664D01*
X22055Y-11797D01*
X22202Y-11945D01*
X22395Y-12025D01*
X22604Y-12025D01*
X22797Y-11945D01*
X22945Y-11798D01*
X23000Y-11664D01*
X23055Y-11797D01*
X23202Y-11945D01*
X23210Y-11948D01*
X23210Y-12630D01*
X23210Y-12630D01*
G37*
G54D17*
X23210Y-12630D02*
X22880Y-12960D01*
X22370Y-12960D01*
X22293Y-12883D01*
X22311Y-12866D01*
X22349Y-12775D01*
X22349Y-12676D01*
X22349Y-12226D01*
X22311Y-12134D01*
X22241Y-12064D01*
X22150Y-12026D01*
X22051Y-12026D01*
X21851Y-12026D01*
X21759Y-12064D01*
X21750Y-12073D01*
X21741Y-12064D01*
X21650Y-12026D01*
X21551Y-12026D01*
X21384Y-12026D01*
X21387Y-12022D01*
X21395Y-12025D01*
X21604Y-12025D01*
X21797Y-11945D01*
X21945Y-11798D01*
X22000Y-11664D01*
X22055Y-11797D01*
X22202Y-11945D01*
X22395Y-12025D01*
X22604Y-12025D01*
X22797Y-11945D01*
X22945Y-11798D01*
X23000Y-11664D01*
X23055Y-11797D01*
X23202Y-11945D01*
X23210Y-11948D01*
X23210Y-12630D01*
G54D10*
G36*
X23210Y-15052D02*
X23203Y-15055D01*
X23055Y-15202D01*
X22999Y-15335D01*
X22945Y-15203D01*
X22798Y-15055D01*
X22605Y-14975D01*
X22396Y-14975D01*
X22203Y-15055D01*
X22055Y-15202D01*
X21999Y-15335D01*
X21945Y-15203D01*
X21798Y-15055D01*
X21744Y-15032D01*
X21750Y-15027D01*
X21759Y-15036D01*
X21850Y-15074D01*
X21949Y-15074D01*
X22149Y-15074D01*
X22241Y-15036D01*
X22311Y-14966D01*
X22349Y-14875D01*
X22349Y-14776D01*
X22349Y-14326D01*
X22311Y-14234D01*
X22290Y-14213D01*
X22290Y-14120D01*
X22370Y-14040D01*
X22880Y-14040D01*
X23210Y-14370D01*
X23210Y-15052D01*
X23210Y-15052D01*
G37*
G54D17*
X23210Y-15052D02*
X23203Y-15055D01*
X23055Y-15202D01*
X22999Y-15335D01*
X22945Y-15203D01*
X22798Y-15055D01*
X22605Y-14975D01*
X22396Y-14975D01*
X22203Y-15055D01*
X22055Y-15202D01*
X21999Y-15335D01*
X21945Y-15203D01*
X21798Y-15055D01*
X21744Y-15032D01*
X21750Y-15027D01*
X21759Y-15036D01*
X21850Y-15074D01*
X21949Y-15074D01*
X22149Y-15074D01*
X22241Y-15036D01*
X22311Y-14966D01*
X22349Y-14875D01*
X22349Y-14776D01*
X22349Y-14326D01*
X22311Y-14234D01*
X22290Y-14213D01*
X22290Y-14120D01*
X22370Y-14040D01*
X22880Y-14040D01*
X23210Y-14370D01*
X23210Y-15052D01*
G54D10*
G36*
X23210Y-18880D02*
X22880Y-19210D01*
X21620Y-19210D01*
X21540Y-19130D01*
X21540Y-19012D01*
X21561Y-18991D01*
X21599Y-18900D01*
X21599Y-18801D01*
X21599Y-18301D01*
X21561Y-18209D01*
X21491Y-18139D01*
X21400Y-18101D01*
X21301Y-18101D01*
X21101Y-18101D01*
X21009Y-18139D01*
X21000Y-18148D01*
X20991Y-18139D01*
X20900Y-18101D01*
X20801Y-18101D01*
X20601Y-18101D01*
X20509Y-18139D01*
X20500Y-18148D01*
X20491Y-18139D01*
X20400Y-18101D01*
X20309Y-18101D01*
X20388Y-18022D01*
X20395Y-18025D01*
X20604Y-18025D01*
X20797Y-17945D01*
X20945Y-17798D01*
X21000Y-17664D01*
X21055Y-17797D01*
X21202Y-17945D01*
X21395Y-18025D01*
X21604Y-18025D01*
X21797Y-17945D01*
X21945Y-17798D01*
X22000Y-17664D01*
X22055Y-17797D01*
X22202Y-17945D01*
X22395Y-18025D01*
X22604Y-18025D01*
X22797Y-17945D01*
X22945Y-17798D01*
X23000Y-17664D01*
X23055Y-17797D01*
X23202Y-17945D01*
X23210Y-17948D01*
X23210Y-18880D01*
X23210Y-18880D01*
G37*
G54D17*
X23210Y-18880D02*
X22880Y-19210D01*
X21620Y-19210D01*
X21540Y-19130D01*
X21540Y-19012D01*
X21561Y-18991D01*
X21599Y-18900D01*
X21599Y-18801D01*
X21599Y-18301D01*
X21561Y-18209D01*
X21491Y-18139D01*
X21400Y-18101D01*
X21301Y-18101D01*
X21101Y-18101D01*
X21009Y-18139D01*
X21000Y-18148D01*
X20991Y-18139D01*
X20900Y-18101D01*
X20801Y-18101D01*
X20601Y-18101D01*
X20509Y-18139D01*
X20500Y-18148D01*
X20491Y-18139D01*
X20400Y-18101D01*
X20309Y-18101D01*
X20388Y-18022D01*
X20395Y-18025D01*
X20604Y-18025D01*
X20797Y-17945D01*
X20945Y-17798D01*
X21000Y-17664D01*
X21055Y-17797D01*
X21202Y-17945D01*
X21395Y-18025D01*
X21604Y-18025D01*
X21797Y-17945D01*
X21945Y-17798D01*
X22000Y-17664D01*
X22055Y-17797D01*
X22202Y-17945D01*
X22395Y-18025D01*
X22604Y-18025D01*
X22797Y-17945D01*
X22945Y-17798D01*
X23000Y-17664D01*
X23055Y-17797D01*
X23202Y-17945D01*
X23210Y-17948D01*
X23210Y-18880D01*
G54D10*
G36*
X23210Y-23052D02*
X23203Y-23055D01*
X23055Y-23202D01*
X22999Y-23335D01*
X22945Y-23203D01*
X22798Y-23055D01*
X22605Y-22975D01*
X22396Y-22975D01*
X22203Y-23055D01*
X22055Y-23202D01*
X21999Y-23335D01*
X21945Y-23203D01*
X21798Y-23055D01*
X21605Y-22975D01*
X21396Y-22975D01*
X21203Y-23055D01*
X21055Y-23202D01*
X20999Y-23335D01*
X20945Y-23203D01*
X20798Y-23055D01*
X20605Y-22975D01*
X20396Y-22975D01*
X20388Y-22978D01*
X20309Y-22899D01*
X20399Y-22899D01*
X20491Y-22861D01*
X20500Y-22852D01*
X20509Y-22861D01*
X20600Y-22899D01*
X20699Y-22899D01*
X20899Y-22899D01*
X20991Y-22861D01*
X21000Y-22852D01*
X21009Y-22861D01*
X21100Y-22899D01*
X21199Y-22899D01*
X21399Y-22899D01*
X21491Y-22861D01*
X21561Y-22791D01*
X21599Y-22700D01*
X21599Y-22601D01*
X21599Y-22101D01*
X21561Y-22009D01*
X21540Y-21988D01*
X21540Y-21870D01*
X21620Y-21790D01*
X22880Y-21790D01*
X23210Y-22120D01*
X23210Y-23052D01*
X23210Y-23052D01*
G37*
G54D17*
X23210Y-23052D02*
X23203Y-23055D01*
X23055Y-23202D01*
X22999Y-23335D01*
X22945Y-23203D01*
X22798Y-23055D01*
X22605Y-22975D01*
X22396Y-22975D01*
X22203Y-23055D01*
X22055Y-23202D01*
X21999Y-23335D01*
X21945Y-23203D01*
X21798Y-23055D01*
X21605Y-22975D01*
X21396Y-22975D01*
X21203Y-23055D01*
X21055Y-23202D01*
X20999Y-23335D01*
X20945Y-23203D01*
X20798Y-23055D01*
X20605Y-22975D01*
X20396Y-22975D01*
X20388Y-22978D01*
X20309Y-22899D01*
X20399Y-22899D01*
X20491Y-22861D01*
X20500Y-22852D01*
X20509Y-22861D01*
X20600Y-22899D01*
X20699Y-22899D01*
X20899Y-22899D01*
X20991Y-22861D01*
X21000Y-22852D01*
X21009Y-22861D01*
X21100Y-22899D01*
X21199Y-22899D01*
X21399Y-22899D01*
X21491Y-22861D01*
X21561Y-22791D01*
X21599Y-22700D01*
X21599Y-22601D01*
X21599Y-22101D01*
X21561Y-22009D01*
X21540Y-21988D01*
X21540Y-21870D01*
X21620Y-21790D01*
X22880Y-21790D01*
X23210Y-22120D01*
X23210Y-23052D01*
G54D10*
G36*
X23217Y-05049D02*
X23203Y-05055D01*
X23055Y-05202D01*
X22999Y-05335D01*
X22945Y-05203D01*
X22798Y-05055D01*
X22783Y-05049D01*
X23217Y-05049D01*
X23217Y-05049D01*
G37*
G54D17*
X23217Y-05049D02*
X23203Y-05055D01*
X23055Y-05202D01*
X22999Y-05335D01*
X22945Y-05203D01*
X22798Y-05055D01*
X22783Y-05049D01*
X23217Y-05049D01*
G54D10*
G36*
X24084Y-24084D02*
X24025Y-24084D01*
X24025Y-23605D01*
X24025Y-23396D01*
X24025Y-17605D01*
X24025Y-17396D01*
X24025Y-15605D01*
X24025Y-15396D01*
X23945Y-15203D01*
X23798Y-15055D01*
X23790Y-15051D01*
X23790Y-14250D01*
X23768Y-14139D01*
X23705Y-14045D01*
X23205Y-13545D01*
X23137Y-13500D01*
X23205Y-13455D01*
X23705Y-12955D01*
X23768Y-12861D01*
X23790Y-12750D01*
X23790Y-11947D01*
X23797Y-11945D01*
X23945Y-11798D01*
X24025Y-11605D01*
X24025Y-11396D01*
X23945Y-11203D01*
X23798Y-11055D01*
X23605Y-10975D01*
X23396Y-10975D01*
X23203Y-11055D01*
X23055Y-11202D01*
X22999Y-11335D01*
X22945Y-11203D01*
X22798Y-11055D01*
X22605Y-10975D01*
X22396Y-10975D01*
X22203Y-11055D01*
X22055Y-11202D01*
X21999Y-11335D01*
X21945Y-11203D01*
X21798Y-11055D01*
X21605Y-10975D01*
X21396Y-10975D01*
X21203Y-11055D01*
X21055Y-11202D01*
X20999Y-11335D01*
X20945Y-11203D01*
X20798Y-11055D01*
X20605Y-10975D01*
X20396Y-10975D01*
X20203Y-11055D01*
X20055Y-11202D01*
X19999Y-11335D01*
X19945Y-11203D01*
X19798Y-11055D01*
X19605Y-10975D01*
X19396Y-10975D01*
X19203Y-11055D01*
X19055Y-11202D01*
X18999Y-11335D01*
X18945Y-11203D01*
X18798Y-11055D01*
X18605Y-10975D01*
X18396Y-10975D01*
X18203Y-11055D01*
X18055Y-11202D01*
X18024Y-11276D01*
X18024Y-11176D01*
X17986Y-11084D01*
X17916Y-11014D01*
X17825Y-10976D01*
X17726Y-10976D01*
X17176Y-10976D01*
X17084Y-11014D01*
X17014Y-11084D01*
X16976Y-11175D01*
X16976Y-11274D01*
X16976Y-11824D01*
X17014Y-11916D01*
X17084Y-11986D01*
X17175Y-12024D01*
X17210Y-12024D01*
X17210Y-12750D01*
X17232Y-12861D01*
X17295Y-12955D01*
X17795Y-13455D01*
X17862Y-13500D01*
X17795Y-13545D01*
X17295Y-14045D01*
X17232Y-14139D01*
X17210Y-14250D01*
X17210Y-14976D01*
X17176Y-14976D01*
X17084Y-15014D01*
X17014Y-15084D01*
X16976Y-15175D01*
X16976Y-15274D01*
X16976Y-15824D01*
X17014Y-15916D01*
X17084Y-15986D01*
X17175Y-16024D01*
X17274Y-16024D01*
X17824Y-16024D01*
X17916Y-15986D01*
X17986Y-15916D01*
X18024Y-15825D01*
X18024Y-15726D01*
X18024Y-15722D01*
X18055Y-15797D01*
X18202Y-15945D01*
X18395Y-16025D01*
X18604Y-16025D01*
X18797Y-15945D01*
X18945Y-15798D01*
X19000Y-15664D01*
X19055Y-15797D01*
X19202Y-15945D01*
X19395Y-16025D01*
X19604Y-16025D01*
X19797Y-15945D01*
X19945Y-15798D01*
X20000Y-15664D01*
X20055Y-15797D01*
X20202Y-15945D01*
X20395Y-16025D01*
X20604Y-16025D01*
X20797Y-15945D01*
X20945Y-15798D01*
X21000Y-15664D01*
X21055Y-15797D01*
X21202Y-15945D01*
X21395Y-16025D01*
X21604Y-16025D01*
X21797Y-15945D01*
X21945Y-15798D01*
X22000Y-15664D01*
X22055Y-15797D01*
X22202Y-15945D01*
X22395Y-16025D01*
X22604Y-16025D01*
X22797Y-15945D01*
X22945Y-15798D01*
X23000Y-15664D01*
X23055Y-15797D01*
X23202Y-15945D01*
X23395Y-16025D01*
X23604Y-16025D01*
X23797Y-15945D01*
X23945Y-15798D01*
X24025Y-15605D01*
X24025Y-17396D01*
X23945Y-17203D01*
X23798Y-17055D01*
X23605Y-16975D01*
X23396Y-16975D01*
X23203Y-17055D01*
X23055Y-17202D01*
X22999Y-17335D01*
X22945Y-17203D01*
X22798Y-17055D01*
X22605Y-16975D01*
X22396Y-16975D01*
X22203Y-17055D01*
X22055Y-17202D01*
X21999Y-17335D01*
X21945Y-17203D01*
X21798Y-17055D01*
X21605Y-16975D01*
X21396Y-16975D01*
X21203Y-17055D01*
X21055Y-17202D01*
X20999Y-17335D01*
X20945Y-17203D01*
X20798Y-17055D01*
X20605Y-16975D01*
X20396Y-16975D01*
X20203Y-17055D01*
X20055Y-17202D01*
X19999Y-17335D01*
X19945Y-17203D01*
X19798Y-17055D01*
X19605Y-16975D01*
X19396Y-16975D01*
X19203Y-17055D01*
X19055Y-17202D01*
X18999Y-17335D01*
X18945Y-17203D01*
X18798Y-17055D01*
X18605Y-16975D01*
X18396Y-16975D01*
X18203Y-17055D01*
X18055Y-17202D01*
X17999Y-17335D01*
X17945Y-17203D01*
X17798Y-17055D01*
X17605Y-16975D01*
X17396Y-16975D01*
X17203Y-17055D01*
X17055Y-17202D01*
X16999Y-17335D01*
X16945Y-17203D01*
X16798Y-17055D01*
X16605Y-16975D01*
X16396Y-16975D01*
X16203Y-17055D01*
X16055Y-17202D01*
X15999Y-17335D01*
X15945Y-17203D01*
X15798Y-17055D01*
X15605Y-16975D01*
X15396Y-16975D01*
X15203Y-17055D01*
X15055Y-17202D01*
X15024Y-17276D01*
X15024Y-17176D01*
X14986Y-17084D01*
X14916Y-17014D01*
X14825Y-16976D01*
X14726Y-16976D01*
X14176Y-16976D01*
X14084Y-17014D01*
X14014Y-17084D01*
X13976Y-17175D01*
X13976Y-17274D01*
X13976Y-17824D01*
X14014Y-17916D01*
X14084Y-17986D01*
X14175Y-18024D01*
X14210Y-18024D01*
X14210Y-19000D01*
X14232Y-19111D01*
X14295Y-19205D01*
X14795Y-19705D01*
X14889Y-19768D01*
X15000Y-19790D01*
X16377Y-19790D01*
X16325Y-19915D01*
X16325Y-20084D01*
X16389Y-20240D01*
X16509Y-20360D01*
X16665Y-20425D01*
X16834Y-20425D01*
X16990Y-20361D01*
X17110Y-20241D01*
X17175Y-20085D01*
X17175Y-19985D01*
X17404Y-19755D01*
X17509Y-19860D01*
X17665Y-19925D01*
X17834Y-19925D01*
X17990Y-19861D01*
X18110Y-19741D01*
X18175Y-19585D01*
X18175Y-19416D01*
X18111Y-19260D01*
X18040Y-19189D01*
X18040Y-19073D01*
X18100Y-19099D01*
X18199Y-19099D01*
X18399Y-19099D01*
X18491Y-19061D01*
X18500Y-19052D01*
X18509Y-19061D01*
X18600Y-19099D01*
X18699Y-19099D01*
X18899Y-19099D01*
X18991Y-19061D01*
X19000Y-19052D01*
X19009Y-19061D01*
X19100Y-19099D01*
X19199Y-19099D01*
X19399Y-19099D01*
X19491Y-19061D01*
X19500Y-19052D01*
X19509Y-19061D01*
X19600Y-19099D01*
X19699Y-19099D01*
X19899Y-19099D01*
X19960Y-19073D01*
X19960Y-19189D01*
X19890Y-19259D01*
X19825Y-19415D01*
X19825Y-19584D01*
X19889Y-19740D01*
X20009Y-19860D01*
X20165Y-19925D01*
X20334Y-19925D01*
X20490Y-19861D01*
X20595Y-19755D01*
X20825Y-19985D01*
X20825Y-20084D01*
X20889Y-20240D01*
X21009Y-20360D01*
X21165Y-20425D01*
X21334Y-20425D01*
X21490Y-20361D01*
X21610Y-20241D01*
X21675Y-20085D01*
X21675Y-19916D01*
X21623Y-19790D01*
X23000Y-19790D01*
X23111Y-19768D01*
X23205Y-19705D01*
X23705Y-19205D01*
X23768Y-19111D01*
X23790Y-19000D01*
X23790Y-17947D01*
X23797Y-17945D01*
X23945Y-17798D01*
X24025Y-17605D01*
X24025Y-23396D01*
X23945Y-23203D01*
X23798Y-23055D01*
X23790Y-23051D01*
X23790Y-22000D01*
X23768Y-21889D01*
X23705Y-21795D01*
X23205Y-21295D01*
X23111Y-21232D01*
X23000Y-21210D01*
X21622Y-21210D01*
X21675Y-21085D01*
X21675Y-20916D01*
X21611Y-20760D01*
X21491Y-20640D01*
X21335Y-20575D01*
X21166Y-20575D01*
X21010Y-20639D01*
X20890Y-20759D01*
X20825Y-20915D01*
X20825Y-21015D01*
X20595Y-21244D01*
X20491Y-21140D01*
X20335Y-21075D01*
X20166Y-21075D01*
X20010Y-21139D01*
X19890Y-21259D01*
X19825Y-21415D01*
X19825Y-21584D01*
X19889Y-21740D01*
X19960Y-21811D01*
X19960Y-21926D01*
X19900Y-21901D01*
X19801Y-21901D01*
X19601Y-21901D01*
X19509Y-21939D01*
X19500Y-21948D01*
X19491Y-21939D01*
X19400Y-21901D01*
X19301Y-21901D01*
X19101Y-21901D01*
X19009Y-21939D01*
X19000Y-21948D01*
X18991Y-21939D01*
X18900Y-21901D01*
X18801Y-21901D01*
X18601Y-21901D01*
X18509Y-21939D01*
X18500Y-21948D01*
X18491Y-21939D01*
X18400Y-21901D01*
X18301Y-21901D01*
X18101Y-21901D01*
X18040Y-21926D01*
X18040Y-21811D01*
X18110Y-21741D01*
X18175Y-21585D01*
X18175Y-21416D01*
X18111Y-21260D01*
X17991Y-21140D01*
X17835Y-21075D01*
X17666Y-21075D01*
X17510Y-21139D01*
X17404Y-21244D01*
X17175Y-21015D01*
X17175Y-20916D01*
X17111Y-20760D01*
X16991Y-20640D01*
X16835Y-20575D01*
X16666Y-20575D01*
X16510Y-20639D01*
X16390Y-20759D01*
X16325Y-20915D01*
X16325Y-21084D01*
X16376Y-21210D01*
X15000Y-21210D01*
X14889Y-21232D01*
X14795Y-21295D01*
X14295Y-21795D01*
X14232Y-21889D01*
X14210Y-22000D01*
X14210Y-22976D01*
X14176Y-22976D01*
X14084Y-23014D01*
X14014Y-23084D01*
X13976Y-23175D01*
X13976Y-23274D01*
X13976Y-23824D01*
X14014Y-23916D01*
X14084Y-23986D01*
X14175Y-24024D01*
X14274Y-24024D01*
X14824Y-24024D01*
X14916Y-23986D01*
X14986Y-23916D01*
X15024Y-23825D01*
X15024Y-23726D01*
X15024Y-23722D01*
X15055Y-23797D01*
X15202Y-23945D01*
X15395Y-24025D01*
X15604Y-24025D01*
X15797Y-23945D01*
X15945Y-23798D01*
X16000Y-23664D01*
X16055Y-23797D01*
X16202Y-23945D01*
X16395Y-24025D01*
X16604Y-24025D01*
X16797Y-23945D01*
X16945Y-23798D01*
X17000Y-23664D01*
X17055Y-23797D01*
X17202Y-23945D01*
X17395Y-24025D01*
X17604Y-24025D01*
X17797Y-23945D01*
X17945Y-23798D01*
X18000Y-23664D01*
X18055Y-23797D01*
X18202Y-23945D01*
X18395Y-24025D01*
X18604Y-24025D01*
X18797Y-23945D01*
X18945Y-23798D01*
X19000Y-23664D01*
X19055Y-23797D01*
X19202Y-23945D01*
X19395Y-24025D01*
X19604Y-24025D01*
X19797Y-23945D01*
X19945Y-23798D01*
X20000Y-23664D01*
X20055Y-23797D01*
X20202Y-23945D01*
X20395Y-24025D01*
X20604Y-24025D01*
X20797Y-23945D01*
X20945Y-23798D01*
X21000Y-23664D01*
X21055Y-23797D01*
X21202Y-23945D01*
X21395Y-24025D01*
X21604Y-24025D01*
X21797Y-23945D01*
X21945Y-23798D01*
X22000Y-23664D01*
X22055Y-23797D01*
X22202Y-23945D01*
X22395Y-24025D01*
X22604Y-24025D01*
X22797Y-23945D01*
X22945Y-23798D01*
X23000Y-23664D01*
X23055Y-23797D01*
X23202Y-23945D01*
X23395Y-24025D01*
X23604Y-24025D01*
X23797Y-23945D01*
X23945Y-23798D01*
X24025Y-23605D01*
X24025Y-24084D01*
X05049Y-24084D01*
X05049Y-23951D01*
X05084Y-23986D01*
X05175Y-24024D01*
X05274Y-24024D01*
X05824Y-24024D01*
X05916Y-23986D01*
X05986Y-23916D01*
X06024Y-23825D01*
X06024Y-23726D01*
X06024Y-23722D01*
X06055Y-23797D01*
X06202Y-23945D01*
X06395Y-24025D01*
X06604Y-24025D01*
X06797Y-23945D01*
X06945Y-23798D01*
X07000Y-23664D01*
X07055Y-23797D01*
X07202Y-23945D01*
X07395Y-24025D01*
X07604Y-24025D01*
X07797Y-23945D01*
X07945Y-23798D01*
X08000Y-23664D01*
X08055Y-23797D01*
X08202Y-23945D01*
X08395Y-24025D01*
X08604Y-24025D01*
X08797Y-23945D01*
X08945Y-23798D01*
X09000Y-23664D01*
X09055Y-23797D01*
X09202Y-23945D01*
X09395Y-24025D01*
X09604Y-24025D01*
X09797Y-23945D01*
X09945Y-23798D01*
X10000Y-23664D01*
X10055Y-23797D01*
X10202Y-23945D01*
X10395Y-24025D01*
X10604Y-24025D01*
X10797Y-23945D01*
X10945Y-23798D01*
X11000Y-23664D01*
X11055Y-23797D01*
X11202Y-23945D01*
X11395Y-24025D01*
X11604Y-24025D01*
X11797Y-23945D01*
X11945Y-23798D01*
X12025Y-23605D01*
X12025Y-23396D01*
X11945Y-23203D01*
X11798Y-23055D01*
X11790Y-23051D01*
X11790Y-22250D01*
X11768Y-22139D01*
X11705Y-22045D01*
X11205Y-21545D01*
X11137Y-21500D01*
X11205Y-21455D01*
X11705Y-20955D01*
X11768Y-20861D01*
X11790Y-20750D01*
X11790Y-19947D01*
X11797Y-19945D01*
X11945Y-19798D01*
X12025Y-19605D01*
X12025Y-19396D01*
X11945Y-19203D01*
X11798Y-19055D01*
X11605Y-18975D01*
X11396Y-18975D01*
X11203Y-19055D01*
X11055Y-19202D01*
X10999Y-19335D01*
X10945Y-19203D01*
X10798Y-19055D01*
X10605Y-18975D01*
X10396Y-18975D01*
X10203Y-19055D01*
X10055Y-19202D01*
X09999Y-19335D01*
X09945Y-19203D01*
X09798Y-19055D01*
X09605Y-18975D01*
X09396Y-18975D01*
X09203Y-19055D01*
X09055Y-19202D01*
X08999Y-19335D01*
X08945Y-19203D01*
X08798Y-19055D01*
X08605Y-18975D01*
X08396Y-18975D01*
X08203Y-19055D01*
X08055Y-19202D01*
X07999Y-19335D01*
X07945Y-19203D01*
X07798Y-19055D01*
X07605Y-18975D01*
X07396Y-18975D01*
X07203Y-19055D01*
X07055Y-19202D01*
X06999Y-19335D01*
X06945Y-19203D01*
X06798Y-19055D01*
X06605Y-18975D01*
X06396Y-18975D01*
X06203Y-19055D01*
X06055Y-19202D01*
X06024Y-19276D01*
X06024Y-19176D01*
X05986Y-19084D01*
X05916Y-19014D01*
X05825Y-18976D01*
X05726Y-18976D01*
X05176Y-18976D01*
X05084Y-19014D01*
X05049Y-19049D01*
X05049Y-17951D01*
X05084Y-17986D01*
X05175Y-18024D01*
X05274Y-18024D01*
X05824Y-18024D01*
X05916Y-17986D01*
X05986Y-17916D01*
X06024Y-17825D01*
X06024Y-17726D01*
X06024Y-17722D01*
X06055Y-17797D01*
X06202Y-17945D01*
X06395Y-18025D01*
X06604Y-18025D01*
X06797Y-17945D01*
X06945Y-17798D01*
X07000Y-17664D01*
X07055Y-17797D01*
X07202Y-17945D01*
X07395Y-18025D01*
X07604Y-18025D01*
X07797Y-17945D01*
X07945Y-17798D01*
X08000Y-17664D01*
X08055Y-17797D01*
X08202Y-17945D01*
X08395Y-18025D01*
X08604Y-18025D01*
X08797Y-17945D01*
X08945Y-17798D01*
X09000Y-17664D01*
X09055Y-17797D01*
X09202Y-17945D01*
X09395Y-18025D01*
X09604Y-18025D01*
X09797Y-17945D01*
X09945Y-17798D01*
X10000Y-17664D01*
X10055Y-17797D01*
X10202Y-17945D01*
X10395Y-18025D01*
X10604Y-18025D01*
X10797Y-17945D01*
X10945Y-17798D01*
X11000Y-17664D01*
X11055Y-17797D01*
X11202Y-17945D01*
X11395Y-18025D01*
X11604Y-18025D01*
X11797Y-17945D01*
X11945Y-17798D01*
X12025Y-17605D01*
X12025Y-17396D01*
X11945Y-17203D01*
X11798Y-17055D01*
X11790Y-17051D01*
X11790Y-16250D01*
X11768Y-16139D01*
X11705Y-16045D01*
X11205Y-15545D01*
X11137Y-15500D01*
X11205Y-15455D01*
X11705Y-14955D01*
X11768Y-14861D01*
X11790Y-14750D01*
X11790Y-13947D01*
X11797Y-13945D01*
X11945Y-13798D01*
X12025Y-13605D01*
X12025Y-13396D01*
X11945Y-13203D01*
X11798Y-13055D01*
X11605Y-12975D01*
X11396Y-12975D01*
X11203Y-13055D01*
X11055Y-13202D01*
X10999Y-13335D01*
X10945Y-13203D01*
X10798Y-13055D01*
X10605Y-12975D01*
X10396Y-12975D01*
X10203Y-13055D01*
X10055Y-13202D01*
X09999Y-13335D01*
X09945Y-13203D01*
X09798Y-13055D01*
X09605Y-12975D01*
X09396Y-12975D01*
X09203Y-13055D01*
X09055Y-13202D01*
X08999Y-13335D01*
X08945Y-13203D01*
X08798Y-13055D01*
X08605Y-12975D01*
X08396Y-12975D01*
X08203Y-13055D01*
X08055Y-13202D01*
X07999Y-13335D01*
X07945Y-13203D01*
X07798Y-13055D01*
X07605Y-12975D01*
X07396Y-12975D01*
X07203Y-13055D01*
X07055Y-13202D01*
X06999Y-13335D01*
X06945Y-13203D01*
X06798Y-13055D01*
X06605Y-12975D01*
X06396Y-12975D01*
X06203Y-13055D01*
X06055Y-13202D01*
X06024Y-13276D01*
X06024Y-13176D01*
X05986Y-13084D01*
X05916Y-13014D01*
X05825Y-12976D01*
X05726Y-12976D01*
X05176Y-12976D01*
X05084Y-13014D01*
X05049Y-13049D01*
X05049Y-11951D01*
X05084Y-11986D01*
X05175Y-12024D01*
X05274Y-12024D01*
X05824Y-12024D01*
X05916Y-11986D01*
X05986Y-11916D01*
X06024Y-11825D01*
X06024Y-11726D01*
X06024Y-11722D01*
X06055Y-11797D01*
X06202Y-11945D01*
X06395Y-12025D01*
X06604Y-12025D01*
X06797Y-11945D01*
X06945Y-11798D01*
X07000Y-11664D01*
X07055Y-11797D01*
X07202Y-11945D01*
X07395Y-12025D01*
X07604Y-12025D01*
X07797Y-11945D01*
X07945Y-11798D01*
X08000Y-11664D01*
X08055Y-11797D01*
X08202Y-11945D01*
X08395Y-12025D01*
X08604Y-12025D01*
X08797Y-11945D01*
X08945Y-11798D01*
X09000Y-11664D01*
X09055Y-11797D01*
X09202Y-11945D01*
X09395Y-12025D01*
X09604Y-12025D01*
X09797Y-11945D01*
X09945Y-11798D01*
X10000Y-11664D01*
X10055Y-11797D01*
X10202Y-11945D01*
X10395Y-12025D01*
X10604Y-12025D01*
X10797Y-11945D01*
X10945Y-11798D01*
X11000Y-11664D01*
X11055Y-11797D01*
X11202Y-11945D01*
X11395Y-12025D01*
X11604Y-12025D01*
X11797Y-11945D01*
X11945Y-11798D01*
X12000Y-11664D01*
X12055Y-11797D01*
X12202Y-11945D01*
X12395Y-12025D01*
X12604Y-12025D01*
X12797Y-11945D01*
X12945Y-11798D01*
X13000Y-11664D01*
X13055Y-11797D01*
X13202Y-11945D01*
X13395Y-12025D01*
X13604Y-12025D01*
X13797Y-11945D01*
X13945Y-11798D01*
X14000Y-11664D01*
X14055Y-11797D01*
X14202Y-11945D01*
X14395Y-12025D01*
X14604Y-12025D01*
X14797Y-11945D01*
X14945Y-11798D01*
X15025Y-11605D01*
X15025Y-11396D01*
X14945Y-11203D01*
X14798Y-11055D01*
X14790Y-11051D01*
X14790Y-10000D01*
X14768Y-09889D01*
X14705Y-09795D01*
X14205Y-09295D01*
X14111Y-09232D01*
X14000Y-09210D01*
X12622Y-09210D01*
X12675Y-09085D01*
X12675Y-08916D01*
X12611Y-08760D01*
X12491Y-08640D01*
X12335Y-08575D01*
X12166Y-08575D01*
X12010Y-08639D01*
X11890Y-08759D01*
X11825Y-08915D01*
X11825Y-09015D01*
X11595Y-09244D01*
X11491Y-09140D01*
X11335Y-09075D01*
X11166Y-09075D01*
X11010Y-09139D01*
X10890Y-09259D01*
X10825Y-09415D01*
X10825Y-09584D01*
X10889Y-09740D01*
X10960Y-09811D01*
X10960Y-09926D01*
X10900Y-09901D01*
X10801Y-09901D01*
X10601Y-09901D01*
X10509Y-09939D01*
X10500Y-09948D01*
X10491Y-09939D01*
X10400Y-09901D01*
X10301Y-09901D01*
X10101Y-09901D01*
X10009Y-09939D01*
X10000Y-09948D01*
X09991Y-09939D01*
X09900Y-09901D01*
X09801Y-09901D01*
X09601Y-09901D01*
X09509Y-09939D01*
X09500Y-09948D01*
X09491Y-09939D01*
X09400Y-09901D01*
X09301Y-09901D01*
X09101Y-09901D01*
X09040Y-09926D01*
X09040Y-09811D01*
X09110Y-09741D01*
X09175Y-09585D01*
X09175Y-09416D01*
X09111Y-09260D01*
X08991Y-09140D01*
X08835Y-09075D01*
X08666Y-09075D01*
X08510Y-09139D01*
X08404Y-09244D01*
X08175Y-09015D01*
X08175Y-08916D01*
X08111Y-08760D01*
X07991Y-08640D01*
X07835Y-08575D01*
X07666Y-08575D01*
X07510Y-08639D01*
X07390Y-08759D01*
X07325Y-08915D01*
X07325Y-09084D01*
X07376Y-09210D01*
X06000Y-09210D01*
X05889Y-09232D01*
X05795Y-09295D01*
X05295Y-09795D01*
X05232Y-09889D01*
X05210Y-10000D01*
X05210Y-10976D01*
X05176Y-10976D01*
X05084Y-11014D01*
X05049Y-11049D01*
X05049Y-05951D01*
X05084Y-05986D01*
X05175Y-06024D01*
X05210Y-06024D01*
X05210Y-07000D01*
X05232Y-07111D01*
X05295Y-07205D01*
X05795Y-07705D01*
X05889Y-07768D01*
X06000Y-07790D01*
X07377Y-07790D01*
X07325Y-07915D01*
X07325Y-08084D01*
X07389Y-08240D01*
X07509Y-08360D01*
X07665Y-08425D01*
X07834Y-08425D01*
X07990Y-08361D01*
X08110Y-08241D01*
X08175Y-08085D01*
X08175Y-07985D01*
X08404Y-07755D01*
X08509Y-07860D01*
X08665Y-07925D01*
X08834Y-07925D01*
X08990Y-07861D01*
X09110Y-07741D01*
X09175Y-07585D01*
X09175Y-07416D01*
X09111Y-07260D01*
X09040Y-07189D01*
X09040Y-07073D01*
X09100Y-07099D01*
X09199Y-07099D01*
X09399Y-07099D01*
X09491Y-07061D01*
X09500Y-07052D01*
X09509Y-07061D01*
X09600Y-07099D01*
X09699Y-07099D01*
X09899Y-07099D01*
X09991Y-07061D01*
X10000Y-07052D01*
X10009Y-07061D01*
X10100Y-07099D01*
X10199Y-07099D01*
X10399Y-07099D01*
X10491Y-07061D01*
X10500Y-07052D01*
X10509Y-07061D01*
X10600Y-07099D01*
X10699Y-07099D01*
X10899Y-07099D01*
X10960Y-07073D01*
X10960Y-07189D01*
X10890Y-07259D01*
X10825Y-07415D01*
X10825Y-07584D01*
X10889Y-07740D01*
X11009Y-07860D01*
X11165Y-07925D01*
X11334Y-07925D01*
X11490Y-07861D01*
X11595Y-07755D01*
X11825Y-07985D01*
X11825Y-08084D01*
X11889Y-08240D01*
X12009Y-08360D01*
X12165Y-08425D01*
X12334Y-08425D01*
X12490Y-08361D01*
X12610Y-08241D01*
X12675Y-08085D01*
X12675Y-07916D01*
X12623Y-07790D01*
X14000Y-07790D01*
X14111Y-07768D01*
X14205Y-07705D01*
X14705Y-07205D01*
X14768Y-07111D01*
X14790Y-07000D01*
X14790Y-05947D01*
X14797Y-05945D01*
X14945Y-05798D01*
X15025Y-05605D01*
X15025Y-05396D01*
X14945Y-05203D01*
X14798Y-05055D01*
X14783Y-05049D01*
X17049Y-05049D01*
X17014Y-05084D01*
X16976Y-05175D01*
X16976Y-05274D01*
X16976Y-05824D01*
X17014Y-05916D01*
X17084Y-05986D01*
X17175Y-06024D01*
X17210Y-06024D01*
X17210Y-06750D01*
X17232Y-06861D01*
X17295Y-06955D01*
X17795Y-07455D01*
X17862Y-07500D01*
X17795Y-07545D01*
X17295Y-08045D01*
X17232Y-08139D01*
X17210Y-08250D01*
X17210Y-08976D01*
X17176Y-08976D01*
X17084Y-09014D01*
X17014Y-09084D01*
X16976Y-09175D01*
X16976Y-09274D01*
X16976Y-09824D01*
X17014Y-09916D01*
X17084Y-09986D01*
X17175Y-10024D01*
X17274Y-10024D01*
X17824Y-10024D01*
X17916Y-09986D01*
X17986Y-09916D01*
X18024Y-09825D01*
X18024Y-09726D01*
X18024Y-09722D01*
X18055Y-09797D01*
X18202Y-09945D01*
X18395Y-10025D01*
X18604Y-10025D01*
X18797Y-09945D01*
X18945Y-09798D01*
X19000Y-09664D01*
X19055Y-09797D01*
X19202Y-09945D01*
X19395Y-10025D01*
X19604Y-10025D01*
X19797Y-09945D01*
X19945Y-09798D01*
X20000Y-09664D01*
X20055Y-09797D01*
X20202Y-09945D01*
X20395Y-10025D01*
X20604Y-10025D01*
X20797Y-09945D01*
X20945Y-09798D01*
X21000Y-09664D01*
X21055Y-09797D01*
X21202Y-09945D01*
X21395Y-10025D01*
X21604Y-10025D01*
X21797Y-09945D01*
X21945Y-09798D01*
X22000Y-09664D01*
X22055Y-09797D01*
X22202Y-09945D01*
X22395Y-10025D01*
X22604Y-10025D01*
X22797Y-09945D01*
X22945Y-09798D01*
X23000Y-09664D01*
X23055Y-09797D01*
X23202Y-09945D01*
X23395Y-10025D01*
X23604Y-10025D01*
X23797Y-09945D01*
X23945Y-09798D01*
X24025Y-09605D01*
X24025Y-09396D01*
X23945Y-09203D01*
X23798Y-09055D01*
X23790Y-09051D01*
X23790Y-08250D01*
X23768Y-08139D01*
X23705Y-08045D01*
X23205Y-07545D01*
X23137Y-07500D01*
X23205Y-07455D01*
X23705Y-06955D01*
X23768Y-06861D01*
X23790Y-06750D01*
X23790Y-05947D01*
X23797Y-05945D01*
X23945Y-05798D01*
X24025Y-05605D01*
X24025Y-05396D01*
X23945Y-05203D01*
X23798Y-05055D01*
X23783Y-05049D01*
X24084Y-05049D01*
X24084Y-24084D01*
X24084Y-24084D01*
G37*
G54D17*
X24084Y-24084D02*
X24025Y-24084D01*
X24025Y-23605D01*
X24025Y-23396D01*
X24025Y-17605D01*
X24025Y-17396D01*
X24025Y-15605D01*
X24025Y-15396D01*
X23945Y-15203D01*
X23798Y-15055D01*
X23790Y-15051D01*
X23790Y-14250D01*
X23768Y-14139D01*
X23705Y-14045D01*
X23205Y-13545D01*
X23137Y-13500D01*
X23205Y-13455D01*
X23705Y-12955D01*
X23768Y-12861D01*
X23790Y-12750D01*
X23790Y-11947D01*
X23797Y-11945D01*
X23945Y-11798D01*
X24025Y-11605D01*
X24025Y-11396D01*
X23945Y-11203D01*
X23798Y-11055D01*
X23605Y-10975D01*
X23396Y-10975D01*
X23203Y-11055D01*
X23055Y-11202D01*
X22999Y-11335D01*
X22945Y-11203D01*
X22798Y-11055D01*
X22605Y-10975D01*
X22396Y-10975D01*
X22203Y-11055D01*
X22055Y-11202D01*
X21999Y-11335D01*
X21945Y-11203D01*
X21798Y-11055D01*
X21605Y-10975D01*
X21396Y-10975D01*
X21203Y-11055D01*
X21055Y-11202D01*
X20999Y-11335D01*
X20945Y-11203D01*
X20798Y-11055D01*
X20605Y-10975D01*
X20396Y-10975D01*
X20203Y-11055D01*
X20055Y-11202D01*
X19999Y-11335D01*
X19945Y-11203D01*
X19798Y-11055D01*
X19605Y-10975D01*
X19396Y-10975D01*
X19203Y-11055D01*
X19055Y-11202D01*
X18999Y-11335D01*
X18945Y-11203D01*
X18798Y-11055D01*
X18605Y-10975D01*
X18396Y-10975D01*
X18203Y-11055D01*
X18055Y-11202D01*
X18024Y-11276D01*
X18024Y-11176D01*
X17986Y-11084D01*
X17916Y-11014D01*
X17825Y-10976D01*
X17726Y-10976D01*
X17176Y-10976D01*
X17084Y-11014D01*
X17014Y-11084D01*
X16976Y-11175D01*
X16976Y-11274D01*
X16976Y-11824D01*
X17014Y-11916D01*
X17084Y-11986D01*
X17175Y-12024D01*
X17210Y-12024D01*
X17210Y-12750D01*
X17232Y-12861D01*
X17295Y-12955D01*
X17795Y-13455D01*
X17862Y-13500D01*
X17795Y-13545D01*
X17295Y-14045D01*
X17232Y-14139D01*
X17210Y-14250D01*
X17210Y-14976D01*
X17176Y-14976D01*
X17084Y-15014D01*
X17014Y-15084D01*
X16976Y-15175D01*
X16976Y-15274D01*
X16976Y-15824D01*
X17014Y-15916D01*
X17084Y-15986D01*
X17175Y-16024D01*
X17274Y-16024D01*
X17824Y-16024D01*
X17916Y-15986D01*
X17986Y-15916D01*
X18024Y-15825D01*
X18024Y-15726D01*
X18024Y-15722D01*
X18055Y-15797D01*
X18202Y-15945D01*
X18395Y-16025D01*
X18604Y-16025D01*
X18797Y-15945D01*
X18945Y-15798D01*
X19000Y-15664D01*
X19055Y-15797D01*
X19202Y-15945D01*
X19395Y-16025D01*
X19604Y-16025D01*
X19797Y-15945D01*
X19945Y-15798D01*
X20000Y-15664D01*
X20055Y-15797D01*
X20202Y-15945D01*
X20395Y-16025D01*
X20604Y-16025D01*
X20797Y-15945D01*
X20945Y-15798D01*
X21000Y-15664D01*
X21055Y-15797D01*
X21202Y-15945D01*
X21395Y-16025D01*
X21604Y-16025D01*
X21797Y-15945D01*
X21945Y-15798D01*
X22000Y-15664D01*
X22055Y-15797D01*
X22202Y-15945D01*
X22395Y-16025D01*
X22604Y-16025D01*
X22797Y-15945D01*
X22945Y-15798D01*
X23000Y-15664D01*
X23055Y-15797D01*
X23202Y-15945D01*
X23395Y-16025D01*
X23604Y-16025D01*
X23797Y-15945D01*
X23945Y-15798D01*
X24025Y-15605D01*
X24025Y-17396D01*
X23945Y-17203D01*
X23798Y-17055D01*
X23605Y-16975D01*
X23396Y-16975D01*
X23203Y-17055D01*
X23055Y-17202D01*
X22999Y-17335D01*
X22945Y-17203D01*
X22798Y-17055D01*
X22605Y-16975D01*
X22396Y-16975D01*
X22203Y-17055D01*
X22055Y-17202D01*
X21999Y-17335D01*
X21945Y-17203D01*
X21798Y-17055D01*
X21605Y-16975D01*
X21396Y-16975D01*
X21203Y-17055D01*
X21055Y-17202D01*
X20999Y-17335D01*
X20945Y-17203D01*
X20798Y-17055D01*
X20605Y-16975D01*
X20396Y-16975D01*
X20203Y-17055D01*
X20055Y-17202D01*
X19999Y-17335D01*
X19945Y-17203D01*
X19798Y-17055D01*
X19605Y-16975D01*
X19396Y-16975D01*
X19203Y-17055D01*
X19055Y-17202D01*
X18999Y-17335D01*
X18945Y-17203D01*
X18798Y-17055D01*
X18605Y-16975D01*
X18396Y-16975D01*
X18203Y-17055D01*
X18055Y-17202D01*
X17999Y-17335D01*
X17945Y-17203D01*
X17798Y-17055D01*
X17605Y-16975D01*
X17396Y-16975D01*
X17203Y-17055D01*
X17055Y-17202D01*
X16999Y-17335D01*
X16945Y-17203D01*
X16798Y-17055D01*
X16605Y-16975D01*
X16396Y-16975D01*
X16203Y-17055D01*
X16055Y-17202D01*
X15999Y-17335D01*
X15945Y-17203D01*
X15798Y-17055D01*
X15605Y-16975D01*
X15396Y-16975D01*
X15203Y-17055D01*
X15055Y-17202D01*
X15024Y-17276D01*
X15024Y-17176D01*
X14986Y-17084D01*
X14916Y-17014D01*
X14825Y-16976D01*
X14726Y-16976D01*
X14176Y-16976D01*
X14084Y-17014D01*
X14014Y-17084D01*
X13976Y-17175D01*
X13976Y-17274D01*
X13976Y-17824D01*
X14014Y-17916D01*
X14084Y-17986D01*
X14175Y-18024D01*
X14210Y-18024D01*
X14210Y-19000D01*
X14232Y-19111D01*
X14295Y-19205D01*
X14795Y-19705D01*
X14889Y-19768D01*
X15000Y-19790D01*
X16377Y-19790D01*
X16325Y-19915D01*
X16325Y-20084D01*
X16389Y-20240D01*
X16509Y-20360D01*
X16665Y-20425D01*
X16834Y-20425D01*
X16990Y-20361D01*
X17110Y-20241D01*
X17175Y-20085D01*
X17175Y-19985D01*
X17404Y-19755D01*
X17509Y-19860D01*
X17665Y-19925D01*
X17834Y-19925D01*
X17990Y-19861D01*
X18110Y-19741D01*
X18175Y-19585D01*
X18175Y-19416D01*
X18111Y-19260D01*
X18040Y-19189D01*
X18040Y-19073D01*
X18100Y-19099D01*
X18199Y-19099D01*
X18399Y-19099D01*
X18491Y-19061D01*
X18500Y-19052D01*
X18509Y-19061D01*
X18600Y-19099D01*
X18699Y-19099D01*
X18899Y-19099D01*
X18991Y-19061D01*
X19000Y-19052D01*
X19009Y-19061D01*
X19100Y-19099D01*
X19199Y-19099D01*
X19399Y-19099D01*
X19491Y-19061D01*
X19500Y-19052D01*
X19509Y-19061D01*
X19600Y-19099D01*
X19699Y-19099D01*
X19899Y-19099D01*
X19960Y-19073D01*
X19960Y-19189D01*
X19890Y-19259D01*
X19825Y-19415D01*
X19825Y-19584D01*
X19889Y-19740D01*
X20009Y-19860D01*
X20165Y-19925D01*
X20334Y-19925D01*
X20490Y-19861D01*
X20595Y-19755D01*
X20825Y-19985D01*
X20825Y-20084D01*
X20889Y-20240D01*
X21009Y-20360D01*
X21165Y-20425D01*
X21334Y-20425D01*
X21490Y-20361D01*
X21610Y-20241D01*
X21675Y-20085D01*
X21675Y-19916D01*
X21623Y-19790D01*
X23000Y-19790D01*
X23111Y-19768D01*
X23205Y-19705D01*
X23705Y-19205D01*
X23768Y-19111D01*
X23790Y-19000D01*
X23790Y-17947D01*
X23797Y-17945D01*
X23945Y-17798D01*
X24025Y-17605D01*
X24025Y-23396D01*
X23945Y-23203D01*
X23798Y-23055D01*
X23790Y-23051D01*
X23790Y-22000D01*
X23768Y-21889D01*
X23705Y-21795D01*
X23205Y-21295D01*
X23111Y-21232D01*
X23000Y-21210D01*
X21622Y-21210D01*
X21675Y-21085D01*
X21675Y-20916D01*
X21611Y-20760D01*
X21491Y-20640D01*
X21335Y-20575D01*
X21166Y-20575D01*
X21010Y-20639D01*
X20890Y-20759D01*
X20825Y-20915D01*
X20825Y-21015D01*
X20595Y-21244D01*
X20491Y-21140D01*
X20335Y-21075D01*
X20166Y-21075D01*
X20010Y-21139D01*
X19890Y-21259D01*
X19825Y-21415D01*
X19825Y-21584D01*
X19889Y-21740D01*
X19960Y-21811D01*
X19960Y-21926D01*
X19900Y-21901D01*
X19801Y-21901D01*
X19601Y-21901D01*
X19509Y-21939D01*
X19500Y-21948D01*
X19491Y-21939D01*
X19400Y-21901D01*
X19301Y-21901D01*
X19101Y-21901D01*
X19009Y-21939D01*
X19000Y-21948D01*
X18991Y-21939D01*
X18900Y-21901D01*
X18801Y-21901D01*
X18601Y-21901D01*
X18509Y-21939D01*
X18500Y-21948D01*
X18491Y-21939D01*
X18400Y-21901D01*
X18301Y-21901D01*
X18101Y-21901D01*
X18040Y-21926D01*
X18040Y-21811D01*
X18110Y-21741D01*
X18175Y-21585D01*
X18175Y-21416D01*
X18111Y-21260D01*
X17991Y-21140D01*
X17835Y-21075D01*
X17666Y-21075D01*
X17510Y-21139D01*
X17404Y-21244D01*
X17175Y-21015D01*
X17175Y-20916D01*
X17111Y-20760D01*
X16991Y-20640D01*
X16835Y-20575D01*
X16666Y-20575D01*
X16510Y-20639D01*
X16390Y-20759D01*
X16325Y-20915D01*
X16325Y-21084D01*
X16376Y-21210D01*
X15000Y-21210D01*
X14889Y-21232D01*
X14795Y-21295D01*
X14295Y-21795D01*
X14232Y-21889D01*
X14210Y-22000D01*
X14210Y-22976D01*
X14176Y-22976D01*
X14084Y-23014D01*
X14014Y-23084D01*
X13976Y-23175D01*
X13976Y-23274D01*
X13976Y-23824D01*
X14014Y-23916D01*
X14084Y-23986D01*
X14175Y-24024D01*
X14274Y-24024D01*
X14824Y-24024D01*
X14916Y-23986D01*
X14986Y-23916D01*
X15024Y-23825D01*
X15024Y-23726D01*
X15024Y-23722D01*
X15055Y-23797D01*
X15202Y-23945D01*
X15395Y-24025D01*
X15604Y-24025D01*
X15797Y-23945D01*
X15945Y-23798D01*
X16000Y-23664D01*
X16055Y-23797D01*
X16202Y-23945D01*
X16395Y-24025D01*
X16604Y-24025D01*
X16797Y-23945D01*
X16945Y-23798D01*
X17000Y-23664D01*
X17055Y-23797D01*
X17202Y-23945D01*
X17395Y-24025D01*
X17604Y-24025D01*
X17797Y-23945D01*
X17945Y-23798D01*
X18000Y-23664D01*
X18055Y-23797D01*
X18202Y-23945D01*
X18395Y-24025D01*
X18604Y-24025D01*
X18797Y-23945D01*
X18945Y-23798D01*
X19000Y-23664D01*
X19055Y-23797D01*
X19202Y-23945D01*
X19395Y-24025D01*
X19604Y-24025D01*
X19797Y-23945D01*
X19945Y-23798D01*
X20000Y-23664D01*
X20055Y-23797D01*
X20202Y-23945D01*
X20395Y-24025D01*
X20604Y-24025D01*
X20797Y-23945D01*
X20945Y-23798D01*
X21000Y-23664D01*
X21055Y-23797D01*
X21202Y-23945D01*
X21395Y-24025D01*
X21604Y-24025D01*
X21797Y-23945D01*
X21945Y-23798D01*
X22000Y-23664D01*
X22055Y-23797D01*
X22202Y-23945D01*
X22395Y-24025D01*
X22604Y-24025D01*
X22797Y-23945D01*
X22945Y-23798D01*
X23000Y-23664D01*
X23055Y-23797D01*
X23202Y-23945D01*
X23395Y-24025D01*
X23604Y-24025D01*
X23797Y-23945D01*
X23945Y-23798D01*
X24025Y-23605D01*
X24025Y-24084D01*
X05049Y-24084D01*
X05049Y-23951D01*
X05084Y-23986D01*
X05175Y-24024D01*
X05274Y-24024D01*
X05824Y-24024D01*
X05916Y-23986D01*
X05986Y-23916D01*
X06024Y-23825D01*
X06024Y-23726D01*
X06024Y-23722D01*
X06055Y-23797D01*
X06202Y-23945D01*
X06395Y-24025D01*
X06604Y-24025D01*
X06797Y-23945D01*
X06945Y-23798D01*
X07000Y-23664D01*
X07055Y-23797D01*
X07202Y-23945D01*
X07395Y-24025D01*
X07604Y-24025D01*
X07797Y-23945D01*
X07945Y-23798D01*
X08000Y-23664D01*
X08055Y-23797D01*
X08202Y-23945D01*
X08395Y-24025D01*
X08604Y-24025D01*
X08797Y-23945D01*
X08945Y-23798D01*
X09000Y-23664D01*
X09055Y-23797D01*
X09202Y-23945D01*
X09395Y-24025D01*
X09604Y-24025D01*
X09797Y-23945D01*
X09945Y-23798D01*
X10000Y-23664D01*
X10055Y-23797D01*
X10202Y-23945D01*
X10395Y-24025D01*
X10604Y-24025D01*
X10797Y-23945D01*
X10945Y-23798D01*
X11000Y-23664D01*
X11055Y-23797D01*
X11202Y-23945D01*
X11395Y-24025D01*
X11604Y-24025D01*
X11797Y-23945D01*
X11945Y-23798D01*
X12025Y-23605D01*
X12025Y-23396D01*
X11945Y-23203D01*
X11798Y-23055D01*
X11790Y-23051D01*
X11790Y-22250D01*
X11768Y-22139D01*
X11705Y-22045D01*
X11205Y-21545D01*
X11137Y-21500D01*
X11205Y-21455D01*
X11705Y-20955D01*
X11768Y-20861D01*
X11790Y-20750D01*
X11790Y-19947D01*
X11797Y-19945D01*
X11945Y-19798D01*
X12025Y-19605D01*
X12025Y-19396D01*
X11945Y-19203D01*
X11798Y-19055D01*
X11605Y-18975D01*
X11396Y-18975D01*
X11203Y-19055D01*
X11055Y-19202D01*
X10999Y-19335D01*
X10945Y-19203D01*
X10798Y-19055D01*
X10605Y-18975D01*
X10396Y-18975D01*
X10203Y-19055D01*
X10055Y-19202D01*
X09999Y-19335D01*
X09945Y-19203D01*
X09798Y-19055D01*
X09605Y-18975D01*
X09396Y-18975D01*
X09203Y-19055D01*
X09055Y-19202D01*
X08999Y-19335D01*
X08945Y-19203D01*
X08798Y-19055D01*
X08605Y-18975D01*
X08396Y-18975D01*
X08203Y-19055D01*
X08055Y-19202D01*
X07999Y-19335D01*
X07945Y-19203D01*
X07798Y-19055D01*
X07605Y-18975D01*
X07396Y-18975D01*
X07203Y-19055D01*
X07055Y-19202D01*
X06999Y-19335D01*
X06945Y-19203D01*
X06798Y-19055D01*
X06605Y-18975D01*
X06396Y-18975D01*
X06203Y-19055D01*
X06055Y-19202D01*
X06024Y-19276D01*
X06024Y-19176D01*
X05986Y-19084D01*
X05916Y-19014D01*
X05825Y-18976D01*
X05726Y-18976D01*
X05176Y-18976D01*
X05084Y-19014D01*
X05049Y-19049D01*
X05049Y-17951D01*
X05084Y-17986D01*
X05175Y-18024D01*
X05274Y-18024D01*
X05824Y-18024D01*
X05916Y-17986D01*
X05986Y-17916D01*
X06024Y-17825D01*
X06024Y-17726D01*
X06024Y-17722D01*
X06055Y-17797D01*
X06202Y-17945D01*
X06395Y-18025D01*
X06604Y-18025D01*
X06797Y-17945D01*
X06945Y-17798D01*
X07000Y-17664D01*
X07055Y-17797D01*
X07202Y-17945D01*
X07395Y-18025D01*
X07604Y-18025D01*
X07797Y-17945D01*
X07945Y-17798D01*
X08000Y-17664D01*
X08055Y-17797D01*
X08202Y-17945D01*
X08395Y-18025D01*
X08604Y-18025D01*
X08797Y-17945D01*
X08945Y-17798D01*
X09000Y-17664D01*
X09055Y-17797D01*
X09202Y-17945D01*
X09395Y-18025D01*
X09604Y-18025D01*
X09797Y-17945D01*
X09945Y-17798D01*
X10000Y-17664D01*
X10055Y-17797D01*
X10202Y-17945D01*
X10395Y-18025D01*
X10604Y-18025D01*
X10797Y-17945D01*
X10945Y-17798D01*
X11000Y-17664D01*
X11055Y-17797D01*
X11202Y-17945D01*
X11395Y-18025D01*
X11604Y-18025D01*
X11797Y-17945D01*
X11945Y-17798D01*
X12025Y-17605D01*
X12025Y-17396D01*
X11945Y-17203D01*
X11798Y-17055D01*
X11790Y-17051D01*
X11790Y-16250D01*
X11768Y-16139D01*
X11705Y-16045D01*
X11205Y-15545D01*
X11137Y-15500D01*
X11205Y-15455D01*
X11705Y-14955D01*
X11768Y-14861D01*
X11790Y-14750D01*
X11790Y-13947D01*
X11797Y-13945D01*
X11945Y-13798D01*
X12025Y-13605D01*
X12025Y-13396D01*
X11945Y-13203D01*
X11798Y-13055D01*
X11605Y-12975D01*
X11396Y-12975D01*
X11203Y-13055D01*
X11055Y-13202D01*
X10999Y-13335D01*
X10945Y-13203D01*
X10798Y-13055D01*
X10605Y-12975D01*
X10396Y-12975D01*
X10203Y-13055D01*
X10055Y-13202D01*
X09999Y-13335D01*
X09945Y-13203D01*
X09798Y-13055D01*
X09605Y-12975D01*
X09396Y-12975D01*
X09203Y-13055D01*
X09055Y-13202D01*
X08999Y-13335D01*
X08945Y-13203D01*
X08798Y-13055D01*
X08605Y-12975D01*
X08396Y-12975D01*
X08203Y-13055D01*
X08055Y-13202D01*
X07999Y-13335D01*
X07945Y-13203D01*
X07798Y-13055D01*
X07605Y-12975D01*
X07396Y-12975D01*
X07203Y-13055D01*
X07055Y-13202D01*
X06999Y-13335D01*
X06945Y-13203D01*
X06798Y-13055D01*
X06605Y-12975D01*
X06396Y-12975D01*
X06203Y-13055D01*
X06055Y-13202D01*
X06024Y-13276D01*
X06024Y-13176D01*
X05986Y-13084D01*
X05916Y-13014D01*
X05825Y-12976D01*
X05726Y-12976D01*
X05176Y-12976D01*
X05084Y-13014D01*
X05049Y-13049D01*
X05049Y-11951D01*
X05084Y-11986D01*
X05175Y-12024D01*
X05274Y-12024D01*
X05824Y-12024D01*
X05916Y-11986D01*
X05986Y-11916D01*
X06024Y-11825D01*
X06024Y-11726D01*
X06024Y-11722D01*
X06055Y-11797D01*
X06202Y-11945D01*
X06395Y-12025D01*
X06604Y-12025D01*
X06797Y-11945D01*
X06945Y-11798D01*
X07000Y-11664D01*
X07055Y-11797D01*
X07202Y-11945D01*
X07395Y-12025D01*
X07604Y-12025D01*
X07797Y-11945D01*
X07945Y-11798D01*
X08000Y-11664D01*
X08055Y-11797D01*
X08202Y-11945D01*
X08395Y-12025D01*
X08604Y-12025D01*
X08797Y-11945D01*
X08945Y-11798D01*
X09000Y-11664D01*
X09055Y-11797D01*
X09202Y-11945D01*
X09395Y-12025D01*
X09604Y-12025D01*
X09797Y-11945D01*
X09945Y-11798D01*
X10000Y-11664D01*
X10055Y-11797D01*
X10202Y-11945D01*
X10395Y-12025D01*
X10604Y-12025D01*
X10797Y-11945D01*
X10945Y-11798D01*
X11000Y-11664D01*
X11055Y-11797D01*
X11202Y-11945D01*
X11395Y-12025D01*
X11604Y-12025D01*
X11797Y-11945D01*
X11945Y-11798D01*
X12000Y-11664D01*
X12055Y-11797D01*
X12202Y-11945D01*
X12395Y-12025D01*
X12604Y-12025D01*
X12797Y-11945D01*
X12945Y-11798D01*
X13000Y-11664D01*
X13055Y-11797D01*
X13202Y-11945D01*
X13395Y-12025D01*
X13604Y-12025D01*
X13797Y-11945D01*
X13945Y-11798D01*
X14000Y-11664D01*
X14055Y-11797D01*
X14202Y-11945D01*
X14395Y-12025D01*
X14604Y-12025D01*
X14797Y-11945D01*
X14945Y-11798D01*
X15025Y-11605D01*
X15025Y-11396D01*
X14945Y-11203D01*
X14798Y-11055D01*
X14790Y-11051D01*
X14790Y-10000D01*
X14768Y-09889D01*
X14705Y-09795D01*
X14205Y-09295D01*
X14111Y-09232D01*
X14000Y-09210D01*
X12622Y-09210D01*
X12675Y-09085D01*
X12675Y-08916D01*
X12611Y-08760D01*
X12491Y-08640D01*
X12335Y-08575D01*
X12166Y-08575D01*
X12010Y-08639D01*
X11890Y-08759D01*
X11825Y-08915D01*
X11825Y-09015D01*
X11595Y-09244D01*
X11491Y-09140D01*
X11335Y-09075D01*
X11166Y-09075D01*
X11010Y-09139D01*
X10890Y-09259D01*
X10825Y-09415D01*
X10825Y-09584D01*
X10889Y-09740D01*
X10960Y-09811D01*
X10960Y-09926D01*
X10900Y-09901D01*
X10801Y-09901D01*
X10601Y-09901D01*
X10509Y-09939D01*
X10500Y-09948D01*
X10491Y-09939D01*
X10400Y-09901D01*
X10301Y-09901D01*
X10101Y-09901D01*
X10009Y-09939D01*
X10000Y-09948D01*
X09991Y-09939D01*
X09900Y-09901D01*
X09801Y-09901D01*
X09601Y-09901D01*
X09509Y-09939D01*
X09500Y-09948D01*
X09491Y-09939D01*
X09400Y-09901D01*
X09301Y-09901D01*
X09101Y-09901D01*
X09040Y-09926D01*
X09040Y-09811D01*
X09110Y-09741D01*
X09175Y-09585D01*
X09175Y-09416D01*
X09111Y-09260D01*
X08991Y-09140D01*
X08835Y-09075D01*
X08666Y-09075D01*
X08510Y-09139D01*
X08404Y-09244D01*
X08175Y-09015D01*
X08175Y-08916D01*
X08111Y-08760D01*
X07991Y-08640D01*
X07835Y-08575D01*
X07666Y-08575D01*
X07510Y-08639D01*
X07390Y-08759D01*
X07325Y-08915D01*
X07325Y-09084D01*
X07376Y-09210D01*
X06000Y-09210D01*
X05889Y-09232D01*
X05795Y-09295D01*
X05295Y-09795D01*
X05232Y-09889D01*
X05210Y-10000D01*
X05210Y-10976D01*
X05176Y-10976D01*
X05084Y-11014D01*
X05049Y-11049D01*
X05049Y-05951D01*
X05084Y-05986D01*
X05175Y-06024D01*
X05210Y-06024D01*
X05210Y-07000D01*
X05232Y-07111D01*
X05295Y-07205D01*
X05795Y-07705D01*
X05889Y-07768D01*
X06000Y-07790D01*
X07377Y-07790D01*
X07325Y-07915D01*
X07325Y-08084D01*
X07389Y-08240D01*
X07509Y-08360D01*
X07665Y-08425D01*
X07834Y-08425D01*
X07990Y-08361D01*
X08110Y-08241D01*
X08175Y-08085D01*
X08175Y-07985D01*
X08404Y-07755D01*
X08509Y-07860D01*
X08665Y-07925D01*
X08834Y-07925D01*
X08990Y-07861D01*
X09110Y-07741D01*
X09175Y-07585D01*
X09175Y-07416D01*
X09111Y-07260D01*
X09040Y-07189D01*
X09040Y-07073D01*
X09100Y-07099D01*
X09199Y-07099D01*
X09399Y-07099D01*
X09491Y-07061D01*
X09500Y-07052D01*
X09509Y-07061D01*
X09600Y-07099D01*
X09699Y-07099D01*
X09899Y-07099D01*
X09991Y-07061D01*
X10000Y-07052D01*
X10009Y-07061D01*
X10100Y-07099D01*
X10199Y-07099D01*
X10399Y-07099D01*
X10491Y-07061D01*
X10500Y-07052D01*
X10509Y-07061D01*
X10600Y-07099D01*
X10699Y-07099D01*
X10899Y-07099D01*
X10960Y-07073D01*
X10960Y-07189D01*
X10890Y-07259D01*
X10825Y-07415D01*
X10825Y-07584D01*
X10889Y-07740D01*
X11009Y-07860D01*
X11165Y-07925D01*
X11334Y-07925D01*
X11490Y-07861D01*
X11595Y-07755D01*
X11825Y-07985D01*
X11825Y-08084D01*
X11889Y-08240D01*
X12009Y-08360D01*
X12165Y-08425D01*
X12334Y-08425D01*
X12490Y-08361D01*
X12610Y-08241D01*
X12675Y-08085D01*
X12675Y-07916D01*
X12623Y-07790D01*
X14000Y-07790D01*
X14111Y-07768D01*
X14205Y-07705D01*
X14705Y-07205D01*
X14768Y-07111D01*
X14790Y-07000D01*
X14790Y-05947D01*
X14797Y-05945D01*
X14945Y-05798D01*
X15025Y-05605D01*
X15025Y-05396D01*
X14945Y-05203D01*
X14798Y-05055D01*
X14783Y-05049D01*
X17049Y-05049D01*
X17014Y-05084D01*
X16976Y-05175D01*
X16976Y-05274D01*
X16976Y-05824D01*
X17014Y-05916D01*
X17084Y-05986D01*
X17175Y-06024D01*
X17210Y-06024D01*
X17210Y-06750D01*
X17232Y-06861D01*
X17295Y-06955D01*
X17795Y-07455D01*
X17862Y-07500D01*
X17795Y-07545D01*
X17295Y-08045D01*
X17232Y-08139D01*
X17210Y-08250D01*
X17210Y-08976D01*
X17176Y-08976D01*
X17084Y-09014D01*
X17014Y-09084D01*
X16976Y-09175D01*
X16976Y-09274D01*
X16976Y-09824D01*
X17014Y-09916D01*
X17084Y-09986D01*
X17175Y-10024D01*
X17274Y-10024D01*
X17824Y-10024D01*
X17916Y-09986D01*
X17986Y-09916D01*
X18024Y-09825D01*
X18024Y-09726D01*
X18024Y-09722D01*
X18055Y-09797D01*
X18202Y-09945D01*
X18395Y-10025D01*
X18604Y-10025D01*
X18797Y-09945D01*
X18945Y-09798D01*
X19000Y-09664D01*
X19055Y-09797D01*
X19202Y-09945D01*
X19395Y-10025D01*
X19604Y-10025D01*
X19797Y-09945D01*
X19945Y-09798D01*
X20000Y-09664D01*
X20055Y-09797D01*
X20202Y-09945D01*
X20395Y-10025D01*
X20604Y-10025D01*
X20797Y-09945D01*
X20945Y-09798D01*
X21000Y-09664D01*
X21055Y-09797D01*
X21202Y-09945D01*
X21395Y-10025D01*
X21604Y-10025D01*
X21797Y-09945D01*
X21945Y-09798D01*
X22000Y-09664D01*
X22055Y-09797D01*
X22202Y-09945D01*
X22395Y-10025D01*
X22604Y-10025D01*
X22797Y-09945D01*
X22945Y-09798D01*
X23000Y-09664D01*
X23055Y-09797D01*
X23202Y-09945D01*
X23395Y-10025D01*
X23604Y-10025D01*
X23797Y-09945D01*
X23945Y-09798D01*
X24025Y-09605D01*
X24025Y-09396D01*
X23945Y-09203D01*
X23798Y-09055D01*
X23790Y-09051D01*
X23790Y-08250D01*
X23768Y-08139D01*
X23705Y-08045D01*
X23205Y-07545D01*
X23137Y-07500D01*
X23205Y-07455D01*
X23705Y-06955D01*
X23768Y-06861D01*
X23790Y-06750D01*
X23790Y-05947D01*
X23797Y-05945D01*
X23945Y-05798D01*
X24025Y-05605D01*
X24025Y-05396D01*
X23945Y-05203D01*
X23798Y-05055D01*
X23783Y-05049D01*
X24084Y-05049D01*
X24084Y-24084D01*
M02*
