G04 (created by PCBNEW-RS274X (2011-12-28 BZR 3254)-stable) date 2012. 03. 01. 13:20:44*
G01*
G70*
G90*
%MOIN*%
G04 Gerber Fmt 3.4, Leading zero omitted, Abs format*
%FSLAX34Y34*%
G04 APERTURE LIST*
%ADD10C,0.006000*%
%ADD11R,0.020000X0.050000*%
%ADD12R,0.050000X0.020000*%
%ADD13R,0.055000X0.055000*%
%ADD14C,0.055000*%
%ADD15C,0.035000*%
%ADD16C,0.008000*%
%ADD17C,0.010000*%
G04 APERTURE END LIST*
G54D10*
G54D11*
X12250Y-06600D03*
X11750Y-06600D03*
X11250Y-06600D03*
X10750Y-06600D03*
X10250Y-06600D03*
X09750Y-06600D03*
X09250Y-06600D03*
X08750Y-06600D03*
X08250Y-06600D03*
X07750Y-06600D03*
X07750Y-10400D03*
X08250Y-10400D03*
X08750Y-10400D03*
X09250Y-10400D03*
X09750Y-10400D03*
X10250Y-10400D03*
X10750Y-10400D03*
X11250Y-10400D03*
X11750Y-10400D03*
X12250Y-10400D03*
G54D12*
X18600Y-07750D03*
X18600Y-08250D03*
X18600Y-08750D03*
X18600Y-09250D03*
X18600Y-09750D03*
X18600Y-10250D03*
X18600Y-10750D03*
X18600Y-11250D03*
X18600Y-11750D03*
X18600Y-12250D03*
X22400Y-12250D03*
X22400Y-11750D03*
X22400Y-11250D03*
X22400Y-10750D03*
X22400Y-10250D03*
X22400Y-09750D03*
X22400Y-09250D03*
X22400Y-08750D03*
X22400Y-08250D03*
X22400Y-07750D03*
X06600Y-16750D03*
X06600Y-17250D03*
X06600Y-17750D03*
X06600Y-18250D03*
X06600Y-18750D03*
X06600Y-19250D03*
X06600Y-19750D03*
X06600Y-20250D03*
X06600Y-20750D03*
X06600Y-21250D03*
X10400Y-21250D03*
X10400Y-20750D03*
X10400Y-20250D03*
X10400Y-19750D03*
X10400Y-19250D03*
X10400Y-18750D03*
X10400Y-18250D03*
X10400Y-17750D03*
X10400Y-17250D03*
X10400Y-16750D03*
G54D11*
X21250Y-18600D03*
X20750Y-18600D03*
X20250Y-18600D03*
X19750Y-18600D03*
X19250Y-18600D03*
X18750Y-18600D03*
X18250Y-18600D03*
X17750Y-18600D03*
X17250Y-18600D03*
X16750Y-18600D03*
X16750Y-22400D03*
X17250Y-22400D03*
X17750Y-22400D03*
X18250Y-22400D03*
X18750Y-22400D03*
X19250Y-22400D03*
X19750Y-22400D03*
X20250Y-22400D03*
X20750Y-22400D03*
X21250Y-22400D03*
G54D13*
X05500Y-11500D03*
G54D14*
X06500Y-11500D03*
X07500Y-11500D03*
X08500Y-11500D03*
X09500Y-11500D03*
X10500Y-11500D03*
X11500Y-11500D03*
X12500Y-11500D03*
X13500Y-11500D03*
X14500Y-11500D03*
G54D13*
X05500Y-05500D03*
G54D14*
X06500Y-05500D03*
X07500Y-05500D03*
X08500Y-05500D03*
X09500Y-05500D03*
X10500Y-05500D03*
X11500Y-05500D03*
X12500Y-05500D03*
X13500Y-05500D03*
X14500Y-05500D03*
G54D13*
X23500Y-14500D03*
G54D14*
X23500Y-13500D03*
X23500Y-12500D03*
X23500Y-11500D03*
X23500Y-10500D03*
X23500Y-09500D03*
X23500Y-08500D03*
X23500Y-07500D03*
X23500Y-06500D03*
X23500Y-05500D03*
G54D13*
X17500Y-14500D03*
G54D14*
X17500Y-13500D03*
X17500Y-12500D03*
X17500Y-11500D03*
X17500Y-10500D03*
X17500Y-09500D03*
X17500Y-08500D03*
X17500Y-07500D03*
X17500Y-06500D03*
X17500Y-05500D03*
G54D13*
X11500Y-23500D03*
G54D14*
X11500Y-22500D03*
X11500Y-21500D03*
X11500Y-20500D03*
X11500Y-19500D03*
X11500Y-18500D03*
X11500Y-17500D03*
X11500Y-16500D03*
X11500Y-15500D03*
X11500Y-14500D03*
G54D13*
X05500Y-23500D03*
G54D14*
X05500Y-22500D03*
X05500Y-21500D03*
X05500Y-20500D03*
X05500Y-19500D03*
X05500Y-18500D03*
X05500Y-17500D03*
X05500Y-16500D03*
X05500Y-15500D03*
X05500Y-14500D03*
G54D13*
X14500Y-23500D03*
G54D14*
X15500Y-23500D03*
X16500Y-23500D03*
X17500Y-23500D03*
X18500Y-23500D03*
X19500Y-23500D03*
X20500Y-23500D03*
X21500Y-23500D03*
X22500Y-23500D03*
X23500Y-23500D03*
G54D13*
X14500Y-17500D03*
G54D14*
X15500Y-17500D03*
X16500Y-17500D03*
X17500Y-17500D03*
X18500Y-17500D03*
X19500Y-17500D03*
X20500Y-17500D03*
X21500Y-17500D03*
X22500Y-17500D03*
X23500Y-17500D03*
G54D15*
X21000Y-07750D03*
X20000Y-12250D03*
X19500Y-11250D03*
X19500Y-08750D03*
X20000Y-07750D03*
X21500Y-11250D03*
X21000Y-12250D03*
X21500Y-08750D03*
X07750Y-09000D03*
X08750Y-09500D03*
X11250Y-09500D03*
X12250Y-09000D03*
X12250Y-08000D03*
X11250Y-07500D03*
X08750Y-07500D03*
X07750Y-08000D03*
X09000Y-16750D03*
X08000Y-21250D03*
X07500Y-20250D03*
X07500Y-17750D03*
X08000Y-16750D03*
X09500Y-20250D03*
X09000Y-21250D03*
X09500Y-17750D03*
X16750Y-21000D03*
X17750Y-21500D03*
X20250Y-21500D03*
X21250Y-21000D03*
X21250Y-20000D03*
X20250Y-19500D03*
X17750Y-19500D03*
X16750Y-20000D03*
G54D16*
X21500Y-08250D02*
X21000Y-07750D01*
X22400Y-08250D02*
X21500Y-08250D01*
X19500Y-11750D02*
X20000Y-12250D01*
X18600Y-11750D02*
X19500Y-11750D01*
X18600Y-11250D02*
X19500Y-11250D01*
X18600Y-10750D02*
X18250Y-10750D01*
X18250Y-10750D02*
X17500Y-11500D01*
X18600Y-10250D02*
X17750Y-10250D01*
X17750Y-10250D02*
X17500Y-10500D01*
X18600Y-09750D02*
X17750Y-09750D01*
X17750Y-09750D02*
X17500Y-09500D01*
X18600Y-09250D02*
X18250Y-09250D01*
X18250Y-09250D02*
X17500Y-08500D01*
X18600Y-08750D02*
X19500Y-08750D01*
X19500Y-08250D02*
X20000Y-07750D01*
X18600Y-08250D02*
X19500Y-08250D01*
X18600Y-07750D02*
X19250Y-07750D01*
X19000Y-05500D02*
X17500Y-05500D01*
X19500Y-06000D02*
X19000Y-05500D01*
X19500Y-07500D02*
X19500Y-06000D01*
X19250Y-07750D02*
X19500Y-07500D01*
X18600Y-12250D02*
X19250Y-12250D01*
X19500Y-12500D02*
X19500Y-14000D01*
X19250Y-12250D02*
X19500Y-12500D01*
X19000Y-14500D02*
X17500Y-14500D01*
X19500Y-14000D02*
X19000Y-14500D01*
X22400Y-09250D02*
X22750Y-09250D01*
X22750Y-09250D02*
X23500Y-08500D01*
X22400Y-10250D02*
X23250Y-10250D01*
X23250Y-10250D02*
X23500Y-10500D01*
X22400Y-11250D02*
X21500Y-11250D01*
X22400Y-12250D02*
X21750Y-12250D01*
X22000Y-14500D02*
X23500Y-14500D01*
X21500Y-14000D02*
X22000Y-14500D01*
X21500Y-12500D02*
X21500Y-14000D01*
X21750Y-12250D02*
X21500Y-12500D01*
X21500Y-11750D02*
X21000Y-12250D01*
X22400Y-11750D02*
X21500Y-11750D01*
X22400Y-10750D02*
X22750Y-10750D01*
X22750Y-10750D02*
X23500Y-11500D01*
X22400Y-09750D02*
X23250Y-09750D01*
X23250Y-09750D02*
X23500Y-09500D01*
X22400Y-08750D02*
X21500Y-08750D01*
X22400Y-07750D02*
X21750Y-07750D01*
X22000Y-05500D02*
X23500Y-05500D01*
X21500Y-06000D02*
X22000Y-05500D01*
X21500Y-07500D02*
X21500Y-06000D01*
X21750Y-07750D02*
X21500Y-07500D01*
X14500Y-07000D02*
X14500Y-05500D01*
X12250Y-07250D02*
X12500Y-07500D01*
X12250Y-06600D02*
X12250Y-07250D01*
X14000Y-07500D02*
X14500Y-07000D01*
X12500Y-07500D02*
X14000Y-07500D01*
X10250Y-10400D02*
X10250Y-11250D01*
X10250Y-11250D02*
X10500Y-11500D01*
X08250Y-09500D02*
X07750Y-09000D01*
X08250Y-10400D02*
X08250Y-09500D01*
X08750Y-10400D02*
X08750Y-09500D01*
X09250Y-10400D02*
X09250Y-10750D01*
X09250Y-10750D02*
X08500Y-11500D01*
X09750Y-10400D02*
X09750Y-11250D01*
X09750Y-11250D02*
X09500Y-11500D01*
X05500Y-10000D02*
X05500Y-11500D01*
X07500Y-09500D02*
X06000Y-09500D01*
X07750Y-09750D02*
X07500Y-09500D01*
X06000Y-09500D02*
X05500Y-10000D01*
X07750Y-10400D02*
X07750Y-09750D01*
X10750Y-10400D02*
X10750Y-10750D01*
X10750Y-10750D02*
X11500Y-11500D01*
X11250Y-10400D02*
X11250Y-09500D01*
X11750Y-10400D02*
X11750Y-09500D01*
X11750Y-09500D02*
X12250Y-09000D01*
X12500Y-09500D02*
X14000Y-09500D01*
X12250Y-09750D02*
X12500Y-09500D01*
X12250Y-10400D02*
X12250Y-09750D01*
X14000Y-09500D02*
X14500Y-10000D01*
X14500Y-10000D02*
X14500Y-11500D01*
X07750Y-06600D02*
X07750Y-07250D01*
X05500Y-07000D02*
X05500Y-05500D01*
X06000Y-07500D02*
X05500Y-07000D01*
X07500Y-07500D02*
X06000Y-07500D01*
X07750Y-07250D02*
X07500Y-07500D01*
X11750Y-07500D02*
X12250Y-08000D01*
X11750Y-06600D02*
X11750Y-07500D01*
X11250Y-06600D02*
X11250Y-07500D01*
X10750Y-06250D02*
X11500Y-05500D01*
X10750Y-06600D02*
X10750Y-06250D01*
X10250Y-06600D02*
X10250Y-05750D01*
X10250Y-05750D02*
X10500Y-05500D01*
X09750Y-06600D02*
X09750Y-05750D01*
X09750Y-05750D02*
X09500Y-05500D01*
X09250Y-06600D02*
X09250Y-06250D01*
X09250Y-06250D02*
X08500Y-05500D01*
X08750Y-06600D02*
X08750Y-07500D01*
X08250Y-06600D02*
X08250Y-07500D01*
X08250Y-07500D02*
X07750Y-08000D01*
X10400Y-17250D02*
X09500Y-17250D01*
X09500Y-17250D02*
X09000Y-16750D01*
X06600Y-20750D02*
X07500Y-20750D01*
X07500Y-20750D02*
X08000Y-21250D01*
X06600Y-20250D02*
X07500Y-20250D01*
X06600Y-19750D02*
X06250Y-19750D01*
X06250Y-19750D02*
X05500Y-20500D01*
X06600Y-19250D02*
X05750Y-19250D01*
X05750Y-19250D02*
X05500Y-19500D01*
X06600Y-18750D02*
X05750Y-18750D01*
X05750Y-18750D02*
X05500Y-18500D01*
X06600Y-18250D02*
X06250Y-18250D01*
X06250Y-18250D02*
X05500Y-17500D01*
X06600Y-17750D02*
X07500Y-17750D01*
X06600Y-17250D02*
X07500Y-17250D01*
X07500Y-17250D02*
X08000Y-16750D01*
X06600Y-16750D02*
X07250Y-16750D01*
X07000Y-14500D02*
X05500Y-14500D01*
X07500Y-15000D02*
X07000Y-14500D01*
X07500Y-16500D02*
X07500Y-15000D01*
X07250Y-16750D02*
X07500Y-16500D01*
X07250Y-21250D02*
X07500Y-21500D01*
X07500Y-21500D02*
X07500Y-23000D01*
X06600Y-21250D02*
X07250Y-21250D01*
X07000Y-23500D02*
X05500Y-23500D01*
X07500Y-23000D02*
X07000Y-23500D01*
X10400Y-18250D02*
X10750Y-18250D01*
X10750Y-18250D02*
X11500Y-17500D01*
X10400Y-19250D02*
X11250Y-19250D01*
X11250Y-19250D02*
X11500Y-19500D01*
X10400Y-20250D02*
X09500Y-20250D01*
X10400Y-21250D02*
X09750Y-21250D01*
X10000Y-23500D02*
X11500Y-23500D01*
X09500Y-23000D02*
X10000Y-23500D01*
X09500Y-21500D02*
X09500Y-23000D01*
X09750Y-21250D02*
X09500Y-21500D01*
X09500Y-20750D02*
X09000Y-21250D01*
X10400Y-20750D02*
X09500Y-20750D01*
X10400Y-19750D02*
X10750Y-19750D01*
X10750Y-19750D02*
X11500Y-20500D01*
X10400Y-18750D02*
X11250Y-18750D01*
X11250Y-18750D02*
X11500Y-18500D01*
X10400Y-17750D02*
X09500Y-17750D01*
X10400Y-16750D02*
X09750Y-16750D01*
X10000Y-14500D02*
X11500Y-14500D01*
X09500Y-15000D02*
X10000Y-14500D01*
X09500Y-16500D02*
X09500Y-15000D01*
X09750Y-16750D02*
X09500Y-16500D01*
X21500Y-19500D02*
X23000Y-19500D01*
X23500Y-19000D02*
X23500Y-17500D01*
X21250Y-19250D02*
X21500Y-19500D01*
X21250Y-18600D02*
X21250Y-19250D01*
X23000Y-19500D02*
X23500Y-19000D01*
X19250Y-22400D02*
X19250Y-23250D01*
X19250Y-23250D02*
X19500Y-23500D01*
X17250Y-22400D02*
X17250Y-21500D01*
X17250Y-21500D02*
X16750Y-21000D01*
X17750Y-22400D02*
X17750Y-21500D01*
X18250Y-22400D02*
X18250Y-22750D01*
X18250Y-22750D02*
X17500Y-23500D01*
X18750Y-22400D02*
X18750Y-23250D01*
X18750Y-23250D02*
X18500Y-23500D01*
X16750Y-22400D02*
X16750Y-21750D01*
X16750Y-21750D02*
X16500Y-21500D01*
X16500Y-21500D02*
X15000Y-21500D01*
X14500Y-22000D02*
X14500Y-23500D01*
X15000Y-21500D02*
X14500Y-22000D01*
X19750Y-22400D02*
X19750Y-22750D01*
X19750Y-22750D02*
X20500Y-23500D01*
X20250Y-22400D02*
X20250Y-21500D01*
X20750Y-22400D02*
X20750Y-21500D01*
X20750Y-21500D02*
X21250Y-21000D01*
X21500Y-21500D02*
X23000Y-21500D01*
X21250Y-22400D02*
X21250Y-21750D01*
X21250Y-21750D02*
X21500Y-21500D01*
X23500Y-22000D02*
X23500Y-23500D01*
X23000Y-21500D02*
X23500Y-22000D01*
X16750Y-18600D02*
X16750Y-19250D01*
X14500Y-19000D02*
X14500Y-17500D01*
X15000Y-19500D02*
X14500Y-19000D01*
X16500Y-19500D02*
X15000Y-19500D01*
X16750Y-19250D02*
X16500Y-19500D01*
X20750Y-19500D02*
X21250Y-20000D01*
X20750Y-18600D02*
X20750Y-19500D01*
X20250Y-18600D02*
X20250Y-19500D01*
X19750Y-18600D02*
X19750Y-18250D01*
X19750Y-18250D02*
X20500Y-17500D01*
X19250Y-18600D02*
X19250Y-17750D01*
X19250Y-17750D02*
X19500Y-17500D01*
X18750Y-18600D02*
X18750Y-17750D01*
X18750Y-17750D02*
X18500Y-17500D01*
X18250Y-18600D02*
X18250Y-18250D01*
X18250Y-18250D02*
X17500Y-17500D01*
X17750Y-18600D02*
X17750Y-19500D01*
X17250Y-18600D02*
X17250Y-19500D01*
X17250Y-19500D02*
X16750Y-20000D01*
G54D10*
G36*
X05276Y-22976D02*
X05176Y-22976D01*
X05084Y-23014D01*
X05049Y-23049D01*
X05049Y-22782D01*
X05055Y-22797D01*
X05202Y-22945D01*
X05276Y-22976D01*
X05276Y-22976D01*
G37*
G54D17*
X05276Y-22976D02*
X05176Y-22976D01*
X05084Y-23014D01*
X05049Y-23049D01*
X05049Y-22782D01*
X05055Y-22797D01*
X05202Y-22945D01*
X05276Y-22976D01*
G54D10*
G36*
X05335Y-15000D02*
X05203Y-15055D01*
X05055Y-15202D01*
X05049Y-15216D01*
X05049Y-14782D01*
X05055Y-14797D01*
X05202Y-14945D01*
X05335Y-15000D01*
X05335Y-15000D01*
G37*
G54D17*
X05335Y-15000D02*
X05203Y-15055D01*
X05055Y-15202D01*
X05049Y-15216D01*
X05049Y-14782D01*
X05055Y-14797D01*
X05202Y-14945D01*
X05335Y-15000D01*
G54D10*
G36*
X05335Y-16000D02*
X05203Y-16055D01*
X05055Y-16202D01*
X05049Y-16216D01*
X05049Y-15782D01*
X05055Y-15797D01*
X05202Y-15945D01*
X05335Y-16000D01*
X05335Y-16000D01*
G37*
G54D17*
X05335Y-16000D02*
X05203Y-16055D01*
X05055Y-16202D01*
X05049Y-16216D01*
X05049Y-15782D01*
X05055Y-15797D01*
X05202Y-15945D01*
X05335Y-16000D01*
G54D10*
G36*
X05335Y-17000D02*
X05203Y-17055D01*
X05055Y-17202D01*
X05049Y-17216D01*
X05049Y-16782D01*
X05055Y-16797D01*
X05202Y-16945D01*
X05335Y-17000D01*
X05335Y-17000D01*
G37*
G54D17*
X05335Y-17000D02*
X05203Y-17055D01*
X05055Y-17202D01*
X05049Y-17216D01*
X05049Y-16782D01*
X05055Y-16797D01*
X05202Y-16945D01*
X05335Y-17000D01*
G54D10*
G36*
X05335Y-18000D02*
X05203Y-18055D01*
X05055Y-18202D01*
X05049Y-18216D01*
X05049Y-17782D01*
X05055Y-17797D01*
X05202Y-17945D01*
X05335Y-18000D01*
X05335Y-18000D01*
G37*
G54D17*
X05335Y-18000D02*
X05203Y-18055D01*
X05055Y-18202D01*
X05049Y-18216D01*
X05049Y-17782D01*
X05055Y-17797D01*
X05202Y-17945D01*
X05335Y-18000D01*
G54D10*
G36*
X05335Y-19000D02*
X05203Y-19055D01*
X05055Y-19202D01*
X05049Y-19216D01*
X05049Y-18782D01*
X05055Y-18797D01*
X05202Y-18945D01*
X05335Y-19000D01*
X05335Y-19000D01*
G37*
G54D17*
X05335Y-19000D02*
X05203Y-19055D01*
X05055Y-19202D01*
X05049Y-19216D01*
X05049Y-18782D01*
X05055Y-18797D01*
X05202Y-18945D01*
X05335Y-19000D01*
G54D10*
G36*
X05335Y-20000D02*
X05203Y-20055D01*
X05055Y-20202D01*
X05049Y-20216D01*
X05049Y-19782D01*
X05055Y-19797D01*
X05202Y-19945D01*
X05335Y-20000D01*
X05335Y-20000D01*
G37*
G54D17*
X05335Y-20000D02*
X05203Y-20055D01*
X05055Y-20202D01*
X05049Y-20216D01*
X05049Y-19782D01*
X05055Y-19797D01*
X05202Y-19945D01*
X05335Y-20000D01*
G54D10*
G36*
X05335Y-21000D02*
X05203Y-21055D01*
X05055Y-21202D01*
X05049Y-21216D01*
X05049Y-20782D01*
X05055Y-20797D01*
X05202Y-20945D01*
X05335Y-21000D01*
X05335Y-21000D01*
G37*
G54D17*
X05335Y-21000D02*
X05203Y-21055D01*
X05055Y-21202D01*
X05049Y-21216D01*
X05049Y-20782D01*
X05055Y-20797D01*
X05202Y-20945D01*
X05335Y-21000D01*
G54D10*
G36*
X05335Y-22000D02*
X05203Y-22055D01*
X05055Y-22202D01*
X05049Y-22216D01*
X05049Y-21782D01*
X05055Y-21797D01*
X05202Y-21945D01*
X05335Y-22000D01*
X05335Y-22000D01*
G37*
G54D17*
X05335Y-22000D02*
X05203Y-22055D01*
X05055Y-22202D01*
X05049Y-22216D01*
X05049Y-21782D01*
X05055Y-21797D01*
X05202Y-21945D01*
X05335Y-22000D01*
G54D10*
G36*
X06051Y-18460D02*
X06025Y-18460D01*
X06025Y-18435D01*
X06044Y-18455D01*
X06045Y-18455D01*
X06051Y-18460D01*
X06051Y-18460D01*
G37*
G54D17*
X06051Y-18460D02*
X06025Y-18460D01*
X06025Y-18435D01*
X06044Y-18455D01*
X06045Y-18455D01*
X06051Y-18460D01*
G54D10*
G36*
X06051Y-19540D02*
X06044Y-19545D01*
X06025Y-19564D01*
X06025Y-19540D01*
X06051Y-19540D01*
X06051Y-19540D01*
G37*
G54D17*
X06051Y-19540D02*
X06044Y-19545D01*
X06025Y-19564D01*
X06025Y-19540D01*
X06051Y-19540D01*
G54D10*
G36*
X06217Y-05049D02*
X06203Y-05055D01*
X06055Y-05202D01*
X06024Y-05276D01*
X06024Y-05176D01*
X05986Y-05084D01*
X05951Y-05049D01*
X06217Y-05049D01*
X06217Y-05049D01*
G37*
G54D17*
X06217Y-05049D02*
X06203Y-05055D01*
X06055Y-05202D01*
X06024Y-05276D01*
X06024Y-05176D01*
X05986Y-05084D01*
X05951Y-05049D01*
X06217Y-05049D01*
G54D10*
G36*
X07210Y-16380D02*
X07130Y-16460D01*
X07012Y-16460D01*
X06991Y-16439D01*
X06900Y-16401D01*
X06801Y-16401D01*
X06301Y-16401D01*
X06209Y-16439D01*
X06139Y-16509D01*
X06101Y-16600D01*
X06101Y-16699D01*
X06101Y-16899D01*
X06139Y-16991D01*
X06148Y-17000D01*
X06139Y-17009D01*
X06101Y-17100D01*
X06101Y-17199D01*
X06101Y-17399D01*
X06139Y-17491D01*
X06148Y-17500D01*
X06139Y-17509D01*
X06101Y-17600D01*
X06101Y-17690D01*
X06022Y-17611D01*
X06025Y-17605D01*
X06025Y-17396D01*
X05945Y-17203D01*
X05798Y-17055D01*
X05664Y-16999D01*
X05797Y-16945D01*
X05945Y-16798D01*
X06025Y-16605D01*
X06025Y-16396D01*
X05945Y-16203D01*
X05798Y-16055D01*
X05664Y-15999D01*
X05797Y-15945D01*
X05945Y-15798D01*
X06025Y-15605D01*
X06025Y-15396D01*
X05945Y-15203D01*
X05798Y-15055D01*
X05664Y-14999D01*
X05797Y-14945D01*
X05945Y-14798D01*
X05948Y-14790D01*
X06880Y-14790D01*
X07210Y-15120D01*
X07210Y-16380D01*
X07210Y-16380D01*
G37*
G54D17*
X07210Y-16380D02*
X07130Y-16460D01*
X07012Y-16460D01*
X06991Y-16439D01*
X06900Y-16401D01*
X06801Y-16401D01*
X06301Y-16401D01*
X06209Y-16439D01*
X06139Y-16509D01*
X06101Y-16600D01*
X06101Y-16699D01*
X06101Y-16899D01*
X06139Y-16991D01*
X06148Y-17000D01*
X06139Y-17009D01*
X06101Y-17100D01*
X06101Y-17199D01*
X06101Y-17399D01*
X06139Y-17491D01*
X06148Y-17500D01*
X06139Y-17509D01*
X06101Y-17600D01*
X06101Y-17690D01*
X06022Y-17611D01*
X06025Y-17605D01*
X06025Y-17396D01*
X05945Y-17203D01*
X05798Y-17055D01*
X05664Y-16999D01*
X05797Y-16945D01*
X05945Y-16798D01*
X06025Y-16605D01*
X06025Y-16396D01*
X05945Y-16203D01*
X05798Y-16055D01*
X05664Y-15999D01*
X05797Y-15945D01*
X05945Y-15798D01*
X06025Y-15605D01*
X06025Y-15396D01*
X05945Y-15203D01*
X05798Y-15055D01*
X05664Y-14999D01*
X05797Y-14945D01*
X05945Y-14798D01*
X05948Y-14790D01*
X06880Y-14790D01*
X07210Y-15120D01*
X07210Y-16380D01*
G54D10*
G36*
X07210Y-22880D02*
X06880Y-23210D01*
X06024Y-23210D01*
X06024Y-23176D01*
X05986Y-23084D01*
X05916Y-23014D01*
X05825Y-22976D01*
X05726Y-22976D01*
X05722Y-22976D01*
X05797Y-22945D01*
X05945Y-22798D01*
X06025Y-22605D01*
X06025Y-22396D01*
X05945Y-22203D01*
X05798Y-22055D01*
X05664Y-21999D01*
X05797Y-21945D01*
X05945Y-21798D01*
X06025Y-21605D01*
X06025Y-21396D01*
X05945Y-21203D01*
X05798Y-21055D01*
X05664Y-20999D01*
X05797Y-20945D01*
X05945Y-20798D01*
X06025Y-20605D01*
X06025Y-20396D01*
X06021Y-20388D01*
X06101Y-20309D01*
X06101Y-20399D01*
X06139Y-20491D01*
X06148Y-20500D01*
X06139Y-20509D01*
X06101Y-20600D01*
X06101Y-20699D01*
X06101Y-20899D01*
X06139Y-20991D01*
X06148Y-21000D01*
X06139Y-21009D01*
X06101Y-21100D01*
X06101Y-21199D01*
X06101Y-21399D01*
X06139Y-21491D01*
X06209Y-21561D01*
X06300Y-21599D01*
X06399Y-21599D01*
X06899Y-21599D01*
X06991Y-21561D01*
X07012Y-21540D01*
X07130Y-21540D01*
X07210Y-21620D01*
X07210Y-22880D01*
X07210Y-22880D01*
G37*
G54D17*
X07210Y-22880D02*
X06880Y-23210D01*
X06024Y-23210D01*
X06024Y-23176D01*
X05986Y-23084D01*
X05916Y-23014D01*
X05825Y-22976D01*
X05726Y-22976D01*
X05722Y-22976D01*
X05797Y-22945D01*
X05945Y-22798D01*
X06025Y-22605D01*
X06025Y-22396D01*
X05945Y-22203D01*
X05798Y-22055D01*
X05664Y-21999D01*
X05797Y-21945D01*
X05945Y-21798D01*
X06025Y-21605D01*
X06025Y-21396D01*
X05945Y-21203D01*
X05798Y-21055D01*
X05664Y-20999D01*
X05797Y-20945D01*
X05945Y-20798D01*
X06025Y-20605D01*
X06025Y-20396D01*
X06021Y-20388D01*
X06101Y-20309D01*
X06101Y-20399D01*
X06139Y-20491D01*
X06148Y-20500D01*
X06139Y-20509D01*
X06101Y-20600D01*
X06101Y-20699D01*
X06101Y-20899D01*
X06139Y-20991D01*
X06148Y-21000D01*
X06139Y-21009D01*
X06101Y-21100D01*
X06101Y-21199D01*
X06101Y-21399D01*
X06139Y-21491D01*
X06209Y-21561D01*
X06300Y-21599D01*
X06399Y-21599D01*
X06899Y-21599D01*
X06991Y-21561D01*
X07012Y-21540D01*
X07130Y-21540D01*
X07210Y-21620D01*
X07210Y-22880D01*
G54D10*
G36*
X07217Y-05049D02*
X07203Y-05055D01*
X07055Y-05202D01*
X06999Y-05335D01*
X06945Y-05203D01*
X06798Y-05055D01*
X06783Y-05049D01*
X07217Y-05049D01*
X07217Y-05049D01*
G37*
G54D17*
X07217Y-05049D02*
X07203Y-05055D01*
X07055Y-05202D01*
X06999Y-05335D01*
X06945Y-05203D01*
X06798Y-05055D01*
X06783Y-05049D01*
X07217Y-05049D01*
G54D10*
G36*
X08217Y-05049D02*
X08203Y-05055D01*
X08055Y-05202D01*
X07999Y-05335D01*
X07945Y-05203D01*
X07798Y-05055D01*
X07783Y-05049D01*
X08217Y-05049D01*
X08217Y-05049D01*
G37*
G54D17*
X08217Y-05049D02*
X08203Y-05055D01*
X08055Y-05202D01*
X07999Y-05335D01*
X07945Y-05203D01*
X07798Y-05055D01*
X07783Y-05049D01*
X08217Y-05049D01*
G54D10*
G36*
X08690Y-06101D02*
X08601Y-06101D01*
X08509Y-06139D01*
X08500Y-06148D01*
X08491Y-06139D01*
X08400Y-06101D01*
X08301Y-06101D01*
X08101Y-06101D01*
X08009Y-06139D01*
X08000Y-06148D01*
X07991Y-06139D01*
X07900Y-06101D01*
X07801Y-06101D01*
X07601Y-06101D01*
X07509Y-06139D01*
X07439Y-06209D01*
X07401Y-06300D01*
X07401Y-06399D01*
X07401Y-06899D01*
X07439Y-06991D01*
X07460Y-07012D01*
X07460Y-07130D01*
X07380Y-07210D01*
X06120Y-07210D01*
X05790Y-06880D01*
X05790Y-06024D01*
X05824Y-06024D01*
X05916Y-05986D01*
X05986Y-05916D01*
X06024Y-05825D01*
X06024Y-05726D01*
X06024Y-05722D01*
X06055Y-05797D01*
X06202Y-05945D01*
X06395Y-06025D01*
X06604Y-06025D01*
X06797Y-05945D01*
X06945Y-05798D01*
X07000Y-05664D01*
X07055Y-05797D01*
X07202Y-05945D01*
X07395Y-06025D01*
X07604Y-06025D01*
X07797Y-05945D01*
X07945Y-05798D01*
X08000Y-05664D01*
X08055Y-05797D01*
X08202Y-05945D01*
X08395Y-06025D01*
X08604Y-06025D01*
X08611Y-06021D01*
X08690Y-06101D01*
X08690Y-06101D01*
G37*
G54D17*
X08690Y-06101D02*
X08601Y-06101D01*
X08509Y-06139D01*
X08500Y-06148D01*
X08491Y-06139D01*
X08400Y-06101D01*
X08301Y-06101D01*
X08101Y-06101D01*
X08009Y-06139D01*
X08000Y-06148D01*
X07991Y-06139D01*
X07900Y-06101D01*
X07801Y-06101D01*
X07601Y-06101D01*
X07509Y-06139D01*
X07439Y-06209D01*
X07401Y-06300D01*
X07401Y-06399D01*
X07401Y-06899D01*
X07439Y-06991D01*
X07460Y-07012D01*
X07460Y-07130D01*
X07380Y-07210D01*
X06120Y-07210D01*
X05790Y-06880D01*
X05790Y-06024D01*
X05824Y-06024D01*
X05916Y-05986D01*
X05986Y-05916D01*
X06024Y-05825D01*
X06024Y-05726D01*
X06024Y-05722D01*
X06055Y-05797D01*
X06202Y-05945D01*
X06395Y-06025D01*
X06604Y-06025D01*
X06797Y-05945D01*
X06945Y-05798D01*
X07000Y-05664D01*
X07055Y-05797D01*
X07202Y-05945D01*
X07395Y-06025D01*
X07604Y-06025D01*
X07797Y-05945D01*
X07945Y-05798D01*
X08000Y-05664D01*
X08055Y-05797D01*
X08202Y-05945D01*
X08395Y-06025D01*
X08604Y-06025D01*
X08611Y-06021D01*
X08690Y-06101D01*
G54D10*
G36*
X08690Y-10899D02*
X08611Y-10977D01*
X08605Y-10975D01*
X08396Y-10975D01*
X08203Y-11055D01*
X08055Y-11202D01*
X07999Y-11335D01*
X07945Y-11203D01*
X07798Y-11055D01*
X07605Y-10975D01*
X07396Y-10975D01*
X07203Y-11055D01*
X07055Y-11202D01*
X06999Y-11335D01*
X06945Y-11203D01*
X06798Y-11055D01*
X06605Y-10975D01*
X06396Y-10975D01*
X06203Y-11055D01*
X06055Y-11202D01*
X06024Y-11276D01*
X06024Y-11176D01*
X05986Y-11084D01*
X05916Y-11014D01*
X05825Y-10976D01*
X05790Y-10976D01*
X05790Y-10120D01*
X06120Y-09790D01*
X07380Y-09790D01*
X07460Y-09870D01*
X07460Y-09988D01*
X07439Y-10009D01*
X07401Y-10100D01*
X07401Y-10199D01*
X07401Y-10699D01*
X07439Y-10791D01*
X07509Y-10861D01*
X07600Y-10899D01*
X07699Y-10899D01*
X07899Y-10899D01*
X07991Y-10861D01*
X08000Y-10852D01*
X08009Y-10861D01*
X08100Y-10899D01*
X08199Y-10899D01*
X08399Y-10899D01*
X08491Y-10861D01*
X08500Y-10852D01*
X08509Y-10861D01*
X08600Y-10899D01*
X08690Y-10899D01*
X08690Y-10899D01*
G37*
G54D17*
X08690Y-10899D02*
X08611Y-10977D01*
X08605Y-10975D01*
X08396Y-10975D01*
X08203Y-11055D01*
X08055Y-11202D01*
X07999Y-11335D01*
X07945Y-11203D01*
X07798Y-11055D01*
X07605Y-10975D01*
X07396Y-10975D01*
X07203Y-11055D01*
X07055Y-11202D01*
X06999Y-11335D01*
X06945Y-11203D01*
X06798Y-11055D01*
X06605Y-10975D01*
X06396Y-10975D01*
X06203Y-11055D01*
X06055Y-11202D01*
X06024Y-11276D01*
X06024Y-11176D01*
X05986Y-11084D01*
X05916Y-11014D01*
X05825Y-10976D01*
X05790Y-10976D01*
X05790Y-10120D01*
X06120Y-09790D01*
X07380Y-09790D01*
X07460Y-09870D01*
X07460Y-09988D01*
X07439Y-10009D01*
X07401Y-10100D01*
X07401Y-10199D01*
X07401Y-10699D01*
X07439Y-10791D01*
X07509Y-10861D01*
X07600Y-10899D01*
X07699Y-10899D01*
X07899Y-10899D01*
X07991Y-10861D01*
X08000Y-10852D01*
X08009Y-10861D01*
X08100Y-10899D01*
X08199Y-10899D01*
X08399Y-10899D01*
X08491Y-10861D01*
X08500Y-10852D01*
X08509Y-10861D01*
X08600Y-10899D01*
X08690Y-10899D01*
G54D10*
G36*
X09217Y-05049D02*
X09203Y-05055D01*
X09055Y-05202D01*
X08999Y-05335D01*
X08945Y-05203D01*
X08798Y-05055D01*
X08783Y-05049D01*
X09217Y-05049D01*
X09217Y-05049D01*
G37*
G54D17*
X09217Y-05049D02*
X09203Y-05055D01*
X09055Y-05202D01*
X08999Y-05335D01*
X08945Y-05203D01*
X08798Y-05055D01*
X08783Y-05049D01*
X09217Y-05049D01*
G54D10*
G36*
X09460Y-06051D02*
X09455Y-06045D01*
X09455Y-06044D01*
X09435Y-06025D01*
X09460Y-06025D01*
X09460Y-06051D01*
X09460Y-06051D01*
G37*
G54D17*
X09460Y-06051D02*
X09455Y-06045D01*
X09455Y-06044D01*
X09435Y-06025D01*
X09460Y-06025D01*
X09460Y-06051D01*
G54D10*
G36*
X09460Y-10975D02*
X09435Y-10975D01*
X09455Y-10956D01*
X09455Y-10955D01*
X09460Y-10948D01*
X09460Y-10975D01*
X09460Y-10975D01*
G37*
G54D17*
X09460Y-10975D02*
X09435Y-10975D01*
X09455Y-10956D01*
X09455Y-10955D01*
X09460Y-10948D01*
X09460Y-10975D01*
G54D10*
G36*
X10217Y-05049D02*
X10203Y-05055D01*
X10055Y-05202D01*
X09999Y-05335D01*
X09945Y-05203D01*
X09798Y-05055D01*
X09783Y-05049D01*
X10217Y-05049D01*
X10217Y-05049D01*
G37*
G54D17*
X10217Y-05049D02*
X10203Y-05055D01*
X10055Y-05202D01*
X09999Y-05335D01*
X09945Y-05203D01*
X09798Y-05055D01*
X09783Y-05049D01*
X10217Y-05049D01*
G54D10*
G36*
X10564Y-06025D02*
X10545Y-06045D01*
X10540Y-06052D01*
X10540Y-06025D01*
X10564Y-06025D01*
X10564Y-06025D01*
G37*
G54D17*
X10564Y-06025D02*
X10545Y-06045D01*
X10540Y-06052D01*
X10540Y-06025D01*
X10564Y-06025D01*
G54D10*
G36*
X10564Y-10975D02*
X10540Y-10975D01*
X10540Y-10947D01*
X10545Y-10955D01*
X10564Y-10975D01*
X10564Y-10975D01*
G37*
G54D17*
X10564Y-10975D02*
X10540Y-10975D01*
X10540Y-10947D01*
X10545Y-10955D01*
X10564Y-10975D01*
G54D10*
G36*
X10975Y-18460D02*
X10947Y-18460D01*
X10955Y-18455D01*
X10975Y-18435D01*
X10975Y-18460D01*
X10975Y-18460D01*
G37*
G54D17*
X10975Y-18460D02*
X10947Y-18460D01*
X10955Y-18455D01*
X10975Y-18435D01*
X10975Y-18460D01*
G54D10*
G36*
X10975Y-19564D02*
X10955Y-19545D01*
X10947Y-19540D01*
X10975Y-19540D01*
X10975Y-19564D01*
X10975Y-19564D01*
G37*
G54D17*
X10975Y-19564D02*
X10955Y-19545D01*
X10947Y-19540D01*
X10975Y-19540D01*
X10975Y-19564D01*
G54D10*
G36*
X11217Y-05049D02*
X11203Y-05055D01*
X11055Y-05202D01*
X10999Y-05335D01*
X10945Y-05203D01*
X10798Y-05055D01*
X10783Y-05049D01*
X11217Y-05049D01*
X11217Y-05049D01*
G37*
G54D17*
X11217Y-05049D02*
X11203Y-05055D01*
X11055Y-05202D01*
X10999Y-05335D01*
X10945Y-05203D01*
X10798Y-05055D01*
X10783Y-05049D01*
X11217Y-05049D01*
G54D10*
G36*
X11335Y-17000D02*
X11203Y-17055D01*
X11055Y-17202D01*
X10975Y-17395D01*
X10975Y-17604D01*
X10978Y-17611D01*
X10899Y-17690D01*
X10899Y-17601D01*
X10861Y-17509D01*
X10852Y-17500D01*
X10861Y-17491D01*
X10899Y-17400D01*
X10899Y-17301D01*
X10899Y-17101D01*
X10861Y-17009D01*
X10852Y-17000D01*
X10861Y-16991D01*
X10899Y-16900D01*
X10899Y-16801D01*
X10899Y-16601D01*
X10861Y-16509D01*
X10791Y-16439D01*
X10700Y-16401D01*
X10601Y-16401D01*
X10101Y-16401D01*
X10009Y-16439D01*
X09988Y-16460D01*
X09870Y-16460D01*
X09790Y-16380D01*
X09790Y-15120D01*
X10120Y-14790D01*
X11052Y-14790D01*
X11055Y-14797D01*
X11202Y-14945D01*
X11335Y-15000D01*
X11203Y-15055D01*
X11055Y-15202D01*
X10975Y-15395D01*
X10975Y-15604D01*
X11055Y-15797D01*
X11202Y-15945D01*
X11335Y-16000D01*
X11203Y-16055D01*
X11055Y-16202D01*
X10975Y-16395D01*
X10975Y-16604D01*
X11055Y-16797D01*
X11202Y-16945D01*
X11335Y-17000D01*
X11335Y-17000D01*
G37*
G54D17*
X11335Y-17000D02*
X11203Y-17055D01*
X11055Y-17202D01*
X10975Y-17395D01*
X10975Y-17604D01*
X10978Y-17611D01*
X10899Y-17690D01*
X10899Y-17601D01*
X10861Y-17509D01*
X10852Y-17500D01*
X10861Y-17491D01*
X10899Y-17400D01*
X10899Y-17301D01*
X10899Y-17101D01*
X10861Y-17009D01*
X10852Y-17000D01*
X10861Y-16991D01*
X10899Y-16900D01*
X10899Y-16801D01*
X10899Y-16601D01*
X10861Y-16509D01*
X10791Y-16439D01*
X10700Y-16401D01*
X10601Y-16401D01*
X10101Y-16401D01*
X10009Y-16439D01*
X09988Y-16460D01*
X09870Y-16460D01*
X09790Y-16380D01*
X09790Y-15120D01*
X10120Y-14790D01*
X11052Y-14790D01*
X11055Y-14797D01*
X11202Y-14945D01*
X11335Y-15000D01*
X11203Y-15055D01*
X11055Y-15202D01*
X10975Y-15395D01*
X10975Y-15604D01*
X11055Y-15797D01*
X11202Y-15945D01*
X11335Y-16000D01*
X11203Y-16055D01*
X11055Y-16202D01*
X10975Y-16395D01*
X10975Y-16604D01*
X11055Y-16797D01*
X11202Y-16945D01*
X11335Y-17000D01*
G54D10*
G36*
X11335Y-22000D02*
X11203Y-22055D01*
X11055Y-22202D01*
X10975Y-22395D01*
X10975Y-22604D01*
X11055Y-22797D01*
X11202Y-22945D01*
X11276Y-22976D01*
X11176Y-22976D01*
X11084Y-23014D01*
X11014Y-23084D01*
X10976Y-23175D01*
X10976Y-23210D01*
X10120Y-23210D01*
X09790Y-22880D01*
X09790Y-21620D01*
X09870Y-21540D01*
X09988Y-21540D01*
X10009Y-21561D01*
X10100Y-21599D01*
X10199Y-21599D01*
X10699Y-21599D01*
X10791Y-21561D01*
X10861Y-21491D01*
X10899Y-21400D01*
X10899Y-21301D01*
X10899Y-21101D01*
X10861Y-21009D01*
X10852Y-21000D01*
X10861Y-20991D01*
X10899Y-20900D01*
X10899Y-20801D01*
X10899Y-20601D01*
X10861Y-20509D01*
X10852Y-20500D01*
X10861Y-20491D01*
X10899Y-20400D01*
X10899Y-20309D01*
X10977Y-20388D01*
X10975Y-20395D01*
X10975Y-20604D01*
X11055Y-20797D01*
X11202Y-20945D01*
X11335Y-21000D01*
X11203Y-21055D01*
X11055Y-21202D01*
X10975Y-21395D01*
X10975Y-21604D01*
X11055Y-21797D01*
X11202Y-21945D01*
X11335Y-22000D01*
X11335Y-22000D01*
G37*
G54D17*
X11335Y-22000D02*
X11203Y-22055D01*
X11055Y-22202D01*
X10975Y-22395D01*
X10975Y-22604D01*
X11055Y-22797D01*
X11202Y-22945D01*
X11276Y-22976D01*
X11176Y-22976D01*
X11084Y-23014D01*
X11014Y-23084D01*
X10976Y-23175D01*
X10976Y-23210D01*
X10120Y-23210D01*
X09790Y-22880D01*
X09790Y-21620D01*
X09870Y-21540D01*
X09988Y-21540D01*
X10009Y-21561D01*
X10100Y-21599D01*
X10199Y-21599D01*
X10699Y-21599D01*
X10791Y-21561D01*
X10861Y-21491D01*
X10899Y-21400D01*
X10899Y-21301D01*
X10899Y-21101D01*
X10861Y-21009D01*
X10852Y-21000D01*
X10861Y-20991D01*
X10899Y-20900D01*
X10899Y-20801D01*
X10899Y-20601D01*
X10861Y-20509D01*
X10852Y-20500D01*
X10861Y-20491D01*
X10899Y-20400D01*
X10899Y-20309D01*
X10977Y-20388D01*
X10975Y-20395D01*
X10975Y-20604D01*
X11055Y-20797D01*
X11202Y-20945D01*
X11335Y-21000D01*
X11203Y-21055D01*
X11055Y-21202D01*
X10975Y-21395D01*
X10975Y-21604D01*
X11055Y-21797D01*
X11202Y-21945D01*
X11335Y-22000D01*
G54D10*
G36*
X12217Y-05049D02*
X12203Y-05055D01*
X12055Y-05202D01*
X11999Y-05335D01*
X11945Y-05203D01*
X11798Y-05055D01*
X11783Y-05049D01*
X12217Y-05049D01*
X12217Y-05049D01*
G37*
G54D17*
X12217Y-05049D02*
X12203Y-05055D01*
X12055Y-05202D01*
X11999Y-05335D01*
X11945Y-05203D01*
X11798Y-05055D01*
X11783Y-05049D01*
X12217Y-05049D01*
G54D10*
G36*
X13217Y-05049D02*
X13203Y-05055D01*
X13055Y-05202D01*
X12999Y-05335D01*
X12945Y-05203D01*
X12798Y-05055D01*
X12783Y-05049D01*
X13217Y-05049D01*
X13217Y-05049D01*
G37*
G54D17*
X13217Y-05049D02*
X13203Y-05055D01*
X13055Y-05202D01*
X12999Y-05335D01*
X12945Y-05203D01*
X12798Y-05055D01*
X12783Y-05049D01*
X13217Y-05049D01*
G54D10*
G36*
X14210Y-06880D02*
X13880Y-07210D01*
X12620Y-07210D01*
X12540Y-07130D01*
X12540Y-07012D01*
X12561Y-06991D01*
X12599Y-06900D01*
X12599Y-06801D01*
X12599Y-06301D01*
X12561Y-06209D01*
X12491Y-06139D01*
X12400Y-06101D01*
X12301Y-06101D01*
X12101Y-06101D01*
X12009Y-06139D01*
X12000Y-06148D01*
X11991Y-06139D01*
X11900Y-06101D01*
X11801Y-06101D01*
X11601Y-06101D01*
X11509Y-06139D01*
X11500Y-06148D01*
X11491Y-06139D01*
X11400Y-06101D01*
X11309Y-06101D01*
X11388Y-06022D01*
X11395Y-06025D01*
X11604Y-06025D01*
X11797Y-05945D01*
X11945Y-05798D01*
X12000Y-05664D01*
X12055Y-05797D01*
X12202Y-05945D01*
X12395Y-06025D01*
X12604Y-06025D01*
X12797Y-05945D01*
X12945Y-05798D01*
X13000Y-05664D01*
X13055Y-05797D01*
X13202Y-05945D01*
X13395Y-06025D01*
X13604Y-06025D01*
X13797Y-05945D01*
X13945Y-05798D01*
X14000Y-05664D01*
X14055Y-05797D01*
X14202Y-05945D01*
X14210Y-05948D01*
X14210Y-06880D01*
X14210Y-06880D01*
G37*
G54D17*
X14210Y-06880D02*
X13880Y-07210D01*
X12620Y-07210D01*
X12540Y-07130D01*
X12540Y-07012D01*
X12561Y-06991D01*
X12599Y-06900D01*
X12599Y-06801D01*
X12599Y-06301D01*
X12561Y-06209D01*
X12491Y-06139D01*
X12400Y-06101D01*
X12301Y-06101D01*
X12101Y-06101D01*
X12009Y-06139D01*
X12000Y-06148D01*
X11991Y-06139D01*
X11900Y-06101D01*
X11801Y-06101D01*
X11601Y-06101D01*
X11509Y-06139D01*
X11500Y-06148D01*
X11491Y-06139D01*
X11400Y-06101D01*
X11309Y-06101D01*
X11388Y-06022D01*
X11395Y-06025D01*
X11604Y-06025D01*
X11797Y-05945D01*
X11945Y-05798D01*
X12000Y-05664D01*
X12055Y-05797D01*
X12202Y-05945D01*
X12395Y-06025D01*
X12604Y-06025D01*
X12797Y-05945D01*
X12945Y-05798D01*
X13000Y-05664D01*
X13055Y-05797D01*
X13202Y-05945D01*
X13395Y-06025D01*
X13604Y-06025D01*
X13797Y-05945D01*
X13945Y-05798D01*
X14000Y-05664D01*
X14055Y-05797D01*
X14202Y-05945D01*
X14210Y-05948D01*
X14210Y-06880D01*
G54D10*
G36*
X14210Y-11052D02*
X14203Y-11055D01*
X14055Y-11202D01*
X13999Y-11335D01*
X13945Y-11203D01*
X13798Y-11055D01*
X13605Y-10975D01*
X13396Y-10975D01*
X13203Y-11055D01*
X13055Y-11202D01*
X12999Y-11335D01*
X12945Y-11203D01*
X12798Y-11055D01*
X12605Y-10975D01*
X12396Y-10975D01*
X12203Y-11055D01*
X12055Y-11202D01*
X11999Y-11335D01*
X11945Y-11203D01*
X11798Y-11055D01*
X11605Y-10975D01*
X11396Y-10975D01*
X11388Y-10978D01*
X11309Y-10899D01*
X11399Y-10899D01*
X11491Y-10861D01*
X11500Y-10852D01*
X11509Y-10861D01*
X11600Y-10899D01*
X11699Y-10899D01*
X11899Y-10899D01*
X11991Y-10861D01*
X12000Y-10852D01*
X12009Y-10861D01*
X12100Y-10899D01*
X12199Y-10899D01*
X12399Y-10899D01*
X12491Y-10861D01*
X12561Y-10791D01*
X12599Y-10700D01*
X12599Y-10601D01*
X12599Y-10101D01*
X12561Y-10009D01*
X12540Y-09988D01*
X12540Y-09870D01*
X12620Y-09790D01*
X13880Y-09790D01*
X14210Y-10120D01*
X14210Y-11052D01*
X14210Y-11052D01*
G37*
G54D17*
X14210Y-11052D02*
X14203Y-11055D01*
X14055Y-11202D01*
X13999Y-11335D01*
X13945Y-11203D01*
X13798Y-11055D01*
X13605Y-10975D01*
X13396Y-10975D01*
X13203Y-11055D01*
X13055Y-11202D01*
X12999Y-11335D01*
X12945Y-11203D01*
X12798Y-11055D01*
X12605Y-10975D01*
X12396Y-10975D01*
X12203Y-11055D01*
X12055Y-11202D01*
X11999Y-11335D01*
X11945Y-11203D01*
X11798Y-11055D01*
X11605Y-10975D01*
X11396Y-10975D01*
X11388Y-10978D01*
X11309Y-10899D01*
X11399Y-10899D01*
X11491Y-10861D01*
X11500Y-10852D01*
X11509Y-10861D01*
X11600Y-10899D01*
X11699Y-10899D01*
X11899Y-10899D01*
X11991Y-10861D01*
X12000Y-10852D01*
X12009Y-10861D01*
X12100Y-10899D01*
X12199Y-10899D01*
X12399Y-10899D01*
X12491Y-10861D01*
X12561Y-10791D01*
X12599Y-10700D01*
X12599Y-10601D01*
X12599Y-10101D01*
X12561Y-10009D01*
X12540Y-09988D01*
X12540Y-09870D01*
X12620Y-09790D01*
X13880Y-09790D01*
X14210Y-10120D01*
X14210Y-11052D01*
G54D10*
G36*
X14217Y-05049D02*
X14203Y-05055D01*
X14055Y-05202D01*
X13999Y-05335D01*
X13945Y-05203D01*
X13798Y-05055D01*
X13783Y-05049D01*
X14217Y-05049D01*
X14217Y-05049D01*
G37*
G54D17*
X14217Y-05049D02*
X14203Y-05055D01*
X14055Y-05202D01*
X13999Y-05335D01*
X13945Y-05203D01*
X13798Y-05055D01*
X13783Y-05049D01*
X14217Y-05049D01*
G54D10*
G36*
X17690Y-18101D02*
X17601Y-18101D01*
X17509Y-18139D01*
X17500Y-18148D01*
X17491Y-18139D01*
X17400Y-18101D01*
X17301Y-18101D01*
X17101Y-18101D01*
X17009Y-18139D01*
X17000Y-18148D01*
X16991Y-18139D01*
X16900Y-18101D01*
X16801Y-18101D01*
X16601Y-18101D01*
X16509Y-18139D01*
X16439Y-18209D01*
X16401Y-18300D01*
X16401Y-18399D01*
X16401Y-18899D01*
X16439Y-18991D01*
X16460Y-19012D01*
X16460Y-19130D01*
X16380Y-19210D01*
X15120Y-19210D01*
X14790Y-18880D01*
X14790Y-18024D01*
X14824Y-18024D01*
X14916Y-17986D01*
X14986Y-17916D01*
X15024Y-17825D01*
X15024Y-17726D01*
X15024Y-17722D01*
X15055Y-17797D01*
X15202Y-17945D01*
X15395Y-18025D01*
X15604Y-18025D01*
X15797Y-17945D01*
X15945Y-17798D01*
X16000Y-17664D01*
X16055Y-17797D01*
X16202Y-17945D01*
X16395Y-18025D01*
X16604Y-18025D01*
X16797Y-17945D01*
X16945Y-17798D01*
X17000Y-17664D01*
X17055Y-17797D01*
X17202Y-17945D01*
X17395Y-18025D01*
X17604Y-18025D01*
X17611Y-18021D01*
X17690Y-18101D01*
X17690Y-18101D01*
G37*
G54D17*
X17690Y-18101D02*
X17601Y-18101D01*
X17509Y-18139D01*
X17500Y-18148D01*
X17491Y-18139D01*
X17400Y-18101D01*
X17301Y-18101D01*
X17101Y-18101D01*
X17009Y-18139D01*
X17000Y-18148D01*
X16991Y-18139D01*
X16900Y-18101D01*
X16801Y-18101D01*
X16601Y-18101D01*
X16509Y-18139D01*
X16439Y-18209D01*
X16401Y-18300D01*
X16401Y-18399D01*
X16401Y-18899D01*
X16439Y-18991D01*
X16460Y-19012D01*
X16460Y-19130D01*
X16380Y-19210D01*
X15120Y-19210D01*
X14790Y-18880D01*
X14790Y-18024D01*
X14824Y-18024D01*
X14916Y-17986D01*
X14986Y-17916D01*
X15024Y-17825D01*
X15024Y-17726D01*
X15024Y-17722D01*
X15055Y-17797D01*
X15202Y-17945D01*
X15395Y-18025D01*
X15604Y-18025D01*
X15797Y-17945D01*
X15945Y-17798D01*
X16000Y-17664D01*
X16055Y-17797D01*
X16202Y-17945D01*
X16395Y-18025D01*
X16604Y-18025D01*
X16797Y-17945D01*
X16945Y-17798D01*
X17000Y-17664D01*
X17055Y-17797D01*
X17202Y-17945D01*
X17395Y-18025D01*
X17604Y-18025D01*
X17611Y-18021D01*
X17690Y-18101D01*
G54D10*
G36*
X17690Y-22899D02*
X17611Y-22977D01*
X17605Y-22975D01*
X17396Y-22975D01*
X17203Y-23055D01*
X17055Y-23202D01*
X16999Y-23335D01*
X16945Y-23203D01*
X16798Y-23055D01*
X16605Y-22975D01*
X16396Y-22975D01*
X16203Y-23055D01*
X16055Y-23202D01*
X15999Y-23335D01*
X15945Y-23203D01*
X15798Y-23055D01*
X15605Y-22975D01*
X15396Y-22975D01*
X15203Y-23055D01*
X15055Y-23202D01*
X15024Y-23276D01*
X15024Y-23176D01*
X14986Y-23084D01*
X14916Y-23014D01*
X14825Y-22976D01*
X14790Y-22976D01*
X14790Y-22120D01*
X15120Y-21790D01*
X16380Y-21790D01*
X16460Y-21870D01*
X16460Y-21988D01*
X16439Y-22009D01*
X16401Y-22100D01*
X16401Y-22199D01*
X16401Y-22699D01*
X16439Y-22791D01*
X16509Y-22861D01*
X16600Y-22899D01*
X16699Y-22899D01*
X16899Y-22899D01*
X16991Y-22861D01*
X17000Y-22852D01*
X17009Y-22861D01*
X17100Y-22899D01*
X17199Y-22899D01*
X17399Y-22899D01*
X17491Y-22861D01*
X17500Y-22852D01*
X17509Y-22861D01*
X17600Y-22899D01*
X17690Y-22899D01*
X17690Y-22899D01*
G37*
G54D17*
X17690Y-22899D02*
X17611Y-22977D01*
X17605Y-22975D01*
X17396Y-22975D01*
X17203Y-23055D01*
X17055Y-23202D01*
X16999Y-23335D01*
X16945Y-23203D01*
X16798Y-23055D01*
X16605Y-22975D01*
X16396Y-22975D01*
X16203Y-23055D01*
X16055Y-23202D01*
X15999Y-23335D01*
X15945Y-23203D01*
X15798Y-23055D01*
X15605Y-22975D01*
X15396Y-22975D01*
X15203Y-23055D01*
X15055Y-23202D01*
X15024Y-23276D01*
X15024Y-23176D01*
X14986Y-23084D01*
X14916Y-23014D01*
X14825Y-22976D01*
X14790Y-22976D01*
X14790Y-22120D01*
X15120Y-21790D01*
X16380Y-21790D01*
X16460Y-21870D01*
X16460Y-21988D01*
X16439Y-22009D01*
X16401Y-22100D01*
X16401Y-22199D01*
X16401Y-22699D01*
X16439Y-22791D01*
X16509Y-22861D01*
X16600Y-22899D01*
X16699Y-22899D01*
X16899Y-22899D01*
X16991Y-22861D01*
X17000Y-22852D01*
X17009Y-22861D01*
X17100Y-22899D01*
X17199Y-22899D01*
X17399Y-22899D01*
X17491Y-22861D01*
X17500Y-22852D01*
X17509Y-22861D01*
X17600Y-22899D01*
X17690Y-22899D01*
G54D10*
G36*
X18051Y-09460D02*
X18025Y-09460D01*
X18025Y-09435D01*
X18044Y-09455D01*
X18045Y-09455D01*
X18051Y-09460D01*
X18051Y-09460D01*
G37*
G54D17*
X18051Y-09460D02*
X18025Y-09460D01*
X18025Y-09435D01*
X18044Y-09455D01*
X18045Y-09455D01*
X18051Y-09460D01*
G54D10*
G36*
X18051Y-10540D02*
X18044Y-10545D01*
X18025Y-10564D01*
X18025Y-10540D01*
X18051Y-10540D01*
X18051Y-10540D01*
G37*
G54D17*
X18051Y-10540D02*
X18044Y-10545D01*
X18025Y-10564D01*
X18025Y-10540D01*
X18051Y-10540D01*
G54D10*
G36*
X18460Y-18051D02*
X18455Y-18045D01*
X18455Y-18044D01*
X18435Y-18025D01*
X18460Y-18025D01*
X18460Y-18051D01*
X18460Y-18051D01*
G37*
G54D17*
X18460Y-18051D02*
X18455Y-18045D01*
X18455Y-18044D01*
X18435Y-18025D01*
X18460Y-18025D01*
X18460Y-18051D01*
G54D10*
G36*
X18460Y-22975D02*
X18435Y-22975D01*
X18455Y-22956D01*
X18455Y-22955D01*
X18460Y-22948D01*
X18460Y-22975D01*
X18460Y-22975D01*
G37*
G54D17*
X18460Y-22975D02*
X18435Y-22975D01*
X18455Y-22956D01*
X18455Y-22955D01*
X18460Y-22948D01*
X18460Y-22975D01*
G54D10*
G36*
X19210Y-07380D02*
X19130Y-07460D01*
X19012Y-07460D01*
X18991Y-07439D01*
X18900Y-07401D01*
X18801Y-07401D01*
X18301Y-07401D01*
X18209Y-07439D01*
X18139Y-07509D01*
X18101Y-07600D01*
X18101Y-07699D01*
X18101Y-07899D01*
X18139Y-07991D01*
X18148Y-08000D01*
X18139Y-08009D01*
X18101Y-08100D01*
X18101Y-08199D01*
X18101Y-08399D01*
X18139Y-08491D01*
X18148Y-08500D01*
X18139Y-08509D01*
X18101Y-08600D01*
X18101Y-08690D01*
X18022Y-08611D01*
X18025Y-08605D01*
X18025Y-08396D01*
X17945Y-08203D01*
X17798Y-08055D01*
X17664Y-07999D01*
X17797Y-07945D01*
X17945Y-07798D01*
X18025Y-07605D01*
X18025Y-07396D01*
X17945Y-07203D01*
X17798Y-07055D01*
X17664Y-06999D01*
X17797Y-06945D01*
X17945Y-06798D01*
X18025Y-06605D01*
X18025Y-06396D01*
X17945Y-06203D01*
X17798Y-06055D01*
X17664Y-05999D01*
X17797Y-05945D01*
X17945Y-05798D01*
X17948Y-05790D01*
X18880Y-05790D01*
X19210Y-06120D01*
X19210Y-07380D01*
X19210Y-07380D01*
G37*
G54D17*
X19210Y-07380D02*
X19130Y-07460D01*
X19012Y-07460D01*
X18991Y-07439D01*
X18900Y-07401D01*
X18801Y-07401D01*
X18301Y-07401D01*
X18209Y-07439D01*
X18139Y-07509D01*
X18101Y-07600D01*
X18101Y-07699D01*
X18101Y-07899D01*
X18139Y-07991D01*
X18148Y-08000D01*
X18139Y-08009D01*
X18101Y-08100D01*
X18101Y-08199D01*
X18101Y-08399D01*
X18139Y-08491D01*
X18148Y-08500D01*
X18139Y-08509D01*
X18101Y-08600D01*
X18101Y-08690D01*
X18022Y-08611D01*
X18025Y-08605D01*
X18025Y-08396D01*
X17945Y-08203D01*
X17798Y-08055D01*
X17664Y-07999D01*
X17797Y-07945D01*
X17945Y-07798D01*
X18025Y-07605D01*
X18025Y-07396D01*
X17945Y-07203D01*
X17798Y-07055D01*
X17664Y-06999D01*
X17797Y-06945D01*
X17945Y-06798D01*
X18025Y-06605D01*
X18025Y-06396D01*
X17945Y-06203D01*
X17798Y-06055D01*
X17664Y-05999D01*
X17797Y-05945D01*
X17945Y-05798D01*
X17948Y-05790D01*
X18880Y-05790D01*
X19210Y-06120D01*
X19210Y-07380D01*
G54D10*
G36*
X19210Y-13880D02*
X18880Y-14210D01*
X18024Y-14210D01*
X18024Y-14176D01*
X17986Y-14084D01*
X17916Y-14014D01*
X17825Y-13976D01*
X17726Y-13976D01*
X17722Y-13976D01*
X17797Y-13945D01*
X17945Y-13798D01*
X18025Y-13605D01*
X18025Y-13396D01*
X17945Y-13203D01*
X17798Y-13055D01*
X17664Y-12999D01*
X17797Y-12945D01*
X17945Y-12798D01*
X18025Y-12605D01*
X18025Y-12396D01*
X17945Y-12203D01*
X17798Y-12055D01*
X17664Y-11999D01*
X17797Y-11945D01*
X17945Y-11798D01*
X18025Y-11605D01*
X18025Y-11396D01*
X18021Y-11388D01*
X18101Y-11309D01*
X18101Y-11399D01*
X18139Y-11491D01*
X18148Y-11500D01*
X18139Y-11509D01*
X18101Y-11600D01*
X18101Y-11699D01*
X18101Y-11899D01*
X18139Y-11991D01*
X18148Y-12000D01*
X18139Y-12009D01*
X18101Y-12100D01*
X18101Y-12199D01*
X18101Y-12399D01*
X18139Y-12491D01*
X18209Y-12561D01*
X18300Y-12599D01*
X18399Y-12599D01*
X18899Y-12599D01*
X18991Y-12561D01*
X19012Y-12540D01*
X19130Y-12540D01*
X19210Y-12620D01*
X19210Y-13880D01*
X19210Y-13880D01*
G37*
G54D17*
X19210Y-13880D02*
X18880Y-14210D01*
X18024Y-14210D01*
X18024Y-14176D01*
X17986Y-14084D01*
X17916Y-14014D01*
X17825Y-13976D01*
X17726Y-13976D01*
X17722Y-13976D01*
X17797Y-13945D01*
X17945Y-13798D01*
X18025Y-13605D01*
X18025Y-13396D01*
X17945Y-13203D01*
X17798Y-13055D01*
X17664Y-12999D01*
X17797Y-12945D01*
X17945Y-12798D01*
X18025Y-12605D01*
X18025Y-12396D01*
X17945Y-12203D01*
X17798Y-12055D01*
X17664Y-11999D01*
X17797Y-11945D01*
X17945Y-11798D01*
X18025Y-11605D01*
X18025Y-11396D01*
X18021Y-11388D01*
X18101Y-11309D01*
X18101Y-11399D01*
X18139Y-11491D01*
X18148Y-11500D01*
X18139Y-11509D01*
X18101Y-11600D01*
X18101Y-11699D01*
X18101Y-11899D01*
X18139Y-11991D01*
X18148Y-12000D01*
X18139Y-12009D01*
X18101Y-12100D01*
X18101Y-12199D01*
X18101Y-12399D01*
X18139Y-12491D01*
X18209Y-12561D01*
X18300Y-12599D01*
X18399Y-12599D01*
X18899Y-12599D01*
X18991Y-12561D01*
X19012Y-12540D01*
X19130Y-12540D01*
X19210Y-12620D01*
X19210Y-13880D01*
G54D10*
G36*
X19564Y-18025D02*
X19545Y-18045D01*
X19540Y-18052D01*
X19540Y-18025D01*
X19564Y-18025D01*
X19564Y-18025D01*
G37*
G54D17*
X19564Y-18025D02*
X19545Y-18045D01*
X19540Y-18052D01*
X19540Y-18025D01*
X19564Y-18025D01*
G54D10*
G36*
X19564Y-22975D02*
X19540Y-22975D01*
X19540Y-22947D01*
X19545Y-22955D01*
X19564Y-22975D01*
X19564Y-22975D01*
G37*
G54D17*
X19564Y-22975D02*
X19540Y-22975D01*
X19540Y-22947D01*
X19545Y-22955D01*
X19564Y-22975D01*
G54D10*
G36*
X22975Y-09460D02*
X22947Y-09460D01*
X22955Y-09455D01*
X22975Y-09435D01*
X22975Y-09460D01*
X22975Y-09460D01*
G37*
G54D17*
X22975Y-09460D02*
X22947Y-09460D01*
X22955Y-09455D01*
X22975Y-09435D01*
X22975Y-09460D01*
G54D10*
G36*
X22975Y-10564D02*
X22955Y-10545D01*
X22947Y-10540D01*
X22975Y-10540D01*
X22975Y-10564D01*
X22975Y-10564D01*
G37*
G54D17*
X22975Y-10564D02*
X22955Y-10545D01*
X22947Y-10540D01*
X22975Y-10540D01*
X22975Y-10564D01*
G54D10*
G36*
X23210Y-18880D02*
X22880Y-19210D01*
X21620Y-19210D01*
X21540Y-19130D01*
X21540Y-19012D01*
X21561Y-18991D01*
X21599Y-18900D01*
X21599Y-18801D01*
X21599Y-18301D01*
X21561Y-18209D01*
X21491Y-18139D01*
X21400Y-18101D01*
X21301Y-18101D01*
X21101Y-18101D01*
X21009Y-18139D01*
X21000Y-18148D01*
X20991Y-18139D01*
X20900Y-18101D01*
X20801Y-18101D01*
X20601Y-18101D01*
X20509Y-18139D01*
X20500Y-18148D01*
X20491Y-18139D01*
X20400Y-18101D01*
X20309Y-18101D01*
X20388Y-18022D01*
X20395Y-18025D01*
X20604Y-18025D01*
X20797Y-17945D01*
X20945Y-17798D01*
X21000Y-17664D01*
X21055Y-17797D01*
X21202Y-17945D01*
X21395Y-18025D01*
X21604Y-18025D01*
X21797Y-17945D01*
X21945Y-17798D01*
X22000Y-17664D01*
X22055Y-17797D01*
X22202Y-17945D01*
X22395Y-18025D01*
X22604Y-18025D01*
X22797Y-17945D01*
X22945Y-17798D01*
X23000Y-17664D01*
X23055Y-17797D01*
X23202Y-17945D01*
X23210Y-17948D01*
X23210Y-18880D01*
X23210Y-18880D01*
G37*
G54D17*
X23210Y-18880D02*
X22880Y-19210D01*
X21620Y-19210D01*
X21540Y-19130D01*
X21540Y-19012D01*
X21561Y-18991D01*
X21599Y-18900D01*
X21599Y-18801D01*
X21599Y-18301D01*
X21561Y-18209D01*
X21491Y-18139D01*
X21400Y-18101D01*
X21301Y-18101D01*
X21101Y-18101D01*
X21009Y-18139D01*
X21000Y-18148D01*
X20991Y-18139D01*
X20900Y-18101D01*
X20801Y-18101D01*
X20601Y-18101D01*
X20509Y-18139D01*
X20500Y-18148D01*
X20491Y-18139D01*
X20400Y-18101D01*
X20309Y-18101D01*
X20388Y-18022D01*
X20395Y-18025D01*
X20604Y-18025D01*
X20797Y-17945D01*
X20945Y-17798D01*
X21000Y-17664D01*
X21055Y-17797D01*
X21202Y-17945D01*
X21395Y-18025D01*
X21604Y-18025D01*
X21797Y-17945D01*
X21945Y-17798D01*
X22000Y-17664D01*
X22055Y-17797D01*
X22202Y-17945D01*
X22395Y-18025D01*
X22604Y-18025D01*
X22797Y-17945D01*
X22945Y-17798D01*
X23000Y-17664D01*
X23055Y-17797D01*
X23202Y-17945D01*
X23210Y-17948D01*
X23210Y-18880D01*
G54D10*
G36*
X23210Y-23052D02*
X23203Y-23055D01*
X23055Y-23202D01*
X22999Y-23335D01*
X22945Y-23203D01*
X22798Y-23055D01*
X22605Y-22975D01*
X22396Y-22975D01*
X22203Y-23055D01*
X22055Y-23202D01*
X21999Y-23335D01*
X21945Y-23203D01*
X21798Y-23055D01*
X21605Y-22975D01*
X21396Y-22975D01*
X21203Y-23055D01*
X21055Y-23202D01*
X20999Y-23335D01*
X20945Y-23203D01*
X20798Y-23055D01*
X20605Y-22975D01*
X20396Y-22975D01*
X20388Y-22978D01*
X20309Y-22899D01*
X20399Y-22899D01*
X20491Y-22861D01*
X20500Y-22852D01*
X20509Y-22861D01*
X20600Y-22899D01*
X20699Y-22899D01*
X20899Y-22899D01*
X20991Y-22861D01*
X21000Y-22852D01*
X21009Y-22861D01*
X21100Y-22899D01*
X21199Y-22899D01*
X21399Y-22899D01*
X21491Y-22861D01*
X21561Y-22791D01*
X21599Y-22700D01*
X21599Y-22601D01*
X21599Y-22101D01*
X21561Y-22009D01*
X21540Y-21988D01*
X21540Y-21870D01*
X21620Y-21790D01*
X22880Y-21790D01*
X23210Y-22120D01*
X23210Y-23052D01*
X23210Y-23052D01*
G37*
G54D17*
X23210Y-23052D02*
X23203Y-23055D01*
X23055Y-23202D01*
X22999Y-23335D01*
X22945Y-23203D01*
X22798Y-23055D01*
X22605Y-22975D01*
X22396Y-22975D01*
X22203Y-23055D01*
X22055Y-23202D01*
X21999Y-23335D01*
X21945Y-23203D01*
X21798Y-23055D01*
X21605Y-22975D01*
X21396Y-22975D01*
X21203Y-23055D01*
X21055Y-23202D01*
X20999Y-23335D01*
X20945Y-23203D01*
X20798Y-23055D01*
X20605Y-22975D01*
X20396Y-22975D01*
X20388Y-22978D01*
X20309Y-22899D01*
X20399Y-22899D01*
X20491Y-22861D01*
X20500Y-22852D01*
X20509Y-22861D01*
X20600Y-22899D01*
X20699Y-22899D01*
X20899Y-22899D01*
X20991Y-22861D01*
X21000Y-22852D01*
X21009Y-22861D01*
X21100Y-22899D01*
X21199Y-22899D01*
X21399Y-22899D01*
X21491Y-22861D01*
X21561Y-22791D01*
X21599Y-22700D01*
X21599Y-22601D01*
X21599Y-22101D01*
X21561Y-22009D01*
X21540Y-21988D01*
X21540Y-21870D01*
X21620Y-21790D01*
X22880Y-21790D01*
X23210Y-22120D01*
X23210Y-23052D01*
G54D10*
G36*
X23335Y-08000D02*
X23203Y-08055D01*
X23055Y-08202D01*
X22975Y-08395D01*
X22975Y-08604D01*
X22978Y-08611D01*
X22899Y-08690D01*
X22899Y-08601D01*
X22861Y-08509D01*
X22852Y-08500D01*
X22861Y-08491D01*
X22899Y-08400D01*
X22899Y-08301D01*
X22899Y-08101D01*
X22861Y-08009D01*
X22852Y-08000D01*
X22861Y-07991D01*
X22899Y-07900D01*
X22899Y-07801D01*
X22899Y-07601D01*
X22861Y-07509D01*
X22791Y-07439D01*
X22700Y-07401D01*
X22601Y-07401D01*
X22101Y-07401D01*
X22009Y-07439D01*
X21988Y-07460D01*
X21870Y-07460D01*
X21790Y-07380D01*
X21790Y-06120D01*
X22120Y-05790D01*
X23052Y-05790D01*
X23055Y-05797D01*
X23202Y-05945D01*
X23335Y-06000D01*
X23203Y-06055D01*
X23055Y-06202D01*
X22975Y-06395D01*
X22975Y-06604D01*
X23055Y-06797D01*
X23202Y-06945D01*
X23335Y-07000D01*
X23203Y-07055D01*
X23055Y-07202D01*
X22975Y-07395D01*
X22975Y-07604D01*
X23055Y-07797D01*
X23202Y-07945D01*
X23335Y-08000D01*
X23335Y-08000D01*
G37*
G54D17*
X23335Y-08000D02*
X23203Y-08055D01*
X23055Y-08202D01*
X22975Y-08395D01*
X22975Y-08604D01*
X22978Y-08611D01*
X22899Y-08690D01*
X22899Y-08601D01*
X22861Y-08509D01*
X22852Y-08500D01*
X22861Y-08491D01*
X22899Y-08400D01*
X22899Y-08301D01*
X22899Y-08101D01*
X22861Y-08009D01*
X22852Y-08000D01*
X22861Y-07991D01*
X22899Y-07900D01*
X22899Y-07801D01*
X22899Y-07601D01*
X22861Y-07509D01*
X22791Y-07439D01*
X22700Y-07401D01*
X22601Y-07401D01*
X22101Y-07401D01*
X22009Y-07439D01*
X21988Y-07460D01*
X21870Y-07460D01*
X21790Y-07380D01*
X21790Y-06120D01*
X22120Y-05790D01*
X23052Y-05790D01*
X23055Y-05797D01*
X23202Y-05945D01*
X23335Y-06000D01*
X23203Y-06055D01*
X23055Y-06202D01*
X22975Y-06395D01*
X22975Y-06604D01*
X23055Y-06797D01*
X23202Y-06945D01*
X23335Y-07000D01*
X23203Y-07055D01*
X23055Y-07202D01*
X22975Y-07395D01*
X22975Y-07604D01*
X23055Y-07797D01*
X23202Y-07945D01*
X23335Y-08000D01*
G54D10*
G36*
X23335Y-13000D02*
X23203Y-13055D01*
X23055Y-13202D01*
X22975Y-13395D01*
X22975Y-13604D01*
X23055Y-13797D01*
X23202Y-13945D01*
X23276Y-13976D01*
X23176Y-13976D01*
X23084Y-14014D01*
X23014Y-14084D01*
X22976Y-14175D01*
X22976Y-14210D01*
X22120Y-14210D01*
X21790Y-13880D01*
X21790Y-12620D01*
X21870Y-12540D01*
X21988Y-12540D01*
X22009Y-12561D01*
X22100Y-12599D01*
X22199Y-12599D01*
X22699Y-12599D01*
X22791Y-12561D01*
X22861Y-12491D01*
X22899Y-12400D01*
X22899Y-12301D01*
X22899Y-12101D01*
X22861Y-12009D01*
X22852Y-12000D01*
X22861Y-11991D01*
X22899Y-11900D01*
X22899Y-11801D01*
X22899Y-11601D01*
X22861Y-11509D01*
X22852Y-11500D01*
X22861Y-11491D01*
X22899Y-11400D01*
X22899Y-11309D01*
X22977Y-11388D01*
X22975Y-11395D01*
X22975Y-11604D01*
X23055Y-11797D01*
X23202Y-11945D01*
X23335Y-12000D01*
X23203Y-12055D01*
X23055Y-12202D01*
X22975Y-12395D01*
X22975Y-12604D01*
X23055Y-12797D01*
X23202Y-12945D01*
X23335Y-13000D01*
X23335Y-13000D01*
G37*
G54D17*
X23335Y-13000D02*
X23203Y-13055D01*
X23055Y-13202D01*
X22975Y-13395D01*
X22975Y-13604D01*
X23055Y-13797D01*
X23202Y-13945D01*
X23276Y-13976D01*
X23176Y-13976D01*
X23084Y-14014D01*
X23014Y-14084D01*
X22976Y-14175D01*
X22976Y-14210D01*
X22120Y-14210D01*
X21790Y-13880D01*
X21790Y-12620D01*
X21870Y-12540D01*
X21988Y-12540D01*
X22009Y-12561D01*
X22100Y-12599D01*
X22199Y-12599D01*
X22699Y-12599D01*
X22791Y-12561D01*
X22861Y-12491D01*
X22899Y-12400D01*
X22899Y-12301D01*
X22899Y-12101D01*
X22861Y-12009D01*
X22852Y-12000D01*
X22861Y-11991D01*
X22899Y-11900D01*
X22899Y-11801D01*
X22899Y-11601D01*
X22861Y-11509D01*
X22852Y-11500D01*
X22861Y-11491D01*
X22899Y-11400D01*
X22899Y-11309D01*
X22977Y-11388D01*
X22975Y-11395D01*
X22975Y-11604D01*
X23055Y-11797D01*
X23202Y-11945D01*
X23335Y-12000D01*
X23203Y-12055D01*
X23055Y-12202D01*
X22975Y-12395D01*
X22975Y-12604D01*
X23055Y-12797D01*
X23202Y-12945D01*
X23335Y-13000D01*
G54D10*
G36*
X24084Y-24084D02*
X24025Y-24084D01*
X24025Y-23605D01*
X24025Y-23396D01*
X24025Y-17605D01*
X24025Y-17396D01*
X23945Y-17203D01*
X23798Y-17055D01*
X23605Y-16975D01*
X23396Y-16975D01*
X23203Y-17055D01*
X23055Y-17202D01*
X22999Y-17335D01*
X22945Y-17203D01*
X22798Y-17055D01*
X22605Y-16975D01*
X22396Y-16975D01*
X22203Y-17055D01*
X22055Y-17202D01*
X21999Y-17335D01*
X21945Y-17203D01*
X21798Y-17055D01*
X21605Y-16975D01*
X21396Y-16975D01*
X21203Y-17055D01*
X21055Y-17202D01*
X20999Y-17335D01*
X20945Y-17203D01*
X20798Y-17055D01*
X20605Y-16975D01*
X20396Y-16975D01*
X20203Y-17055D01*
X20055Y-17202D01*
X19999Y-17335D01*
X19945Y-17203D01*
X19798Y-17055D01*
X19605Y-16975D01*
X19396Y-16975D01*
X19203Y-17055D01*
X19055Y-17202D01*
X18999Y-17335D01*
X18945Y-17203D01*
X18798Y-17055D01*
X18605Y-16975D01*
X18396Y-16975D01*
X18203Y-17055D01*
X18055Y-17202D01*
X17999Y-17335D01*
X17945Y-17203D01*
X17798Y-17055D01*
X17605Y-16975D01*
X17396Y-16975D01*
X17203Y-17055D01*
X17055Y-17202D01*
X16999Y-17335D01*
X16945Y-17203D01*
X16798Y-17055D01*
X16605Y-16975D01*
X16396Y-16975D01*
X16203Y-17055D01*
X16055Y-17202D01*
X15999Y-17335D01*
X15945Y-17203D01*
X15798Y-17055D01*
X15605Y-16975D01*
X15396Y-16975D01*
X15203Y-17055D01*
X15055Y-17202D01*
X15024Y-17276D01*
X15024Y-17176D01*
X14986Y-17084D01*
X14916Y-17014D01*
X14825Y-16976D01*
X14726Y-16976D01*
X14176Y-16976D01*
X14084Y-17014D01*
X14014Y-17084D01*
X13976Y-17175D01*
X13976Y-17274D01*
X13976Y-17824D01*
X14014Y-17916D01*
X14084Y-17986D01*
X14175Y-18024D01*
X14210Y-18024D01*
X14210Y-19000D01*
X14232Y-19111D01*
X14295Y-19205D01*
X14795Y-19705D01*
X14889Y-19768D01*
X15000Y-19790D01*
X16377Y-19790D01*
X16325Y-19915D01*
X16325Y-20084D01*
X16389Y-20240D01*
X16509Y-20360D01*
X16665Y-20425D01*
X16834Y-20425D01*
X16990Y-20361D01*
X17110Y-20241D01*
X17175Y-20085D01*
X17175Y-19985D01*
X17404Y-19755D01*
X17509Y-19860D01*
X17665Y-19925D01*
X17834Y-19925D01*
X17990Y-19861D01*
X18110Y-19741D01*
X18175Y-19585D01*
X18175Y-19416D01*
X18111Y-19260D01*
X18040Y-19189D01*
X18040Y-19073D01*
X18100Y-19099D01*
X18199Y-19099D01*
X18399Y-19099D01*
X18491Y-19061D01*
X18500Y-19052D01*
X18509Y-19061D01*
X18600Y-19099D01*
X18699Y-19099D01*
X18899Y-19099D01*
X18991Y-19061D01*
X19000Y-19052D01*
X19009Y-19061D01*
X19100Y-19099D01*
X19199Y-19099D01*
X19399Y-19099D01*
X19491Y-19061D01*
X19500Y-19052D01*
X19509Y-19061D01*
X19600Y-19099D01*
X19699Y-19099D01*
X19899Y-19099D01*
X19960Y-19073D01*
X19960Y-19189D01*
X19890Y-19259D01*
X19825Y-19415D01*
X19825Y-19584D01*
X19889Y-19740D01*
X20009Y-19860D01*
X20165Y-19925D01*
X20334Y-19925D01*
X20490Y-19861D01*
X20595Y-19755D01*
X20825Y-19985D01*
X20825Y-20084D01*
X20889Y-20240D01*
X21009Y-20360D01*
X21165Y-20425D01*
X21334Y-20425D01*
X21490Y-20361D01*
X21610Y-20241D01*
X21675Y-20085D01*
X21675Y-19916D01*
X21623Y-19790D01*
X23000Y-19790D01*
X23111Y-19768D01*
X23205Y-19705D01*
X23705Y-19205D01*
X23768Y-19111D01*
X23790Y-19000D01*
X23790Y-17947D01*
X23797Y-17945D01*
X23945Y-17798D01*
X24025Y-17605D01*
X24025Y-23396D01*
X23945Y-23203D01*
X23798Y-23055D01*
X23790Y-23051D01*
X23790Y-22000D01*
X23768Y-21889D01*
X23705Y-21795D01*
X23205Y-21295D01*
X23111Y-21232D01*
X23000Y-21210D01*
X21622Y-21210D01*
X21675Y-21085D01*
X21675Y-20916D01*
X21611Y-20760D01*
X21491Y-20640D01*
X21335Y-20575D01*
X21166Y-20575D01*
X21010Y-20639D01*
X20890Y-20759D01*
X20825Y-20915D01*
X20825Y-21015D01*
X20595Y-21244D01*
X20491Y-21140D01*
X20335Y-21075D01*
X20166Y-21075D01*
X20010Y-21139D01*
X19890Y-21259D01*
X19825Y-21415D01*
X19825Y-21584D01*
X19889Y-21740D01*
X19960Y-21811D01*
X19960Y-21926D01*
X19900Y-21901D01*
X19801Y-21901D01*
X19601Y-21901D01*
X19509Y-21939D01*
X19500Y-21948D01*
X19491Y-21939D01*
X19400Y-21901D01*
X19301Y-21901D01*
X19101Y-21901D01*
X19009Y-21939D01*
X19000Y-21948D01*
X18991Y-21939D01*
X18900Y-21901D01*
X18801Y-21901D01*
X18601Y-21901D01*
X18509Y-21939D01*
X18500Y-21948D01*
X18491Y-21939D01*
X18400Y-21901D01*
X18301Y-21901D01*
X18101Y-21901D01*
X18040Y-21926D01*
X18040Y-21811D01*
X18110Y-21741D01*
X18175Y-21585D01*
X18175Y-21416D01*
X18111Y-21260D01*
X17991Y-21140D01*
X17835Y-21075D01*
X17666Y-21075D01*
X17510Y-21139D01*
X17404Y-21244D01*
X17175Y-21015D01*
X17175Y-20916D01*
X17111Y-20760D01*
X16991Y-20640D01*
X16835Y-20575D01*
X16666Y-20575D01*
X16510Y-20639D01*
X16390Y-20759D01*
X16325Y-20915D01*
X16325Y-21084D01*
X16376Y-21210D01*
X15000Y-21210D01*
X14889Y-21232D01*
X14795Y-21295D01*
X14295Y-21795D01*
X14232Y-21889D01*
X14210Y-22000D01*
X14210Y-22976D01*
X14176Y-22976D01*
X14084Y-23014D01*
X14014Y-23084D01*
X13976Y-23175D01*
X13976Y-23274D01*
X13976Y-23824D01*
X14014Y-23916D01*
X14084Y-23986D01*
X14175Y-24024D01*
X14274Y-24024D01*
X14824Y-24024D01*
X14916Y-23986D01*
X14986Y-23916D01*
X15024Y-23825D01*
X15024Y-23726D01*
X15024Y-23722D01*
X15055Y-23797D01*
X15202Y-23945D01*
X15395Y-24025D01*
X15604Y-24025D01*
X15797Y-23945D01*
X15945Y-23798D01*
X16000Y-23664D01*
X16055Y-23797D01*
X16202Y-23945D01*
X16395Y-24025D01*
X16604Y-24025D01*
X16797Y-23945D01*
X16945Y-23798D01*
X17000Y-23664D01*
X17055Y-23797D01*
X17202Y-23945D01*
X17395Y-24025D01*
X17604Y-24025D01*
X17797Y-23945D01*
X17945Y-23798D01*
X18000Y-23664D01*
X18055Y-23797D01*
X18202Y-23945D01*
X18395Y-24025D01*
X18604Y-24025D01*
X18797Y-23945D01*
X18945Y-23798D01*
X19000Y-23664D01*
X19055Y-23797D01*
X19202Y-23945D01*
X19395Y-24025D01*
X19604Y-24025D01*
X19797Y-23945D01*
X19945Y-23798D01*
X20000Y-23664D01*
X20055Y-23797D01*
X20202Y-23945D01*
X20395Y-24025D01*
X20604Y-24025D01*
X20797Y-23945D01*
X20945Y-23798D01*
X21000Y-23664D01*
X21055Y-23797D01*
X21202Y-23945D01*
X21395Y-24025D01*
X21604Y-24025D01*
X21797Y-23945D01*
X21945Y-23798D01*
X22000Y-23664D01*
X22055Y-23797D01*
X22202Y-23945D01*
X22395Y-24025D01*
X22604Y-24025D01*
X22797Y-23945D01*
X22945Y-23798D01*
X23000Y-23664D01*
X23055Y-23797D01*
X23202Y-23945D01*
X23395Y-24025D01*
X23604Y-24025D01*
X23797Y-23945D01*
X23945Y-23798D01*
X24025Y-23605D01*
X24025Y-24084D01*
X12025Y-24084D01*
X12025Y-22605D01*
X12025Y-22396D01*
X11945Y-22203D01*
X11798Y-22055D01*
X11664Y-21999D01*
X11797Y-21945D01*
X11945Y-21798D01*
X12025Y-21605D01*
X12025Y-21396D01*
X11945Y-21203D01*
X11798Y-21055D01*
X11664Y-20999D01*
X11797Y-20945D01*
X11945Y-20798D01*
X12025Y-20605D01*
X12025Y-20396D01*
X11945Y-20203D01*
X11798Y-20055D01*
X11664Y-19999D01*
X11797Y-19945D01*
X11945Y-19798D01*
X12025Y-19605D01*
X12025Y-19396D01*
X11945Y-19203D01*
X11798Y-19055D01*
X11664Y-18999D01*
X11797Y-18945D01*
X11945Y-18798D01*
X12025Y-18605D01*
X12025Y-18396D01*
X11945Y-18203D01*
X11798Y-18055D01*
X11664Y-17999D01*
X11797Y-17945D01*
X11945Y-17798D01*
X12025Y-17605D01*
X12025Y-17396D01*
X11945Y-17203D01*
X11798Y-17055D01*
X11664Y-16999D01*
X11797Y-16945D01*
X11945Y-16798D01*
X12025Y-16605D01*
X12025Y-16396D01*
X11945Y-16203D01*
X11798Y-16055D01*
X11664Y-15999D01*
X11797Y-15945D01*
X11945Y-15798D01*
X12025Y-15605D01*
X12025Y-15396D01*
X11945Y-15203D01*
X11798Y-15055D01*
X11664Y-14999D01*
X11797Y-14945D01*
X11945Y-14798D01*
X12025Y-14605D01*
X12025Y-14396D01*
X11945Y-14203D01*
X11798Y-14055D01*
X11605Y-13975D01*
X11396Y-13975D01*
X11203Y-14055D01*
X11055Y-14202D01*
X11051Y-14210D01*
X10000Y-14210D01*
X09889Y-14232D01*
X09795Y-14295D01*
X09295Y-14795D01*
X09232Y-14889D01*
X09210Y-15000D01*
X09210Y-16377D01*
X09085Y-16325D01*
X08916Y-16325D01*
X08760Y-16389D01*
X08640Y-16509D01*
X08575Y-16665D01*
X08575Y-16834D01*
X08639Y-16990D01*
X08759Y-17110D01*
X08915Y-17175D01*
X09015Y-17175D01*
X09244Y-17404D01*
X09140Y-17509D01*
X09075Y-17665D01*
X09075Y-17834D01*
X09139Y-17990D01*
X09259Y-18110D01*
X09415Y-18175D01*
X09584Y-18175D01*
X09740Y-18111D01*
X09811Y-18040D01*
X09926Y-18040D01*
X09901Y-18100D01*
X09901Y-18199D01*
X09901Y-18399D01*
X09939Y-18491D01*
X09948Y-18500D01*
X09939Y-18509D01*
X09901Y-18600D01*
X09901Y-18699D01*
X09901Y-18899D01*
X09939Y-18991D01*
X09948Y-19000D01*
X09939Y-19009D01*
X09901Y-19100D01*
X09901Y-19199D01*
X09901Y-19399D01*
X09939Y-19491D01*
X09948Y-19500D01*
X09939Y-19509D01*
X09901Y-19600D01*
X09901Y-19699D01*
X09901Y-19899D01*
X09926Y-19960D01*
X09811Y-19960D01*
X09741Y-19890D01*
X09585Y-19825D01*
X09416Y-19825D01*
X09260Y-19889D01*
X09140Y-20009D01*
X09075Y-20165D01*
X09075Y-20334D01*
X09139Y-20490D01*
X09244Y-20595D01*
X09015Y-20825D01*
X08916Y-20825D01*
X08760Y-20889D01*
X08640Y-21009D01*
X08575Y-21165D01*
X08575Y-21334D01*
X08639Y-21490D01*
X08759Y-21610D01*
X08915Y-21675D01*
X09084Y-21675D01*
X09210Y-21623D01*
X09210Y-23000D01*
X09232Y-23111D01*
X09295Y-23205D01*
X09795Y-23705D01*
X09889Y-23768D01*
X10000Y-23790D01*
X10976Y-23790D01*
X10976Y-23824D01*
X11014Y-23916D01*
X11084Y-23986D01*
X11175Y-24024D01*
X11274Y-24024D01*
X11824Y-24024D01*
X11916Y-23986D01*
X11986Y-23916D01*
X12024Y-23825D01*
X12024Y-23726D01*
X12024Y-23176D01*
X11986Y-23084D01*
X11916Y-23014D01*
X11825Y-22976D01*
X11726Y-22976D01*
X11722Y-22976D01*
X11797Y-22945D01*
X11945Y-22798D01*
X12025Y-22605D01*
X12025Y-24084D01*
X05049Y-24084D01*
X05049Y-23951D01*
X05084Y-23986D01*
X05175Y-24024D01*
X05274Y-24024D01*
X05824Y-24024D01*
X05916Y-23986D01*
X05986Y-23916D01*
X06024Y-23825D01*
X06024Y-23790D01*
X07000Y-23790D01*
X07111Y-23768D01*
X07205Y-23705D01*
X07705Y-23205D01*
X07768Y-23111D01*
X07790Y-23000D01*
X07790Y-21622D01*
X07915Y-21675D01*
X08084Y-21675D01*
X08240Y-21611D01*
X08360Y-21491D01*
X08425Y-21335D01*
X08425Y-21166D01*
X08361Y-21010D01*
X08241Y-20890D01*
X08085Y-20825D01*
X07985Y-20825D01*
X07755Y-20595D01*
X07860Y-20491D01*
X07925Y-20335D01*
X07925Y-20166D01*
X07861Y-20010D01*
X07741Y-19890D01*
X07585Y-19825D01*
X07416Y-19825D01*
X07260Y-19889D01*
X07189Y-19960D01*
X07073Y-19960D01*
X07099Y-19900D01*
X07099Y-19801D01*
X07099Y-19601D01*
X07061Y-19509D01*
X07052Y-19500D01*
X07061Y-19491D01*
X07099Y-19400D01*
X07099Y-19301D01*
X07099Y-19101D01*
X07061Y-19009D01*
X07052Y-19000D01*
X07061Y-18991D01*
X07099Y-18900D01*
X07099Y-18801D01*
X07099Y-18601D01*
X07061Y-18509D01*
X07052Y-18500D01*
X07061Y-18491D01*
X07099Y-18400D01*
X07099Y-18301D01*
X07099Y-18101D01*
X07073Y-18040D01*
X07189Y-18040D01*
X07259Y-18110D01*
X07415Y-18175D01*
X07584Y-18175D01*
X07740Y-18111D01*
X07860Y-17991D01*
X07925Y-17835D01*
X07925Y-17666D01*
X07861Y-17510D01*
X07755Y-17404D01*
X07985Y-17175D01*
X08084Y-17175D01*
X08240Y-17111D01*
X08360Y-16991D01*
X08425Y-16835D01*
X08425Y-16666D01*
X08361Y-16510D01*
X08241Y-16390D01*
X08085Y-16325D01*
X07916Y-16325D01*
X07790Y-16376D01*
X07790Y-15000D01*
X07768Y-14889D01*
X07705Y-14795D01*
X07205Y-14295D01*
X07111Y-14232D01*
X07000Y-14210D01*
X05947Y-14210D01*
X05945Y-14203D01*
X05798Y-14055D01*
X05605Y-13975D01*
X05396Y-13975D01*
X05203Y-14055D01*
X05055Y-14202D01*
X05049Y-14216D01*
X05049Y-11951D01*
X05084Y-11986D01*
X05175Y-12024D01*
X05274Y-12024D01*
X05824Y-12024D01*
X05916Y-11986D01*
X05986Y-11916D01*
X06024Y-11825D01*
X06024Y-11726D01*
X06024Y-11722D01*
X06055Y-11797D01*
X06202Y-11945D01*
X06395Y-12025D01*
X06604Y-12025D01*
X06797Y-11945D01*
X06945Y-11798D01*
X07000Y-11664D01*
X07055Y-11797D01*
X07202Y-11945D01*
X07395Y-12025D01*
X07604Y-12025D01*
X07797Y-11945D01*
X07945Y-11798D01*
X08000Y-11664D01*
X08055Y-11797D01*
X08202Y-11945D01*
X08395Y-12025D01*
X08604Y-12025D01*
X08797Y-11945D01*
X08945Y-11798D01*
X09000Y-11664D01*
X09055Y-11797D01*
X09202Y-11945D01*
X09395Y-12025D01*
X09604Y-12025D01*
X09797Y-11945D01*
X09945Y-11798D01*
X10000Y-11664D01*
X10055Y-11797D01*
X10202Y-11945D01*
X10395Y-12025D01*
X10604Y-12025D01*
X10797Y-11945D01*
X10945Y-11798D01*
X11000Y-11664D01*
X11055Y-11797D01*
X11202Y-11945D01*
X11395Y-12025D01*
X11604Y-12025D01*
X11797Y-11945D01*
X11945Y-11798D01*
X12000Y-11664D01*
X12055Y-11797D01*
X12202Y-11945D01*
X12395Y-12025D01*
X12604Y-12025D01*
X12797Y-11945D01*
X12945Y-11798D01*
X13000Y-11664D01*
X13055Y-11797D01*
X13202Y-11945D01*
X13395Y-12025D01*
X13604Y-12025D01*
X13797Y-11945D01*
X13945Y-11798D01*
X14000Y-11664D01*
X14055Y-11797D01*
X14202Y-11945D01*
X14395Y-12025D01*
X14604Y-12025D01*
X14797Y-11945D01*
X14945Y-11798D01*
X15025Y-11605D01*
X15025Y-11396D01*
X14945Y-11203D01*
X14798Y-11055D01*
X14790Y-11051D01*
X14790Y-10000D01*
X14768Y-09889D01*
X14705Y-09795D01*
X14205Y-09295D01*
X14111Y-09232D01*
X14000Y-09210D01*
X12622Y-09210D01*
X12675Y-09085D01*
X12675Y-08916D01*
X12611Y-08760D01*
X12491Y-08640D01*
X12335Y-08575D01*
X12166Y-08575D01*
X12010Y-08639D01*
X11890Y-08759D01*
X11825Y-08915D01*
X11825Y-09015D01*
X11595Y-09244D01*
X11491Y-09140D01*
X11335Y-09075D01*
X11166Y-09075D01*
X11010Y-09139D01*
X10890Y-09259D01*
X10825Y-09415D01*
X10825Y-09584D01*
X10889Y-09740D01*
X10960Y-09811D01*
X10960Y-09926D01*
X10900Y-09901D01*
X10801Y-09901D01*
X10601Y-09901D01*
X10509Y-09939D01*
X10500Y-09948D01*
X10491Y-09939D01*
X10400Y-09901D01*
X10301Y-09901D01*
X10101Y-09901D01*
X10009Y-09939D01*
X10000Y-09948D01*
X09991Y-09939D01*
X09900Y-09901D01*
X09801Y-09901D01*
X09601Y-09901D01*
X09509Y-09939D01*
X09500Y-09948D01*
X09491Y-09939D01*
X09400Y-09901D01*
X09301Y-09901D01*
X09101Y-09901D01*
X09040Y-09926D01*
X09040Y-09811D01*
X09110Y-09741D01*
X09175Y-09585D01*
X09175Y-09416D01*
X09111Y-09260D01*
X08991Y-09140D01*
X08835Y-09075D01*
X08666Y-09075D01*
X08510Y-09139D01*
X08404Y-09244D01*
X08175Y-09015D01*
X08175Y-08916D01*
X08111Y-08760D01*
X07991Y-08640D01*
X07835Y-08575D01*
X07666Y-08575D01*
X07510Y-08639D01*
X07390Y-08759D01*
X07325Y-08915D01*
X07325Y-09084D01*
X07376Y-09210D01*
X06000Y-09210D01*
X05889Y-09232D01*
X05795Y-09295D01*
X05295Y-09795D01*
X05232Y-09889D01*
X05210Y-10000D01*
X05210Y-10976D01*
X05176Y-10976D01*
X05084Y-11014D01*
X05049Y-11049D01*
X05049Y-05951D01*
X05084Y-05986D01*
X05175Y-06024D01*
X05210Y-06024D01*
X05210Y-07000D01*
X05232Y-07111D01*
X05295Y-07205D01*
X05795Y-07705D01*
X05889Y-07768D01*
X06000Y-07790D01*
X07377Y-07790D01*
X07325Y-07915D01*
X07325Y-08084D01*
X07389Y-08240D01*
X07509Y-08360D01*
X07665Y-08425D01*
X07834Y-08425D01*
X07990Y-08361D01*
X08110Y-08241D01*
X08175Y-08085D01*
X08175Y-07985D01*
X08404Y-07755D01*
X08509Y-07860D01*
X08665Y-07925D01*
X08834Y-07925D01*
X08990Y-07861D01*
X09110Y-07741D01*
X09175Y-07585D01*
X09175Y-07416D01*
X09111Y-07260D01*
X09040Y-07189D01*
X09040Y-07073D01*
X09100Y-07099D01*
X09199Y-07099D01*
X09399Y-07099D01*
X09491Y-07061D01*
X09500Y-07052D01*
X09509Y-07061D01*
X09600Y-07099D01*
X09699Y-07099D01*
X09899Y-07099D01*
X09991Y-07061D01*
X10000Y-07052D01*
X10009Y-07061D01*
X10100Y-07099D01*
X10199Y-07099D01*
X10399Y-07099D01*
X10491Y-07061D01*
X10500Y-07052D01*
X10509Y-07061D01*
X10600Y-07099D01*
X10699Y-07099D01*
X10899Y-07099D01*
X10960Y-07073D01*
X10960Y-07189D01*
X10890Y-07259D01*
X10825Y-07415D01*
X10825Y-07584D01*
X10889Y-07740D01*
X11009Y-07860D01*
X11165Y-07925D01*
X11334Y-07925D01*
X11490Y-07861D01*
X11595Y-07755D01*
X11825Y-07985D01*
X11825Y-08084D01*
X11889Y-08240D01*
X12009Y-08360D01*
X12165Y-08425D01*
X12334Y-08425D01*
X12490Y-08361D01*
X12610Y-08241D01*
X12675Y-08085D01*
X12675Y-07916D01*
X12623Y-07790D01*
X14000Y-07790D01*
X14111Y-07768D01*
X14205Y-07705D01*
X14705Y-07205D01*
X14768Y-07111D01*
X14790Y-07000D01*
X14790Y-05947D01*
X14797Y-05945D01*
X14945Y-05798D01*
X15025Y-05605D01*
X15025Y-05396D01*
X14945Y-05203D01*
X14798Y-05055D01*
X14783Y-05049D01*
X17217Y-05049D01*
X17203Y-05055D01*
X17055Y-05202D01*
X16975Y-05395D01*
X16975Y-05604D01*
X17055Y-05797D01*
X17202Y-05945D01*
X17335Y-06000D01*
X17203Y-06055D01*
X17055Y-06202D01*
X16975Y-06395D01*
X16975Y-06604D01*
X17055Y-06797D01*
X17202Y-06945D01*
X17335Y-07000D01*
X17203Y-07055D01*
X17055Y-07202D01*
X16975Y-07395D01*
X16975Y-07604D01*
X17055Y-07797D01*
X17202Y-07945D01*
X17335Y-08000D01*
X17203Y-08055D01*
X17055Y-08202D01*
X16975Y-08395D01*
X16975Y-08604D01*
X17055Y-08797D01*
X17202Y-08945D01*
X17335Y-09000D01*
X17203Y-09055D01*
X17055Y-09202D01*
X16975Y-09395D01*
X16975Y-09604D01*
X17055Y-09797D01*
X17202Y-09945D01*
X17335Y-10000D01*
X17203Y-10055D01*
X17055Y-10202D01*
X16975Y-10395D01*
X16975Y-10604D01*
X17055Y-10797D01*
X17202Y-10945D01*
X17335Y-11000D01*
X17203Y-11055D01*
X17055Y-11202D01*
X16975Y-11395D01*
X16975Y-11604D01*
X17055Y-11797D01*
X17202Y-11945D01*
X17335Y-12000D01*
X17203Y-12055D01*
X17055Y-12202D01*
X16975Y-12395D01*
X16975Y-12604D01*
X17055Y-12797D01*
X17202Y-12945D01*
X17335Y-13000D01*
X17203Y-13055D01*
X17055Y-13202D01*
X16975Y-13395D01*
X16975Y-13604D01*
X17055Y-13797D01*
X17202Y-13945D01*
X17276Y-13976D01*
X17176Y-13976D01*
X17084Y-14014D01*
X17014Y-14084D01*
X16976Y-14175D01*
X16976Y-14274D01*
X16976Y-14824D01*
X17014Y-14916D01*
X17084Y-14986D01*
X17175Y-15024D01*
X17274Y-15024D01*
X17824Y-15024D01*
X17916Y-14986D01*
X17986Y-14916D01*
X18024Y-14825D01*
X18024Y-14790D01*
X19000Y-14790D01*
X19111Y-14768D01*
X19205Y-14705D01*
X19705Y-14205D01*
X19768Y-14111D01*
X19790Y-14000D01*
X19790Y-12622D01*
X19915Y-12675D01*
X20084Y-12675D01*
X20240Y-12611D01*
X20360Y-12491D01*
X20425Y-12335D01*
X20425Y-12166D01*
X20361Y-12010D01*
X20241Y-11890D01*
X20085Y-11825D01*
X19985Y-11825D01*
X19755Y-11595D01*
X19860Y-11491D01*
X19925Y-11335D01*
X19925Y-11166D01*
X19861Y-11010D01*
X19741Y-10890D01*
X19585Y-10825D01*
X19416Y-10825D01*
X19260Y-10889D01*
X19189Y-10960D01*
X19073Y-10960D01*
X19099Y-10900D01*
X19099Y-10801D01*
X19099Y-10601D01*
X19061Y-10509D01*
X19052Y-10500D01*
X19061Y-10491D01*
X19099Y-10400D01*
X19099Y-10301D01*
X19099Y-10101D01*
X19061Y-10009D01*
X19052Y-10000D01*
X19061Y-09991D01*
X19099Y-09900D01*
X19099Y-09801D01*
X19099Y-09601D01*
X19061Y-09509D01*
X19052Y-09500D01*
X19061Y-09491D01*
X19099Y-09400D01*
X19099Y-09301D01*
X19099Y-09101D01*
X19073Y-09040D01*
X19189Y-09040D01*
X19259Y-09110D01*
X19415Y-09175D01*
X19584Y-09175D01*
X19740Y-09111D01*
X19860Y-08991D01*
X19925Y-08835D01*
X19925Y-08666D01*
X19861Y-08510D01*
X19755Y-08404D01*
X19985Y-08175D01*
X20084Y-08175D01*
X20240Y-08111D01*
X20360Y-07991D01*
X20425Y-07835D01*
X20425Y-07666D01*
X20361Y-07510D01*
X20241Y-07390D01*
X20085Y-07325D01*
X19916Y-07325D01*
X19790Y-07376D01*
X19790Y-06000D01*
X19768Y-05889D01*
X19705Y-05795D01*
X19205Y-05295D01*
X19111Y-05232D01*
X19000Y-05210D01*
X17947Y-05210D01*
X17945Y-05203D01*
X17798Y-05055D01*
X17783Y-05049D01*
X23217Y-05049D01*
X23203Y-05055D01*
X23055Y-05202D01*
X23051Y-05210D01*
X22000Y-05210D01*
X21889Y-05232D01*
X21795Y-05295D01*
X21295Y-05795D01*
X21232Y-05889D01*
X21210Y-06000D01*
X21210Y-07377D01*
X21085Y-07325D01*
X20916Y-07325D01*
X20760Y-07389D01*
X20640Y-07509D01*
X20575Y-07665D01*
X20575Y-07834D01*
X20639Y-07990D01*
X20759Y-08110D01*
X20915Y-08175D01*
X21015Y-08175D01*
X21244Y-08404D01*
X21140Y-08509D01*
X21075Y-08665D01*
X21075Y-08834D01*
X21139Y-08990D01*
X21259Y-09110D01*
X21415Y-09175D01*
X21584Y-09175D01*
X21740Y-09111D01*
X21811Y-09040D01*
X21926Y-09040D01*
X21901Y-09100D01*
X21901Y-09199D01*
X21901Y-09399D01*
X21939Y-09491D01*
X21948Y-09500D01*
X21939Y-09509D01*
X21901Y-09600D01*
X21901Y-09699D01*
X21901Y-09899D01*
X21939Y-09991D01*
X21948Y-10000D01*
X21939Y-10009D01*
X21901Y-10100D01*
X21901Y-10199D01*
X21901Y-10399D01*
X21939Y-10491D01*
X21948Y-10500D01*
X21939Y-10509D01*
X21901Y-10600D01*
X21901Y-10699D01*
X21901Y-10899D01*
X21926Y-10960D01*
X21811Y-10960D01*
X21741Y-10890D01*
X21585Y-10825D01*
X21416Y-10825D01*
X21260Y-10889D01*
X21140Y-11009D01*
X21075Y-11165D01*
X21075Y-11334D01*
X21139Y-11490D01*
X21244Y-11595D01*
X21015Y-11825D01*
X20916Y-11825D01*
X20760Y-11889D01*
X20640Y-12009D01*
X20575Y-12165D01*
X20575Y-12334D01*
X20639Y-12490D01*
X20759Y-12610D01*
X20915Y-12675D01*
X21084Y-12675D01*
X21210Y-12623D01*
X21210Y-14000D01*
X21232Y-14111D01*
X21295Y-14205D01*
X21795Y-14705D01*
X21889Y-14768D01*
X22000Y-14790D01*
X22976Y-14790D01*
X22976Y-14824D01*
X23014Y-14916D01*
X23084Y-14986D01*
X23175Y-15024D01*
X23274Y-15024D01*
X23824Y-15024D01*
X23916Y-14986D01*
X23986Y-14916D01*
X24024Y-14825D01*
X24024Y-14726D01*
X24024Y-14176D01*
X23986Y-14084D01*
X23916Y-14014D01*
X23825Y-13976D01*
X23726Y-13976D01*
X23722Y-13976D01*
X23797Y-13945D01*
X23945Y-13798D01*
X24025Y-13605D01*
X24025Y-13396D01*
X23945Y-13203D01*
X23798Y-13055D01*
X23664Y-12999D01*
X23797Y-12945D01*
X23945Y-12798D01*
X24025Y-12605D01*
X24025Y-12396D01*
X23945Y-12203D01*
X23798Y-12055D01*
X23664Y-11999D01*
X23797Y-11945D01*
X23945Y-11798D01*
X24025Y-11605D01*
X24025Y-11396D01*
X23945Y-11203D01*
X23798Y-11055D01*
X23664Y-10999D01*
X23797Y-10945D01*
X23945Y-10798D01*
X24025Y-10605D01*
X24025Y-10396D01*
X23945Y-10203D01*
X23798Y-10055D01*
X23664Y-09999D01*
X23797Y-09945D01*
X23945Y-09798D01*
X24025Y-09605D01*
X24025Y-09396D01*
X23945Y-09203D01*
X23798Y-09055D01*
X23664Y-08999D01*
X23797Y-08945D01*
X23945Y-08798D01*
X24025Y-08605D01*
X24025Y-08396D01*
X23945Y-08203D01*
X23798Y-08055D01*
X23664Y-07999D01*
X23797Y-07945D01*
X23945Y-07798D01*
X24025Y-07605D01*
X24025Y-07396D01*
X23945Y-07203D01*
X23798Y-07055D01*
X23664Y-06999D01*
X23797Y-06945D01*
X23945Y-06798D01*
X24025Y-06605D01*
X24025Y-06396D01*
X23945Y-06203D01*
X23798Y-06055D01*
X23664Y-05999D01*
X23797Y-05945D01*
X23945Y-05798D01*
X24025Y-05605D01*
X24025Y-05396D01*
X23945Y-05203D01*
X23798Y-05055D01*
X23783Y-05049D01*
X24084Y-05049D01*
X24084Y-24084D01*
X24084Y-24084D01*
G37*
G54D17*
X24084Y-24084D02*
X24025Y-24084D01*
X24025Y-23605D01*
X24025Y-23396D01*
X24025Y-17605D01*
X24025Y-17396D01*
X23945Y-17203D01*
X23798Y-17055D01*
X23605Y-16975D01*
X23396Y-16975D01*
X23203Y-17055D01*
X23055Y-17202D01*
X22999Y-17335D01*
X22945Y-17203D01*
X22798Y-17055D01*
X22605Y-16975D01*
X22396Y-16975D01*
X22203Y-17055D01*
X22055Y-17202D01*
X21999Y-17335D01*
X21945Y-17203D01*
X21798Y-17055D01*
X21605Y-16975D01*
X21396Y-16975D01*
X21203Y-17055D01*
X21055Y-17202D01*
X20999Y-17335D01*
X20945Y-17203D01*
X20798Y-17055D01*
X20605Y-16975D01*
X20396Y-16975D01*
X20203Y-17055D01*
X20055Y-17202D01*
X19999Y-17335D01*
X19945Y-17203D01*
X19798Y-17055D01*
X19605Y-16975D01*
X19396Y-16975D01*
X19203Y-17055D01*
X19055Y-17202D01*
X18999Y-17335D01*
X18945Y-17203D01*
X18798Y-17055D01*
X18605Y-16975D01*
X18396Y-16975D01*
X18203Y-17055D01*
X18055Y-17202D01*
X17999Y-17335D01*
X17945Y-17203D01*
X17798Y-17055D01*
X17605Y-16975D01*
X17396Y-16975D01*
X17203Y-17055D01*
X17055Y-17202D01*
X16999Y-17335D01*
X16945Y-17203D01*
X16798Y-17055D01*
X16605Y-16975D01*
X16396Y-16975D01*
X16203Y-17055D01*
X16055Y-17202D01*
X15999Y-17335D01*
X15945Y-17203D01*
X15798Y-17055D01*
X15605Y-16975D01*
X15396Y-16975D01*
X15203Y-17055D01*
X15055Y-17202D01*
X15024Y-17276D01*
X15024Y-17176D01*
X14986Y-17084D01*
X14916Y-17014D01*
X14825Y-16976D01*
X14726Y-16976D01*
X14176Y-16976D01*
X14084Y-17014D01*
X14014Y-17084D01*
X13976Y-17175D01*
X13976Y-17274D01*
X13976Y-17824D01*
X14014Y-17916D01*
X14084Y-17986D01*
X14175Y-18024D01*
X14210Y-18024D01*
X14210Y-19000D01*
X14232Y-19111D01*
X14295Y-19205D01*
X14795Y-19705D01*
X14889Y-19768D01*
X15000Y-19790D01*
X16377Y-19790D01*
X16325Y-19915D01*
X16325Y-20084D01*
X16389Y-20240D01*
X16509Y-20360D01*
X16665Y-20425D01*
X16834Y-20425D01*
X16990Y-20361D01*
X17110Y-20241D01*
X17175Y-20085D01*
X17175Y-19985D01*
X17404Y-19755D01*
X17509Y-19860D01*
X17665Y-19925D01*
X17834Y-19925D01*
X17990Y-19861D01*
X18110Y-19741D01*
X18175Y-19585D01*
X18175Y-19416D01*
X18111Y-19260D01*
X18040Y-19189D01*
X18040Y-19073D01*
X18100Y-19099D01*
X18199Y-19099D01*
X18399Y-19099D01*
X18491Y-19061D01*
X18500Y-19052D01*
X18509Y-19061D01*
X18600Y-19099D01*
X18699Y-19099D01*
X18899Y-19099D01*
X18991Y-19061D01*
X19000Y-19052D01*
X19009Y-19061D01*
X19100Y-19099D01*
X19199Y-19099D01*
X19399Y-19099D01*
X19491Y-19061D01*
X19500Y-19052D01*
X19509Y-19061D01*
X19600Y-19099D01*
X19699Y-19099D01*
X19899Y-19099D01*
X19960Y-19073D01*
X19960Y-19189D01*
X19890Y-19259D01*
X19825Y-19415D01*
X19825Y-19584D01*
X19889Y-19740D01*
X20009Y-19860D01*
X20165Y-19925D01*
X20334Y-19925D01*
X20490Y-19861D01*
X20595Y-19755D01*
X20825Y-19985D01*
X20825Y-20084D01*
X20889Y-20240D01*
X21009Y-20360D01*
X21165Y-20425D01*
X21334Y-20425D01*
X21490Y-20361D01*
X21610Y-20241D01*
X21675Y-20085D01*
X21675Y-19916D01*
X21623Y-19790D01*
X23000Y-19790D01*
X23111Y-19768D01*
X23205Y-19705D01*
X23705Y-19205D01*
X23768Y-19111D01*
X23790Y-19000D01*
X23790Y-17947D01*
X23797Y-17945D01*
X23945Y-17798D01*
X24025Y-17605D01*
X24025Y-23396D01*
X23945Y-23203D01*
X23798Y-23055D01*
X23790Y-23051D01*
X23790Y-22000D01*
X23768Y-21889D01*
X23705Y-21795D01*
X23205Y-21295D01*
X23111Y-21232D01*
X23000Y-21210D01*
X21622Y-21210D01*
X21675Y-21085D01*
X21675Y-20916D01*
X21611Y-20760D01*
X21491Y-20640D01*
X21335Y-20575D01*
X21166Y-20575D01*
X21010Y-20639D01*
X20890Y-20759D01*
X20825Y-20915D01*
X20825Y-21015D01*
X20595Y-21244D01*
X20491Y-21140D01*
X20335Y-21075D01*
X20166Y-21075D01*
X20010Y-21139D01*
X19890Y-21259D01*
X19825Y-21415D01*
X19825Y-21584D01*
X19889Y-21740D01*
X19960Y-21811D01*
X19960Y-21926D01*
X19900Y-21901D01*
X19801Y-21901D01*
X19601Y-21901D01*
X19509Y-21939D01*
X19500Y-21948D01*
X19491Y-21939D01*
X19400Y-21901D01*
X19301Y-21901D01*
X19101Y-21901D01*
X19009Y-21939D01*
X19000Y-21948D01*
X18991Y-21939D01*
X18900Y-21901D01*
X18801Y-21901D01*
X18601Y-21901D01*
X18509Y-21939D01*
X18500Y-21948D01*
X18491Y-21939D01*
X18400Y-21901D01*
X18301Y-21901D01*
X18101Y-21901D01*
X18040Y-21926D01*
X18040Y-21811D01*
X18110Y-21741D01*
X18175Y-21585D01*
X18175Y-21416D01*
X18111Y-21260D01*
X17991Y-21140D01*
X17835Y-21075D01*
X17666Y-21075D01*
X17510Y-21139D01*
X17404Y-21244D01*
X17175Y-21015D01*
X17175Y-20916D01*
X17111Y-20760D01*
X16991Y-20640D01*
X16835Y-20575D01*
X16666Y-20575D01*
X16510Y-20639D01*
X16390Y-20759D01*
X16325Y-20915D01*
X16325Y-21084D01*
X16376Y-21210D01*
X15000Y-21210D01*
X14889Y-21232D01*
X14795Y-21295D01*
X14295Y-21795D01*
X14232Y-21889D01*
X14210Y-22000D01*
X14210Y-22976D01*
X14176Y-22976D01*
X14084Y-23014D01*
X14014Y-23084D01*
X13976Y-23175D01*
X13976Y-23274D01*
X13976Y-23824D01*
X14014Y-23916D01*
X14084Y-23986D01*
X14175Y-24024D01*
X14274Y-24024D01*
X14824Y-24024D01*
X14916Y-23986D01*
X14986Y-23916D01*
X15024Y-23825D01*
X15024Y-23726D01*
X15024Y-23722D01*
X15055Y-23797D01*
X15202Y-23945D01*
X15395Y-24025D01*
X15604Y-24025D01*
X15797Y-23945D01*
X15945Y-23798D01*
X16000Y-23664D01*
X16055Y-23797D01*
X16202Y-23945D01*
X16395Y-24025D01*
X16604Y-24025D01*
X16797Y-23945D01*
X16945Y-23798D01*
X17000Y-23664D01*
X17055Y-23797D01*
X17202Y-23945D01*
X17395Y-24025D01*
X17604Y-24025D01*
X17797Y-23945D01*
X17945Y-23798D01*
X18000Y-23664D01*
X18055Y-23797D01*
X18202Y-23945D01*
X18395Y-24025D01*
X18604Y-24025D01*
X18797Y-23945D01*
X18945Y-23798D01*
X19000Y-23664D01*
X19055Y-23797D01*
X19202Y-23945D01*
X19395Y-24025D01*
X19604Y-24025D01*
X19797Y-23945D01*
X19945Y-23798D01*
X20000Y-23664D01*
X20055Y-23797D01*
X20202Y-23945D01*
X20395Y-24025D01*
X20604Y-24025D01*
X20797Y-23945D01*
X20945Y-23798D01*
X21000Y-23664D01*
X21055Y-23797D01*
X21202Y-23945D01*
X21395Y-24025D01*
X21604Y-24025D01*
X21797Y-23945D01*
X21945Y-23798D01*
X22000Y-23664D01*
X22055Y-23797D01*
X22202Y-23945D01*
X22395Y-24025D01*
X22604Y-24025D01*
X22797Y-23945D01*
X22945Y-23798D01*
X23000Y-23664D01*
X23055Y-23797D01*
X23202Y-23945D01*
X23395Y-24025D01*
X23604Y-24025D01*
X23797Y-23945D01*
X23945Y-23798D01*
X24025Y-23605D01*
X24025Y-24084D01*
X12025Y-24084D01*
X12025Y-22605D01*
X12025Y-22396D01*
X11945Y-22203D01*
X11798Y-22055D01*
X11664Y-21999D01*
X11797Y-21945D01*
X11945Y-21798D01*
X12025Y-21605D01*
X12025Y-21396D01*
X11945Y-21203D01*
X11798Y-21055D01*
X11664Y-20999D01*
X11797Y-20945D01*
X11945Y-20798D01*
X12025Y-20605D01*
X12025Y-20396D01*
X11945Y-20203D01*
X11798Y-20055D01*
X11664Y-19999D01*
X11797Y-19945D01*
X11945Y-19798D01*
X12025Y-19605D01*
X12025Y-19396D01*
X11945Y-19203D01*
X11798Y-19055D01*
X11664Y-18999D01*
X11797Y-18945D01*
X11945Y-18798D01*
X12025Y-18605D01*
X12025Y-18396D01*
X11945Y-18203D01*
X11798Y-18055D01*
X11664Y-17999D01*
X11797Y-17945D01*
X11945Y-17798D01*
X12025Y-17605D01*
X12025Y-17396D01*
X11945Y-17203D01*
X11798Y-17055D01*
X11664Y-16999D01*
X11797Y-16945D01*
X11945Y-16798D01*
X12025Y-16605D01*
X12025Y-16396D01*
X11945Y-16203D01*
X11798Y-16055D01*
X11664Y-15999D01*
X11797Y-15945D01*
X11945Y-15798D01*
X12025Y-15605D01*
X12025Y-15396D01*
X11945Y-15203D01*
X11798Y-15055D01*
X11664Y-14999D01*
X11797Y-14945D01*
X11945Y-14798D01*
X12025Y-14605D01*
X12025Y-14396D01*
X11945Y-14203D01*
X11798Y-14055D01*
X11605Y-13975D01*
X11396Y-13975D01*
X11203Y-14055D01*
X11055Y-14202D01*
X11051Y-14210D01*
X10000Y-14210D01*
X09889Y-14232D01*
X09795Y-14295D01*
X09295Y-14795D01*
X09232Y-14889D01*
X09210Y-15000D01*
X09210Y-16377D01*
X09085Y-16325D01*
X08916Y-16325D01*
X08760Y-16389D01*
X08640Y-16509D01*
X08575Y-16665D01*
X08575Y-16834D01*
X08639Y-16990D01*
X08759Y-17110D01*
X08915Y-17175D01*
X09015Y-17175D01*
X09244Y-17404D01*
X09140Y-17509D01*
X09075Y-17665D01*
X09075Y-17834D01*
X09139Y-17990D01*
X09259Y-18110D01*
X09415Y-18175D01*
X09584Y-18175D01*
X09740Y-18111D01*
X09811Y-18040D01*
X09926Y-18040D01*
X09901Y-18100D01*
X09901Y-18199D01*
X09901Y-18399D01*
X09939Y-18491D01*
X09948Y-18500D01*
X09939Y-18509D01*
X09901Y-18600D01*
X09901Y-18699D01*
X09901Y-18899D01*
X09939Y-18991D01*
X09948Y-19000D01*
X09939Y-19009D01*
X09901Y-19100D01*
X09901Y-19199D01*
X09901Y-19399D01*
X09939Y-19491D01*
X09948Y-19500D01*
X09939Y-19509D01*
X09901Y-19600D01*
X09901Y-19699D01*
X09901Y-19899D01*
X09926Y-19960D01*
X09811Y-19960D01*
X09741Y-19890D01*
X09585Y-19825D01*
X09416Y-19825D01*
X09260Y-19889D01*
X09140Y-20009D01*
X09075Y-20165D01*
X09075Y-20334D01*
X09139Y-20490D01*
X09244Y-20595D01*
X09015Y-20825D01*
X08916Y-20825D01*
X08760Y-20889D01*
X08640Y-21009D01*
X08575Y-21165D01*
X08575Y-21334D01*
X08639Y-21490D01*
X08759Y-21610D01*
X08915Y-21675D01*
X09084Y-21675D01*
X09210Y-21623D01*
X09210Y-23000D01*
X09232Y-23111D01*
X09295Y-23205D01*
X09795Y-23705D01*
X09889Y-23768D01*
X10000Y-23790D01*
X10976Y-23790D01*
X10976Y-23824D01*
X11014Y-23916D01*
X11084Y-23986D01*
X11175Y-24024D01*
X11274Y-24024D01*
X11824Y-24024D01*
X11916Y-23986D01*
X11986Y-23916D01*
X12024Y-23825D01*
X12024Y-23726D01*
X12024Y-23176D01*
X11986Y-23084D01*
X11916Y-23014D01*
X11825Y-22976D01*
X11726Y-22976D01*
X11722Y-22976D01*
X11797Y-22945D01*
X11945Y-22798D01*
X12025Y-22605D01*
X12025Y-24084D01*
X05049Y-24084D01*
X05049Y-23951D01*
X05084Y-23986D01*
X05175Y-24024D01*
X05274Y-24024D01*
X05824Y-24024D01*
X05916Y-23986D01*
X05986Y-23916D01*
X06024Y-23825D01*
X06024Y-23790D01*
X07000Y-23790D01*
X07111Y-23768D01*
X07205Y-23705D01*
X07705Y-23205D01*
X07768Y-23111D01*
X07790Y-23000D01*
X07790Y-21622D01*
X07915Y-21675D01*
X08084Y-21675D01*
X08240Y-21611D01*
X08360Y-21491D01*
X08425Y-21335D01*
X08425Y-21166D01*
X08361Y-21010D01*
X08241Y-20890D01*
X08085Y-20825D01*
X07985Y-20825D01*
X07755Y-20595D01*
X07860Y-20491D01*
X07925Y-20335D01*
X07925Y-20166D01*
X07861Y-20010D01*
X07741Y-19890D01*
X07585Y-19825D01*
X07416Y-19825D01*
X07260Y-19889D01*
X07189Y-19960D01*
X07073Y-19960D01*
X07099Y-19900D01*
X07099Y-19801D01*
X07099Y-19601D01*
X07061Y-19509D01*
X07052Y-19500D01*
X07061Y-19491D01*
X07099Y-19400D01*
X07099Y-19301D01*
X07099Y-19101D01*
X07061Y-19009D01*
X07052Y-19000D01*
X07061Y-18991D01*
X07099Y-18900D01*
X07099Y-18801D01*
X07099Y-18601D01*
X07061Y-18509D01*
X07052Y-18500D01*
X07061Y-18491D01*
X07099Y-18400D01*
X07099Y-18301D01*
X07099Y-18101D01*
X07073Y-18040D01*
X07189Y-18040D01*
X07259Y-18110D01*
X07415Y-18175D01*
X07584Y-18175D01*
X07740Y-18111D01*
X07860Y-17991D01*
X07925Y-17835D01*
X07925Y-17666D01*
X07861Y-17510D01*
X07755Y-17404D01*
X07985Y-17175D01*
X08084Y-17175D01*
X08240Y-17111D01*
X08360Y-16991D01*
X08425Y-16835D01*
X08425Y-16666D01*
X08361Y-16510D01*
X08241Y-16390D01*
X08085Y-16325D01*
X07916Y-16325D01*
X07790Y-16376D01*
X07790Y-15000D01*
X07768Y-14889D01*
X07705Y-14795D01*
X07205Y-14295D01*
X07111Y-14232D01*
X07000Y-14210D01*
X05947Y-14210D01*
X05945Y-14203D01*
X05798Y-14055D01*
X05605Y-13975D01*
X05396Y-13975D01*
X05203Y-14055D01*
X05055Y-14202D01*
X05049Y-14216D01*
X05049Y-11951D01*
X05084Y-11986D01*
X05175Y-12024D01*
X05274Y-12024D01*
X05824Y-12024D01*
X05916Y-11986D01*
X05986Y-11916D01*
X06024Y-11825D01*
X06024Y-11726D01*
X06024Y-11722D01*
X06055Y-11797D01*
X06202Y-11945D01*
X06395Y-12025D01*
X06604Y-12025D01*
X06797Y-11945D01*
X06945Y-11798D01*
X07000Y-11664D01*
X07055Y-11797D01*
X07202Y-11945D01*
X07395Y-12025D01*
X07604Y-12025D01*
X07797Y-11945D01*
X07945Y-11798D01*
X08000Y-11664D01*
X08055Y-11797D01*
X08202Y-11945D01*
X08395Y-12025D01*
X08604Y-12025D01*
X08797Y-11945D01*
X08945Y-11798D01*
X09000Y-11664D01*
X09055Y-11797D01*
X09202Y-11945D01*
X09395Y-12025D01*
X09604Y-12025D01*
X09797Y-11945D01*
X09945Y-11798D01*
X10000Y-11664D01*
X10055Y-11797D01*
X10202Y-11945D01*
X10395Y-12025D01*
X10604Y-12025D01*
X10797Y-11945D01*
X10945Y-11798D01*
X11000Y-11664D01*
X11055Y-11797D01*
X11202Y-11945D01*
X11395Y-12025D01*
X11604Y-12025D01*
X11797Y-11945D01*
X11945Y-11798D01*
X12000Y-11664D01*
X12055Y-11797D01*
X12202Y-11945D01*
X12395Y-12025D01*
X12604Y-12025D01*
X12797Y-11945D01*
X12945Y-11798D01*
X13000Y-11664D01*
X13055Y-11797D01*
X13202Y-11945D01*
X13395Y-12025D01*
X13604Y-12025D01*
X13797Y-11945D01*
X13945Y-11798D01*
X14000Y-11664D01*
X14055Y-11797D01*
X14202Y-11945D01*
X14395Y-12025D01*
X14604Y-12025D01*
X14797Y-11945D01*
X14945Y-11798D01*
X15025Y-11605D01*
X15025Y-11396D01*
X14945Y-11203D01*
X14798Y-11055D01*
X14790Y-11051D01*
X14790Y-10000D01*
X14768Y-09889D01*
X14705Y-09795D01*
X14205Y-09295D01*
X14111Y-09232D01*
X14000Y-09210D01*
X12622Y-09210D01*
X12675Y-09085D01*
X12675Y-08916D01*
X12611Y-08760D01*
X12491Y-08640D01*
X12335Y-08575D01*
X12166Y-08575D01*
X12010Y-08639D01*
X11890Y-08759D01*
X11825Y-08915D01*
X11825Y-09015D01*
X11595Y-09244D01*
X11491Y-09140D01*
X11335Y-09075D01*
X11166Y-09075D01*
X11010Y-09139D01*
X10890Y-09259D01*
X10825Y-09415D01*
X10825Y-09584D01*
X10889Y-09740D01*
X10960Y-09811D01*
X10960Y-09926D01*
X10900Y-09901D01*
X10801Y-09901D01*
X10601Y-09901D01*
X10509Y-09939D01*
X10500Y-09948D01*
X10491Y-09939D01*
X10400Y-09901D01*
X10301Y-09901D01*
X10101Y-09901D01*
X10009Y-09939D01*
X10000Y-09948D01*
X09991Y-09939D01*
X09900Y-09901D01*
X09801Y-09901D01*
X09601Y-09901D01*
X09509Y-09939D01*
X09500Y-09948D01*
X09491Y-09939D01*
X09400Y-09901D01*
X09301Y-09901D01*
X09101Y-09901D01*
X09040Y-09926D01*
X09040Y-09811D01*
X09110Y-09741D01*
X09175Y-09585D01*
X09175Y-09416D01*
X09111Y-09260D01*
X08991Y-09140D01*
X08835Y-09075D01*
X08666Y-09075D01*
X08510Y-09139D01*
X08404Y-09244D01*
X08175Y-09015D01*
X08175Y-08916D01*
X08111Y-08760D01*
X07991Y-08640D01*
X07835Y-08575D01*
X07666Y-08575D01*
X07510Y-08639D01*
X07390Y-08759D01*
X07325Y-08915D01*
X07325Y-09084D01*
X07376Y-09210D01*
X06000Y-09210D01*
X05889Y-09232D01*
X05795Y-09295D01*
X05295Y-09795D01*
X05232Y-09889D01*
X05210Y-10000D01*
X05210Y-10976D01*
X05176Y-10976D01*
X05084Y-11014D01*
X05049Y-11049D01*
X05049Y-05951D01*
X05084Y-05986D01*
X05175Y-06024D01*
X05210Y-06024D01*
X05210Y-07000D01*
X05232Y-07111D01*
X05295Y-07205D01*
X05795Y-07705D01*
X05889Y-07768D01*
X06000Y-07790D01*
X07377Y-07790D01*
X07325Y-07915D01*
X07325Y-08084D01*
X07389Y-08240D01*
X07509Y-08360D01*
X07665Y-08425D01*
X07834Y-08425D01*
X07990Y-08361D01*
X08110Y-08241D01*
X08175Y-08085D01*
X08175Y-07985D01*
X08404Y-07755D01*
X08509Y-07860D01*
X08665Y-07925D01*
X08834Y-07925D01*
X08990Y-07861D01*
X09110Y-07741D01*
X09175Y-07585D01*
X09175Y-07416D01*
X09111Y-07260D01*
X09040Y-07189D01*
X09040Y-07073D01*
X09100Y-07099D01*
X09199Y-07099D01*
X09399Y-07099D01*
X09491Y-07061D01*
X09500Y-07052D01*
X09509Y-07061D01*
X09600Y-07099D01*
X09699Y-07099D01*
X09899Y-07099D01*
X09991Y-07061D01*
X10000Y-07052D01*
X10009Y-07061D01*
X10100Y-07099D01*
X10199Y-07099D01*
X10399Y-07099D01*
X10491Y-07061D01*
X10500Y-07052D01*
X10509Y-07061D01*
X10600Y-07099D01*
X10699Y-07099D01*
X10899Y-07099D01*
X10960Y-07073D01*
X10960Y-07189D01*
X10890Y-07259D01*
X10825Y-07415D01*
X10825Y-07584D01*
X10889Y-07740D01*
X11009Y-07860D01*
X11165Y-07925D01*
X11334Y-07925D01*
X11490Y-07861D01*
X11595Y-07755D01*
X11825Y-07985D01*
X11825Y-08084D01*
X11889Y-08240D01*
X12009Y-08360D01*
X12165Y-08425D01*
X12334Y-08425D01*
X12490Y-08361D01*
X12610Y-08241D01*
X12675Y-08085D01*
X12675Y-07916D01*
X12623Y-07790D01*
X14000Y-07790D01*
X14111Y-07768D01*
X14205Y-07705D01*
X14705Y-07205D01*
X14768Y-07111D01*
X14790Y-07000D01*
X14790Y-05947D01*
X14797Y-05945D01*
X14945Y-05798D01*
X15025Y-05605D01*
X15025Y-05396D01*
X14945Y-05203D01*
X14798Y-05055D01*
X14783Y-05049D01*
X17217Y-05049D01*
X17203Y-05055D01*
X17055Y-05202D01*
X16975Y-05395D01*
X16975Y-05604D01*
X17055Y-05797D01*
X17202Y-05945D01*
X17335Y-06000D01*
X17203Y-06055D01*
X17055Y-06202D01*
X16975Y-06395D01*
X16975Y-06604D01*
X17055Y-06797D01*
X17202Y-06945D01*
X17335Y-07000D01*
X17203Y-07055D01*
X17055Y-07202D01*
X16975Y-07395D01*
X16975Y-07604D01*
X17055Y-07797D01*
X17202Y-07945D01*
X17335Y-08000D01*
X17203Y-08055D01*
X17055Y-08202D01*
X16975Y-08395D01*
X16975Y-08604D01*
X17055Y-08797D01*
X17202Y-08945D01*
X17335Y-09000D01*
X17203Y-09055D01*
X17055Y-09202D01*
X16975Y-09395D01*
X16975Y-09604D01*
X17055Y-09797D01*
X17202Y-09945D01*
X17335Y-10000D01*
X17203Y-10055D01*
X17055Y-10202D01*
X16975Y-10395D01*
X16975Y-10604D01*
X17055Y-10797D01*
X17202Y-10945D01*
X17335Y-11000D01*
X17203Y-11055D01*
X17055Y-11202D01*
X16975Y-11395D01*
X16975Y-11604D01*
X17055Y-11797D01*
X17202Y-11945D01*
X17335Y-12000D01*
X17203Y-12055D01*
X17055Y-12202D01*
X16975Y-12395D01*
X16975Y-12604D01*
X17055Y-12797D01*
X17202Y-12945D01*
X17335Y-13000D01*
X17203Y-13055D01*
X17055Y-13202D01*
X16975Y-13395D01*
X16975Y-13604D01*
X17055Y-13797D01*
X17202Y-13945D01*
X17276Y-13976D01*
X17176Y-13976D01*
X17084Y-14014D01*
X17014Y-14084D01*
X16976Y-14175D01*
X16976Y-14274D01*
X16976Y-14824D01*
X17014Y-14916D01*
X17084Y-14986D01*
X17175Y-15024D01*
X17274Y-15024D01*
X17824Y-15024D01*
X17916Y-14986D01*
X17986Y-14916D01*
X18024Y-14825D01*
X18024Y-14790D01*
X19000Y-14790D01*
X19111Y-14768D01*
X19205Y-14705D01*
X19705Y-14205D01*
X19768Y-14111D01*
X19790Y-14000D01*
X19790Y-12622D01*
X19915Y-12675D01*
X20084Y-12675D01*
X20240Y-12611D01*
X20360Y-12491D01*
X20425Y-12335D01*
X20425Y-12166D01*
X20361Y-12010D01*
X20241Y-11890D01*
X20085Y-11825D01*
X19985Y-11825D01*
X19755Y-11595D01*
X19860Y-11491D01*
X19925Y-11335D01*
X19925Y-11166D01*
X19861Y-11010D01*
X19741Y-10890D01*
X19585Y-10825D01*
X19416Y-10825D01*
X19260Y-10889D01*
X19189Y-10960D01*
X19073Y-10960D01*
X19099Y-10900D01*
X19099Y-10801D01*
X19099Y-10601D01*
X19061Y-10509D01*
X19052Y-10500D01*
X19061Y-10491D01*
X19099Y-10400D01*
X19099Y-10301D01*
X19099Y-10101D01*
X19061Y-10009D01*
X19052Y-10000D01*
X19061Y-09991D01*
X19099Y-09900D01*
X19099Y-09801D01*
X19099Y-09601D01*
X19061Y-09509D01*
X19052Y-09500D01*
X19061Y-09491D01*
X19099Y-09400D01*
X19099Y-09301D01*
X19099Y-09101D01*
X19073Y-09040D01*
X19189Y-09040D01*
X19259Y-09110D01*
X19415Y-09175D01*
X19584Y-09175D01*
X19740Y-09111D01*
X19860Y-08991D01*
X19925Y-08835D01*
X19925Y-08666D01*
X19861Y-08510D01*
X19755Y-08404D01*
X19985Y-08175D01*
X20084Y-08175D01*
X20240Y-08111D01*
X20360Y-07991D01*
X20425Y-07835D01*
X20425Y-07666D01*
X20361Y-07510D01*
X20241Y-07390D01*
X20085Y-07325D01*
X19916Y-07325D01*
X19790Y-07376D01*
X19790Y-06000D01*
X19768Y-05889D01*
X19705Y-05795D01*
X19205Y-05295D01*
X19111Y-05232D01*
X19000Y-05210D01*
X17947Y-05210D01*
X17945Y-05203D01*
X17798Y-05055D01*
X17783Y-05049D01*
X23217Y-05049D01*
X23203Y-05055D01*
X23055Y-05202D01*
X23051Y-05210D01*
X22000Y-05210D01*
X21889Y-05232D01*
X21795Y-05295D01*
X21295Y-05795D01*
X21232Y-05889D01*
X21210Y-06000D01*
X21210Y-07377D01*
X21085Y-07325D01*
X20916Y-07325D01*
X20760Y-07389D01*
X20640Y-07509D01*
X20575Y-07665D01*
X20575Y-07834D01*
X20639Y-07990D01*
X20759Y-08110D01*
X20915Y-08175D01*
X21015Y-08175D01*
X21244Y-08404D01*
X21140Y-08509D01*
X21075Y-08665D01*
X21075Y-08834D01*
X21139Y-08990D01*
X21259Y-09110D01*
X21415Y-09175D01*
X21584Y-09175D01*
X21740Y-09111D01*
X21811Y-09040D01*
X21926Y-09040D01*
X21901Y-09100D01*
X21901Y-09199D01*
X21901Y-09399D01*
X21939Y-09491D01*
X21948Y-09500D01*
X21939Y-09509D01*
X21901Y-09600D01*
X21901Y-09699D01*
X21901Y-09899D01*
X21939Y-09991D01*
X21948Y-10000D01*
X21939Y-10009D01*
X21901Y-10100D01*
X21901Y-10199D01*
X21901Y-10399D01*
X21939Y-10491D01*
X21948Y-10500D01*
X21939Y-10509D01*
X21901Y-10600D01*
X21901Y-10699D01*
X21901Y-10899D01*
X21926Y-10960D01*
X21811Y-10960D01*
X21741Y-10890D01*
X21585Y-10825D01*
X21416Y-10825D01*
X21260Y-10889D01*
X21140Y-11009D01*
X21075Y-11165D01*
X21075Y-11334D01*
X21139Y-11490D01*
X21244Y-11595D01*
X21015Y-11825D01*
X20916Y-11825D01*
X20760Y-11889D01*
X20640Y-12009D01*
X20575Y-12165D01*
X20575Y-12334D01*
X20639Y-12490D01*
X20759Y-12610D01*
X20915Y-12675D01*
X21084Y-12675D01*
X21210Y-12623D01*
X21210Y-14000D01*
X21232Y-14111D01*
X21295Y-14205D01*
X21795Y-14705D01*
X21889Y-14768D01*
X22000Y-14790D01*
X22976Y-14790D01*
X22976Y-14824D01*
X23014Y-14916D01*
X23084Y-14986D01*
X23175Y-15024D01*
X23274Y-15024D01*
X23824Y-15024D01*
X23916Y-14986D01*
X23986Y-14916D01*
X24024Y-14825D01*
X24024Y-14726D01*
X24024Y-14176D01*
X23986Y-14084D01*
X23916Y-14014D01*
X23825Y-13976D01*
X23726Y-13976D01*
X23722Y-13976D01*
X23797Y-13945D01*
X23945Y-13798D01*
X24025Y-13605D01*
X24025Y-13396D01*
X23945Y-13203D01*
X23798Y-13055D01*
X23664Y-12999D01*
X23797Y-12945D01*
X23945Y-12798D01*
X24025Y-12605D01*
X24025Y-12396D01*
X23945Y-12203D01*
X23798Y-12055D01*
X23664Y-11999D01*
X23797Y-11945D01*
X23945Y-11798D01*
X24025Y-11605D01*
X24025Y-11396D01*
X23945Y-11203D01*
X23798Y-11055D01*
X23664Y-10999D01*
X23797Y-10945D01*
X23945Y-10798D01*
X24025Y-10605D01*
X24025Y-10396D01*
X23945Y-10203D01*
X23798Y-10055D01*
X23664Y-09999D01*
X23797Y-09945D01*
X23945Y-09798D01*
X24025Y-09605D01*
X24025Y-09396D01*
X23945Y-09203D01*
X23798Y-09055D01*
X23664Y-08999D01*
X23797Y-08945D01*
X23945Y-08798D01*
X24025Y-08605D01*
X24025Y-08396D01*
X23945Y-08203D01*
X23798Y-08055D01*
X23664Y-07999D01*
X23797Y-07945D01*
X23945Y-07798D01*
X24025Y-07605D01*
X24025Y-07396D01*
X23945Y-07203D01*
X23798Y-07055D01*
X23664Y-06999D01*
X23797Y-06945D01*
X23945Y-06798D01*
X24025Y-06605D01*
X24025Y-06396D01*
X23945Y-06203D01*
X23798Y-06055D01*
X23664Y-05999D01*
X23797Y-05945D01*
X23945Y-05798D01*
X24025Y-05605D01*
X24025Y-05396D01*
X23945Y-05203D01*
X23798Y-05055D01*
X23783Y-05049D01*
X24084Y-05049D01*
X24084Y-24084D01*
M02*
