G04 (created by PCBNEW-RS274X (2011-12-28 BZR 3254)-stable) date 2012. 03. 05. 18:39:53*
G01*
G70*
G90*
%MOIN*%
G04 Gerber Fmt 3.4, Leading zero omitted, Abs format*
%FSLAX34Y34*%
G04 APERTURE LIST*
%ADD10C,0.006000*%
%ADD11R,0.027800X0.057800*%
%ADD12R,0.027800X0.052800*%
G04 APERTURE END LIST*
G54D10*
G54D11*
X12250Y-06600D03*
X11750Y-06600D03*
X11250Y-06600D03*
X10750Y-06600D03*
X10250Y-06600D03*
X09750Y-06600D03*
X09250Y-06600D03*
X08750Y-06600D03*
X08250Y-06600D03*
X07750Y-06600D03*
X07750Y-10400D03*
X08250Y-10400D03*
X08750Y-10400D03*
X09250Y-10400D03*
X09750Y-10400D03*
X10250Y-10400D03*
X10750Y-10400D03*
X11250Y-10400D03*
X11750Y-10400D03*
X12250Y-10400D03*
X21250Y-18600D03*
X20750Y-18600D03*
X20250Y-18600D03*
X19750Y-18600D03*
X19250Y-18600D03*
X18750Y-18600D03*
X18250Y-18600D03*
X17750Y-18600D03*
X17250Y-18600D03*
X16750Y-18600D03*
X16750Y-22400D03*
X17250Y-22400D03*
X17750Y-22400D03*
X18250Y-22400D03*
X18750Y-22400D03*
X19250Y-22400D03*
X19750Y-22400D03*
X20250Y-22400D03*
X20750Y-22400D03*
X21250Y-22400D03*
G54D12*
X19000Y-08600D03*
X19500Y-08600D03*
X20000Y-08600D03*
X20500Y-08600D03*
X21000Y-08600D03*
X21500Y-08600D03*
X22000Y-08600D03*
X22000Y-06500D03*
X21500Y-06500D03*
X21000Y-06500D03*
X20500Y-06500D03*
X20000Y-06500D03*
X19500Y-06500D03*
X19000Y-06500D03*
X07000Y-16600D03*
X07500Y-16600D03*
X08000Y-16600D03*
X08500Y-16600D03*
X09000Y-16600D03*
X09500Y-16600D03*
X10000Y-16600D03*
X10000Y-14500D03*
X09500Y-14500D03*
X09000Y-14500D03*
X08500Y-14500D03*
X08000Y-14500D03*
X07500Y-14500D03*
X07000Y-14500D03*
X19000Y-14600D03*
X19500Y-14600D03*
X20000Y-14600D03*
X20500Y-14600D03*
X21000Y-14600D03*
X21500Y-14600D03*
X22000Y-14600D03*
X22000Y-12500D03*
X21500Y-12500D03*
X21000Y-12500D03*
X20500Y-12500D03*
X20000Y-12500D03*
X19500Y-12500D03*
X19000Y-12500D03*
X07000Y-22600D03*
X07500Y-22600D03*
X08000Y-22600D03*
X08500Y-22600D03*
X09000Y-22600D03*
X09500Y-22600D03*
X10000Y-22600D03*
X10000Y-20500D03*
X09500Y-20500D03*
X09000Y-20500D03*
X08500Y-20500D03*
X08000Y-20500D03*
X07500Y-20500D03*
X07000Y-20500D03*
M02*
