M48
;DRILL file {Pcbnew (2011-12-28 BZR 3254)-stable} date 2012. 03. 01. 13:22:49
;FORMAT={-:-/ absolute / metric / decimal}
FMAT,2
METRIC,TZ
T1C0.635
T2C0.813
%
G90
G05
M71
T1
X19.050Y45.085
X19.050Y51.435
X19.685Y20.320
X19.685Y22.860
X20.320Y42.545
X20.320Y53.975
X22.225Y19.050
X22.225Y24.130
X22.860Y42.545
X22.860Y53.975
X24.130Y45.085
X24.130Y51.435
X28.575Y19.050
X28.575Y24.130
X31.115Y20.320
X31.115Y22.860
X42.545Y50.800
X42.545Y53.340
X45.085Y49.530
X45.085Y54.610
X49.530Y22.225
X49.530Y28.575
X50.800Y19.685
X50.800Y31.115
X51.435Y49.530
X51.435Y54.610
X53.340Y19.685
X53.340Y31.115
X53.975Y50.800
X53.975Y53.340
X54.610Y22.225
X54.610Y28.575
T2
X13.970Y13.970
X13.970Y29.210
X13.970Y36.830
X13.970Y39.370
X13.970Y41.910
X13.970Y44.450
X13.970Y46.990
X13.970Y49.530
X13.970Y52.070
X13.970Y54.610
X13.970Y57.150
X13.970Y59.690
X16.510Y13.970
X16.510Y29.210
X19.050Y13.970
X19.050Y29.210
X21.590Y13.970
X21.590Y29.210
X24.130Y13.970
X24.130Y29.210
X26.670Y13.970
X26.670Y29.210
X29.210Y13.970
X29.210Y29.210
X29.210Y36.830
X29.210Y39.370
X29.210Y41.910
X29.210Y44.450
X29.210Y46.990
X29.210Y49.530
X29.210Y52.070
X29.210Y54.610
X29.210Y57.150
X29.210Y59.690
X31.750Y13.970
X31.750Y29.210
X34.290Y13.970
X34.290Y29.210
X36.830Y13.970
X36.830Y29.210
X36.830Y44.450
X36.830Y59.690
X39.370Y44.450
X39.370Y59.690
X41.910Y44.450
X41.910Y59.690
X44.450Y13.970
X44.450Y16.510
X44.450Y19.050
X44.450Y21.590
X44.450Y24.130
X44.450Y26.670
X44.450Y29.210
X44.450Y31.750
X44.450Y34.290
X44.450Y36.830
X44.450Y44.450
X44.450Y59.690
X46.990Y44.450
X46.990Y59.690
X49.530Y44.450
X49.530Y59.690
X52.070Y44.450
X52.070Y59.690
X54.610Y44.450
X54.610Y59.690
X57.150Y44.450
X57.150Y59.690
X59.690Y13.970
X59.690Y16.510
X59.690Y19.050
X59.690Y21.590
X59.690Y24.130
X59.690Y26.670
X59.690Y29.210
X59.690Y31.750
X59.690Y34.290
X59.690Y36.830
X59.690Y44.450
X59.690Y59.690
T0
M30
