G04 (created by PCBNEW-RS274X (2011-12-28 BZR 3254)-stable) date 2012. 03. 05. 18:39:53*
G01*
G70*
G90*
%MOIN*%
G04 Gerber Fmt 3.4, Leading zero omitted, Abs format*
%FSLAX34Y34*%
G04 APERTURE LIST*
%ADD10C,0.006000*%
%ADD11R,0.055000X0.055000*%
%ADD12C,0.055000*%
%ADD13C,0.035000*%
%ADD14C,0.008000*%
%ADD15C,0.010000*%
G04 APERTURE END LIST*
G54D10*
G54D11*
X05500Y-11500D03*
G54D12*
X06500Y-11500D03*
X07500Y-11500D03*
X08500Y-11500D03*
X09500Y-11500D03*
X10500Y-11500D03*
X11500Y-11500D03*
X12500Y-11500D03*
X13500Y-11500D03*
X14500Y-11500D03*
G54D11*
X05500Y-05500D03*
G54D12*
X06500Y-05500D03*
X07500Y-05500D03*
X08500Y-05500D03*
X09500Y-05500D03*
X10500Y-05500D03*
X11500Y-05500D03*
X12500Y-05500D03*
X13500Y-05500D03*
X14500Y-05500D03*
G54D11*
X14500Y-23500D03*
G54D12*
X15500Y-23500D03*
X16500Y-23500D03*
X17500Y-23500D03*
X18500Y-23500D03*
X19500Y-23500D03*
X20500Y-23500D03*
X21500Y-23500D03*
X22500Y-23500D03*
X23500Y-23500D03*
G54D11*
X14500Y-17500D03*
G54D12*
X15500Y-17500D03*
X16500Y-17500D03*
X17500Y-17500D03*
X18500Y-17500D03*
X19500Y-17500D03*
X20500Y-17500D03*
X21500Y-17500D03*
X22500Y-17500D03*
X23500Y-17500D03*
G54D11*
X17500Y-11500D03*
G54D12*
X18500Y-11500D03*
X19500Y-11500D03*
X20500Y-11500D03*
X21500Y-11500D03*
X22500Y-11500D03*
X23500Y-11500D03*
G54D11*
X05500Y-17500D03*
G54D12*
X06500Y-17500D03*
X07500Y-17500D03*
X08500Y-17500D03*
X09500Y-17500D03*
X10500Y-17500D03*
X11500Y-17500D03*
G54D11*
X05500Y-23500D03*
G54D12*
X06500Y-23500D03*
X07500Y-23500D03*
X08500Y-23500D03*
X09500Y-23500D03*
X10500Y-23500D03*
X11500Y-23500D03*
G54D11*
X17500Y-15500D03*
G54D12*
X18500Y-15500D03*
X19500Y-15500D03*
X20500Y-15500D03*
X21500Y-15500D03*
X22500Y-15500D03*
X23500Y-15500D03*
G54D11*
X05500Y-13500D03*
G54D12*
X06500Y-13500D03*
X07500Y-13500D03*
X08500Y-13500D03*
X09500Y-13500D03*
X10500Y-13500D03*
X11500Y-13500D03*
G54D11*
X05500Y-19500D03*
G54D12*
X06500Y-19500D03*
X07500Y-19500D03*
X08500Y-19500D03*
X09500Y-19500D03*
X10500Y-19500D03*
X11500Y-19500D03*
G54D11*
X17500Y-09500D03*
G54D12*
X18500Y-09500D03*
X19500Y-09500D03*
X20500Y-09500D03*
X21500Y-09500D03*
X22500Y-09500D03*
X23500Y-09500D03*
G54D11*
X17500Y-05500D03*
G54D12*
X18500Y-05500D03*
X19500Y-05500D03*
X20500Y-05500D03*
X21500Y-05500D03*
X22500Y-05500D03*
X23500Y-05500D03*
G54D13*
X19500Y-07900D03*
X20250Y-21500D03*
X19500Y-07200D03*
X21500Y-07200D03*
X21500Y-07900D03*
X11250Y-09500D03*
X07750Y-08000D03*
X11250Y-07500D03*
X07750Y-09000D03*
X20250Y-19500D03*
X16750Y-20000D03*
X12250Y-08000D03*
X08750Y-07500D03*
X12250Y-09000D03*
X08750Y-09500D03*
X17750Y-21500D03*
X16750Y-21000D03*
X21250Y-20000D03*
X17750Y-19500D03*
X21250Y-21000D03*
X19500Y-13200D03*
X19500Y-13900D03*
X21500Y-13900D03*
X09500Y-21100D03*
X21500Y-13200D03*
X07500Y-21100D03*
X07500Y-22000D03*
X09500Y-22000D03*
X09500Y-15900D03*
X07500Y-15900D03*
X07500Y-15200D03*
X09500Y-15200D03*
G54D14*
X18500Y-08900D02*
X18500Y-09500D01*
X19500Y-07900D02*
X18500Y-08900D01*
X21500Y-22750D02*
X21500Y-23500D01*
X20250Y-21500D02*
X21500Y-22750D01*
X18500Y-06200D02*
X18500Y-05500D01*
X19500Y-07200D02*
X18500Y-06200D01*
X22500Y-06200D02*
X22500Y-05500D01*
X21500Y-07200D02*
X22500Y-06200D01*
X21500Y-07900D02*
X22500Y-08900D01*
X22500Y-08900D02*
X22500Y-09500D01*
X12500Y-10750D02*
X12500Y-11500D01*
X11250Y-09500D02*
X12500Y-10750D01*
X07750Y-08000D02*
X06500Y-06750D01*
X06500Y-06750D02*
X06500Y-05500D01*
X11250Y-07500D02*
X12500Y-06250D01*
X12500Y-06250D02*
X12500Y-05500D01*
X06500Y-10250D02*
X06500Y-11500D01*
X07750Y-09000D02*
X06500Y-10250D01*
X21500Y-18250D02*
X21500Y-17500D01*
X20250Y-19500D02*
X21500Y-18250D01*
X16750Y-20000D02*
X15500Y-18750D01*
X15500Y-18750D02*
X15500Y-17500D01*
X12250Y-08000D02*
X13500Y-06750D01*
X13500Y-06750D02*
X13500Y-05500D01*
X08750Y-07500D02*
X07500Y-06250D01*
X07500Y-06250D02*
X07500Y-05500D01*
X12250Y-09000D02*
X13500Y-10250D01*
X13500Y-10250D02*
X13500Y-11500D01*
X08750Y-09500D02*
X07500Y-10750D01*
X07500Y-10750D02*
X07500Y-11500D01*
X16500Y-22750D02*
X16500Y-23500D01*
X17750Y-21500D02*
X16500Y-22750D01*
X15500Y-22250D02*
X15500Y-23500D01*
X16750Y-21000D02*
X15500Y-22250D01*
X21250Y-20000D02*
X22500Y-18750D01*
X22500Y-18750D02*
X22500Y-17500D01*
X16500Y-18250D02*
X16500Y-17500D01*
X17750Y-19500D02*
X16500Y-18250D01*
X22500Y-22250D02*
X22500Y-23500D01*
X21250Y-21000D02*
X22500Y-22250D01*
X18500Y-12200D02*
X18500Y-11500D01*
X19500Y-13200D02*
X18500Y-12200D01*
X19500Y-13900D02*
X18500Y-14900D01*
X18500Y-14900D02*
X18500Y-15500D01*
X22500Y-14900D02*
X22500Y-15500D01*
X21500Y-13900D02*
X22500Y-14900D01*
X10500Y-20100D02*
X10500Y-19500D01*
X09500Y-21100D02*
X10500Y-20100D01*
X21500Y-13200D02*
X22500Y-12200D01*
X22500Y-12200D02*
X22500Y-11500D01*
X06500Y-20100D02*
X06500Y-19500D01*
X07500Y-21100D02*
X06500Y-20100D01*
X06500Y-23000D02*
X06500Y-23500D01*
X07500Y-22000D02*
X06500Y-23000D01*
X09500Y-22000D02*
X10500Y-23000D01*
X10500Y-23000D02*
X10500Y-23500D01*
X10500Y-16900D02*
X10500Y-17500D01*
X09500Y-15900D02*
X10500Y-16900D01*
X06500Y-16900D02*
X06500Y-17500D01*
X07500Y-15900D02*
X06500Y-16900D01*
X07500Y-15200D02*
X06500Y-14200D01*
X06500Y-14200D02*
X06500Y-13500D01*
X10500Y-14200D02*
X10500Y-13500D01*
X09500Y-15200D02*
X10500Y-14200D01*
G54D10*
G36*
X06217Y-05049D02*
X06203Y-05055D01*
X06055Y-05202D01*
X06024Y-05276D01*
X06024Y-05176D01*
X05986Y-05084D01*
X05951Y-05049D01*
X06217Y-05049D01*
X06217Y-05049D01*
G37*
G54D15*
X06217Y-05049D02*
X06203Y-05055D01*
X06055Y-05202D01*
X06024Y-05276D01*
X06024Y-05176D01*
X05986Y-05084D01*
X05951Y-05049D01*
X06217Y-05049D01*
G54D10*
G36*
X07217Y-05049D02*
X07203Y-05055D01*
X07055Y-05202D01*
X06999Y-05335D01*
X06945Y-05203D01*
X06798Y-05055D01*
X06783Y-05049D01*
X07217Y-05049D01*
X07217Y-05049D01*
G37*
G54D15*
X07217Y-05049D02*
X07203Y-05055D01*
X07055Y-05202D01*
X06999Y-05335D01*
X06945Y-05203D01*
X06798Y-05055D01*
X06783Y-05049D01*
X07217Y-05049D01*
G54D10*
G36*
X07249Y-15550D02*
X07140Y-15659D01*
X07075Y-15815D01*
X07075Y-15915D01*
X06295Y-16695D01*
X06232Y-16789D01*
X06210Y-16900D01*
X06210Y-17052D01*
X06203Y-17055D01*
X06055Y-17202D01*
X06024Y-17276D01*
X06024Y-17176D01*
X05986Y-17084D01*
X05916Y-17014D01*
X05825Y-16976D01*
X05726Y-16976D01*
X05176Y-16976D01*
X05084Y-17014D01*
X05049Y-17049D01*
X05049Y-13951D01*
X05084Y-13986D01*
X05175Y-14024D01*
X05274Y-14024D01*
X05824Y-14024D01*
X05916Y-13986D01*
X05986Y-13916D01*
X06024Y-13825D01*
X06024Y-13726D01*
X06024Y-13722D01*
X06055Y-13797D01*
X06202Y-13945D01*
X06210Y-13948D01*
X06210Y-14200D01*
X06232Y-14311D01*
X06295Y-14405D01*
X07075Y-15185D01*
X07075Y-15284D01*
X07139Y-15440D01*
X07249Y-15550D01*
X07249Y-15550D01*
G37*
G54D15*
X07249Y-15550D02*
X07140Y-15659D01*
X07075Y-15815D01*
X07075Y-15915D01*
X06295Y-16695D01*
X06232Y-16789D01*
X06210Y-16900D01*
X06210Y-17052D01*
X06203Y-17055D01*
X06055Y-17202D01*
X06024Y-17276D01*
X06024Y-17176D01*
X05986Y-17084D01*
X05916Y-17014D01*
X05825Y-16976D01*
X05726Y-16976D01*
X05176Y-16976D01*
X05084Y-17014D01*
X05049Y-17049D01*
X05049Y-13951D01*
X05084Y-13986D01*
X05175Y-14024D01*
X05274Y-14024D01*
X05824Y-14024D01*
X05916Y-13986D01*
X05986Y-13916D01*
X06024Y-13825D01*
X06024Y-13726D01*
X06024Y-13722D01*
X06055Y-13797D01*
X06202Y-13945D01*
X06210Y-13948D01*
X06210Y-14200D01*
X06232Y-14311D01*
X06295Y-14405D01*
X07075Y-15185D01*
X07075Y-15284D01*
X07139Y-15440D01*
X07249Y-15550D01*
G54D10*
G36*
X08217Y-05049D02*
X08203Y-05055D01*
X08055Y-05202D01*
X07999Y-05335D01*
X07945Y-05203D01*
X07798Y-05055D01*
X07783Y-05049D01*
X08217Y-05049D01*
X08217Y-05049D01*
G37*
G54D15*
X08217Y-05049D02*
X08203Y-05055D01*
X08055Y-05202D01*
X07999Y-05335D01*
X07945Y-05203D01*
X07798Y-05055D01*
X07783Y-05049D01*
X08217Y-05049D01*
G54D10*
G36*
X09217Y-05049D02*
X09203Y-05055D01*
X09055Y-05202D01*
X08999Y-05335D01*
X08945Y-05203D01*
X08798Y-05055D01*
X08783Y-05049D01*
X09217Y-05049D01*
X09217Y-05049D01*
G37*
G54D15*
X09217Y-05049D02*
X09203Y-05055D01*
X09055Y-05202D01*
X08999Y-05335D01*
X08945Y-05203D01*
X08798Y-05055D01*
X08783Y-05049D01*
X09217Y-05049D01*
G54D10*
G36*
X10210Y-17052D02*
X10203Y-17055D01*
X10055Y-17202D01*
X09999Y-17335D01*
X09945Y-17203D01*
X09798Y-17055D01*
X09605Y-16975D01*
X09396Y-16975D01*
X09203Y-17055D01*
X09055Y-17202D01*
X08999Y-17335D01*
X08945Y-17203D01*
X08798Y-17055D01*
X08605Y-16975D01*
X08396Y-16975D01*
X08203Y-17055D01*
X08055Y-17202D01*
X07999Y-17335D01*
X07945Y-17203D01*
X07798Y-17055D01*
X07605Y-16975D01*
X07396Y-16975D01*
X07203Y-17055D01*
X07055Y-17202D01*
X06999Y-17335D01*
X06945Y-17203D01*
X06798Y-17055D01*
X06790Y-17051D01*
X06790Y-17020D01*
X07485Y-16325D01*
X07584Y-16325D01*
X07740Y-16261D01*
X07860Y-16141D01*
X07925Y-15985D01*
X07925Y-15816D01*
X07861Y-15660D01*
X07751Y-15550D01*
X07860Y-15441D01*
X07925Y-15285D01*
X07925Y-15116D01*
X07861Y-14960D01*
X07741Y-14840D01*
X07585Y-14775D01*
X07485Y-14775D01*
X06790Y-14080D01*
X06790Y-13947D01*
X06797Y-13945D01*
X06945Y-13798D01*
X07000Y-13664D01*
X07055Y-13797D01*
X07202Y-13945D01*
X07395Y-14025D01*
X07604Y-14025D01*
X07797Y-13945D01*
X07945Y-13798D01*
X08000Y-13664D01*
X08055Y-13797D01*
X08202Y-13945D01*
X08395Y-14025D01*
X08604Y-14025D01*
X08797Y-13945D01*
X08945Y-13798D01*
X09000Y-13664D01*
X09055Y-13797D01*
X09202Y-13945D01*
X09395Y-14025D01*
X09604Y-14025D01*
X09797Y-13945D01*
X09945Y-13798D01*
X10000Y-13664D01*
X10055Y-13797D01*
X10202Y-13945D01*
X10210Y-13948D01*
X10210Y-14080D01*
X09515Y-14775D01*
X09416Y-14775D01*
X09260Y-14839D01*
X09140Y-14959D01*
X09075Y-15115D01*
X09075Y-15284D01*
X09139Y-15440D01*
X09249Y-15550D01*
X09140Y-15659D01*
X09075Y-15815D01*
X09075Y-15984D01*
X09139Y-16140D01*
X09259Y-16260D01*
X09415Y-16325D01*
X09515Y-16325D01*
X10210Y-17020D01*
X10210Y-17052D01*
X10210Y-17052D01*
G37*
G54D15*
X10210Y-17052D02*
X10203Y-17055D01*
X10055Y-17202D01*
X09999Y-17335D01*
X09945Y-17203D01*
X09798Y-17055D01*
X09605Y-16975D01*
X09396Y-16975D01*
X09203Y-17055D01*
X09055Y-17202D01*
X08999Y-17335D01*
X08945Y-17203D01*
X08798Y-17055D01*
X08605Y-16975D01*
X08396Y-16975D01*
X08203Y-17055D01*
X08055Y-17202D01*
X07999Y-17335D01*
X07945Y-17203D01*
X07798Y-17055D01*
X07605Y-16975D01*
X07396Y-16975D01*
X07203Y-17055D01*
X07055Y-17202D01*
X06999Y-17335D01*
X06945Y-17203D01*
X06798Y-17055D01*
X06790Y-17051D01*
X06790Y-17020D01*
X07485Y-16325D01*
X07584Y-16325D01*
X07740Y-16261D01*
X07860Y-16141D01*
X07925Y-15985D01*
X07925Y-15816D01*
X07861Y-15660D01*
X07751Y-15550D01*
X07860Y-15441D01*
X07925Y-15285D01*
X07925Y-15116D01*
X07861Y-14960D01*
X07741Y-14840D01*
X07585Y-14775D01*
X07485Y-14775D01*
X06790Y-14080D01*
X06790Y-13947D01*
X06797Y-13945D01*
X06945Y-13798D01*
X07000Y-13664D01*
X07055Y-13797D01*
X07202Y-13945D01*
X07395Y-14025D01*
X07604Y-14025D01*
X07797Y-13945D01*
X07945Y-13798D01*
X08000Y-13664D01*
X08055Y-13797D01*
X08202Y-13945D01*
X08395Y-14025D01*
X08604Y-14025D01*
X08797Y-13945D01*
X08945Y-13798D01*
X09000Y-13664D01*
X09055Y-13797D01*
X09202Y-13945D01*
X09395Y-14025D01*
X09604Y-14025D01*
X09797Y-13945D01*
X09945Y-13798D01*
X10000Y-13664D01*
X10055Y-13797D01*
X10202Y-13945D01*
X10210Y-13948D01*
X10210Y-14080D01*
X09515Y-14775D01*
X09416Y-14775D01*
X09260Y-14839D01*
X09140Y-14959D01*
X09075Y-15115D01*
X09075Y-15284D01*
X09139Y-15440D01*
X09249Y-15550D01*
X09140Y-15659D01*
X09075Y-15815D01*
X09075Y-15984D01*
X09139Y-16140D01*
X09259Y-16260D01*
X09415Y-16325D01*
X09515Y-16325D01*
X10210Y-17020D01*
X10210Y-17052D01*
G54D10*
G36*
X10217Y-05049D02*
X10203Y-05055D01*
X10055Y-05202D01*
X09999Y-05335D01*
X09945Y-05203D01*
X09798Y-05055D01*
X09783Y-05049D01*
X10217Y-05049D01*
X10217Y-05049D01*
G37*
G54D15*
X10217Y-05049D02*
X10203Y-05055D01*
X10055Y-05202D01*
X09999Y-05335D01*
X09945Y-05203D01*
X09798Y-05055D01*
X09783Y-05049D01*
X10217Y-05049D01*
G54D10*
G36*
X11217Y-05049D02*
X11203Y-05055D01*
X11055Y-05202D01*
X10999Y-05335D01*
X10945Y-05203D01*
X10798Y-05055D01*
X10783Y-05049D01*
X11217Y-05049D01*
X11217Y-05049D01*
G37*
G54D15*
X11217Y-05049D02*
X11203Y-05055D01*
X11055Y-05202D01*
X10999Y-05335D01*
X10945Y-05203D01*
X10798Y-05055D01*
X10783Y-05049D01*
X11217Y-05049D01*
G54D10*
G36*
X12217Y-05049D02*
X12203Y-05055D01*
X12055Y-05202D01*
X11999Y-05335D01*
X11945Y-05203D01*
X11798Y-05055D01*
X11783Y-05049D01*
X12217Y-05049D01*
X12217Y-05049D01*
G37*
G54D15*
X12217Y-05049D02*
X12203Y-05055D01*
X12055Y-05202D01*
X11999Y-05335D01*
X11945Y-05203D01*
X11798Y-05055D01*
X11783Y-05049D01*
X12217Y-05049D01*
G54D10*
G36*
X13217Y-05049D02*
X13203Y-05055D01*
X13055Y-05202D01*
X12999Y-05335D01*
X12945Y-05203D01*
X12798Y-05055D01*
X12783Y-05049D01*
X13217Y-05049D01*
X13217Y-05049D01*
G37*
G54D15*
X13217Y-05049D02*
X13203Y-05055D01*
X13055Y-05202D01*
X12999Y-05335D01*
X12945Y-05203D01*
X12798Y-05055D01*
X12783Y-05049D01*
X13217Y-05049D01*
G54D10*
G36*
X14217Y-05049D02*
X14203Y-05055D01*
X14055Y-05202D01*
X13999Y-05335D01*
X13945Y-05203D01*
X13798Y-05055D01*
X13783Y-05049D01*
X14217Y-05049D01*
X14217Y-05049D01*
G37*
G54D15*
X14217Y-05049D02*
X14203Y-05055D01*
X14055Y-05202D01*
X13999Y-05335D01*
X13945Y-05203D01*
X13798Y-05055D01*
X13783Y-05049D01*
X14217Y-05049D01*
G54D10*
G36*
X18217Y-05049D02*
X18203Y-05055D01*
X18055Y-05202D01*
X18024Y-05276D01*
X18024Y-05176D01*
X17986Y-05084D01*
X17951Y-05049D01*
X18217Y-05049D01*
X18217Y-05049D01*
G37*
G54D15*
X18217Y-05049D02*
X18203Y-05055D01*
X18055Y-05202D01*
X18024Y-05276D01*
X18024Y-05176D01*
X17986Y-05084D01*
X17951Y-05049D01*
X18217Y-05049D01*
G54D10*
G36*
X19217Y-05049D02*
X19203Y-05055D01*
X19055Y-05202D01*
X18999Y-05335D01*
X18945Y-05203D01*
X18798Y-05055D01*
X18783Y-05049D01*
X19217Y-05049D01*
X19217Y-05049D01*
G37*
G54D15*
X19217Y-05049D02*
X19203Y-05055D01*
X19055Y-05202D01*
X18999Y-05335D01*
X18945Y-05203D01*
X18798Y-05055D01*
X18783Y-05049D01*
X19217Y-05049D01*
G54D10*
G36*
X20217Y-05049D02*
X20203Y-05055D01*
X20055Y-05202D01*
X19999Y-05335D01*
X19945Y-05203D01*
X19798Y-05055D01*
X19783Y-05049D01*
X20217Y-05049D01*
X20217Y-05049D01*
G37*
G54D15*
X20217Y-05049D02*
X20203Y-05055D01*
X20055Y-05202D01*
X19999Y-05335D01*
X19945Y-05203D01*
X19798Y-05055D01*
X19783Y-05049D01*
X20217Y-05049D01*
G54D10*
G36*
X21217Y-05049D02*
X21203Y-05055D01*
X21055Y-05202D01*
X20999Y-05335D01*
X20945Y-05203D01*
X20798Y-05055D01*
X20783Y-05049D01*
X21217Y-05049D01*
X21217Y-05049D01*
G37*
G54D15*
X21217Y-05049D02*
X21203Y-05055D01*
X21055Y-05202D01*
X20999Y-05335D01*
X20945Y-05203D01*
X20798Y-05055D01*
X20783Y-05049D01*
X21217Y-05049D01*
G54D10*
G36*
X22210Y-09052D02*
X22203Y-09055D01*
X22055Y-09202D01*
X21999Y-09335D01*
X21945Y-09203D01*
X21798Y-09055D01*
X21605Y-08975D01*
X21396Y-08975D01*
X21203Y-09055D01*
X21055Y-09202D01*
X20999Y-09335D01*
X20945Y-09203D01*
X20798Y-09055D01*
X20605Y-08975D01*
X20396Y-08975D01*
X20203Y-09055D01*
X20055Y-09202D01*
X19999Y-09335D01*
X19945Y-09203D01*
X19798Y-09055D01*
X19605Y-08975D01*
X19396Y-08975D01*
X19203Y-09055D01*
X19055Y-09202D01*
X18999Y-09335D01*
X18945Y-09203D01*
X18798Y-09055D01*
X18790Y-09051D01*
X18790Y-09020D01*
X19485Y-08325D01*
X19584Y-08325D01*
X19740Y-08261D01*
X19860Y-08141D01*
X19925Y-07985D01*
X19925Y-07816D01*
X19861Y-07660D01*
X19751Y-07550D01*
X19860Y-07441D01*
X19925Y-07285D01*
X19925Y-07116D01*
X19861Y-06960D01*
X19741Y-06840D01*
X19585Y-06775D01*
X19485Y-06775D01*
X18790Y-06080D01*
X18790Y-05947D01*
X18797Y-05945D01*
X18945Y-05798D01*
X19000Y-05664D01*
X19055Y-05797D01*
X19202Y-05945D01*
X19395Y-06025D01*
X19604Y-06025D01*
X19797Y-05945D01*
X19945Y-05798D01*
X20000Y-05664D01*
X20055Y-05797D01*
X20202Y-05945D01*
X20395Y-06025D01*
X20604Y-06025D01*
X20797Y-05945D01*
X20945Y-05798D01*
X21000Y-05664D01*
X21055Y-05797D01*
X21202Y-05945D01*
X21395Y-06025D01*
X21604Y-06025D01*
X21797Y-05945D01*
X21945Y-05798D01*
X22000Y-05664D01*
X22055Y-05797D01*
X22202Y-05945D01*
X22210Y-05948D01*
X22210Y-06080D01*
X21515Y-06775D01*
X21416Y-06775D01*
X21260Y-06839D01*
X21140Y-06959D01*
X21075Y-07115D01*
X21075Y-07284D01*
X21139Y-07440D01*
X21249Y-07550D01*
X21140Y-07659D01*
X21075Y-07815D01*
X21075Y-07984D01*
X21139Y-08140D01*
X21259Y-08260D01*
X21415Y-08325D01*
X21515Y-08325D01*
X22210Y-09020D01*
X22210Y-09052D01*
X22210Y-09052D01*
G37*
G54D15*
X22210Y-09052D02*
X22203Y-09055D01*
X22055Y-09202D01*
X21999Y-09335D01*
X21945Y-09203D01*
X21798Y-09055D01*
X21605Y-08975D01*
X21396Y-08975D01*
X21203Y-09055D01*
X21055Y-09202D01*
X20999Y-09335D01*
X20945Y-09203D01*
X20798Y-09055D01*
X20605Y-08975D01*
X20396Y-08975D01*
X20203Y-09055D01*
X20055Y-09202D01*
X19999Y-09335D01*
X19945Y-09203D01*
X19798Y-09055D01*
X19605Y-08975D01*
X19396Y-08975D01*
X19203Y-09055D01*
X19055Y-09202D01*
X18999Y-09335D01*
X18945Y-09203D01*
X18798Y-09055D01*
X18790Y-09051D01*
X18790Y-09020D01*
X19485Y-08325D01*
X19584Y-08325D01*
X19740Y-08261D01*
X19860Y-08141D01*
X19925Y-07985D01*
X19925Y-07816D01*
X19861Y-07660D01*
X19751Y-07550D01*
X19860Y-07441D01*
X19925Y-07285D01*
X19925Y-07116D01*
X19861Y-06960D01*
X19741Y-06840D01*
X19585Y-06775D01*
X19485Y-06775D01*
X18790Y-06080D01*
X18790Y-05947D01*
X18797Y-05945D01*
X18945Y-05798D01*
X19000Y-05664D01*
X19055Y-05797D01*
X19202Y-05945D01*
X19395Y-06025D01*
X19604Y-06025D01*
X19797Y-05945D01*
X19945Y-05798D01*
X20000Y-05664D01*
X20055Y-05797D01*
X20202Y-05945D01*
X20395Y-06025D01*
X20604Y-06025D01*
X20797Y-05945D01*
X20945Y-05798D01*
X21000Y-05664D01*
X21055Y-05797D01*
X21202Y-05945D01*
X21395Y-06025D01*
X21604Y-06025D01*
X21797Y-05945D01*
X21945Y-05798D01*
X22000Y-05664D01*
X22055Y-05797D01*
X22202Y-05945D01*
X22210Y-05948D01*
X22210Y-06080D01*
X21515Y-06775D01*
X21416Y-06775D01*
X21260Y-06839D01*
X21140Y-06959D01*
X21075Y-07115D01*
X21075Y-07284D01*
X21139Y-07440D01*
X21249Y-07550D01*
X21140Y-07659D01*
X21075Y-07815D01*
X21075Y-07984D01*
X21139Y-08140D01*
X21259Y-08260D01*
X21415Y-08325D01*
X21515Y-08325D01*
X22210Y-09020D01*
X22210Y-09052D01*
G54D10*
G36*
X22210Y-15052D02*
X22203Y-15055D01*
X22055Y-15202D01*
X21999Y-15335D01*
X21945Y-15203D01*
X21798Y-15055D01*
X21605Y-14975D01*
X21396Y-14975D01*
X21203Y-15055D01*
X21055Y-15202D01*
X20999Y-15335D01*
X20945Y-15203D01*
X20798Y-15055D01*
X20605Y-14975D01*
X20396Y-14975D01*
X20203Y-15055D01*
X20055Y-15202D01*
X19999Y-15335D01*
X19945Y-15203D01*
X19798Y-15055D01*
X19605Y-14975D01*
X19396Y-14975D01*
X19203Y-15055D01*
X19055Y-15202D01*
X18999Y-15335D01*
X18945Y-15203D01*
X18798Y-15055D01*
X18790Y-15051D01*
X18790Y-15020D01*
X19485Y-14325D01*
X19584Y-14325D01*
X19740Y-14261D01*
X19860Y-14141D01*
X19925Y-13985D01*
X19925Y-13816D01*
X19861Y-13660D01*
X19751Y-13550D01*
X19860Y-13441D01*
X19925Y-13285D01*
X19925Y-13116D01*
X19861Y-12960D01*
X19741Y-12840D01*
X19585Y-12775D01*
X19485Y-12775D01*
X18790Y-12080D01*
X18790Y-11947D01*
X18797Y-11945D01*
X18945Y-11798D01*
X19000Y-11664D01*
X19055Y-11797D01*
X19202Y-11945D01*
X19395Y-12025D01*
X19604Y-12025D01*
X19797Y-11945D01*
X19945Y-11798D01*
X20000Y-11664D01*
X20055Y-11797D01*
X20202Y-11945D01*
X20395Y-12025D01*
X20604Y-12025D01*
X20797Y-11945D01*
X20945Y-11798D01*
X21000Y-11664D01*
X21055Y-11797D01*
X21202Y-11945D01*
X21395Y-12025D01*
X21604Y-12025D01*
X21797Y-11945D01*
X21945Y-11798D01*
X22000Y-11664D01*
X22055Y-11797D01*
X22202Y-11945D01*
X22210Y-11948D01*
X22210Y-12080D01*
X21515Y-12775D01*
X21416Y-12775D01*
X21260Y-12839D01*
X21140Y-12959D01*
X21075Y-13115D01*
X21075Y-13284D01*
X21139Y-13440D01*
X21249Y-13550D01*
X21140Y-13659D01*
X21075Y-13815D01*
X21075Y-13984D01*
X21139Y-14140D01*
X21259Y-14260D01*
X21415Y-14325D01*
X21515Y-14325D01*
X22210Y-15020D01*
X22210Y-15052D01*
X22210Y-15052D01*
G37*
G54D15*
X22210Y-15052D02*
X22203Y-15055D01*
X22055Y-15202D01*
X21999Y-15335D01*
X21945Y-15203D01*
X21798Y-15055D01*
X21605Y-14975D01*
X21396Y-14975D01*
X21203Y-15055D01*
X21055Y-15202D01*
X20999Y-15335D01*
X20945Y-15203D01*
X20798Y-15055D01*
X20605Y-14975D01*
X20396Y-14975D01*
X20203Y-15055D01*
X20055Y-15202D01*
X19999Y-15335D01*
X19945Y-15203D01*
X19798Y-15055D01*
X19605Y-14975D01*
X19396Y-14975D01*
X19203Y-15055D01*
X19055Y-15202D01*
X18999Y-15335D01*
X18945Y-15203D01*
X18798Y-15055D01*
X18790Y-15051D01*
X18790Y-15020D01*
X19485Y-14325D01*
X19584Y-14325D01*
X19740Y-14261D01*
X19860Y-14141D01*
X19925Y-13985D01*
X19925Y-13816D01*
X19861Y-13660D01*
X19751Y-13550D01*
X19860Y-13441D01*
X19925Y-13285D01*
X19925Y-13116D01*
X19861Y-12960D01*
X19741Y-12840D01*
X19585Y-12775D01*
X19485Y-12775D01*
X18790Y-12080D01*
X18790Y-11947D01*
X18797Y-11945D01*
X18945Y-11798D01*
X19000Y-11664D01*
X19055Y-11797D01*
X19202Y-11945D01*
X19395Y-12025D01*
X19604Y-12025D01*
X19797Y-11945D01*
X19945Y-11798D01*
X20000Y-11664D01*
X20055Y-11797D01*
X20202Y-11945D01*
X20395Y-12025D01*
X20604Y-12025D01*
X20797Y-11945D01*
X20945Y-11798D01*
X21000Y-11664D01*
X21055Y-11797D01*
X21202Y-11945D01*
X21395Y-12025D01*
X21604Y-12025D01*
X21797Y-11945D01*
X21945Y-11798D01*
X22000Y-11664D01*
X22055Y-11797D01*
X22202Y-11945D01*
X22210Y-11948D01*
X22210Y-12080D01*
X21515Y-12775D01*
X21416Y-12775D01*
X21260Y-12839D01*
X21140Y-12959D01*
X21075Y-13115D01*
X21075Y-13284D01*
X21139Y-13440D01*
X21249Y-13550D01*
X21140Y-13659D01*
X21075Y-13815D01*
X21075Y-13984D01*
X21139Y-14140D01*
X21259Y-14260D01*
X21415Y-14325D01*
X21515Y-14325D01*
X22210Y-15020D01*
X22210Y-15052D01*
G54D10*
G36*
X22217Y-05049D02*
X22203Y-05055D01*
X22055Y-05202D01*
X21999Y-05335D01*
X21945Y-05203D01*
X21798Y-05055D01*
X21783Y-05049D01*
X22217Y-05049D01*
X22217Y-05049D01*
G37*
G54D15*
X22217Y-05049D02*
X22203Y-05055D01*
X22055Y-05202D01*
X21999Y-05335D01*
X21945Y-05203D01*
X21798Y-05055D01*
X21783Y-05049D01*
X22217Y-05049D01*
G54D10*
G36*
X23217Y-05049D02*
X23203Y-05055D01*
X23055Y-05202D01*
X22999Y-05335D01*
X22945Y-05203D01*
X22798Y-05055D01*
X22783Y-05049D01*
X23217Y-05049D01*
X23217Y-05049D01*
G37*
G54D15*
X23217Y-05049D02*
X23203Y-05055D01*
X23055Y-05202D01*
X22999Y-05335D01*
X22945Y-05203D01*
X22798Y-05055D01*
X22783Y-05049D01*
X23217Y-05049D01*
G54D10*
G36*
X24084Y-24084D02*
X24025Y-24084D01*
X24025Y-23605D01*
X24025Y-23396D01*
X24025Y-17605D01*
X24025Y-17396D01*
X24025Y-15605D01*
X24025Y-15396D01*
X23945Y-15203D01*
X23798Y-15055D01*
X23605Y-14975D01*
X23396Y-14975D01*
X23203Y-15055D01*
X23055Y-15202D01*
X22999Y-15335D01*
X22945Y-15203D01*
X22798Y-15055D01*
X22790Y-15051D01*
X22790Y-14900D01*
X22768Y-14789D01*
X22705Y-14695D01*
X21925Y-13915D01*
X21925Y-13816D01*
X21861Y-13660D01*
X21751Y-13550D01*
X21860Y-13441D01*
X21925Y-13285D01*
X21925Y-13185D01*
X22705Y-12405D01*
X22768Y-12311D01*
X22790Y-12200D01*
X22790Y-11947D01*
X22797Y-11945D01*
X22945Y-11798D01*
X23000Y-11664D01*
X23055Y-11797D01*
X23202Y-11945D01*
X23395Y-12025D01*
X23604Y-12025D01*
X23797Y-11945D01*
X23945Y-11798D01*
X24025Y-11605D01*
X24025Y-11396D01*
X23945Y-11203D01*
X23798Y-11055D01*
X23605Y-10975D01*
X23396Y-10975D01*
X23203Y-11055D01*
X23055Y-11202D01*
X22999Y-11335D01*
X22945Y-11203D01*
X22798Y-11055D01*
X22605Y-10975D01*
X22396Y-10975D01*
X22203Y-11055D01*
X22055Y-11202D01*
X21999Y-11335D01*
X21945Y-11203D01*
X21798Y-11055D01*
X21605Y-10975D01*
X21396Y-10975D01*
X21203Y-11055D01*
X21055Y-11202D01*
X20999Y-11335D01*
X20945Y-11203D01*
X20798Y-11055D01*
X20605Y-10975D01*
X20396Y-10975D01*
X20203Y-11055D01*
X20055Y-11202D01*
X19999Y-11335D01*
X19945Y-11203D01*
X19798Y-11055D01*
X19605Y-10975D01*
X19396Y-10975D01*
X19203Y-11055D01*
X19055Y-11202D01*
X18999Y-11335D01*
X18945Y-11203D01*
X18798Y-11055D01*
X18605Y-10975D01*
X18396Y-10975D01*
X18203Y-11055D01*
X18055Y-11202D01*
X18024Y-11276D01*
X18024Y-11176D01*
X17986Y-11084D01*
X17916Y-11014D01*
X17825Y-10976D01*
X17726Y-10976D01*
X17176Y-10976D01*
X17084Y-11014D01*
X17014Y-11084D01*
X16976Y-11175D01*
X16976Y-11274D01*
X16976Y-11824D01*
X17014Y-11916D01*
X17084Y-11986D01*
X17175Y-12024D01*
X17274Y-12024D01*
X17824Y-12024D01*
X17916Y-11986D01*
X17986Y-11916D01*
X18024Y-11825D01*
X18024Y-11726D01*
X18024Y-11722D01*
X18055Y-11797D01*
X18202Y-11945D01*
X18210Y-11948D01*
X18210Y-12200D01*
X18232Y-12311D01*
X18295Y-12405D01*
X19075Y-13185D01*
X19075Y-13284D01*
X19139Y-13440D01*
X19249Y-13550D01*
X19140Y-13659D01*
X19075Y-13815D01*
X19075Y-13915D01*
X18295Y-14695D01*
X18232Y-14789D01*
X18210Y-14900D01*
X18210Y-15052D01*
X18203Y-15055D01*
X18055Y-15202D01*
X18024Y-15276D01*
X18024Y-15176D01*
X17986Y-15084D01*
X17916Y-15014D01*
X17825Y-14976D01*
X17726Y-14976D01*
X17176Y-14976D01*
X17084Y-15014D01*
X17014Y-15084D01*
X16976Y-15175D01*
X16976Y-15274D01*
X16976Y-15824D01*
X17014Y-15916D01*
X17084Y-15986D01*
X17175Y-16024D01*
X17274Y-16024D01*
X17824Y-16024D01*
X17916Y-15986D01*
X17986Y-15916D01*
X18024Y-15825D01*
X18024Y-15726D01*
X18024Y-15722D01*
X18055Y-15797D01*
X18202Y-15945D01*
X18395Y-16025D01*
X18604Y-16025D01*
X18797Y-15945D01*
X18945Y-15798D01*
X19000Y-15664D01*
X19055Y-15797D01*
X19202Y-15945D01*
X19395Y-16025D01*
X19604Y-16025D01*
X19797Y-15945D01*
X19945Y-15798D01*
X20000Y-15664D01*
X20055Y-15797D01*
X20202Y-15945D01*
X20395Y-16025D01*
X20604Y-16025D01*
X20797Y-15945D01*
X20945Y-15798D01*
X21000Y-15664D01*
X21055Y-15797D01*
X21202Y-15945D01*
X21395Y-16025D01*
X21604Y-16025D01*
X21797Y-15945D01*
X21945Y-15798D01*
X22000Y-15664D01*
X22055Y-15797D01*
X22202Y-15945D01*
X22395Y-16025D01*
X22604Y-16025D01*
X22797Y-15945D01*
X22945Y-15798D01*
X23000Y-15664D01*
X23055Y-15797D01*
X23202Y-15945D01*
X23395Y-16025D01*
X23604Y-16025D01*
X23797Y-15945D01*
X23945Y-15798D01*
X24025Y-15605D01*
X24025Y-17396D01*
X23945Y-17203D01*
X23798Y-17055D01*
X23605Y-16975D01*
X23396Y-16975D01*
X23203Y-17055D01*
X23055Y-17202D01*
X22999Y-17335D01*
X22945Y-17203D01*
X22798Y-17055D01*
X22605Y-16975D01*
X22396Y-16975D01*
X22203Y-17055D01*
X22055Y-17202D01*
X21999Y-17335D01*
X21945Y-17203D01*
X21798Y-17055D01*
X21605Y-16975D01*
X21396Y-16975D01*
X21203Y-17055D01*
X21055Y-17202D01*
X20999Y-17335D01*
X20945Y-17203D01*
X20798Y-17055D01*
X20605Y-16975D01*
X20396Y-16975D01*
X20203Y-17055D01*
X20055Y-17202D01*
X19999Y-17335D01*
X19945Y-17203D01*
X19798Y-17055D01*
X19605Y-16975D01*
X19396Y-16975D01*
X19203Y-17055D01*
X19055Y-17202D01*
X18999Y-17335D01*
X18945Y-17203D01*
X18798Y-17055D01*
X18605Y-16975D01*
X18396Y-16975D01*
X18203Y-17055D01*
X18055Y-17202D01*
X17999Y-17335D01*
X17945Y-17203D01*
X17798Y-17055D01*
X17605Y-16975D01*
X17396Y-16975D01*
X17203Y-17055D01*
X17055Y-17202D01*
X16999Y-17335D01*
X16945Y-17203D01*
X16798Y-17055D01*
X16605Y-16975D01*
X16396Y-16975D01*
X16203Y-17055D01*
X16055Y-17202D01*
X15999Y-17335D01*
X15945Y-17203D01*
X15798Y-17055D01*
X15605Y-16975D01*
X15396Y-16975D01*
X15203Y-17055D01*
X15055Y-17202D01*
X15024Y-17276D01*
X15024Y-17176D01*
X14986Y-17084D01*
X14916Y-17014D01*
X14825Y-16976D01*
X14726Y-16976D01*
X14176Y-16976D01*
X14084Y-17014D01*
X14014Y-17084D01*
X13976Y-17175D01*
X13976Y-17274D01*
X13976Y-17824D01*
X14014Y-17916D01*
X14084Y-17986D01*
X14175Y-18024D01*
X14274Y-18024D01*
X14824Y-18024D01*
X14916Y-17986D01*
X14986Y-17916D01*
X15024Y-17825D01*
X15024Y-17726D01*
X15024Y-17722D01*
X15055Y-17797D01*
X15202Y-17945D01*
X15210Y-17948D01*
X15210Y-18750D01*
X15232Y-18861D01*
X15295Y-18955D01*
X16325Y-19985D01*
X16325Y-20084D01*
X16389Y-20240D01*
X16509Y-20360D01*
X16665Y-20425D01*
X16834Y-20425D01*
X16990Y-20361D01*
X17110Y-20241D01*
X17175Y-20085D01*
X17175Y-19916D01*
X17111Y-19760D01*
X16991Y-19640D01*
X16835Y-19575D01*
X16735Y-19575D01*
X15790Y-18629D01*
X15790Y-17947D01*
X15797Y-17945D01*
X15945Y-17798D01*
X16000Y-17664D01*
X16055Y-17797D01*
X16202Y-17945D01*
X16210Y-17948D01*
X16210Y-18250D01*
X16232Y-18361D01*
X16295Y-18455D01*
X17325Y-19485D01*
X17325Y-19584D01*
X17389Y-19740D01*
X17509Y-19860D01*
X17665Y-19925D01*
X17834Y-19925D01*
X17990Y-19861D01*
X18110Y-19741D01*
X18175Y-19585D01*
X18175Y-19416D01*
X18111Y-19260D01*
X17991Y-19140D01*
X17835Y-19075D01*
X17735Y-19075D01*
X16790Y-18129D01*
X16790Y-17947D01*
X16797Y-17945D01*
X16945Y-17798D01*
X17000Y-17664D01*
X17055Y-17797D01*
X17202Y-17945D01*
X17395Y-18025D01*
X17604Y-18025D01*
X17797Y-17945D01*
X17945Y-17798D01*
X18000Y-17664D01*
X18055Y-17797D01*
X18202Y-17945D01*
X18395Y-18025D01*
X18604Y-18025D01*
X18797Y-17945D01*
X18945Y-17798D01*
X19000Y-17664D01*
X19055Y-17797D01*
X19202Y-17945D01*
X19395Y-18025D01*
X19604Y-18025D01*
X19797Y-17945D01*
X19945Y-17798D01*
X20000Y-17664D01*
X20055Y-17797D01*
X20202Y-17945D01*
X20395Y-18025D01*
X20604Y-18025D01*
X20797Y-17945D01*
X20945Y-17798D01*
X21000Y-17664D01*
X21055Y-17797D01*
X21202Y-17945D01*
X21210Y-17948D01*
X21210Y-18129D01*
X20264Y-19075D01*
X20166Y-19075D01*
X20010Y-19139D01*
X19890Y-19259D01*
X19825Y-19415D01*
X19825Y-19584D01*
X19889Y-19740D01*
X20009Y-19860D01*
X20165Y-19925D01*
X20334Y-19925D01*
X20490Y-19861D01*
X20610Y-19741D01*
X20675Y-19585D01*
X20675Y-19485D01*
X21705Y-18456D01*
X21705Y-18455D01*
X21746Y-18393D01*
X21767Y-18362D01*
X21768Y-18361D01*
X21789Y-18251D01*
X21790Y-18250D01*
X21790Y-17947D01*
X21797Y-17945D01*
X21945Y-17798D01*
X22000Y-17664D01*
X22055Y-17797D01*
X22202Y-17945D01*
X22210Y-17948D01*
X22210Y-18629D01*
X21264Y-19575D01*
X21166Y-19575D01*
X21010Y-19639D01*
X20890Y-19759D01*
X20825Y-19915D01*
X20825Y-20084D01*
X20889Y-20240D01*
X21009Y-20360D01*
X21165Y-20425D01*
X21334Y-20425D01*
X21490Y-20361D01*
X21610Y-20241D01*
X21675Y-20085D01*
X21675Y-19985D01*
X22705Y-18956D01*
X22705Y-18955D01*
X22746Y-18893D01*
X22767Y-18862D01*
X22768Y-18861D01*
X22789Y-18751D01*
X22790Y-18750D01*
X22790Y-17947D01*
X22797Y-17945D01*
X22945Y-17798D01*
X23000Y-17664D01*
X23055Y-17797D01*
X23202Y-17945D01*
X23395Y-18025D01*
X23604Y-18025D01*
X23797Y-17945D01*
X23945Y-17798D01*
X24025Y-17605D01*
X24025Y-23396D01*
X23945Y-23203D01*
X23798Y-23055D01*
X23605Y-22975D01*
X23396Y-22975D01*
X23203Y-23055D01*
X23055Y-23202D01*
X22999Y-23335D01*
X22945Y-23203D01*
X22798Y-23055D01*
X22790Y-23051D01*
X22790Y-22250D01*
X22789Y-22249D01*
X22768Y-22139D01*
X22767Y-22138D01*
X22746Y-22107D01*
X22705Y-22045D01*
X22705Y-22044D01*
X21675Y-21014D01*
X21675Y-20916D01*
X21611Y-20760D01*
X21491Y-20640D01*
X21335Y-20575D01*
X21166Y-20575D01*
X21010Y-20639D01*
X20890Y-20759D01*
X20825Y-20915D01*
X20825Y-21084D01*
X20889Y-21240D01*
X21009Y-21360D01*
X21165Y-21425D01*
X21264Y-21425D01*
X22210Y-22370D01*
X22210Y-23052D01*
X22203Y-23055D01*
X22055Y-23202D01*
X21999Y-23335D01*
X21945Y-23203D01*
X21798Y-23055D01*
X21790Y-23051D01*
X21790Y-22750D01*
X21789Y-22749D01*
X21768Y-22639D01*
X21767Y-22638D01*
X21746Y-22607D01*
X21705Y-22545D01*
X21705Y-22544D01*
X20675Y-21514D01*
X20675Y-21416D01*
X20611Y-21260D01*
X20491Y-21140D01*
X20335Y-21075D01*
X20166Y-21075D01*
X20010Y-21139D01*
X19890Y-21259D01*
X19825Y-21415D01*
X19825Y-21584D01*
X19889Y-21740D01*
X20009Y-21860D01*
X20165Y-21925D01*
X20264Y-21925D01*
X21210Y-22870D01*
X21210Y-23052D01*
X21203Y-23055D01*
X21055Y-23202D01*
X20999Y-23335D01*
X20945Y-23203D01*
X20798Y-23055D01*
X20605Y-22975D01*
X20396Y-22975D01*
X20203Y-23055D01*
X20055Y-23202D01*
X19999Y-23335D01*
X19945Y-23203D01*
X19798Y-23055D01*
X19605Y-22975D01*
X19396Y-22975D01*
X19203Y-23055D01*
X19055Y-23202D01*
X18999Y-23335D01*
X18945Y-23203D01*
X18798Y-23055D01*
X18605Y-22975D01*
X18396Y-22975D01*
X18203Y-23055D01*
X18055Y-23202D01*
X17999Y-23335D01*
X17945Y-23203D01*
X17798Y-23055D01*
X17605Y-22975D01*
X17396Y-22975D01*
X17203Y-23055D01*
X17055Y-23202D01*
X16999Y-23335D01*
X16945Y-23203D01*
X16798Y-23055D01*
X16790Y-23051D01*
X16790Y-22870D01*
X17735Y-21925D01*
X17834Y-21925D01*
X17990Y-21861D01*
X18110Y-21741D01*
X18175Y-21585D01*
X18175Y-21416D01*
X18111Y-21260D01*
X17991Y-21140D01*
X17835Y-21075D01*
X17666Y-21075D01*
X17510Y-21139D01*
X17390Y-21259D01*
X17325Y-21415D01*
X17325Y-21514D01*
X16295Y-22545D01*
X16232Y-22639D01*
X16210Y-22750D01*
X16210Y-23052D01*
X16203Y-23055D01*
X16055Y-23202D01*
X15999Y-23335D01*
X15945Y-23203D01*
X15798Y-23055D01*
X15790Y-23051D01*
X15790Y-22370D01*
X16735Y-21425D01*
X16834Y-21425D01*
X16990Y-21361D01*
X17110Y-21241D01*
X17175Y-21085D01*
X17175Y-20916D01*
X17111Y-20760D01*
X16991Y-20640D01*
X16835Y-20575D01*
X16666Y-20575D01*
X16510Y-20639D01*
X16390Y-20759D01*
X16325Y-20915D01*
X16325Y-21014D01*
X15295Y-22045D01*
X15232Y-22139D01*
X15210Y-22250D01*
X15210Y-23052D01*
X15203Y-23055D01*
X15055Y-23202D01*
X15024Y-23276D01*
X15024Y-23176D01*
X14986Y-23084D01*
X14916Y-23014D01*
X14825Y-22976D01*
X14726Y-22976D01*
X14176Y-22976D01*
X14084Y-23014D01*
X14014Y-23084D01*
X13976Y-23175D01*
X13976Y-23274D01*
X13976Y-23824D01*
X14014Y-23916D01*
X14084Y-23986D01*
X14175Y-24024D01*
X14274Y-24024D01*
X14824Y-24024D01*
X14916Y-23986D01*
X14986Y-23916D01*
X15024Y-23825D01*
X15024Y-23726D01*
X15024Y-23722D01*
X15055Y-23797D01*
X15202Y-23945D01*
X15395Y-24025D01*
X15604Y-24025D01*
X15797Y-23945D01*
X15945Y-23798D01*
X16000Y-23664D01*
X16055Y-23797D01*
X16202Y-23945D01*
X16395Y-24025D01*
X16604Y-24025D01*
X16797Y-23945D01*
X16945Y-23798D01*
X17000Y-23664D01*
X17055Y-23797D01*
X17202Y-23945D01*
X17395Y-24025D01*
X17604Y-24025D01*
X17797Y-23945D01*
X17945Y-23798D01*
X18000Y-23664D01*
X18055Y-23797D01*
X18202Y-23945D01*
X18395Y-24025D01*
X18604Y-24025D01*
X18797Y-23945D01*
X18945Y-23798D01*
X19000Y-23664D01*
X19055Y-23797D01*
X19202Y-23945D01*
X19395Y-24025D01*
X19604Y-24025D01*
X19797Y-23945D01*
X19945Y-23798D01*
X20000Y-23664D01*
X20055Y-23797D01*
X20202Y-23945D01*
X20395Y-24025D01*
X20604Y-24025D01*
X20797Y-23945D01*
X20945Y-23798D01*
X21000Y-23664D01*
X21055Y-23797D01*
X21202Y-23945D01*
X21395Y-24025D01*
X21604Y-24025D01*
X21797Y-23945D01*
X21945Y-23798D01*
X22000Y-23664D01*
X22055Y-23797D01*
X22202Y-23945D01*
X22395Y-24025D01*
X22604Y-24025D01*
X22797Y-23945D01*
X22945Y-23798D01*
X23000Y-23664D01*
X23055Y-23797D01*
X23202Y-23945D01*
X23395Y-24025D01*
X23604Y-24025D01*
X23797Y-23945D01*
X23945Y-23798D01*
X24025Y-23605D01*
X24025Y-24084D01*
X05049Y-24084D01*
X05049Y-23951D01*
X05084Y-23986D01*
X05175Y-24024D01*
X05274Y-24024D01*
X05824Y-24024D01*
X05916Y-23986D01*
X05986Y-23916D01*
X06024Y-23825D01*
X06024Y-23726D01*
X06024Y-23722D01*
X06055Y-23797D01*
X06202Y-23945D01*
X06395Y-24025D01*
X06604Y-24025D01*
X06797Y-23945D01*
X06945Y-23798D01*
X07000Y-23664D01*
X07055Y-23797D01*
X07202Y-23945D01*
X07395Y-24025D01*
X07604Y-24025D01*
X07797Y-23945D01*
X07945Y-23798D01*
X08000Y-23664D01*
X08055Y-23797D01*
X08202Y-23945D01*
X08395Y-24025D01*
X08604Y-24025D01*
X08797Y-23945D01*
X08945Y-23798D01*
X09000Y-23664D01*
X09055Y-23797D01*
X09202Y-23945D01*
X09395Y-24025D01*
X09604Y-24025D01*
X09797Y-23945D01*
X09945Y-23798D01*
X10000Y-23664D01*
X10055Y-23797D01*
X10202Y-23945D01*
X10395Y-24025D01*
X10604Y-24025D01*
X10797Y-23945D01*
X10945Y-23798D01*
X11000Y-23664D01*
X11055Y-23797D01*
X11202Y-23945D01*
X11395Y-24025D01*
X11604Y-24025D01*
X11797Y-23945D01*
X11945Y-23798D01*
X12025Y-23605D01*
X12025Y-23396D01*
X11945Y-23203D01*
X11798Y-23055D01*
X11605Y-22975D01*
X11396Y-22975D01*
X11203Y-23055D01*
X11055Y-23202D01*
X10999Y-23335D01*
X10945Y-23203D01*
X10798Y-23055D01*
X10790Y-23051D01*
X10790Y-23000D01*
X10768Y-22889D01*
X10705Y-22795D01*
X09925Y-22015D01*
X09925Y-21916D01*
X09861Y-21760D01*
X09741Y-21640D01*
X09585Y-21575D01*
X09416Y-21575D01*
X09260Y-21639D01*
X09140Y-21759D01*
X09075Y-21915D01*
X09075Y-22084D01*
X09139Y-22240D01*
X09259Y-22360D01*
X09415Y-22425D01*
X09515Y-22425D01*
X10173Y-23083D01*
X10055Y-23202D01*
X09999Y-23335D01*
X09945Y-23203D01*
X09798Y-23055D01*
X09605Y-22975D01*
X09396Y-22975D01*
X09203Y-23055D01*
X09055Y-23202D01*
X08999Y-23335D01*
X08945Y-23203D01*
X08798Y-23055D01*
X08605Y-22975D01*
X08396Y-22975D01*
X08203Y-23055D01*
X08055Y-23202D01*
X07999Y-23335D01*
X07945Y-23203D01*
X07798Y-23055D01*
X07605Y-22975D01*
X07396Y-22975D01*
X07203Y-23055D01*
X07055Y-23202D01*
X06999Y-23335D01*
X06945Y-23203D01*
X06826Y-23083D01*
X07485Y-22425D01*
X07584Y-22425D01*
X07740Y-22361D01*
X07860Y-22241D01*
X07925Y-22085D01*
X07925Y-21916D01*
X07861Y-21760D01*
X07741Y-21640D01*
X07585Y-21575D01*
X07416Y-21575D01*
X07260Y-21639D01*
X07140Y-21759D01*
X07075Y-21915D01*
X07075Y-22015D01*
X06295Y-22795D01*
X06232Y-22889D01*
X06210Y-23000D01*
X06210Y-23052D01*
X06203Y-23055D01*
X06055Y-23202D01*
X06024Y-23276D01*
X06024Y-23176D01*
X05986Y-23084D01*
X05916Y-23014D01*
X05825Y-22976D01*
X05726Y-22976D01*
X05176Y-22976D01*
X05084Y-23014D01*
X05049Y-23049D01*
X05049Y-19951D01*
X05084Y-19986D01*
X05175Y-20024D01*
X05274Y-20024D01*
X05824Y-20024D01*
X05916Y-19986D01*
X05986Y-19916D01*
X06024Y-19825D01*
X06024Y-19726D01*
X06024Y-19722D01*
X06055Y-19797D01*
X06202Y-19945D01*
X06210Y-19948D01*
X06210Y-20100D01*
X06232Y-20211D01*
X06295Y-20305D01*
X07075Y-21085D01*
X07075Y-21184D01*
X07139Y-21340D01*
X07259Y-21460D01*
X07415Y-21525D01*
X07584Y-21525D01*
X07740Y-21461D01*
X07860Y-21341D01*
X07925Y-21185D01*
X07925Y-21016D01*
X07861Y-20860D01*
X07741Y-20740D01*
X07585Y-20675D01*
X07485Y-20675D01*
X06790Y-19980D01*
X06790Y-19947D01*
X06797Y-19945D01*
X06945Y-19798D01*
X07000Y-19664D01*
X07055Y-19797D01*
X07202Y-19945D01*
X07395Y-20025D01*
X07604Y-20025D01*
X07797Y-19945D01*
X07945Y-19798D01*
X08000Y-19664D01*
X08055Y-19797D01*
X08202Y-19945D01*
X08395Y-20025D01*
X08604Y-20025D01*
X08797Y-19945D01*
X08945Y-19798D01*
X09000Y-19664D01*
X09055Y-19797D01*
X09202Y-19945D01*
X09395Y-20025D01*
X09604Y-20025D01*
X09797Y-19945D01*
X09945Y-19798D01*
X10000Y-19664D01*
X10055Y-19797D01*
X10202Y-19945D01*
X10210Y-19948D01*
X10210Y-19980D01*
X09515Y-20675D01*
X09416Y-20675D01*
X09260Y-20739D01*
X09140Y-20859D01*
X09075Y-21015D01*
X09075Y-21184D01*
X09139Y-21340D01*
X09259Y-21460D01*
X09415Y-21525D01*
X09584Y-21525D01*
X09740Y-21461D01*
X09860Y-21341D01*
X09925Y-21185D01*
X09925Y-21085D01*
X10705Y-20305D01*
X10768Y-20211D01*
X10790Y-20100D01*
X10790Y-19947D01*
X10797Y-19945D01*
X10945Y-19798D01*
X11000Y-19664D01*
X11055Y-19797D01*
X11202Y-19945D01*
X11395Y-20025D01*
X11604Y-20025D01*
X11797Y-19945D01*
X11945Y-19798D01*
X12025Y-19605D01*
X12025Y-19396D01*
X11945Y-19203D01*
X11798Y-19055D01*
X11605Y-18975D01*
X11396Y-18975D01*
X11203Y-19055D01*
X11055Y-19202D01*
X10999Y-19335D01*
X10945Y-19203D01*
X10798Y-19055D01*
X10605Y-18975D01*
X10396Y-18975D01*
X10203Y-19055D01*
X10055Y-19202D01*
X09999Y-19335D01*
X09945Y-19203D01*
X09798Y-19055D01*
X09605Y-18975D01*
X09396Y-18975D01*
X09203Y-19055D01*
X09055Y-19202D01*
X08999Y-19335D01*
X08945Y-19203D01*
X08798Y-19055D01*
X08605Y-18975D01*
X08396Y-18975D01*
X08203Y-19055D01*
X08055Y-19202D01*
X07999Y-19335D01*
X07945Y-19203D01*
X07798Y-19055D01*
X07605Y-18975D01*
X07396Y-18975D01*
X07203Y-19055D01*
X07055Y-19202D01*
X06999Y-19335D01*
X06945Y-19203D01*
X06798Y-19055D01*
X06605Y-18975D01*
X06396Y-18975D01*
X06203Y-19055D01*
X06055Y-19202D01*
X06024Y-19276D01*
X06024Y-19176D01*
X05986Y-19084D01*
X05916Y-19014D01*
X05825Y-18976D01*
X05726Y-18976D01*
X05176Y-18976D01*
X05084Y-19014D01*
X05049Y-19049D01*
X05049Y-17951D01*
X05084Y-17986D01*
X05175Y-18024D01*
X05274Y-18024D01*
X05824Y-18024D01*
X05916Y-17986D01*
X05986Y-17916D01*
X06024Y-17825D01*
X06024Y-17726D01*
X06024Y-17722D01*
X06055Y-17797D01*
X06202Y-17945D01*
X06395Y-18025D01*
X06604Y-18025D01*
X06797Y-17945D01*
X06945Y-17798D01*
X07000Y-17664D01*
X07055Y-17797D01*
X07202Y-17945D01*
X07395Y-18025D01*
X07604Y-18025D01*
X07797Y-17945D01*
X07945Y-17798D01*
X08000Y-17664D01*
X08055Y-17797D01*
X08202Y-17945D01*
X08395Y-18025D01*
X08604Y-18025D01*
X08797Y-17945D01*
X08945Y-17798D01*
X09000Y-17664D01*
X09055Y-17797D01*
X09202Y-17945D01*
X09395Y-18025D01*
X09604Y-18025D01*
X09797Y-17945D01*
X09945Y-17798D01*
X10000Y-17664D01*
X10055Y-17797D01*
X10202Y-17945D01*
X10395Y-18025D01*
X10604Y-18025D01*
X10797Y-17945D01*
X10945Y-17798D01*
X11000Y-17664D01*
X11055Y-17797D01*
X11202Y-17945D01*
X11395Y-18025D01*
X11604Y-18025D01*
X11797Y-17945D01*
X11945Y-17798D01*
X12025Y-17605D01*
X12025Y-17396D01*
X11945Y-17203D01*
X11798Y-17055D01*
X11605Y-16975D01*
X11396Y-16975D01*
X11203Y-17055D01*
X11055Y-17202D01*
X10999Y-17335D01*
X10945Y-17203D01*
X10798Y-17055D01*
X10790Y-17051D01*
X10790Y-16900D01*
X10768Y-16789D01*
X10705Y-16695D01*
X09925Y-15915D01*
X09925Y-15816D01*
X09861Y-15660D01*
X09751Y-15550D01*
X09860Y-15441D01*
X09925Y-15285D01*
X09925Y-15185D01*
X10705Y-14405D01*
X10768Y-14311D01*
X10790Y-14200D01*
X10790Y-13947D01*
X10797Y-13945D01*
X10945Y-13798D01*
X11000Y-13664D01*
X11055Y-13797D01*
X11202Y-13945D01*
X11395Y-14025D01*
X11604Y-14025D01*
X11797Y-13945D01*
X11945Y-13798D01*
X12025Y-13605D01*
X12025Y-13396D01*
X11945Y-13203D01*
X11798Y-13055D01*
X11605Y-12975D01*
X11396Y-12975D01*
X11203Y-13055D01*
X11055Y-13202D01*
X10999Y-13335D01*
X10945Y-13203D01*
X10798Y-13055D01*
X10605Y-12975D01*
X10396Y-12975D01*
X10203Y-13055D01*
X10055Y-13202D01*
X09999Y-13335D01*
X09945Y-13203D01*
X09798Y-13055D01*
X09605Y-12975D01*
X09396Y-12975D01*
X09203Y-13055D01*
X09055Y-13202D01*
X08999Y-13335D01*
X08945Y-13203D01*
X08798Y-13055D01*
X08605Y-12975D01*
X08396Y-12975D01*
X08203Y-13055D01*
X08055Y-13202D01*
X07999Y-13335D01*
X07945Y-13203D01*
X07798Y-13055D01*
X07605Y-12975D01*
X07396Y-12975D01*
X07203Y-13055D01*
X07055Y-13202D01*
X06999Y-13335D01*
X06945Y-13203D01*
X06798Y-13055D01*
X06605Y-12975D01*
X06396Y-12975D01*
X06203Y-13055D01*
X06055Y-13202D01*
X06024Y-13276D01*
X06024Y-13176D01*
X05986Y-13084D01*
X05916Y-13014D01*
X05825Y-12976D01*
X05726Y-12976D01*
X05176Y-12976D01*
X05084Y-13014D01*
X05049Y-13049D01*
X05049Y-11951D01*
X05084Y-11986D01*
X05175Y-12024D01*
X05274Y-12024D01*
X05824Y-12024D01*
X05916Y-11986D01*
X05986Y-11916D01*
X06024Y-11825D01*
X06024Y-11726D01*
X06024Y-11722D01*
X06055Y-11797D01*
X06202Y-11945D01*
X06395Y-12025D01*
X06604Y-12025D01*
X06797Y-11945D01*
X06945Y-11798D01*
X07000Y-11664D01*
X07055Y-11797D01*
X07202Y-11945D01*
X07395Y-12025D01*
X07604Y-12025D01*
X07797Y-11945D01*
X07945Y-11798D01*
X08000Y-11664D01*
X08055Y-11797D01*
X08202Y-11945D01*
X08395Y-12025D01*
X08604Y-12025D01*
X08797Y-11945D01*
X08945Y-11798D01*
X09000Y-11664D01*
X09055Y-11797D01*
X09202Y-11945D01*
X09395Y-12025D01*
X09604Y-12025D01*
X09797Y-11945D01*
X09945Y-11798D01*
X10000Y-11664D01*
X10055Y-11797D01*
X10202Y-11945D01*
X10395Y-12025D01*
X10604Y-12025D01*
X10797Y-11945D01*
X10945Y-11798D01*
X11000Y-11664D01*
X11055Y-11797D01*
X11202Y-11945D01*
X11395Y-12025D01*
X11604Y-12025D01*
X11797Y-11945D01*
X11945Y-11798D01*
X12000Y-11664D01*
X12055Y-11797D01*
X12202Y-11945D01*
X12395Y-12025D01*
X12604Y-12025D01*
X12797Y-11945D01*
X12945Y-11798D01*
X13000Y-11664D01*
X13055Y-11797D01*
X13202Y-11945D01*
X13395Y-12025D01*
X13604Y-12025D01*
X13797Y-11945D01*
X13945Y-11798D01*
X14000Y-11664D01*
X14055Y-11797D01*
X14202Y-11945D01*
X14395Y-12025D01*
X14604Y-12025D01*
X14797Y-11945D01*
X14945Y-11798D01*
X15025Y-11605D01*
X15025Y-11396D01*
X14945Y-11203D01*
X14798Y-11055D01*
X14605Y-10975D01*
X14396Y-10975D01*
X14203Y-11055D01*
X14055Y-11202D01*
X13999Y-11335D01*
X13945Y-11203D01*
X13798Y-11055D01*
X13790Y-11051D01*
X13790Y-10250D01*
X13789Y-10249D01*
X13768Y-10139D01*
X13767Y-10138D01*
X13746Y-10107D01*
X13705Y-10045D01*
X13705Y-10044D01*
X12675Y-09014D01*
X12675Y-08916D01*
X12611Y-08760D01*
X12491Y-08640D01*
X12335Y-08575D01*
X12166Y-08575D01*
X12010Y-08639D01*
X11890Y-08759D01*
X11825Y-08915D01*
X11825Y-09084D01*
X11889Y-09240D01*
X12009Y-09360D01*
X12165Y-09425D01*
X12264Y-09425D01*
X13210Y-10370D01*
X13210Y-11052D01*
X13203Y-11055D01*
X13055Y-11202D01*
X12999Y-11335D01*
X12945Y-11203D01*
X12798Y-11055D01*
X12790Y-11051D01*
X12790Y-10750D01*
X12789Y-10749D01*
X12768Y-10639D01*
X12767Y-10638D01*
X12746Y-10607D01*
X12705Y-10545D01*
X12705Y-10544D01*
X11675Y-09514D01*
X11675Y-09416D01*
X11611Y-09260D01*
X11491Y-09140D01*
X11335Y-09075D01*
X11166Y-09075D01*
X11010Y-09139D01*
X10890Y-09259D01*
X10825Y-09415D01*
X10825Y-09584D01*
X10889Y-09740D01*
X11009Y-09860D01*
X11165Y-09925D01*
X11264Y-09925D01*
X12210Y-10870D01*
X12210Y-11052D01*
X12203Y-11055D01*
X12055Y-11202D01*
X11999Y-11335D01*
X11945Y-11203D01*
X11798Y-11055D01*
X11605Y-10975D01*
X11396Y-10975D01*
X11203Y-11055D01*
X11055Y-11202D01*
X10999Y-11335D01*
X10945Y-11203D01*
X10798Y-11055D01*
X10605Y-10975D01*
X10396Y-10975D01*
X10203Y-11055D01*
X10055Y-11202D01*
X09999Y-11335D01*
X09945Y-11203D01*
X09798Y-11055D01*
X09605Y-10975D01*
X09396Y-10975D01*
X09203Y-11055D01*
X09055Y-11202D01*
X08999Y-11335D01*
X08945Y-11203D01*
X08798Y-11055D01*
X08605Y-10975D01*
X08396Y-10975D01*
X08203Y-11055D01*
X08055Y-11202D01*
X07999Y-11335D01*
X07945Y-11203D01*
X07798Y-11055D01*
X07790Y-11051D01*
X07790Y-10870D01*
X08735Y-09925D01*
X08834Y-09925D01*
X08990Y-09861D01*
X09110Y-09741D01*
X09175Y-09585D01*
X09175Y-09416D01*
X09111Y-09260D01*
X08991Y-09140D01*
X08835Y-09075D01*
X08666Y-09075D01*
X08510Y-09139D01*
X08390Y-09259D01*
X08325Y-09415D01*
X08325Y-09514D01*
X07295Y-10545D01*
X07232Y-10639D01*
X07210Y-10750D01*
X07210Y-11052D01*
X07203Y-11055D01*
X07055Y-11202D01*
X06999Y-11335D01*
X06945Y-11203D01*
X06798Y-11055D01*
X06790Y-11051D01*
X06790Y-10370D01*
X07735Y-09425D01*
X07834Y-09425D01*
X07990Y-09361D01*
X08110Y-09241D01*
X08175Y-09085D01*
X08175Y-08916D01*
X08111Y-08760D01*
X07991Y-08640D01*
X07835Y-08575D01*
X07666Y-08575D01*
X07510Y-08639D01*
X07390Y-08759D01*
X07325Y-08915D01*
X07325Y-09014D01*
X06295Y-10045D01*
X06232Y-10139D01*
X06210Y-10250D01*
X06210Y-11052D01*
X06203Y-11055D01*
X06055Y-11202D01*
X06024Y-11276D01*
X06024Y-11176D01*
X05986Y-11084D01*
X05916Y-11014D01*
X05825Y-10976D01*
X05726Y-10976D01*
X05176Y-10976D01*
X05084Y-11014D01*
X05049Y-11049D01*
X05049Y-05951D01*
X05084Y-05986D01*
X05175Y-06024D01*
X05274Y-06024D01*
X05824Y-06024D01*
X05916Y-05986D01*
X05986Y-05916D01*
X06024Y-05825D01*
X06024Y-05726D01*
X06024Y-05722D01*
X06055Y-05797D01*
X06202Y-05945D01*
X06210Y-05948D01*
X06210Y-06750D01*
X06232Y-06861D01*
X06295Y-06955D01*
X07325Y-07985D01*
X07325Y-08084D01*
X07389Y-08240D01*
X07509Y-08360D01*
X07665Y-08425D01*
X07834Y-08425D01*
X07990Y-08361D01*
X08110Y-08241D01*
X08175Y-08085D01*
X08175Y-07916D01*
X08111Y-07760D01*
X07991Y-07640D01*
X07835Y-07575D01*
X07735Y-07575D01*
X06790Y-06629D01*
X06790Y-05947D01*
X06797Y-05945D01*
X06945Y-05798D01*
X07000Y-05664D01*
X07055Y-05797D01*
X07202Y-05945D01*
X07210Y-05948D01*
X07210Y-06250D01*
X07232Y-06361D01*
X07295Y-06455D01*
X08325Y-07485D01*
X08325Y-07584D01*
X08389Y-07740D01*
X08509Y-07860D01*
X08665Y-07925D01*
X08834Y-07925D01*
X08990Y-07861D01*
X09110Y-07741D01*
X09175Y-07585D01*
X09175Y-07416D01*
X09111Y-07260D01*
X08991Y-07140D01*
X08835Y-07075D01*
X08735Y-07075D01*
X07790Y-06129D01*
X07790Y-05947D01*
X07797Y-05945D01*
X07945Y-05798D01*
X08000Y-05664D01*
X08055Y-05797D01*
X08202Y-05945D01*
X08395Y-06025D01*
X08604Y-06025D01*
X08797Y-05945D01*
X08945Y-05798D01*
X09000Y-05664D01*
X09055Y-05797D01*
X09202Y-05945D01*
X09395Y-06025D01*
X09604Y-06025D01*
X09797Y-05945D01*
X09945Y-05798D01*
X10000Y-05664D01*
X10055Y-05797D01*
X10202Y-05945D01*
X10395Y-06025D01*
X10604Y-06025D01*
X10797Y-05945D01*
X10945Y-05798D01*
X11000Y-05664D01*
X11055Y-05797D01*
X11202Y-05945D01*
X11395Y-06025D01*
X11604Y-06025D01*
X11797Y-05945D01*
X11945Y-05798D01*
X12000Y-05664D01*
X12055Y-05797D01*
X12202Y-05945D01*
X12210Y-05948D01*
X12210Y-06129D01*
X11264Y-07075D01*
X11166Y-07075D01*
X11010Y-07139D01*
X10890Y-07259D01*
X10825Y-07415D01*
X10825Y-07584D01*
X10889Y-07740D01*
X11009Y-07860D01*
X11165Y-07925D01*
X11334Y-07925D01*
X11490Y-07861D01*
X11610Y-07741D01*
X11675Y-07585D01*
X11675Y-07485D01*
X12705Y-06456D01*
X12705Y-06455D01*
X12746Y-06393D01*
X12767Y-06362D01*
X12768Y-06361D01*
X12789Y-06251D01*
X12790Y-06250D01*
X12790Y-05947D01*
X12797Y-05945D01*
X12945Y-05798D01*
X13000Y-05664D01*
X13055Y-05797D01*
X13202Y-05945D01*
X13210Y-05948D01*
X13210Y-06629D01*
X12264Y-07575D01*
X12166Y-07575D01*
X12010Y-07639D01*
X11890Y-07759D01*
X11825Y-07915D01*
X11825Y-08084D01*
X11889Y-08240D01*
X12009Y-08360D01*
X12165Y-08425D01*
X12334Y-08425D01*
X12490Y-08361D01*
X12610Y-08241D01*
X12675Y-08085D01*
X12675Y-07985D01*
X13705Y-06956D01*
X13705Y-06955D01*
X13746Y-06893D01*
X13767Y-06862D01*
X13768Y-06861D01*
X13789Y-06751D01*
X13790Y-06750D01*
X13790Y-05947D01*
X13797Y-05945D01*
X13945Y-05798D01*
X14000Y-05664D01*
X14055Y-05797D01*
X14202Y-05945D01*
X14395Y-06025D01*
X14604Y-06025D01*
X14797Y-05945D01*
X14945Y-05798D01*
X15025Y-05605D01*
X15025Y-05396D01*
X14945Y-05203D01*
X14798Y-05055D01*
X14783Y-05049D01*
X17049Y-05049D01*
X17014Y-05084D01*
X16976Y-05175D01*
X16976Y-05274D01*
X16976Y-05824D01*
X17014Y-05916D01*
X17084Y-05986D01*
X17175Y-06024D01*
X17274Y-06024D01*
X17824Y-06024D01*
X17916Y-05986D01*
X17986Y-05916D01*
X18024Y-05825D01*
X18024Y-05726D01*
X18024Y-05722D01*
X18055Y-05797D01*
X18202Y-05945D01*
X18210Y-05948D01*
X18210Y-06200D01*
X18232Y-06311D01*
X18295Y-06405D01*
X19075Y-07185D01*
X19075Y-07284D01*
X19139Y-07440D01*
X19249Y-07550D01*
X19140Y-07659D01*
X19075Y-07815D01*
X19075Y-07915D01*
X18295Y-08695D01*
X18232Y-08789D01*
X18210Y-08900D01*
X18210Y-09052D01*
X18203Y-09055D01*
X18055Y-09202D01*
X18024Y-09276D01*
X18024Y-09176D01*
X17986Y-09084D01*
X17916Y-09014D01*
X17825Y-08976D01*
X17726Y-08976D01*
X17176Y-08976D01*
X17084Y-09014D01*
X17014Y-09084D01*
X16976Y-09175D01*
X16976Y-09274D01*
X16976Y-09824D01*
X17014Y-09916D01*
X17084Y-09986D01*
X17175Y-10024D01*
X17274Y-10024D01*
X17824Y-10024D01*
X17916Y-09986D01*
X17986Y-09916D01*
X18024Y-09825D01*
X18024Y-09726D01*
X18024Y-09722D01*
X18055Y-09797D01*
X18202Y-09945D01*
X18395Y-10025D01*
X18604Y-10025D01*
X18797Y-09945D01*
X18945Y-09798D01*
X19000Y-09664D01*
X19055Y-09797D01*
X19202Y-09945D01*
X19395Y-10025D01*
X19604Y-10025D01*
X19797Y-09945D01*
X19945Y-09798D01*
X20000Y-09664D01*
X20055Y-09797D01*
X20202Y-09945D01*
X20395Y-10025D01*
X20604Y-10025D01*
X20797Y-09945D01*
X20945Y-09798D01*
X21000Y-09664D01*
X21055Y-09797D01*
X21202Y-09945D01*
X21395Y-10025D01*
X21604Y-10025D01*
X21797Y-09945D01*
X21945Y-09798D01*
X22000Y-09664D01*
X22055Y-09797D01*
X22202Y-09945D01*
X22395Y-10025D01*
X22604Y-10025D01*
X22797Y-09945D01*
X22945Y-09798D01*
X23000Y-09664D01*
X23055Y-09797D01*
X23202Y-09945D01*
X23395Y-10025D01*
X23604Y-10025D01*
X23797Y-09945D01*
X23945Y-09798D01*
X24025Y-09605D01*
X24025Y-09396D01*
X23945Y-09203D01*
X23798Y-09055D01*
X23605Y-08975D01*
X23396Y-08975D01*
X23203Y-09055D01*
X23055Y-09202D01*
X22999Y-09335D01*
X22945Y-09203D01*
X22798Y-09055D01*
X22790Y-09051D01*
X22790Y-08900D01*
X22768Y-08789D01*
X22705Y-08695D01*
X21925Y-07915D01*
X21925Y-07816D01*
X21861Y-07660D01*
X21751Y-07550D01*
X21860Y-07441D01*
X21925Y-07285D01*
X21925Y-07185D01*
X22705Y-06405D01*
X22768Y-06311D01*
X22790Y-06200D01*
X22790Y-05947D01*
X22797Y-05945D01*
X22945Y-05798D01*
X23000Y-05664D01*
X23055Y-05797D01*
X23202Y-05945D01*
X23395Y-06025D01*
X23604Y-06025D01*
X23797Y-05945D01*
X23945Y-05798D01*
X24025Y-05605D01*
X24025Y-05396D01*
X23945Y-05203D01*
X23798Y-05055D01*
X23783Y-05049D01*
X24084Y-05049D01*
X24084Y-24084D01*
X24084Y-24084D01*
G37*
G54D15*
X24084Y-24084D02*
X24025Y-24084D01*
X24025Y-23605D01*
X24025Y-23396D01*
X24025Y-17605D01*
X24025Y-17396D01*
X24025Y-15605D01*
X24025Y-15396D01*
X23945Y-15203D01*
X23798Y-15055D01*
X23605Y-14975D01*
X23396Y-14975D01*
X23203Y-15055D01*
X23055Y-15202D01*
X22999Y-15335D01*
X22945Y-15203D01*
X22798Y-15055D01*
X22790Y-15051D01*
X22790Y-14900D01*
X22768Y-14789D01*
X22705Y-14695D01*
X21925Y-13915D01*
X21925Y-13816D01*
X21861Y-13660D01*
X21751Y-13550D01*
X21860Y-13441D01*
X21925Y-13285D01*
X21925Y-13185D01*
X22705Y-12405D01*
X22768Y-12311D01*
X22790Y-12200D01*
X22790Y-11947D01*
X22797Y-11945D01*
X22945Y-11798D01*
X23000Y-11664D01*
X23055Y-11797D01*
X23202Y-11945D01*
X23395Y-12025D01*
X23604Y-12025D01*
X23797Y-11945D01*
X23945Y-11798D01*
X24025Y-11605D01*
X24025Y-11396D01*
X23945Y-11203D01*
X23798Y-11055D01*
X23605Y-10975D01*
X23396Y-10975D01*
X23203Y-11055D01*
X23055Y-11202D01*
X22999Y-11335D01*
X22945Y-11203D01*
X22798Y-11055D01*
X22605Y-10975D01*
X22396Y-10975D01*
X22203Y-11055D01*
X22055Y-11202D01*
X21999Y-11335D01*
X21945Y-11203D01*
X21798Y-11055D01*
X21605Y-10975D01*
X21396Y-10975D01*
X21203Y-11055D01*
X21055Y-11202D01*
X20999Y-11335D01*
X20945Y-11203D01*
X20798Y-11055D01*
X20605Y-10975D01*
X20396Y-10975D01*
X20203Y-11055D01*
X20055Y-11202D01*
X19999Y-11335D01*
X19945Y-11203D01*
X19798Y-11055D01*
X19605Y-10975D01*
X19396Y-10975D01*
X19203Y-11055D01*
X19055Y-11202D01*
X18999Y-11335D01*
X18945Y-11203D01*
X18798Y-11055D01*
X18605Y-10975D01*
X18396Y-10975D01*
X18203Y-11055D01*
X18055Y-11202D01*
X18024Y-11276D01*
X18024Y-11176D01*
X17986Y-11084D01*
X17916Y-11014D01*
X17825Y-10976D01*
X17726Y-10976D01*
X17176Y-10976D01*
X17084Y-11014D01*
X17014Y-11084D01*
X16976Y-11175D01*
X16976Y-11274D01*
X16976Y-11824D01*
X17014Y-11916D01*
X17084Y-11986D01*
X17175Y-12024D01*
X17274Y-12024D01*
X17824Y-12024D01*
X17916Y-11986D01*
X17986Y-11916D01*
X18024Y-11825D01*
X18024Y-11726D01*
X18024Y-11722D01*
X18055Y-11797D01*
X18202Y-11945D01*
X18210Y-11948D01*
X18210Y-12200D01*
X18232Y-12311D01*
X18295Y-12405D01*
X19075Y-13185D01*
X19075Y-13284D01*
X19139Y-13440D01*
X19249Y-13550D01*
X19140Y-13659D01*
X19075Y-13815D01*
X19075Y-13915D01*
X18295Y-14695D01*
X18232Y-14789D01*
X18210Y-14900D01*
X18210Y-15052D01*
X18203Y-15055D01*
X18055Y-15202D01*
X18024Y-15276D01*
X18024Y-15176D01*
X17986Y-15084D01*
X17916Y-15014D01*
X17825Y-14976D01*
X17726Y-14976D01*
X17176Y-14976D01*
X17084Y-15014D01*
X17014Y-15084D01*
X16976Y-15175D01*
X16976Y-15274D01*
X16976Y-15824D01*
X17014Y-15916D01*
X17084Y-15986D01*
X17175Y-16024D01*
X17274Y-16024D01*
X17824Y-16024D01*
X17916Y-15986D01*
X17986Y-15916D01*
X18024Y-15825D01*
X18024Y-15726D01*
X18024Y-15722D01*
X18055Y-15797D01*
X18202Y-15945D01*
X18395Y-16025D01*
X18604Y-16025D01*
X18797Y-15945D01*
X18945Y-15798D01*
X19000Y-15664D01*
X19055Y-15797D01*
X19202Y-15945D01*
X19395Y-16025D01*
X19604Y-16025D01*
X19797Y-15945D01*
X19945Y-15798D01*
X20000Y-15664D01*
X20055Y-15797D01*
X20202Y-15945D01*
X20395Y-16025D01*
X20604Y-16025D01*
X20797Y-15945D01*
X20945Y-15798D01*
X21000Y-15664D01*
X21055Y-15797D01*
X21202Y-15945D01*
X21395Y-16025D01*
X21604Y-16025D01*
X21797Y-15945D01*
X21945Y-15798D01*
X22000Y-15664D01*
X22055Y-15797D01*
X22202Y-15945D01*
X22395Y-16025D01*
X22604Y-16025D01*
X22797Y-15945D01*
X22945Y-15798D01*
X23000Y-15664D01*
X23055Y-15797D01*
X23202Y-15945D01*
X23395Y-16025D01*
X23604Y-16025D01*
X23797Y-15945D01*
X23945Y-15798D01*
X24025Y-15605D01*
X24025Y-17396D01*
X23945Y-17203D01*
X23798Y-17055D01*
X23605Y-16975D01*
X23396Y-16975D01*
X23203Y-17055D01*
X23055Y-17202D01*
X22999Y-17335D01*
X22945Y-17203D01*
X22798Y-17055D01*
X22605Y-16975D01*
X22396Y-16975D01*
X22203Y-17055D01*
X22055Y-17202D01*
X21999Y-17335D01*
X21945Y-17203D01*
X21798Y-17055D01*
X21605Y-16975D01*
X21396Y-16975D01*
X21203Y-17055D01*
X21055Y-17202D01*
X20999Y-17335D01*
X20945Y-17203D01*
X20798Y-17055D01*
X20605Y-16975D01*
X20396Y-16975D01*
X20203Y-17055D01*
X20055Y-17202D01*
X19999Y-17335D01*
X19945Y-17203D01*
X19798Y-17055D01*
X19605Y-16975D01*
X19396Y-16975D01*
X19203Y-17055D01*
X19055Y-17202D01*
X18999Y-17335D01*
X18945Y-17203D01*
X18798Y-17055D01*
X18605Y-16975D01*
X18396Y-16975D01*
X18203Y-17055D01*
X18055Y-17202D01*
X17999Y-17335D01*
X17945Y-17203D01*
X17798Y-17055D01*
X17605Y-16975D01*
X17396Y-16975D01*
X17203Y-17055D01*
X17055Y-17202D01*
X16999Y-17335D01*
X16945Y-17203D01*
X16798Y-17055D01*
X16605Y-16975D01*
X16396Y-16975D01*
X16203Y-17055D01*
X16055Y-17202D01*
X15999Y-17335D01*
X15945Y-17203D01*
X15798Y-17055D01*
X15605Y-16975D01*
X15396Y-16975D01*
X15203Y-17055D01*
X15055Y-17202D01*
X15024Y-17276D01*
X15024Y-17176D01*
X14986Y-17084D01*
X14916Y-17014D01*
X14825Y-16976D01*
X14726Y-16976D01*
X14176Y-16976D01*
X14084Y-17014D01*
X14014Y-17084D01*
X13976Y-17175D01*
X13976Y-17274D01*
X13976Y-17824D01*
X14014Y-17916D01*
X14084Y-17986D01*
X14175Y-18024D01*
X14274Y-18024D01*
X14824Y-18024D01*
X14916Y-17986D01*
X14986Y-17916D01*
X15024Y-17825D01*
X15024Y-17726D01*
X15024Y-17722D01*
X15055Y-17797D01*
X15202Y-17945D01*
X15210Y-17948D01*
X15210Y-18750D01*
X15232Y-18861D01*
X15295Y-18955D01*
X16325Y-19985D01*
X16325Y-20084D01*
X16389Y-20240D01*
X16509Y-20360D01*
X16665Y-20425D01*
X16834Y-20425D01*
X16990Y-20361D01*
X17110Y-20241D01*
X17175Y-20085D01*
X17175Y-19916D01*
X17111Y-19760D01*
X16991Y-19640D01*
X16835Y-19575D01*
X16735Y-19575D01*
X15790Y-18629D01*
X15790Y-17947D01*
X15797Y-17945D01*
X15945Y-17798D01*
X16000Y-17664D01*
X16055Y-17797D01*
X16202Y-17945D01*
X16210Y-17948D01*
X16210Y-18250D01*
X16232Y-18361D01*
X16295Y-18455D01*
X17325Y-19485D01*
X17325Y-19584D01*
X17389Y-19740D01*
X17509Y-19860D01*
X17665Y-19925D01*
X17834Y-19925D01*
X17990Y-19861D01*
X18110Y-19741D01*
X18175Y-19585D01*
X18175Y-19416D01*
X18111Y-19260D01*
X17991Y-19140D01*
X17835Y-19075D01*
X17735Y-19075D01*
X16790Y-18129D01*
X16790Y-17947D01*
X16797Y-17945D01*
X16945Y-17798D01*
X17000Y-17664D01*
X17055Y-17797D01*
X17202Y-17945D01*
X17395Y-18025D01*
X17604Y-18025D01*
X17797Y-17945D01*
X17945Y-17798D01*
X18000Y-17664D01*
X18055Y-17797D01*
X18202Y-17945D01*
X18395Y-18025D01*
X18604Y-18025D01*
X18797Y-17945D01*
X18945Y-17798D01*
X19000Y-17664D01*
X19055Y-17797D01*
X19202Y-17945D01*
X19395Y-18025D01*
X19604Y-18025D01*
X19797Y-17945D01*
X19945Y-17798D01*
X20000Y-17664D01*
X20055Y-17797D01*
X20202Y-17945D01*
X20395Y-18025D01*
X20604Y-18025D01*
X20797Y-17945D01*
X20945Y-17798D01*
X21000Y-17664D01*
X21055Y-17797D01*
X21202Y-17945D01*
X21210Y-17948D01*
X21210Y-18129D01*
X20264Y-19075D01*
X20166Y-19075D01*
X20010Y-19139D01*
X19890Y-19259D01*
X19825Y-19415D01*
X19825Y-19584D01*
X19889Y-19740D01*
X20009Y-19860D01*
X20165Y-19925D01*
X20334Y-19925D01*
X20490Y-19861D01*
X20610Y-19741D01*
X20675Y-19585D01*
X20675Y-19485D01*
X21705Y-18456D01*
X21705Y-18455D01*
X21746Y-18393D01*
X21767Y-18362D01*
X21768Y-18361D01*
X21789Y-18251D01*
X21790Y-18250D01*
X21790Y-17947D01*
X21797Y-17945D01*
X21945Y-17798D01*
X22000Y-17664D01*
X22055Y-17797D01*
X22202Y-17945D01*
X22210Y-17948D01*
X22210Y-18629D01*
X21264Y-19575D01*
X21166Y-19575D01*
X21010Y-19639D01*
X20890Y-19759D01*
X20825Y-19915D01*
X20825Y-20084D01*
X20889Y-20240D01*
X21009Y-20360D01*
X21165Y-20425D01*
X21334Y-20425D01*
X21490Y-20361D01*
X21610Y-20241D01*
X21675Y-20085D01*
X21675Y-19985D01*
X22705Y-18956D01*
X22705Y-18955D01*
X22746Y-18893D01*
X22767Y-18862D01*
X22768Y-18861D01*
X22789Y-18751D01*
X22790Y-18750D01*
X22790Y-17947D01*
X22797Y-17945D01*
X22945Y-17798D01*
X23000Y-17664D01*
X23055Y-17797D01*
X23202Y-17945D01*
X23395Y-18025D01*
X23604Y-18025D01*
X23797Y-17945D01*
X23945Y-17798D01*
X24025Y-17605D01*
X24025Y-23396D01*
X23945Y-23203D01*
X23798Y-23055D01*
X23605Y-22975D01*
X23396Y-22975D01*
X23203Y-23055D01*
X23055Y-23202D01*
X22999Y-23335D01*
X22945Y-23203D01*
X22798Y-23055D01*
X22790Y-23051D01*
X22790Y-22250D01*
X22789Y-22249D01*
X22768Y-22139D01*
X22767Y-22138D01*
X22746Y-22107D01*
X22705Y-22045D01*
X22705Y-22044D01*
X21675Y-21014D01*
X21675Y-20916D01*
X21611Y-20760D01*
X21491Y-20640D01*
X21335Y-20575D01*
X21166Y-20575D01*
X21010Y-20639D01*
X20890Y-20759D01*
X20825Y-20915D01*
X20825Y-21084D01*
X20889Y-21240D01*
X21009Y-21360D01*
X21165Y-21425D01*
X21264Y-21425D01*
X22210Y-22370D01*
X22210Y-23052D01*
X22203Y-23055D01*
X22055Y-23202D01*
X21999Y-23335D01*
X21945Y-23203D01*
X21798Y-23055D01*
X21790Y-23051D01*
X21790Y-22750D01*
X21789Y-22749D01*
X21768Y-22639D01*
X21767Y-22638D01*
X21746Y-22607D01*
X21705Y-22545D01*
X21705Y-22544D01*
X20675Y-21514D01*
X20675Y-21416D01*
X20611Y-21260D01*
X20491Y-21140D01*
X20335Y-21075D01*
X20166Y-21075D01*
X20010Y-21139D01*
X19890Y-21259D01*
X19825Y-21415D01*
X19825Y-21584D01*
X19889Y-21740D01*
X20009Y-21860D01*
X20165Y-21925D01*
X20264Y-21925D01*
X21210Y-22870D01*
X21210Y-23052D01*
X21203Y-23055D01*
X21055Y-23202D01*
X20999Y-23335D01*
X20945Y-23203D01*
X20798Y-23055D01*
X20605Y-22975D01*
X20396Y-22975D01*
X20203Y-23055D01*
X20055Y-23202D01*
X19999Y-23335D01*
X19945Y-23203D01*
X19798Y-23055D01*
X19605Y-22975D01*
X19396Y-22975D01*
X19203Y-23055D01*
X19055Y-23202D01*
X18999Y-23335D01*
X18945Y-23203D01*
X18798Y-23055D01*
X18605Y-22975D01*
X18396Y-22975D01*
X18203Y-23055D01*
X18055Y-23202D01*
X17999Y-23335D01*
X17945Y-23203D01*
X17798Y-23055D01*
X17605Y-22975D01*
X17396Y-22975D01*
X17203Y-23055D01*
X17055Y-23202D01*
X16999Y-23335D01*
X16945Y-23203D01*
X16798Y-23055D01*
X16790Y-23051D01*
X16790Y-22870D01*
X17735Y-21925D01*
X17834Y-21925D01*
X17990Y-21861D01*
X18110Y-21741D01*
X18175Y-21585D01*
X18175Y-21416D01*
X18111Y-21260D01*
X17991Y-21140D01*
X17835Y-21075D01*
X17666Y-21075D01*
X17510Y-21139D01*
X17390Y-21259D01*
X17325Y-21415D01*
X17325Y-21514D01*
X16295Y-22545D01*
X16232Y-22639D01*
X16210Y-22750D01*
X16210Y-23052D01*
X16203Y-23055D01*
X16055Y-23202D01*
X15999Y-23335D01*
X15945Y-23203D01*
X15798Y-23055D01*
X15790Y-23051D01*
X15790Y-22370D01*
X16735Y-21425D01*
X16834Y-21425D01*
X16990Y-21361D01*
X17110Y-21241D01*
X17175Y-21085D01*
X17175Y-20916D01*
X17111Y-20760D01*
X16991Y-20640D01*
X16835Y-20575D01*
X16666Y-20575D01*
X16510Y-20639D01*
X16390Y-20759D01*
X16325Y-20915D01*
X16325Y-21014D01*
X15295Y-22045D01*
X15232Y-22139D01*
X15210Y-22250D01*
X15210Y-23052D01*
X15203Y-23055D01*
X15055Y-23202D01*
X15024Y-23276D01*
X15024Y-23176D01*
X14986Y-23084D01*
X14916Y-23014D01*
X14825Y-22976D01*
X14726Y-22976D01*
X14176Y-22976D01*
X14084Y-23014D01*
X14014Y-23084D01*
X13976Y-23175D01*
X13976Y-23274D01*
X13976Y-23824D01*
X14014Y-23916D01*
X14084Y-23986D01*
X14175Y-24024D01*
X14274Y-24024D01*
X14824Y-24024D01*
X14916Y-23986D01*
X14986Y-23916D01*
X15024Y-23825D01*
X15024Y-23726D01*
X15024Y-23722D01*
X15055Y-23797D01*
X15202Y-23945D01*
X15395Y-24025D01*
X15604Y-24025D01*
X15797Y-23945D01*
X15945Y-23798D01*
X16000Y-23664D01*
X16055Y-23797D01*
X16202Y-23945D01*
X16395Y-24025D01*
X16604Y-24025D01*
X16797Y-23945D01*
X16945Y-23798D01*
X17000Y-23664D01*
X17055Y-23797D01*
X17202Y-23945D01*
X17395Y-24025D01*
X17604Y-24025D01*
X17797Y-23945D01*
X17945Y-23798D01*
X18000Y-23664D01*
X18055Y-23797D01*
X18202Y-23945D01*
X18395Y-24025D01*
X18604Y-24025D01*
X18797Y-23945D01*
X18945Y-23798D01*
X19000Y-23664D01*
X19055Y-23797D01*
X19202Y-23945D01*
X19395Y-24025D01*
X19604Y-24025D01*
X19797Y-23945D01*
X19945Y-23798D01*
X20000Y-23664D01*
X20055Y-23797D01*
X20202Y-23945D01*
X20395Y-24025D01*
X20604Y-24025D01*
X20797Y-23945D01*
X20945Y-23798D01*
X21000Y-23664D01*
X21055Y-23797D01*
X21202Y-23945D01*
X21395Y-24025D01*
X21604Y-24025D01*
X21797Y-23945D01*
X21945Y-23798D01*
X22000Y-23664D01*
X22055Y-23797D01*
X22202Y-23945D01*
X22395Y-24025D01*
X22604Y-24025D01*
X22797Y-23945D01*
X22945Y-23798D01*
X23000Y-23664D01*
X23055Y-23797D01*
X23202Y-23945D01*
X23395Y-24025D01*
X23604Y-24025D01*
X23797Y-23945D01*
X23945Y-23798D01*
X24025Y-23605D01*
X24025Y-24084D01*
X05049Y-24084D01*
X05049Y-23951D01*
X05084Y-23986D01*
X05175Y-24024D01*
X05274Y-24024D01*
X05824Y-24024D01*
X05916Y-23986D01*
X05986Y-23916D01*
X06024Y-23825D01*
X06024Y-23726D01*
X06024Y-23722D01*
X06055Y-23797D01*
X06202Y-23945D01*
X06395Y-24025D01*
X06604Y-24025D01*
X06797Y-23945D01*
X06945Y-23798D01*
X07000Y-23664D01*
X07055Y-23797D01*
X07202Y-23945D01*
X07395Y-24025D01*
X07604Y-24025D01*
X07797Y-23945D01*
X07945Y-23798D01*
X08000Y-23664D01*
X08055Y-23797D01*
X08202Y-23945D01*
X08395Y-24025D01*
X08604Y-24025D01*
X08797Y-23945D01*
X08945Y-23798D01*
X09000Y-23664D01*
X09055Y-23797D01*
X09202Y-23945D01*
X09395Y-24025D01*
X09604Y-24025D01*
X09797Y-23945D01*
X09945Y-23798D01*
X10000Y-23664D01*
X10055Y-23797D01*
X10202Y-23945D01*
X10395Y-24025D01*
X10604Y-24025D01*
X10797Y-23945D01*
X10945Y-23798D01*
X11000Y-23664D01*
X11055Y-23797D01*
X11202Y-23945D01*
X11395Y-24025D01*
X11604Y-24025D01*
X11797Y-23945D01*
X11945Y-23798D01*
X12025Y-23605D01*
X12025Y-23396D01*
X11945Y-23203D01*
X11798Y-23055D01*
X11605Y-22975D01*
X11396Y-22975D01*
X11203Y-23055D01*
X11055Y-23202D01*
X10999Y-23335D01*
X10945Y-23203D01*
X10798Y-23055D01*
X10790Y-23051D01*
X10790Y-23000D01*
X10768Y-22889D01*
X10705Y-22795D01*
X09925Y-22015D01*
X09925Y-21916D01*
X09861Y-21760D01*
X09741Y-21640D01*
X09585Y-21575D01*
X09416Y-21575D01*
X09260Y-21639D01*
X09140Y-21759D01*
X09075Y-21915D01*
X09075Y-22084D01*
X09139Y-22240D01*
X09259Y-22360D01*
X09415Y-22425D01*
X09515Y-22425D01*
X10173Y-23083D01*
X10055Y-23202D01*
X09999Y-23335D01*
X09945Y-23203D01*
X09798Y-23055D01*
X09605Y-22975D01*
X09396Y-22975D01*
X09203Y-23055D01*
X09055Y-23202D01*
X08999Y-23335D01*
X08945Y-23203D01*
X08798Y-23055D01*
X08605Y-22975D01*
X08396Y-22975D01*
X08203Y-23055D01*
X08055Y-23202D01*
X07999Y-23335D01*
X07945Y-23203D01*
X07798Y-23055D01*
X07605Y-22975D01*
X07396Y-22975D01*
X07203Y-23055D01*
X07055Y-23202D01*
X06999Y-23335D01*
X06945Y-23203D01*
X06826Y-23083D01*
X07485Y-22425D01*
X07584Y-22425D01*
X07740Y-22361D01*
X07860Y-22241D01*
X07925Y-22085D01*
X07925Y-21916D01*
X07861Y-21760D01*
X07741Y-21640D01*
X07585Y-21575D01*
X07416Y-21575D01*
X07260Y-21639D01*
X07140Y-21759D01*
X07075Y-21915D01*
X07075Y-22015D01*
X06295Y-22795D01*
X06232Y-22889D01*
X06210Y-23000D01*
X06210Y-23052D01*
X06203Y-23055D01*
X06055Y-23202D01*
X06024Y-23276D01*
X06024Y-23176D01*
X05986Y-23084D01*
X05916Y-23014D01*
X05825Y-22976D01*
X05726Y-22976D01*
X05176Y-22976D01*
X05084Y-23014D01*
X05049Y-23049D01*
X05049Y-19951D01*
X05084Y-19986D01*
X05175Y-20024D01*
X05274Y-20024D01*
X05824Y-20024D01*
X05916Y-19986D01*
X05986Y-19916D01*
X06024Y-19825D01*
X06024Y-19726D01*
X06024Y-19722D01*
X06055Y-19797D01*
X06202Y-19945D01*
X06210Y-19948D01*
X06210Y-20100D01*
X06232Y-20211D01*
X06295Y-20305D01*
X07075Y-21085D01*
X07075Y-21184D01*
X07139Y-21340D01*
X07259Y-21460D01*
X07415Y-21525D01*
X07584Y-21525D01*
X07740Y-21461D01*
X07860Y-21341D01*
X07925Y-21185D01*
X07925Y-21016D01*
X07861Y-20860D01*
X07741Y-20740D01*
X07585Y-20675D01*
X07485Y-20675D01*
X06790Y-19980D01*
X06790Y-19947D01*
X06797Y-19945D01*
X06945Y-19798D01*
X07000Y-19664D01*
X07055Y-19797D01*
X07202Y-19945D01*
X07395Y-20025D01*
X07604Y-20025D01*
X07797Y-19945D01*
X07945Y-19798D01*
X08000Y-19664D01*
X08055Y-19797D01*
X08202Y-19945D01*
X08395Y-20025D01*
X08604Y-20025D01*
X08797Y-19945D01*
X08945Y-19798D01*
X09000Y-19664D01*
X09055Y-19797D01*
X09202Y-19945D01*
X09395Y-20025D01*
X09604Y-20025D01*
X09797Y-19945D01*
X09945Y-19798D01*
X10000Y-19664D01*
X10055Y-19797D01*
X10202Y-19945D01*
X10210Y-19948D01*
X10210Y-19980D01*
X09515Y-20675D01*
X09416Y-20675D01*
X09260Y-20739D01*
X09140Y-20859D01*
X09075Y-21015D01*
X09075Y-21184D01*
X09139Y-21340D01*
X09259Y-21460D01*
X09415Y-21525D01*
X09584Y-21525D01*
X09740Y-21461D01*
X09860Y-21341D01*
X09925Y-21185D01*
X09925Y-21085D01*
X10705Y-20305D01*
X10768Y-20211D01*
X10790Y-20100D01*
X10790Y-19947D01*
X10797Y-19945D01*
X10945Y-19798D01*
X11000Y-19664D01*
X11055Y-19797D01*
X11202Y-19945D01*
X11395Y-20025D01*
X11604Y-20025D01*
X11797Y-19945D01*
X11945Y-19798D01*
X12025Y-19605D01*
X12025Y-19396D01*
X11945Y-19203D01*
X11798Y-19055D01*
X11605Y-18975D01*
X11396Y-18975D01*
X11203Y-19055D01*
X11055Y-19202D01*
X10999Y-19335D01*
X10945Y-19203D01*
X10798Y-19055D01*
X10605Y-18975D01*
X10396Y-18975D01*
X10203Y-19055D01*
X10055Y-19202D01*
X09999Y-19335D01*
X09945Y-19203D01*
X09798Y-19055D01*
X09605Y-18975D01*
X09396Y-18975D01*
X09203Y-19055D01*
X09055Y-19202D01*
X08999Y-19335D01*
X08945Y-19203D01*
X08798Y-19055D01*
X08605Y-18975D01*
X08396Y-18975D01*
X08203Y-19055D01*
X08055Y-19202D01*
X07999Y-19335D01*
X07945Y-19203D01*
X07798Y-19055D01*
X07605Y-18975D01*
X07396Y-18975D01*
X07203Y-19055D01*
X07055Y-19202D01*
X06999Y-19335D01*
X06945Y-19203D01*
X06798Y-19055D01*
X06605Y-18975D01*
X06396Y-18975D01*
X06203Y-19055D01*
X06055Y-19202D01*
X06024Y-19276D01*
X06024Y-19176D01*
X05986Y-19084D01*
X05916Y-19014D01*
X05825Y-18976D01*
X05726Y-18976D01*
X05176Y-18976D01*
X05084Y-19014D01*
X05049Y-19049D01*
X05049Y-17951D01*
X05084Y-17986D01*
X05175Y-18024D01*
X05274Y-18024D01*
X05824Y-18024D01*
X05916Y-17986D01*
X05986Y-17916D01*
X06024Y-17825D01*
X06024Y-17726D01*
X06024Y-17722D01*
X06055Y-17797D01*
X06202Y-17945D01*
X06395Y-18025D01*
X06604Y-18025D01*
X06797Y-17945D01*
X06945Y-17798D01*
X07000Y-17664D01*
X07055Y-17797D01*
X07202Y-17945D01*
X07395Y-18025D01*
X07604Y-18025D01*
X07797Y-17945D01*
X07945Y-17798D01*
X08000Y-17664D01*
X08055Y-17797D01*
X08202Y-17945D01*
X08395Y-18025D01*
X08604Y-18025D01*
X08797Y-17945D01*
X08945Y-17798D01*
X09000Y-17664D01*
X09055Y-17797D01*
X09202Y-17945D01*
X09395Y-18025D01*
X09604Y-18025D01*
X09797Y-17945D01*
X09945Y-17798D01*
X10000Y-17664D01*
X10055Y-17797D01*
X10202Y-17945D01*
X10395Y-18025D01*
X10604Y-18025D01*
X10797Y-17945D01*
X10945Y-17798D01*
X11000Y-17664D01*
X11055Y-17797D01*
X11202Y-17945D01*
X11395Y-18025D01*
X11604Y-18025D01*
X11797Y-17945D01*
X11945Y-17798D01*
X12025Y-17605D01*
X12025Y-17396D01*
X11945Y-17203D01*
X11798Y-17055D01*
X11605Y-16975D01*
X11396Y-16975D01*
X11203Y-17055D01*
X11055Y-17202D01*
X10999Y-17335D01*
X10945Y-17203D01*
X10798Y-17055D01*
X10790Y-17051D01*
X10790Y-16900D01*
X10768Y-16789D01*
X10705Y-16695D01*
X09925Y-15915D01*
X09925Y-15816D01*
X09861Y-15660D01*
X09751Y-15550D01*
X09860Y-15441D01*
X09925Y-15285D01*
X09925Y-15185D01*
X10705Y-14405D01*
X10768Y-14311D01*
X10790Y-14200D01*
X10790Y-13947D01*
X10797Y-13945D01*
X10945Y-13798D01*
X11000Y-13664D01*
X11055Y-13797D01*
X11202Y-13945D01*
X11395Y-14025D01*
X11604Y-14025D01*
X11797Y-13945D01*
X11945Y-13798D01*
X12025Y-13605D01*
X12025Y-13396D01*
X11945Y-13203D01*
X11798Y-13055D01*
X11605Y-12975D01*
X11396Y-12975D01*
X11203Y-13055D01*
X11055Y-13202D01*
X10999Y-13335D01*
X10945Y-13203D01*
X10798Y-13055D01*
X10605Y-12975D01*
X10396Y-12975D01*
X10203Y-13055D01*
X10055Y-13202D01*
X09999Y-13335D01*
X09945Y-13203D01*
X09798Y-13055D01*
X09605Y-12975D01*
X09396Y-12975D01*
X09203Y-13055D01*
X09055Y-13202D01*
X08999Y-13335D01*
X08945Y-13203D01*
X08798Y-13055D01*
X08605Y-12975D01*
X08396Y-12975D01*
X08203Y-13055D01*
X08055Y-13202D01*
X07999Y-13335D01*
X07945Y-13203D01*
X07798Y-13055D01*
X07605Y-12975D01*
X07396Y-12975D01*
X07203Y-13055D01*
X07055Y-13202D01*
X06999Y-13335D01*
X06945Y-13203D01*
X06798Y-13055D01*
X06605Y-12975D01*
X06396Y-12975D01*
X06203Y-13055D01*
X06055Y-13202D01*
X06024Y-13276D01*
X06024Y-13176D01*
X05986Y-13084D01*
X05916Y-13014D01*
X05825Y-12976D01*
X05726Y-12976D01*
X05176Y-12976D01*
X05084Y-13014D01*
X05049Y-13049D01*
X05049Y-11951D01*
X05084Y-11986D01*
X05175Y-12024D01*
X05274Y-12024D01*
X05824Y-12024D01*
X05916Y-11986D01*
X05986Y-11916D01*
X06024Y-11825D01*
X06024Y-11726D01*
X06024Y-11722D01*
X06055Y-11797D01*
X06202Y-11945D01*
X06395Y-12025D01*
X06604Y-12025D01*
X06797Y-11945D01*
X06945Y-11798D01*
X07000Y-11664D01*
X07055Y-11797D01*
X07202Y-11945D01*
X07395Y-12025D01*
X07604Y-12025D01*
X07797Y-11945D01*
X07945Y-11798D01*
X08000Y-11664D01*
X08055Y-11797D01*
X08202Y-11945D01*
X08395Y-12025D01*
X08604Y-12025D01*
X08797Y-11945D01*
X08945Y-11798D01*
X09000Y-11664D01*
X09055Y-11797D01*
X09202Y-11945D01*
X09395Y-12025D01*
X09604Y-12025D01*
X09797Y-11945D01*
X09945Y-11798D01*
X10000Y-11664D01*
X10055Y-11797D01*
X10202Y-11945D01*
X10395Y-12025D01*
X10604Y-12025D01*
X10797Y-11945D01*
X10945Y-11798D01*
X11000Y-11664D01*
X11055Y-11797D01*
X11202Y-11945D01*
X11395Y-12025D01*
X11604Y-12025D01*
X11797Y-11945D01*
X11945Y-11798D01*
X12000Y-11664D01*
X12055Y-11797D01*
X12202Y-11945D01*
X12395Y-12025D01*
X12604Y-12025D01*
X12797Y-11945D01*
X12945Y-11798D01*
X13000Y-11664D01*
X13055Y-11797D01*
X13202Y-11945D01*
X13395Y-12025D01*
X13604Y-12025D01*
X13797Y-11945D01*
X13945Y-11798D01*
X14000Y-11664D01*
X14055Y-11797D01*
X14202Y-11945D01*
X14395Y-12025D01*
X14604Y-12025D01*
X14797Y-11945D01*
X14945Y-11798D01*
X15025Y-11605D01*
X15025Y-11396D01*
X14945Y-11203D01*
X14798Y-11055D01*
X14605Y-10975D01*
X14396Y-10975D01*
X14203Y-11055D01*
X14055Y-11202D01*
X13999Y-11335D01*
X13945Y-11203D01*
X13798Y-11055D01*
X13790Y-11051D01*
X13790Y-10250D01*
X13789Y-10249D01*
X13768Y-10139D01*
X13767Y-10138D01*
X13746Y-10107D01*
X13705Y-10045D01*
X13705Y-10044D01*
X12675Y-09014D01*
X12675Y-08916D01*
X12611Y-08760D01*
X12491Y-08640D01*
X12335Y-08575D01*
X12166Y-08575D01*
X12010Y-08639D01*
X11890Y-08759D01*
X11825Y-08915D01*
X11825Y-09084D01*
X11889Y-09240D01*
X12009Y-09360D01*
X12165Y-09425D01*
X12264Y-09425D01*
X13210Y-10370D01*
X13210Y-11052D01*
X13203Y-11055D01*
X13055Y-11202D01*
X12999Y-11335D01*
X12945Y-11203D01*
X12798Y-11055D01*
X12790Y-11051D01*
X12790Y-10750D01*
X12789Y-10749D01*
X12768Y-10639D01*
X12767Y-10638D01*
X12746Y-10607D01*
X12705Y-10545D01*
X12705Y-10544D01*
X11675Y-09514D01*
X11675Y-09416D01*
X11611Y-09260D01*
X11491Y-09140D01*
X11335Y-09075D01*
X11166Y-09075D01*
X11010Y-09139D01*
X10890Y-09259D01*
X10825Y-09415D01*
X10825Y-09584D01*
X10889Y-09740D01*
X11009Y-09860D01*
X11165Y-09925D01*
X11264Y-09925D01*
X12210Y-10870D01*
X12210Y-11052D01*
X12203Y-11055D01*
X12055Y-11202D01*
X11999Y-11335D01*
X11945Y-11203D01*
X11798Y-11055D01*
X11605Y-10975D01*
X11396Y-10975D01*
X11203Y-11055D01*
X11055Y-11202D01*
X10999Y-11335D01*
X10945Y-11203D01*
X10798Y-11055D01*
X10605Y-10975D01*
X10396Y-10975D01*
X10203Y-11055D01*
X10055Y-11202D01*
X09999Y-11335D01*
X09945Y-11203D01*
X09798Y-11055D01*
X09605Y-10975D01*
X09396Y-10975D01*
X09203Y-11055D01*
X09055Y-11202D01*
X08999Y-11335D01*
X08945Y-11203D01*
X08798Y-11055D01*
X08605Y-10975D01*
X08396Y-10975D01*
X08203Y-11055D01*
X08055Y-11202D01*
X07999Y-11335D01*
X07945Y-11203D01*
X07798Y-11055D01*
X07790Y-11051D01*
X07790Y-10870D01*
X08735Y-09925D01*
X08834Y-09925D01*
X08990Y-09861D01*
X09110Y-09741D01*
X09175Y-09585D01*
X09175Y-09416D01*
X09111Y-09260D01*
X08991Y-09140D01*
X08835Y-09075D01*
X08666Y-09075D01*
X08510Y-09139D01*
X08390Y-09259D01*
X08325Y-09415D01*
X08325Y-09514D01*
X07295Y-10545D01*
X07232Y-10639D01*
X07210Y-10750D01*
X07210Y-11052D01*
X07203Y-11055D01*
X07055Y-11202D01*
X06999Y-11335D01*
X06945Y-11203D01*
X06798Y-11055D01*
X06790Y-11051D01*
X06790Y-10370D01*
X07735Y-09425D01*
X07834Y-09425D01*
X07990Y-09361D01*
X08110Y-09241D01*
X08175Y-09085D01*
X08175Y-08916D01*
X08111Y-08760D01*
X07991Y-08640D01*
X07835Y-08575D01*
X07666Y-08575D01*
X07510Y-08639D01*
X07390Y-08759D01*
X07325Y-08915D01*
X07325Y-09014D01*
X06295Y-10045D01*
X06232Y-10139D01*
X06210Y-10250D01*
X06210Y-11052D01*
X06203Y-11055D01*
X06055Y-11202D01*
X06024Y-11276D01*
X06024Y-11176D01*
X05986Y-11084D01*
X05916Y-11014D01*
X05825Y-10976D01*
X05726Y-10976D01*
X05176Y-10976D01*
X05084Y-11014D01*
X05049Y-11049D01*
X05049Y-05951D01*
X05084Y-05986D01*
X05175Y-06024D01*
X05274Y-06024D01*
X05824Y-06024D01*
X05916Y-05986D01*
X05986Y-05916D01*
X06024Y-05825D01*
X06024Y-05726D01*
X06024Y-05722D01*
X06055Y-05797D01*
X06202Y-05945D01*
X06210Y-05948D01*
X06210Y-06750D01*
X06232Y-06861D01*
X06295Y-06955D01*
X07325Y-07985D01*
X07325Y-08084D01*
X07389Y-08240D01*
X07509Y-08360D01*
X07665Y-08425D01*
X07834Y-08425D01*
X07990Y-08361D01*
X08110Y-08241D01*
X08175Y-08085D01*
X08175Y-07916D01*
X08111Y-07760D01*
X07991Y-07640D01*
X07835Y-07575D01*
X07735Y-07575D01*
X06790Y-06629D01*
X06790Y-05947D01*
X06797Y-05945D01*
X06945Y-05798D01*
X07000Y-05664D01*
X07055Y-05797D01*
X07202Y-05945D01*
X07210Y-05948D01*
X07210Y-06250D01*
X07232Y-06361D01*
X07295Y-06455D01*
X08325Y-07485D01*
X08325Y-07584D01*
X08389Y-07740D01*
X08509Y-07860D01*
X08665Y-07925D01*
X08834Y-07925D01*
X08990Y-07861D01*
X09110Y-07741D01*
X09175Y-07585D01*
X09175Y-07416D01*
X09111Y-07260D01*
X08991Y-07140D01*
X08835Y-07075D01*
X08735Y-07075D01*
X07790Y-06129D01*
X07790Y-05947D01*
X07797Y-05945D01*
X07945Y-05798D01*
X08000Y-05664D01*
X08055Y-05797D01*
X08202Y-05945D01*
X08395Y-06025D01*
X08604Y-06025D01*
X08797Y-05945D01*
X08945Y-05798D01*
X09000Y-05664D01*
X09055Y-05797D01*
X09202Y-05945D01*
X09395Y-06025D01*
X09604Y-06025D01*
X09797Y-05945D01*
X09945Y-05798D01*
X10000Y-05664D01*
X10055Y-05797D01*
X10202Y-05945D01*
X10395Y-06025D01*
X10604Y-06025D01*
X10797Y-05945D01*
X10945Y-05798D01*
X11000Y-05664D01*
X11055Y-05797D01*
X11202Y-05945D01*
X11395Y-06025D01*
X11604Y-06025D01*
X11797Y-05945D01*
X11945Y-05798D01*
X12000Y-05664D01*
X12055Y-05797D01*
X12202Y-05945D01*
X12210Y-05948D01*
X12210Y-06129D01*
X11264Y-07075D01*
X11166Y-07075D01*
X11010Y-07139D01*
X10890Y-07259D01*
X10825Y-07415D01*
X10825Y-07584D01*
X10889Y-07740D01*
X11009Y-07860D01*
X11165Y-07925D01*
X11334Y-07925D01*
X11490Y-07861D01*
X11610Y-07741D01*
X11675Y-07585D01*
X11675Y-07485D01*
X12705Y-06456D01*
X12705Y-06455D01*
X12746Y-06393D01*
X12767Y-06362D01*
X12768Y-06361D01*
X12789Y-06251D01*
X12790Y-06250D01*
X12790Y-05947D01*
X12797Y-05945D01*
X12945Y-05798D01*
X13000Y-05664D01*
X13055Y-05797D01*
X13202Y-05945D01*
X13210Y-05948D01*
X13210Y-06629D01*
X12264Y-07575D01*
X12166Y-07575D01*
X12010Y-07639D01*
X11890Y-07759D01*
X11825Y-07915D01*
X11825Y-08084D01*
X11889Y-08240D01*
X12009Y-08360D01*
X12165Y-08425D01*
X12334Y-08425D01*
X12490Y-08361D01*
X12610Y-08241D01*
X12675Y-08085D01*
X12675Y-07985D01*
X13705Y-06956D01*
X13705Y-06955D01*
X13746Y-06893D01*
X13767Y-06862D01*
X13768Y-06861D01*
X13789Y-06751D01*
X13790Y-06750D01*
X13790Y-05947D01*
X13797Y-05945D01*
X13945Y-05798D01*
X14000Y-05664D01*
X14055Y-05797D01*
X14202Y-05945D01*
X14395Y-06025D01*
X14604Y-06025D01*
X14797Y-05945D01*
X14945Y-05798D01*
X15025Y-05605D01*
X15025Y-05396D01*
X14945Y-05203D01*
X14798Y-05055D01*
X14783Y-05049D01*
X17049Y-05049D01*
X17014Y-05084D01*
X16976Y-05175D01*
X16976Y-05274D01*
X16976Y-05824D01*
X17014Y-05916D01*
X17084Y-05986D01*
X17175Y-06024D01*
X17274Y-06024D01*
X17824Y-06024D01*
X17916Y-05986D01*
X17986Y-05916D01*
X18024Y-05825D01*
X18024Y-05726D01*
X18024Y-05722D01*
X18055Y-05797D01*
X18202Y-05945D01*
X18210Y-05948D01*
X18210Y-06200D01*
X18232Y-06311D01*
X18295Y-06405D01*
X19075Y-07185D01*
X19075Y-07284D01*
X19139Y-07440D01*
X19249Y-07550D01*
X19140Y-07659D01*
X19075Y-07815D01*
X19075Y-07915D01*
X18295Y-08695D01*
X18232Y-08789D01*
X18210Y-08900D01*
X18210Y-09052D01*
X18203Y-09055D01*
X18055Y-09202D01*
X18024Y-09276D01*
X18024Y-09176D01*
X17986Y-09084D01*
X17916Y-09014D01*
X17825Y-08976D01*
X17726Y-08976D01*
X17176Y-08976D01*
X17084Y-09014D01*
X17014Y-09084D01*
X16976Y-09175D01*
X16976Y-09274D01*
X16976Y-09824D01*
X17014Y-09916D01*
X17084Y-09986D01*
X17175Y-10024D01*
X17274Y-10024D01*
X17824Y-10024D01*
X17916Y-09986D01*
X17986Y-09916D01*
X18024Y-09825D01*
X18024Y-09726D01*
X18024Y-09722D01*
X18055Y-09797D01*
X18202Y-09945D01*
X18395Y-10025D01*
X18604Y-10025D01*
X18797Y-09945D01*
X18945Y-09798D01*
X19000Y-09664D01*
X19055Y-09797D01*
X19202Y-09945D01*
X19395Y-10025D01*
X19604Y-10025D01*
X19797Y-09945D01*
X19945Y-09798D01*
X20000Y-09664D01*
X20055Y-09797D01*
X20202Y-09945D01*
X20395Y-10025D01*
X20604Y-10025D01*
X20797Y-09945D01*
X20945Y-09798D01*
X21000Y-09664D01*
X21055Y-09797D01*
X21202Y-09945D01*
X21395Y-10025D01*
X21604Y-10025D01*
X21797Y-09945D01*
X21945Y-09798D01*
X22000Y-09664D01*
X22055Y-09797D01*
X22202Y-09945D01*
X22395Y-10025D01*
X22604Y-10025D01*
X22797Y-09945D01*
X22945Y-09798D01*
X23000Y-09664D01*
X23055Y-09797D01*
X23202Y-09945D01*
X23395Y-10025D01*
X23604Y-10025D01*
X23797Y-09945D01*
X23945Y-09798D01*
X24025Y-09605D01*
X24025Y-09396D01*
X23945Y-09203D01*
X23798Y-09055D01*
X23605Y-08975D01*
X23396Y-08975D01*
X23203Y-09055D01*
X23055Y-09202D01*
X22999Y-09335D01*
X22945Y-09203D01*
X22798Y-09055D01*
X22790Y-09051D01*
X22790Y-08900D01*
X22768Y-08789D01*
X22705Y-08695D01*
X21925Y-07915D01*
X21925Y-07816D01*
X21861Y-07660D01*
X21751Y-07550D01*
X21860Y-07441D01*
X21925Y-07285D01*
X21925Y-07185D01*
X22705Y-06405D01*
X22768Y-06311D01*
X22790Y-06200D01*
X22790Y-05947D01*
X22797Y-05945D01*
X22945Y-05798D01*
X23000Y-05664D01*
X23055Y-05797D01*
X23202Y-05945D01*
X23395Y-06025D01*
X23604Y-06025D01*
X23797Y-05945D01*
X23945Y-05798D01*
X24025Y-05605D01*
X24025Y-05396D01*
X23945Y-05203D01*
X23798Y-05055D01*
X23783Y-05049D01*
X24084Y-05049D01*
X24084Y-24084D01*
M02*
