G04 (created by PCBNEW-RS274X (2011-12-28 BZR 3254)-stable) date 2012. 03. 01. 13:20:44*
G01*
G70*
G90*
%MOIN*%
G04 Gerber Fmt 3.4, Leading zero omitted, Abs format*
%FSLAX34Y34*%
G04 APERTURE LIST*
%ADD10C,0.006000*%
%ADD11R,0.055000X0.055000*%
%ADD12C,0.055000*%
%ADD13C,0.035000*%
%ADD14C,0.008000*%
%ADD15C,0.010000*%
G04 APERTURE END LIST*
G54D10*
G54D11*
X05500Y-11500D03*
G54D12*
X06500Y-11500D03*
X07500Y-11500D03*
X08500Y-11500D03*
X09500Y-11500D03*
X10500Y-11500D03*
X11500Y-11500D03*
X12500Y-11500D03*
X13500Y-11500D03*
X14500Y-11500D03*
G54D11*
X05500Y-05500D03*
G54D12*
X06500Y-05500D03*
X07500Y-05500D03*
X08500Y-05500D03*
X09500Y-05500D03*
X10500Y-05500D03*
X11500Y-05500D03*
X12500Y-05500D03*
X13500Y-05500D03*
X14500Y-05500D03*
G54D11*
X23500Y-14500D03*
G54D12*
X23500Y-13500D03*
X23500Y-12500D03*
X23500Y-11500D03*
X23500Y-10500D03*
X23500Y-09500D03*
X23500Y-08500D03*
X23500Y-07500D03*
X23500Y-06500D03*
X23500Y-05500D03*
G54D11*
X17500Y-14500D03*
G54D12*
X17500Y-13500D03*
X17500Y-12500D03*
X17500Y-11500D03*
X17500Y-10500D03*
X17500Y-09500D03*
X17500Y-08500D03*
X17500Y-07500D03*
X17500Y-06500D03*
X17500Y-05500D03*
G54D11*
X11500Y-23500D03*
G54D12*
X11500Y-22500D03*
X11500Y-21500D03*
X11500Y-20500D03*
X11500Y-19500D03*
X11500Y-18500D03*
X11500Y-17500D03*
X11500Y-16500D03*
X11500Y-15500D03*
X11500Y-14500D03*
G54D11*
X05500Y-23500D03*
G54D12*
X05500Y-22500D03*
X05500Y-21500D03*
X05500Y-20500D03*
X05500Y-19500D03*
X05500Y-18500D03*
X05500Y-17500D03*
X05500Y-16500D03*
X05500Y-15500D03*
X05500Y-14500D03*
G54D11*
X14500Y-23500D03*
G54D12*
X15500Y-23500D03*
X16500Y-23500D03*
X17500Y-23500D03*
X18500Y-23500D03*
X19500Y-23500D03*
X20500Y-23500D03*
X21500Y-23500D03*
X22500Y-23500D03*
X23500Y-23500D03*
G54D11*
X14500Y-17500D03*
G54D12*
X15500Y-17500D03*
X16500Y-17500D03*
X17500Y-17500D03*
X18500Y-17500D03*
X19500Y-17500D03*
X20500Y-17500D03*
X21500Y-17500D03*
X22500Y-17500D03*
X23500Y-17500D03*
G54D13*
X21000Y-07750D03*
X20000Y-12250D03*
X19500Y-11250D03*
X19500Y-08750D03*
X20000Y-07750D03*
X21500Y-11250D03*
X21000Y-12250D03*
X21500Y-08750D03*
X07750Y-09000D03*
X08750Y-09500D03*
X11250Y-09500D03*
X12250Y-09000D03*
X12250Y-08000D03*
X11250Y-07500D03*
X08750Y-07500D03*
X07750Y-08000D03*
X09000Y-16750D03*
X08000Y-21250D03*
X07500Y-20250D03*
X07500Y-17750D03*
X08000Y-16750D03*
X09500Y-20250D03*
X09000Y-21250D03*
X09500Y-17750D03*
X16750Y-21000D03*
X17750Y-21500D03*
X20250Y-21500D03*
X21250Y-21000D03*
X21250Y-20000D03*
X20250Y-19500D03*
X17750Y-19500D03*
X16750Y-20000D03*
G54D14*
X22250Y-06500D02*
X23500Y-06500D01*
X21000Y-07750D02*
X22250Y-06500D01*
X20000Y-12250D02*
X18750Y-13500D01*
X18750Y-13500D02*
X17500Y-13500D01*
X18250Y-12500D02*
X17500Y-12500D01*
X19500Y-11250D02*
X18250Y-12500D01*
X18250Y-07500D02*
X17500Y-07500D01*
X19500Y-08750D02*
X18250Y-07500D01*
X20000Y-07750D02*
X18750Y-06500D01*
X18750Y-06500D02*
X17500Y-06500D01*
X21500Y-11250D02*
X22750Y-12500D01*
X22750Y-12500D02*
X23500Y-12500D01*
X21000Y-12250D02*
X22250Y-13500D01*
X22250Y-13500D02*
X23500Y-13500D01*
X22750Y-07500D02*
X23500Y-07500D01*
X21500Y-08750D02*
X22750Y-07500D01*
X07750Y-09000D02*
X06500Y-10250D01*
X06500Y-10250D02*
X06500Y-11500D01*
X08750Y-09500D02*
X07500Y-10750D01*
X07500Y-10750D02*
X07500Y-11500D01*
X12500Y-10750D02*
X12500Y-11500D01*
X11250Y-09500D02*
X12500Y-10750D01*
X13500Y-10250D02*
X13500Y-11500D01*
X12250Y-09000D02*
X13500Y-10250D01*
X12250Y-08000D02*
X13500Y-06750D01*
X13500Y-06750D02*
X13500Y-05500D01*
X12500Y-06250D02*
X12500Y-05500D01*
X11250Y-07500D02*
X12500Y-06250D01*
X08750Y-07500D02*
X07500Y-06250D01*
X07500Y-06250D02*
X07500Y-05500D01*
X06500Y-06750D02*
X06500Y-05500D01*
X07750Y-08000D02*
X06500Y-06750D01*
X10250Y-15500D02*
X11500Y-15500D01*
X09000Y-16750D02*
X10250Y-15500D01*
X06750Y-22500D02*
X05500Y-22500D01*
X08000Y-21250D02*
X06750Y-22500D01*
X07500Y-20250D02*
X06250Y-21500D01*
X06250Y-21500D02*
X05500Y-21500D01*
X06250Y-16500D02*
X05500Y-16500D01*
X07500Y-17750D02*
X06250Y-16500D01*
X06750Y-15500D02*
X05500Y-15500D01*
X08000Y-16750D02*
X06750Y-15500D01*
X10750Y-21500D02*
X11500Y-21500D01*
X09500Y-20250D02*
X10750Y-21500D01*
X10250Y-22500D02*
X11500Y-22500D01*
X09000Y-21250D02*
X10250Y-22500D01*
X09500Y-17750D02*
X10750Y-16500D01*
X10750Y-16500D02*
X11500Y-16500D01*
X15500Y-22250D02*
X15500Y-23500D01*
X16750Y-21000D02*
X15500Y-22250D01*
X17750Y-21500D02*
X16500Y-22750D01*
X16500Y-22750D02*
X16500Y-23500D01*
X21500Y-22750D02*
X21500Y-23500D01*
X20250Y-21500D02*
X21500Y-22750D01*
X22500Y-22250D02*
X22500Y-23500D01*
X21250Y-21000D02*
X22500Y-22250D01*
X21250Y-20000D02*
X22500Y-18750D01*
X22500Y-18750D02*
X22500Y-17500D01*
X21500Y-18250D02*
X21500Y-17500D01*
X20250Y-19500D02*
X21500Y-18250D01*
X16500Y-18250D02*
X16500Y-17500D01*
X17750Y-19500D02*
X16500Y-18250D01*
X15500Y-18750D02*
X15500Y-17500D01*
X16750Y-20000D02*
X15500Y-18750D01*
G54D10*
G36*
X05276Y-22976D02*
X05176Y-22976D01*
X05084Y-23014D01*
X05049Y-23049D01*
X05049Y-22782D01*
X05055Y-22797D01*
X05202Y-22945D01*
X05276Y-22976D01*
X05276Y-22976D01*
G37*
G54D15*
X05276Y-22976D02*
X05176Y-22976D01*
X05084Y-23014D01*
X05049Y-23049D01*
X05049Y-22782D01*
X05055Y-22797D01*
X05202Y-22945D01*
X05276Y-22976D01*
G54D10*
G36*
X05335Y-15000D02*
X05203Y-15055D01*
X05055Y-15202D01*
X05049Y-15216D01*
X05049Y-14782D01*
X05055Y-14797D01*
X05202Y-14945D01*
X05335Y-15000D01*
X05335Y-15000D01*
G37*
G54D15*
X05335Y-15000D02*
X05203Y-15055D01*
X05055Y-15202D01*
X05049Y-15216D01*
X05049Y-14782D01*
X05055Y-14797D01*
X05202Y-14945D01*
X05335Y-15000D01*
G54D10*
G36*
X05335Y-16000D02*
X05203Y-16055D01*
X05055Y-16202D01*
X05049Y-16216D01*
X05049Y-15782D01*
X05055Y-15797D01*
X05202Y-15945D01*
X05335Y-16000D01*
X05335Y-16000D01*
G37*
G54D15*
X05335Y-16000D02*
X05203Y-16055D01*
X05055Y-16202D01*
X05049Y-16216D01*
X05049Y-15782D01*
X05055Y-15797D01*
X05202Y-15945D01*
X05335Y-16000D01*
G54D10*
G36*
X05335Y-17000D02*
X05203Y-17055D01*
X05055Y-17202D01*
X05049Y-17216D01*
X05049Y-16782D01*
X05055Y-16797D01*
X05202Y-16945D01*
X05335Y-17000D01*
X05335Y-17000D01*
G37*
G54D15*
X05335Y-17000D02*
X05203Y-17055D01*
X05055Y-17202D01*
X05049Y-17216D01*
X05049Y-16782D01*
X05055Y-16797D01*
X05202Y-16945D01*
X05335Y-17000D01*
G54D10*
G36*
X05335Y-18000D02*
X05203Y-18055D01*
X05055Y-18202D01*
X05049Y-18216D01*
X05049Y-17782D01*
X05055Y-17797D01*
X05202Y-17945D01*
X05335Y-18000D01*
X05335Y-18000D01*
G37*
G54D15*
X05335Y-18000D02*
X05203Y-18055D01*
X05055Y-18202D01*
X05049Y-18216D01*
X05049Y-17782D01*
X05055Y-17797D01*
X05202Y-17945D01*
X05335Y-18000D01*
G54D10*
G36*
X05335Y-19000D02*
X05203Y-19055D01*
X05055Y-19202D01*
X05049Y-19216D01*
X05049Y-18782D01*
X05055Y-18797D01*
X05202Y-18945D01*
X05335Y-19000D01*
X05335Y-19000D01*
G37*
G54D15*
X05335Y-19000D02*
X05203Y-19055D01*
X05055Y-19202D01*
X05049Y-19216D01*
X05049Y-18782D01*
X05055Y-18797D01*
X05202Y-18945D01*
X05335Y-19000D01*
G54D10*
G36*
X05335Y-20000D02*
X05203Y-20055D01*
X05055Y-20202D01*
X05049Y-20216D01*
X05049Y-19782D01*
X05055Y-19797D01*
X05202Y-19945D01*
X05335Y-20000D01*
X05335Y-20000D01*
G37*
G54D15*
X05335Y-20000D02*
X05203Y-20055D01*
X05055Y-20202D01*
X05049Y-20216D01*
X05049Y-19782D01*
X05055Y-19797D01*
X05202Y-19945D01*
X05335Y-20000D01*
G54D10*
G36*
X05335Y-21000D02*
X05203Y-21055D01*
X05055Y-21202D01*
X05049Y-21216D01*
X05049Y-20782D01*
X05055Y-20797D01*
X05202Y-20945D01*
X05335Y-21000D01*
X05335Y-21000D01*
G37*
G54D15*
X05335Y-21000D02*
X05203Y-21055D01*
X05055Y-21202D01*
X05049Y-21216D01*
X05049Y-20782D01*
X05055Y-20797D01*
X05202Y-20945D01*
X05335Y-21000D01*
G54D10*
G36*
X05335Y-22000D02*
X05203Y-22055D01*
X05055Y-22202D01*
X05049Y-22216D01*
X05049Y-21782D01*
X05055Y-21797D01*
X05202Y-21945D01*
X05335Y-22000D01*
X05335Y-22000D01*
G37*
G54D15*
X05335Y-22000D02*
X05203Y-22055D01*
X05055Y-22202D01*
X05049Y-22216D01*
X05049Y-21782D01*
X05055Y-21797D01*
X05202Y-21945D01*
X05335Y-22000D01*
G54D10*
G36*
X06217Y-05049D02*
X06203Y-05055D01*
X06055Y-05202D01*
X06024Y-05276D01*
X06024Y-05176D01*
X05986Y-05084D01*
X05951Y-05049D01*
X06217Y-05049D01*
X06217Y-05049D01*
G37*
G54D15*
X06217Y-05049D02*
X06203Y-05055D01*
X06055Y-05202D01*
X06024Y-05276D01*
X06024Y-05176D01*
X05986Y-05084D01*
X05951Y-05049D01*
X06217Y-05049D01*
G54D10*
G36*
X07217Y-05049D02*
X07203Y-05055D01*
X07055Y-05202D01*
X06999Y-05335D01*
X06945Y-05203D01*
X06798Y-05055D01*
X06783Y-05049D01*
X07217Y-05049D01*
X07217Y-05049D01*
G37*
G54D15*
X07217Y-05049D02*
X07203Y-05055D01*
X07055Y-05202D01*
X06999Y-05335D01*
X06945Y-05203D01*
X06798Y-05055D01*
X06783Y-05049D01*
X07217Y-05049D01*
G54D10*
G36*
X08217Y-05049D02*
X08203Y-05055D01*
X08055Y-05202D01*
X07999Y-05335D01*
X07945Y-05203D01*
X07798Y-05055D01*
X07783Y-05049D01*
X08217Y-05049D01*
X08217Y-05049D01*
G37*
G54D15*
X08217Y-05049D02*
X08203Y-05055D01*
X08055Y-05202D01*
X07999Y-05335D01*
X07945Y-05203D01*
X07798Y-05055D01*
X07783Y-05049D01*
X08217Y-05049D01*
G54D10*
G36*
X09217Y-05049D02*
X09203Y-05055D01*
X09055Y-05202D01*
X08999Y-05335D01*
X08945Y-05203D01*
X08798Y-05055D01*
X08783Y-05049D01*
X09217Y-05049D01*
X09217Y-05049D01*
G37*
G54D15*
X09217Y-05049D02*
X09203Y-05055D01*
X09055Y-05202D01*
X08999Y-05335D01*
X08945Y-05203D01*
X08798Y-05055D01*
X08783Y-05049D01*
X09217Y-05049D01*
G54D10*
G36*
X10217Y-05049D02*
X10203Y-05055D01*
X10055Y-05202D01*
X09999Y-05335D01*
X09945Y-05203D01*
X09798Y-05055D01*
X09783Y-05049D01*
X10217Y-05049D01*
X10217Y-05049D01*
G37*
G54D15*
X10217Y-05049D02*
X10203Y-05055D01*
X10055Y-05202D01*
X09999Y-05335D01*
X09945Y-05203D01*
X09798Y-05055D01*
X09783Y-05049D01*
X10217Y-05049D01*
G54D10*
G36*
X11217Y-05049D02*
X11203Y-05055D01*
X11055Y-05202D01*
X10999Y-05335D01*
X10945Y-05203D01*
X10798Y-05055D01*
X10783Y-05049D01*
X11217Y-05049D01*
X11217Y-05049D01*
G37*
G54D15*
X11217Y-05049D02*
X11203Y-05055D01*
X11055Y-05202D01*
X10999Y-05335D01*
X10945Y-05203D01*
X10798Y-05055D01*
X10783Y-05049D01*
X11217Y-05049D01*
G54D10*
G36*
X12217Y-05049D02*
X12203Y-05055D01*
X12055Y-05202D01*
X11999Y-05335D01*
X11945Y-05203D01*
X11798Y-05055D01*
X11783Y-05049D01*
X12217Y-05049D01*
X12217Y-05049D01*
G37*
G54D15*
X12217Y-05049D02*
X12203Y-05055D01*
X12055Y-05202D01*
X11999Y-05335D01*
X11945Y-05203D01*
X11798Y-05055D01*
X11783Y-05049D01*
X12217Y-05049D01*
G54D10*
G36*
X13217Y-05049D02*
X13203Y-05055D01*
X13055Y-05202D01*
X12999Y-05335D01*
X12945Y-05203D01*
X12798Y-05055D01*
X12783Y-05049D01*
X13217Y-05049D01*
X13217Y-05049D01*
G37*
G54D15*
X13217Y-05049D02*
X13203Y-05055D01*
X13055Y-05202D01*
X12999Y-05335D01*
X12945Y-05203D01*
X12798Y-05055D01*
X12783Y-05049D01*
X13217Y-05049D01*
G54D10*
G36*
X14217Y-05049D02*
X14203Y-05055D01*
X14055Y-05202D01*
X13999Y-05335D01*
X13945Y-05203D01*
X13798Y-05055D01*
X13783Y-05049D01*
X14217Y-05049D01*
X14217Y-05049D01*
G37*
G54D15*
X14217Y-05049D02*
X14203Y-05055D01*
X14055Y-05202D01*
X13999Y-05335D01*
X13945Y-05203D01*
X13798Y-05055D01*
X13783Y-05049D01*
X14217Y-05049D01*
G54D10*
G36*
X24084Y-24084D02*
X24025Y-24084D01*
X24025Y-23605D01*
X24025Y-23396D01*
X24025Y-17605D01*
X24025Y-17396D01*
X23945Y-17203D01*
X23798Y-17055D01*
X23605Y-16975D01*
X23396Y-16975D01*
X23203Y-17055D01*
X23055Y-17202D01*
X22999Y-17335D01*
X22945Y-17203D01*
X22798Y-17055D01*
X22605Y-16975D01*
X22396Y-16975D01*
X22203Y-17055D01*
X22055Y-17202D01*
X21999Y-17335D01*
X21945Y-17203D01*
X21798Y-17055D01*
X21605Y-16975D01*
X21396Y-16975D01*
X21203Y-17055D01*
X21055Y-17202D01*
X20999Y-17335D01*
X20945Y-17203D01*
X20798Y-17055D01*
X20605Y-16975D01*
X20396Y-16975D01*
X20203Y-17055D01*
X20055Y-17202D01*
X19999Y-17335D01*
X19945Y-17203D01*
X19798Y-17055D01*
X19605Y-16975D01*
X19396Y-16975D01*
X19203Y-17055D01*
X19055Y-17202D01*
X18999Y-17335D01*
X18945Y-17203D01*
X18798Y-17055D01*
X18605Y-16975D01*
X18396Y-16975D01*
X18203Y-17055D01*
X18055Y-17202D01*
X17999Y-17335D01*
X17945Y-17203D01*
X17798Y-17055D01*
X17605Y-16975D01*
X17396Y-16975D01*
X17203Y-17055D01*
X17055Y-17202D01*
X16999Y-17335D01*
X16945Y-17203D01*
X16798Y-17055D01*
X16605Y-16975D01*
X16396Y-16975D01*
X16203Y-17055D01*
X16055Y-17202D01*
X15999Y-17335D01*
X15945Y-17203D01*
X15798Y-17055D01*
X15605Y-16975D01*
X15396Y-16975D01*
X15203Y-17055D01*
X15055Y-17202D01*
X15024Y-17276D01*
X15024Y-17176D01*
X14986Y-17084D01*
X14916Y-17014D01*
X14825Y-16976D01*
X14726Y-16976D01*
X14176Y-16976D01*
X14084Y-17014D01*
X14014Y-17084D01*
X13976Y-17175D01*
X13976Y-17274D01*
X13976Y-17824D01*
X14014Y-17916D01*
X14084Y-17986D01*
X14175Y-18024D01*
X14274Y-18024D01*
X14824Y-18024D01*
X14916Y-17986D01*
X14986Y-17916D01*
X15024Y-17825D01*
X15024Y-17726D01*
X15024Y-17722D01*
X15055Y-17797D01*
X15202Y-17945D01*
X15210Y-17948D01*
X15210Y-18750D01*
X15232Y-18861D01*
X15295Y-18955D01*
X16325Y-19985D01*
X16325Y-20084D01*
X16389Y-20240D01*
X16509Y-20360D01*
X16665Y-20425D01*
X16834Y-20425D01*
X16990Y-20361D01*
X17110Y-20241D01*
X17175Y-20085D01*
X17175Y-19916D01*
X17111Y-19760D01*
X16991Y-19640D01*
X16835Y-19575D01*
X16735Y-19575D01*
X15790Y-18629D01*
X15790Y-17947D01*
X15797Y-17945D01*
X15945Y-17798D01*
X16000Y-17664D01*
X16055Y-17797D01*
X16202Y-17945D01*
X16210Y-17948D01*
X16210Y-18250D01*
X16232Y-18361D01*
X16295Y-18455D01*
X17325Y-19485D01*
X17325Y-19584D01*
X17389Y-19740D01*
X17509Y-19860D01*
X17665Y-19925D01*
X17834Y-19925D01*
X17990Y-19861D01*
X18110Y-19741D01*
X18175Y-19585D01*
X18175Y-19416D01*
X18111Y-19260D01*
X17991Y-19140D01*
X17835Y-19075D01*
X17735Y-19075D01*
X16790Y-18129D01*
X16790Y-17947D01*
X16797Y-17945D01*
X16945Y-17798D01*
X17000Y-17664D01*
X17055Y-17797D01*
X17202Y-17945D01*
X17395Y-18025D01*
X17604Y-18025D01*
X17797Y-17945D01*
X17945Y-17798D01*
X18000Y-17664D01*
X18055Y-17797D01*
X18202Y-17945D01*
X18395Y-18025D01*
X18604Y-18025D01*
X18797Y-17945D01*
X18945Y-17798D01*
X19000Y-17664D01*
X19055Y-17797D01*
X19202Y-17945D01*
X19395Y-18025D01*
X19604Y-18025D01*
X19797Y-17945D01*
X19945Y-17798D01*
X20000Y-17664D01*
X20055Y-17797D01*
X20202Y-17945D01*
X20395Y-18025D01*
X20604Y-18025D01*
X20797Y-17945D01*
X20945Y-17798D01*
X21000Y-17664D01*
X21055Y-17797D01*
X21202Y-17945D01*
X21210Y-17948D01*
X21210Y-18129D01*
X20264Y-19075D01*
X20166Y-19075D01*
X20010Y-19139D01*
X19890Y-19259D01*
X19825Y-19415D01*
X19825Y-19584D01*
X19889Y-19740D01*
X20009Y-19860D01*
X20165Y-19925D01*
X20334Y-19925D01*
X20490Y-19861D01*
X20610Y-19741D01*
X20675Y-19585D01*
X20675Y-19485D01*
X21705Y-18456D01*
X21705Y-18455D01*
X21746Y-18393D01*
X21767Y-18362D01*
X21768Y-18361D01*
X21789Y-18251D01*
X21790Y-18250D01*
X21790Y-17947D01*
X21797Y-17945D01*
X21945Y-17798D01*
X22000Y-17664D01*
X22055Y-17797D01*
X22202Y-17945D01*
X22210Y-17948D01*
X22210Y-18629D01*
X21264Y-19575D01*
X21166Y-19575D01*
X21010Y-19639D01*
X20890Y-19759D01*
X20825Y-19915D01*
X20825Y-20084D01*
X20889Y-20240D01*
X21009Y-20360D01*
X21165Y-20425D01*
X21334Y-20425D01*
X21490Y-20361D01*
X21610Y-20241D01*
X21675Y-20085D01*
X21675Y-19985D01*
X22705Y-18956D01*
X22705Y-18955D01*
X22746Y-18893D01*
X22767Y-18862D01*
X22768Y-18861D01*
X22789Y-18751D01*
X22790Y-18750D01*
X22790Y-17947D01*
X22797Y-17945D01*
X22945Y-17798D01*
X23000Y-17664D01*
X23055Y-17797D01*
X23202Y-17945D01*
X23395Y-18025D01*
X23604Y-18025D01*
X23797Y-17945D01*
X23945Y-17798D01*
X24025Y-17605D01*
X24025Y-23396D01*
X23945Y-23203D01*
X23798Y-23055D01*
X23605Y-22975D01*
X23396Y-22975D01*
X23203Y-23055D01*
X23055Y-23202D01*
X22999Y-23335D01*
X22945Y-23203D01*
X22798Y-23055D01*
X22790Y-23051D01*
X22790Y-22250D01*
X22789Y-22249D01*
X22768Y-22139D01*
X22767Y-22138D01*
X22746Y-22107D01*
X22705Y-22045D01*
X22705Y-22044D01*
X21675Y-21014D01*
X21675Y-20916D01*
X21611Y-20760D01*
X21491Y-20640D01*
X21335Y-20575D01*
X21166Y-20575D01*
X21010Y-20639D01*
X20890Y-20759D01*
X20825Y-20915D01*
X20825Y-21084D01*
X20889Y-21240D01*
X21009Y-21360D01*
X21165Y-21425D01*
X21264Y-21425D01*
X22210Y-22370D01*
X22210Y-23052D01*
X22203Y-23055D01*
X22055Y-23202D01*
X21999Y-23335D01*
X21945Y-23203D01*
X21798Y-23055D01*
X21790Y-23051D01*
X21790Y-22750D01*
X21789Y-22749D01*
X21768Y-22639D01*
X21767Y-22638D01*
X21746Y-22607D01*
X21705Y-22545D01*
X21705Y-22544D01*
X20675Y-21514D01*
X20675Y-21416D01*
X20611Y-21260D01*
X20491Y-21140D01*
X20335Y-21075D01*
X20166Y-21075D01*
X20010Y-21139D01*
X19890Y-21259D01*
X19825Y-21415D01*
X19825Y-21584D01*
X19889Y-21740D01*
X20009Y-21860D01*
X20165Y-21925D01*
X20264Y-21925D01*
X21210Y-22870D01*
X21210Y-23052D01*
X21203Y-23055D01*
X21055Y-23202D01*
X20999Y-23335D01*
X20945Y-23203D01*
X20798Y-23055D01*
X20605Y-22975D01*
X20396Y-22975D01*
X20203Y-23055D01*
X20055Y-23202D01*
X19999Y-23335D01*
X19945Y-23203D01*
X19798Y-23055D01*
X19605Y-22975D01*
X19396Y-22975D01*
X19203Y-23055D01*
X19055Y-23202D01*
X18999Y-23335D01*
X18945Y-23203D01*
X18798Y-23055D01*
X18605Y-22975D01*
X18396Y-22975D01*
X18203Y-23055D01*
X18055Y-23202D01*
X17999Y-23335D01*
X17945Y-23203D01*
X17798Y-23055D01*
X17605Y-22975D01*
X17396Y-22975D01*
X17203Y-23055D01*
X17055Y-23202D01*
X16999Y-23335D01*
X16945Y-23203D01*
X16798Y-23055D01*
X16790Y-23051D01*
X16790Y-22870D01*
X17735Y-21925D01*
X17834Y-21925D01*
X17990Y-21861D01*
X18110Y-21741D01*
X18175Y-21585D01*
X18175Y-21416D01*
X18111Y-21260D01*
X17991Y-21140D01*
X17835Y-21075D01*
X17666Y-21075D01*
X17510Y-21139D01*
X17390Y-21259D01*
X17325Y-21415D01*
X17325Y-21514D01*
X16295Y-22545D01*
X16232Y-22639D01*
X16210Y-22750D01*
X16210Y-23052D01*
X16203Y-23055D01*
X16055Y-23202D01*
X15999Y-23335D01*
X15945Y-23203D01*
X15798Y-23055D01*
X15790Y-23051D01*
X15790Y-22370D01*
X16735Y-21425D01*
X16834Y-21425D01*
X16990Y-21361D01*
X17110Y-21241D01*
X17175Y-21085D01*
X17175Y-20916D01*
X17111Y-20760D01*
X16991Y-20640D01*
X16835Y-20575D01*
X16666Y-20575D01*
X16510Y-20639D01*
X16390Y-20759D01*
X16325Y-20915D01*
X16325Y-21014D01*
X15295Y-22045D01*
X15232Y-22139D01*
X15210Y-22250D01*
X15210Y-23052D01*
X15203Y-23055D01*
X15055Y-23202D01*
X15024Y-23276D01*
X15024Y-23176D01*
X14986Y-23084D01*
X14916Y-23014D01*
X14825Y-22976D01*
X14726Y-22976D01*
X14176Y-22976D01*
X14084Y-23014D01*
X14014Y-23084D01*
X13976Y-23175D01*
X13976Y-23274D01*
X13976Y-23824D01*
X14014Y-23916D01*
X14084Y-23986D01*
X14175Y-24024D01*
X14274Y-24024D01*
X14824Y-24024D01*
X14916Y-23986D01*
X14986Y-23916D01*
X15024Y-23825D01*
X15024Y-23726D01*
X15024Y-23722D01*
X15055Y-23797D01*
X15202Y-23945D01*
X15395Y-24025D01*
X15604Y-24025D01*
X15797Y-23945D01*
X15945Y-23798D01*
X16000Y-23664D01*
X16055Y-23797D01*
X16202Y-23945D01*
X16395Y-24025D01*
X16604Y-24025D01*
X16797Y-23945D01*
X16945Y-23798D01*
X17000Y-23664D01*
X17055Y-23797D01*
X17202Y-23945D01*
X17395Y-24025D01*
X17604Y-24025D01*
X17797Y-23945D01*
X17945Y-23798D01*
X18000Y-23664D01*
X18055Y-23797D01*
X18202Y-23945D01*
X18395Y-24025D01*
X18604Y-24025D01*
X18797Y-23945D01*
X18945Y-23798D01*
X19000Y-23664D01*
X19055Y-23797D01*
X19202Y-23945D01*
X19395Y-24025D01*
X19604Y-24025D01*
X19797Y-23945D01*
X19945Y-23798D01*
X20000Y-23664D01*
X20055Y-23797D01*
X20202Y-23945D01*
X20395Y-24025D01*
X20604Y-24025D01*
X20797Y-23945D01*
X20945Y-23798D01*
X21000Y-23664D01*
X21055Y-23797D01*
X21202Y-23945D01*
X21395Y-24025D01*
X21604Y-24025D01*
X21797Y-23945D01*
X21945Y-23798D01*
X22000Y-23664D01*
X22055Y-23797D01*
X22202Y-23945D01*
X22395Y-24025D01*
X22604Y-24025D01*
X22797Y-23945D01*
X22945Y-23798D01*
X23000Y-23664D01*
X23055Y-23797D01*
X23202Y-23945D01*
X23395Y-24025D01*
X23604Y-24025D01*
X23797Y-23945D01*
X23945Y-23798D01*
X24025Y-23605D01*
X24025Y-24084D01*
X12025Y-24084D01*
X12025Y-22605D01*
X12025Y-22396D01*
X11945Y-22203D01*
X11798Y-22055D01*
X11664Y-21999D01*
X11797Y-21945D01*
X11945Y-21798D01*
X12025Y-21605D01*
X12025Y-21396D01*
X11945Y-21203D01*
X11798Y-21055D01*
X11664Y-20999D01*
X11797Y-20945D01*
X11945Y-20798D01*
X12025Y-20605D01*
X12025Y-20396D01*
X11945Y-20203D01*
X11798Y-20055D01*
X11664Y-19999D01*
X11797Y-19945D01*
X11945Y-19798D01*
X12025Y-19605D01*
X12025Y-19396D01*
X11945Y-19203D01*
X11798Y-19055D01*
X11664Y-18999D01*
X11797Y-18945D01*
X11945Y-18798D01*
X12025Y-18605D01*
X12025Y-18396D01*
X11945Y-18203D01*
X11798Y-18055D01*
X11664Y-17999D01*
X11797Y-17945D01*
X11945Y-17798D01*
X12025Y-17605D01*
X12025Y-17396D01*
X11945Y-17203D01*
X11798Y-17055D01*
X11664Y-16999D01*
X11797Y-16945D01*
X11945Y-16798D01*
X12025Y-16605D01*
X12025Y-16396D01*
X11945Y-16203D01*
X11798Y-16055D01*
X11664Y-15999D01*
X11797Y-15945D01*
X11945Y-15798D01*
X12025Y-15605D01*
X12025Y-15396D01*
X11945Y-15203D01*
X11798Y-15055D01*
X11664Y-14999D01*
X11797Y-14945D01*
X11945Y-14798D01*
X12025Y-14605D01*
X12025Y-14396D01*
X11945Y-14203D01*
X11798Y-14055D01*
X11605Y-13975D01*
X11396Y-13975D01*
X11203Y-14055D01*
X11055Y-14202D01*
X10975Y-14395D01*
X10975Y-14604D01*
X11055Y-14797D01*
X11202Y-14945D01*
X11335Y-15000D01*
X11203Y-15055D01*
X11055Y-15202D01*
X11051Y-15210D01*
X10250Y-15210D01*
X10139Y-15232D01*
X10107Y-15253D01*
X10044Y-15295D01*
X09014Y-16325D01*
X08916Y-16325D01*
X08760Y-16389D01*
X08640Y-16509D01*
X08575Y-16665D01*
X08575Y-16834D01*
X08639Y-16990D01*
X08759Y-17110D01*
X08915Y-17175D01*
X09084Y-17175D01*
X09240Y-17111D01*
X09360Y-16991D01*
X09425Y-16835D01*
X09425Y-16735D01*
X10370Y-15790D01*
X11052Y-15790D01*
X11055Y-15797D01*
X11202Y-15945D01*
X11335Y-16000D01*
X11203Y-16055D01*
X11055Y-16202D01*
X11051Y-16210D01*
X10750Y-16210D01*
X10639Y-16232D01*
X10607Y-16253D01*
X10544Y-16295D01*
X09514Y-17325D01*
X09416Y-17325D01*
X09260Y-17389D01*
X09140Y-17509D01*
X09075Y-17665D01*
X09075Y-17834D01*
X09139Y-17990D01*
X09259Y-18110D01*
X09415Y-18175D01*
X09584Y-18175D01*
X09740Y-18111D01*
X09860Y-17991D01*
X09925Y-17835D01*
X09925Y-17735D01*
X10870Y-16790D01*
X11052Y-16790D01*
X11055Y-16797D01*
X11202Y-16945D01*
X11335Y-17000D01*
X11203Y-17055D01*
X11055Y-17202D01*
X10975Y-17395D01*
X10975Y-17604D01*
X11055Y-17797D01*
X11202Y-17945D01*
X11335Y-18000D01*
X11203Y-18055D01*
X11055Y-18202D01*
X10975Y-18395D01*
X10975Y-18604D01*
X11055Y-18797D01*
X11202Y-18945D01*
X11335Y-19000D01*
X11203Y-19055D01*
X11055Y-19202D01*
X10975Y-19395D01*
X10975Y-19604D01*
X11055Y-19797D01*
X11202Y-19945D01*
X11335Y-20000D01*
X11203Y-20055D01*
X11055Y-20202D01*
X10975Y-20395D01*
X10975Y-20604D01*
X11055Y-20797D01*
X11202Y-20945D01*
X11335Y-21000D01*
X11203Y-21055D01*
X11055Y-21202D01*
X11051Y-21210D01*
X10870Y-21210D01*
X09925Y-20264D01*
X09925Y-20166D01*
X09861Y-20010D01*
X09741Y-19890D01*
X09585Y-19825D01*
X09416Y-19825D01*
X09260Y-19889D01*
X09140Y-20009D01*
X09075Y-20165D01*
X09075Y-20334D01*
X09139Y-20490D01*
X09259Y-20610D01*
X09415Y-20675D01*
X09514Y-20675D01*
X10544Y-21705D01*
X10545Y-21705D01*
X10607Y-21746D01*
X10638Y-21767D01*
X10639Y-21768D01*
X10749Y-21789D01*
X10750Y-21790D01*
X11052Y-21790D01*
X11055Y-21797D01*
X11202Y-21945D01*
X11335Y-22000D01*
X11203Y-22055D01*
X11055Y-22202D01*
X11051Y-22210D01*
X10370Y-22210D01*
X09425Y-21264D01*
X09425Y-21166D01*
X09361Y-21010D01*
X09241Y-20890D01*
X09085Y-20825D01*
X08916Y-20825D01*
X08760Y-20889D01*
X08640Y-21009D01*
X08575Y-21165D01*
X08575Y-21334D01*
X08639Y-21490D01*
X08759Y-21610D01*
X08915Y-21675D01*
X09014Y-21675D01*
X10044Y-22705D01*
X10045Y-22705D01*
X10107Y-22746D01*
X10138Y-22767D01*
X10139Y-22768D01*
X10249Y-22789D01*
X10250Y-22790D01*
X11052Y-22790D01*
X11055Y-22797D01*
X11202Y-22945D01*
X11276Y-22976D01*
X11176Y-22976D01*
X11084Y-23014D01*
X11014Y-23084D01*
X10976Y-23175D01*
X10976Y-23274D01*
X10976Y-23824D01*
X11014Y-23916D01*
X11084Y-23986D01*
X11175Y-24024D01*
X11274Y-24024D01*
X11824Y-24024D01*
X11916Y-23986D01*
X11986Y-23916D01*
X12024Y-23825D01*
X12024Y-23726D01*
X12024Y-23176D01*
X11986Y-23084D01*
X11916Y-23014D01*
X11825Y-22976D01*
X11726Y-22976D01*
X11722Y-22976D01*
X11797Y-22945D01*
X11945Y-22798D01*
X12025Y-22605D01*
X12025Y-24084D01*
X05049Y-24084D01*
X05049Y-23951D01*
X05084Y-23986D01*
X05175Y-24024D01*
X05274Y-24024D01*
X05824Y-24024D01*
X05916Y-23986D01*
X05986Y-23916D01*
X06024Y-23825D01*
X06024Y-23726D01*
X06024Y-23176D01*
X05986Y-23084D01*
X05916Y-23014D01*
X05825Y-22976D01*
X05726Y-22976D01*
X05722Y-22976D01*
X05797Y-22945D01*
X05945Y-22798D01*
X05948Y-22790D01*
X06750Y-22790D01*
X06861Y-22768D01*
X06955Y-22705D01*
X07985Y-21675D01*
X08084Y-21675D01*
X08240Y-21611D01*
X08360Y-21491D01*
X08425Y-21335D01*
X08425Y-21166D01*
X08361Y-21010D01*
X08241Y-20890D01*
X08085Y-20825D01*
X07916Y-20825D01*
X07760Y-20889D01*
X07640Y-21009D01*
X07575Y-21165D01*
X07575Y-21264D01*
X06629Y-22210D01*
X05947Y-22210D01*
X05945Y-22203D01*
X05798Y-22055D01*
X05664Y-21999D01*
X05797Y-21945D01*
X05945Y-21798D01*
X05948Y-21790D01*
X06250Y-21790D01*
X06361Y-21768D01*
X06455Y-21705D01*
X07485Y-20675D01*
X07584Y-20675D01*
X07740Y-20611D01*
X07860Y-20491D01*
X07925Y-20335D01*
X07925Y-20166D01*
X07861Y-20010D01*
X07741Y-19890D01*
X07585Y-19825D01*
X07416Y-19825D01*
X07260Y-19889D01*
X07140Y-20009D01*
X07075Y-20165D01*
X07075Y-20264D01*
X06129Y-21210D01*
X05947Y-21210D01*
X05945Y-21203D01*
X05798Y-21055D01*
X05664Y-20999D01*
X05797Y-20945D01*
X05945Y-20798D01*
X06025Y-20605D01*
X06025Y-20396D01*
X05945Y-20203D01*
X05798Y-20055D01*
X05664Y-19999D01*
X05797Y-19945D01*
X05945Y-19798D01*
X06025Y-19605D01*
X06025Y-19396D01*
X05945Y-19203D01*
X05798Y-19055D01*
X05664Y-18999D01*
X05797Y-18945D01*
X05945Y-18798D01*
X06025Y-18605D01*
X06025Y-18396D01*
X05945Y-18203D01*
X05798Y-18055D01*
X05664Y-17999D01*
X05797Y-17945D01*
X05945Y-17798D01*
X06025Y-17605D01*
X06025Y-17396D01*
X05945Y-17203D01*
X05798Y-17055D01*
X05664Y-16999D01*
X05797Y-16945D01*
X05945Y-16798D01*
X05948Y-16790D01*
X06129Y-16790D01*
X07075Y-17735D01*
X07075Y-17834D01*
X07139Y-17990D01*
X07259Y-18110D01*
X07415Y-18175D01*
X07584Y-18175D01*
X07740Y-18111D01*
X07860Y-17991D01*
X07925Y-17835D01*
X07925Y-17666D01*
X07861Y-17510D01*
X07741Y-17390D01*
X07585Y-17325D01*
X07485Y-17325D01*
X06455Y-16295D01*
X06361Y-16232D01*
X06250Y-16210D01*
X05947Y-16210D01*
X05945Y-16203D01*
X05798Y-16055D01*
X05664Y-15999D01*
X05797Y-15945D01*
X05945Y-15798D01*
X05948Y-15790D01*
X06629Y-15790D01*
X07575Y-16735D01*
X07575Y-16834D01*
X07639Y-16990D01*
X07759Y-17110D01*
X07915Y-17175D01*
X08084Y-17175D01*
X08240Y-17111D01*
X08360Y-16991D01*
X08425Y-16835D01*
X08425Y-16666D01*
X08361Y-16510D01*
X08241Y-16390D01*
X08085Y-16325D01*
X07985Y-16325D01*
X06955Y-15295D01*
X06861Y-15232D01*
X06750Y-15210D01*
X05947Y-15210D01*
X05945Y-15203D01*
X05798Y-15055D01*
X05664Y-14999D01*
X05797Y-14945D01*
X05945Y-14798D01*
X06025Y-14605D01*
X06025Y-14396D01*
X05945Y-14203D01*
X05798Y-14055D01*
X05605Y-13975D01*
X05396Y-13975D01*
X05203Y-14055D01*
X05055Y-14202D01*
X05049Y-14216D01*
X05049Y-11951D01*
X05084Y-11986D01*
X05175Y-12024D01*
X05274Y-12024D01*
X05824Y-12024D01*
X05916Y-11986D01*
X05986Y-11916D01*
X06024Y-11825D01*
X06024Y-11726D01*
X06024Y-11722D01*
X06055Y-11797D01*
X06202Y-11945D01*
X06395Y-12025D01*
X06604Y-12025D01*
X06797Y-11945D01*
X06945Y-11798D01*
X07000Y-11664D01*
X07055Y-11797D01*
X07202Y-11945D01*
X07395Y-12025D01*
X07604Y-12025D01*
X07797Y-11945D01*
X07945Y-11798D01*
X08000Y-11664D01*
X08055Y-11797D01*
X08202Y-11945D01*
X08395Y-12025D01*
X08604Y-12025D01*
X08797Y-11945D01*
X08945Y-11798D01*
X09000Y-11664D01*
X09055Y-11797D01*
X09202Y-11945D01*
X09395Y-12025D01*
X09604Y-12025D01*
X09797Y-11945D01*
X09945Y-11798D01*
X10000Y-11664D01*
X10055Y-11797D01*
X10202Y-11945D01*
X10395Y-12025D01*
X10604Y-12025D01*
X10797Y-11945D01*
X10945Y-11798D01*
X11000Y-11664D01*
X11055Y-11797D01*
X11202Y-11945D01*
X11395Y-12025D01*
X11604Y-12025D01*
X11797Y-11945D01*
X11945Y-11798D01*
X12000Y-11664D01*
X12055Y-11797D01*
X12202Y-11945D01*
X12395Y-12025D01*
X12604Y-12025D01*
X12797Y-11945D01*
X12945Y-11798D01*
X13000Y-11664D01*
X13055Y-11797D01*
X13202Y-11945D01*
X13395Y-12025D01*
X13604Y-12025D01*
X13797Y-11945D01*
X13945Y-11798D01*
X14000Y-11664D01*
X14055Y-11797D01*
X14202Y-11945D01*
X14395Y-12025D01*
X14604Y-12025D01*
X14797Y-11945D01*
X14945Y-11798D01*
X15025Y-11605D01*
X15025Y-11396D01*
X14945Y-11203D01*
X14798Y-11055D01*
X14605Y-10975D01*
X14396Y-10975D01*
X14203Y-11055D01*
X14055Y-11202D01*
X13999Y-11335D01*
X13945Y-11203D01*
X13798Y-11055D01*
X13790Y-11051D01*
X13790Y-10250D01*
X13789Y-10249D01*
X13768Y-10139D01*
X13767Y-10138D01*
X13746Y-10107D01*
X13705Y-10045D01*
X13705Y-10044D01*
X12675Y-09014D01*
X12675Y-08916D01*
X12611Y-08760D01*
X12491Y-08640D01*
X12335Y-08575D01*
X12166Y-08575D01*
X12010Y-08639D01*
X11890Y-08759D01*
X11825Y-08915D01*
X11825Y-09084D01*
X11889Y-09240D01*
X12009Y-09360D01*
X12165Y-09425D01*
X12264Y-09425D01*
X13210Y-10370D01*
X13210Y-11052D01*
X13203Y-11055D01*
X13055Y-11202D01*
X12999Y-11335D01*
X12945Y-11203D01*
X12798Y-11055D01*
X12790Y-11051D01*
X12790Y-10750D01*
X12789Y-10749D01*
X12768Y-10639D01*
X12767Y-10638D01*
X12746Y-10607D01*
X12705Y-10545D01*
X12705Y-10544D01*
X11675Y-09514D01*
X11675Y-09416D01*
X11611Y-09260D01*
X11491Y-09140D01*
X11335Y-09075D01*
X11166Y-09075D01*
X11010Y-09139D01*
X10890Y-09259D01*
X10825Y-09415D01*
X10825Y-09584D01*
X10889Y-09740D01*
X11009Y-09860D01*
X11165Y-09925D01*
X11264Y-09925D01*
X12210Y-10870D01*
X12210Y-11052D01*
X12203Y-11055D01*
X12055Y-11202D01*
X11999Y-11335D01*
X11945Y-11203D01*
X11798Y-11055D01*
X11605Y-10975D01*
X11396Y-10975D01*
X11203Y-11055D01*
X11055Y-11202D01*
X10999Y-11335D01*
X10945Y-11203D01*
X10798Y-11055D01*
X10605Y-10975D01*
X10396Y-10975D01*
X10203Y-11055D01*
X10055Y-11202D01*
X09999Y-11335D01*
X09945Y-11203D01*
X09798Y-11055D01*
X09605Y-10975D01*
X09396Y-10975D01*
X09203Y-11055D01*
X09055Y-11202D01*
X08999Y-11335D01*
X08945Y-11203D01*
X08798Y-11055D01*
X08605Y-10975D01*
X08396Y-10975D01*
X08203Y-11055D01*
X08055Y-11202D01*
X07999Y-11335D01*
X07945Y-11203D01*
X07798Y-11055D01*
X07790Y-11051D01*
X07790Y-10870D01*
X08735Y-09925D01*
X08834Y-09925D01*
X08990Y-09861D01*
X09110Y-09741D01*
X09175Y-09585D01*
X09175Y-09416D01*
X09111Y-09260D01*
X08991Y-09140D01*
X08835Y-09075D01*
X08666Y-09075D01*
X08510Y-09139D01*
X08390Y-09259D01*
X08325Y-09415D01*
X08325Y-09514D01*
X07295Y-10545D01*
X07232Y-10639D01*
X07210Y-10750D01*
X07210Y-11052D01*
X07203Y-11055D01*
X07055Y-11202D01*
X06999Y-11335D01*
X06945Y-11203D01*
X06798Y-11055D01*
X06790Y-11051D01*
X06790Y-10370D01*
X07735Y-09425D01*
X07834Y-09425D01*
X07990Y-09361D01*
X08110Y-09241D01*
X08175Y-09085D01*
X08175Y-08916D01*
X08111Y-08760D01*
X07991Y-08640D01*
X07835Y-08575D01*
X07666Y-08575D01*
X07510Y-08639D01*
X07390Y-08759D01*
X07325Y-08915D01*
X07325Y-09014D01*
X06295Y-10045D01*
X06232Y-10139D01*
X06210Y-10250D01*
X06210Y-11052D01*
X06203Y-11055D01*
X06055Y-11202D01*
X06024Y-11276D01*
X06024Y-11176D01*
X05986Y-11084D01*
X05916Y-11014D01*
X05825Y-10976D01*
X05726Y-10976D01*
X05176Y-10976D01*
X05084Y-11014D01*
X05049Y-11049D01*
X05049Y-05951D01*
X05084Y-05986D01*
X05175Y-06024D01*
X05274Y-06024D01*
X05824Y-06024D01*
X05916Y-05986D01*
X05986Y-05916D01*
X06024Y-05825D01*
X06024Y-05726D01*
X06024Y-05722D01*
X06055Y-05797D01*
X06202Y-05945D01*
X06210Y-05948D01*
X06210Y-06750D01*
X06232Y-06861D01*
X06295Y-06955D01*
X07325Y-07985D01*
X07325Y-08084D01*
X07389Y-08240D01*
X07509Y-08360D01*
X07665Y-08425D01*
X07834Y-08425D01*
X07990Y-08361D01*
X08110Y-08241D01*
X08175Y-08085D01*
X08175Y-07916D01*
X08111Y-07760D01*
X07991Y-07640D01*
X07835Y-07575D01*
X07735Y-07575D01*
X06790Y-06629D01*
X06790Y-05947D01*
X06797Y-05945D01*
X06945Y-05798D01*
X07000Y-05664D01*
X07055Y-05797D01*
X07202Y-05945D01*
X07210Y-05948D01*
X07210Y-06250D01*
X07232Y-06361D01*
X07295Y-06455D01*
X08325Y-07485D01*
X08325Y-07584D01*
X08389Y-07740D01*
X08509Y-07860D01*
X08665Y-07925D01*
X08834Y-07925D01*
X08990Y-07861D01*
X09110Y-07741D01*
X09175Y-07585D01*
X09175Y-07416D01*
X09111Y-07260D01*
X08991Y-07140D01*
X08835Y-07075D01*
X08735Y-07075D01*
X07790Y-06129D01*
X07790Y-05947D01*
X07797Y-05945D01*
X07945Y-05798D01*
X08000Y-05664D01*
X08055Y-05797D01*
X08202Y-05945D01*
X08395Y-06025D01*
X08604Y-06025D01*
X08797Y-05945D01*
X08945Y-05798D01*
X09000Y-05664D01*
X09055Y-05797D01*
X09202Y-05945D01*
X09395Y-06025D01*
X09604Y-06025D01*
X09797Y-05945D01*
X09945Y-05798D01*
X10000Y-05664D01*
X10055Y-05797D01*
X10202Y-05945D01*
X10395Y-06025D01*
X10604Y-06025D01*
X10797Y-05945D01*
X10945Y-05798D01*
X11000Y-05664D01*
X11055Y-05797D01*
X11202Y-05945D01*
X11395Y-06025D01*
X11604Y-06025D01*
X11797Y-05945D01*
X11945Y-05798D01*
X12000Y-05664D01*
X12055Y-05797D01*
X12202Y-05945D01*
X12210Y-05948D01*
X12210Y-06129D01*
X11264Y-07075D01*
X11166Y-07075D01*
X11010Y-07139D01*
X10890Y-07259D01*
X10825Y-07415D01*
X10825Y-07584D01*
X10889Y-07740D01*
X11009Y-07860D01*
X11165Y-07925D01*
X11334Y-07925D01*
X11490Y-07861D01*
X11610Y-07741D01*
X11675Y-07585D01*
X11675Y-07485D01*
X12705Y-06456D01*
X12705Y-06455D01*
X12746Y-06393D01*
X12767Y-06362D01*
X12768Y-06361D01*
X12789Y-06251D01*
X12790Y-06250D01*
X12790Y-05947D01*
X12797Y-05945D01*
X12945Y-05798D01*
X13000Y-05664D01*
X13055Y-05797D01*
X13202Y-05945D01*
X13210Y-05948D01*
X13210Y-06629D01*
X12264Y-07575D01*
X12166Y-07575D01*
X12010Y-07639D01*
X11890Y-07759D01*
X11825Y-07915D01*
X11825Y-08084D01*
X11889Y-08240D01*
X12009Y-08360D01*
X12165Y-08425D01*
X12334Y-08425D01*
X12490Y-08361D01*
X12610Y-08241D01*
X12675Y-08085D01*
X12675Y-07985D01*
X13705Y-06956D01*
X13705Y-06955D01*
X13746Y-06893D01*
X13767Y-06862D01*
X13768Y-06861D01*
X13789Y-06751D01*
X13790Y-06750D01*
X13790Y-05947D01*
X13797Y-05945D01*
X13945Y-05798D01*
X14000Y-05664D01*
X14055Y-05797D01*
X14202Y-05945D01*
X14395Y-06025D01*
X14604Y-06025D01*
X14797Y-05945D01*
X14945Y-05798D01*
X15025Y-05605D01*
X15025Y-05396D01*
X14945Y-05203D01*
X14798Y-05055D01*
X14783Y-05049D01*
X17217Y-05049D01*
X17203Y-05055D01*
X17055Y-05202D01*
X16975Y-05395D01*
X16975Y-05604D01*
X17055Y-05797D01*
X17202Y-05945D01*
X17335Y-06000D01*
X17203Y-06055D01*
X17055Y-06202D01*
X16975Y-06395D01*
X16975Y-06604D01*
X17055Y-06797D01*
X17202Y-06945D01*
X17335Y-07000D01*
X17203Y-07055D01*
X17055Y-07202D01*
X16975Y-07395D01*
X16975Y-07604D01*
X17055Y-07797D01*
X17202Y-07945D01*
X17335Y-08000D01*
X17203Y-08055D01*
X17055Y-08202D01*
X16975Y-08395D01*
X16975Y-08604D01*
X17055Y-08797D01*
X17202Y-08945D01*
X17335Y-09000D01*
X17203Y-09055D01*
X17055Y-09202D01*
X16975Y-09395D01*
X16975Y-09604D01*
X17055Y-09797D01*
X17202Y-09945D01*
X17335Y-10000D01*
X17203Y-10055D01*
X17055Y-10202D01*
X16975Y-10395D01*
X16975Y-10604D01*
X17055Y-10797D01*
X17202Y-10945D01*
X17335Y-11000D01*
X17203Y-11055D01*
X17055Y-11202D01*
X16975Y-11395D01*
X16975Y-11604D01*
X17055Y-11797D01*
X17202Y-11945D01*
X17335Y-12000D01*
X17203Y-12055D01*
X17055Y-12202D01*
X16975Y-12395D01*
X16975Y-12604D01*
X17055Y-12797D01*
X17202Y-12945D01*
X17335Y-13000D01*
X17203Y-13055D01*
X17055Y-13202D01*
X16975Y-13395D01*
X16975Y-13604D01*
X17055Y-13797D01*
X17202Y-13945D01*
X17276Y-13976D01*
X17176Y-13976D01*
X17084Y-14014D01*
X17014Y-14084D01*
X16976Y-14175D01*
X16976Y-14274D01*
X16976Y-14824D01*
X17014Y-14916D01*
X17084Y-14986D01*
X17175Y-15024D01*
X17274Y-15024D01*
X17824Y-15024D01*
X17916Y-14986D01*
X17986Y-14916D01*
X18024Y-14825D01*
X18024Y-14726D01*
X18024Y-14176D01*
X17986Y-14084D01*
X17916Y-14014D01*
X17825Y-13976D01*
X17726Y-13976D01*
X17722Y-13976D01*
X17797Y-13945D01*
X17945Y-13798D01*
X17948Y-13790D01*
X18750Y-13790D01*
X18861Y-13768D01*
X18955Y-13705D01*
X19985Y-12675D01*
X20084Y-12675D01*
X20240Y-12611D01*
X20360Y-12491D01*
X20425Y-12335D01*
X20425Y-12166D01*
X20361Y-12010D01*
X20241Y-11890D01*
X20085Y-11825D01*
X19916Y-11825D01*
X19760Y-11889D01*
X19640Y-12009D01*
X19575Y-12165D01*
X19575Y-12264D01*
X18629Y-13210D01*
X17947Y-13210D01*
X17945Y-13203D01*
X17798Y-13055D01*
X17664Y-12999D01*
X17797Y-12945D01*
X17945Y-12798D01*
X17948Y-12790D01*
X18250Y-12790D01*
X18361Y-12768D01*
X18455Y-12705D01*
X19485Y-11675D01*
X19584Y-11675D01*
X19740Y-11611D01*
X19860Y-11491D01*
X19925Y-11335D01*
X19925Y-11166D01*
X19861Y-11010D01*
X19741Y-10890D01*
X19585Y-10825D01*
X19416Y-10825D01*
X19260Y-10889D01*
X19140Y-11009D01*
X19075Y-11165D01*
X19075Y-11264D01*
X18129Y-12210D01*
X17947Y-12210D01*
X17945Y-12203D01*
X17798Y-12055D01*
X17664Y-11999D01*
X17797Y-11945D01*
X17945Y-11798D01*
X18025Y-11605D01*
X18025Y-11396D01*
X17945Y-11203D01*
X17798Y-11055D01*
X17664Y-10999D01*
X17797Y-10945D01*
X17945Y-10798D01*
X18025Y-10605D01*
X18025Y-10396D01*
X17945Y-10203D01*
X17798Y-10055D01*
X17664Y-09999D01*
X17797Y-09945D01*
X17945Y-09798D01*
X18025Y-09605D01*
X18025Y-09396D01*
X17945Y-09203D01*
X17798Y-09055D01*
X17664Y-08999D01*
X17797Y-08945D01*
X17945Y-08798D01*
X18025Y-08605D01*
X18025Y-08396D01*
X17945Y-08203D01*
X17798Y-08055D01*
X17664Y-07999D01*
X17797Y-07945D01*
X17945Y-07798D01*
X17948Y-07790D01*
X18129Y-07790D01*
X19075Y-08735D01*
X19075Y-08834D01*
X19139Y-08990D01*
X19259Y-09110D01*
X19415Y-09175D01*
X19584Y-09175D01*
X19740Y-09111D01*
X19860Y-08991D01*
X19925Y-08835D01*
X19925Y-08666D01*
X19861Y-08510D01*
X19741Y-08390D01*
X19585Y-08325D01*
X19485Y-08325D01*
X18455Y-07295D01*
X18361Y-07232D01*
X18250Y-07210D01*
X17947Y-07210D01*
X17945Y-07203D01*
X17798Y-07055D01*
X17664Y-06999D01*
X17797Y-06945D01*
X17945Y-06798D01*
X17948Y-06790D01*
X18629Y-06790D01*
X19575Y-07735D01*
X19575Y-07834D01*
X19639Y-07990D01*
X19759Y-08110D01*
X19915Y-08175D01*
X20084Y-08175D01*
X20240Y-08111D01*
X20360Y-07991D01*
X20425Y-07835D01*
X20425Y-07666D01*
X20361Y-07510D01*
X20241Y-07390D01*
X20085Y-07325D01*
X19985Y-07325D01*
X18955Y-06295D01*
X18861Y-06232D01*
X18750Y-06210D01*
X17947Y-06210D01*
X17945Y-06203D01*
X17798Y-06055D01*
X17664Y-05999D01*
X17797Y-05945D01*
X17945Y-05798D01*
X18025Y-05605D01*
X18025Y-05396D01*
X17945Y-05203D01*
X17798Y-05055D01*
X17783Y-05049D01*
X23217Y-05049D01*
X23203Y-05055D01*
X23055Y-05202D01*
X22975Y-05395D01*
X22975Y-05604D01*
X23055Y-05797D01*
X23202Y-05945D01*
X23335Y-06000D01*
X23203Y-06055D01*
X23055Y-06202D01*
X23051Y-06210D01*
X22250Y-06210D01*
X22139Y-06232D01*
X22107Y-06253D01*
X22044Y-06295D01*
X21014Y-07325D01*
X20916Y-07325D01*
X20760Y-07389D01*
X20640Y-07509D01*
X20575Y-07665D01*
X20575Y-07834D01*
X20639Y-07990D01*
X20759Y-08110D01*
X20915Y-08175D01*
X21084Y-08175D01*
X21240Y-08111D01*
X21360Y-07991D01*
X21425Y-07835D01*
X21425Y-07735D01*
X22370Y-06790D01*
X23052Y-06790D01*
X23055Y-06797D01*
X23202Y-06945D01*
X23335Y-07000D01*
X23203Y-07055D01*
X23055Y-07202D01*
X23051Y-07210D01*
X22750Y-07210D01*
X22639Y-07232D01*
X22607Y-07253D01*
X22544Y-07295D01*
X21514Y-08325D01*
X21416Y-08325D01*
X21260Y-08389D01*
X21140Y-08509D01*
X21075Y-08665D01*
X21075Y-08834D01*
X21139Y-08990D01*
X21259Y-09110D01*
X21415Y-09175D01*
X21584Y-09175D01*
X21740Y-09111D01*
X21860Y-08991D01*
X21925Y-08835D01*
X21925Y-08735D01*
X22870Y-07790D01*
X23052Y-07790D01*
X23055Y-07797D01*
X23202Y-07945D01*
X23335Y-08000D01*
X23203Y-08055D01*
X23055Y-08202D01*
X22975Y-08395D01*
X22975Y-08604D01*
X23055Y-08797D01*
X23202Y-08945D01*
X23335Y-09000D01*
X23203Y-09055D01*
X23055Y-09202D01*
X22975Y-09395D01*
X22975Y-09604D01*
X23055Y-09797D01*
X23202Y-09945D01*
X23335Y-10000D01*
X23203Y-10055D01*
X23055Y-10202D01*
X22975Y-10395D01*
X22975Y-10604D01*
X23055Y-10797D01*
X23202Y-10945D01*
X23335Y-11000D01*
X23203Y-11055D01*
X23055Y-11202D01*
X22975Y-11395D01*
X22975Y-11604D01*
X23055Y-11797D01*
X23202Y-11945D01*
X23335Y-12000D01*
X23203Y-12055D01*
X23055Y-12202D01*
X23051Y-12210D01*
X22870Y-12210D01*
X21925Y-11264D01*
X21925Y-11166D01*
X21861Y-11010D01*
X21741Y-10890D01*
X21585Y-10825D01*
X21416Y-10825D01*
X21260Y-10889D01*
X21140Y-11009D01*
X21075Y-11165D01*
X21075Y-11334D01*
X21139Y-11490D01*
X21259Y-11610D01*
X21415Y-11675D01*
X21514Y-11675D01*
X22544Y-12705D01*
X22545Y-12705D01*
X22607Y-12746D01*
X22638Y-12767D01*
X22639Y-12768D01*
X22749Y-12789D01*
X22750Y-12790D01*
X23052Y-12790D01*
X23055Y-12797D01*
X23202Y-12945D01*
X23335Y-13000D01*
X23203Y-13055D01*
X23055Y-13202D01*
X23051Y-13210D01*
X22370Y-13210D01*
X21425Y-12264D01*
X21425Y-12166D01*
X21361Y-12010D01*
X21241Y-11890D01*
X21085Y-11825D01*
X20916Y-11825D01*
X20760Y-11889D01*
X20640Y-12009D01*
X20575Y-12165D01*
X20575Y-12334D01*
X20639Y-12490D01*
X20759Y-12610D01*
X20915Y-12675D01*
X21014Y-12675D01*
X22044Y-13705D01*
X22045Y-13705D01*
X22107Y-13746D01*
X22138Y-13767D01*
X22139Y-13768D01*
X22249Y-13789D01*
X22250Y-13790D01*
X23052Y-13790D01*
X23055Y-13797D01*
X23202Y-13945D01*
X23276Y-13976D01*
X23176Y-13976D01*
X23084Y-14014D01*
X23014Y-14084D01*
X22976Y-14175D01*
X22976Y-14274D01*
X22976Y-14824D01*
X23014Y-14916D01*
X23084Y-14986D01*
X23175Y-15024D01*
X23274Y-15024D01*
X23824Y-15024D01*
X23916Y-14986D01*
X23986Y-14916D01*
X24024Y-14825D01*
X24024Y-14726D01*
X24024Y-14176D01*
X23986Y-14084D01*
X23916Y-14014D01*
X23825Y-13976D01*
X23726Y-13976D01*
X23722Y-13976D01*
X23797Y-13945D01*
X23945Y-13798D01*
X24025Y-13605D01*
X24025Y-13396D01*
X23945Y-13203D01*
X23798Y-13055D01*
X23664Y-12999D01*
X23797Y-12945D01*
X23945Y-12798D01*
X24025Y-12605D01*
X24025Y-12396D01*
X23945Y-12203D01*
X23798Y-12055D01*
X23664Y-11999D01*
X23797Y-11945D01*
X23945Y-11798D01*
X24025Y-11605D01*
X24025Y-11396D01*
X23945Y-11203D01*
X23798Y-11055D01*
X23664Y-10999D01*
X23797Y-10945D01*
X23945Y-10798D01*
X24025Y-10605D01*
X24025Y-10396D01*
X23945Y-10203D01*
X23798Y-10055D01*
X23664Y-09999D01*
X23797Y-09945D01*
X23945Y-09798D01*
X24025Y-09605D01*
X24025Y-09396D01*
X23945Y-09203D01*
X23798Y-09055D01*
X23664Y-08999D01*
X23797Y-08945D01*
X23945Y-08798D01*
X24025Y-08605D01*
X24025Y-08396D01*
X23945Y-08203D01*
X23798Y-08055D01*
X23664Y-07999D01*
X23797Y-07945D01*
X23945Y-07798D01*
X24025Y-07605D01*
X24025Y-07396D01*
X23945Y-07203D01*
X23798Y-07055D01*
X23664Y-06999D01*
X23797Y-06945D01*
X23945Y-06798D01*
X24025Y-06605D01*
X24025Y-06396D01*
X23945Y-06203D01*
X23798Y-06055D01*
X23664Y-05999D01*
X23797Y-05945D01*
X23945Y-05798D01*
X24025Y-05605D01*
X24025Y-05396D01*
X23945Y-05203D01*
X23798Y-05055D01*
X23783Y-05049D01*
X24084Y-05049D01*
X24084Y-24084D01*
X24084Y-24084D01*
G37*
G54D15*
X24084Y-24084D02*
X24025Y-24084D01*
X24025Y-23605D01*
X24025Y-23396D01*
X24025Y-17605D01*
X24025Y-17396D01*
X23945Y-17203D01*
X23798Y-17055D01*
X23605Y-16975D01*
X23396Y-16975D01*
X23203Y-17055D01*
X23055Y-17202D01*
X22999Y-17335D01*
X22945Y-17203D01*
X22798Y-17055D01*
X22605Y-16975D01*
X22396Y-16975D01*
X22203Y-17055D01*
X22055Y-17202D01*
X21999Y-17335D01*
X21945Y-17203D01*
X21798Y-17055D01*
X21605Y-16975D01*
X21396Y-16975D01*
X21203Y-17055D01*
X21055Y-17202D01*
X20999Y-17335D01*
X20945Y-17203D01*
X20798Y-17055D01*
X20605Y-16975D01*
X20396Y-16975D01*
X20203Y-17055D01*
X20055Y-17202D01*
X19999Y-17335D01*
X19945Y-17203D01*
X19798Y-17055D01*
X19605Y-16975D01*
X19396Y-16975D01*
X19203Y-17055D01*
X19055Y-17202D01*
X18999Y-17335D01*
X18945Y-17203D01*
X18798Y-17055D01*
X18605Y-16975D01*
X18396Y-16975D01*
X18203Y-17055D01*
X18055Y-17202D01*
X17999Y-17335D01*
X17945Y-17203D01*
X17798Y-17055D01*
X17605Y-16975D01*
X17396Y-16975D01*
X17203Y-17055D01*
X17055Y-17202D01*
X16999Y-17335D01*
X16945Y-17203D01*
X16798Y-17055D01*
X16605Y-16975D01*
X16396Y-16975D01*
X16203Y-17055D01*
X16055Y-17202D01*
X15999Y-17335D01*
X15945Y-17203D01*
X15798Y-17055D01*
X15605Y-16975D01*
X15396Y-16975D01*
X15203Y-17055D01*
X15055Y-17202D01*
X15024Y-17276D01*
X15024Y-17176D01*
X14986Y-17084D01*
X14916Y-17014D01*
X14825Y-16976D01*
X14726Y-16976D01*
X14176Y-16976D01*
X14084Y-17014D01*
X14014Y-17084D01*
X13976Y-17175D01*
X13976Y-17274D01*
X13976Y-17824D01*
X14014Y-17916D01*
X14084Y-17986D01*
X14175Y-18024D01*
X14274Y-18024D01*
X14824Y-18024D01*
X14916Y-17986D01*
X14986Y-17916D01*
X15024Y-17825D01*
X15024Y-17726D01*
X15024Y-17722D01*
X15055Y-17797D01*
X15202Y-17945D01*
X15210Y-17948D01*
X15210Y-18750D01*
X15232Y-18861D01*
X15295Y-18955D01*
X16325Y-19985D01*
X16325Y-20084D01*
X16389Y-20240D01*
X16509Y-20360D01*
X16665Y-20425D01*
X16834Y-20425D01*
X16990Y-20361D01*
X17110Y-20241D01*
X17175Y-20085D01*
X17175Y-19916D01*
X17111Y-19760D01*
X16991Y-19640D01*
X16835Y-19575D01*
X16735Y-19575D01*
X15790Y-18629D01*
X15790Y-17947D01*
X15797Y-17945D01*
X15945Y-17798D01*
X16000Y-17664D01*
X16055Y-17797D01*
X16202Y-17945D01*
X16210Y-17948D01*
X16210Y-18250D01*
X16232Y-18361D01*
X16295Y-18455D01*
X17325Y-19485D01*
X17325Y-19584D01*
X17389Y-19740D01*
X17509Y-19860D01*
X17665Y-19925D01*
X17834Y-19925D01*
X17990Y-19861D01*
X18110Y-19741D01*
X18175Y-19585D01*
X18175Y-19416D01*
X18111Y-19260D01*
X17991Y-19140D01*
X17835Y-19075D01*
X17735Y-19075D01*
X16790Y-18129D01*
X16790Y-17947D01*
X16797Y-17945D01*
X16945Y-17798D01*
X17000Y-17664D01*
X17055Y-17797D01*
X17202Y-17945D01*
X17395Y-18025D01*
X17604Y-18025D01*
X17797Y-17945D01*
X17945Y-17798D01*
X18000Y-17664D01*
X18055Y-17797D01*
X18202Y-17945D01*
X18395Y-18025D01*
X18604Y-18025D01*
X18797Y-17945D01*
X18945Y-17798D01*
X19000Y-17664D01*
X19055Y-17797D01*
X19202Y-17945D01*
X19395Y-18025D01*
X19604Y-18025D01*
X19797Y-17945D01*
X19945Y-17798D01*
X20000Y-17664D01*
X20055Y-17797D01*
X20202Y-17945D01*
X20395Y-18025D01*
X20604Y-18025D01*
X20797Y-17945D01*
X20945Y-17798D01*
X21000Y-17664D01*
X21055Y-17797D01*
X21202Y-17945D01*
X21210Y-17948D01*
X21210Y-18129D01*
X20264Y-19075D01*
X20166Y-19075D01*
X20010Y-19139D01*
X19890Y-19259D01*
X19825Y-19415D01*
X19825Y-19584D01*
X19889Y-19740D01*
X20009Y-19860D01*
X20165Y-19925D01*
X20334Y-19925D01*
X20490Y-19861D01*
X20610Y-19741D01*
X20675Y-19585D01*
X20675Y-19485D01*
X21705Y-18456D01*
X21705Y-18455D01*
X21746Y-18393D01*
X21767Y-18362D01*
X21768Y-18361D01*
X21789Y-18251D01*
X21790Y-18250D01*
X21790Y-17947D01*
X21797Y-17945D01*
X21945Y-17798D01*
X22000Y-17664D01*
X22055Y-17797D01*
X22202Y-17945D01*
X22210Y-17948D01*
X22210Y-18629D01*
X21264Y-19575D01*
X21166Y-19575D01*
X21010Y-19639D01*
X20890Y-19759D01*
X20825Y-19915D01*
X20825Y-20084D01*
X20889Y-20240D01*
X21009Y-20360D01*
X21165Y-20425D01*
X21334Y-20425D01*
X21490Y-20361D01*
X21610Y-20241D01*
X21675Y-20085D01*
X21675Y-19985D01*
X22705Y-18956D01*
X22705Y-18955D01*
X22746Y-18893D01*
X22767Y-18862D01*
X22768Y-18861D01*
X22789Y-18751D01*
X22790Y-18750D01*
X22790Y-17947D01*
X22797Y-17945D01*
X22945Y-17798D01*
X23000Y-17664D01*
X23055Y-17797D01*
X23202Y-17945D01*
X23395Y-18025D01*
X23604Y-18025D01*
X23797Y-17945D01*
X23945Y-17798D01*
X24025Y-17605D01*
X24025Y-23396D01*
X23945Y-23203D01*
X23798Y-23055D01*
X23605Y-22975D01*
X23396Y-22975D01*
X23203Y-23055D01*
X23055Y-23202D01*
X22999Y-23335D01*
X22945Y-23203D01*
X22798Y-23055D01*
X22790Y-23051D01*
X22790Y-22250D01*
X22789Y-22249D01*
X22768Y-22139D01*
X22767Y-22138D01*
X22746Y-22107D01*
X22705Y-22045D01*
X22705Y-22044D01*
X21675Y-21014D01*
X21675Y-20916D01*
X21611Y-20760D01*
X21491Y-20640D01*
X21335Y-20575D01*
X21166Y-20575D01*
X21010Y-20639D01*
X20890Y-20759D01*
X20825Y-20915D01*
X20825Y-21084D01*
X20889Y-21240D01*
X21009Y-21360D01*
X21165Y-21425D01*
X21264Y-21425D01*
X22210Y-22370D01*
X22210Y-23052D01*
X22203Y-23055D01*
X22055Y-23202D01*
X21999Y-23335D01*
X21945Y-23203D01*
X21798Y-23055D01*
X21790Y-23051D01*
X21790Y-22750D01*
X21789Y-22749D01*
X21768Y-22639D01*
X21767Y-22638D01*
X21746Y-22607D01*
X21705Y-22545D01*
X21705Y-22544D01*
X20675Y-21514D01*
X20675Y-21416D01*
X20611Y-21260D01*
X20491Y-21140D01*
X20335Y-21075D01*
X20166Y-21075D01*
X20010Y-21139D01*
X19890Y-21259D01*
X19825Y-21415D01*
X19825Y-21584D01*
X19889Y-21740D01*
X20009Y-21860D01*
X20165Y-21925D01*
X20264Y-21925D01*
X21210Y-22870D01*
X21210Y-23052D01*
X21203Y-23055D01*
X21055Y-23202D01*
X20999Y-23335D01*
X20945Y-23203D01*
X20798Y-23055D01*
X20605Y-22975D01*
X20396Y-22975D01*
X20203Y-23055D01*
X20055Y-23202D01*
X19999Y-23335D01*
X19945Y-23203D01*
X19798Y-23055D01*
X19605Y-22975D01*
X19396Y-22975D01*
X19203Y-23055D01*
X19055Y-23202D01*
X18999Y-23335D01*
X18945Y-23203D01*
X18798Y-23055D01*
X18605Y-22975D01*
X18396Y-22975D01*
X18203Y-23055D01*
X18055Y-23202D01*
X17999Y-23335D01*
X17945Y-23203D01*
X17798Y-23055D01*
X17605Y-22975D01*
X17396Y-22975D01*
X17203Y-23055D01*
X17055Y-23202D01*
X16999Y-23335D01*
X16945Y-23203D01*
X16798Y-23055D01*
X16790Y-23051D01*
X16790Y-22870D01*
X17735Y-21925D01*
X17834Y-21925D01*
X17990Y-21861D01*
X18110Y-21741D01*
X18175Y-21585D01*
X18175Y-21416D01*
X18111Y-21260D01*
X17991Y-21140D01*
X17835Y-21075D01*
X17666Y-21075D01*
X17510Y-21139D01*
X17390Y-21259D01*
X17325Y-21415D01*
X17325Y-21514D01*
X16295Y-22545D01*
X16232Y-22639D01*
X16210Y-22750D01*
X16210Y-23052D01*
X16203Y-23055D01*
X16055Y-23202D01*
X15999Y-23335D01*
X15945Y-23203D01*
X15798Y-23055D01*
X15790Y-23051D01*
X15790Y-22370D01*
X16735Y-21425D01*
X16834Y-21425D01*
X16990Y-21361D01*
X17110Y-21241D01*
X17175Y-21085D01*
X17175Y-20916D01*
X17111Y-20760D01*
X16991Y-20640D01*
X16835Y-20575D01*
X16666Y-20575D01*
X16510Y-20639D01*
X16390Y-20759D01*
X16325Y-20915D01*
X16325Y-21014D01*
X15295Y-22045D01*
X15232Y-22139D01*
X15210Y-22250D01*
X15210Y-23052D01*
X15203Y-23055D01*
X15055Y-23202D01*
X15024Y-23276D01*
X15024Y-23176D01*
X14986Y-23084D01*
X14916Y-23014D01*
X14825Y-22976D01*
X14726Y-22976D01*
X14176Y-22976D01*
X14084Y-23014D01*
X14014Y-23084D01*
X13976Y-23175D01*
X13976Y-23274D01*
X13976Y-23824D01*
X14014Y-23916D01*
X14084Y-23986D01*
X14175Y-24024D01*
X14274Y-24024D01*
X14824Y-24024D01*
X14916Y-23986D01*
X14986Y-23916D01*
X15024Y-23825D01*
X15024Y-23726D01*
X15024Y-23722D01*
X15055Y-23797D01*
X15202Y-23945D01*
X15395Y-24025D01*
X15604Y-24025D01*
X15797Y-23945D01*
X15945Y-23798D01*
X16000Y-23664D01*
X16055Y-23797D01*
X16202Y-23945D01*
X16395Y-24025D01*
X16604Y-24025D01*
X16797Y-23945D01*
X16945Y-23798D01*
X17000Y-23664D01*
X17055Y-23797D01*
X17202Y-23945D01*
X17395Y-24025D01*
X17604Y-24025D01*
X17797Y-23945D01*
X17945Y-23798D01*
X18000Y-23664D01*
X18055Y-23797D01*
X18202Y-23945D01*
X18395Y-24025D01*
X18604Y-24025D01*
X18797Y-23945D01*
X18945Y-23798D01*
X19000Y-23664D01*
X19055Y-23797D01*
X19202Y-23945D01*
X19395Y-24025D01*
X19604Y-24025D01*
X19797Y-23945D01*
X19945Y-23798D01*
X20000Y-23664D01*
X20055Y-23797D01*
X20202Y-23945D01*
X20395Y-24025D01*
X20604Y-24025D01*
X20797Y-23945D01*
X20945Y-23798D01*
X21000Y-23664D01*
X21055Y-23797D01*
X21202Y-23945D01*
X21395Y-24025D01*
X21604Y-24025D01*
X21797Y-23945D01*
X21945Y-23798D01*
X22000Y-23664D01*
X22055Y-23797D01*
X22202Y-23945D01*
X22395Y-24025D01*
X22604Y-24025D01*
X22797Y-23945D01*
X22945Y-23798D01*
X23000Y-23664D01*
X23055Y-23797D01*
X23202Y-23945D01*
X23395Y-24025D01*
X23604Y-24025D01*
X23797Y-23945D01*
X23945Y-23798D01*
X24025Y-23605D01*
X24025Y-24084D01*
X12025Y-24084D01*
X12025Y-22605D01*
X12025Y-22396D01*
X11945Y-22203D01*
X11798Y-22055D01*
X11664Y-21999D01*
X11797Y-21945D01*
X11945Y-21798D01*
X12025Y-21605D01*
X12025Y-21396D01*
X11945Y-21203D01*
X11798Y-21055D01*
X11664Y-20999D01*
X11797Y-20945D01*
X11945Y-20798D01*
X12025Y-20605D01*
X12025Y-20396D01*
X11945Y-20203D01*
X11798Y-20055D01*
X11664Y-19999D01*
X11797Y-19945D01*
X11945Y-19798D01*
X12025Y-19605D01*
X12025Y-19396D01*
X11945Y-19203D01*
X11798Y-19055D01*
X11664Y-18999D01*
X11797Y-18945D01*
X11945Y-18798D01*
X12025Y-18605D01*
X12025Y-18396D01*
X11945Y-18203D01*
X11798Y-18055D01*
X11664Y-17999D01*
X11797Y-17945D01*
X11945Y-17798D01*
X12025Y-17605D01*
X12025Y-17396D01*
X11945Y-17203D01*
X11798Y-17055D01*
X11664Y-16999D01*
X11797Y-16945D01*
X11945Y-16798D01*
X12025Y-16605D01*
X12025Y-16396D01*
X11945Y-16203D01*
X11798Y-16055D01*
X11664Y-15999D01*
X11797Y-15945D01*
X11945Y-15798D01*
X12025Y-15605D01*
X12025Y-15396D01*
X11945Y-15203D01*
X11798Y-15055D01*
X11664Y-14999D01*
X11797Y-14945D01*
X11945Y-14798D01*
X12025Y-14605D01*
X12025Y-14396D01*
X11945Y-14203D01*
X11798Y-14055D01*
X11605Y-13975D01*
X11396Y-13975D01*
X11203Y-14055D01*
X11055Y-14202D01*
X10975Y-14395D01*
X10975Y-14604D01*
X11055Y-14797D01*
X11202Y-14945D01*
X11335Y-15000D01*
X11203Y-15055D01*
X11055Y-15202D01*
X11051Y-15210D01*
X10250Y-15210D01*
X10139Y-15232D01*
X10107Y-15253D01*
X10044Y-15295D01*
X09014Y-16325D01*
X08916Y-16325D01*
X08760Y-16389D01*
X08640Y-16509D01*
X08575Y-16665D01*
X08575Y-16834D01*
X08639Y-16990D01*
X08759Y-17110D01*
X08915Y-17175D01*
X09084Y-17175D01*
X09240Y-17111D01*
X09360Y-16991D01*
X09425Y-16835D01*
X09425Y-16735D01*
X10370Y-15790D01*
X11052Y-15790D01*
X11055Y-15797D01*
X11202Y-15945D01*
X11335Y-16000D01*
X11203Y-16055D01*
X11055Y-16202D01*
X11051Y-16210D01*
X10750Y-16210D01*
X10639Y-16232D01*
X10607Y-16253D01*
X10544Y-16295D01*
X09514Y-17325D01*
X09416Y-17325D01*
X09260Y-17389D01*
X09140Y-17509D01*
X09075Y-17665D01*
X09075Y-17834D01*
X09139Y-17990D01*
X09259Y-18110D01*
X09415Y-18175D01*
X09584Y-18175D01*
X09740Y-18111D01*
X09860Y-17991D01*
X09925Y-17835D01*
X09925Y-17735D01*
X10870Y-16790D01*
X11052Y-16790D01*
X11055Y-16797D01*
X11202Y-16945D01*
X11335Y-17000D01*
X11203Y-17055D01*
X11055Y-17202D01*
X10975Y-17395D01*
X10975Y-17604D01*
X11055Y-17797D01*
X11202Y-17945D01*
X11335Y-18000D01*
X11203Y-18055D01*
X11055Y-18202D01*
X10975Y-18395D01*
X10975Y-18604D01*
X11055Y-18797D01*
X11202Y-18945D01*
X11335Y-19000D01*
X11203Y-19055D01*
X11055Y-19202D01*
X10975Y-19395D01*
X10975Y-19604D01*
X11055Y-19797D01*
X11202Y-19945D01*
X11335Y-20000D01*
X11203Y-20055D01*
X11055Y-20202D01*
X10975Y-20395D01*
X10975Y-20604D01*
X11055Y-20797D01*
X11202Y-20945D01*
X11335Y-21000D01*
X11203Y-21055D01*
X11055Y-21202D01*
X11051Y-21210D01*
X10870Y-21210D01*
X09925Y-20264D01*
X09925Y-20166D01*
X09861Y-20010D01*
X09741Y-19890D01*
X09585Y-19825D01*
X09416Y-19825D01*
X09260Y-19889D01*
X09140Y-20009D01*
X09075Y-20165D01*
X09075Y-20334D01*
X09139Y-20490D01*
X09259Y-20610D01*
X09415Y-20675D01*
X09514Y-20675D01*
X10544Y-21705D01*
X10545Y-21705D01*
X10607Y-21746D01*
X10638Y-21767D01*
X10639Y-21768D01*
X10749Y-21789D01*
X10750Y-21790D01*
X11052Y-21790D01*
X11055Y-21797D01*
X11202Y-21945D01*
X11335Y-22000D01*
X11203Y-22055D01*
X11055Y-22202D01*
X11051Y-22210D01*
X10370Y-22210D01*
X09425Y-21264D01*
X09425Y-21166D01*
X09361Y-21010D01*
X09241Y-20890D01*
X09085Y-20825D01*
X08916Y-20825D01*
X08760Y-20889D01*
X08640Y-21009D01*
X08575Y-21165D01*
X08575Y-21334D01*
X08639Y-21490D01*
X08759Y-21610D01*
X08915Y-21675D01*
X09014Y-21675D01*
X10044Y-22705D01*
X10045Y-22705D01*
X10107Y-22746D01*
X10138Y-22767D01*
X10139Y-22768D01*
X10249Y-22789D01*
X10250Y-22790D01*
X11052Y-22790D01*
X11055Y-22797D01*
X11202Y-22945D01*
X11276Y-22976D01*
X11176Y-22976D01*
X11084Y-23014D01*
X11014Y-23084D01*
X10976Y-23175D01*
X10976Y-23274D01*
X10976Y-23824D01*
X11014Y-23916D01*
X11084Y-23986D01*
X11175Y-24024D01*
X11274Y-24024D01*
X11824Y-24024D01*
X11916Y-23986D01*
X11986Y-23916D01*
X12024Y-23825D01*
X12024Y-23726D01*
X12024Y-23176D01*
X11986Y-23084D01*
X11916Y-23014D01*
X11825Y-22976D01*
X11726Y-22976D01*
X11722Y-22976D01*
X11797Y-22945D01*
X11945Y-22798D01*
X12025Y-22605D01*
X12025Y-24084D01*
X05049Y-24084D01*
X05049Y-23951D01*
X05084Y-23986D01*
X05175Y-24024D01*
X05274Y-24024D01*
X05824Y-24024D01*
X05916Y-23986D01*
X05986Y-23916D01*
X06024Y-23825D01*
X06024Y-23726D01*
X06024Y-23176D01*
X05986Y-23084D01*
X05916Y-23014D01*
X05825Y-22976D01*
X05726Y-22976D01*
X05722Y-22976D01*
X05797Y-22945D01*
X05945Y-22798D01*
X05948Y-22790D01*
X06750Y-22790D01*
X06861Y-22768D01*
X06955Y-22705D01*
X07985Y-21675D01*
X08084Y-21675D01*
X08240Y-21611D01*
X08360Y-21491D01*
X08425Y-21335D01*
X08425Y-21166D01*
X08361Y-21010D01*
X08241Y-20890D01*
X08085Y-20825D01*
X07916Y-20825D01*
X07760Y-20889D01*
X07640Y-21009D01*
X07575Y-21165D01*
X07575Y-21264D01*
X06629Y-22210D01*
X05947Y-22210D01*
X05945Y-22203D01*
X05798Y-22055D01*
X05664Y-21999D01*
X05797Y-21945D01*
X05945Y-21798D01*
X05948Y-21790D01*
X06250Y-21790D01*
X06361Y-21768D01*
X06455Y-21705D01*
X07485Y-20675D01*
X07584Y-20675D01*
X07740Y-20611D01*
X07860Y-20491D01*
X07925Y-20335D01*
X07925Y-20166D01*
X07861Y-20010D01*
X07741Y-19890D01*
X07585Y-19825D01*
X07416Y-19825D01*
X07260Y-19889D01*
X07140Y-20009D01*
X07075Y-20165D01*
X07075Y-20264D01*
X06129Y-21210D01*
X05947Y-21210D01*
X05945Y-21203D01*
X05798Y-21055D01*
X05664Y-20999D01*
X05797Y-20945D01*
X05945Y-20798D01*
X06025Y-20605D01*
X06025Y-20396D01*
X05945Y-20203D01*
X05798Y-20055D01*
X05664Y-19999D01*
X05797Y-19945D01*
X05945Y-19798D01*
X06025Y-19605D01*
X06025Y-19396D01*
X05945Y-19203D01*
X05798Y-19055D01*
X05664Y-18999D01*
X05797Y-18945D01*
X05945Y-18798D01*
X06025Y-18605D01*
X06025Y-18396D01*
X05945Y-18203D01*
X05798Y-18055D01*
X05664Y-17999D01*
X05797Y-17945D01*
X05945Y-17798D01*
X06025Y-17605D01*
X06025Y-17396D01*
X05945Y-17203D01*
X05798Y-17055D01*
X05664Y-16999D01*
X05797Y-16945D01*
X05945Y-16798D01*
X05948Y-16790D01*
X06129Y-16790D01*
X07075Y-17735D01*
X07075Y-17834D01*
X07139Y-17990D01*
X07259Y-18110D01*
X07415Y-18175D01*
X07584Y-18175D01*
X07740Y-18111D01*
X07860Y-17991D01*
X07925Y-17835D01*
X07925Y-17666D01*
X07861Y-17510D01*
X07741Y-17390D01*
X07585Y-17325D01*
X07485Y-17325D01*
X06455Y-16295D01*
X06361Y-16232D01*
X06250Y-16210D01*
X05947Y-16210D01*
X05945Y-16203D01*
X05798Y-16055D01*
X05664Y-15999D01*
X05797Y-15945D01*
X05945Y-15798D01*
X05948Y-15790D01*
X06629Y-15790D01*
X07575Y-16735D01*
X07575Y-16834D01*
X07639Y-16990D01*
X07759Y-17110D01*
X07915Y-17175D01*
X08084Y-17175D01*
X08240Y-17111D01*
X08360Y-16991D01*
X08425Y-16835D01*
X08425Y-16666D01*
X08361Y-16510D01*
X08241Y-16390D01*
X08085Y-16325D01*
X07985Y-16325D01*
X06955Y-15295D01*
X06861Y-15232D01*
X06750Y-15210D01*
X05947Y-15210D01*
X05945Y-15203D01*
X05798Y-15055D01*
X05664Y-14999D01*
X05797Y-14945D01*
X05945Y-14798D01*
X06025Y-14605D01*
X06025Y-14396D01*
X05945Y-14203D01*
X05798Y-14055D01*
X05605Y-13975D01*
X05396Y-13975D01*
X05203Y-14055D01*
X05055Y-14202D01*
X05049Y-14216D01*
X05049Y-11951D01*
X05084Y-11986D01*
X05175Y-12024D01*
X05274Y-12024D01*
X05824Y-12024D01*
X05916Y-11986D01*
X05986Y-11916D01*
X06024Y-11825D01*
X06024Y-11726D01*
X06024Y-11722D01*
X06055Y-11797D01*
X06202Y-11945D01*
X06395Y-12025D01*
X06604Y-12025D01*
X06797Y-11945D01*
X06945Y-11798D01*
X07000Y-11664D01*
X07055Y-11797D01*
X07202Y-11945D01*
X07395Y-12025D01*
X07604Y-12025D01*
X07797Y-11945D01*
X07945Y-11798D01*
X08000Y-11664D01*
X08055Y-11797D01*
X08202Y-11945D01*
X08395Y-12025D01*
X08604Y-12025D01*
X08797Y-11945D01*
X08945Y-11798D01*
X09000Y-11664D01*
X09055Y-11797D01*
X09202Y-11945D01*
X09395Y-12025D01*
X09604Y-12025D01*
X09797Y-11945D01*
X09945Y-11798D01*
X10000Y-11664D01*
X10055Y-11797D01*
X10202Y-11945D01*
X10395Y-12025D01*
X10604Y-12025D01*
X10797Y-11945D01*
X10945Y-11798D01*
X11000Y-11664D01*
X11055Y-11797D01*
X11202Y-11945D01*
X11395Y-12025D01*
X11604Y-12025D01*
X11797Y-11945D01*
X11945Y-11798D01*
X12000Y-11664D01*
X12055Y-11797D01*
X12202Y-11945D01*
X12395Y-12025D01*
X12604Y-12025D01*
X12797Y-11945D01*
X12945Y-11798D01*
X13000Y-11664D01*
X13055Y-11797D01*
X13202Y-11945D01*
X13395Y-12025D01*
X13604Y-12025D01*
X13797Y-11945D01*
X13945Y-11798D01*
X14000Y-11664D01*
X14055Y-11797D01*
X14202Y-11945D01*
X14395Y-12025D01*
X14604Y-12025D01*
X14797Y-11945D01*
X14945Y-11798D01*
X15025Y-11605D01*
X15025Y-11396D01*
X14945Y-11203D01*
X14798Y-11055D01*
X14605Y-10975D01*
X14396Y-10975D01*
X14203Y-11055D01*
X14055Y-11202D01*
X13999Y-11335D01*
X13945Y-11203D01*
X13798Y-11055D01*
X13790Y-11051D01*
X13790Y-10250D01*
X13789Y-10249D01*
X13768Y-10139D01*
X13767Y-10138D01*
X13746Y-10107D01*
X13705Y-10045D01*
X13705Y-10044D01*
X12675Y-09014D01*
X12675Y-08916D01*
X12611Y-08760D01*
X12491Y-08640D01*
X12335Y-08575D01*
X12166Y-08575D01*
X12010Y-08639D01*
X11890Y-08759D01*
X11825Y-08915D01*
X11825Y-09084D01*
X11889Y-09240D01*
X12009Y-09360D01*
X12165Y-09425D01*
X12264Y-09425D01*
X13210Y-10370D01*
X13210Y-11052D01*
X13203Y-11055D01*
X13055Y-11202D01*
X12999Y-11335D01*
X12945Y-11203D01*
X12798Y-11055D01*
X12790Y-11051D01*
X12790Y-10750D01*
X12789Y-10749D01*
X12768Y-10639D01*
X12767Y-10638D01*
X12746Y-10607D01*
X12705Y-10545D01*
X12705Y-10544D01*
X11675Y-09514D01*
X11675Y-09416D01*
X11611Y-09260D01*
X11491Y-09140D01*
X11335Y-09075D01*
X11166Y-09075D01*
X11010Y-09139D01*
X10890Y-09259D01*
X10825Y-09415D01*
X10825Y-09584D01*
X10889Y-09740D01*
X11009Y-09860D01*
X11165Y-09925D01*
X11264Y-09925D01*
X12210Y-10870D01*
X12210Y-11052D01*
X12203Y-11055D01*
X12055Y-11202D01*
X11999Y-11335D01*
X11945Y-11203D01*
X11798Y-11055D01*
X11605Y-10975D01*
X11396Y-10975D01*
X11203Y-11055D01*
X11055Y-11202D01*
X10999Y-11335D01*
X10945Y-11203D01*
X10798Y-11055D01*
X10605Y-10975D01*
X10396Y-10975D01*
X10203Y-11055D01*
X10055Y-11202D01*
X09999Y-11335D01*
X09945Y-11203D01*
X09798Y-11055D01*
X09605Y-10975D01*
X09396Y-10975D01*
X09203Y-11055D01*
X09055Y-11202D01*
X08999Y-11335D01*
X08945Y-11203D01*
X08798Y-11055D01*
X08605Y-10975D01*
X08396Y-10975D01*
X08203Y-11055D01*
X08055Y-11202D01*
X07999Y-11335D01*
X07945Y-11203D01*
X07798Y-11055D01*
X07790Y-11051D01*
X07790Y-10870D01*
X08735Y-09925D01*
X08834Y-09925D01*
X08990Y-09861D01*
X09110Y-09741D01*
X09175Y-09585D01*
X09175Y-09416D01*
X09111Y-09260D01*
X08991Y-09140D01*
X08835Y-09075D01*
X08666Y-09075D01*
X08510Y-09139D01*
X08390Y-09259D01*
X08325Y-09415D01*
X08325Y-09514D01*
X07295Y-10545D01*
X07232Y-10639D01*
X07210Y-10750D01*
X07210Y-11052D01*
X07203Y-11055D01*
X07055Y-11202D01*
X06999Y-11335D01*
X06945Y-11203D01*
X06798Y-11055D01*
X06790Y-11051D01*
X06790Y-10370D01*
X07735Y-09425D01*
X07834Y-09425D01*
X07990Y-09361D01*
X08110Y-09241D01*
X08175Y-09085D01*
X08175Y-08916D01*
X08111Y-08760D01*
X07991Y-08640D01*
X07835Y-08575D01*
X07666Y-08575D01*
X07510Y-08639D01*
X07390Y-08759D01*
X07325Y-08915D01*
X07325Y-09014D01*
X06295Y-10045D01*
X06232Y-10139D01*
X06210Y-10250D01*
X06210Y-11052D01*
X06203Y-11055D01*
X06055Y-11202D01*
X06024Y-11276D01*
X06024Y-11176D01*
X05986Y-11084D01*
X05916Y-11014D01*
X05825Y-10976D01*
X05726Y-10976D01*
X05176Y-10976D01*
X05084Y-11014D01*
X05049Y-11049D01*
X05049Y-05951D01*
X05084Y-05986D01*
X05175Y-06024D01*
X05274Y-06024D01*
X05824Y-06024D01*
X05916Y-05986D01*
X05986Y-05916D01*
X06024Y-05825D01*
X06024Y-05726D01*
X06024Y-05722D01*
X06055Y-05797D01*
X06202Y-05945D01*
X06210Y-05948D01*
X06210Y-06750D01*
X06232Y-06861D01*
X06295Y-06955D01*
X07325Y-07985D01*
X07325Y-08084D01*
X07389Y-08240D01*
X07509Y-08360D01*
X07665Y-08425D01*
X07834Y-08425D01*
X07990Y-08361D01*
X08110Y-08241D01*
X08175Y-08085D01*
X08175Y-07916D01*
X08111Y-07760D01*
X07991Y-07640D01*
X07835Y-07575D01*
X07735Y-07575D01*
X06790Y-06629D01*
X06790Y-05947D01*
X06797Y-05945D01*
X06945Y-05798D01*
X07000Y-05664D01*
X07055Y-05797D01*
X07202Y-05945D01*
X07210Y-05948D01*
X07210Y-06250D01*
X07232Y-06361D01*
X07295Y-06455D01*
X08325Y-07485D01*
X08325Y-07584D01*
X08389Y-07740D01*
X08509Y-07860D01*
X08665Y-07925D01*
X08834Y-07925D01*
X08990Y-07861D01*
X09110Y-07741D01*
X09175Y-07585D01*
X09175Y-07416D01*
X09111Y-07260D01*
X08991Y-07140D01*
X08835Y-07075D01*
X08735Y-07075D01*
X07790Y-06129D01*
X07790Y-05947D01*
X07797Y-05945D01*
X07945Y-05798D01*
X08000Y-05664D01*
X08055Y-05797D01*
X08202Y-05945D01*
X08395Y-06025D01*
X08604Y-06025D01*
X08797Y-05945D01*
X08945Y-05798D01*
X09000Y-05664D01*
X09055Y-05797D01*
X09202Y-05945D01*
X09395Y-06025D01*
X09604Y-06025D01*
X09797Y-05945D01*
X09945Y-05798D01*
X10000Y-05664D01*
X10055Y-05797D01*
X10202Y-05945D01*
X10395Y-06025D01*
X10604Y-06025D01*
X10797Y-05945D01*
X10945Y-05798D01*
X11000Y-05664D01*
X11055Y-05797D01*
X11202Y-05945D01*
X11395Y-06025D01*
X11604Y-06025D01*
X11797Y-05945D01*
X11945Y-05798D01*
X12000Y-05664D01*
X12055Y-05797D01*
X12202Y-05945D01*
X12210Y-05948D01*
X12210Y-06129D01*
X11264Y-07075D01*
X11166Y-07075D01*
X11010Y-07139D01*
X10890Y-07259D01*
X10825Y-07415D01*
X10825Y-07584D01*
X10889Y-07740D01*
X11009Y-07860D01*
X11165Y-07925D01*
X11334Y-07925D01*
X11490Y-07861D01*
X11610Y-07741D01*
X11675Y-07585D01*
X11675Y-07485D01*
X12705Y-06456D01*
X12705Y-06455D01*
X12746Y-06393D01*
X12767Y-06362D01*
X12768Y-06361D01*
X12789Y-06251D01*
X12790Y-06250D01*
X12790Y-05947D01*
X12797Y-05945D01*
X12945Y-05798D01*
X13000Y-05664D01*
X13055Y-05797D01*
X13202Y-05945D01*
X13210Y-05948D01*
X13210Y-06629D01*
X12264Y-07575D01*
X12166Y-07575D01*
X12010Y-07639D01*
X11890Y-07759D01*
X11825Y-07915D01*
X11825Y-08084D01*
X11889Y-08240D01*
X12009Y-08360D01*
X12165Y-08425D01*
X12334Y-08425D01*
X12490Y-08361D01*
X12610Y-08241D01*
X12675Y-08085D01*
X12675Y-07985D01*
X13705Y-06956D01*
X13705Y-06955D01*
X13746Y-06893D01*
X13767Y-06862D01*
X13768Y-06861D01*
X13789Y-06751D01*
X13790Y-06750D01*
X13790Y-05947D01*
X13797Y-05945D01*
X13945Y-05798D01*
X14000Y-05664D01*
X14055Y-05797D01*
X14202Y-05945D01*
X14395Y-06025D01*
X14604Y-06025D01*
X14797Y-05945D01*
X14945Y-05798D01*
X15025Y-05605D01*
X15025Y-05396D01*
X14945Y-05203D01*
X14798Y-05055D01*
X14783Y-05049D01*
X17217Y-05049D01*
X17203Y-05055D01*
X17055Y-05202D01*
X16975Y-05395D01*
X16975Y-05604D01*
X17055Y-05797D01*
X17202Y-05945D01*
X17335Y-06000D01*
X17203Y-06055D01*
X17055Y-06202D01*
X16975Y-06395D01*
X16975Y-06604D01*
X17055Y-06797D01*
X17202Y-06945D01*
X17335Y-07000D01*
X17203Y-07055D01*
X17055Y-07202D01*
X16975Y-07395D01*
X16975Y-07604D01*
X17055Y-07797D01*
X17202Y-07945D01*
X17335Y-08000D01*
X17203Y-08055D01*
X17055Y-08202D01*
X16975Y-08395D01*
X16975Y-08604D01*
X17055Y-08797D01*
X17202Y-08945D01*
X17335Y-09000D01*
X17203Y-09055D01*
X17055Y-09202D01*
X16975Y-09395D01*
X16975Y-09604D01*
X17055Y-09797D01*
X17202Y-09945D01*
X17335Y-10000D01*
X17203Y-10055D01*
X17055Y-10202D01*
X16975Y-10395D01*
X16975Y-10604D01*
X17055Y-10797D01*
X17202Y-10945D01*
X17335Y-11000D01*
X17203Y-11055D01*
X17055Y-11202D01*
X16975Y-11395D01*
X16975Y-11604D01*
X17055Y-11797D01*
X17202Y-11945D01*
X17335Y-12000D01*
X17203Y-12055D01*
X17055Y-12202D01*
X16975Y-12395D01*
X16975Y-12604D01*
X17055Y-12797D01*
X17202Y-12945D01*
X17335Y-13000D01*
X17203Y-13055D01*
X17055Y-13202D01*
X16975Y-13395D01*
X16975Y-13604D01*
X17055Y-13797D01*
X17202Y-13945D01*
X17276Y-13976D01*
X17176Y-13976D01*
X17084Y-14014D01*
X17014Y-14084D01*
X16976Y-14175D01*
X16976Y-14274D01*
X16976Y-14824D01*
X17014Y-14916D01*
X17084Y-14986D01*
X17175Y-15024D01*
X17274Y-15024D01*
X17824Y-15024D01*
X17916Y-14986D01*
X17986Y-14916D01*
X18024Y-14825D01*
X18024Y-14726D01*
X18024Y-14176D01*
X17986Y-14084D01*
X17916Y-14014D01*
X17825Y-13976D01*
X17726Y-13976D01*
X17722Y-13976D01*
X17797Y-13945D01*
X17945Y-13798D01*
X17948Y-13790D01*
X18750Y-13790D01*
X18861Y-13768D01*
X18955Y-13705D01*
X19985Y-12675D01*
X20084Y-12675D01*
X20240Y-12611D01*
X20360Y-12491D01*
X20425Y-12335D01*
X20425Y-12166D01*
X20361Y-12010D01*
X20241Y-11890D01*
X20085Y-11825D01*
X19916Y-11825D01*
X19760Y-11889D01*
X19640Y-12009D01*
X19575Y-12165D01*
X19575Y-12264D01*
X18629Y-13210D01*
X17947Y-13210D01*
X17945Y-13203D01*
X17798Y-13055D01*
X17664Y-12999D01*
X17797Y-12945D01*
X17945Y-12798D01*
X17948Y-12790D01*
X18250Y-12790D01*
X18361Y-12768D01*
X18455Y-12705D01*
X19485Y-11675D01*
X19584Y-11675D01*
X19740Y-11611D01*
X19860Y-11491D01*
X19925Y-11335D01*
X19925Y-11166D01*
X19861Y-11010D01*
X19741Y-10890D01*
X19585Y-10825D01*
X19416Y-10825D01*
X19260Y-10889D01*
X19140Y-11009D01*
X19075Y-11165D01*
X19075Y-11264D01*
X18129Y-12210D01*
X17947Y-12210D01*
X17945Y-12203D01*
X17798Y-12055D01*
X17664Y-11999D01*
X17797Y-11945D01*
X17945Y-11798D01*
X18025Y-11605D01*
X18025Y-11396D01*
X17945Y-11203D01*
X17798Y-11055D01*
X17664Y-10999D01*
X17797Y-10945D01*
X17945Y-10798D01*
X18025Y-10605D01*
X18025Y-10396D01*
X17945Y-10203D01*
X17798Y-10055D01*
X17664Y-09999D01*
X17797Y-09945D01*
X17945Y-09798D01*
X18025Y-09605D01*
X18025Y-09396D01*
X17945Y-09203D01*
X17798Y-09055D01*
X17664Y-08999D01*
X17797Y-08945D01*
X17945Y-08798D01*
X18025Y-08605D01*
X18025Y-08396D01*
X17945Y-08203D01*
X17798Y-08055D01*
X17664Y-07999D01*
X17797Y-07945D01*
X17945Y-07798D01*
X17948Y-07790D01*
X18129Y-07790D01*
X19075Y-08735D01*
X19075Y-08834D01*
X19139Y-08990D01*
X19259Y-09110D01*
X19415Y-09175D01*
X19584Y-09175D01*
X19740Y-09111D01*
X19860Y-08991D01*
X19925Y-08835D01*
X19925Y-08666D01*
X19861Y-08510D01*
X19741Y-08390D01*
X19585Y-08325D01*
X19485Y-08325D01*
X18455Y-07295D01*
X18361Y-07232D01*
X18250Y-07210D01*
X17947Y-07210D01*
X17945Y-07203D01*
X17798Y-07055D01*
X17664Y-06999D01*
X17797Y-06945D01*
X17945Y-06798D01*
X17948Y-06790D01*
X18629Y-06790D01*
X19575Y-07735D01*
X19575Y-07834D01*
X19639Y-07990D01*
X19759Y-08110D01*
X19915Y-08175D01*
X20084Y-08175D01*
X20240Y-08111D01*
X20360Y-07991D01*
X20425Y-07835D01*
X20425Y-07666D01*
X20361Y-07510D01*
X20241Y-07390D01*
X20085Y-07325D01*
X19985Y-07325D01*
X18955Y-06295D01*
X18861Y-06232D01*
X18750Y-06210D01*
X17947Y-06210D01*
X17945Y-06203D01*
X17798Y-06055D01*
X17664Y-05999D01*
X17797Y-05945D01*
X17945Y-05798D01*
X18025Y-05605D01*
X18025Y-05396D01*
X17945Y-05203D01*
X17798Y-05055D01*
X17783Y-05049D01*
X23217Y-05049D01*
X23203Y-05055D01*
X23055Y-05202D01*
X22975Y-05395D01*
X22975Y-05604D01*
X23055Y-05797D01*
X23202Y-05945D01*
X23335Y-06000D01*
X23203Y-06055D01*
X23055Y-06202D01*
X23051Y-06210D01*
X22250Y-06210D01*
X22139Y-06232D01*
X22107Y-06253D01*
X22044Y-06295D01*
X21014Y-07325D01*
X20916Y-07325D01*
X20760Y-07389D01*
X20640Y-07509D01*
X20575Y-07665D01*
X20575Y-07834D01*
X20639Y-07990D01*
X20759Y-08110D01*
X20915Y-08175D01*
X21084Y-08175D01*
X21240Y-08111D01*
X21360Y-07991D01*
X21425Y-07835D01*
X21425Y-07735D01*
X22370Y-06790D01*
X23052Y-06790D01*
X23055Y-06797D01*
X23202Y-06945D01*
X23335Y-07000D01*
X23203Y-07055D01*
X23055Y-07202D01*
X23051Y-07210D01*
X22750Y-07210D01*
X22639Y-07232D01*
X22607Y-07253D01*
X22544Y-07295D01*
X21514Y-08325D01*
X21416Y-08325D01*
X21260Y-08389D01*
X21140Y-08509D01*
X21075Y-08665D01*
X21075Y-08834D01*
X21139Y-08990D01*
X21259Y-09110D01*
X21415Y-09175D01*
X21584Y-09175D01*
X21740Y-09111D01*
X21860Y-08991D01*
X21925Y-08835D01*
X21925Y-08735D01*
X22870Y-07790D01*
X23052Y-07790D01*
X23055Y-07797D01*
X23202Y-07945D01*
X23335Y-08000D01*
X23203Y-08055D01*
X23055Y-08202D01*
X22975Y-08395D01*
X22975Y-08604D01*
X23055Y-08797D01*
X23202Y-08945D01*
X23335Y-09000D01*
X23203Y-09055D01*
X23055Y-09202D01*
X22975Y-09395D01*
X22975Y-09604D01*
X23055Y-09797D01*
X23202Y-09945D01*
X23335Y-10000D01*
X23203Y-10055D01*
X23055Y-10202D01*
X22975Y-10395D01*
X22975Y-10604D01*
X23055Y-10797D01*
X23202Y-10945D01*
X23335Y-11000D01*
X23203Y-11055D01*
X23055Y-11202D01*
X22975Y-11395D01*
X22975Y-11604D01*
X23055Y-11797D01*
X23202Y-11945D01*
X23335Y-12000D01*
X23203Y-12055D01*
X23055Y-12202D01*
X23051Y-12210D01*
X22870Y-12210D01*
X21925Y-11264D01*
X21925Y-11166D01*
X21861Y-11010D01*
X21741Y-10890D01*
X21585Y-10825D01*
X21416Y-10825D01*
X21260Y-10889D01*
X21140Y-11009D01*
X21075Y-11165D01*
X21075Y-11334D01*
X21139Y-11490D01*
X21259Y-11610D01*
X21415Y-11675D01*
X21514Y-11675D01*
X22544Y-12705D01*
X22545Y-12705D01*
X22607Y-12746D01*
X22638Y-12767D01*
X22639Y-12768D01*
X22749Y-12789D01*
X22750Y-12790D01*
X23052Y-12790D01*
X23055Y-12797D01*
X23202Y-12945D01*
X23335Y-13000D01*
X23203Y-13055D01*
X23055Y-13202D01*
X23051Y-13210D01*
X22370Y-13210D01*
X21425Y-12264D01*
X21425Y-12166D01*
X21361Y-12010D01*
X21241Y-11890D01*
X21085Y-11825D01*
X20916Y-11825D01*
X20760Y-11889D01*
X20640Y-12009D01*
X20575Y-12165D01*
X20575Y-12334D01*
X20639Y-12490D01*
X20759Y-12610D01*
X20915Y-12675D01*
X21014Y-12675D01*
X22044Y-13705D01*
X22045Y-13705D01*
X22107Y-13746D01*
X22138Y-13767D01*
X22139Y-13768D01*
X22249Y-13789D01*
X22250Y-13790D01*
X23052Y-13790D01*
X23055Y-13797D01*
X23202Y-13945D01*
X23276Y-13976D01*
X23176Y-13976D01*
X23084Y-14014D01*
X23014Y-14084D01*
X22976Y-14175D01*
X22976Y-14274D01*
X22976Y-14824D01*
X23014Y-14916D01*
X23084Y-14986D01*
X23175Y-15024D01*
X23274Y-15024D01*
X23824Y-15024D01*
X23916Y-14986D01*
X23986Y-14916D01*
X24024Y-14825D01*
X24024Y-14726D01*
X24024Y-14176D01*
X23986Y-14084D01*
X23916Y-14014D01*
X23825Y-13976D01*
X23726Y-13976D01*
X23722Y-13976D01*
X23797Y-13945D01*
X23945Y-13798D01*
X24025Y-13605D01*
X24025Y-13396D01*
X23945Y-13203D01*
X23798Y-13055D01*
X23664Y-12999D01*
X23797Y-12945D01*
X23945Y-12798D01*
X24025Y-12605D01*
X24025Y-12396D01*
X23945Y-12203D01*
X23798Y-12055D01*
X23664Y-11999D01*
X23797Y-11945D01*
X23945Y-11798D01*
X24025Y-11605D01*
X24025Y-11396D01*
X23945Y-11203D01*
X23798Y-11055D01*
X23664Y-10999D01*
X23797Y-10945D01*
X23945Y-10798D01*
X24025Y-10605D01*
X24025Y-10396D01*
X23945Y-10203D01*
X23798Y-10055D01*
X23664Y-09999D01*
X23797Y-09945D01*
X23945Y-09798D01*
X24025Y-09605D01*
X24025Y-09396D01*
X23945Y-09203D01*
X23798Y-09055D01*
X23664Y-08999D01*
X23797Y-08945D01*
X23945Y-08798D01*
X24025Y-08605D01*
X24025Y-08396D01*
X23945Y-08203D01*
X23798Y-08055D01*
X23664Y-07999D01*
X23797Y-07945D01*
X23945Y-07798D01*
X24025Y-07605D01*
X24025Y-07396D01*
X23945Y-07203D01*
X23798Y-07055D01*
X23664Y-06999D01*
X23797Y-06945D01*
X23945Y-06798D01*
X24025Y-06605D01*
X24025Y-06396D01*
X23945Y-06203D01*
X23798Y-06055D01*
X23664Y-05999D01*
X23797Y-05945D01*
X23945Y-05798D01*
X24025Y-05605D01*
X24025Y-05396D01*
X23945Y-05203D01*
X23798Y-05055D01*
X23783Y-05049D01*
X24084Y-05049D01*
X24084Y-24084D01*
M02*
