M48
;DRILL file {Pcbnew (2011-12-28 BZR 3254)-stable} date 2012. 03. 05. 18:40:15
;FORMAT={-:-/ absolute / metric / decimal}
FMAT,2
METRIC,TZ
T1C0.635
T2C0.813
%
G90
G05
M71
T1
X19.050Y38.608
X19.050Y40.386
X19.050Y53.594
X19.050Y55.880
X19.685Y20.320
X19.685Y22.860
X22.225Y19.050
X22.225Y24.130
X24.130Y38.608
X24.130Y40.386
X24.130Y53.594
X24.130Y55.880
X28.575Y19.050
X28.575Y24.130
X31.115Y20.320
X31.115Y22.860
X42.545Y50.800
X42.545Y53.340
X45.085Y49.530
X45.085Y54.610
X49.530Y18.288
X49.530Y20.066
X49.530Y33.528
X49.530Y35.306
X51.435Y49.530
X51.435Y54.610
X53.975Y50.800
X53.975Y53.340
X54.610Y18.288
X54.610Y20.066
X54.610Y33.528
X54.610Y35.306
T2
X13.970Y13.970
X13.970Y29.210
X13.970Y34.290
X13.970Y44.450
X13.970Y49.530
X13.970Y59.690
X16.510Y13.970
X16.510Y29.210
X16.510Y34.290
X16.510Y44.450
X16.510Y49.530
X16.510Y59.690
X19.050Y13.970
X19.050Y29.210
X19.050Y34.290
X19.050Y44.450
X19.050Y49.530
X19.050Y59.690
X21.590Y13.970
X21.590Y29.210
X21.590Y34.290
X21.590Y44.450
X21.590Y49.530
X21.590Y59.690
X24.130Y13.970
X24.130Y29.210
X24.130Y34.290
X24.130Y44.450
X24.130Y49.530
X24.130Y59.690
X26.670Y13.970
X26.670Y29.210
X26.670Y34.290
X26.670Y44.450
X26.670Y49.530
X26.670Y59.690
X29.210Y13.970
X29.210Y29.210
X29.210Y34.290
X29.210Y44.450
X29.210Y49.530
X29.210Y59.690
X31.750Y13.970
X31.750Y29.210
X34.290Y13.970
X34.290Y29.210
X36.830Y13.970
X36.830Y29.210
X36.830Y44.450
X36.830Y59.690
X39.370Y44.450
X39.370Y59.690
X41.910Y44.450
X41.910Y59.690
X44.450Y13.970
X44.450Y24.130
X44.450Y29.210
X44.450Y39.370
X44.450Y44.450
X44.450Y59.690
X46.990Y13.970
X46.990Y24.130
X46.990Y29.210
X46.990Y39.370
X46.990Y44.450
X46.990Y59.690
X49.530Y13.970
X49.530Y24.130
X49.530Y29.210
X49.530Y39.370
X49.530Y44.450
X49.530Y59.690
X52.070Y13.970
X52.070Y24.130
X52.070Y29.210
X52.070Y39.370
X52.070Y44.450
X52.070Y59.690
X54.610Y13.970
X54.610Y24.130
X54.610Y29.210
X54.610Y39.370
X54.610Y44.450
X54.610Y59.690
X57.150Y13.970
X57.150Y24.130
X57.150Y29.210
X57.150Y39.370
X57.150Y44.450
X57.150Y59.690
X59.690Y13.970
X59.690Y24.130
X59.690Y29.210
X59.690Y39.370
X59.690Y44.450
X59.690Y59.690
T0
M30
