G04 (created by PCBNEW-RS274X (2011-12-28 BZR 3254)-stable) date 2012. 03. 01. 13:20:44*
G01*
G70*
G90*
%MOIN*%
G04 Gerber Fmt 3.4, Leading zero omitted, Abs format*
%FSLAX34Y34*%
G04 APERTURE LIST*
%ADD10C,0.006000*%
%ADD11R,0.027800X0.057800*%
%ADD12R,0.057800X0.027800*%
G04 APERTURE END LIST*
G54D10*
G54D11*
X12250Y-06600D03*
X11750Y-06600D03*
X11250Y-06600D03*
X10750Y-06600D03*
X10250Y-06600D03*
X09750Y-06600D03*
X09250Y-06600D03*
X08750Y-06600D03*
X08250Y-06600D03*
X07750Y-06600D03*
X07750Y-10400D03*
X08250Y-10400D03*
X08750Y-10400D03*
X09250Y-10400D03*
X09750Y-10400D03*
X10250Y-10400D03*
X10750Y-10400D03*
X11250Y-10400D03*
X11750Y-10400D03*
X12250Y-10400D03*
G54D12*
X18600Y-07750D03*
X18600Y-08250D03*
X18600Y-08750D03*
X18600Y-09250D03*
X18600Y-09750D03*
X18600Y-10250D03*
X18600Y-10750D03*
X18600Y-11250D03*
X18600Y-11750D03*
X18600Y-12250D03*
X22400Y-12250D03*
X22400Y-11750D03*
X22400Y-11250D03*
X22400Y-10750D03*
X22400Y-10250D03*
X22400Y-09750D03*
X22400Y-09250D03*
X22400Y-08750D03*
X22400Y-08250D03*
X22400Y-07750D03*
X06600Y-16750D03*
X06600Y-17250D03*
X06600Y-17750D03*
X06600Y-18250D03*
X06600Y-18750D03*
X06600Y-19250D03*
X06600Y-19750D03*
X06600Y-20250D03*
X06600Y-20750D03*
X06600Y-21250D03*
X10400Y-21250D03*
X10400Y-20750D03*
X10400Y-20250D03*
X10400Y-19750D03*
X10400Y-19250D03*
X10400Y-18750D03*
X10400Y-18250D03*
X10400Y-17750D03*
X10400Y-17250D03*
X10400Y-16750D03*
G54D11*
X21250Y-18600D03*
X20750Y-18600D03*
X20250Y-18600D03*
X19750Y-18600D03*
X19250Y-18600D03*
X18750Y-18600D03*
X18250Y-18600D03*
X17750Y-18600D03*
X17250Y-18600D03*
X16750Y-18600D03*
X16750Y-22400D03*
X17250Y-22400D03*
X17750Y-22400D03*
X18250Y-22400D03*
X18750Y-22400D03*
X19250Y-22400D03*
X19750Y-22400D03*
X20250Y-22400D03*
X20750Y-22400D03*
X21250Y-22400D03*
M02*
