G04 (created by PCBNEW-RS274X (2011-12-28 BZR 3254)-stable) date 2012. 03. 01. 13:20:44*
G01*
G70*
G90*
%MOIN*%
G04 Gerber Fmt 3.4, Leading zero omitted, Abs format*
%FSLAX34Y34*%
G04 APERTURE LIST*
%ADD10C,0.006000*%
%ADD11R,0.075000X0.075000*%
%ADD12C,0.075000*%
%ADD13C,0.055000*%
G04 APERTURE END LIST*
G54D10*
%LPC*%
G54D11*
X05500Y-11500D03*
G54D12*
X06500Y-11500D03*
X07500Y-11500D03*
X08500Y-11500D03*
X09500Y-11500D03*
X10500Y-11500D03*
X11500Y-11500D03*
X12500Y-11500D03*
X13500Y-11500D03*
X14500Y-11500D03*
G54D11*
X05500Y-05500D03*
G54D12*
X06500Y-05500D03*
X07500Y-05500D03*
X08500Y-05500D03*
X09500Y-05500D03*
X10500Y-05500D03*
X11500Y-05500D03*
X12500Y-05500D03*
X13500Y-05500D03*
X14500Y-05500D03*
G54D11*
X23500Y-14500D03*
G54D12*
X23500Y-13500D03*
X23500Y-12500D03*
X23500Y-11500D03*
X23500Y-10500D03*
X23500Y-09500D03*
X23500Y-08500D03*
X23500Y-07500D03*
X23500Y-06500D03*
X23500Y-05500D03*
G54D11*
X17500Y-14500D03*
G54D12*
X17500Y-13500D03*
X17500Y-12500D03*
X17500Y-11500D03*
X17500Y-10500D03*
X17500Y-09500D03*
X17500Y-08500D03*
X17500Y-07500D03*
X17500Y-06500D03*
X17500Y-05500D03*
G54D11*
X11500Y-23500D03*
G54D12*
X11500Y-22500D03*
X11500Y-21500D03*
X11500Y-20500D03*
X11500Y-19500D03*
X11500Y-18500D03*
X11500Y-17500D03*
X11500Y-16500D03*
X11500Y-15500D03*
X11500Y-14500D03*
G54D11*
X05500Y-23500D03*
G54D12*
X05500Y-22500D03*
X05500Y-21500D03*
X05500Y-20500D03*
X05500Y-19500D03*
X05500Y-18500D03*
X05500Y-17500D03*
X05500Y-16500D03*
X05500Y-15500D03*
X05500Y-14500D03*
G54D11*
X14500Y-23500D03*
G54D12*
X15500Y-23500D03*
X16500Y-23500D03*
X17500Y-23500D03*
X18500Y-23500D03*
X19500Y-23500D03*
X20500Y-23500D03*
X21500Y-23500D03*
X22500Y-23500D03*
X23500Y-23500D03*
G54D11*
X14500Y-17500D03*
G54D12*
X15500Y-17500D03*
X16500Y-17500D03*
X17500Y-17500D03*
X18500Y-17500D03*
X19500Y-17500D03*
X20500Y-17500D03*
X21500Y-17500D03*
X22500Y-17500D03*
X23500Y-17500D03*
G54D13*
X21000Y-07750D03*
X20000Y-12250D03*
X19500Y-11250D03*
X19500Y-08750D03*
X20000Y-07750D03*
X21500Y-11250D03*
X21000Y-12250D03*
X21500Y-08750D03*
X07750Y-09000D03*
X08750Y-09500D03*
X11250Y-09500D03*
X12250Y-09000D03*
X12250Y-08000D03*
X11250Y-07500D03*
X08750Y-07500D03*
X07750Y-08000D03*
X09000Y-16750D03*
X08000Y-21250D03*
X07500Y-20250D03*
X07500Y-17750D03*
X08000Y-16750D03*
X09500Y-20250D03*
X09000Y-21250D03*
X09500Y-17750D03*
X16750Y-21000D03*
X17750Y-21500D03*
X20250Y-21500D03*
X21250Y-21000D03*
X21250Y-20000D03*
X20250Y-19500D03*
X17750Y-19500D03*
X16750Y-20000D03*
M02*
