G04 (created by PCBNEW-RS274X (2011-nov-30)-testing) date Sun 23 Sep 2012 15:57:18 CEST*
%MOIN*%
G04 Gerber Fmt 3.4, Leading zero omitted, Abs format*
%FSLAX34Y34*%
G01*
G70*
G90*
G04 APERTURE LIST*
%ADD10C,0.006*%
%ADD11C,0.01*%
%ADD12C,0.005*%
G04 APERTURE END LIST*
G54D10*
G54D11*
X5974Y-4724D02*
X5950Y-4966D01*
X5879Y-5200D01*
X5765Y-5415D01*
X5610Y-5604D01*
X5422Y-5760D01*
X5208Y-5876D01*
X4975Y-5948D01*
X4732Y-5973D01*
X4490Y-5951D01*
X4256Y-5882D01*
X4040Y-5769D01*
X3850Y-5617D01*
X3693Y-5430D01*
X3576Y-5216D01*
X3502Y-4983D01*
X3475Y-4741D01*
X3495Y-4499D01*
X3562Y-4264D01*
X3674Y-4047D01*
X3825Y-3856D01*
X4011Y-3698D01*
X4224Y-3579D01*
X4456Y-3504D01*
X4698Y-3475D01*
X4941Y-3493D01*
X5176Y-3559D01*
X5393Y-3669D01*
X5586Y-3819D01*
X5745Y-4004D01*
X5865Y-4216D01*
X5942Y-4448D01*
X5973Y-4690D01*
X5974Y-4724D01*
X2224Y-4724D02*
X7224Y-4724D01*
X4724Y-2224D02*
X4724Y-7224D01*
X5974Y-4724D02*
X5950Y-4966D01*
X5879Y-5200D01*
X5765Y-5415D01*
X5610Y-5604D01*
X5422Y-5760D01*
X5208Y-5876D01*
X4975Y-5948D01*
X4732Y-5973D01*
X4490Y-5951D01*
X4256Y-5882D01*
X4040Y-5769D01*
X3850Y-5617D01*
X3693Y-5430D01*
X3576Y-5216D01*
X3502Y-4983D01*
X3475Y-4741D01*
X3495Y-4499D01*
X3562Y-4264D01*
X3674Y-4047D01*
X3825Y-3856D01*
X4011Y-3698D01*
X4224Y-3579D01*
X4456Y-3504D01*
X4698Y-3475D01*
X4941Y-3493D01*
X5176Y-3559D01*
X5393Y-3669D01*
X5586Y-3819D01*
X5745Y-4004D01*
X5865Y-4216D01*
X5942Y-4448D01*
X5973Y-4690D01*
X5974Y-4724D01*
X2224Y-4724D02*
X7224Y-4724D01*
X4724Y-2224D02*
X4724Y-7224D01*
X4724Y-18111D02*
X4724Y-7087D01*
X5118Y-18505D02*
X4724Y-18111D01*
X8268Y-18505D02*
X5118Y-18505D01*
X8661Y-18898D02*
X8268Y-18505D01*
X8661Y-20472D02*
X8661Y-18898D01*
X20472Y-20472D02*
X8661Y-20472D01*
X20472Y-4724D02*
X20472Y-20472D01*
X8661Y-4724D02*
X20472Y-4724D01*
X8661Y-6300D02*
X8661Y-4724D01*
X8268Y-6693D02*
X8661Y-6300D01*
X5118Y-6693D02*
X8268Y-6693D01*
X4724Y-7087D02*
X5118Y-6693D01*
G54D12*
X11293Y-13327D02*
X8393Y-13327D01*
X8393Y-8327D02*
X11293Y-8327D01*
X11293Y-13327D02*
X11293Y-8327D01*
X8393Y-8327D02*
X8393Y-13327D01*
X9593Y-8327D02*
X9593Y-8827D01*
X9593Y-8827D02*
X10093Y-8827D01*
X10093Y-8827D02*
X10093Y-8327D01*
X9586Y-10242D02*
X8986Y-10242D01*
X9529Y-10871D02*
X9557Y-10842D01*
X9586Y-10756D01*
X9586Y-10699D01*
X9557Y-10614D01*
X9500Y-10556D01*
X9443Y-10528D01*
X9329Y-10499D01*
X9243Y-10499D01*
X9129Y-10528D01*
X9072Y-10556D01*
X9014Y-10614D01*
X8986Y-10699D01*
X8986Y-10756D01*
X9014Y-10842D01*
X9043Y-10871D01*
X9586Y-11442D02*
X9586Y-11099D01*
X9586Y-11271D02*
X8986Y-11271D01*
X9072Y-11214D01*
X9129Y-11156D01*
X9157Y-11099D01*
X10480Y-9209D02*
X9880Y-9209D01*
X10308Y-9376D01*
X9880Y-9542D01*
X10480Y-9542D01*
X10423Y-10066D02*
X10451Y-10042D01*
X10480Y-9971D01*
X10480Y-9923D01*
X10451Y-9851D01*
X10394Y-9804D01*
X10337Y-9780D01*
X10223Y-9756D01*
X10137Y-9756D01*
X10023Y-9780D01*
X9966Y-9804D01*
X9908Y-9851D01*
X9880Y-9923D01*
X9880Y-9971D01*
X9908Y-10042D01*
X9937Y-10066D01*
X10480Y-10280D02*
X9880Y-10280D01*
X9880Y-10471D01*
X9908Y-10518D01*
X9937Y-10542D01*
X9994Y-10566D01*
X10080Y-10566D01*
X10137Y-10542D01*
X10166Y-10518D01*
X10194Y-10471D01*
X10194Y-10280D01*
X9937Y-10756D02*
X9908Y-10780D01*
X9880Y-10828D01*
X9880Y-10947D01*
X9908Y-10994D01*
X9937Y-11018D01*
X9994Y-11042D01*
X10051Y-11042D01*
X10137Y-11018D01*
X10480Y-10732D01*
X10480Y-11042D01*
X9937Y-11232D02*
X9908Y-11256D01*
X9880Y-11304D01*
X9880Y-11423D01*
X9908Y-11470D01*
X9937Y-11494D01*
X9994Y-11518D01*
X10051Y-11518D01*
X10137Y-11494D01*
X10480Y-11208D01*
X10480Y-11518D01*
X9880Y-11827D02*
X9880Y-11875D01*
X9908Y-11923D01*
X9937Y-11946D01*
X9994Y-11970D01*
X10108Y-11994D01*
X10251Y-11994D01*
X10366Y-11970D01*
X10423Y-11946D01*
X10451Y-11923D01*
X10480Y-11875D01*
X10480Y-11827D01*
X10451Y-11780D01*
X10423Y-11756D01*
X10366Y-11732D01*
X10251Y-11708D01*
X10108Y-11708D01*
X9994Y-11732D01*
X9937Y-11756D01*
X9908Y-11780D01*
X9880Y-11827D01*
X9880Y-12303D02*
X9880Y-12351D01*
X9908Y-12399D01*
X9937Y-12422D01*
X9994Y-12446D01*
X10108Y-12470D01*
X10251Y-12470D01*
X10366Y-12446D01*
X10423Y-12422D01*
X10451Y-12399D01*
X10480Y-12351D01*
X10480Y-12303D01*
X10451Y-12256D01*
X10423Y-12232D01*
X10366Y-12208D01*
X10251Y-12184D01*
X10108Y-12184D01*
X9994Y-12208D01*
X9937Y-12232D01*
X9908Y-12256D01*
X9880Y-12303D01*
M02*
