G04 (created by PCBNEW-RS274X (2011-nov-30)-testing) date Sun 23 Sep 2012 15:57:18 CEST*
%MOIN*%
G04 Gerber Fmt 3.4, Leading zero omitted, Abs format*
%FSLAX34Y34*%
G01*
G70*
G90*
G04 APERTURE LIST*
%ADD10C,0.006*%
%ADD11C,0.01*%
%ADD12C,0.0394*%
%ADD13R,0.05X0.02*%
%ADD14R,0.055X0.055*%
%ADD15C,0.055*%
%ADD16C,0.066*%
%ADD17C,0.16*%
%ADD18C,0.035*%
G04 APERTURE END LIST*
G54D10*
G54D11*
X5974Y-4724D02*
X5950Y-4966D01*
X5879Y-5200D01*
X5765Y-5415D01*
X5610Y-5604D01*
X5422Y-5760D01*
X5208Y-5876D01*
X4975Y-5948D01*
X4732Y-5973D01*
X4490Y-5951D01*
X4256Y-5882D01*
X4040Y-5769D01*
X3850Y-5617D01*
X3693Y-5430D01*
X3576Y-5216D01*
X3502Y-4983D01*
X3475Y-4741D01*
X3495Y-4499D01*
X3562Y-4264D01*
X3674Y-4047D01*
X3825Y-3856D01*
X4011Y-3698D01*
X4224Y-3579D01*
X4456Y-3504D01*
X4698Y-3475D01*
X4941Y-3493D01*
X5176Y-3559D01*
X5393Y-3669D01*
X5586Y-3819D01*
X5745Y-4004D01*
X5865Y-4216D01*
X5942Y-4448D01*
X5973Y-4690D01*
X5974Y-4724D01*
X2224Y-4724D02*
X7224Y-4724D01*
X4724Y-2224D02*
X4724Y-7224D01*
X5974Y-4724D02*
X5950Y-4966D01*
X5879Y-5200D01*
X5765Y-5415D01*
X5610Y-5604D01*
X5422Y-5760D01*
X5208Y-5876D01*
X4975Y-5948D01*
X4732Y-5973D01*
X4490Y-5951D01*
X4256Y-5882D01*
X4040Y-5769D01*
X3850Y-5617D01*
X3693Y-5430D01*
X3576Y-5216D01*
X3502Y-4983D01*
X3475Y-4741D01*
X3495Y-4499D01*
X3562Y-4264D01*
X3674Y-4047D01*
X3825Y-3856D01*
X4011Y-3698D01*
X4224Y-3579D01*
X4456Y-3504D01*
X4698Y-3475D01*
X4941Y-3493D01*
X5176Y-3559D01*
X5393Y-3669D01*
X5586Y-3819D01*
X5745Y-4004D01*
X5865Y-4216D01*
X5942Y-4448D01*
X5973Y-4690D01*
X5974Y-4724D01*
X2224Y-4724D02*
X7224Y-4724D01*
X4724Y-2224D02*
X4724Y-7224D01*
X4724Y-18111D02*
X4724Y-7087D01*
X5118Y-18505D02*
X4724Y-18111D01*
X8268Y-18505D02*
X5118Y-18505D01*
X8661Y-18898D02*
X8268Y-18505D01*
X8661Y-20472D02*
X8661Y-18898D01*
X20472Y-20472D02*
X8661Y-20472D01*
X20472Y-4724D02*
X20472Y-20472D01*
X8661Y-4724D02*
X20472Y-4724D01*
X8661Y-6300D02*
X8661Y-4724D01*
X8268Y-6693D02*
X8661Y-6300D01*
X5118Y-6693D02*
X8268Y-6693D01*
X4724Y-7087D02*
X5118Y-6693D01*
G54D12*
X6693Y-10551D03*
X6693Y-12283D03*
G54D13*
X7943Y-13077D03*
X7943Y-12577D03*
X7943Y-12077D03*
X7943Y-11577D03*
X7943Y-11077D03*
X7943Y-10577D03*
X7943Y-10077D03*
X7943Y-9577D03*
X7943Y-9077D03*
X7943Y-8577D03*
X11743Y-8577D03*
X11743Y-9077D03*
X11743Y-9577D03*
X11743Y-10077D03*
X11743Y-10577D03*
X11743Y-11077D03*
X11743Y-11577D03*
X11743Y-12077D03*
X11743Y-12577D03*
X11743Y-13077D03*
G54D14*
X7874Y-14551D03*
G54D15*
X7874Y-15551D03*
X7874Y-16551D03*
G54D14*
X13189Y-8252D03*
G54D15*
X13189Y-9252D03*
X13189Y-10252D03*
G54D14*
X19685Y-15067D03*
G54D15*
X19685Y-14067D03*
G54D14*
X19685Y-17429D03*
G54D15*
X19685Y-16429D03*
G54D14*
X19685Y-19791D03*
G54D15*
X19685Y-18791D03*
X16610Y-8661D03*
X19610Y-8661D03*
X19610Y-12598D03*
X16610Y-12598D03*
X19610Y-11614D03*
X16610Y-11614D03*
X19610Y-10630D03*
X16610Y-10630D03*
X10752Y-7480D03*
X7752Y-7480D03*
X16610Y-9646D03*
X19610Y-9646D03*
X14370Y-13902D03*
X14370Y-10902D03*
X15551Y-13902D03*
X15551Y-10902D03*
G54D16*
X12598Y-5799D03*
X12598Y-6799D03*
X18898Y-5799D03*
X18898Y-6799D03*
X15748Y-5799D03*
X15748Y-6799D03*
G54D14*
X6602Y-7874D03*
G54D15*
X5602Y-7874D03*
X10130Y-14173D03*
X11130Y-14173D03*
G54D14*
X12886Y-13870D03*
G54D15*
X12886Y-14870D03*
X13886Y-14870D03*
G54D14*
X16035Y-14870D03*
G54D15*
X17035Y-14870D03*
X17035Y-13870D03*
G54D17*
X9843Y-19291D03*
X9843Y-5906D03*
X5906Y-15551D03*
G54D14*
X5890Y-17717D03*
G54D15*
X6890Y-17717D03*
X7890Y-17717D03*
G54D14*
X13992Y-16610D03*
G54D15*
X12992Y-16610D03*
X11992Y-16610D03*
X11992Y-19610D03*
X12992Y-19610D03*
X13992Y-19610D03*
G54D14*
X17929Y-16610D03*
G54D15*
X16929Y-16610D03*
X15929Y-16610D03*
X15929Y-19610D03*
X16929Y-19610D03*
X17929Y-19610D03*
G54D18*
X9645Y-11220D03*
X9252Y-10826D03*
X10925Y-10236D03*
X14173Y-12106D03*
X15945Y-18110D03*
X12008Y-18110D03*
X12598Y-11122D03*
X13582Y-13090D03*
X10531Y-11811D03*
X18208Y-7874D03*
X9842Y-9252D03*
X9252Y-8661D03*
X14370Y-12696D03*
G54D11*
X7965Y-9055D02*
X7943Y-9077D01*
X9055Y-9055D02*
X7965Y-9055D01*
X9645Y-9645D02*
X9055Y-9055D01*
X9645Y-11220D02*
X9645Y-9645D01*
X11985Y-9077D02*
X12810Y-8252D01*
X11743Y-9077D02*
X11985Y-9077D01*
X12810Y-8252D02*
X13189Y-8252D01*
X9184Y-9577D02*
X7943Y-9577D01*
X9252Y-9645D02*
X9184Y-9577D01*
X9252Y-10826D02*
X9252Y-9645D01*
X13189Y-10252D02*
X13008Y-10252D01*
X12333Y-9577D02*
X11743Y-9577D01*
X13008Y-10252D02*
X12333Y-9577D01*
X8858Y-10433D02*
X8858Y-11220D01*
X8858Y-11220D02*
X10630Y-12992D01*
X7943Y-10077D02*
X8502Y-10077D01*
X10630Y-13673D02*
X11130Y-14173D01*
X8502Y-10077D02*
X8858Y-10433D01*
X10630Y-12992D02*
X10630Y-13673D01*
X15157Y-12106D02*
X15255Y-12106D01*
X11084Y-10077D02*
X10925Y-10236D01*
X11743Y-10077D02*
X11084Y-10077D01*
X16610Y-10751D02*
X16610Y-10630D01*
X14173Y-12106D02*
X15157Y-12106D01*
X15255Y-12106D02*
X16610Y-10751D01*
X12008Y-18110D02*
X15945Y-18110D01*
X13316Y-12077D02*
X13779Y-11614D01*
X14839Y-11614D02*
X15551Y-10902D01*
X13779Y-11614D02*
X14839Y-11614D01*
X11743Y-12077D02*
X13316Y-12077D01*
X12053Y-10577D02*
X12598Y-11122D01*
X11743Y-10577D02*
X12053Y-10577D01*
X11743Y-11077D02*
X11265Y-11077D01*
X13779Y-13287D02*
X18208Y-13287D01*
X11265Y-11077D02*
X10531Y-11811D01*
X13582Y-13090D02*
X13779Y-13287D01*
X18208Y-13287D02*
X18898Y-12597D01*
X18898Y-12597D02*
X18898Y-6799D01*
X18701Y-14468D02*
X19102Y-14067D01*
X5890Y-16945D02*
X6103Y-16732D01*
X6103Y-16732D02*
X7693Y-16732D01*
X5890Y-17717D02*
X5890Y-16945D01*
X7693Y-16732D02*
X7874Y-16551D01*
X9858Y-16551D02*
X10925Y-17618D01*
X10925Y-17618D02*
X18602Y-17618D01*
X18602Y-17618D02*
X18701Y-17519D01*
X18701Y-17519D02*
X18701Y-14468D01*
X19102Y-14067D02*
X19685Y-14067D01*
X7874Y-16551D02*
X9858Y-16551D01*
X7677Y-18307D02*
X8760Y-18307D01*
X10433Y-18110D02*
X11122Y-18799D01*
X8760Y-18307D02*
X8957Y-18110D01*
X11122Y-18799D02*
X16929Y-18799D01*
X16929Y-18799D02*
X16929Y-19610D01*
X6890Y-17717D02*
X7087Y-17717D01*
X8957Y-18110D02*
X10433Y-18110D01*
X7087Y-17717D02*
X7677Y-18307D01*
X11743Y-11577D02*
X12831Y-11577D01*
X12831Y-11577D02*
X13506Y-10902D01*
X13506Y-10902D02*
X14370Y-10902D01*
X19685Y-16429D02*
X19496Y-16429D01*
X18996Y-16929D02*
X18996Y-18504D01*
X19496Y-16429D02*
X18996Y-16929D01*
X19685Y-16429D02*
X19685Y-15067D01*
X19398Y-18504D02*
X19685Y-18791D01*
X11318Y-18504D02*
X18996Y-18504D01*
X10531Y-17717D02*
X11318Y-18504D01*
X7890Y-17717D02*
X10531Y-17717D01*
X18996Y-18504D02*
X19398Y-18504D01*
X11743Y-7941D02*
X11743Y-8577D01*
X17912Y-7578D02*
X12106Y-7578D01*
X18208Y-7874D02*
X17912Y-7578D01*
X9842Y-9252D02*
X10517Y-8577D01*
X9420Y-7480D02*
X10517Y-8577D01*
X7752Y-7480D02*
X9420Y-7480D01*
X12106Y-7578D02*
X11743Y-7941D01*
X10517Y-8577D02*
X11743Y-8577D01*
X17913Y-15157D02*
X17913Y-14370D01*
X13886Y-15551D02*
X17519Y-15551D01*
X17913Y-14370D02*
X17413Y-13870D01*
X10130Y-14658D02*
X11023Y-15551D01*
X11023Y-15551D02*
X13886Y-15551D01*
X17519Y-15551D02*
X17913Y-15157D01*
X5602Y-7874D02*
X5602Y-8161D01*
X13886Y-14870D02*
X13886Y-15551D01*
X9168Y-8577D02*
X7943Y-8577D01*
X6018Y-8577D02*
X7943Y-8577D01*
X5602Y-8161D02*
X6018Y-8577D01*
X10130Y-14173D02*
X10130Y-14658D01*
X9252Y-8661D02*
X9168Y-8577D01*
X17413Y-13870D02*
X17035Y-13870D01*
X14251Y-12577D02*
X14370Y-12696D01*
X11743Y-12577D02*
X14251Y-12577D01*
G54D10*
G36*
X5810Y-16601D02*
X5678Y-16733D01*
X5613Y-16830D01*
X5590Y-16945D01*
X5590Y-17193D01*
X5566Y-17193D01*
X5474Y-17231D01*
X5404Y-17301D01*
X5366Y-17392D01*
X5366Y-17491D01*
X5366Y-18041D01*
X5404Y-18133D01*
X5474Y-18203D01*
X5478Y-18205D01*
X5242Y-18205D01*
X5024Y-17987D01*
X5024Y-16153D01*
X5311Y-16441D01*
X5317Y-16443D01*
X5318Y-16444D01*
X5328Y-16448D01*
X5696Y-16601D01*
X5704Y-16601D01*
X5810Y-16601D01*
X5810Y-16601D01*
G37*
G54D11*
X5810Y-16601D02*
X5678Y-16733D01*
X5613Y-16830D01*
X5590Y-16945D01*
X5590Y-17193D01*
X5566Y-17193D01*
X5474Y-17231D01*
X5404Y-17301D01*
X5366Y-17392D01*
X5366Y-17491D01*
X5366Y-18041D01*
X5404Y-18133D01*
X5474Y-18203D01*
X5478Y-18205D01*
X5242Y-18205D01*
X5024Y-17987D01*
X5024Y-16153D01*
X5311Y-16441D01*
X5317Y-16443D01*
X5318Y-16444D01*
X5328Y-16448D01*
X5696Y-16601D01*
X5704Y-16601D01*
X5810Y-16601D01*
G54D10*
G36*
X6695Y-18205D02*
X6301Y-18205D01*
X6306Y-18203D01*
X6376Y-18133D01*
X6414Y-18042D01*
X6414Y-17943D01*
X6414Y-17939D01*
X6445Y-18014D01*
X6592Y-18162D01*
X6695Y-18205D01*
X6695Y-18205D01*
G37*
G54D11*
X6695Y-18205D02*
X6301Y-18205D01*
X6306Y-18203D01*
X6376Y-18133D01*
X6414Y-18042D01*
X6414Y-17943D01*
X6414Y-17939D01*
X6445Y-18014D01*
X6592Y-18162D01*
X6695Y-18205D01*
G54D10*
G36*
X7151Y-18205D02*
X7083Y-18205D01*
X7131Y-18185D01*
X7151Y-18205D01*
X7151Y-18205D01*
G37*
G54D11*
X7151Y-18205D02*
X7083Y-18205D01*
X7131Y-18185D01*
X7151Y-18205D01*
G54D10*
G36*
X8283Y-14062D02*
X8199Y-14027D01*
X8100Y-14027D01*
X7550Y-14027D01*
X7458Y-14065D01*
X7388Y-14135D01*
X7350Y-14226D01*
X7350Y-14325D01*
X7350Y-14875D01*
X7388Y-14967D01*
X7458Y-15037D01*
X7549Y-15075D01*
X7648Y-15075D01*
X7577Y-15106D01*
X7429Y-15253D01*
X7349Y-15446D01*
X7349Y-15655D01*
X7429Y-15848D01*
X7576Y-15996D01*
X7709Y-16051D01*
X7577Y-16106D01*
X7429Y-16253D01*
X7354Y-16432D01*
X6509Y-16432D01*
X6796Y-16146D01*
X6798Y-16139D01*
X6799Y-16139D01*
X6803Y-16128D01*
X6956Y-15761D01*
X6956Y-15753D01*
X6956Y-15343D01*
X6953Y-15335D01*
X6799Y-14963D01*
X6798Y-14962D01*
X6796Y-14957D01*
X6501Y-14661D01*
X6494Y-14658D01*
X6483Y-14653D01*
X6116Y-14501D01*
X6108Y-14501D01*
X5698Y-14501D01*
X5690Y-14503D01*
X5690Y-14504D01*
X5318Y-14658D01*
X5317Y-14658D01*
X5312Y-14661D01*
X5024Y-14948D01*
X5024Y-14026D01*
X8247Y-14026D01*
X8283Y-14062D01*
X8283Y-14062D01*
G37*
G54D11*
X8283Y-14062D02*
X8199Y-14027D01*
X8100Y-14027D01*
X7550Y-14027D01*
X7458Y-14065D01*
X7388Y-14135D01*
X7350Y-14226D01*
X7350Y-14325D01*
X7350Y-14875D01*
X7388Y-14967D01*
X7458Y-15037D01*
X7549Y-15075D01*
X7648Y-15075D01*
X7577Y-15106D01*
X7429Y-15253D01*
X7349Y-15446D01*
X7349Y-15655D01*
X7429Y-15848D01*
X7576Y-15996D01*
X7709Y-16051D01*
X7577Y-16106D01*
X7429Y-16253D01*
X7354Y-16432D01*
X6509Y-16432D01*
X6796Y-16146D01*
X6798Y-16139D01*
X6799Y-16139D01*
X6803Y-16128D01*
X6956Y-15761D01*
X6956Y-15753D01*
X6956Y-15343D01*
X6953Y-15335D01*
X6799Y-14963D01*
X6798Y-14962D01*
X6796Y-14957D01*
X6501Y-14661D01*
X6494Y-14658D01*
X6483Y-14653D01*
X6116Y-14501D01*
X6108Y-14501D01*
X5698Y-14501D01*
X5690Y-14503D01*
X5690Y-14504D01*
X5318Y-14658D01*
X5317Y-14658D01*
X5312Y-14661D01*
X5024Y-14948D01*
X5024Y-14026D01*
X8247Y-14026D01*
X8283Y-14062D01*
G54D10*
G36*
X9239Y-18410D02*
X8953Y-18696D01*
X8950Y-18702D01*
X8950Y-18703D01*
X8945Y-18713D01*
X8925Y-18763D01*
X8924Y-18763D01*
X8873Y-18686D01*
X8873Y-18685D01*
X8788Y-18601D01*
X8875Y-18584D01*
X8972Y-18519D01*
X9081Y-18410D01*
X9239Y-18410D01*
X9239Y-18410D01*
G37*
G54D11*
X9239Y-18410D02*
X8953Y-18696D01*
X8950Y-18702D01*
X8950Y-18703D01*
X8945Y-18713D01*
X8925Y-18763D01*
X8924Y-18763D01*
X8873Y-18686D01*
X8873Y-18685D01*
X8788Y-18601D01*
X8875Y-18584D01*
X8972Y-18519D01*
X9081Y-18410D01*
X9239Y-18410D01*
G54D10*
G36*
X9239Y-20172D02*
X8961Y-20172D01*
X8961Y-19893D01*
X9239Y-20172D01*
X9239Y-20172D01*
G37*
G54D11*
X9239Y-20172D02*
X8961Y-20172D01*
X8961Y-19893D01*
X9239Y-20172D01*
G54D10*
G36*
X10300Y-17417D02*
X8332Y-17417D01*
X8188Y-17272D01*
X7995Y-17192D01*
X7786Y-17192D01*
X7593Y-17272D01*
X7445Y-17419D01*
X7389Y-17552D01*
X7335Y-17420D01*
X7188Y-17272D01*
X6995Y-17192D01*
X6786Y-17192D01*
X6593Y-17272D01*
X6445Y-17419D01*
X6414Y-17493D01*
X6414Y-17393D01*
X6376Y-17301D01*
X6306Y-17231D01*
X6215Y-17193D01*
X6190Y-17193D01*
X6190Y-17069D01*
X6227Y-17032D01*
X7662Y-17032D01*
X7769Y-17076D01*
X7978Y-17076D01*
X8171Y-16996D01*
X8316Y-16851D01*
X9734Y-16851D01*
X10300Y-17417D01*
X10300Y-17417D01*
G37*
G54D11*
X10300Y-17417D02*
X8332Y-17417D01*
X8188Y-17272D01*
X7995Y-17192D01*
X7786Y-17192D01*
X7593Y-17272D01*
X7445Y-17419D01*
X7389Y-17552D01*
X7335Y-17420D01*
X7188Y-17272D01*
X6995Y-17192D01*
X6786Y-17192D01*
X6593Y-17272D01*
X6445Y-17419D01*
X6414Y-17493D01*
X6414Y-17393D01*
X6376Y-17301D01*
X6306Y-17231D01*
X6215Y-17193D01*
X6190Y-17193D01*
X6190Y-17069D01*
X6227Y-17032D01*
X7662Y-17032D01*
X7769Y-17076D01*
X7978Y-17076D01*
X8171Y-16996D01*
X8316Y-16851D01*
X9734Y-16851D01*
X10300Y-17417D01*
G54D10*
G36*
X10777Y-17046D02*
X10070Y-16339D01*
X9973Y-16274D01*
X9858Y-16251D01*
X8316Y-16251D01*
X8172Y-16106D01*
X8038Y-16050D01*
X8171Y-15996D01*
X8319Y-15849D01*
X8399Y-15656D01*
X8399Y-15447D01*
X8319Y-15254D01*
X8172Y-15106D01*
X8097Y-15075D01*
X8198Y-15075D01*
X8290Y-15037D01*
X8360Y-14967D01*
X8398Y-14876D01*
X8398Y-14777D01*
X8398Y-14227D01*
X8362Y-14141D01*
X10777Y-16556D01*
X10777Y-17046D01*
X10777Y-17046D01*
G37*
G54D11*
X10777Y-17046D02*
X10070Y-16339D01*
X9973Y-16274D01*
X9858Y-16251D01*
X8316Y-16251D01*
X8172Y-16106D01*
X8038Y-16050D01*
X8171Y-15996D01*
X8319Y-15849D01*
X8399Y-15656D01*
X8399Y-15447D01*
X8319Y-15254D01*
X8172Y-15106D01*
X8097Y-15075D01*
X8198Y-15075D01*
X8290Y-15037D01*
X8360Y-14967D01*
X8398Y-14876D01*
X8398Y-14777D01*
X8398Y-14227D01*
X8362Y-14141D01*
X10777Y-16556D01*
X10777Y-17046D01*
G54D10*
G36*
X11627Y-17918D02*
X11583Y-18025D01*
X11583Y-18194D01*
X11587Y-18204D01*
X11442Y-18204D01*
X11156Y-17918D01*
X11627Y-17918D01*
X11627Y-17918D01*
G37*
G54D11*
X11627Y-17918D02*
X11583Y-18025D01*
X11583Y-18194D01*
X11587Y-18204D01*
X11442Y-18204D01*
X11156Y-17918D01*
X11627Y-17918D01*
G54D10*
G36*
X12854Y-19099D02*
X12695Y-19165D01*
X12547Y-19312D01*
X12491Y-19445D01*
X12437Y-19313D01*
X12290Y-19165D01*
X12130Y-19099D01*
X12854Y-19099D01*
X12854Y-19099D01*
G37*
G54D11*
X12854Y-19099D02*
X12695Y-19165D01*
X12547Y-19312D01*
X12491Y-19445D01*
X12437Y-19313D01*
X12290Y-19165D01*
X12130Y-19099D01*
X12854Y-19099D01*
G54D10*
G36*
X13843Y-19099D02*
X13720Y-19150D01*
X13718Y-19155D01*
X13695Y-19165D01*
X13547Y-19312D01*
X13536Y-19336D01*
X13532Y-19338D01*
X13505Y-19411D01*
X13491Y-19445D01*
X13437Y-19313D01*
X13290Y-19165D01*
X13130Y-19099D01*
X13843Y-19099D01*
X13843Y-19099D01*
G37*
G54D11*
X13843Y-19099D02*
X13720Y-19150D01*
X13718Y-19155D01*
X13695Y-19165D01*
X13547Y-19312D01*
X13536Y-19336D01*
X13532Y-19338D01*
X13505Y-19411D01*
X13491Y-19445D01*
X13437Y-19313D01*
X13290Y-19165D01*
X13130Y-19099D01*
X13843Y-19099D01*
G54D10*
G36*
X16629Y-19167D02*
X16484Y-19312D01*
X16428Y-19445D01*
X16374Y-19313D01*
X16227Y-19165D01*
X16067Y-19099D01*
X16629Y-19099D01*
X16629Y-19167D01*
X16629Y-19167D01*
G37*
G54D11*
X16629Y-19167D02*
X16484Y-19312D01*
X16428Y-19445D01*
X16374Y-19313D01*
X16227Y-19165D01*
X16067Y-19099D01*
X16629Y-19099D01*
X16629Y-19167D01*
G54D10*
G36*
X18696Y-18204D02*
X16366Y-18204D01*
X16370Y-18195D01*
X16370Y-18026D01*
X16325Y-17918D01*
X18602Y-17918D01*
X18696Y-17899D01*
X18696Y-18204D01*
X18696Y-18204D01*
G37*
G54D11*
X18696Y-18204D02*
X16366Y-18204D01*
X16370Y-18195D01*
X16370Y-18026D01*
X16325Y-17918D01*
X18602Y-17918D01*
X18696Y-17899D01*
X18696Y-18204D01*
G54D10*
G36*
X19376Y-13633D02*
X19242Y-13767D01*
X19178Y-13767D01*
X19312Y-13633D01*
X19376Y-13633D01*
X19376Y-13633D01*
G37*
G54D11*
X19376Y-13633D02*
X19242Y-13767D01*
X19178Y-13767D01*
X19312Y-13633D01*
X19376Y-13633D01*
G54D10*
G36*
X19461Y-14543D02*
X19361Y-14543D01*
X19269Y-14581D01*
X19199Y-14651D01*
X19161Y-14742D01*
X19161Y-14841D01*
X19161Y-15391D01*
X19199Y-15483D01*
X19269Y-15553D01*
X19360Y-15591D01*
X19385Y-15591D01*
X19385Y-15986D01*
X19240Y-16131D01*
X19160Y-16324D01*
X19160Y-16341D01*
X19001Y-16500D01*
X19001Y-14592D01*
X19226Y-14367D01*
X19242Y-14367D01*
X19387Y-14512D01*
X19461Y-14543D01*
X19461Y-14543D01*
G37*
G54D11*
X19461Y-14543D02*
X19361Y-14543D01*
X19269Y-14581D01*
X19199Y-14651D01*
X19161Y-14742D01*
X19161Y-14841D01*
X19161Y-15391D01*
X19199Y-15483D01*
X19269Y-15553D01*
X19360Y-15591D01*
X19385Y-15591D01*
X19385Y-15986D01*
X19240Y-16131D01*
X19160Y-16324D01*
X19160Y-16341D01*
X19001Y-16500D01*
X19001Y-14592D01*
X19226Y-14367D01*
X19242Y-14367D01*
X19387Y-14512D01*
X19461Y-14543D01*
G54D10*
G36*
X19461Y-16905D02*
X19444Y-16905D01*
X19449Y-16899D01*
X19461Y-16905D01*
X19461Y-16905D01*
G37*
G54D11*
X19461Y-16905D02*
X19444Y-16905D01*
X19449Y-16899D01*
X19461Y-16905D01*
G54D10*
G36*
X19461Y-19267D02*
X19361Y-19267D01*
X19269Y-19305D01*
X19199Y-19375D01*
X19161Y-19466D01*
X19161Y-19565D01*
X19161Y-20115D01*
X19184Y-20172D01*
X10446Y-20172D01*
X10733Y-19886D01*
X10735Y-19879D01*
X10736Y-19879D01*
X10740Y-19868D01*
X10893Y-19501D01*
X10893Y-19493D01*
X10893Y-19083D01*
X10890Y-19075D01*
X10830Y-18931D01*
X10910Y-19011D01*
X11007Y-19076D01*
X11122Y-19099D01*
X11854Y-19099D01*
X11695Y-19165D01*
X11547Y-19312D01*
X11467Y-19505D01*
X11467Y-19714D01*
X11547Y-19907D01*
X11694Y-20055D01*
X11887Y-20135D01*
X12096Y-20135D01*
X12289Y-20055D01*
X12437Y-19908D01*
X12492Y-19774D01*
X12547Y-19907D01*
X12694Y-20055D01*
X12887Y-20135D01*
X13096Y-20135D01*
X13289Y-20055D01*
X13437Y-19908D01*
X13489Y-19780D01*
X13532Y-19882D01*
X13537Y-19883D01*
X13547Y-19907D01*
X13694Y-20055D01*
X13718Y-20065D01*
X13720Y-20070D01*
X13793Y-20096D01*
X13887Y-20135D01*
X13902Y-20135D01*
X13916Y-20140D01*
X14002Y-20135D01*
X14096Y-20135D01*
X14111Y-20128D01*
X14124Y-20128D01*
X14264Y-20070D01*
X14265Y-20064D01*
X14289Y-20055D01*
X14437Y-19908D01*
X14447Y-19883D01*
X14452Y-19882D01*
X14478Y-19808D01*
X14517Y-19715D01*
X14517Y-19700D01*
X14522Y-19686D01*
X14517Y-19599D01*
X14517Y-19506D01*
X14510Y-19490D01*
X14510Y-19478D01*
X14452Y-19338D01*
X14446Y-19336D01*
X14437Y-19313D01*
X14290Y-19165D01*
X14265Y-19154D01*
X14264Y-19150D01*
X14190Y-19123D01*
X14130Y-19099D01*
X15791Y-19099D01*
X15632Y-19165D01*
X15484Y-19312D01*
X15404Y-19505D01*
X15404Y-19714D01*
X15484Y-19907D01*
X15631Y-20055D01*
X15824Y-20135D01*
X16033Y-20135D01*
X16226Y-20055D01*
X16374Y-19908D01*
X16429Y-19774D01*
X16484Y-19907D01*
X16631Y-20055D01*
X16824Y-20135D01*
X17033Y-20135D01*
X17226Y-20055D01*
X17374Y-19908D01*
X17426Y-19780D01*
X17469Y-19882D01*
X17474Y-19883D01*
X17484Y-19907D01*
X17631Y-20055D01*
X17655Y-20065D01*
X17657Y-20070D01*
X17730Y-20096D01*
X17824Y-20135D01*
X17839Y-20135D01*
X17853Y-20140D01*
X17939Y-20135D01*
X18033Y-20135D01*
X18048Y-20128D01*
X18061Y-20128D01*
X18201Y-20070D01*
X18202Y-20064D01*
X18226Y-20055D01*
X18374Y-19908D01*
X18384Y-19883D01*
X18389Y-19882D01*
X18415Y-19808D01*
X18454Y-19715D01*
X18454Y-19700D01*
X18459Y-19686D01*
X18454Y-19599D01*
X18454Y-19506D01*
X18447Y-19490D01*
X18447Y-19478D01*
X18389Y-19338D01*
X18383Y-19336D01*
X18374Y-19313D01*
X18227Y-19165D01*
X18202Y-19154D01*
X18201Y-19150D01*
X18127Y-19123D01*
X18034Y-19085D01*
X18019Y-19085D01*
X18005Y-19080D01*
X17918Y-19085D01*
X17825Y-19085D01*
X17809Y-19091D01*
X17797Y-19092D01*
X17657Y-19150D01*
X17655Y-19155D01*
X17632Y-19165D01*
X17484Y-19312D01*
X17473Y-19336D01*
X17469Y-19338D01*
X17442Y-19411D01*
X17428Y-19445D01*
X17374Y-19313D01*
X17229Y-19167D01*
X17229Y-18804D01*
X18996Y-18804D01*
X19160Y-18804D01*
X19160Y-18895D01*
X19240Y-19088D01*
X19387Y-19236D01*
X19461Y-19267D01*
X19461Y-19267D01*
G37*
G54D11*
X19461Y-19267D02*
X19361Y-19267D01*
X19269Y-19305D01*
X19199Y-19375D01*
X19161Y-19466D01*
X19161Y-19565D01*
X19161Y-20115D01*
X19184Y-20172D01*
X10446Y-20172D01*
X10733Y-19886D01*
X10735Y-19879D01*
X10736Y-19879D01*
X10740Y-19868D01*
X10893Y-19501D01*
X10893Y-19493D01*
X10893Y-19083D01*
X10890Y-19075D01*
X10830Y-18931D01*
X10910Y-19011D01*
X11007Y-19076D01*
X11122Y-19099D01*
X11854Y-19099D01*
X11695Y-19165D01*
X11547Y-19312D01*
X11467Y-19505D01*
X11467Y-19714D01*
X11547Y-19907D01*
X11694Y-20055D01*
X11887Y-20135D01*
X12096Y-20135D01*
X12289Y-20055D01*
X12437Y-19908D01*
X12492Y-19774D01*
X12547Y-19907D01*
X12694Y-20055D01*
X12887Y-20135D01*
X13096Y-20135D01*
X13289Y-20055D01*
X13437Y-19908D01*
X13489Y-19780D01*
X13532Y-19882D01*
X13537Y-19883D01*
X13547Y-19907D01*
X13694Y-20055D01*
X13718Y-20065D01*
X13720Y-20070D01*
X13793Y-20096D01*
X13887Y-20135D01*
X13902Y-20135D01*
X13916Y-20140D01*
X14002Y-20135D01*
X14096Y-20135D01*
X14111Y-20128D01*
X14124Y-20128D01*
X14264Y-20070D01*
X14265Y-20064D01*
X14289Y-20055D01*
X14437Y-19908D01*
X14447Y-19883D01*
X14452Y-19882D01*
X14478Y-19808D01*
X14517Y-19715D01*
X14517Y-19700D01*
X14522Y-19686D01*
X14517Y-19599D01*
X14517Y-19506D01*
X14510Y-19490D01*
X14510Y-19478D01*
X14452Y-19338D01*
X14446Y-19336D01*
X14437Y-19313D01*
X14290Y-19165D01*
X14265Y-19154D01*
X14264Y-19150D01*
X14190Y-19123D01*
X14130Y-19099D01*
X15791Y-19099D01*
X15632Y-19165D01*
X15484Y-19312D01*
X15404Y-19505D01*
X15404Y-19714D01*
X15484Y-19907D01*
X15631Y-20055D01*
X15824Y-20135D01*
X16033Y-20135D01*
X16226Y-20055D01*
X16374Y-19908D01*
X16429Y-19774D01*
X16484Y-19907D01*
X16631Y-20055D01*
X16824Y-20135D01*
X17033Y-20135D01*
X17226Y-20055D01*
X17374Y-19908D01*
X17426Y-19780D01*
X17469Y-19882D01*
X17474Y-19883D01*
X17484Y-19907D01*
X17631Y-20055D01*
X17655Y-20065D01*
X17657Y-20070D01*
X17730Y-20096D01*
X17824Y-20135D01*
X17839Y-20135D01*
X17853Y-20140D01*
X17939Y-20135D01*
X18033Y-20135D01*
X18048Y-20128D01*
X18061Y-20128D01*
X18201Y-20070D01*
X18202Y-20064D01*
X18226Y-20055D01*
X18374Y-19908D01*
X18384Y-19883D01*
X18389Y-19882D01*
X18415Y-19808D01*
X18454Y-19715D01*
X18454Y-19700D01*
X18459Y-19686D01*
X18454Y-19599D01*
X18454Y-19506D01*
X18447Y-19490D01*
X18447Y-19478D01*
X18389Y-19338D01*
X18383Y-19336D01*
X18374Y-19313D01*
X18227Y-19165D01*
X18202Y-19154D01*
X18201Y-19150D01*
X18127Y-19123D01*
X18034Y-19085D01*
X18019Y-19085D01*
X18005Y-19080D01*
X17918Y-19085D01*
X17825Y-19085D01*
X17809Y-19091D01*
X17797Y-19092D01*
X17657Y-19150D01*
X17655Y-19155D01*
X17632Y-19165D01*
X17484Y-19312D01*
X17473Y-19336D01*
X17469Y-19338D01*
X17442Y-19411D01*
X17428Y-19445D01*
X17374Y-19313D01*
X17229Y-19167D01*
X17229Y-18804D01*
X18996Y-18804D01*
X19160Y-18804D01*
X19160Y-18895D01*
X19240Y-19088D01*
X19387Y-19236D01*
X19461Y-19267D01*
G54D10*
G36*
X20172Y-13871D02*
X20130Y-13770D01*
X19993Y-13633D01*
X20172Y-13633D01*
X20172Y-13871D01*
X20172Y-13871D01*
G37*
G54D11*
X20172Y-13871D02*
X20130Y-13770D01*
X19993Y-13633D01*
X20172Y-13633D01*
X20172Y-13871D01*
G54D10*
G36*
X20172Y-14653D02*
X20171Y-14651D01*
X20101Y-14581D01*
X20010Y-14543D01*
X19911Y-14543D01*
X19907Y-14543D01*
X19982Y-14512D01*
X20130Y-14365D01*
X20172Y-14263D01*
X20172Y-14653D01*
X20172Y-14653D01*
G37*
G54D11*
X20172Y-14653D02*
X20171Y-14651D01*
X20101Y-14581D01*
X20010Y-14543D01*
X19911Y-14543D01*
X19907Y-14543D01*
X19982Y-14512D01*
X20130Y-14365D01*
X20172Y-14263D01*
X20172Y-14653D01*
G54D10*
G36*
X20172Y-16233D02*
X20130Y-16132D01*
X19985Y-15986D01*
X19985Y-15591D01*
X20009Y-15591D01*
X20101Y-15553D01*
X20171Y-15483D01*
X20172Y-15480D01*
X20172Y-16233D01*
X20172Y-16233D01*
G37*
G54D11*
X20172Y-16233D02*
X20130Y-16132D01*
X19985Y-15986D01*
X19985Y-15591D01*
X20009Y-15591D01*
X20101Y-15553D01*
X20171Y-15483D01*
X20172Y-15480D01*
X20172Y-16233D01*
G54D10*
G36*
X20172Y-17015D02*
X20171Y-17013D01*
X20101Y-16943D01*
X20010Y-16905D01*
X19911Y-16905D01*
X19907Y-16905D01*
X19982Y-16874D01*
X20130Y-16727D01*
X20172Y-16625D01*
X20172Y-17015D01*
X20172Y-17015D01*
G37*
G54D11*
X20172Y-17015D02*
X20171Y-17013D01*
X20101Y-16943D01*
X20010Y-16905D01*
X19911Y-16905D01*
X19907Y-16905D01*
X19982Y-16874D01*
X20130Y-16727D01*
X20172Y-16625D01*
X20172Y-17015D01*
G54D10*
G36*
X20172Y-18595D02*
X20130Y-18494D01*
X19983Y-18346D01*
X19790Y-18266D01*
X19581Y-18266D01*
X19574Y-18268D01*
X19513Y-18227D01*
X19398Y-18204D01*
X19296Y-18204D01*
X19296Y-17926D01*
X19360Y-17953D01*
X19459Y-17953D01*
X20009Y-17953D01*
X20101Y-17915D01*
X20171Y-17845D01*
X20172Y-17842D01*
X20172Y-18595D01*
X20172Y-18595D01*
G37*
G54D11*
X20172Y-18595D02*
X20130Y-18494D01*
X19983Y-18346D01*
X19790Y-18266D01*
X19581Y-18266D01*
X19574Y-18268D01*
X19513Y-18227D01*
X19398Y-18204D01*
X19296Y-18204D01*
X19296Y-17926D01*
X19360Y-17953D01*
X19459Y-17953D01*
X20009Y-17953D01*
X20101Y-17915D01*
X20171Y-17845D01*
X20172Y-17842D01*
X20172Y-18595D01*
G54D10*
G36*
X20172Y-19377D02*
X20171Y-19375D01*
X20101Y-19305D01*
X20010Y-19267D01*
X19911Y-19267D01*
X19907Y-19267D01*
X19982Y-19236D01*
X20130Y-19089D01*
X20172Y-18987D01*
X20172Y-19377D01*
X20172Y-19377D01*
G37*
G54D11*
X20172Y-19377D02*
X20171Y-19375D01*
X20101Y-19305D01*
X20010Y-19267D01*
X19911Y-19267D01*
X19907Y-19267D01*
X19982Y-19236D01*
X20130Y-19089D01*
X20172Y-18987D01*
X20172Y-19377D01*
G54D10*
G36*
X6088Y-8223D02*
X6041Y-8176D01*
X6047Y-8172D01*
X6078Y-8097D01*
X6078Y-8198D01*
X6088Y-8223D01*
X6088Y-8223D01*
G37*
G54D11*
X6088Y-8223D02*
X6041Y-8176D01*
X6047Y-8172D01*
X6078Y-8097D01*
X6078Y-8198D01*
X6088Y-8223D01*
G54D10*
G36*
X8952Y-10103D02*
X8726Y-9877D01*
X8952Y-9877D01*
X8952Y-10103D01*
X8952Y-10103D01*
G37*
G54D11*
X8952Y-10103D02*
X8726Y-9877D01*
X8952Y-9877D01*
X8952Y-10103D01*
G54D10*
G36*
X9240Y-5024D02*
X8961Y-5303D01*
X8961Y-5024D01*
X9240Y-5024D01*
X9240Y-5024D01*
G37*
G54D11*
X9240Y-5024D02*
X8961Y-5303D01*
X8961Y-5024D01*
X9240Y-5024D01*
G54D10*
G36*
X9474Y-9029D02*
X9468Y-9044D01*
X9459Y-9035D01*
X9474Y-9029D01*
X9474Y-9029D01*
G37*
G54D11*
X9474Y-9029D02*
X9468Y-9044D01*
X9459Y-9035D01*
X9474Y-9029D01*
G54D10*
G36*
X12685Y-7878D02*
X12665Y-7927D01*
X12665Y-7994D01*
X12597Y-8040D01*
X12232Y-8404D01*
X12204Y-8336D01*
X12134Y-8266D01*
X12043Y-8228D01*
X12043Y-8065D01*
X12230Y-7878D01*
X12685Y-7878D01*
X12685Y-7878D01*
G37*
G54D11*
X12685Y-7878D02*
X12665Y-7927D01*
X12665Y-7994D01*
X12597Y-8040D01*
X12232Y-8404D01*
X12204Y-8336D01*
X12134Y-8266D01*
X12043Y-8228D01*
X12043Y-8065D01*
X12230Y-7878D01*
X12685Y-7878D01*
G54D10*
G36*
X12744Y-17076D02*
X12249Y-17076D01*
X12264Y-17070D01*
X12265Y-17064D01*
X12289Y-17055D01*
X12437Y-16908D01*
X12447Y-16883D01*
X12452Y-16882D01*
X12478Y-16808D01*
X12492Y-16774D01*
X12547Y-16907D01*
X12694Y-17055D01*
X12744Y-17076D01*
X12744Y-17076D01*
G37*
G54D11*
X12744Y-17076D02*
X12249Y-17076D01*
X12264Y-17070D01*
X12265Y-17064D01*
X12289Y-17055D01*
X12437Y-16908D01*
X12447Y-16883D01*
X12452Y-16882D01*
X12478Y-16808D01*
X12492Y-16774D01*
X12547Y-16907D01*
X12694Y-17055D01*
X12744Y-17076D01*
G54D10*
G36*
X13024Y-9752D02*
X12959Y-9778D01*
X12545Y-9365D01*
X12448Y-9300D01*
X12333Y-9277D01*
X12221Y-9277D01*
X12229Y-9256D01*
X12760Y-8725D01*
X12773Y-8738D01*
X12864Y-8776D01*
X12963Y-8776D01*
X12892Y-8807D01*
X12744Y-8954D01*
X12664Y-9147D01*
X12664Y-9356D01*
X12744Y-9549D01*
X12891Y-9697D01*
X13024Y-9752D01*
X13024Y-9752D01*
G37*
G54D11*
X13024Y-9752D02*
X12959Y-9778D01*
X12545Y-9365D01*
X12448Y-9300D01*
X12333Y-9277D01*
X12221Y-9277D01*
X12229Y-9256D01*
X12760Y-8725D01*
X12773Y-8738D01*
X12864Y-8776D01*
X12963Y-8776D01*
X12892Y-8807D01*
X12744Y-8954D01*
X12664Y-9147D01*
X12664Y-9356D01*
X12744Y-9549D01*
X12891Y-9697D01*
X13024Y-9752D01*
G54D10*
G36*
X13206Y-10777D02*
X13000Y-10982D01*
X12959Y-10882D01*
X12839Y-10762D01*
X12683Y-10697D01*
X12597Y-10697D01*
X12265Y-10365D01*
X12200Y-10321D01*
X12204Y-10318D01*
X12242Y-10227D01*
X12242Y-10128D01*
X12242Y-9928D01*
X12229Y-9897D01*
X12664Y-10332D01*
X12664Y-10356D01*
X12744Y-10549D01*
X12891Y-10697D01*
X13084Y-10777D01*
X13206Y-10777D01*
X13206Y-10777D01*
G37*
G54D11*
X13206Y-10777D02*
X13000Y-10982D01*
X12959Y-10882D01*
X12839Y-10762D01*
X12683Y-10697D01*
X12597Y-10697D01*
X12265Y-10365D01*
X12200Y-10321D01*
X12204Y-10318D01*
X12242Y-10227D01*
X12242Y-10128D01*
X12242Y-9928D01*
X12229Y-9897D01*
X12664Y-10332D01*
X12664Y-10356D01*
X12744Y-10549D01*
X12891Y-10697D01*
X13084Y-10777D01*
X13206Y-10777D01*
G54D10*
G36*
X13255Y-13364D02*
X13211Y-13346D01*
X13112Y-13346D01*
X12562Y-13346D01*
X12470Y-13384D01*
X12400Y-13454D01*
X12362Y-13545D01*
X12362Y-13644D01*
X12362Y-14194D01*
X12400Y-14286D01*
X12470Y-14356D01*
X12561Y-14394D01*
X12660Y-14394D01*
X12589Y-14425D01*
X12441Y-14572D01*
X12361Y-14765D01*
X12361Y-14974D01*
X12441Y-15167D01*
X12524Y-15251D01*
X11147Y-15251D01*
X10470Y-14574D01*
X10575Y-14471D01*
X10630Y-14337D01*
X10685Y-14470D01*
X10832Y-14618D01*
X11025Y-14698D01*
X11234Y-14698D01*
X11427Y-14618D01*
X11575Y-14471D01*
X11655Y-14278D01*
X11655Y-14069D01*
X11575Y-13876D01*
X11428Y-13728D01*
X11235Y-13648D01*
X11029Y-13648D01*
X10930Y-13549D01*
X10930Y-12992D01*
X10929Y-12991D01*
X10907Y-12877D01*
X10842Y-12780D01*
X10841Y-12779D01*
X9707Y-11645D01*
X9729Y-11645D01*
X9885Y-11581D01*
X10005Y-11461D01*
X10070Y-11305D01*
X10070Y-11136D01*
X10006Y-10980D01*
X9945Y-10919D01*
X9945Y-9669D01*
X10082Y-9613D01*
X10202Y-9493D01*
X10267Y-9337D01*
X10267Y-9251D01*
X10641Y-8877D01*
X11264Y-8877D01*
X11244Y-8927D01*
X11244Y-9026D01*
X11244Y-9226D01*
X11282Y-9318D01*
X11291Y-9327D01*
X11282Y-9336D01*
X11244Y-9427D01*
X11244Y-9526D01*
X11244Y-9726D01*
X11265Y-9777D01*
X11084Y-9777D01*
X10969Y-9800D01*
X10952Y-9811D01*
X10841Y-9811D01*
X10685Y-9875D01*
X10565Y-9995D01*
X10500Y-10151D01*
X10500Y-10320D01*
X10564Y-10476D01*
X10684Y-10596D01*
X10840Y-10661D01*
X11009Y-10661D01*
X11165Y-10597D01*
X11244Y-10518D01*
X11244Y-10526D01*
X11244Y-10726D01*
X11265Y-10777D01*
X11150Y-10800D01*
X11053Y-10865D01*
X10532Y-11386D01*
X10447Y-11386D01*
X10291Y-11450D01*
X10171Y-11570D01*
X10106Y-11726D01*
X10106Y-11895D01*
X10170Y-12051D01*
X10290Y-12171D01*
X10446Y-12236D01*
X10615Y-12236D01*
X10771Y-12172D01*
X10891Y-12052D01*
X10956Y-11896D01*
X10956Y-11810D01*
X11244Y-11522D01*
X11244Y-11526D01*
X11244Y-11726D01*
X11282Y-11818D01*
X11291Y-11827D01*
X11282Y-11836D01*
X11244Y-11927D01*
X11244Y-12026D01*
X11244Y-12226D01*
X11282Y-12318D01*
X11291Y-12327D01*
X11282Y-12336D01*
X11244Y-12427D01*
X11244Y-12526D01*
X11244Y-12726D01*
X11282Y-12818D01*
X11291Y-12827D01*
X11282Y-12836D01*
X11244Y-12927D01*
X11244Y-12928D01*
X11243Y-12965D01*
X11244Y-12966D01*
X11244Y-13026D01*
X11244Y-13188D01*
X11243Y-13189D01*
X11244Y-13226D01*
X11282Y-13318D01*
X11352Y-13388D01*
X11443Y-13426D01*
X11542Y-13426D01*
X11631Y-13427D01*
X11632Y-13426D01*
X11854Y-13426D01*
X11855Y-13427D01*
X11944Y-13426D01*
X12042Y-13426D01*
X12043Y-13426D01*
X12134Y-13388D01*
X12204Y-13318D01*
X12242Y-13227D01*
X12242Y-13226D01*
X12243Y-13189D01*
X12242Y-13188D01*
X12242Y-13128D01*
X12242Y-12966D01*
X12243Y-12965D01*
X12242Y-12928D01*
X12220Y-12877D01*
X13210Y-12877D01*
X13157Y-13005D01*
X13157Y-13174D01*
X13221Y-13330D01*
X13255Y-13364D01*
X13255Y-13364D01*
G37*
G54D11*
X13255Y-13364D02*
X13211Y-13346D01*
X13112Y-13346D01*
X12562Y-13346D01*
X12470Y-13384D01*
X12400Y-13454D01*
X12362Y-13545D01*
X12362Y-13644D01*
X12362Y-14194D01*
X12400Y-14286D01*
X12470Y-14356D01*
X12561Y-14394D01*
X12660Y-14394D01*
X12589Y-14425D01*
X12441Y-14572D01*
X12361Y-14765D01*
X12361Y-14974D01*
X12441Y-15167D01*
X12524Y-15251D01*
X11147Y-15251D01*
X10470Y-14574D01*
X10575Y-14471D01*
X10630Y-14337D01*
X10685Y-14470D01*
X10832Y-14618D01*
X11025Y-14698D01*
X11234Y-14698D01*
X11427Y-14618D01*
X11575Y-14471D01*
X11655Y-14278D01*
X11655Y-14069D01*
X11575Y-13876D01*
X11428Y-13728D01*
X11235Y-13648D01*
X11029Y-13648D01*
X10930Y-13549D01*
X10930Y-12992D01*
X10929Y-12991D01*
X10907Y-12877D01*
X10842Y-12780D01*
X10841Y-12779D01*
X9707Y-11645D01*
X9729Y-11645D01*
X9885Y-11581D01*
X10005Y-11461D01*
X10070Y-11305D01*
X10070Y-11136D01*
X10006Y-10980D01*
X9945Y-10919D01*
X9945Y-9669D01*
X10082Y-9613D01*
X10202Y-9493D01*
X10267Y-9337D01*
X10267Y-9251D01*
X10641Y-8877D01*
X11264Y-8877D01*
X11244Y-8927D01*
X11244Y-9026D01*
X11244Y-9226D01*
X11282Y-9318D01*
X11291Y-9327D01*
X11282Y-9336D01*
X11244Y-9427D01*
X11244Y-9526D01*
X11244Y-9726D01*
X11265Y-9777D01*
X11084Y-9777D01*
X10969Y-9800D01*
X10952Y-9811D01*
X10841Y-9811D01*
X10685Y-9875D01*
X10565Y-9995D01*
X10500Y-10151D01*
X10500Y-10320D01*
X10564Y-10476D01*
X10684Y-10596D01*
X10840Y-10661D01*
X11009Y-10661D01*
X11165Y-10597D01*
X11244Y-10518D01*
X11244Y-10526D01*
X11244Y-10726D01*
X11265Y-10777D01*
X11150Y-10800D01*
X11053Y-10865D01*
X10532Y-11386D01*
X10447Y-11386D01*
X10291Y-11450D01*
X10171Y-11570D01*
X10106Y-11726D01*
X10106Y-11895D01*
X10170Y-12051D01*
X10290Y-12171D01*
X10446Y-12236D01*
X10615Y-12236D01*
X10771Y-12172D01*
X10891Y-12052D01*
X10956Y-11896D01*
X10956Y-11810D01*
X11244Y-11522D01*
X11244Y-11526D01*
X11244Y-11726D01*
X11282Y-11818D01*
X11291Y-11827D01*
X11282Y-11836D01*
X11244Y-11927D01*
X11244Y-12026D01*
X11244Y-12226D01*
X11282Y-12318D01*
X11291Y-12327D01*
X11282Y-12336D01*
X11244Y-12427D01*
X11244Y-12526D01*
X11244Y-12726D01*
X11282Y-12818D01*
X11291Y-12827D01*
X11282Y-12836D01*
X11244Y-12927D01*
X11244Y-12928D01*
X11243Y-12965D01*
X11244Y-12966D01*
X11244Y-13026D01*
X11244Y-13188D01*
X11243Y-13189D01*
X11244Y-13226D01*
X11282Y-13318D01*
X11352Y-13388D01*
X11443Y-13426D01*
X11542Y-13426D01*
X11631Y-13427D01*
X11632Y-13426D01*
X11854Y-13426D01*
X11855Y-13427D01*
X11944Y-13426D01*
X12042Y-13426D01*
X12043Y-13426D01*
X12134Y-13388D01*
X12204Y-13318D01*
X12242Y-13227D01*
X12242Y-13226D01*
X12243Y-13189D01*
X12242Y-13188D01*
X12242Y-13128D01*
X12242Y-12966D01*
X12243Y-12965D01*
X12242Y-12928D01*
X12220Y-12877D01*
X13210Y-12877D01*
X13157Y-13005D01*
X13157Y-13174D01*
X13221Y-13330D01*
X13255Y-13364D01*
G54D10*
G36*
X13524Y-15251D02*
X13247Y-15251D01*
X13331Y-15168D01*
X13386Y-15034D01*
X13441Y-15167D01*
X13524Y-15251D01*
X13524Y-15251D01*
G37*
G54D11*
X13524Y-15251D02*
X13247Y-15251D01*
X13331Y-15168D01*
X13386Y-15034D01*
X13441Y-15167D01*
X13524Y-15251D01*
G54D10*
G36*
X13556Y-17076D02*
X13238Y-17076D01*
X13289Y-17055D01*
X13437Y-16908D01*
X13468Y-16833D01*
X13468Y-16934D01*
X13506Y-17026D01*
X13556Y-17076D01*
X13556Y-17076D01*
G37*
G54D11*
X13556Y-17076D02*
X13238Y-17076D01*
X13289Y-17055D01*
X13437Y-16908D01*
X13468Y-16833D01*
X13468Y-16934D01*
X13506Y-17026D01*
X13556Y-17076D01*
G54D10*
G36*
X13783Y-12277D02*
X13540Y-12277D01*
X13748Y-12069D01*
X13748Y-12190D01*
X13783Y-12277D01*
X13783Y-12277D01*
G37*
G54D11*
X13783Y-12277D02*
X13540Y-12277D01*
X13748Y-12069D01*
X13748Y-12190D01*
X13783Y-12277D01*
G54D10*
G36*
X14039Y-11314D02*
X13779Y-11314D01*
X13664Y-11337D01*
X13566Y-11402D01*
X13191Y-11777D01*
X13055Y-11777D01*
X13630Y-11202D01*
X13927Y-11202D01*
X14039Y-11314D01*
X14039Y-11314D01*
G37*
G54D11*
X14039Y-11314D02*
X13779Y-11314D01*
X13664Y-11337D01*
X13566Y-11402D01*
X13191Y-11777D01*
X13055Y-11777D01*
X13630Y-11202D01*
X13927Y-11202D01*
X14039Y-11314D01*
G54D10*
G36*
X14060Y-12987D02*
X13999Y-12987D01*
X13954Y-12877D01*
X13984Y-12877D01*
X14009Y-12936D01*
X14060Y-12987D01*
X14060Y-12987D01*
G37*
G54D11*
X14060Y-12987D02*
X13999Y-12987D01*
X13954Y-12877D01*
X13984Y-12877D01*
X14009Y-12936D01*
X14060Y-12987D01*
G54D10*
G36*
X15510Y-11427D02*
X15131Y-11806D01*
X15071Y-11806D01*
X15450Y-11427D01*
X15510Y-11427D01*
X15510Y-11427D01*
G37*
G54D11*
X15510Y-11427D02*
X15131Y-11806D01*
X15071Y-11806D01*
X15450Y-11427D01*
X15510Y-11427D01*
G54D10*
G36*
X15576Y-14427D02*
X15549Y-14454D01*
X15511Y-14545D01*
X15511Y-14644D01*
X15511Y-15194D01*
X15534Y-15251D01*
X14247Y-15251D01*
X14331Y-15168D01*
X14411Y-14975D01*
X14411Y-14766D01*
X14331Y-14573D01*
X14184Y-14425D01*
X13991Y-14345D01*
X13782Y-14345D01*
X13589Y-14425D01*
X13441Y-14572D01*
X13385Y-14705D01*
X13331Y-14573D01*
X13184Y-14425D01*
X13109Y-14394D01*
X13210Y-14394D01*
X13302Y-14356D01*
X13372Y-14286D01*
X13410Y-14195D01*
X13410Y-14096D01*
X13410Y-13546D01*
X13376Y-13464D01*
X13497Y-13515D01*
X13590Y-13515D01*
X13664Y-13564D01*
X13779Y-13587D01*
X13942Y-13587D01*
X13925Y-13604D01*
X13845Y-13797D01*
X13845Y-14006D01*
X13925Y-14199D01*
X14072Y-14347D01*
X14265Y-14427D01*
X14474Y-14427D01*
X14667Y-14347D01*
X14815Y-14200D01*
X14895Y-14007D01*
X14895Y-13798D01*
X14815Y-13605D01*
X14797Y-13587D01*
X15123Y-13587D01*
X15106Y-13604D01*
X15026Y-13797D01*
X15026Y-14006D01*
X15106Y-14199D01*
X15253Y-14347D01*
X15446Y-14427D01*
X15576Y-14427D01*
X15576Y-14427D01*
G37*
G54D11*
X15576Y-14427D02*
X15549Y-14454D01*
X15511Y-14545D01*
X15511Y-14644D01*
X15511Y-15194D01*
X15534Y-15251D01*
X14247Y-15251D01*
X14331Y-15168D01*
X14411Y-14975D01*
X14411Y-14766D01*
X14331Y-14573D01*
X14184Y-14425D01*
X13991Y-14345D01*
X13782Y-14345D01*
X13589Y-14425D01*
X13441Y-14572D01*
X13385Y-14705D01*
X13331Y-14573D01*
X13184Y-14425D01*
X13109Y-14394D01*
X13210Y-14394D01*
X13302Y-14356D01*
X13372Y-14286D01*
X13410Y-14195D01*
X13410Y-14096D01*
X13410Y-13546D01*
X13376Y-13464D01*
X13497Y-13515D01*
X13590Y-13515D01*
X13664Y-13564D01*
X13779Y-13587D01*
X13942Y-13587D01*
X13925Y-13604D01*
X13845Y-13797D01*
X13845Y-14006D01*
X13925Y-14199D01*
X14072Y-14347D01*
X14265Y-14427D01*
X14474Y-14427D01*
X14667Y-14347D01*
X14815Y-14200D01*
X14895Y-14007D01*
X14895Y-13798D01*
X14815Y-13605D01*
X14797Y-13587D01*
X15123Y-13587D01*
X15106Y-13604D01*
X15026Y-13797D01*
X15026Y-14006D01*
X15106Y-14199D01*
X15253Y-14347D01*
X15446Y-14427D01*
X15576Y-14427D01*
G54D10*
G36*
X16425Y-12106D02*
X16313Y-12153D01*
X16165Y-12300D01*
X16085Y-12493D01*
X16085Y-12702D01*
X16165Y-12895D01*
X16256Y-12987D01*
X14680Y-12987D01*
X14730Y-12937D01*
X14795Y-12781D01*
X14795Y-12612D01*
X14731Y-12456D01*
X14681Y-12406D01*
X15157Y-12406D01*
X15255Y-12406D01*
X15370Y-12383D01*
X15467Y-12318D01*
X16085Y-11700D01*
X16085Y-11718D01*
X16165Y-11911D01*
X16312Y-12059D01*
X16425Y-12106D01*
X16425Y-12106D01*
G37*
G54D11*
X16425Y-12106D02*
X16313Y-12153D01*
X16165Y-12300D01*
X16085Y-12493D01*
X16085Y-12702D01*
X16165Y-12895D01*
X16256Y-12987D01*
X14680Y-12987D01*
X14730Y-12937D01*
X14795Y-12781D01*
X14795Y-12612D01*
X14731Y-12456D01*
X14681Y-12406D01*
X15157Y-12406D01*
X15255Y-12406D01*
X15370Y-12383D01*
X15467Y-12318D01*
X16085Y-11700D01*
X16085Y-11718D01*
X16165Y-11911D01*
X16312Y-12059D01*
X16425Y-12106D01*
G54D10*
G36*
X16673Y-15251D02*
X16535Y-15251D01*
X16559Y-15195D01*
X16559Y-15096D01*
X16559Y-15092D01*
X16590Y-15167D01*
X16673Y-15251D01*
X16673Y-15251D01*
G37*
G54D11*
X16673Y-15251D02*
X16535Y-15251D01*
X16559Y-15195D01*
X16559Y-15096D01*
X16559Y-15092D01*
X16590Y-15167D01*
X16673Y-15251D01*
G54D10*
G36*
X16681Y-17076D02*
X16186Y-17076D01*
X16201Y-17070D01*
X16202Y-17064D01*
X16226Y-17055D01*
X16374Y-16908D01*
X16384Y-16883D01*
X16389Y-16882D01*
X16415Y-16808D01*
X16429Y-16774D01*
X16484Y-16907D01*
X16631Y-17055D01*
X16681Y-17076D01*
X16681Y-17076D01*
G37*
G54D11*
X16681Y-17076D02*
X16186Y-17076D01*
X16201Y-17070D01*
X16202Y-17064D01*
X16226Y-17055D01*
X16374Y-16908D01*
X16384Y-16883D01*
X16389Y-16882D01*
X16415Y-16808D01*
X16429Y-16774D01*
X16484Y-16907D01*
X16631Y-17055D01*
X16681Y-17076D01*
G54D10*
G36*
X16870Y-14370D02*
X16738Y-14425D01*
X16590Y-14572D01*
X16559Y-14646D01*
X16559Y-14546D01*
X16521Y-14454D01*
X16451Y-14384D01*
X16360Y-14346D01*
X16261Y-14346D01*
X15849Y-14346D01*
X15996Y-14200D01*
X16076Y-14007D01*
X16076Y-13798D01*
X15996Y-13605D01*
X15978Y-13587D01*
X16583Y-13587D01*
X16510Y-13765D01*
X16510Y-13974D01*
X16590Y-14167D01*
X16737Y-14315D01*
X16870Y-14370D01*
X16870Y-14370D01*
G37*
G54D11*
X16870Y-14370D02*
X16738Y-14425D01*
X16590Y-14572D01*
X16559Y-14646D01*
X16559Y-14546D01*
X16521Y-14454D01*
X16451Y-14384D01*
X16360Y-14346D01*
X16261Y-14346D01*
X15849Y-14346D01*
X15996Y-14200D01*
X16076Y-14007D01*
X16076Y-13798D01*
X15996Y-13605D01*
X15978Y-13587D01*
X16583Y-13587D01*
X16510Y-13765D01*
X16510Y-13974D01*
X16590Y-14167D01*
X16737Y-14315D01*
X16870Y-14370D01*
G54D10*
G36*
X17493Y-17076D02*
X17175Y-17076D01*
X17226Y-17055D01*
X17374Y-16908D01*
X17405Y-16833D01*
X17405Y-16934D01*
X17443Y-17026D01*
X17493Y-17076D01*
X17493Y-17076D01*
G37*
G54D11*
X17493Y-17076D02*
X17175Y-17076D01*
X17226Y-17055D01*
X17374Y-16908D01*
X17405Y-16833D01*
X17405Y-16934D01*
X17443Y-17026D01*
X17493Y-17076D01*
G54D10*
G36*
X17613Y-15033D02*
X17481Y-15164D01*
X17560Y-14975D01*
X17560Y-14766D01*
X17480Y-14573D01*
X17333Y-14425D01*
X17199Y-14369D01*
X17332Y-14315D01*
X17383Y-14264D01*
X17613Y-14494D01*
X17613Y-15033D01*
X17613Y-15033D01*
G37*
G54D11*
X17613Y-15033D02*
X17481Y-15164D01*
X17560Y-14975D01*
X17560Y-14766D01*
X17480Y-14573D01*
X17333Y-14425D01*
X17199Y-14369D01*
X17332Y-14315D01*
X17383Y-14264D01*
X17613Y-14494D01*
X17613Y-15033D01*
G54D10*
G36*
X18598Y-12472D02*
X18083Y-12987D01*
X16963Y-12987D01*
X17055Y-12896D01*
X17135Y-12703D01*
X17135Y-12494D01*
X17055Y-12301D01*
X16908Y-12153D01*
X16794Y-12105D01*
X16907Y-12059D01*
X17055Y-11912D01*
X17135Y-11719D01*
X17135Y-11510D01*
X17055Y-11317D01*
X16908Y-11169D01*
X16794Y-11121D01*
X16907Y-11075D01*
X17055Y-10928D01*
X17135Y-10735D01*
X17135Y-10526D01*
X17055Y-10333D01*
X16908Y-10185D01*
X16794Y-10137D01*
X16907Y-10091D01*
X17055Y-9944D01*
X17135Y-9751D01*
X17135Y-9542D01*
X17055Y-9349D01*
X16908Y-9201D01*
X16792Y-9153D01*
X16907Y-9106D01*
X17055Y-8959D01*
X17135Y-8766D01*
X17135Y-8557D01*
X17055Y-8364D01*
X16908Y-8216D01*
X16715Y-8136D01*
X16506Y-8136D01*
X16313Y-8216D01*
X16165Y-8363D01*
X16085Y-8556D01*
X16085Y-8765D01*
X16165Y-8958D01*
X16312Y-9106D01*
X16427Y-9153D01*
X16313Y-9201D01*
X16165Y-9348D01*
X16085Y-9541D01*
X16085Y-9750D01*
X16165Y-9943D01*
X16312Y-10091D01*
X16425Y-10138D01*
X16313Y-10185D01*
X16165Y-10332D01*
X16085Y-10525D01*
X16085Y-10734D01*
X16119Y-10817D01*
X16076Y-10861D01*
X16076Y-10798D01*
X15996Y-10605D01*
X15849Y-10457D01*
X15656Y-10377D01*
X15447Y-10377D01*
X15254Y-10457D01*
X15106Y-10604D01*
X15026Y-10797D01*
X15026Y-11003D01*
X14715Y-11314D01*
X14700Y-11314D01*
X14815Y-11200D01*
X14895Y-11007D01*
X14895Y-10798D01*
X14815Y-10605D01*
X14668Y-10457D01*
X14475Y-10377D01*
X14266Y-10377D01*
X14073Y-10457D01*
X13927Y-10602D01*
X13581Y-10602D01*
X13634Y-10550D01*
X13714Y-10357D01*
X13714Y-10148D01*
X13634Y-9955D01*
X13487Y-9807D01*
X13353Y-9751D01*
X13486Y-9697D01*
X13634Y-9550D01*
X13714Y-9357D01*
X13714Y-9148D01*
X13634Y-8955D01*
X13487Y-8807D01*
X13412Y-8776D01*
X13513Y-8776D01*
X13605Y-8738D01*
X13675Y-8668D01*
X13713Y-8577D01*
X13713Y-8478D01*
X13713Y-7928D01*
X13692Y-7878D01*
X17783Y-7878D01*
X17783Y-7958D01*
X17847Y-8114D01*
X17967Y-8234D01*
X18123Y-8299D01*
X18292Y-8299D01*
X18448Y-8235D01*
X18568Y-8115D01*
X18598Y-8043D01*
X18598Y-12472D01*
X18598Y-12472D01*
G37*
G54D11*
X18598Y-12472D02*
X18083Y-12987D01*
X16963Y-12987D01*
X17055Y-12896D01*
X17135Y-12703D01*
X17135Y-12494D01*
X17055Y-12301D01*
X16908Y-12153D01*
X16794Y-12105D01*
X16907Y-12059D01*
X17055Y-11912D01*
X17135Y-11719D01*
X17135Y-11510D01*
X17055Y-11317D01*
X16908Y-11169D01*
X16794Y-11121D01*
X16907Y-11075D01*
X17055Y-10928D01*
X17135Y-10735D01*
X17135Y-10526D01*
X17055Y-10333D01*
X16908Y-10185D01*
X16794Y-10137D01*
X16907Y-10091D01*
X17055Y-9944D01*
X17135Y-9751D01*
X17135Y-9542D01*
X17055Y-9349D01*
X16908Y-9201D01*
X16792Y-9153D01*
X16907Y-9106D01*
X17055Y-8959D01*
X17135Y-8766D01*
X17135Y-8557D01*
X17055Y-8364D01*
X16908Y-8216D01*
X16715Y-8136D01*
X16506Y-8136D01*
X16313Y-8216D01*
X16165Y-8363D01*
X16085Y-8556D01*
X16085Y-8765D01*
X16165Y-8958D01*
X16312Y-9106D01*
X16427Y-9153D01*
X16313Y-9201D01*
X16165Y-9348D01*
X16085Y-9541D01*
X16085Y-9750D01*
X16165Y-9943D01*
X16312Y-10091D01*
X16425Y-10138D01*
X16313Y-10185D01*
X16165Y-10332D01*
X16085Y-10525D01*
X16085Y-10734D01*
X16119Y-10817D01*
X16076Y-10861D01*
X16076Y-10798D01*
X15996Y-10605D01*
X15849Y-10457D01*
X15656Y-10377D01*
X15447Y-10377D01*
X15254Y-10457D01*
X15106Y-10604D01*
X15026Y-10797D01*
X15026Y-11003D01*
X14715Y-11314D01*
X14700Y-11314D01*
X14815Y-11200D01*
X14895Y-11007D01*
X14895Y-10798D01*
X14815Y-10605D01*
X14668Y-10457D01*
X14475Y-10377D01*
X14266Y-10377D01*
X14073Y-10457D01*
X13927Y-10602D01*
X13581Y-10602D01*
X13634Y-10550D01*
X13714Y-10357D01*
X13714Y-10148D01*
X13634Y-9955D01*
X13487Y-9807D01*
X13353Y-9751D01*
X13486Y-9697D01*
X13634Y-9550D01*
X13714Y-9357D01*
X13714Y-9148D01*
X13634Y-8955D01*
X13487Y-8807D01*
X13412Y-8776D01*
X13513Y-8776D01*
X13605Y-8738D01*
X13675Y-8668D01*
X13713Y-8577D01*
X13713Y-8478D01*
X13713Y-7928D01*
X13692Y-7878D01*
X17783Y-7878D01*
X17783Y-7958D01*
X17847Y-8114D01*
X17967Y-8234D01*
X18123Y-8299D01*
X18292Y-8299D01*
X18448Y-8235D01*
X18568Y-8115D01*
X18598Y-8043D01*
X18598Y-12472D01*
G54D10*
G36*
X19425Y-10138D02*
X19313Y-10185D01*
X19198Y-10299D01*
X19198Y-9976D01*
X19312Y-10091D01*
X19425Y-10138D01*
X19425Y-10138D01*
G37*
G54D11*
X19425Y-10138D02*
X19313Y-10185D01*
X19198Y-10299D01*
X19198Y-9976D01*
X19312Y-10091D01*
X19425Y-10138D01*
G54D10*
G36*
X19425Y-11122D02*
X19313Y-11169D01*
X19198Y-11283D01*
X19198Y-10960D01*
X19312Y-11075D01*
X19425Y-11122D01*
X19425Y-11122D01*
G37*
G54D11*
X19425Y-11122D02*
X19313Y-11169D01*
X19198Y-11283D01*
X19198Y-10960D01*
X19312Y-11075D01*
X19425Y-11122D01*
G54D10*
G36*
X19425Y-12106D02*
X19313Y-12153D01*
X19198Y-12267D01*
X19198Y-11944D01*
X19312Y-12059D01*
X19425Y-12106D01*
X19425Y-12106D01*
G37*
G54D11*
X19425Y-12106D02*
X19313Y-12153D01*
X19198Y-12267D01*
X19198Y-11944D01*
X19312Y-12059D01*
X19425Y-12106D01*
G54D10*
G36*
X19427Y-9153D02*
X19313Y-9201D01*
X19198Y-9315D01*
X19198Y-8991D01*
X19312Y-9106D01*
X19427Y-9153D01*
X19427Y-9153D01*
G37*
G54D11*
X19427Y-9153D02*
X19313Y-9201D01*
X19198Y-9315D01*
X19198Y-8991D01*
X19312Y-9106D01*
X19427Y-9153D01*
G54D10*
G36*
X20172Y-13139D02*
X19270Y-13139D01*
X18257Y-14152D01*
X18257Y-16087D01*
X18254Y-16086D01*
X18155Y-16086D01*
X17605Y-16086D01*
X17513Y-16124D01*
X17443Y-16194D01*
X17405Y-16285D01*
X17405Y-16384D01*
X17405Y-16387D01*
X17374Y-16313D01*
X17227Y-16165D01*
X17034Y-16085D01*
X16825Y-16085D01*
X16632Y-16165D01*
X16484Y-16312D01*
X16431Y-16439D01*
X16389Y-16338D01*
X16383Y-16336D01*
X16374Y-16313D01*
X16227Y-16165D01*
X16202Y-16154D01*
X16201Y-16150D01*
X16127Y-16123D01*
X16034Y-16085D01*
X16019Y-16085D01*
X16005Y-16080D01*
X15918Y-16085D01*
X15825Y-16085D01*
X15809Y-16091D01*
X15797Y-16092D01*
X15657Y-16150D01*
X15655Y-16155D01*
X15632Y-16165D01*
X15484Y-16312D01*
X15473Y-16336D01*
X15469Y-16338D01*
X15442Y-16411D01*
X15404Y-16505D01*
X15404Y-16520D01*
X15399Y-16534D01*
X15404Y-16620D01*
X15404Y-16714D01*
X15410Y-16729D01*
X15411Y-16742D01*
X15469Y-16882D01*
X15474Y-16883D01*
X15484Y-16907D01*
X15631Y-17055D01*
X15655Y-17065D01*
X15657Y-17070D01*
X15673Y-17076D01*
X14428Y-17076D01*
X14478Y-17026D01*
X14516Y-16935D01*
X14516Y-16836D01*
X14516Y-16286D01*
X14478Y-16194D01*
X14408Y-16124D01*
X14317Y-16086D01*
X14218Y-16086D01*
X13668Y-16086D01*
X13576Y-16124D01*
X13506Y-16194D01*
X13468Y-16285D01*
X13468Y-16384D01*
X13468Y-16387D01*
X13437Y-16313D01*
X13290Y-16165D01*
X13097Y-16085D01*
X12888Y-16085D01*
X12695Y-16165D01*
X12547Y-16312D01*
X12494Y-16439D01*
X12452Y-16338D01*
X12446Y-16336D01*
X12437Y-16313D01*
X12290Y-16165D01*
X12265Y-16154D01*
X12264Y-16150D01*
X12190Y-16123D01*
X12097Y-16085D01*
X12082Y-16085D01*
X12068Y-16080D01*
X11981Y-16085D01*
X11888Y-16085D01*
X11872Y-16091D01*
X11860Y-16092D01*
X11720Y-16150D01*
X11718Y-16155D01*
X11695Y-16165D01*
X11547Y-16312D01*
X11536Y-16336D01*
X11532Y-16338D01*
X11505Y-16411D01*
X11467Y-16505D01*
X11467Y-16520D01*
X11462Y-16534D01*
X11467Y-16620D01*
X11467Y-16714D01*
X11473Y-16729D01*
X11474Y-16742D01*
X11532Y-16882D01*
X11537Y-16883D01*
X11547Y-16907D01*
X11694Y-17055D01*
X11718Y-17065D01*
X11720Y-17070D01*
X11736Y-17076D01*
X11270Y-17076D01*
X11270Y-16514D01*
X8289Y-13533D01*
X7145Y-13533D01*
X7145Y-12340D01*
X7145Y-10608D01*
X7139Y-10519D01*
X7139Y-10463D01*
X7134Y-10451D01*
X7133Y-10431D01*
X7088Y-10325D01*
X7081Y-10323D01*
X7071Y-10299D01*
X6946Y-10173D01*
X6920Y-10162D01*
X6919Y-10156D01*
X6843Y-10130D01*
X6782Y-10105D01*
X6767Y-10105D01*
X6750Y-10099D01*
X6661Y-10105D01*
X6605Y-10105D01*
X6593Y-10109D01*
X6573Y-10111D01*
X6467Y-10156D01*
X6465Y-10162D01*
X6441Y-10173D01*
X6315Y-10298D01*
X6304Y-10323D01*
X6298Y-10325D01*
X6272Y-10400D01*
X6247Y-10462D01*
X6247Y-10476D01*
X6241Y-10494D01*
X6247Y-10582D01*
X6247Y-10639D01*
X6251Y-10650D01*
X6253Y-10671D01*
X6298Y-10777D01*
X6304Y-10778D01*
X6315Y-10803D01*
X6440Y-10929D01*
X6465Y-10939D01*
X6467Y-10946D01*
X6542Y-10971D01*
X6604Y-10997D01*
X6618Y-10997D01*
X6636Y-11003D01*
X6724Y-10997D01*
X6781Y-10997D01*
X6792Y-10992D01*
X6813Y-10991D01*
X6919Y-10946D01*
X6920Y-10939D01*
X6945Y-10929D01*
X7071Y-10804D01*
X7081Y-10778D01*
X7088Y-10777D01*
X7113Y-10701D01*
X7139Y-10640D01*
X7139Y-10625D01*
X7145Y-10608D01*
X7145Y-12340D01*
X7139Y-12251D01*
X7139Y-12195D01*
X7134Y-12183D01*
X7133Y-12163D01*
X7088Y-12057D01*
X7081Y-12055D01*
X7071Y-12031D01*
X6946Y-11905D01*
X6920Y-11894D01*
X6919Y-11888D01*
X6843Y-11862D01*
X6782Y-11837D01*
X6767Y-11837D01*
X6750Y-11831D01*
X6661Y-11837D01*
X6605Y-11837D01*
X6593Y-11841D01*
X6573Y-11843D01*
X6467Y-11888D01*
X6465Y-11894D01*
X6441Y-11905D01*
X6315Y-12030D01*
X6304Y-12055D01*
X6298Y-12057D01*
X6272Y-12132D01*
X6247Y-12194D01*
X6247Y-12208D01*
X6241Y-12226D01*
X6247Y-12314D01*
X6247Y-12371D01*
X6251Y-12382D01*
X6253Y-12403D01*
X6298Y-12509D01*
X6304Y-12510D01*
X6315Y-12535D01*
X6440Y-12661D01*
X6465Y-12671D01*
X6467Y-12678D01*
X6542Y-12703D01*
X6604Y-12729D01*
X6618Y-12729D01*
X6636Y-12735D01*
X6724Y-12729D01*
X6781Y-12729D01*
X6792Y-12724D01*
X6813Y-12723D01*
X6919Y-12678D01*
X6920Y-12671D01*
X6945Y-12661D01*
X7071Y-12536D01*
X7081Y-12510D01*
X7088Y-12509D01*
X7113Y-12433D01*
X7139Y-12372D01*
X7139Y-12357D01*
X7145Y-12340D01*
X7145Y-13533D01*
X5024Y-13533D01*
X5024Y-7211D01*
X5242Y-6993D01*
X7556Y-6993D01*
X7455Y-7035D01*
X7307Y-7182D01*
X7227Y-7375D01*
X7227Y-7584D01*
X7307Y-7777D01*
X7454Y-7925D01*
X7647Y-8005D01*
X7856Y-8005D01*
X8049Y-7925D01*
X8194Y-7780D01*
X9296Y-7780D01*
X10092Y-8576D01*
X9842Y-8827D01*
X9758Y-8827D01*
X9619Y-8883D01*
X9677Y-8746D01*
X9677Y-8577D01*
X9613Y-8421D01*
X9493Y-8301D01*
X9337Y-8236D01*
X9168Y-8236D01*
X9068Y-8277D01*
X8345Y-8277D01*
X8334Y-8266D01*
X8243Y-8228D01*
X8144Y-8228D01*
X7644Y-8228D01*
X7552Y-8266D01*
X7541Y-8277D01*
X7093Y-8277D01*
X7126Y-8199D01*
X7126Y-8100D01*
X7126Y-7550D01*
X7088Y-7458D01*
X7018Y-7388D01*
X6927Y-7350D01*
X6828Y-7350D01*
X6278Y-7350D01*
X6186Y-7388D01*
X6116Y-7458D01*
X6078Y-7549D01*
X6078Y-7648D01*
X6078Y-7651D01*
X6047Y-7577D01*
X5900Y-7429D01*
X5707Y-7349D01*
X5498Y-7349D01*
X5305Y-7429D01*
X5157Y-7576D01*
X5077Y-7769D01*
X5077Y-7978D01*
X5157Y-8171D01*
X5304Y-8319D01*
X5372Y-8347D01*
X5390Y-8373D01*
X5806Y-8789D01*
X5903Y-8854D01*
X6018Y-8877D01*
X7464Y-8877D01*
X7444Y-8927D01*
X7444Y-9026D01*
X7444Y-9226D01*
X7482Y-9318D01*
X7491Y-9327D01*
X7482Y-9336D01*
X7444Y-9427D01*
X7444Y-9526D01*
X7444Y-9726D01*
X7482Y-9818D01*
X7491Y-9827D01*
X7482Y-9836D01*
X7444Y-9927D01*
X7444Y-10026D01*
X7444Y-10226D01*
X7482Y-10318D01*
X7491Y-10327D01*
X7482Y-10336D01*
X7444Y-10427D01*
X7444Y-10428D01*
X7443Y-10465D01*
X7444Y-10466D01*
X7444Y-10526D01*
X7444Y-10688D01*
X7443Y-10689D01*
X7444Y-10726D01*
X7482Y-10818D01*
X7491Y-10827D01*
X7482Y-10836D01*
X7444Y-10927D01*
X7444Y-10928D01*
X7443Y-10965D01*
X7444Y-10966D01*
X7444Y-11026D01*
X7444Y-11188D01*
X7443Y-11189D01*
X7444Y-11226D01*
X7482Y-11318D01*
X7491Y-11327D01*
X7482Y-11336D01*
X7444Y-11427D01*
X7444Y-11428D01*
X7443Y-11465D01*
X7444Y-11466D01*
X7444Y-11526D01*
X7444Y-11688D01*
X7443Y-11689D01*
X7444Y-11726D01*
X7482Y-11818D01*
X7491Y-11827D01*
X7482Y-11836D01*
X7444Y-11927D01*
X7444Y-11928D01*
X7443Y-11965D01*
X7444Y-11966D01*
X7444Y-12026D01*
X7444Y-12188D01*
X7443Y-12189D01*
X7444Y-12226D01*
X7482Y-12318D01*
X7491Y-12327D01*
X7482Y-12336D01*
X7444Y-12427D01*
X7444Y-12428D01*
X7443Y-12465D01*
X7444Y-12466D01*
X7444Y-12526D01*
X7444Y-12688D01*
X7443Y-12689D01*
X7444Y-12726D01*
X7482Y-12818D01*
X7491Y-12827D01*
X7482Y-12836D01*
X7444Y-12927D01*
X7444Y-12928D01*
X7443Y-12965D01*
X7444Y-12966D01*
X7444Y-13026D01*
X7444Y-13188D01*
X7443Y-13189D01*
X7444Y-13226D01*
X7482Y-13318D01*
X7552Y-13388D01*
X7643Y-13426D01*
X7742Y-13426D01*
X7831Y-13427D01*
X7832Y-13426D01*
X8054Y-13426D01*
X8055Y-13427D01*
X8144Y-13426D01*
X8242Y-13426D01*
X8243Y-13426D01*
X8334Y-13388D01*
X8404Y-13318D01*
X8442Y-13227D01*
X8442Y-13226D01*
X8443Y-13189D01*
X8442Y-13188D01*
X8442Y-13128D01*
X8442Y-12966D01*
X8443Y-12965D01*
X8442Y-12928D01*
X8404Y-12836D01*
X8395Y-12827D01*
X8404Y-12818D01*
X8442Y-12727D01*
X8442Y-12726D01*
X8443Y-12689D01*
X8442Y-12688D01*
X8442Y-12628D01*
X8442Y-12466D01*
X8443Y-12465D01*
X8442Y-12428D01*
X8404Y-12336D01*
X8395Y-12327D01*
X8404Y-12318D01*
X8442Y-12227D01*
X8442Y-12226D01*
X8443Y-12189D01*
X8442Y-12188D01*
X8442Y-12128D01*
X8442Y-11966D01*
X8443Y-11965D01*
X8442Y-11928D01*
X8404Y-11836D01*
X8395Y-11827D01*
X8404Y-11818D01*
X8442Y-11727D01*
X8442Y-11726D01*
X8443Y-11689D01*
X8442Y-11688D01*
X8442Y-11628D01*
X8442Y-11466D01*
X8443Y-11465D01*
X8442Y-11428D01*
X8404Y-11336D01*
X8395Y-11327D01*
X8404Y-11318D01*
X8442Y-11227D01*
X8442Y-11226D01*
X8443Y-11189D01*
X8442Y-11188D01*
X8442Y-11128D01*
X8442Y-10966D01*
X8443Y-10965D01*
X8442Y-10928D01*
X8404Y-10836D01*
X8395Y-10827D01*
X8404Y-10818D01*
X8442Y-10727D01*
X8442Y-10726D01*
X8443Y-10689D01*
X8442Y-10688D01*
X8442Y-10628D01*
X8442Y-10466D01*
X8443Y-10465D01*
X8442Y-10441D01*
X8558Y-10557D01*
X8558Y-11220D01*
X8581Y-11335D01*
X8646Y-11432D01*
X10330Y-13116D01*
X10330Y-13673D01*
X10333Y-13688D01*
X10235Y-13648D01*
X10026Y-13648D01*
X9833Y-13728D01*
X9685Y-13875D01*
X9605Y-14068D01*
X9605Y-14277D01*
X9685Y-14470D01*
X9830Y-14615D01*
X9830Y-14658D01*
X9853Y-14773D01*
X9918Y-14870D01*
X10810Y-15763D01*
X10811Y-15763D01*
X10908Y-15828D01*
X11022Y-15850D01*
X11023Y-15851D01*
X13886Y-15851D01*
X17519Y-15851D01*
X17634Y-15828D01*
X17731Y-15763D01*
X18125Y-15369D01*
X18190Y-15272D01*
X18213Y-15157D01*
X18213Y-14370D01*
X18190Y-14255D01*
X18125Y-14158D01*
X17625Y-13658D01*
X17528Y-13593D01*
X17498Y-13587D01*
X18208Y-13587D01*
X18323Y-13564D01*
X18420Y-13499D01*
X19110Y-12810D01*
X19110Y-12809D01*
X19121Y-12791D01*
X19122Y-12791D01*
X19165Y-12895D01*
X19312Y-13043D01*
X19505Y-13123D01*
X19714Y-13123D01*
X19907Y-13043D01*
X20055Y-12896D01*
X20135Y-12703D01*
X20135Y-12494D01*
X20055Y-12301D01*
X19908Y-12153D01*
X19794Y-12105D01*
X19907Y-12059D01*
X20055Y-11912D01*
X20135Y-11719D01*
X20135Y-11510D01*
X20055Y-11317D01*
X19908Y-11169D01*
X19794Y-11121D01*
X19907Y-11075D01*
X20055Y-10928D01*
X20135Y-10735D01*
X20135Y-10526D01*
X20055Y-10333D01*
X19908Y-10185D01*
X19794Y-10137D01*
X19907Y-10091D01*
X20055Y-9944D01*
X20135Y-9751D01*
X20135Y-9542D01*
X20055Y-9349D01*
X19908Y-9201D01*
X19792Y-9153D01*
X19907Y-9106D01*
X20055Y-8959D01*
X20135Y-8766D01*
X20135Y-8557D01*
X20055Y-8364D01*
X19908Y-8216D01*
X19715Y-8136D01*
X19506Y-8136D01*
X19313Y-8216D01*
X19198Y-8330D01*
X19198Y-7302D01*
X19226Y-7291D01*
X19389Y-7128D01*
X19478Y-6915D01*
X19478Y-6684D01*
X19390Y-6471D01*
X19227Y-6308D01*
X19206Y-6299D01*
X19226Y-6291D01*
X19389Y-6128D01*
X19478Y-5915D01*
X19478Y-5684D01*
X19390Y-5471D01*
X19227Y-5308D01*
X19014Y-5219D01*
X18783Y-5219D01*
X18570Y-5307D01*
X18407Y-5470D01*
X18318Y-5683D01*
X18318Y-5914D01*
X18406Y-6127D01*
X18569Y-6290D01*
X18589Y-6298D01*
X18570Y-6307D01*
X18407Y-6470D01*
X18318Y-6683D01*
X18318Y-6914D01*
X18406Y-7127D01*
X18569Y-7290D01*
X18598Y-7302D01*
X18598Y-7704D01*
X18569Y-7634D01*
X18449Y-7514D01*
X18293Y-7449D01*
X18207Y-7449D01*
X18124Y-7366D01*
X18027Y-7301D01*
X17912Y-7278D01*
X16089Y-7278D01*
X16239Y-7128D01*
X16328Y-6915D01*
X16328Y-6684D01*
X16240Y-6471D01*
X16077Y-6308D01*
X16056Y-6299D01*
X16076Y-6291D01*
X16239Y-6128D01*
X16328Y-5915D01*
X16328Y-5684D01*
X16240Y-5471D01*
X16077Y-5308D01*
X15864Y-5219D01*
X15633Y-5219D01*
X15420Y-5307D01*
X15257Y-5470D01*
X15168Y-5683D01*
X15168Y-5914D01*
X15256Y-6127D01*
X15419Y-6290D01*
X15439Y-6298D01*
X15420Y-6307D01*
X15257Y-6470D01*
X15168Y-6683D01*
X15168Y-6914D01*
X15256Y-7127D01*
X15407Y-7278D01*
X12939Y-7278D01*
X13089Y-7128D01*
X13178Y-6915D01*
X13178Y-6684D01*
X13090Y-6471D01*
X12927Y-6308D01*
X12906Y-6299D01*
X12926Y-6291D01*
X13089Y-6128D01*
X13178Y-5915D01*
X13178Y-5684D01*
X13090Y-5471D01*
X12927Y-5308D01*
X12714Y-5219D01*
X12483Y-5219D01*
X12270Y-5307D01*
X12107Y-5470D01*
X12018Y-5683D01*
X12018Y-5914D01*
X12106Y-6127D01*
X12269Y-6290D01*
X12289Y-6298D01*
X12270Y-6307D01*
X12107Y-6470D01*
X12018Y-6683D01*
X12018Y-6914D01*
X12106Y-7127D01*
X12257Y-7278D01*
X12106Y-7278D01*
X11991Y-7301D01*
X11894Y-7366D01*
X11531Y-7729D01*
X11466Y-7826D01*
X11443Y-7941D01*
X11443Y-8228D01*
X11352Y-8266D01*
X11341Y-8277D01*
X11277Y-8277D01*
X11277Y-7585D01*
X11277Y-7376D01*
X11197Y-7183D01*
X11050Y-7035D01*
X10857Y-6955D01*
X10648Y-6955D01*
X10455Y-7035D01*
X10307Y-7182D01*
X10227Y-7375D01*
X10227Y-7584D01*
X10307Y-7777D01*
X10454Y-7925D01*
X10647Y-8005D01*
X10856Y-8005D01*
X11049Y-7925D01*
X11197Y-7778D01*
X11277Y-7585D01*
X11277Y-8277D01*
X10641Y-8277D01*
X9632Y-7268D01*
X9535Y-7203D01*
X9420Y-7180D01*
X8194Y-7180D01*
X8050Y-7035D01*
X7948Y-6993D01*
X8268Y-6993D01*
X8383Y-6970D01*
X8480Y-6905D01*
X8873Y-6513D01*
X8873Y-6512D01*
X8925Y-6434D01*
X8950Y-6494D01*
X8953Y-6500D01*
X9248Y-6796D01*
X9254Y-6798D01*
X9255Y-6799D01*
X9265Y-6803D01*
X9633Y-6956D01*
X9641Y-6956D01*
X10051Y-6956D01*
X10058Y-6953D01*
X10059Y-6953D01*
X10431Y-6799D01*
X10431Y-6798D01*
X10437Y-6796D01*
X10733Y-6501D01*
X10735Y-6494D01*
X10736Y-6494D01*
X10740Y-6483D01*
X10893Y-6116D01*
X10893Y-6108D01*
X10893Y-5698D01*
X10890Y-5690D01*
X10736Y-5318D01*
X10735Y-5317D01*
X10733Y-5312D01*
X10445Y-5024D01*
X20172Y-5024D01*
X20172Y-13139D01*
X20172Y-13139D01*
G37*
G54D11*
X20172Y-13139D02*
X19270Y-13139D01*
X18257Y-14152D01*
X18257Y-16087D01*
X18254Y-16086D01*
X18155Y-16086D01*
X17605Y-16086D01*
X17513Y-16124D01*
X17443Y-16194D01*
X17405Y-16285D01*
X17405Y-16384D01*
X17405Y-16387D01*
X17374Y-16313D01*
X17227Y-16165D01*
X17034Y-16085D01*
X16825Y-16085D01*
X16632Y-16165D01*
X16484Y-16312D01*
X16431Y-16439D01*
X16389Y-16338D01*
X16383Y-16336D01*
X16374Y-16313D01*
X16227Y-16165D01*
X16202Y-16154D01*
X16201Y-16150D01*
X16127Y-16123D01*
X16034Y-16085D01*
X16019Y-16085D01*
X16005Y-16080D01*
X15918Y-16085D01*
X15825Y-16085D01*
X15809Y-16091D01*
X15797Y-16092D01*
X15657Y-16150D01*
X15655Y-16155D01*
X15632Y-16165D01*
X15484Y-16312D01*
X15473Y-16336D01*
X15469Y-16338D01*
X15442Y-16411D01*
X15404Y-16505D01*
X15404Y-16520D01*
X15399Y-16534D01*
X15404Y-16620D01*
X15404Y-16714D01*
X15410Y-16729D01*
X15411Y-16742D01*
X15469Y-16882D01*
X15474Y-16883D01*
X15484Y-16907D01*
X15631Y-17055D01*
X15655Y-17065D01*
X15657Y-17070D01*
X15673Y-17076D01*
X14428Y-17076D01*
X14478Y-17026D01*
X14516Y-16935D01*
X14516Y-16836D01*
X14516Y-16286D01*
X14478Y-16194D01*
X14408Y-16124D01*
X14317Y-16086D01*
X14218Y-16086D01*
X13668Y-16086D01*
X13576Y-16124D01*
X13506Y-16194D01*
X13468Y-16285D01*
X13468Y-16384D01*
X13468Y-16387D01*
X13437Y-16313D01*
X13290Y-16165D01*
X13097Y-16085D01*
X12888Y-16085D01*
X12695Y-16165D01*
X12547Y-16312D01*
X12494Y-16439D01*
X12452Y-16338D01*
X12446Y-16336D01*
X12437Y-16313D01*
X12290Y-16165D01*
X12265Y-16154D01*
X12264Y-16150D01*
X12190Y-16123D01*
X12097Y-16085D01*
X12082Y-16085D01*
X12068Y-16080D01*
X11981Y-16085D01*
X11888Y-16085D01*
X11872Y-16091D01*
X11860Y-16092D01*
X11720Y-16150D01*
X11718Y-16155D01*
X11695Y-16165D01*
X11547Y-16312D01*
X11536Y-16336D01*
X11532Y-16338D01*
X11505Y-16411D01*
X11467Y-16505D01*
X11467Y-16520D01*
X11462Y-16534D01*
X11467Y-16620D01*
X11467Y-16714D01*
X11473Y-16729D01*
X11474Y-16742D01*
X11532Y-16882D01*
X11537Y-16883D01*
X11547Y-16907D01*
X11694Y-17055D01*
X11718Y-17065D01*
X11720Y-17070D01*
X11736Y-17076D01*
X11270Y-17076D01*
X11270Y-16514D01*
X8289Y-13533D01*
X7145Y-13533D01*
X7145Y-12340D01*
X7145Y-10608D01*
X7139Y-10519D01*
X7139Y-10463D01*
X7134Y-10451D01*
X7133Y-10431D01*
X7088Y-10325D01*
X7081Y-10323D01*
X7071Y-10299D01*
X6946Y-10173D01*
X6920Y-10162D01*
X6919Y-10156D01*
X6843Y-10130D01*
X6782Y-10105D01*
X6767Y-10105D01*
X6750Y-10099D01*
X6661Y-10105D01*
X6605Y-10105D01*
X6593Y-10109D01*
X6573Y-10111D01*
X6467Y-10156D01*
X6465Y-10162D01*
X6441Y-10173D01*
X6315Y-10298D01*
X6304Y-10323D01*
X6298Y-10325D01*
X6272Y-10400D01*
X6247Y-10462D01*
X6247Y-10476D01*
X6241Y-10494D01*
X6247Y-10582D01*
X6247Y-10639D01*
X6251Y-10650D01*
X6253Y-10671D01*
X6298Y-10777D01*
X6304Y-10778D01*
X6315Y-10803D01*
X6440Y-10929D01*
X6465Y-10939D01*
X6467Y-10946D01*
X6542Y-10971D01*
X6604Y-10997D01*
X6618Y-10997D01*
X6636Y-11003D01*
X6724Y-10997D01*
X6781Y-10997D01*
X6792Y-10992D01*
X6813Y-10991D01*
X6919Y-10946D01*
X6920Y-10939D01*
X6945Y-10929D01*
X7071Y-10804D01*
X7081Y-10778D01*
X7088Y-10777D01*
X7113Y-10701D01*
X7139Y-10640D01*
X7139Y-10625D01*
X7145Y-10608D01*
X7145Y-12340D01*
X7139Y-12251D01*
X7139Y-12195D01*
X7134Y-12183D01*
X7133Y-12163D01*
X7088Y-12057D01*
X7081Y-12055D01*
X7071Y-12031D01*
X6946Y-11905D01*
X6920Y-11894D01*
X6919Y-11888D01*
X6843Y-11862D01*
X6782Y-11837D01*
X6767Y-11837D01*
X6750Y-11831D01*
X6661Y-11837D01*
X6605Y-11837D01*
X6593Y-11841D01*
X6573Y-11843D01*
X6467Y-11888D01*
X6465Y-11894D01*
X6441Y-11905D01*
X6315Y-12030D01*
X6304Y-12055D01*
X6298Y-12057D01*
X6272Y-12132D01*
X6247Y-12194D01*
X6247Y-12208D01*
X6241Y-12226D01*
X6247Y-12314D01*
X6247Y-12371D01*
X6251Y-12382D01*
X6253Y-12403D01*
X6298Y-12509D01*
X6304Y-12510D01*
X6315Y-12535D01*
X6440Y-12661D01*
X6465Y-12671D01*
X6467Y-12678D01*
X6542Y-12703D01*
X6604Y-12729D01*
X6618Y-12729D01*
X6636Y-12735D01*
X6724Y-12729D01*
X6781Y-12729D01*
X6792Y-12724D01*
X6813Y-12723D01*
X6919Y-12678D01*
X6920Y-12671D01*
X6945Y-12661D01*
X7071Y-12536D01*
X7081Y-12510D01*
X7088Y-12509D01*
X7113Y-12433D01*
X7139Y-12372D01*
X7139Y-12357D01*
X7145Y-12340D01*
X7145Y-13533D01*
X5024Y-13533D01*
X5024Y-7211D01*
X5242Y-6993D01*
X7556Y-6993D01*
X7455Y-7035D01*
X7307Y-7182D01*
X7227Y-7375D01*
X7227Y-7584D01*
X7307Y-7777D01*
X7454Y-7925D01*
X7647Y-8005D01*
X7856Y-8005D01*
X8049Y-7925D01*
X8194Y-7780D01*
X9296Y-7780D01*
X10092Y-8576D01*
X9842Y-8827D01*
X9758Y-8827D01*
X9619Y-8883D01*
X9677Y-8746D01*
X9677Y-8577D01*
X9613Y-8421D01*
X9493Y-8301D01*
X9337Y-8236D01*
X9168Y-8236D01*
X9068Y-8277D01*
X8345Y-8277D01*
X8334Y-8266D01*
X8243Y-8228D01*
X8144Y-8228D01*
X7644Y-8228D01*
X7552Y-8266D01*
X7541Y-8277D01*
X7093Y-8277D01*
X7126Y-8199D01*
X7126Y-8100D01*
X7126Y-7550D01*
X7088Y-7458D01*
X7018Y-7388D01*
X6927Y-7350D01*
X6828Y-7350D01*
X6278Y-7350D01*
X6186Y-7388D01*
X6116Y-7458D01*
X6078Y-7549D01*
X6078Y-7648D01*
X6078Y-7651D01*
X6047Y-7577D01*
X5900Y-7429D01*
X5707Y-7349D01*
X5498Y-7349D01*
X5305Y-7429D01*
X5157Y-7576D01*
X5077Y-7769D01*
X5077Y-7978D01*
X5157Y-8171D01*
X5304Y-8319D01*
X5372Y-8347D01*
X5390Y-8373D01*
X5806Y-8789D01*
X5903Y-8854D01*
X6018Y-8877D01*
X7464Y-8877D01*
X7444Y-8927D01*
X7444Y-9026D01*
X7444Y-9226D01*
X7482Y-9318D01*
X7491Y-9327D01*
X7482Y-9336D01*
X7444Y-9427D01*
X7444Y-9526D01*
X7444Y-9726D01*
X7482Y-9818D01*
X7491Y-9827D01*
X7482Y-9836D01*
X7444Y-9927D01*
X7444Y-10026D01*
X7444Y-10226D01*
X7482Y-10318D01*
X7491Y-10327D01*
X7482Y-10336D01*
X7444Y-10427D01*
X7444Y-10428D01*
X7443Y-10465D01*
X7444Y-10466D01*
X7444Y-10526D01*
X7444Y-10688D01*
X7443Y-10689D01*
X7444Y-10726D01*
X7482Y-10818D01*
X7491Y-10827D01*
X7482Y-10836D01*
X7444Y-10927D01*
X7444Y-10928D01*
X7443Y-10965D01*
X7444Y-10966D01*
X7444Y-11026D01*
X7444Y-11188D01*
X7443Y-11189D01*
X7444Y-11226D01*
X7482Y-11318D01*
X7491Y-11327D01*
X7482Y-11336D01*
X7444Y-11427D01*
X7444Y-11428D01*
X7443Y-11465D01*
X7444Y-11466D01*
X7444Y-11526D01*
X7444Y-11688D01*
X7443Y-11689D01*
X7444Y-11726D01*
X7482Y-11818D01*
X7491Y-11827D01*
X7482Y-11836D01*
X7444Y-11927D01*
X7444Y-11928D01*
X7443Y-11965D01*
X7444Y-11966D01*
X7444Y-12026D01*
X7444Y-12188D01*
X7443Y-12189D01*
X7444Y-12226D01*
X7482Y-12318D01*
X7491Y-12327D01*
X7482Y-12336D01*
X7444Y-12427D01*
X7444Y-12428D01*
X7443Y-12465D01*
X7444Y-12466D01*
X7444Y-12526D01*
X7444Y-12688D01*
X7443Y-12689D01*
X7444Y-12726D01*
X7482Y-12818D01*
X7491Y-12827D01*
X7482Y-12836D01*
X7444Y-12927D01*
X7444Y-12928D01*
X7443Y-12965D01*
X7444Y-12966D01*
X7444Y-13026D01*
X7444Y-13188D01*
X7443Y-13189D01*
X7444Y-13226D01*
X7482Y-13318D01*
X7552Y-13388D01*
X7643Y-13426D01*
X7742Y-13426D01*
X7831Y-13427D01*
X7832Y-13426D01*
X8054Y-13426D01*
X8055Y-13427D01*
X8144Y-13426D01*
X8242Y-13426D01*
X8243Y-13426D01*
X8334Y-13388D01*
X8404Y-13318D01*
X8442Y-13227D01*
X8442Y-13226D01*
X8443Y-13189D01*
X8442Y-13188D01*
X8442Y-13128D01*
X8442Y-12966D01*
X8443Y-12965D01*
X8442Y-12928D01*
X8404Y-12836D01*
X8395Y-12827D01*
X8404Y-12818D01*
X8442Y-12727D01*
X8442Y-12726D01*
X8443Y-12689D01*
X8442Y-12688D01*
X8442Y-12628D01*
X8442Y-12466D01*
X8443Y-12465D01*
X8442Y-12428D01*
X8404Y-12336D01*
X8395Y-12327D01*
X8404Y-12318D01*
X8442Y-12227D01*
X8442Y-12226D01*
X8443Y-12189D01*
X8442Y-12188D01*
X8442Y-12128D01*
X8442Y-11966D01*
X8443Y-11965D01*
X8442Y-11928D01*
X8404Y-11836D01*
X8395Y-11827D01*
X8404Y-11818D01*
X8442Y-11727D01*
X8442Y-11726D01*
X8443Y-11689D01*
X8442Y-11688D01*
X8442Y-11628D01*
X8442Y-11466D01*
X8443Y-11465D01*
X8442Y-11428D01*
X8404Y-11336D01*
X8395Y-11327D01*
X8404Y-11318D01*
X8442Y-11227D01*
X8442Y-11226D01*
X8443Y-11189D01*
X8442Y-11188D01*
X8442Y-11128D01*
X8442Y-10966D01*
X8443Y-10965D01*
X8442Y-10928D01*
X8404Y-10836D01*
X8395Y-10827D01*
X8404Y-10818D01*
X8442Y-10727D01*
X8442Y-10726D01*
X8443Y-10689D01*
X8442Y-10688D01*
X8442Y-10628D01*
X8442Y-10466D01*
X8443Y-10465D01*
X8442Y-10441D01*
X8558Y-10557D01*
X8558Y-11220D01*
X8581Y-11335D01*
X8646Y-11432D01*
X10330Y-13116D01*
X10330Y-13673D01*
X10333Y-13688D01*
X10235Y-13648D01*
X10026Y-13648D01*
X9833Y-13728D01*
X9685Y-13875D01*
X9605Y-14068D01*
X9605Y-14277D01*
X9685Y-14470D01*
X9830Y-14615D01*
X9830Y-14658D01*
X9853Y-14773D01*
X9918Y-14870D01*
X10810Y-15763D01*
X10811Y-15763D01*
X10908Y-15828D01*
X11022Y-15850D01*
X11023Y-15851D01*
X13886Y-15851D01*
X17519Y-15851D01*
X17634Y-15828D01*
X17731Y-15763D01*
X18125Y-15369D01*
X18190Y-15272D01*
X18213Y-15157D01*
X18213Y-14370D01*
X18190Y-14255D01*
X18125Y-14158D01*
X17625Y-13658D01*
X17528Y-13593D01*
X17498Y-13587D01*
X18208Y-13587D01*
X18323Y-13564D01*
X18420Y-13499D01*
X19110Y-12810D01*
X19110Y-12809D01*
X19121Y-12791D01*
X19122Y-12791D01*
X19165Y-12895D01*
X19312Y-13043D01*
X19505Y-13123D01*
X19714Y-13123D01*
X19907Y-13043D01*
X20055Y-12896D01*
X20135Y-12703D01*
X20135Y-12494D01*
X20055Y-12301D01*
X19908Y-12153D01*
X19794Y-12105D01*
X19907Y-12059D01*
X20055Y-11912D01*
X20135Y-11719D01*
X20135Y-11510D01*
X20055Y-11317D01*
X19908Y-11169D01*
X19794Y-11121D01*
X19907Y-11075D01*
X20055Y-10928D01*
X20135Y-10735D01*
X20135Y-10526D01*
X20055Y-10333D01*
X19908Y-10185D01*
X19794Y-10137D01*
X19907Y-10091D01*
X20055Y-9944D01*
X20135Y-9751D01*
X20135Y-9542D01*
X20055Y-9349D01*
X19908Y-9201D01*
X19792Y-9153D01*
X19907Y-9106D01*
X20055Y-8959D01*
X20135Y-8766D01*
X20135Y-8557D01*
X20055Y-8364D01*
X19908Y-8216D01*
X19715Y-8136D01*
X19506Y-8136D01*
X19313Y-8216D01*
X19198Y-8330D01*
X19198Y-7302D01*
X19226Y-7291D01*
X19389Y-7128D01*
X19478Y-6915D01*
X19478Y-6684D01*
X19390Y-6471D01*
X19227Y-6308D01*
X19206Y-6299D01*
X19226Y-6291D01*
X19389Y-6128D01*
X19478Y-5915D01*
X19478Y-5684D01*
X19390Y-5471D01*
X19227Y-5308D01*
X19014Y-5219D01*
X18783Y-5219D01*
X18570Y-5307D01*
X18407Y-5470D01*
X18318Y-5683D01*
X18318Y-5914D01*
X18406Y-6127D01*
X18569Y-6290D01*
X18589Y-6298D01*
X18570Y-6307D01*
X18407Y-6470D01*
X18318Y-6683D01*
X18318Y-6914D01*
X18406Y-7127D01*
X18569Y-7290D01*
X18598Y-7302D01*
X18598Y-7704D01*
X18569Y-7634D01*
X18449Y-7514D01*
X18293Y-7449D01*
X18207Y-7449D01*
X18124Y-7366D01*
X18027Y-7301D01*
X17912Y-7278D01*
X16089Y-7278D01*
X16239Y-7128D01*
X16328Y-6915D01*
X16328Y-6684D01*
X16240Y-6471D01*
X16077Y-6308D01*
X16056Y-6299D01*
X16076Y-6291D01*
X16239Y-6128D01*
X16328Y-5915D01*
X16328Y-5684D01*
X16240Y-5471D01*
X16077Y-5308D01*
X15864Y-5219D01*
X15633Y-5219D01*
X15420Y-5307D01*
X15257Y-5470D01*
X15168Y-5683D01*
X15168Y-5914D01*
X15256Y-6127D01*
X15419Y-6290D01*
X15439Y-6298D01*
X15420Y-6307D01*
X15257Y-6470D01*
X15168Y-6683D01*
X15168Y-6914D01*
X15256Y-7127D01*
X15407Y-7278D01*
X12939Y-7278D01*
X13089Y-7128D01*
X13178Y-6915D01*
X13178Y-6684D01*
X13090Y-6471D01*
X12927Y-6308D01*
X12906Y-6299D01*
X12926Y-6291D01*
X13089Y-6128D01*
X13178Y-5915D01*
X13178Y-5684D01*
X13090Y-5471D01*
X12927Y-5308D01*
X12714Y-5219D01*
X12483Y-5219D01*
X12270Y-5307D01*
X12107Y-5470D01*
X12018Y-5683D01*
X12018Y-5914D01*
X12106Y-6127D01*
X12269Y-6290D01*
X12289Y-6298D01*
X12270Y-6307D01*
X12107Y-6470D01*
X12018Y-6683D01*
X12018Y-6914D01*
X12106Y-7127D01*
X12257Y-7278D01*
X12106Y-7278D01*
X11991Y-7301D01*
X11894Y-7366D01*
X11531Y-7729D01*
X11466Y-7826D01*
X11443Y-7941D01*
X11443Y-8228D01*
X11352Y-8266D01*
X11341Y-8277D01*
X11277Y-8277D01*
X11277Y-7585D01*
X11277Y-7376D01*
X11197Y-7183D01*
X11050Y-7035D01*
X10857Y-6955D01*
X10648Y-6955D01*
X10455Y-7035D01*
X10307Y-7182D01*
X10227Y-7375D01*
X10227Y-7584D01*
X10307Y-7777D01*
X10454Y-7925D01*
X10647Y-8005D01*
X10856Y-8005D01*
X11049Y-7925D01*
X11197Y-7778D01*
X11277Y-7585D01*
X11277Y-8277D01*
X10641Y-8277D01*
X9632Y-7268D01*
X9535Y-7203D01*
X9420Y-7180D01*
X8194Y-7180D01*
X8050Y-7035D01*
X7948Y-6993D01*
X8268Y-6993D01*
X8383Y-6970D01*
X8480Y-6905D01*
X8873Y-6513D01*
X8873Y-6512D01*
X8925Y-6434D01*
X8950Y-6494D01*
X8953Y-6500D01*
X9248Y-6796D01*
X9254Y-6798D01*
X9255Y-6799D01*
X9265Y-6803D01*
X9633Y-6956D01*
X9641Y-6956D01*
X10051Y-6956D01*
X10058Y-6953D01*
X10059Y-6953D01*
X10431Y-6799D01*
X10431Y-6798D01*
X10437Y-6796D01*
X10733Y-6501D01*
X10735Y-6494D01*
X10736Y-6494D01*
X10740Y-6483D01*
X10893Y-6116D01*
X10893Y-6108D01*
X10893Y-5698D01*
X10890Y-5690D01*
X10736Y-5318D01*
X10735Y-5317D01*
X10733Y-5312D01*
X10445Y-5024D01*
X20172Y-5024D01*
X20172Y-13139D01*
M02*
