G04 (created by PCBNEW-RS274X (2011-nov-30)-testing) date Sun 23 Sep 2012 15:57:18 CEST*
%MOIN*%
G04 Gerber Fmt 3.4, Leading zero omitted, Abs format*
%FSLAX34Y34*%
G01*
G70*
G90*
G04 APERTURE LIST*
%ADD10C,0.006*%
%ADD11C,0.01*%
%ADD12C,0.0694*%
%ADD13R,0.08X0.05*%
%ADD14R,0.085X0.085*%
%ADD15C,0.085*%
%ADD16C,0.19*%
G04 APERTURE END LIST*
G54D10*
G54D11*
X5974Y-4724D02*
X5950Y-4966D01*
X5879Y-5200D01*
X5765Y-5415D01*
X5610Y-5604D01*
X5422Y-5760D01*
X5208Y-5876D01*
X4975Y-5948D01*
X4732Y-5973D01*
X4490Y-5951D01*
X4256Y-5882D01*
X4040Y-5769D01*
X3850Y-5617D01*
X3693Y-5430D01*
X3576Y-5216D01*
X3502Y-4983D01*
X3475Y-4741D01*
X3495Y-4499D01*
X3562Y-4264D01*
X3674Y-4047D01*
X3825Y-3856D01*
X4011Y-3698D01*
X4224Y-3579D01*
X4456Y-3504D01*
X4698Y-3475D01*
X4941Y-3493D01*
X5176Y-3559D01*
X5393Y-3669D01*
X5586Y-3819D01*
X5745Y-4004D01*
X5865Y-4216D01*
X5942Y-4448D01*
X5973Y-4690D01*
X5974Y-4724D01*
X2224Y-4724D02*
X7224Y-4724D01*
X4724Y-2224D02*
X4724Y-7224D01*
X5974Y-4724D02*
X5950Y-4966D01*
X5879Y-5200D01*
X5765Y-5415D01*
X5610Y-5604D01*
X5422Y-5760D01*
X5208Y-5876D01*
X4975Y-5948D01*
X4732Y-5973D01*
X4490Y-5951D01*
X4256Y-5882D01*
X4040Y-5769D01*
X3850Y-5617D01*
X3693Y-5430D01*
X3576Y-5216D01*
X3502Y-4983D01*
X3475Y-4741D01*
X3495Y-4499D01*
X3562Y-4264D01*
X3674Y-4047D01*
X3825Y-3856D01*
X4011Y-3698D01*
X4224Y-3579D01*
X4456Y-3504D01*
X4698Y-3475D01*
X4941Y-3493D01*
X5176Y-3559D01*
X5393Y-3669D01*
X5586Y-3819D01*
X5745Y-4004D01*
X5865Y-4216D01*
X5942Y-4448D01*
X5973Y-4690D01*
X5974Y-4724D01*
X2224Y-4724D02*
X7224Y-4724D01*
X4724Y-2224D02*
X4724Y-7224D01*
X4724Y-18111D02*
X4724Y-7087D01*
X5118Y-18505D02*
X4724Y-18111D01*
X8268Y-18505D02*
X5118Y-18505D01*
X8661Y-18898D02*
X8268Y-18505D01*
X8661Y-20472D02*
X8661Y-18898D01*
X20472Y-20472D02*
X8661Y-20472D01*
X20472Y-4724D02*
X20472Y-20472D01*
X8661Y-4724D02*
X20472Y-4724D01*
X8661Y-6300D02*
X8661Y-4724D01*
X8268Y-6693D02*
X8661Y-6300D01*
X5118Y-6693D02*
X8268Y-6693D01*
X4724Y-7087D02*
X5118Y-6693D01*
G54D12*
X6693Y-10551D03*
X6693Y-12283D03*
G54D13*
X7943Y-13077D03*
X7943Y-12577D03*
X7943Y-12077D03*
X7943Y-11577D03*
X7943Y-11077D03*
X7943Y-10577D03*
X7943Y-10077D03*
X7943Y-9577D03*
X7943Y-9077D03*
X7943Y-8577D03*
X11743Y-8577D03*
X11743Y-9077D03*
X11743Y-9577D03*
X11743Y-10077D03*
X11743Y-10577D03*
X11743Y-11077D03*
X11743Y-11577D03*
X11743Y-12077D03*
X11743Y-12577D03*
X11743Y-13077D03*
G54D14*
X7874Y-14551D03*
G54D15*
X7874Y-15551D03*
X7874Y-16551D03*
G54D14*
X13189Y-8252D03*
G54D15*
X13189Y-9252D03*
X13189Y-10252D03*
G54D14*
X19685Y-15067D03*
G54D15*
X19685Y-14067D03*
G54D14*
X19685Y-17429D03*
G54D15*
X19685Y-16429D03*
G54D14*
X19685Y-19791D03*
G54D15*
X19685Y-18791D03*
X16610Y-8661D03*
X19610Y-8661D03*
X19610Y-12598D03*
X16610Y-12598D03*
X19610Y-11614D03*
X16610Y-11614D03*
X19610Y-10630D03*
X16610Y-10630D03*
X10752Y-7480D03*
X7752Y-7480D03*
X16610Y-9646D03*
X19610Y-9646D03*
X14370Y-13902D03*
X14370Y-10902D03*
X15551Y-13902D03*
X15551Y-10902D03*
G54D14*
X6602Y-7874D03*
G54D15*
X5602Y-7874D03*
X10130Y-14173D03*
X11130Y-14173D03*
G54D14*
X12886Y-13870D03*
G54D15*
X12886Y-14870D03*
X13886Y-14870D03*
G54D14*
X16035Y-14870D03*
G54D15*
X17035Y-14870D03*
X17035Y-13870D03*
G54D16*
X9843Y-19291D03*
X9843Y-5906D03*
X5906Y-15551D03*
G54D14*
X5890Y-17717D03*
G54D15*
X6890Y-17717D03*
X7890Y-17717D03*
G54D14*
X13992Y-16610D03*
G54D15*
X12992Y-16610D03*
X11992Y-16610D03*
X11992Y-19610D03*
X12992Y-19610D03*
X13992Y-19610D03*
G54D14*
X17929Y-16610D03*
G54D15*
X16929Y-16610D03*
X15929Y-16610D03*
X15929Y-19610D03*
X16929Y-19610D03*
X17929Y-19610D03*
M02*
