G04 (created by PCBNEW-RS274X (2011-nov-30)-testing) date Sun 23 Sep 2012 15:57:18 CEST*
%MOIN*%
G04 Gerber Fmt 3.4, Leading zero omitted, Abs format*
%FSLAX34Y34*%
G01*
G70*
G90*
G04 APERTURE LIST*
%ADD10C,0.006*%
%ADD11C,0.01*%
%ADD12R,0.122X0.0197*%
%ADD13R,0.1299X0.0787*%
%ADD14R,0.0984X0.0787*%
%ADD15C,0.0394*%
%ADD16R,0.055X0.055*%
%ADD17C,0.055*%
%ADD18C,0.066*%
%ADD19C,0.16*%
%ADD20C,0.035*%
G04 APERTURE END LIST*
G54D10*
G54D11*
X5974Y-4724D02*
X5950Y-4966D01*
X5879Y-5200D01*
X5765Y-5415D01*
X5610Y-5604D01*
X5422Y-5760D01*
X5208Y-5876D01*
X4975Y-5948D01*
X4732Y-5973D01*
X4490Y-5951D01*
X4256Y-5882D01*
X4040Y-5769D01*
X3850Y-5617D01*
X3693Y-5430D01*
X3576Y-5216D01*
X3502Y-4983D01*
X3475Y-4741D01*
X3495Y-4499D01*
X3562Y-4264D01*
X3674Y-4047D01*
X3825Y-3856D01*
X4011Y-3698D01*
X4224Y-3579D01*
X4456Y-3504D01*
X4698Y-3475D01*
X4941Y-3493D01*
X5176Y-3559D01*
X5393Y-3669D01*
X5586Y-3819D01*
X5745Y-4004D01*
X5865Y-4216D01*
X5942Y-4448D01*
X5973Y-4690D01*
X5974Y-4724D01*
X2224Y-4724D02*
X7224Y-4724D01*
X4724Y-2224D02*
X4724Y-7224D01*
X5974Y-4724D02*
X5950Y-4966D01*
X5879Y-5200D01*
X5765Y-5415D01*
X5610Y-5604D01*
X5422Y-5760D01*
X5208Y-5876D01*
X4975Y-5948D01*
X4732Y-5973D01*
X4490Y-5951D01*
X4256Y-5882D01*
X4040Y-5769D01*
X3850Y-5617D01*
X3693Y-5430D01*
X3576Y-5216D01*
X3502Y-4983D01*
X3475Y-4741D01*
X3495Y-4499D01*
X3562Y-4264D01*
X3674Y-4047D01*
X3825Y-3856D01*
X4011Y-3698D01*
X4224Y-3579D01*
X4456Y-3504D01*
X4698Y-3475D01*
X4941Y-3493D01*
X5176Y-3559D01*
X5393Y-3669D01*
X5586Y-3819D01*
X5745Y-4004D01*
X5865Y-4216D01*
X5942Y-4448D01*
X5973Y-4690D01*
X5974Y-4724D01*
X2224Y-4724D02*
X7224Y-4724D01*
X4724Y-2224D02*
X4724Y-7224D01*
X4724Y-18111D02*
X4724Y-7087D01*
X5118Y-18505D02*
X4724Y-18111D01*
X8268Y-18505D02*
X5118Y-18505D01*
X8661Y-18898D02*
X8268Y-18505D01*
X8661Y-20472D02*
X8661Y-18898D01*
X20472Y-20472D02*
X8661Y-20472D01*
X20472Y-4724D02*
X20472Y-20472D01*
X8661Y-4724D02*
X20472Y-4724D01*
X8661Y-6300D02*
X8661Y-4724D01*
X8268Y-6693D02*
X8661Y-6300D01*
X5118Y-6693D02*
X8268Y-6693D01*
X4724Y-7087D02*
X5118Y-6693D01*
G54D12*
X7835Y-11417D03*
X7835Y-11732D03*
X7835Y-12047D03*
X7835Y-11102D03*
X7835Y-10787D03*
G54D13*
X7835Y-9665D03*
X7835Y-13169D03*
G54D14*
X5512Y-9665D03*
X5512Y-13169D03*
G54D15*
X6693Y-10551D03*
X6693Y-12283D03*
G54D16*
X7874Y-14551D03*
G54D17*
X7874Y-15551D03*
X7874Y-16551D03*
G54D16*
X13189Y-8252D03*
G54D17*
X13189Y-9252D03*
X13189Y-10252D03*
G54D16*
X19685Y-15067D03*
G54D17*
X19685Y-14067D03*
G54D16*
X19685Y-17429D03*
G54D17*
X19685Y-16429D03*
G54D16*
X19685Y-19791D03*
G54D17*
X19685Y-18791D03*
X16610Y-8661D03*
X19610Y-8661D03*
X19610Y-12598D03*
X16610Y-12598D03*
X19610Y-11614D03*
X16610Y-11614D03*
X19610Y-10630D03*
X16610Y-10630D03*
X10752Y-7480D03*
X7752Y-7480D03*
X16610Y-9646D03*
X19610Y-9646D03*
X14370Y-13902D03*
X14370Y-10902D03*
X15551Y-13902D03*
X15551Y-10902D03*
G54D18*
X12598Y-5799D03*
X12598Y-6799D03*
X18898Y-5799D03*
X18898Y-6799D03*
X15748Y-5799D03*
X15748Y-6799D03*
G54D16*
X6602Y-7874D03*
G54D17*
X5602Y-7874D03*
X10130Y-14173D03*
X11130Y-14173D03*
G54D16*
X12886Y-13870D03*
G54D17*
X12886Y-14870D03*
X13886Y-14870D03*
G54D16*
X16035Y-14870D03*
G54D17*
X17035Y-14870D03*
X17035Y-13870D03*
G54D19*
X9843Y-19291D03*
X9843Y-5906D03*
X5906Y-15551D03*
G54D16*
X5890Y-17717D03*
G54D17*
X6890Y-17717D03*
X7890Y-17717D03*
G54D16*
X13992Y-16610D03*
G54D17*
X12992Y-16610D03*
X11992Y-16610D03*
X11992Y-19610D03*
X12992Y-19610D03*
X13992Y-19610D03*
G54D16*
X17929Y-16610D03*
G54D17*
X16929Y-16610D03*
X15929Y-16610D03*
X15929Y-19610D03*
X16929Y-19610D03*
X17929Y-19610D03*
G54D20*
X9645Y-11220D03*
X9252Y-10826D03*
X10925Y-10236D03*
X14173Y-12106D03*
X15945Y-18110D03*
X12008Y-18110D03*
X12598Y-11122D03*
X13582Y-13090D03*
X10531Y-11811D03*
X18208Y-7874D03*
X9842Y-9252D03*
X9252Y-8661D03*
X14370Y-12696D03*
G54D11*
X9448Y-11417D02*
X9645Y-11220D01*
X7835Y-11417D02*
X9448Y-11417D01*
X7835Y-11102D02*
X8976Y-11102D01*
X8976Y-11102D02*
X9252Y-10826D01*
X11811Y-11122D02*
X11811Y-11909D01*
X11811Y-11909D02*
X12008Y-12106D01*
X10925Y-10236D02*
X11811Y-11122D01*
X12008Y-12106D02*
X14173Y-12106D01*
X11992Y-19610D02*
X11992Y-18126D01*
X15929Y-18126D02*
X15929Y-19610D01*
X15945Y-18110D02*
X15929Y-18126D01*
X11992Y-18126D02*
X12008Y-18110D01*
X14074Y-8275D02*
X12598Y-6799D01*
X13681Y-10629D02*
X14074Y-10236D01*
X13484Y-11122D02*
X13681Y-10925D01*
X12598Y-11122D02*
X13484Y-11122D01*
X13681Y-10925D02*
X13681Y-10629D01*
X14074Y-10236D02*
X14074Y-8275D01*
X16610Y-9646D02*
X17027Y-9646D01*
X17618Y-7079D02*
X18898Y-5799D01*
X17618Y-9055D02*
X17618Y-7079D01*
X17027Y-9646D02*
X17618Y-9055D01*
X11023Y-12303D02*
X11023Y-12499D01*
X10531Y-11811D02*
X11023Y-12303D01*
X11614Y-13090D02*
X13582Y-13090D01*
X11023Y-12499D02*
X11614Y-13090D01*
X12886Y-14870D02*
X12886Y-14869D01*
X13853Y-13902D02*
X14370Y-13902D01*
X12886Y-14869D02*
X13853Y-13902D01*
X17929Y-13917D02*
X16610Y-12598D01*
X17929Y-16610D02*
X17929Y-13917D01*
X12992Y-16142D02*
X12204Y-15354D01*
X12992Y-16610D02*
X12992Y-16142D01*
X12204Y-14552D02*
X12886Y-13870D01*
X12204Y-15354D02*
X12204Y-14552D01*
X16929Y-15945D02*
X16929Y-16610D01*
X16035Y-15051D02*
X16929Y-15945D01*
X16035Y-14870D02*
X16035Y-15051D01*
X16141Y-13976D02*
X15625Y-13976D01*
X15625Y-13976D02*
X15551Y-13902D01*
X17035Y-14870D02*
X16141Y-13976D01*
X19004Y-18110D02*
X19685Y-17429D01*
X6890Y-17717D02*
X6890Y-16535D01*
X6890Y-16535D02*
X7874Y-15551D01*
X16929Y-18799D02*
X17618Y-18110D01*
X17618Y-18110D02*
X19004Y-18110D01*
X16929Y-19610D02*
X16929Y-18799D01*
X10752Y-7480D02*
X10917Y-7480D01*
X10917Y-7480D02*
X12598Y-5799D01*
X10630Y-16732D02*
X8449Y-14551D01*
X12795Y-17618D02*
X10827Y-17618D01*
X10630Y-17421D02*
X10630Y-16732D01*
X10827Y-17618D02*
X10630Y-17421D01*
X12992Y-17815D02*
X12795Y-17618D01*
X8449Y-14551D02*
X7874Y-14551D01*
X12992Y-19610D02*
X12992Y-19882D01*
X19299Y-20177D02*
X19685Y-19791D01*
X13287Y-20177D02*
X19299Y-20177D01*
X12992Y-19610D02*
X12992Y-17815D01*
X12992Y-19882D02*
X13287Y-20177D01*
X16610Y-6571D02*
X16610Y-8661D01*
X15748Y-5799D02*
X15838Y-5799D01*
X15838Y-5799D02*
X16610Y-6571D01*
X13992Y-16610D02*
X13992Y-16322D01*
X14960Y-13188D02*
X16534Y-11614D01*
X14960Y-15354D02*
X14960Y-13188D01*
X13992Y-16322D02*
X14960Y-15354D01*
X16534Y-11614D02*
X16610Y-11614D01*
X19610Y-9646D02*
X19610Y-8661D01*
X19610Y-8661D02*
X18995Y-8661D01*
X8503Y-10787D02*
X9842Y-9448D01*
X19610Y-12598D02*
X19610Y-11614D01*
X18995Y-8661D02*
X18208Y-7874D01*
X19610Y-10630D02*
X19610Y-9646D01*
X19610Y-11614D02*
X19610Y-10630D01*
X9842Y-9448D02*
X9842Y-9252D01*
X7835Y-10787D02*
X8503Y-10787D01*
X6602Y-7874D02*
X7358Y-7874D01*
X7358Y-7874D02*
X7752Y-7480D01*
X10433Y-9055D02*
X10039Y-8661D01*
X10433Y-11023D02*
X10433Y-9055D01*
X10629Y-9055D02*
X10433Y-9055D01*
X10039Y-8661D02*
X9252Y-8661D01*
X10826Y-9252D02*
X10629Y-9055D01*
X13189Y-9252D02*
X10826Y-9252D01*
X10130Y-12768D02*
X9409Y-12047D01*
X10130Y-14173D02*
X10130Y-12768D01*
X9409Y-12047D02*
X10433Y-11023D01*
X7835Y-12047D02*
X9409Y-12047D01*
X14370Y-12696D02*
X14468Y-12598D01*
X14468Y-12598D02*
X14665Y-12598D01*
X14665Y-12598D02*
X14960Y-12303D01*
X14960Y-12303D02*
X14960Y-7587D01*
X14960Y-7587D02*
X15748Y-6799D01*
G54D10*
G36*
X8576Y-10288D02*
X8425Y-10440D01*
X8396Y-10440D01*
X7176Y-10440D01*
X7136Y-10456D01*
X7134Y-10451D01*
X7133Y-10431D01*
X7088Y-10325D01*
X7081Y-10323D01*
X7075Y-10310D01*
X7085Y-10301D01*
X7058Y-10274D01*
X7136Y-10307D01*
X7137Y-10307D01*
X7235Y-10307D01*
X7723Y-10308D01*
X7724Y-10307D01*
X7946Y-10307D01*
X7947Y-10308D01*
X8533Y-10307D01*
X8576Y-10288D01*
X8576Y-10288D01*
G37*
G54D11*
X8576Y-10288D02*
X8425Y-10440D01*
X8396Y-10440D01*
X7176Y-10440D01*
X7136Y-10456D01*
X7134Y-10451D01*
X7133Y-10431D01*
X7088Y-10325D01*
X7081Y-10323D01*
X7075Y-10310D01*
X7085Y-10301D01*
X7058Y-10274D01*
X7136Y-10307D01*
X7137Y-10307D01*
X7235Y-10307D01*
X7723Y-10308D01*
X7724Y-10307D01*
X7946Y-10307D01*
X7947Y-10308D01*
X8533Y-10307D01*
X8576Y-10288D01*
G54D10*
G36*
X9240Y-5024D02*
X8961Y-5303D01*
X8961Y-5024D01*
X9240Y-5024D01*
X9240Y-5024D01*
G37*
G54D11*
X9240Y-5024D02*
X8961Y-5303D01*
X8961Y-5024D01*
X9240Y-5024D01*
G54D10*
G36*
X9315Y-11717D02*
X9285Y-11747D01*
X8694Y-11747D01*
X8694Y-11717D01*
X9315Y-11717D01*
X9315Y-11717D01*
G37*
G54D11*
X9315Y-11717D02*
X9285Y-11747D01*
X8694Y-11747D01*
X8694Y-11717D01*
X9315Y-11717D01*
G54D10*
G36*
X10133Y-10899D02*
X10019Y-11012D01*
X10006Y-10980D01*
X9886Y-10860D01*
X9730Y-10795D01*
X9677Y-10795D01*
X9677Y-10742D01*
X9613Y-10586D01*
X9493Y-10466D01*
X9337Y-10401D01*
X9313Y-10401D01*
X10054Y-9661D01*
X10054Y-9660D01*
X10092Y-9602D01*
X10093Y-9601D01*
X10133Y-9562D01*
X10133Y-10899D01*
X10133Y-10899D01*
G37*
G54D11*
X10133Y-10899D02*
X10019Y-11012D01*
X10006Y-10980D01*
X9886Y-10860D01*
X9730Y-10795D01*
X9677Y-10795D01*
X9677Y-10742D01*
X9613Y-10586D01*
X9493Y-10466D01*
X9337Y-10401D01*
X9313Y-10401D01*
X10054Y-9661D01*
X10054Y-9660D01*
X10092Y-9602D01*
X10093Y-9601D01*
X10133Y-9562D01*
X10133Y-10899D01*
G54D10*
G36*
X12642Y-16216D02*
X12547Y-16312D01*
X12494Y-16439D01*
X12452Y-16338D01*
X12446Y-16336D01*
X12437Y-16313D01*
X12290Y-16165D01*
X12265Y-16154D01*
X12264Y-16150D01*
X12190Y-16123D01*
X12097Y-16085D01*
X12082Y-16085D01*
X12068Y-16080D01*
X11981Y-16085D01*
X11888Y-16085D01*
X11872Y-16091D01*
X11860Y-16092D01*
X11720Y-16150D01*
X11718Y-16155D01*
X11695Y-16165D01*
X11547Y-16312D01*
X11536Y-16336D01*
X11532Y-16338D01*
X11505Y-16411D01*
X11467Y-16505D01*
X11467Y-16520D01*
X11462Y-16534D01*
X11467Y-16620D01*
X11467Y-16714D01*
X11473Y-16729D01*
X11474Y-16742D01*
X11532Y-16882D01*
X11537Y-16883D01*
X11547Y-16907D01*
X11694Y-17055D01*
X11718Y-17065D01*
X11720Y-17070D01*
X11736Y-17076D01*
X11270Y-17076D01*
X11270Y-16514D01*
X8557Y-13801D01*
X8625Y-13773D01*
X8695Y-13703D01*
X8733Y-13612D01*
X8733Y-13513D01*
X8734Y-13281D01*
X8733Y-13280D01*
X8733Y-13058D01*
X8734Y-13057D01*
X8733Y-12825D01*
X8733Y-12727D01*
X8733Y-12726D01*
X8695Y-12635D01*
X8625Y-12565D01*
X8534Y-12527D01*
X8533Y-12527D01*
X7947Y-12526D01*
X7946Y-12527D01*
X7724Y-12527D01*
X7723Y-12526D01*
X7137Y-12527D01*
X7058Y-12559D01*
X7085Y-12533D01*
X7075Y-12523D01*
X7081Y-12510D01*
X7088Y-12509D01*
X7113Y-12433D01*
X7136Y-12377D01*
X7175Y-12394D01*
X7274Y-12394D01*
X8494Y-12394D01*
X8586Y-12356D01*
X8595Y-12347D01*
X9284Y-12347D01*
X9830Y-12892D01*
X9830Y-13730D01*
X9685Y-13875D01*
X9605Y-14068D01*
X9605Y-14277D01*
X9685Y-14470D01*
X9832Y-14618D01*
X10025Y-14698D01*
X10234Y-14698D01*
X10427Y-14618D01*
X10575Y-14471D01*
X10630Y-14337D01*
X10685Y-14470D01*
X10832Y-14618D01*
X11025Y-14698D01*
X11234Y-14698D01*
X11427Y-14618D01*
X11575Y-14471D01*
X11655Y-14278D01*
X11655Y-14069D01*
X11575Y-13876D01*
X11428Y-13728D01*
X11235Y-13648D01*
X11026Y-13648D01*
X10833Y-13728D01*
X10685Y-13875D01*
X10629Y-14008D01*
X10575Y-13876D01*
X10430Y-13730D01*
X10430Y-12768D01*
X10407Y-12653D01*
X10342Y-12556D01*
X10342Y-12555D01*
X9833Y-12046D01*
X10106Y-11774D01*
X10106Y-11895D01*
X10170Y-12051D01*
X10290Y-12171D01*
X10446Y-12236D01*
X10531Y-12236D01*
X10723Y-12427D01*
X10723Y-12499D01*
X10746Y-12614D01*
X10811Y-12711D01*
X11401Y-13302D01*
X11402Y-13302D01*
X11499Y-13367D01*
X11613Y-13389D01*
X11614Y-13390D01*
X12464Y-13390D01*
X12400Y-13454D01*
X12362Y-13545D01*
X12362Y-13644D01*
X12362Y-13970D01*
X11992Y-14340D01*
X11927Y-14437D01*
X11904Y-14552D01*
X11904Y-15354D01*
X11927Y-15469D01*
X11992Y-15566D01*
X12642Y-16216D01*
X12642Y-16216D01*
G37*
G54D11*
X12642Y-16216D02*
X12547Y-16312D01*
X12494Y-16439D01*
X12452Y-16338D01*
X12446Y-16336D01*
X12437Y-16313D01*
X12290Y-16165D01*
X12265Y-16154D01*
X12264Y-16150D01*
X12190Y-16123D01*
X12097Y-16085D01*
X12082Y-16085D01*
X12068Y-16080D01*
X11981Y-16085D01*
X11888Y-16085D01*
X11872Y-16091D01*
X11860Y-16092D01*
X11720Y-16150D01*
X11718Y-16155D01*
X11695Y-16165D01*
X11547Y-16312D01*
X11536Y-16336D01*
X11532Y-16338D01*
X11505Y-16411D01*
X11467Y-16505D01*
X11467Y-16520D01*
X11462Y-16534D01*
X11467Y-16620D01*
X11467Y-16714D01*
X11473Y-16729D01*
X11474Y-16742D01*
X11532Y-16882D01*
X11537Y-16883D01*
X11547Y-16907D01*
X11694Y-17055D01*
X11718Y-17065D01*
X11720Y-17070D01*
X11736Y-17076D01*
X11270Y-17076D01*
X11270Y-16514D01*
X8557Y-13801D01*
X8625Y-13773D01*
X8695Y-13703D01*
X8733Y-13612D01*
X8733Y-13513D01*
X8734Y-13281D01*
X8733Y-13280D01*
X8733Y-13058D01*
X8734Y-13057D01*
X8733Y-12825D01*
X8733Y-12727D01*
X8733Y-12726D01*
X8695Y-12635D01*
X8625Y-12565D01*
X8534Y-12527D01*
X8533Y-12527D01*
X7947Y-12526D01*
X7946Y-12527D01*
X7724Y-12527D01*
X7723Y-12526D01*
X7137Y-12527D01*
X7058Y-12559D01*
X7085Y-12533D01*
X7075Y-12523D01*
X7081Y-12510D01*
X7088Y-12509D01*
X7113Y-12433D01*
X7136Y-12377D01*
X7175Y-12394D01*
X7274Y-12394D01*
X8494Y-12394D01*
X8586Y-12356D01*
X8595Y-12347D01*
X9284Y-12347D01*
X9830Y-12892D01*
X9830Y-13730D01*
X9685Y-13875D01*
X9605Y-14068D01*
X9605Y-14277D01*
X9685Y-14470D01*
X9832Y-14618D01*
X10025Y-14698D01*
X10234Y-14698D01*
X10427Y-14618D01*
X10575Y-14471D01*
X10630Y-14337D01*
X10685Y-14470D01*
X10832Y-14618D01*
X11025Y-14698D01*
X11234Y-14698D01*
X11427Y-14618D01*
X11575Y-14471D01*
X11655Y-14278D01*
X11655Y-14069D01*
X11575Y-13876D01*
X11428Y-13728D01*
X11235Y-13648D01*
X11026Y-13648D01*
X10833Y-13728D01*
X10685Y-13875D01*
X10629Y-14008D01*
X10575Y-13876D01*
X10430Y-13730D01*
X10430Y-12768D01*
X10407Y-12653D01*
X10342Y-12556D01*
X10342Y-12555D01*
X9833Y-12046D01*
X10106Y-11774D01*
X10106Y-11895D01*
X10170Y-12051D01*
X10290Y-12171D01*
X10446Y-12236D01*
X10531Y-12236D01*
X10723Y-12427D01*
X10723Y-12499D01*
X10746Y-12614D01*
X10811Y-12711D01*
X11401Y-13302D01*
X11402Y-13302D01*
X11499Y-13367D01*
X11613Y-13389D01*
X11614Y-13390D01*
X12464Y-13390D01*
X12400Y-13454D01*
X12362Y-13545D01*
X12362Y-13644D01*
X12362Y-13970D01*
X11992Y-14340D01*
X11927Y-14437D01*
X11904Y-14552D01*
X11904Y-15354D01*
X11927Y-15469D01*
X11992Y-15566D01*
X12642Y-16216D01*
G54D10*
G36*
X12744Y-17076D02*
X12249Y-17076D01*
X12264Y-17070D01*
X12265Y-17064D01*
X12289Y-17055D01*
X12437Y-16908D01*
X12447Y-16883D01*
X12452Y-16882D01*
X12478Y-16808D01*
X12492Y-16774D01*
X12547Y-16907D01*
X12694Y-17055D01*
X12744Y-17076D01*
X12744Y-17076D01*
G37*
G54D11*
X12744Y-17076D02*
X12249Y-17076D01*
X12264Y-17070D01*
X12265Y-17064D01*
X12289Y-17055D01*
X12437Y-16908D01*
X12447Y-16883D01*
X12452Y-16882D01*
X12478Y-16808D01*
X12492Y-16774D01*
X12547Y-16907D01*
X12694Y-17055D01*
X12744Y-17076D01*
G54D10*
G36*
X13556Y-17076D02*
X13238Y-17076D01*
X13289Y-17055D01*
X13437Y-16908D01*
X13468Y-16833D01*
X13468Y-16934D01*
X13506Y-17026D01*
X13556Y-17076D01*
X13556Y-17076D01*
G37*
G54D11*
X13556Y-17076D02*
X13238Y-17076D01*
X13289Y-17055D01*
X13437Y-16908D01*
X13468Y-16833D01*
X13468Y-16934D01*
X13506Y-17026D01*
X13556Y-17076D01*
G54D10*
G36*
X13774Y-10111D02*
X13714Y-10171D01*
X13714Y-10148D01*
X13634Y-9955D01*
X13487Y-9807D01*
X13353Y-9751D01*
X13486Y-9697D01*
X13634Y-9550D01*
X13714Y-9357D01*
X13714Y-9148D01*
X13634Y-8955D01*
X13487Y-8807D01*
X13412Y-8776D01*
X13513Y-8776D01*
X13605Y-8738D01*
X13675Y-8668D01*
X13713Y-8577D01*
X13713Y-8478D01*
X13713Y-8338D01*
X13774Y-8399D01*
X13774Y-10111D01*
X13774Y-10111D01*
G37*
G54D11*
X13774Y-10111D02*
X13714Y-10171D01*
X13714Y-10148D01*
X13634Y-9955D01*
X13487Y-9807D01*
X13353Y-9751D01*
X13486Y-9697D01*
X13634Y-9550D01*
X13714Y-9357D01*
X13714Y-9148D01*
X13634Y-8955D01*
X13487Y-8807D01*
X13412Y-8776D01*
X13513Y-8776D01*
X13605Y-8738D01*
X13675Y-8668D01*
X13713Y-8577D01*
X13713Y-8478D01*
X13713Y-8338D01*
X13774Y-8399D01*
X13774Y-10111D01*
G54D10*
G36*
X14660Y-12179D02*
X14562Y-12276D01*
X14598Y-12191D01*
X14598Y-12022D01*
X14534Y-11866D01*
X14414Y-11746D01*
X14258Y-11681D01*
X14089Y-11681D01*
X13933Y-11745D01*
X13872Y-11806D01*
X12132Y-11806D01*
X12111Y-11784D01*
X12111Y-11122D01*
X12110Y-11121D01*
X12088Y-11007D01*
X12023Y-10910D01*
X12022Y-10909D01*
X11350Y-10237D01*
X11350Y-10152D01*
X11286Y-9996D01*
X11166Y-9876D01*
X11010Y-9811D01*
X10841Y-9811D01*
X10733Y-9855D01*
X10733Y-9533D01*
X10826Y-9552D01*
X12746Y-9552D01*
X12891Y-9697D01*
X13024Y-9752D01*
X12892Y-9807D01*
X12744Y-9954D01*
X12664Y-10147D01*
X12664Y-10356D01*
X12744Y-10549D01*
X12891Y-10697D01*
X13084Y-10777D01*
X13293Y-10777D01*
X13381Y-10740D01*
X13381Y-10800D01*
X13359Y-10822D01*
X12899Y-10822D01*
X12839Y-10762D01*
X12683Y-10697D01*
X12514Y-10697D01*
X12358Y-10761D01*
X12238Y-10881D01*
X12173Y-11037D01*
X12173Y-11206D01*
X12237Y-11362D01*
X12357Y-11482D01*
X12513Y-11547D01*
X12682Y-11547D01*
X12838Y-11483D01*
X12899Y-11422D01*
X13484Y-11422D01*
X13599Y-11399D01*
X13696Y-11334D01*
X13893Y-11138D01*
X13893Y-11137D01*
X13896Y-11131D01*
X13897Y-11131D01*
X13925Y-11199D01*
X14072Y-11347D01*
X14265Y-11427D01*
X14474Y-11427D01*
X14660Y-11349D01*
X14660Y-12179D01*
X14660Y-12179D01*
G37*
G54D11*
X14660Y-12179D02*
X14562Y-12276D01*
X14598Y-12191D01*
X14598Y-12022D01*
X14534Y-11866D01*
X14414Y-11746D01*
X14258Y-11681D01*
X14089Y-11681D01*
X13933Y-11745D01*
X13872Y-11806D01*
X12132Y-11806D01*
X12111Y-11784D01*
X12111Y-11122D01*
X12110Y-11121D01*
X12088Y-11007D01*
X12023Y-10910D01*
X12022Y-10909D01*
X11350Y-10237D01*
X11350Y-10152D01*
X11286Y-9996D01*
X11166Y-9876D01*
X11010Y-9811D01*
X10841Y-9811D01*
X10733Y-9855D01*
X10733Y-9533D01*
X10826Y-9552D01*
X12746Y-9552D01*
X12891Y-9697D01*
X13024Y-9752D01*
X12892Y-9807D01*
X12744Y-9954D01*
X12664Y-10147D01*
X12664Y-10356D01*
X12744Y-10549D01*
X12891Y-10697D01*
X13084Y-10777D01*
X13293Y-10777D01*
X13381Y-10740D01*
X13381Y-10800D01*
X13359Y-10822D01*
X12899Y-10822D01*
X12839Y-10762D01*
X12683Y-10697D01*
X12514Y-10697D01*
X12358Y-10761D01*
X12238Y-10881D01*
X12173Y-11037D01*
X12173Y-11206D01*
X12237Y-11362D01*
X12357Y-11482D01*
X12513Y-11547D01*
X12682Y-11547D01*
X12838Y-11483D01*
X12899Y-11422D01*
X13484Y-11422D01*
X13599Y-11399D01*
X13696Y-11334D01*
X13893Y-11138D01*
X13893Y-11137D01*
X13896Y-11131D01*
X13897Y-11131D01*
X13925Y-11199D01*
X14072Y-11347D01*
X14265Y-11427D01*
X14474Y-11427D01*
X14660Y-11349D01*
X14660Y-12179D01*
G54D10*
G36*
X14660Y-15230D02*
X13804Y-16086D01*
X13668Y-16086D01*
X13576Y-16124D01*
X13506Y-16194D01*
X13468Y-16285D01*
X13468Y-16384D01*
X13468Y-16387D01*
X13437Y-16313D01*
X13292Y-16167D01*
X13292Y-16142D01*
X13269Y-16027D01*
X13204Y-15930D01*
X12589Y-15315D01*
X12781Y-15395D01*
X12990Y-15395D01*
X13183Y-15315D01*
X13331Y-15168D01*
X13386Y-15034D01*
X13441Y-15167D01*
X13588Y-15315D01*
X13781Y-15395D01*
X13990Y-15395D01*
X14183Y-15315D01*
X14331Y-15168D01*
X14411Y-14975D01*
X14411Y-14766D01*
X14331Y-14573D01*
X14184Y-14425D01*
X13991Y-14345D01*
X13834Y-14345D01*
X13952Y-14227D01*
X14072Y-14347D01*
X14265Y-14427D01*
X14474Y-14427D01*
X14660Y-14349D01*
X14660Y-15230D01*
X14660Y-15230D01*
G37*
G54D11*
X14660Y-15230D02*
X13804Y-16086D01*
X13668Y-16086D01*
X13576Y-16124D01*
X13506Y-16194D01*
X13468Y-16285D01*
X13468Y-16384D01*
X13468Y-16387D01*
X13437Y-16313D01*
X13292Y-16167D01*
X13292Y-16142D01*
X13269Y-16027D01*
X13204Y-15930D01*
X12589Y-15315D01*
X12781Y-15395D01*
X12990Y-15395D01*
X13183Y-15315D01*
X13331Y-15168D01*
X13386Y-15034D01*
X13441Y-15167D01*
X13588Y-15315D01*
X13781Y-15395D01*
X13990Y-15395D01*
X14183Y-15315D01*
X14331Y-15168D01*
X14411Y-14975D01*
X14411Y-14766D01*
X14331Y-14573D01*
X14184Y-14425D01*
X13991Y-14345D01*
X13834Y-14345D01*
X13952Y-14227D01*
X14072Y-14347D01*
X14265Y-14427D01*
X14474Y-14427D01*
X14660Y-14349D01*
X14660Y-15230D01*
G54D10*
G36*
X16087Y-14346D02*
X15849Y-14346D01*
X15919Y-14276D01*
X16017Y-14276D01*
X16087Y-14346D01*
X16087Y-14346D01*
G37*
G54D11*
X16087Y-14346D02*
X15849Y-14346D01*
X15919Y-14276D01*
X16017Y-14276D01*
X16087Y-14346D01*
G54D10*
G36*
X16427Y-9153D02*
X16313Y-9201D01*
X16165Y-9348D01*
X16085Y-9541D01*
X16085Y-9750D01*
X16165Y-9943D01*
X16312Y-10091D01*
X16425Y-10138D01*
X16313Y-10185D01*
X16165Y-10332D01*
X16085Y-10525D01*
X16085Y-10734D01*
X16165Y-10927D01*
X16312Y-11075D01*
X16425Y-11122D01*
X16313Y-11169D01*
X16165Y-11316D01*
X16085Y-11509D01*
X16085Y-11639D01*
X14748Y-12976D01*
X14683Y-13073D01*
X14660Y-13188D01*
X14660Y-13453D01*
X14475Y-13377D01*
X14266Y-13377D01*
X14073Y-13457D01*
X13927Y-13602D01*
X13853Y-13602D01*
X13738Y-13625D01*
X13640Y-13690D01*
X13410Y-13920D01*
X13410Y-13546D01*
X13376Y-13464D01*
X13497Y-13515D01*
X13666Y-13515D01*
X13822Y-13451D01*
X13942Y-13331D01*
X14007Y-13175D01*
X14007Y-13006D01*
X13943Y-12850D01*
X13823Y-12730D01*
X13667Y-12665D01*
X13498Y-12665D01*
X13342Y-12729D01*
X13281Y-12790D01*
X11738Y-12790D01*
X11323Y-12374D01*
X11323Y-12303D01*
X11322Y-12302D01*
X11300Y-12188D01*
X11235Y-12091D01*
X11235Y-12090D01*
X10956Y-11811D01*
X10956Y-11727D01*
X10892Y-11571D01*
X10772Y-11451D01*
X10616Y-11386D01*
X10494Y-11386D01*
X10645Y-11235D01*
X10710Y-11138D01*
X10733Y-11023D01*
X10733Y-10616D01*
X10840Y-10661D01*
X10926Y-10661D01*
X11511Y-11246D01*
X11511Y-11909D01*
X11534Y-12024D01*
X11599Y-12121D01*
X11795Y-12318D01*
X11796Y-12318D01*
X11893Y-12383D01*
X12008Y-12406D01*
X13872Y-12406D01*
X13932Y-12466D01*
X13994Y-12492D01*
X13945Y-12611D01*
X13945Y-12780D01*
X14009Y-12936D01*
X14129Y-13056D01*
X14285Y-13121D01*
X14454Y-13121D01*
X14610Y-13057D01*
X14730Y-12937D01*
X14753Y-12880D01*
X14780Y-12875D01*
X14877Y-12810D01*
X15172Y-12515D01*
X15237Y-12418D01*
X15260Y-12303D01*
X15260Y-11349D01*
X15446Y-11427D01*
X15655Y-11427D01*
X15848Y-11347D01*
X15996Y-11200D01*
X16076Y-11007D01*
X16076Y-10798D01*
X15996Y-10605D01*
X15849Y-10457D01*
X15656Y-10377D01*
X15447Y-10377D01*
X15260Y-10454D01*
X15260Y-7711D01*
X15603Y-7367D01*
X15632Y-7379D01*
X15863Y-7379D01*
X16076Y-7291D01*
X16239Y-7128D01*
X16310Y-6958D01*
X16310Y-8218D01*
X16165Y-8363D01*
X16085Y-8556D01*
X16085Y-8765D01*
X16165Y-8958D01*
X16312Y-9106D01*
X16427Y-9153D01*
X16427Y-9153D01*
G37*
G54D11*
X16427Y-9153D02*
X16313Y-9201D01*
X16165Y-9348D01*
X16085Y-9541D01*
X16085Y-9750D01*
X16165Y-9943D01*
X16312Y-10091D01*
X16425Y-10138D01*
X16313Y-10185D01*
X16165Y-10332D01*
X16085Y-10525D01*
X16085Y-10734D01*
X16165Y-10927D01*
X16312Y-11075D01*
X16425Y-11122D01*
X16313Y-11169D01*
X16165Y-11316D01*
X16085Y-11509D01*
X16085Y-11639D01*
X14748Y-12976D01*
X14683Y-13073D01*
X14660Y-13188D01*
X14660Y-13453D01*
X14475Y-13377D01*
X14266Y-13377D01*
X14073Y-13457D01*
X13927Y-13602D01*
X13853Y-13602D01*
X13738Y-13625D01*
X13640Y-13690D01*
X13410Y-13920D01*
X13410Y-13546D01*
X13376Y-13464D01*
X13497Y-13515D01*
X13666Y-13515D01*
X13822Y-13451D01*
X13942Y-13331D01*
X14007Y-13175D01*
X14007Y-13006D01*
X13943Y-12850D01*
X13823Y-12730D01*
X13667Y-12665D01*
X13498Y-12665D01*
X13342Y-12729D01*
X13281Y-12790D01*
X11738Y-12790D01*
X11323Y-12374D01*
X11323Y-12303D01*
X11322Y-12302D01*
X11300Y-12188D01*
X11235Y-12091D01*
X11235Y-12090D01*
X10956Y-11811D01*
X10956Y-11727D01*
X10892Y-11571D01*
X10772Y-11451D01*
X10616Y-11386D01*
X10494Y-11386D01*
X10645Y-11235D01*
X10710Y-11138D01*
X10733Y-11023D01*
X10733Y-10616D01*
X10840Y-10661D01*
X10926Y-10661D01*
X11511Y-11246D01*
X11511Y-11909D01*
X11534Y-12024D01*
X11599Y-12121D01*
X11795Y-12318D01*
X11796Y-12318D01*
X11893Y-12383D01*
X12008Y-12406D01*
X13872Y-12406D01*
X13932Y-12466D01*
X13994Y-12492D01*
X13945Y-12611D01*
X13945Y-12780D01*
X14009Y-12936D01*
X14129Y-13056D01*
X14285Y-13121D01*
X14454Y-13121D01*
X14610Y-13057D01*
X14730Y-12937D01*
X14753Y-12880D01*
X14780Y-12875D01*
X14877Y-12810D01*
X15172Y-12515D01*
X15237Y-12418D01*
X15260Y-12303D01*
X15260Y-11349D01*
X15446Y-11427D01*
X15655Y-11427D01*
X15848Y-11347D01*
X15996Y-11200D01*
X16076Y-11007D01*
X16076Y-10798D01*
X15996Y-10605D01*
X15849Y-10457D01*
X15656Y-10377D01*
X15447Y-10377D01*
X15260Y-10454D01*
X15260Y-7711D01*
X15603Y-7367D01*
X15632Y-7379D01*
X15863Y-7379D01*
X16076Y-7291D01*
X16239Y-7128D01*
X16310Y-6958D01*
X16310Y-8218D01*
X16165Y-8363D01*
X16085Y-8556D01*
X16085Y-8765D01*
X16165Y-8958D01*
X16312Y-9106D01*
X16427Y-9153D01*
G54D10*
G36*
X16629Y-16167D02*
X16484Y-16312D01*
X16431Y-16439D01*
X16389Y-16338D01*
X16383Y-16336D01*
X16374Y-16313D01*
X16227Y-16165D01*
X16202Y-16154D01*
X16201Y-16150D01*
X16127Y-16123D01*
X16034Y-16085D01*
X16019Y-16085D01*
X16005Y-16080D01*
X15918Y-16085D01*
X15825Y-16085D01*
X15809Y-16091D01*
X15797Y-16092D01*
X15657Y-16150D01*
X15655Y-16155D01*
X15632Y-16165D01*
X15484Y-16312D01*
X15473Y-16336D01*
X15469Y-16338D01*
X15442Y-16411D01*
X15404Y-16505D01*
X15404Y-16520D01*
X15399Y-16534D01*
X15404Y-16620D01*
X15404Y-16714D01*
X15410Y-16729D01*
X15411Y-16742D01*
X15469Y-16882D01*
X15474Y-16883D01*
X15484Y-16907D01*
X15631Y-17055D01*
X15655Y-17065D01*
X15657Y-17070D01*
X15673Y-17076D01*
X14428Y-17076D01*
X14478Y-17026D01*
X14516Y-16935D01*
X14516Y-16836D01*
X14516Y-16286D01*
X14497Y-16240D01*
X15171Y-15567D01*
X15171Y-15566D01*
X15172Y-15566D01*
X15237Y-15469D01*
X15259Y-15355D01*
X15260Y-15354D01*
X15260Y-14349D01*
X15446Y-14427D01*
X15576Y-14427D01*
X15549Y-14454D01*
X15511Y-14545D01*
X15511Y-14644D01*
X15511Y-15194D01*
X15549Y-15286D01*
X15619Y-15356D01*
X15710Y-15394D01*
X15809Y-15394D01*
X15954Y-15394D01*
X16629Y-16069D01*
X16629Y-16167D01*
X16629Y-16167D01*
G37*
G54D11*
X16629Y-16167D02*
X16484Y-16312D01*
X16431Y-16439D01*
X16389Y-16338D01*
X16383Y-16336D01*
X16374Y-16313D01*
X16227Y-16165D01*
X16202Y-16154D01*
X16201Y-16150D01*
X16127Y-16123D01*
X16034Y-16085D01*
X16019Y-16085D01*
X16005Y-16080D01*
X15918Y-16085D01*
X15825Y-16085D01*
X15809Y-16091D01*
X15797Y-16092D01*
X15657Y-16150D01*
X15655Y-16155D01*
X15632Y-16165D01*
X15484Y-16312D01*
X15473Y-16336D01*
X15469Y-16338D01*
X15442Y-16411D01*
X15404Y-16505D01*
X15404Y-16520D01*
X15399Y-16534D01*
X15404Y-16620D01*
X15404Y-16714D01*
X15410Y-16729D01*
X15411Y-16742D01*
X15469Y-16882D01*
X15474Y-16883D01*
X15484Y-16907D01*
X15631Y-17055D01*
X15655Y-17065D01*
X15657Y-17070D01*
X15673Y-17076D01*
X14428Y-17076D01*
X14478Y-17026D01*
X14516Y-16935D01*
X14516Y-16836D01*
X14516Y-16286D01*
X14497Y-16240D01*
X15171Y-15567D01*
X15171Y-15566D01*
X15172Y-15566D01*
X15237Y-15469D01*
X15259Y-15355D01*
X15260Y-15354D01*
X15260Y-14349D01*
X15446Y-14427D01*
X15576Y-14427D01*
X15549Y-14454D01*
X15511Y-14545D01*
X15511Y-14644D01*
X15511Y-15194D01*
X15549Y-15286D01*
X15619Y-15356D01*
X15710Y-15394D01*
X15809Y-15394D01*
X15954Y-15394D01*
X16629Y-16069D01*
X16629Y-16167D01*
G54D10*
G36*
X16681Y-17076D02*
X16186Y-17076D01*
X16201Y-17070D01*
X16202Y-17064D01*
X16226Y-17055D01*
X16374Y-16908D01*
X16384Y-16883D01*
X16389Y-16882D01*
X16415Y-16808D01*
X16429Y-16774D01*
X16484Y-16907D01*
X16631Y-17055D01*
X16681Y-17076D01*
X16681Y-17076D01*
G37*
G54D11*
X16681Y-17076D02*
X16186Y-17076D01*
X16201Y-17070D01*
X16202Y-17064D01*
X16226Y-17055D01*
X16374Y-16908D01*
X16384Y-16883D01*
X16389Y-16882D01*
X16415Y-16808D01*
X16429Y-16774D01*
X16484Y-16907D01*
X16631Y-17055D01*
X16681Y-17076D01*
G54D10*
G36*
X16933Y-13345D02*
X16931Y-13345D01*
X16738Y-13425D01*
X16590Y-13572D01*
X16510Y-13765D01*
X16510Y-13921D01*
X16353Y-13764D01*
X16256Y-13699D01*
X16141Y-13676D01*
X16025Y-13676D01*
X15996Y-13605D01*
X15849Y-13457D01*
X15656Y-13377D01*
X15447Y-13377D01*
X15260Y-13454D01*
X15260Y-13312D01*
X16089Y-12482D01*
X16085Y-12493D01*
X16085Y-12702D01*
X16165Y-12895D01*
X16312Y-13043D01*
X16505Y-13123D01*
X16711Y-13123D01*
X16933Y-13345D01*
X16933Y-13345D01*
G37*
G54D11*
X16933Y-13345D02*
X16931Y-13345D01*
X16738Y-13425D01*
X16590Y-13572D01*
X16510Y-13765D01*
X16510Y-13921D01*
X16353Y-13764D01*
X16256Y-13699D01*
X16141Y-13676D01*
X16025Y-13676D01*
X15996Y-13605D01*
X15849Y-13457D01*
X15656Y-13377D01*
X15447Y-13377D01*
X15260Y-13454D01*
X15260Y-13312D01*
X16089Y-12482D01*
X16085Y-12493D01*
X16085Y-12702D01*
X16165Y-12895D01*
X16312Y-13043D01*
X16505Y-13123D01*
X16711Y-13123D01*
X16933Y-13345D01*
G54D10*
G36*
X17493Y-17076D02*
X17175Y-17076D01*
X17226Y-17055D01*
X17374Y-16908D01*
X17405Y-16833D01*
X17405Y-16934D01*
X17443Y-17026D01*
X17493Y-17076D01*
X17493Y-17076D01*
G37*
G54D11*
X17493Y-17076D02*
X17175Y-17076D01*
X17226Y-17055D01*
X17374Y-16908D01*
X17405Y-16833D01*
X17405Y-16934D01*
X17443Y-17026D01*
X17493Y-17076D01*
G54D10*
G36*
X17629Y-16086D02*
X17605Y-16086D01*
X17513Y-16124D01*
X17443Y-16194D01*
X17405Y-16285D01*
X17405Y-16384D01*
X17405Y-16387D01*
X17374Y-16313D01*
X17229Y-16167D01*
X17229Y-15945D01*
X17206Y-15830D01*
X17141Y-15733D01*
X16559Y-15151D01*
X16559Y-15096D01*
X16559Y-15092D01*
X16590Y-15167D01*
X16737Y-15315D01*
X16930Y-15395D01*
X17139Y-15395D01*
X17332Y-15315D01*
X17480Y-15168D01*
X17560Y-14975D01*
X17560Y-14766D01*
X17480Y-14573D01*
X17333Y-14425D01*
X17199Y-14369D01*
X17332Y-14315D01*
X17480Y-14168D01*
X17560Y-13975D01*
X17560Y-13972D01*
X17629Y-14041D01*
X17629Y-16086D01*
X17629Y-16086D01*
G37*
G54D11*
X17629Y-16086D02*
X17605Y-16086D01*
X17513Y-16124D01*
X17443Y-16194D01*
X17405Y-16285D01*
X17405Y-16384D01*
X17405Y-16387D01*
X17374Y-16313D01*
X17229Y-16167D01*
X17229Y-15945D01*
X17206Y-15830D01*
X17141Y-15733D01*
X16559Y-15151D01*
X16559Y-15096D01*
X16559Y-15092D01*
X16590Y-15167D01*
X16737Y-15315D01*
X16930Y-15395D01*
X17139Y-15395D01*
X17332Y-15315D01*
X17480Y-15168D01*
X17560Y-14975D01*
X17560Y-14766D01*
X17480Y-14573D01*
X17333Y-14425D01*
X17199Y-14369D01*
X17332Y-14315D01*
X17480Y-14168D01*
X17560Y-13975D01*
X17560Y-13972D01*
X17629Y-14041D01*
X17629Y-16086D01*
G54D10*
G36*
X20172Y-13139D02*
X19270Y-13139D01*
X18257Y-14152D01*
X18257Y-16087D01*
X18254Y-16086D01*
X18229Y-16086D01*
X18229Y-13917D01*
X18206Y-13802D01*
X18141Y-13705D01*
X17135Y-12699D01*
X17135Y-12494D01*
X17055Y-12301D01*
X16908Y-12153D01*
X16794Y-12105D01*
X16907Y-12059D01*
X17055Y-11912D01*
X17135Y-11719D01*
X17135Y-11510D01*
X17055Y-11317D01*
X16908Y-11169D01*
X16794Y-11121D01*
X16907Y-11075D01*
X17055Y-10928D01*
X17135Y-10735D01*
X17135Y-10526D01*
X17055Y-10333D01*
X16908Y-10185D01*
X16794Y-10137D01*
X16907Y-10091D01*
X17055Y-9944D01*
X17056Y-9940D01*
X17142Y-9923D01*
X17239Y-9858D01*
X17830Y-9268D01*
X17830Y-9267D01*
X17895Y-9170D01*
X17917Y-9056D01*
X17918Y-9055D01*
X17918Y-8185D01*
X17967Y-8234D01*
X18123Y-8299D01*
X18209Y-8299D01*
X18782Y-8872D01*
X18783Y-8873D01*
X18880Y-8938D01*
X18994Y-8960D01*
X18995Y-8961D01*
X19167Y-8961D01*
X19310Y-9103D01*
X19310Y-9203D01*
X19165Y-9348D01*
X19085Y-9541D01*
X19085Y-9750D01*
X19165Y-9943D01*
X19310Y-10088D01*
X19310Y-10187D01*
X19165Y-10332D01*
X19085Y-10525D01*
X19085Y-10734D01*
X19165Y-10927D01*
X19310Y-11072D01*
X19310Y-11171D01*
X19165Y-11316D01*
X19085Y-11509D01*
X19085Y-11718D01*
X19165Y-11911D01*
X19310Y-12056D01*
X19310Y-12155D01*
X19165Y-12300D01*
X19085Y-12493D01*
X19085Y-12702D01*
X19165Y-12895D01*
X19312Y-13043D01*
X19505Y-13123D01*
X19714Y-13123D01*
X19907Y-13043D01*
X20055Y-12896D01*
X20135Y-12703D01*
X20135Y-12494D01*
X20055Y-12301D01*
X19910Y-12155D01*
X19910Y-12056D01*
X20055Y-11912D01*
X20135Y-11719D01*
X20135Y-11510D01*
X20055Y-11317D01*
X19910Y-11171D01*
X19910Y-11072D01*
X20055Y-10928D01*
X20135Y-10735D01*
X20135Y-10526D01*
X20055Y-10333D01*
X19910Y-10187D01*
X19910Y-10088D01*
X20055Y-9944D01*
X20135Y-9751D01*
X20135Y-9542D01*
X20055Y-9349D01*
X19910Y-9203D01*
X19910Y-9103D01*
X20055Y-8959D01*
X20135Y-8766D01*
X20135Y-8557D01*
X20055Y-8364D01*
X19908Y-8216D01*
X19715Y-8136D01*
X19506Y-8136D01*
X19313Y-8216D01*
X19167Y-8361D01*
X19119Y-8361D01*
X18633Y-7875D01*
X18633Y-7790D01*
X18569Y-7634D01*
X18449Y-7514D01*
X18293Y-7449D01*
X18124Y-7449D01*
X17968Y-7513D01*
X17918Y-7563D01*
X17918Y-7203D01*
X18318Y-6803D01*
X18318Y-6914D01*
X18406Y-7127D01*
X18569Y-7290D01*
X18782Y-7379D01*
X19013Y-7379D01*
X19226Y-7291D01*
X19389Y-7128D01*
X19478Y-6915D01*
X19478Y-6684D01*
X19390Y-6471D01*
X19227Y-6308D01*
X19206Y-6299D01*
X19226Y-6291D01*
X19389Y-6128D01*
X19478Y-5915D01*
X19478Y-5684D01*
X19390Y-5471D01*
X19227Y-5308D01*
X19014Y-5219D01*
X18783Y-5219D01*
X18570Y-5307D01*
X18407Y-5470D01*
X18318Y-5683D01*
X18318Y-5914D01*
X18329Y-5943D01*
X17406Y-6867D01*
X17341Y-6964D01*
X17318Y-7079D01*
X17318Y-8930D01*
X16977Y-9271D01*
X16908Y-9201D01*
X16792Y-9153D01*
X16907Y-9106D01*
X17055Y-8959D01*
X17135Y-8766D01*
X17135Y-8557D01*
X17055Y-8364D01*
X16910Y-8218D01*
X16910Y-6571D01*
X16909Y-6570D01*
X16887Y-6456D01*
X16822Y-6359D01*
X16822Y-6358D01*
X16328Y-5864D01*
X16328Y-5684D01*
X16240Y-5471D01*
X16077Y-5308D01*
X15864Y-5219D01*
X15633Y-5219D01*
X15420Y-5307D01*
X15257Y-5470D01*
X15168Y-5683D01*
X15168Y-5914D01*
X15256Y-6127D01*
X15419Y-6290D01*
X15439Y-6298D01*
X15420Y-6307D01*
X15257Y-6470D01*
X15168Y-6683D01*
X15168Y-6914D01*
X15179Y-6943D01*
X14748Y-7375D01*
X14683Y-7472D01*
X14660Y-7587D01*
X14660Y-10453D01*
X14475Y-10377D01*
X14333Y-10377D01*
X14351Y-10351D01*
X14373Y-10237D01*
X14374Y-10236D01*
X14374Y-8275D01*
X14351Y-8160D01*
X14286Y-8063D01*
X13166Y-6943D01*
X13178Y-6915D01*
X13178Y-6684D01*
X13090Y-6471D01*
X12927Y-6308D01*
X12906Y-6299D01*
X12926Y-6291D01*
X13089Y-6128D01*
X13178Y-5915D01*
X13178Y-5684D01*
X13090Y-5471D01*
X12927Y-5308D01*
X12714Y-5219D01*
X12483Y-5219D01*
X12270Y-5307D01*
X12107Y-5470D01*
X12018Y-5683D01*
X12018Y-5914D01*
X12029Y-5943D01*
X10970Y-7002D01*
X10857Y-6955D01*
X10648Y-6955D01*
X10455Y-7035D01*
X10307Y-7182D01*
X10227Y-7375D01*
X10227Y-7584D01*
X10307Y-7777D01*
X10454Y-7925D01*
X10647Y-8005D01*
X10856Y-8005D01*
X11049Y-7925D01*
X11197Y-7778D01*
X11277Y-7585D01*
X11277Y-7544D01*
X12018Y-6803D01*
X12018Y-6914D01*
X12106Y-7127D01*
X12269Y-7290D01*
X12482Y-7379D01*
X12713Y-7379D01*
X12742Y-7367D01*
X13103Y-7728D01*
X12865Y-7728D01*
X12773Y-7766D01*
X12703Y-7836D01*
X12665Y-7927D01*
X12665Y-8026D01*
X12665Y-8576D01*
X12703Y-8668D01*
X12773Y-8738D01*
X12864Y-8776D01*
X12963Y-8776D01*
X12892Y-8807D01*
X12746Y-8952D01*
X10950Y-8952D01*
X10841Y-8843D01*
X10744Y-8778D01*
X10629Y-8755D01*
X10557Y-8755D01*
X10251Y-8449D01*
X10154Y-8384D01*
X10039Y-8361D01*
X9553Y-8361D01*
X9493Y-8301D01*
X9337Y-8236D01*
X9168Y-8236D01*
X9012Y-8300D01*
X8892Y-8420D01*
X8827Y-8576D01*
X8827Y-8745D01*
X8891Y-8901D01*
X9011Y-9021D01*
X9167Y-9086D01*
X9336Y-9086D01*
X9474Y-9029D01*
X9417Y-9167D01*
X9417Y-9336D01*
X9449Y-9415D01*
X8715Y-10150D01*
X8733Y-10108D01*
X8733Y-10009D01*
X8734Y-9777D01*
X8733Y-9776D01*
X8733Y-9554D01*
X8734Y-9553D01*
X8733Y-9321D01*
X8733Y-9223D01*
X8733Y-9222D01*
X8695Y-9131D01*
X8625Y-9061D01*
X8534Y-9023D01*
X8533Y-9023D01*
X7947Y-9022D01*
X7946Y-9023D01*
X7724Y-9023D01*
X7723Y-9022D01*
X7137Y-9023D01*
X7045Y-9061D01*
X6975Y-9131D01*
X6937Y-9222D01*
X6937Y-9321D01*
X6936Y-9553D01*
X6937Y-9554D01*
X6937Y-9776D01*
X6936Y-9777D01*
X6937Y-10009D01*
X6937Y-10107D01*
X6937Y-10108D01*
X6969Y-10185D01*
X6943Y-10159D01*
X6934Y-10167D01*
X6920Y-10162D01*
X6919Y-10156D01*
X6843Y-10130D01*
X6782Y-10105D01*
X6767Y-10105D01*
X6750Y-10099D01*
X6661Y-10105D01*
X6605Y-10105D01*
X6593Y-10109D01*
X6573Y-10111D01*
X6467Y-10156D01*
X6465Y-10162D01*
X6441Y-10173D01*
X6315Y-10298D01*
X6304Y-10323D01*
X6298Y-10325D01*
X6272Y-10400D01*
X6247Y-10462D01*
X6247Y-10476D01*
X6241Y-10494D01*
X6247Y-10582D01*
X6247Y-10639D01*
X6251Y-10650D01*
X6253Y-10671D01*
X6298Y-10777D01*
X6304Y-10778D01*
X6315Y-10803D01*
X6440Y-10929D01*
X6465Y-10939D01*
X6467Y-10946D01*
X6542Y-10971D01*
X6604Y-10997D01*
X6618Y-10997D01*
X6636Y-11003D01*
X6724Y-10997D01*
X6781Y-10997D01*
X6792Y-10992D01*
X6813Y-10991D01*
X6919Y-10946D01*
X6920Y-10939D01*
X6933Y-10933D01*
X6943Y-10943D01*
X6976Y-10910D01*
X6976Y-10934D01*
X6980Y-10944D01*
X6976Y-10954D01*
X6976Y-11053D01*
X6976Y-11249D01*
X6980Y-11259D01*
X6976Y-11269D01*
X6976Y-11368D01*
X6976Y-11564D01*
X6980Y-11574D01*
X6976Y-11584D01*
X6976Y-11622D01*
X6976Y-11683D01*
X6976Y-11781D01*
X6976Y-11842D01*
X6976Y-11879D01*
X6976Y-11880D01*
X6979Y-11889D01*
X6976Y-11899D01*
X6976Y-11924D01*
X6943Y-11891D01*
X6934Y-11899D01*
X6920Y-11894D01*
X6919Y-11888D01*
X6843Y-11862D01*
X6782Y-11837D01*
X6767Y-11837D01*
X6750Y-11831D01*
X6661Y-11837D01*
X6605Y-11837D01*
X6593Y-11841D01*
X6573Y-11843D01*
X6467Y-11888D01*
X6465Y-11894D01*
X6441Y-11905D01*
X6315Y-12030D01*
X6304Y-12055D01*
X6298Y-12057D01*
X6272Y-12132D01*
X6247Y-12194D01*
X6247Y-12208D01*
X6241Y-12226D01*
X6247Y-12314D01*
X6247Y-12371D01*
X6251Y-12382D01*
X6253Y-12403D01*
X6298Y-12509D01*
X6304Y-12510D01*
X6315Y-12535D01*
X6440Y-12661D01*
X6465Y-12671D01*
X6467Y-12678D01*
X6542Y-12703D01*
X6604Y-12729D01*
X6618Y-12729D01*
X6636Y-12735D01*
X6724Y-12729D01*
X6781Y-12729D01*
X6792Y-12724D01*
X6813Y-12723D01*
X6919Y-12678D01*
X6920Y-12671D01*
X6933Y-12665D01*
X6943Y-12675D01*
X6969Y-12648D01*
X6937Y-12726D01*
X6937Y-12825D01*
X6936Y-13057D01*
X6937Y-13058D01*
X6937Y-13280D01*
X6936Y-13281D01*
X6937Y-13513D01*
X6937Y-13533D01*
X6253Y-13533D01*
X6253Y-13513D01*
X6254Y-13281D01*
X6253Y-13280D01*
X6253Y-13058D01*
X6254Y-13057D01*
X6253Y-12825D01*
X6253Y-12727D01*
X6253Y-12726D01*
X6215Y-12635D01*
X6145Y-12565D01*
X6054Y-12527D01*
X6053Y-12527D01*
X5624Y-12526D01*
X5623Y-12527D01*
X5401Y-12527D01*
X5400Y-12526D01*
X5024Y-12526D01*
X5024Y-10307D01*
X5069Y-10307D01*
X5400Y-10308D01*
X5401Y-10307D01*
X5623Y-10307D01*
X5624Y-10308D01*
X6053Y-10307D01*
X6145Y-10269D01*
X6215Y-10199D01*
X6253Y-10108D01*
X6253Y-10009D01*
X6254Y-9777D01*
X6253Y-9776D01*
X6253Y-9554D01*
X6254Y-9553D01*
X6253Y-9321D01*
X6253Y-9223D01*
X6253Y-9222D01*
X6215Y-9131D01*
X6145Y-9061D01*
X6054Y-9023D01*
X6053Y-9023D01*
X5624Y-9022D01*
X5623Y-9023D01*
X5401Y-9023D01*
X5400Y-9022D01*
X5024Y-9022D01*
X5024Y-7211D01*
X5242Y-6993D01*
X7556Y-6993D01*
X7455Y-7035D01*
X7307Y-7182D01*
X7227Y-7375D01*
X7227Y-7574D01*
X7126Y-7574D01*
X7126Y-7550D01*
X7088Y-7458D01*
X7018Y-7388D01*
X6927Y-7350D01*
X6828Y-7350D01*
X6278Y-7350D01*
X6186Y-7388D01*
X6116Y-7458D01*
X6078Y-7549D01*
X6078Y-7648D01*
X6078Y-7651D01*
X6047Y-7577D01*
X5900Y-7429D01*
X5707Y-7349D01*
X5498Y-7349D01*
X5305Y-7429D01*
X5157Y-7576D01*
X5077Y-7769D01*
X5077Y-7978D01*
X5157Y-8171D01*
X5304Y-8319D01*
X5497Y-8399D01*
X5706Y-8399D01*
X5899Y-8319D01*
X6047Y-8172D01*
X6078Y-8097D01*
X6078Y-8198D01*
X6116Y-8290D01*
X6186Y-8360D01*
X6277Y-8398D01*
X6376Y-8398D01*
X6926Y-8398D01*
X7018Y-8360D01*
X7088Y-8290D01*
X7126Y-8199D01*
X7126Y-8174D01*
X7358Y-8174D01*
X7473Y-8151D01*
X7570Y-8086D01*
X7651Y-8005D01*
X7856Y-8005D01*
X8049Y-7925D01*
X8197Y-7778D01*
X8277Y-7585D01*
X8277Y-7376D01*
X8197Y-7183D01*
X8050Y-7035D01*
X7948Y-6993D01*
X8268Y-6993D01*
X8383Y-6970D01*
X8480Y-6905D01*
X8873Y-6513D01*
X8873Y-6512D01*
X8925Y-6434D01*
X8950Y-6494D01*
X8953Y-6500D01*
X9248Y-6796D01*
X9254Y-6798D01*
X9255Y-6799D01*
X9265Y-6803D01*
X9633Y-6956D01*
X9641Y-6956D01*
X10051Y-6956D01*
X10058Y-6953D01*
X10059Y-6953D01*
X10431Y-6799D01*
X10431Y-6798D01*
X10437Y-6796D01*
X10733Y-6501D01*
X10735Y-6494D01*
X10736Y-6494D01*
X10740Y-6483D01*
X10893Y-6116D01*
X10893Y-6108D01*
X10893Y-5698D01*
X10890Y-5690D01*
X10736Y-5318D01*
X10735Y-5317D01*
X10733Y-5312D01*
X10445Y-5024D01*
X20172Y-5024D01*
X20172Y-13139D01*
X20172Y-13139D01*
G37*
G54D11*
X20172Y-13139D02*
X19270Y-13139D01*
X18257Y-14152D01*
X18257Y-16087D01*
X18254Y-16086D01*
X18229Y-16086D01*
X18229Y-13917D01*
X18206Y-13802D01*
X18141Y-13705D01*
X17135Y-12699D01*
X17135Y-12494D01*
X17055Y-12301D01*
X16908Y-12153D01*
X16794Y-12105D01*
X16907Y-12059D01*
X17055Y-11912D01*
X17135Y-11719D01*
X17135Y-11510D01*
X17055Y-11317D01*
X16908Y-11169D01*
X16794Y-11121D01*
X16907Y-11075D01*
X17055Y-10928D01*
X17135Y-10735D01*
X17135Y-10526D01*
X17055Y-10333D01*
X16908Y-10185D01*
X16794Y-10137D01*
X16907Y-10091D01*
X17055Y-9944D01*
X17056Y-9940D01*
X17142Y-9923D01*
X17239Y-9858D01*
X17830Y-9268D01*
X17830Y-9267D01*
X17895Y-9170D01*
X17917Y-9056D01*
X17918Y-9055D01*
X17918Y-8185D01*
X17967Y-8234D01*
X18123Y-8299D01*
X18209Y-8299D01*
X18782Y-8872D01*
X18783Y-8873D01*
X18880Y-8938D01*
X18994Y-8960D01*
X18995Y-8961D01*
X19167Y-8961D01*
X19310Y-9103D01*
X19310Y-9203D01*
X19165Y-9348D01*
X19085Y-9541D01*
X19085Y-9750D01*
X19165Y-9943D01*
X19310Y-10088D01*
X19310Y-10187D01*
X19165Y-10332D01*
X19085Y-10525D01*
X19085Y-10734D01*
X19165Y-10927D01*
X19310Y-11072D01*
X19310Y-11171D01*
X19165Y-11316D01*
X19085Y-11509D01*
X19085Y-11718D01*
X19165Y-11911D01*
X19310Y-12056D01*
X19310Y-12155D01*
X19165Y-12300D01*
X19085Y-12493D01*
X19085Y-12702D01*
X19165Y-12895D01*
X19312Y-13043D01*
X19505Y-13123D01*
X19714Y-13123D01*
X19907Y-13043D01*
X20055Y-12896D01*
X20135Y-12703D01*
X20135Y-12494D01*
X20055Y-12301D01*
X19910Y-12155D01*
X19910Y-12056D01*
X20055Y-11912D01*
X20135Y-11719D01*
X20135Y-11510D01*
X20055Y-11317D01*
X19910Y-11171D01*
X19910Y-11072D01*
X20055Y-10928D01*
X20135Y-10735D01*
X20135Y-10526D01*
X20055Y-10333D01*
X19910Y-10187D01*
X19910Y-10088D01*
X20055Y-9944D01*
X20135Y-9751D01*
X20135Y-9542D01*
X20055Y-9349D01*
X19910Y-9203D01*
X19910Y-9103D01*
X20055Y-8959D01*
X20135Y-8766D01*
X20135Y-8557D01*
X20055Y-8364D01*
X19908Y-8216D01*
X19715Y-8136D01*
X19506Y-8136D01*
X19313Y-8216D01*
X19167Y-8361D01*
X19119Y-8361D01*
X18633Y-7875D01*
X18633Y-7790D01*
X18569Y-7634D01*
X18449Y-7514D01*
X18293Y-7449D01*
X18124Y-7449D01*
X17968Y-7513D01*
X17918Y-7563D01*
X17918Y-7203D01*
X18318Y-6803D01*
X18318Y-6914D01*
X18406Y-7127D01*
X18569Y-7290D01*
X18782Y-7379D01*
X19013Y-7379D01*
X19226Y-7291D01*
X19389Y-7128D01*
X19478Y-6915D01*
X19478Y-6684D01*
X19390Y-6471D01*
X19227Y-6308D01*
X19206Y-6299D01*
X19226Y-6291D01*
X19389Y-6128D01*
X19478Y-5915D01*
X19478Y-5684D01*
X19390Y-5471D01*
X19227Y-5308D01*
X19014Y-5219D01*
X18783Y-5219D01*
X18570Y-5307D01*
X18407Y-5470D01*
X18318Y-5683D01*
X18318Y-5914D01*
X18329Y-5943D01*
X17406Y-6867D01*
X17341Y-6964D01*
X17318Y-7079D01*
X17318Y-8930D01*
X16977Y-9271D01*
X16908Y-9201D01*
X16792Y-9153D01*
X16907Y-9106D01*
X17055Y-8959D01*
X17135Y-8766D01*
X17135Y-8557D01*
X17055Y-8364D01*
X16910Y-8218D01*
X16910Y-6571D01*
X16909Y-6570D01*
X16887Y-6456D01*
X16822Y-6359D01*
X16822Y-6358D01*
X16328Y-5864D01*
X16328Y-5684D01*
X16240Y-5471D01*
X16077Y-5308D01*
X15864Y-5219D01*
X15633Y-5219D01*
X15420Y-5307D01*
X15257Y-5470D01*
X15168Y-5683D01*
X15168Y-5914D01*
X15256Y-6127D01*
X15419Y-6290D01*
X15439Y-6298D01*
X15420Y-6307D01*
X15257Y-6470D01*
X15168Y-6683D01*
X15168Y-6914D01*
X15179Y-6943D01*
X14748Y-7375D01*
X14683Y-7472D01*
X14660Y-7587D01*
X14660Y-10453D01*
X14475Y-10377D01*
X14333Y-10377D01*
X14351Y-10351D01*
X14373Y-10237D01*
X14374Y-10236D01*
X14374Y-8275D01*
X14351Y-8160D01*
X14286Y-8063D01*
X13166Y-6943D01*
X13178Y-6915D01*
X13178Y-6684D01*
X13090Y-6471D01*
X12927Y-6308D01*
X12906Y-6299D01*
X12926Y-6291D01*
X13089Y-6128D01*
X13178Y-5915D01*
X13178Y-5684D01*
X13090Y-5471D01*
X12927Y-5308D01*
X12714Y-5219D01*
X12483Y-5219D01*
X12270Y-5307D01*
X12107Y-5470D01*
X12018Y-5683D01*
X12018Y-5914D01*
X12029Y-5943D01*
X10970Y-7002D01*
X10857Y-6955D01*
X10648Y-6955D01*
X10455Y-7035D01*
X10307Y-7182D01*
X10227Y-7375D01*
X10227Y-7584D01*
X10307Y-7777D01*
X10454Y-7925D01*
X10647Y-8005D01*
X10856Y-8005D01*
X11049Y-7925D01*
X11197Y-7778D01*
X11277Y-7585D01*
X11277Y-7544D01*
X12018Y-6803D01*
X12018Y-6914D01*
X12106Y-7127D01*
X12269Y-7290D01*
X12482Y-7379D01*
X12713Y-7379D01*
X12742Y-7367D01*
X13103Y-7728D01*
X12865Y-7728D01*
X12773Y-7766D01*
X12703Y-7836D01*
X12665Y-7927D01*
X12665Y-8026D01*
X12665Y-8576D01*
X12703Y-8668D01*
X12773Y-8738D01*
X12864Y-8776D01*
X12963Y-8776D01*
X12892Y-8807D01*
X12746Y-8952D01*
X10950Y-8952D01*
X10841Y-8843D01*
X10744Y-8778D01*
X10629Y-8755D01*
X10557Y-8755D01*
X10251Y-8449D01*
X10154Y-8384D01*
X10039Y-8361D01*
X9553Y-8361D01*
X9493Y-8301D01*
X9337Y-8236D01*
X9168Y-8236D01*
X9012Y-8300D01*
X8892Y-8420D01*
X8827Y-8576D01*
X8827Y-8745D01*
X8891Y-8901D01*
X9011Y-9021D01*
X9167Y-9086D01*
X9336Y-9086D01*
X9474Y-9029D01*
X9417Y-9167D01*
X9417Y-9336D01*
X9449Y-9415D01*
X8715Y-10150D01*
X8733Y-10108D01*
X8733Y-10009D01*
X8734Y-9777D01*
X8733Y-9776D01*
X8733Y-9554D01*
X8734Y-9553D01*
X8733Y-9321D01*
X8733Y-9223D01*
X8733Y-9222D01*
X8695Y-9131D01*
X8625Y-9061D01*
X8534Y-9023D01*
X8533Y-9023D01*
X7947Y-9022D01*
X7946Y-9023D01*
X7724Y-9023D01*
X7723Y-9022D01*
X7137Y-9023D01*
X7045Y-9061D01*
X6975Y-9131D01*
X6937Y-9222D01*
X6937Y-9321D01*
X6936Y-9553D01*
X6937Y-9554D01*
X6937Y-9776D01*
X6936Y-9777D01*
X6937Y-10009D01*
X6937Y-10107D01*
X6937Y-10108D01*
X6969Y-10185D01*
X6943Y-10159D01*
X6934Y-10167D01*
X6920Y-10162D01*
X6919Y-10156D01*
X6843Y-10130D01*
X6782Y-10105D01*
X6767Y-10105D01*
X6750Y-10099D01*
X6661Y-10105D01*
X6605Y-10105D01*
X6593Y-10109D01*
X6573Y-10111D01*
X6467Y-10156D01*
X6465Y-10162D01*
X6441Y-10173D01*
X6315Y-10298D01*
X6304Y-10323D01*
X6298Y-10325D01*
X6272Y-10400D01*
X6247Y-10462D01*
X6247Y-10476D01*
X6241Y-10494D01*
X6247Y-10582D01*
X6247Y-10639D01*
X6251Y-10650D01*
X6253Y-10671D01*
X6298Y-10777D01*
X6304Y-10778D01*
X6315Y-10803D01*
X6440Y-10929D01*
X6465Y-10939D01*
X6467Y-10946D01*
X6542Y-10971D01*
X6604Y-10997D01*
X6618Y-10997D01*
X6636Y-11003D01*
X6724Y-10997D01*
X6781Y-10997D01*
X6792Y-10992D01*
X6813Y-10991D01*
X6919Y-10946D01*
X6920Y-10939D01*
X6933Y-10933D01*
X6943Y-10943D01*
X6976Y-10910D01*
X6976Y-10934D01*
X6980Y-10944D01*
X6976Y-10954D01*
X6976Y-11053D01*
X6976Y-11249D01*
X6980Y-11259D01*
X6976Y-11269D01*
X6976Y-11368D01*
X6976Y-11564D01*
X6980Y-11574D01*
X6976Y-11584D01*
X6976Y-11622D01*
X6976Y-11683D01*
X6976Y-11781D01*
X6976Y-11842D01*
X6976Y-11879D01*
X6976Y-11880D01*
X6979Y-11889D01*
X6976Y-11899D01*
X6976Y-11924D01*
X6943Y-11891D01*
X6934Y-11899D01*
X6920Y-11894D01*
X6919Y-11888D01*
X6843Y-11862D01*
X6782Y-11837D01*
X6767Y-11837D01*
X6750Y-11831D01*
X6661Y-11837D01*
X6605Y-11837D01*
X6593Y-11841D01*
X6573Y-11843D01*
X6467Y-11888D01*
X6465Y-11894D01*
X6441Y-11905D01*
X6315Y-12030D01*
X6304Y-12055D01*
X6298Y-12057D01*
X6272Y-12132D01*
X6247Y-12194D01*
X6247Y-12208D01*
X6241Y-12226D01*
X6247Y-12314D01*
X6247Y-12371D01*
X6251Y-12382D01*
X6253Y-12403D01*
X6298Y-12509D01*
X6304Y-12510D01*
X6315Y-12535D01*
X6440Y-12661D01*
X6465Y-12671D01*
X6467Y-12678D01*
X6542Y-12703D01*
X6604Y-12729D01*
X6618Y-12729D01*
X6636Y-12735D01*
X6724Y-12729D01*
X6781Y-12729D01*
X6792Y-12724D01*
X6813Y-12723D01*
X6919Y-12678D01*
X6920Y-12671D01*
X6933Y-12665D01*
X6943Y-12675D01*
X6969Y-12648D01*
X6937Y-12726D01*
X6937Y-12825D01*
X6936Y-13057D01*
X6937Y-13058D01*
X6937Y-13280D01*
X6936Y-13281D01*
X6937Y-13513D01*
X6937Y-13533D01*
X6253Y-13533D01*
X6253Y-13513D01*
X6254Y-13281D01*
X6253Y-13280D01*
X6253Y-13058D01*
X6254Y-13057D01*
X6253Y-12825D01*
X6253Y-12727D01*
X6253Y-12726D01*
X6215Y-12635D01*
X6145Y-12565D01*
X6054Y-12527D01*
X6053Y-12527D01*
X5624Y-12526D01*
X5623Y-12527D01*
X5401Y-12527D01*
X5400Y-12526D01*
X5024Y-12526D01*
X5024Y-10307D01*
X5069Y-10307D01*
X5400Y-10308D01*
X5401Y-10307D01*
X5623Y-10307D01*
X5624Y-10308D01*
X6053Y-10307D01*
X6145Y-10269D01*
X6215Y-10199D01*
X6253Y-10108D01*
X6253Y-10009D01*
X6254Y-9777D01*
X6253Y-9776D01*
X6253Y-9554D01*
X6254Y-9553D01*
X6253Y-9321D01*
X6253Y-9223D01*
X6253Y-9222D01*
X6215Y-9131D01*
X6145Y-9061D01*
X6054Y-9023D01*
X6053Y-9023D01*
X5624Y-9022D01*
X5623Y-9023D01*
X5401Y-9023D01*
X5400Y-9022D01*
X5024Y-9022D01*
X5024Y-7211D01*
X5242Y-6993D01*
X7556Y-6993D01*
X7455Y-7035D01*
X7307Y-7182D01*
X7227Y-7375D01*
X7227Y-7574D01*
X7126Y-7574D01*
X7126Y-7550D01*
X7088Y-7458D01*
X7018Y-7388D01*
X6927Y-7350D01*
X6828Y-7350D01*
X6278Y-7350D01*
X6186Y-7388D01*
X6116Y-7458D01*
X6078Y-7549D01*
X6078Y-7648D01*
X6078Y-7651D01*
X6047Y-7577D01*
X5900Y-7429D01*
X5707Y-7349D01*
X5498Y-7349D01*
X5305Y-7429D01*
X5157Y-7576D01*
X5077Y-7769D01*
X5077Y-7978D01*
X5157Y-8171D01*
X5304Y-8319D01*
X5497Y-8399D01*
X5706Y-8399D01*
X5899Y-8319D01*
X6047Y-8172D01*
X6078Y-8097D01*
X6078Y-8198D01*
X6116Y-8290D01*
X6186Y-8360D01*
X6277Y-8398D01*
X6376Y-8398D01*
X6926Y-8398D01*
X7018Y-8360D01*
X7088Y-8290D01*
X7126Y-8199D01*
X7126Y-8174D01*
X7358Y-8174D01*
X7473Y-8151D01*
X7570Y-8086D01*
X7651Y-8005D01*
X7856Y-8005D01*
X8049Y-7925D01*
X8197Y-7778D01*
X8277Y-7585D01*
X8277Y-7376D01*
X8197Y-7183D01*
X8050Y-7035D01*
X7948Y-6993D01*
X8268Y-6993D01*
X8383Y-6970D01*
X8480Y-6905D01*
X8873Y-6513D01*
X8873Y-6512D01*
X8925Y-6434D01*
X8950Y-6494D01*
X8953Y-6500D01*
X9248Y-6796D01*
X9254Y-6798D01*
X9255Y-6799D01*
X9265Y-6803D01*
X9633Y-6956D01*
X9641Y-6956D01*
X10051Y-6956D01*
X10058Y-6953D01*
X10059Y-6953D01*
X10431Y-6799D01*
X10431Y-6798D01*
X10437Y-6796D01*
X10733Y-6501D01*
X10735Y-6494D01*
X10736Y-6494D01*
X10740Y-6483D01*
X10893Y-6116D01*
X10893Y-6108D01*
X10893Y-5698D01*
X10890Y-5690D01*
X10736Y-5318D01*
X10735Y-5317D01*
X10733Y-5312D01*
X10445Y-5024D01*
X20172Y-5024D01*
X20172Y-13139D01*
G54D10*
G36*
X6695Y-18205D02*
X6301Y-18205D01*
X6306Y-18203D01*
X6376Y-18133D01*
X6414Y-18042D01*
X6414Y-17943D01*
X6414Y-17939D01*
X6445Y-18014D01*
X6592Y-18162D01*
X6695Y-18205D01*
X6695Y-18205D01*
G37*
G54D11*
X6695Y-18205D02*
X6301Y-18205D01*
X6306Y-18203D01*
X6376Y-18133D01*
X6414Y-18042D01*
X6414Y-17943D01*
X6414Y-17939D01*
X6445Y-18014D01*
X6592Y-18162D01*
X6695Y-18205D01*
G54D10*
G36*
X7695Y-18205D02*
X7083Y-18205D01*
X7187Y-18162D01*
X7335Y-18015D01*
X7390Y-17881D01*
X7445Y-18014D01*
X7592Y-18162D01*
X7695Y-18205D01*
X7695Y-18205D01*
G37*
G54D11*
X7695Y-18205D02*
X7083Y-18205D01*
X7187Y-18162D01*
X7335Y-18015D01*
X7390Y-17881D01*
X7445Y-18014D01*
X7592Y-18162D01*
X7695Y-18205D01*
G54D10*
G36*
X8283Y-14062D02*
X8199Y-14027D01*
X8100Y-14027D01*
X7550Y-14027D01*
X7458Y-14065D01*
X7388Y-14135D01*
X7350Y-14226D01*
X7350Y-14325D01*
X7350Y-14875D01*
X7388Y-14967D01*
X7458Y-15037D01*
X7549Y-15075D01*
X7648Y-15075D01*
X7577Y-15106D01*
X7429Y-15253D01*
X7349Y-15446D01*
X7349Y-15651D01*
X6678Y-16323D01*
X6613Y-16420D01*
X6590Y-16535D01*
X6590Y-17274D01*
X6445Y-17419D01*
X6414Y-17493D01*
X6414Y-17393D01*
X6376Y-17301D01*
X6306Y-17231D01*
X6215Y-17193D01*
X6116Y-17193D01*
X5566Y-17193D01*
X5474Y-17231D01*
X5404Y-17301D01*
X5366Y-17392D01*
X5366Y-17491D01*
X5366Y-18041D01*
X5404Y-18133D01*
X5474Y-18203D01*
X5478Y-18205D01*
X5242Y-18205D01*
X5024Y-17987D01*
X5024Y-16153D01*
X5311Y-16441D01*
X5317Y-16443D01*
X5318Y-16444D01*
X5328Y-16448D01*
X5696Y-16601D01*
X5704Y-16601D01*
X6114Y-16601D01*
X6121Y-16598D01*
X6122Y-16598D01*
X6494Y-16444D01*
X6494Y-16443D01*
X6500Y-16441D01*
X6796Y-16146D01*
X6798Y-16139D01*
X6799Y-16139D01*
X6803Y-16128D01*
X6956Y-15761D01*
X6956Y-15753D01*
X6956Y-15343D01*
X6953Y-15335D01*
X6799Y-14963D01*
X6798Y-14962D01*
X6796Y-14957D01*
X6501Y-14661D01*
X6494Y-14658D01*
X6483Y-14653D01*
X6116Y-14501D01*
X6108Y-14501D01*
X5698Y-14501D01*
X5690Y-14503D01*
X5690Y-14504D01*
X5318Y-14658D01*
X5317Y-14658D01*
X5312Y-14661D01*
X5024Y-14948D01*
X5024Y-14026D01*
X8247Y-14026D01*
X8283Y-14062D01*
X8283Y-14062D01*
G37*
G54D11*
X8283Y-14062D02*
X8199Y-14027D01*
X8100Y-14027D01*
X7550Y-14027D01*
X7458Y-14065D01*
X7388Y-14135D01*
X7350Y-14226D01*
X7350Y-14325D01*
X7350Y-14875D01*
X7388Y-14967D01*
X7458Y-15037D01*
X7549Y-15075D01*
X7648Y-15075D01*
X7577Y-15106D01*
X7429Y-15253D01*
X7349Y-15446D01*
X7349Y-15651D01*
X6678Y-16323D01*
X6613Y-16420D01*
X6590Y-16535D01*
X6590Y-17274D01*
X6445Y-17419D01*
X6414Y-17493D01*
X6414Y-17393D01*
X6376Y-17301D01*
X6306Y-17231D01*
X6215Y-17193D01*
X6116Y-17193D01*
X5566Y-17193D01*
X5474Y-17231D01*
X5404Y-17301D01*
X5366Y-17392D01*
X5366Y-17491D01*
X5366Y-18041D01*
X5404Y-18133D01*
X5474Y-18203D01*
X5478Y-18205D01*
X5242Y-18205D01*
X5024Y-17987D01*
X5024Y-16153D01*
X5311Y-16441D01*
X5317Y-16443D01*
X5318Y-16444D01*
X5328Y-16448D01*
X5696Y-16601D01*
X5704Y-16601D01*
X6114Y-16601D01*
X6121Y-16598D01*
X6122Y-16598D01*
X6494Y-16444D01*
X6494Y-16443D01*
X6500Y-16441D01*
X6796Y-16146D01*
X6798Y-16139D01*
X6799Y-16139D01*
X6803Y-16128D01*
X6956Y-15761D01*
X6956Y-15753D01*
X6956Y-15343D01*
X6953Y-15335D01*
X6799Y-14963D01*
X6798Y-14962D01*
X6796Y-14957D01*
X6501Y-14661D01*
X6494Y-14658D01*
X6483Y-14653D01*
X6116Y-14501D01*
X6108Y-14501D01*
X5698Y-14501D01*
X5690Y-14503D01*
X5690Y-14504D01*
X5318Y-14658D01*
X5317Y-14658D01*
X5312Y-14661D01*
X5024Y-14948D01*
X5024Y-14026D01*
X8247Y-14026D01*
X8283Y-14062D01*
G54D10*
G36*
X8477Y-14256D02*
X8449Y-14251D01*
X8398Y-14251D01*
X8398Y-14227D01*
X8362Y-14141D01*
X8477Y-14256D01*
X8477Y-14256D01*
G37*
G54D11*
X8477Y-14256D02*
X8449Y-14251D01*
X8398Y-14251D01*
X8398Y-14227D01*
X8362Y-14141D01*
X8477Y-14256D01*
G54D10*
G36*
X9239Y-20172D02*
X8961Y-20172D01*
X8961Y-19893D01*
X9239Y-20172D01*
X9239Y-20172D01*
G37*
G54D11*
X9239Y-20172D02*
X8961Y-20172D01*
X8961Y-19893D01*
X9239Y-20172D01*
G54D10*
G36*
X12692Y-19167D02*
X12547Y-19312D01*
X12491Y-19445D01*
X12437Y-19313D01*
X12292Y-19167D01*
X12292Y-18427D01*
X12368Y-18351D01*
X12433Y-18195D01*
X12433Y-18026D01*
X12388Y-17918D01*
X12670Y-17918D01*
X12692Y-17939D01*
X12692Y-19167D01*
X12692Y-19167D01*
G37*
G54D11*
X12692Y-19167D02*
X12547Y-19312D01*
X12491Y-19445D01*
X12437Y-19313D01*
X12292Y-19167D01*
X12292Y-18427D01*
X12368Y-18351D01*
X12433Y-18195D01*
X12433Y-18026D01*
X12388Y-17918D01*
X12670Y-17918D01*
X12692Y-17939D01*
X12692Y-19167D01*
G54D10*
G36*
X12858Y-20172D02*
X10446Y-20172D01*
X10733Y-19886D01*
X10735Y-19879D01*
X10736Y-19879D01*
X10740Y-19868D01*
X10893Y-19501D01*
X10893Y-19493D01*
X10893Y-19083D01*
X10890Y-19075D01*
X10736Y-18703D01*
X10735Y-18702D01*
X10733Y-18697D01*
X10438Y-18401D01*
X10431Y-18398D01*
X10420Y-18393D01*
X10053Y-18241D01*
X10045Y-18241D01*
X9635Y-18241D01*
X9627Y-18243D01*
X9627Y-18244D01*
X9255Y-18398D01*
X9254Y-18398D01*
X9249Y-18401D01*
X8953Y-18696D01*
X8950Y-18702D01*
X8950Y-18703D01*
X8945Y-18713D01*
X8925Y-18763D01*
X8924Y-18763D01*
X8873Y-18686D01*
X8873Y-18685D01*
X8480Y-18293D01*
X8383Y-18228D01*
X8268Y-18205D01*
X8083Y-18205D01*
X8187Y-18162D01*
X8335Y-18015D01*
X8415Y-17822D01*
X8415Y-17613D01*
X8335Y-17420D01*
X8188Y-17272D01*
X7995Y-17192D01*
X7786Y-17192D01*
X7593Y-17272D01*
X7445Y-17419D01*
X7389Y-17552D01*
X7335Y-17420D01*
X7190Y-17274D01*
X7190Y-16659D01*
X7349Y-16500D01*
X7349Y-16655D01*
X7429Y-16848D01*
X7576Y-16996D01*
X7769Y-17076D01*
X7978Y-17076D01*
X8171Y-16996D01*
X8319Y-16849D01*
X8399Y-16656D01*
X8399Y-16447D01*
X8319Y-16254D01*
X8172Y-16106D01*
X8038Y-16050D01*
X8171Y-15996D01*
X8319Y-15849D01*
X8399Y-15656D01*
X8399Y-15447D01*
X8319Y-15254D01*
X8172Y-15106D01*
X8097Y-15075D01*
X8198Y-15075D01*
X8290Y-15037D01*
X8360Y-14967D01*
X8383Y-14909D01*
X10330Y-16856D01*
X10330Y-17421D01*
X10353Y-17536D01*
X10418Y-17633D01*
X10614Y-17830D01*
X10615Y-17830D01*
X10712Y-17895D01*
X10827Y-17918D01*
X11627Y-17918D01*
X11583Y-18025D01*
X11583Y-18194D01*
X11647Y-18350D01*
X11692Y-18395D01*
X11692Y-19167D01*
X11547Y-19312D01*
X11467Y-19505D01*
X11467Y-19714D01*
X11547Y-19907D01*
X11694Y-20055D01*
X11887Y-20135D01*
X12096Y-20135D01*
X12289Y-20055D01*
X12437Y-19908D01*
X12492Y-19774D01*
X12547Y-19907D01*
X12694Y-20055D01*
X12776Y-20089D01*
X12780Y-20094D01*
X12858Y-20172D01*
X12858Y-20172D01*
G37*
G54D11*
X12858Y-20172D02*
X10446Y-20172D01*
X10733Y-19886D01*
X10735Y-19879D01*
X10736Y-19879D01*
X10740Y-19868D01*
X10893Y-19501D01*
X10893Y-19493D01*
X10893Y-19083D01*
X10890Y-19075D01*
X10736Y-18703D01*
X10735Y-18702D01*
X10733Y-18697D01*
X10438Y-18401D01*
X10431Y-18398D01*
X10420Y-18393D01*
X10053Y-18241D01*
X10045Y-18241D01*
X9635Y-18241D01*
X9627Y-18243D01*
X9627Y-18244D01*
X9255Y-18398D01*
X9254Y-18398D01*
X9249Y-18401D01*
X8953Y-18696D01*
X8950Y-18702D01*
X8950Y-18703D01*
X8945Y-18713D01*
X8925Y-18763D01*
X8924Y-18763D01*
X8873Y-18686D01*
X8873Y-18685D01*
X8480Y-18293D01*
X8383Y-18228D01*
X8268Y-18205D01*
X8083Y-18205D01*
X8187Y-18162D01*
X8335Y-18015D01*
X8415Y-17822D01*
X8415Y-17613D01*
X8335Y-17420D01*
X8188Y-17272D01*
X7995Y-17192D01*
X7786Y-17192D01*
X7593Y-17272D01*
X7445Y-17419D01*
X7389Y-17552D01*
X7335Y-17420D01*
X7190Y-17274D01*
X7190Y-16659D01*
X7349Y-16500D01*
X7349Y-16655D01*
X7429Y-16848D01*
X7576Y-16996D01*
X7769Y-17076D01*
X7978Y-17076D01*
X8171Y-16996D01*
X8319Y-16849D01*
X8399Y-16656D01*
X8399Y-16447D01*
X8319Y-16254D01*
X8172Y-16106D01*
X8038Y-16050D01*
X8171Y-15996D01*
X8319Y-15849D01*
X8399Y-15656D01*
X8399Y-15447D01*
X8319Y-15254D01*
X8172Y-15106D01*
X8097Y-15075D01*
X8198Y-15075D01*
X8290Y-15037D01*
X8360Y-14967D01*
X8383Y-14909D01*
X10330Y-16856D01*
X10330Y-17421D01*
X10353Y-17536D01*
X10418Y-17633D01*
X10614Y-17830D01*
X10615Y-17830D01*
X10712Y-17895D01*
X10827Y-17918D01*
X11627Y-17918D01*
X11583Y-18025D01*
X11583Y-18194D01*
X11647Y-18350D01*
X11692Y-18395D01*
X11692Y-19167D01*
X11547Y-19312D01*
X11467Y-19505D01*
X11467Y-19714D01*
X11547Y-19907D01*
X11694Y-20055D01*
X11887Y-20135D01*
X12096Y-20135D01*
X12289Y-20055D01*
X12437Y-19908D01*
X12492Y-19774D01*
X12547Y-19907D01*
X12694Y-20055D01*
X12776Y-20089D01*
X12780Y-20094D01*
X12858Y-20172D01*
G54D10*
G36*
X13529Y-19877D02*
X13449Y-19877D01*
X13489Y-19780D01*
X13529Y-19877D01*
X13529Y-19877D01*
G37*
G54D11*
X13529Y-19877D02*
X13449Y-19877D01*
X13489Y-19780D01*
X13529Y-19877D01*
G54D10*
G36*
X16471Y-19877D02*
X16386Y-19877D01*
X16429Y-19774D01*
X16471Y-19877D01*
X16471Y-19877D01*
G37*
G54D11*
X16471Y-19877D02*
X16386Y-19877D01*
X16429Y-19774D01*
X16471Y-19877D01*
G54D10*
G36*
X17466Y-19877D02*
X17386Y-19877D01*
X17426Y-19780D01*
X17466Y-19877D01*
X17466Y-19877D01*
G37*
G54D11*
X17466Y-19877D02*
X17386Y-19877D01*
X17426Y-19780D01*
X17466Y-19877D01*
G54D10*
G36*
X20172Y-13871D02*
X20130Y-13770D01*
X19993Y-13633D01*
X20172Y-13633D01*
X20172Y-13871D01*
X20172Y-13871D01*
G37*
G54D11*
X20172Y-13871D02*
X20130Y-13770D01*
X19993Y-13633D01*
X20172Y-13633D01*
X20172Y-13871D01*
G54D10*
G36*
X20172Y-14653D02*
X20171Y-14651D01*
X20101Y-14581D01*
X20010Y-14543D01*
X19911Y-14543D01*
X19907Y-14543D01*
X19982Y-14512D01*
X20130Y-14365D01*
X20172Y-14263D01*
X20172Y-14653D01*
X20172Y-14653D01*
G37*
G54D11*
X20172Y-14653D02*
X20171Y-14651D01*
X20101Y-14581D01*
X20010Y-14543D01*
X19911Y-14543D01*
X19907Y-14543D01*
X19982Y-14512D01*
X20130Y-14365D01*
X20172Y-14263D01*
X20172Y-14653D01*
G54D10*
G36*
X20172Y-16233D02*
X20130Y-16132D01*
X19983Y-15984D01*
X19790Y-15904D01*
X19581Y-15904D01*
X19388Y-15984D01*
X19240Y-16131D01*
X19160Y-16324D01*
X19160Y-16533D01*
X19240Y-16726D01*
X19387Y-16874D01*
X19461Y-16905D01*
X19361Y-16905D01*
X19269Y-16943D01*
X19199Y-17013D01*
X19161Y-17104D01*
X19161Y-17203D01*
X19161Y-17529D01*
X18880Y-17810D01*
X17618Y-17810D01*
X17503Y-17833D01*
X17406Y-17898D01*
X16717Y-18587D01*
X16652Y-18684D01*
X16629Y-18799D01*
X16629Y-19167D01*
X16484Y-19312D01*
X16428Y-19445D01*
X16374Y-19313D01*
X16229Y-19167D01*
X16229Y-18427D01*
X16305Y-18351D01*
X16370Y-18195D01*
X16370Y-18026D01*
X16306Y-17870D01*
X16186Y-17750D01*
X16030Y-17685D01*
X15861Y-17685D01*
X15705Y-17749D01*
X15585Y-17869D01*
X15520Y-18025D01*
X15520Y-18194D01*
X15584Y-18350D01*
X15629Y-18395D01*
X15629Y-19167D01*
X15484Y-19312D01*
X15404Y-19505D01*
X15404Y-19714D01*
X15471Y-19877D01*
X14453Y-19877D01*
X14478Y-19808D01*
X14517Y-19715D01*
X14517Y-19700D01*
X14522Y-19686D01*
X14517Y-19599D01*
X14517Y-19506D01*
X14510Y-19490D01*
X14510Y-19478D01*
X14452Y-19338D01*
X14446Y-19336D01*
X14437Y-19313D01*
X14290Y-19165D01*
X14265Y-19154D01*
X14264Y-19150D01*
X14190Y-19123D01*
X14097Y-19085D01*
X14082Y-19085D01*
X14068Y-19080D01*
X13981Y-19085D01*
X13888Y-19085D01*
X13872Y-19091D01*
X13860Y-19092D01*
X13720Y-19150D01*
X13718Y-19155D01*
X13695Y-19165D01*
X13547Y-19312D01*
X13536Y-19336D01*
X13532Y-19338D01*
X13505Y-19411D01*
X13491Y-19445D01*
X13437Y-19313D01*
X13292Y-19167D01*
X13292Y-17815D01*
X13269Y-17700D01*
X13204Y-17603D01*
X13204Y-17602D01*
X13171Y-17570D01*
X18751Y-17570D01*
X18751Y-14194D01*
X19312Y-13633D01*
X19376Y-13633D01*
X19240Y-13769D01*
X19160Y-13962D01*
X19160Y-14171D01*
X19240Y-14364D01*
X19387Y-14512D01*
X19461Y-14543D01*
X19361Y-14543D01*
X19269Y-14581D01*
X19199Y-14651D01*
X19161Y-14742D01*
X19161Y-14841D01*
X19161Y-15391D01*
X19199Y-15483D01*
X19269Y-15553D01*
X19360Y-15591D01*
X19459Y-15591D01*
X20009Y-15591D01*
X20101Y-15553D01*
X20171Y-15483D01*
X20172Y-15480D01*
X20172Y-16233D01*
X20172Y-16233D01*
G37*
G54D11*
X20172Y-16233D02*
X20130Y-16132D01*
X19983Y-15984D01*
X19790Y-15904D01*
X19581Y-15904D01*
X19388Y-15984D01*
X19240Y-16131D01*
X19160Y-16324D01*
X19160Y-16533D01*
X19240Y-16726D01*
X19387Y-16874D01*
X19461Y-16905D01*
X19361Y-16905D01*
X19269Y-16943D01*
X19199Y-17013D01*
X19161Y-17104D01*
X19161Y-17203D01*
X19161Y-17529D01*
X18880Y-17810D01*
X17618Y-17810D01*
X17503Y-17833D01*
X17406Y-17898D01*
X16717Y-18587D01*
X16652Y-18684D01*
X16629Y-18799D01*
X16629Y-19167D01*
X16484Y-19312D01*
X16428Y-19445D01*
X16374Y-19313D01*
X16229Y-19167D01*
X16229Y-18427D01*
X16305Y-18351D01*
X16370Y-18195D01*
X16370Y-18026D01*
X16306Y-17870D01*
X16186Y-17750D01*
X16030Y-17685D01*
X15861Y-17685D01*
X15705Y-17749D01*
X15585Y-17869D01*
X15520Y-18025D01*
X15520Y-18194D01*
X15584Y-18350D01*
X15629Y-18395D01*
X15629Y-19167D01*
X15484Y-19312D01*
X15404Y-19505D01*
X15404Y-19714D01*
X15471Y-19877D01*
X14453Y-19877D01*
X14478Y-19808D01*
X14517Y-19715D01*
X14517Y-19700D01*
X14522Y-19686D01*
X14517Y-19599D01*
X14517Y-19506D01*
X14510Y-19490D01*
X14510Y-19478D01*
X14452Y-19338D01*
X14446Y-19336D01*
X14437Y-19313D01*
X14290Y-19165D01*
X14265Y-19154D01*
X14264Y-19150D01*
X14190Y-19123D01*
X14097Y-19085D01*
X14082Y-19085D01*
X14068Y-19080D01*
X13981Y-19085D01*
X13888Y-19085D01*
X13872Y-19091D01*
X13860Y-19092D01*
X13720Y-19150D01*
X13718Y-19155D01*
X13695Y-19165D01*
X13547Y-19312D01*
X13536Y-19336D01*
X13532Y-19338D01*
X13505Y-19411D01*
X13491Y-19445D01*
X13437Y-19313D01*
X13292Y-19167D01*
X13292Y-17815D01*
X13269Y-17700D01*
X13204Y-17603D01*
X13204Y-17602D01*
X13171Y-17570D01*
X18751Y-17570D01*
X18751Y-14194D01*
X19312Y-13633D01*
X19376Y-13633D01*
X19240Y-13769D01*
X19160Y-13962D01*
X19160Y-14171D01*
X19240Y-14364D01*
X19387Y-14512D01*
X19461Y-14543D01*
X19361Y-14543D01*
X19269Y-14581D01*
X19199Y-14651D01*
X19161Y-14742D01*
X19161Y-14841D01*
X19161Y-15391D01*
X19199Y-15483D01*
X19269Y-15553D01*
X19360Y-15591D01*
X19459Y-15591D01*
X20009Y-15591D01*
X20101Y-15553D01*
X20171Y-15483D01*
X20172Y-15480D01*
X20172Y-16233D01*
G54D10*
G36*
X20172Y-17015D02*
X20171Y-17013D01*
X20101Y-16943D01*
X20010Y-16905D01*
X19911Y-16905D01*
X19907Y-16905D01*
X19982Y-16874D01*
X20130Y-16727D01*
X20172Y-16625D01*
X20172Y-17015D01*
X20172Y-17015D01*
G37*
G54D11*
X20172Y-17015D02*
X20171Y-17013D01*
X20101Y-16943D01*
X20010Y-16905D01*
X19911Y-16905D01*
X19907Y-16905D01*
X19982Y-16874D01*
X20130Y-16727D01*
X20172Y-16625D01*
X20172Y-17015D01*
G54D10*
G36*
X20172Y-18595D02*
X20130Y-18494D01*
X19983Y-18346D01*
X19790Y-18266D01*
X19581Y-18266D01*
X19388Y-18346D01*
X19240Y-18493D01*
X19160Y-18686D01*
X19160Y-18895D01*
X19240Y-19088D01*
X19387Y-19236D01*
X19461Y-19267D01*
X19361Y-19267D01*
X19269Y-19305D01*
X19199Y-19375D01*
X19161Y-19466D01*
X19161Y-19565D01*
X19161Y-19877D01*
X18390Y-19877D01*
X18415Y-19808D01*
X18454Y-19715D01*
X18454Y-19700D01*
X18459Y-19686D01*
X18454Y-19599D01*
X18454Y-19506D01*
X18447Y-19490D01*
X18447Y-19478D01*
X18389Y-19338D01*
X18383Y-19336D01*
X18374Y-19313D01*
X18227Y-19165D01*
X18202Y-19154D01*
X18201Y-19150D01*
X18127Y-19123D01*
X18034Y-19085D01*
X18019Y-19085D01*
X18005Y-19080D01*
X17918Y-19085D01*
X17825Y-19085D01*
X17809Y-19091D01*
X17797Y-19092D01*
X17657Y-19150D01*
X17655Y-19155D01*
X17632Y-19165D01*
X17484Y-19312D01*
X17473Y-19336D01*
X17469Y-19338D01*
X17442Y-19411D01*
X17428Y-19445D01*
X17374Y-19313D01*
X17229Y-19167D01*
X17229Y-18923D01*
X17742Y-18410D01*
X19004Y-18410D01*
X19119Y-18387D01*
X19216Y-18322D01*
X19585Y-17953D01*
X20009Y-17953D01*
X20101Y-17915D01*
X20171Y-17845D01*
X20172Y-17842D01*
X20172Y-18595D01*
X20172Y-18595D01*
G37*
G54D11*
X20172Y-18595D02*
X20130Y-18494D01*
X19983Y-18346D01*
X19790Y-18266D01*
X19581Y-18266D01*
X19388Y-18346D01*
X19240Y-18493D01*
X19160Y-18686D01*
X19160Y-18895D01*
X19240Y-19088D01*
X19387Y-19236D01*
X19461Y-19267D01*
X19361Y-19267D01*
X19269Y-19305D01*
X19199Y-19375D01*
X19161Y-19466D01*
X19161Y-19565D01*
X19161Y-19877D01*
X18390Y-19877D01*
X18415Y-19808D01*
X18454Y-19715D01*
X18454Y-19700D01*
X18459Y-19686D01*
X18454Y-19599D01*
X18454Y-19506D01*
X18447Y-19490D01*
X18447Y-19478D01*
X18389Y-19338D01*
X18383Y-19336D01*
X18374Y-19313D01*
X18227Y-19165D01*
X18202Y-19154D01*
X18201Y-19150D01*
X18127Y-19123D01*
X18034Y-19085D01*
X18019Y-19085D01*
X18005Y-19080D01*
X17918Y-19085D01*
X17825Y-19085D01*
X17809Y-19091D01*
X17797Y-19092D01*
X17657Y-19150D01*
X17655Y-19155D01*
X17632Y-19165D01*
X17484Y-19312D01*
X17473Y-19336D01*
X17469Y-19338D01*
X17442Y-19411D01*
X17428Y-19445D01*
X17374Y-19313D01*
X17229Y-19167D01*
X17229Y-18923D01*
X17742Y-18410D01*
X19004Y-18410D01*
X19119Y-18387D01*
X19216Y-18322D01*
X19585Y-17953D01*
X20009Y-17953D01*
X20101Y-17915D01*
X20171Y-17845D01*
X20172Y-17842D01*
X20172Y-18595D01*
G54D10*
G36*
X20172Y-19377D02*
X20171Y-19375D01*
X20101Y-19305D01*
X20010Y-19267D01*
X19911Y-19267D01*
X19907Y-19267D01*
X19982Y-19236D01*
X20130Y-19089D01*
X20172Y-18987D01*
X20172Y-19377D01*
X20172Y-19377D01*
G37*
G54D11*
X20172Y-19377D02*
X20171Y-19375D01*
X20101Y-19305D01*
X20010Y-19267D01*
X19911Y-19267D01*
X19907Y-19267D01*
X19982Y-19236D01*
X20130Y-19089D01*
X20172Y-18987D01*
X20172Y-19377D01*
M02*
