G04 (created by PCBNEW-RS274X (2011-nov-30)-testing) date Sun 23 Sep 2012 15:57:18 CEST*
%MOIN*%
G04 Gerber Fmt 3.4, Leading zero omitted, Abs format*
%FSLAX34Y34*%
G01*
G70*
G90*
G04 APERTURE LIST*
%ADD10C,0.006*%
%ADD11C,0.01*%
%ADD12C,0.012*%
%ADD13C,0.008*%
%ADD14C,0.003*%
%ADD15C,0.005*%
%ADD16C,0.015*%
%ADD17C,0.0099*%
%ADD18C,0.0049*%
%ADD19C,0.0106*%
%ADD20C,0.0107*%
%ADD21C,0.0035*%
%ADD22C,0.0075*%
G04 APERTURE END LIST*
G54D10*
G54D11*
X9449Y-14961D02*
X11023Y-16535D01*
X11024Y-17323D02*
X18504Y-17323D01*
X8268Y-13780D02*
X4921Y-13780D01*
X9449Y-14961D02*
X8268Y-13780D01*
X5974Y-4724D02*
X5950Y-4966D01*
X5879Y-5200D01*
X5765Y-5415D01*
X5610Y-5604D01*
X5422Y-5760D01*
X5208Y-5876D01*
X4975Y-5948D01*
X4732Y-5973D01*
X4490Y-5951D01*
X4256Y-5882D01*
X4040Y-5769D01*
X3850Y-5617D01*
X3693Y-5430D01*
X3576Y-5216D01*
X3502Y-4983D01*
X3475Y-4741D01*
X3495Y-4499D01*
X3562Y-4264D01*
X3674Y-4047D01*
X3825Y-3856D01*
X4011Y-3698D01*
X4224Y-3579D01*
X4456Y-3504D01*
X4698Y-3475D01*
X4941Y-3493D01*
X5176Y-3559D01*
X5393Y-3669D01*
X5586Y-3819D01*
X5745Y-4004D01*
X5865Y-4216D01*
X5942Y-4448D01*
X5973Y-4690D01*
X5974Y-4724D01*
X2224Y-4724D02*
X7224Y-4724D01*
X4724Y-2224D02*
X4724Y-7224D01*
X5974Y-4724D02*
X5950Y-4966D01*
X5879Y-5200D01*
X5765Y-5415D01*
X5610Y-5604D01*
X5422Y-5760D01*
X5208Y-5876D01*
X4975Y-5948D01*
X4732Y-5973D01*
X4490Y-5951D01*
X4256Y-5882D01*
X4040Y-5769D01*
X3850Y-5617D01*
X3693Y-5430D01*
X3576Y-5216D01*
X3502Y-4983D01*
X3475Y-4741D01*
X3495Y-4499D01*
X3562Y-4264D01*
X3674Y-4047D01*
X3825Y-3856D01*
X4011Y-3698D01*
X4224Y-3579D01*
X4456Y-3504D01*
X4698Y-3475D01*
X4941Y-3493D01*
X5176Y-3559D01*
X5393Y-3669D01*
X5586Y-3819D01*
X5745Y-4004D01*
X5865Y-4216D01*
X5942Y-4448D01*
X5973Y-4690D01*
X5974Y-4724D01*
X2224Y-4724D02*
X7224Y-4724D01*
X4724Y-2224D02*
X4724Y-7224D01*
X19291Y-13386D02*
X20079Y-13386D01*
X18504Y-14173D02*
X19291Y-13386D01*
X18504Y-17323D02*
X18504Y-14173D01*
X11023Y-16535D02*
X11023Y-17323D01*
X4724Y-18111D02*
X4724Y-7087D01*
X5118Y-18505D02*
X4724Y-18111D01*
X8268Y-18505D02*
X5118Y-18505D01*
X8661Y-18898D02*
X8268Y-18505D01*
X8661Y-20472D02*
X8661Y-18898D01*
X20472Y-20472D02*
X8661Y-20472D01*
X20472Y-4724D02*
X20472Y-20472D01*
X8661Y-4724D02*
X20472Y-4724D01*
X8661Y-6300D02*
X8661Y-4724D01*
X8268Y-6693D02*
X8661Y-6300D01*
X5118Y-6693D02*
X8268Y-6693D01*
X4724Y-7087D02*
X5118Y-6693D01*
G54D12*
X7374Y-14051D02*
X8374Y-14051D01*
X8374Y-14051D02*
X8374Y-17051D01*
X8374Y-17051D02*
X7374Y-17051D01*
X7374Y-17051D02*
X7374Y-14051D01*
X8374Y-15051D02*
X7374Y-15051D01*
X12689Y-7752D02*
X13689Y-7752D01*
X13689Y-7752D02*
X13689Y-10752D01*
X13689Y-10752D02*
X12689Y-10752D01*
X12689Y-10752D02*
X12689Y-7752D01*
X13689Y-8752D02*
X12689Y-8752D01*
X20185Y-15567D02*
X19185Y-15567D01*
X19185Y-15567D02*
X19185Y-13567D01*
X19185Y-13567D02*
X20185Y-13567D01*
X20185Y-13567D02*
X20185Y-15567D01*
X20185Y-17929D02*
X19185Y-17929D01*
X19185Y-17929D02*
X19185Y-15929D01*
X19185Y-15929D02*
X20185Y-15929D01*
X20185Y-15929D02*
X20185Y-17929D01*
X20185Y-20291D02*
X19185Y-20291D01*
X19185Y-20291D02*
X19185Y-18291D01*
X19185Y-18291D02*
X20185Y-18291D01*
X20185Y-18291D02*
X20185Y-20291D01*
G54D13*
X16610Y-8661D02*
X16810Y-8661D01*
X19610Y-8661D02*
X19410Y-8661D01*
X19410Y-8661D02*
X19410Y-8261D01*
X19410Y-8261D02*
X16810Y-8261D01*
X16810Y-8261D02*
X16810Y-9061D01*
X16810Y-9061D02*
X19410Y-9061D01*
X19410Y-9061D02*
X19410Y-8661D01*
X16810Y-8461D02*
X17010Y-8261D01*
X19610Y-12598D02*
X19410Y-12598D01*
X16610Y-12598D02*
X16810Y-12598D01*
X16810Y-12598D02*
X16810Y-12998D01*
X16810Y-12998D02*
X19410Y-12998D01*
X19410Y-12998D02*
X19410Y-12198D01*
X19410Y-12198D02*
X16810Y-12198D01*
X16810Y-12198D02*
X16810Y-12598D01*
X19410Y-12798D02*
X19210Y-12998D01*
X19610Y-11614D02*
X19410Y-11614D01*
X16610Y-11614D02*
X16810Y-11614D01*
X16810Y-11614D02*
X16810Y-12014D01*
X16810Y-12014D02*
X19410Y-12014D01*
X19410Y-12014D02*
X19410Y-11214D01*
X19410Y-11214D02*
X16810Y-11214D01*
X16810Y-11214D02*
X16810Y-11614D01*
X19410Y-11814D02*
X19210Y-12014D01*
X19610Y-10630D02*
X19410Y-10630D01*
X16610Y-10630D02*
X16810Y-10630D01*
X16810Y-10630D02*
X16810Y-11030D01*
X16810Y-11030D02*
X19410Y-11030D01*
X19410Y-11030D02*
X19410Y-10230D01*
X19410Y-10230D02*
X16810Y-10230D01*
X16810Y-10230D02*
X16810Y-10630D01*
X19410Y-10830D02*
X19210Y-11030D01*
X10752Y-7480D02*
X10552Y-7480D01*
X7752Y-7480D02*
X7952Y-7480D01*
X7952Y-7480D02*
X7952Y-7880D01*
X7952Y-7880D02*
X10552Y-7880D01*
X10552Y-7880D02*
X10552Y-7080D01*
X10552Y-7080D02*
X7952Y-7080D01*
X7952Y-7080D02*
X7952Y-7480D01*
X10552Y-7680D02*
X10352Y-7880D01*
X16610Y-9646D02*
X16810Y-9646D01*
X19610Y-9646D02*
X19410Y-9646D01*
X19410Y-9646D02*
X19410Y-9246D01*
X19410Y-9246D02*
X16810Y-9246D01*
X16810Y-9246D02*
X16810Y-10046D01*
X16810Y-10046D02*
X19410Y-10046D01*
X19410Y-10046D02*
X19410Y-9646D01*
X16810Y-9446D02*
X17010Y-9246D01*
X14370Y-13902D02*
X14370Y-13702D01*
X14370Y-10902D02*
X14370Y-11102D01*
X14370Y-11102D02*
X13970Y-11102D01*
X13970Y-11102D02*
X13970Y-13702D01*
X13970Y-13702D02*
X14770Y-13702D01*
X14770Y-13702D02*
X14770Y-11102D01*
X14770Y-11102D02*
X14370Y-11102D01*
X14170Y-13702D02*
X13970Y-13502D01*
X15551Y-13902D02*
X15551Y-13702D01*
X15551Y-10902D02*
X15551Y-11102D01*
X15551Y-11102D02*
X15151Y-11102D01*
X15151Y-11102D02*
X15151Y-13702D01*
X15151Y-13702D02*
X15951Y-13702D01*
X15951Y-13702D02*
X15951Y-11102D01*
X15951Y-11102D02*
X15551Y-11102D01*
X15351Y-13702D02*
X15151Y-13502D01*
X11848Y-7419D02*
X13348Y-7419D01*
G54D14*
X13305Y-6399D02*
X13291Y-6536D01*
X13251Y-6668D01*
X13186Y-6790D01*
X13099Y-6897D01*
X12993Y-6985D01*
X12871Y-7050D01*
X12740Y-7091D01*
X12602Y-7105D01*
X12466Y-7093D01*
X12334Y-7054D01*
X12211Y-6990D01*
X12104Y-6904D01*
X12015Y-6798D01*
X11949Y-6677D01*
X11907Y-6545D01*
X11892Y-6408D01*
X11903Y-6272D01*
X11941Y-6139D01*
X12004Y-6017D01*
X12090Y-5908D01*
X12195Y-5819D01*
X12315Y-5752D01*
X12447Y-5709D01*
X12584Y-5693D01*
X12720Y-5703D01*
X12853Y-5740D01*
X12976Y-5803D01*
X13085Y-5888D01*
X13175Y-5992D01*
X13243Y-6112D01*
X13287Y-6243D01*
X13304Y-6380D01*
X13305Y-6399D01*
G54D11*
X13348Y-7398D02*
X13432Y-7329D01*
X13510Y-7253D01*
X13581Y-7170D01*
X13645Y-7081D01*
X13700Y-6987D01*
X13747Y-6889D01*
X13786Y-6787D01*
X13815Y-6682D01*
X13835Y-6575D01*
X13846Y-6466D01*
X13847Y-6358D01*
X13838Y-6249D01*
X13821Y-6142D01*
X13794Y-6036D01*
X13757Y-5933D01*
X13712Y-5834D01*
X13659Y-5739D01*
X13597Y-5649D01*
X13528Y-5565D01*
X13452Y-5487D01*
X13369Y-5416D01*
X13280Y-5352D01*
X13186Y-5297D01*
X13088Y-5250D01*
X12986Y-5211D01*
X12881Y-5182D01*
X12774Y-5162D01*
X12665Y-5151D01*
X12557Y-5150D01*
X12448Y-5159D01*
X12341Y-5176D01*
X12235Y-5203D01*
X12132Y-5240D01*
X12033Y-5285D01*
X11938Y-5338D01*
X11848Y-5400D01*
X11764Y-5469D01*
X11686Y-5545D01*
X11615Y-5628D01*
X11551Y-5717D01*
X11496Y-5811D01*
X11449Y-5909D01*
X11410Y-6011D01*
X11381Y-6116D01*
X11361Y-6223D01*
X11350Y-6332D01*
X11349Y-6440D01*
X11358Y-6549D01*
X11375Y-6656D01*
X11402Y-6762D01*
X11439Y-6865D01*
X11484Y-6964D01*
X11537Y-7059D01*
X11599Y-7149D01*
X11668Y-7233D01*
X11744Y-7311D01*
X11827Y-7382D01*
X11848Y-7398D01*
G54D10*
X13048Y-6399D02*
X13046Y-6360D01*
X13041Y-6321D01*
X13032Y-6283D01*
X13020Y-6246D01*
X13005Y-6209D01*
X12987Y-6175D01*
X12966Y-6141D01*
X12942Y-6110D01*
X12916Y-6081D01*
X12887Y-6055D01*
X12856Y-6031D01*
X12823Y-6010D01*
X12788Y-5992D01*
X12751Y-5977D01*
X12714Y-5965D01*
X12676Y-5956D01*
X12637Y-5951D01*
X12598Y-5949D01*
X12148Y-6399D02*
X12150Y-6438D01*
X12155Y-6477D01*
X12164Y-6515D01*
X12176Y-6552D01*
X12191Y-6589D01*
X12209Y-6623D01*
X12230Y-6657D01*
X12254Y-6688D01*
X12280Y-6717D01*
X12309Y-6743D01*
X12340Y-6767D01*
X12374Y-6788D01*
X12408Y-6806D01*
X12445Y-6821D01*
X12482Y-6833D01*
X12520Y-6842D01*
X12559Y-6847D01*
X12598Y-6849D01*
X13248Y-6399D02*
X13245Y-6343D01*
X13238Y-6287D01*
X13225Y-6231D01*
X13208Y-6177D01*
X13187Y-6125D01*
X13160Y-6075D01*
X13130Y-6027D01*
X13095Y-5982D01*
X13057Y-5940D01*
X13015Y-5902D01*
X12970Y-5867D01*
X12923Y-5837D01*
X12872Y-5810D01*
X12820Y-5789D01*
X12766Y-5772D01*
X12710Y-5759D01*
X12654Y-5752D01*
X12598Y-5749D01*
X11948Y-6399D02*
X11951Y-6455D01*
X11958Y-6511D01*
X11971Y-6567D01*
X11988Y-6621D01*
X12009Y-6673D01*
X12036Y-6723D01*
X12066Y-6771D01*
X12101Y-6816D01*
X12139Y-6858D01*
X12181Y-6896D01*
X12226Y-6931D01*
X12274Y-6961D01*
X12324Y-6988D01*
X12376Y-7009D01*
X12430Y-7026D01*
X12486Y-7039D01*
X12542Y-7046D01*
X12598Y-7049D01*
X13448Y-6399D02*
X13444Y-6325D01*
X13435Y-6252D01*
X13419Y-6180D01*
X13396Y-6109D01*
X13368Y-6040D01*
X13334Y-5975D01*
X13294Y-5912D01*
X13249Y-5853D01*
X13199Y-5798D01*
X13144Y-5748D01*
X13085Y-5703D01*
X13023Y-5663D01*
X12957Y-5629D01*
X12888Y-5601D01*
X12817Y-5578D01*
X12745Y-5562D01*
X12672Y-5553D01*
X12598Y-5549D01*
X11748Y-6399D02*
X11752Y-6473D01*
X11761Y-6546D01*
X11777Y-6618D01*
X11800Y-6689D01*
X11828Y-6758D01*
X11862Y-6823D01*
X11902Y-6886D01*
X11947Y-6945D01*
X11997Y-7000D01*
X12052Y-7050D01*
X12111Y-7095D01*
X12174Y-7135D01*
X12239Y-7169D01*
X12308Y-7197D01*
X12379Y-7220D01*
X12451Y-7236D01*
X12524Y-7245D01*
X12598Y-7249D01*
G54D13*
X18148Y-7419D02*
X19648Y-7419D01*
G54D14*
X19605Y-6399D02*
X19591Y-6536D01*
X19551Y-6668D01*
X19486Y-6790D01*
X19399Y-6897D01*
X19293Y-6985D01*
X19171Y-7050D01*
X19040Y-7091D01*
X18902Y-7105D01*
X18766Y-7093D01*
X18634Y-7054D01*
X18511Y-6990D01*
X18404Y-6904D01*
X18315Y-6798D01*
X18249Y-6677D01*
X18207Y-6545D01*
X18192Y-6408D01*
X18203Y-6272D01*
X18241Y-6139D01*
X18304Y-6017D01*
X18390Y-5908D01*
X18495Y-5819D01*
X18615Y-5752D01*
X18747Y-5709D01*
X18884Y-5693D01*
X19020Y-5703D01*
X19153Y-5740D01*
X19276Y-5803D01*
X19385Y-5888D01*
X19475Y-5992D01*
X19543Y-6112D01*
X19587Y-6243D01*
X19604Y-6380D01*
X19605Y-6399D01*
G54D11*
X19648Y-7398D02*
X19732Y-7329D01*
X19810Y-7253D01*
X19881Y-7170D01*
X19945Y-7081D01*
X20000Y-6987D01*
X20047Y-6889D01*
X20086Y-6787D01*
X20115Y-6682D01*
X20135Y-6575D01*
X20146Y-6466D01*
X20147Y-6358D01*
X20138Y-6249D01*
X20121Y-6142D01*
X20094Y-6036D01*
X20057Y-5933D01*
X20012Y-5834D01*
X19959Y-5739D01*
X19897Y-5649D01*
X19828Y-5565D01*
X19752Y-5487D01*
X19669Y-5416D01*
X19580Y-5352D01*
X19486Y-5297D01*
X19388Y-5250D01*
X19286Y-5211D01*
X19181Y-5182D01*
X19074Y-5162D01*
X18965Y-5151D01*
X18857Y-5150D01*
X18748Y-5159D01*
X18641Y-5176D01*
X18535Y-5203D01*
X18432Y-5240D01*
X18333Y-5285D01*
X18238Y-5338D01*
X18148Y-5400D01*
X18064Y-5469D01*
X17986Y-5545D01*
X17915Y-5628D01*
X17851Y-5717D01*
X17796Y-5811D01*
X17749Y-5909D01*
X17710Y-6011D01*
X17681Y-6116D01*
X17661Y-6223D01*
X17650Y-6332D01*
X17649Y-6440D01*
X17658Y-6549D01*
X17675Y-6656D01*
X17702Y-6762D01*
X17739Y-6865D01*
X17784Y-6964D01*
X17837Y-7059D01*
X17899Y-7149D01*
X17968Y-7233D01*
X18044Y-7311D01*
X18127Y-7382D01*
X18148Y-7398D01*
G54D10*
X19348Y-6399D02*
X19346Y-6360D01*
X19341Y-6321D01*
X19332Y-6283D01*
X19320Y-6246D01*
X19305Y-6209D01*
X19287Y-6175D01*
X19266Y-6141D01*
X19242Y-6110D01*
X19216Y-6081D01*
X19187Y-6055D01*
X19156Y-6031D01*
X19123Y-6010D01*
X19088Y-5992D01*
X19051Y-5977D01*
X19014Y-5965D01*
X18976Y-5956D01*
X18937Y-5951D01*
X18898Y-5949D01*
X18448Y-6399D02*
X18450Y-6438D01*
X18455Y-6477D01*
X18464Y-6515D01*
X18476Y-6552D01*
X18491Y-6589D01*
X18509Y-6623D01*
X18530Y-6657D01*
X18554Y-6688D01*
X18580Y-6717D01*
X18609Y-6743D01*
X18640Y-6767D01*
X18674Y-6788D01*
X18708Y-6806D01*
X18745Y-6821D01*
X18782Y-6833D01*
X18820Y-6842D01*
X18859Y-6847D01*
X18898Y-6849D01*
X19548Y-6399D02*
X19545Y-6343D01*
X19538Y-6287D01*
X19525Y-6231D01*
X19508Y-6177D01*
X19487Y-6125D01*
X19460Y-6075D01*
X19430Y-6027D01*
X19395Y-5982D01*
X19357Y-5940D01*
X19315Y-5902D01*
X19270Y-5867D01*
X19223Y-5837D01*
X19172Y-5810D01*
X19120Y-5789D01*
X19066Y-5772D01*
X19010Y-5759D01*
X18954Y-5752D01*
X18898Y-5749D01*
X18248Y-6399D02*
X18251Y-6455D01*
X18258Y-6511D01*
X18271Y-6567D01*
X18288Y-6621D01*
X18309Y-6673D01*
X18336Y-6723D01*
X18366Y-6771D01*
X18401Y-6816D01*
X18439Y-6858D01*
X18481Y-6896D01*
X18526Y-6931D01*
X18574Y-6961D01*
X18624Y-6988D01*
X18676Y-7009D01*
X18730Y-7026D01*
X18786Y-7039D01*
X18842Y-7046D01*
X18898Y-7049D01*
X19748Y-6399D02*
X19744Y-6325D01*
X19735Y-6252D01*
X19719Y-6180D01*
X19696Y-6109D01*
X19668Y-6040D01*
X19634Y-5975D01*
X19594Y-5912D01*
X19549Y-5853D01*
X19499Y-5798D01*
X19444Y-5748D01*
X19385Y-5703D01*
X19323Y-5663D01*
X19257Y-5629D01*
X19188Y-5601D01*
X19117Y-5578D01*
X19045Y-5562D01*
X18972Y-5553D01*
X18898Y-5549D01*
X18048Y-6399D02*
X18052Y-6473D01*
X18061Y-6546D01*
X18077Y-6618D01*
X18100Y-6689D01*
X18128Y-6758D01*
X18162Y-6823D01*
X18202Y-6886D01*
X18247Y-6945D01*
X18297Y-7000D01*
X18352Y-7050D01*
X18411Y-7095D01*
X18474Y-7135D01*
X18539Y-7169D01*
X18608Y-7197D01*
X18679Y-7220D01*
X18751Y-7236D01*
X18824Y-7245D01*
X18898Y-7249D01*
G54D13*
X14998Y-7419D02*
X16498Y-7419D01*
G54D14*
X16455Y-6399D02*
X16441Y-6536D01*
X16401Y-6668D01*
X16336Y-6790D01*
X16249Y-6897D01*
X16143Y-6985D01*
X16021Y-7050D01*
X15890Y-7091D01*
X15752Y-7105D01*
X15616Y-7093D01*
X15484Y-7054D01*
X15361Y-6990D01*
X15254Y-6904D01*
X15165Y-6798D01*
X15099Y-6677D01*
X15057Y-6545D01*
X15042Y-6408D01*
X15053Y-6272D01*
X15091Y-6139D01*
X15154Y-6017D01*
X15240Y-5908D01*
X15345Y-5819D01*
X15465Y-5752D01*
X15597Y-5709D01*
X15734Y-5693D01*
X15870Y-5703D01*
X16003Y-5740D01*
X16126Y-5803D01*
X16235Y-5888D01*
X16325Y-5992D01*
X16393Y-6112D01*
X16437Y-6243D01*
X16454Y-6380D01*
X16455Y-6399D01*
G54D11*
X16498Y-7398D02*
X16582Y-7329D01*
X16660Y-7253D01*
X16731Y-7170D01*
X16795Y-7081D01*
X16850Y-6987D01*
X16897Y-6889D01*
X16936Y-6787D01*
X16965Y-6682D01*
X16985Y-6575D01*
X16996Y-6466D01*
X16997Y-6358D01*
X16988Y-6249D01*
X16971Y-6142D01*
X16944Y-6036D01*
X16907Y-5933D01*
X16862Y-5834D01*
X16809Y-5739D01*
X16747Y-5649D01*
X16678Y-5565D01*
X16602Y-5487D01*
X16519Y-5416D01*
X16430Y-5352D01*
X16336Y-5297D01*
X16238Y-5250D01*
X16136Y-5211D01*
X16031Y-5182D01*
X15924Y-5162D01*
X15815Y-5151D01*
X15707Y-5150D01*
X15598Y-5159D01*
X15491Y-5176D01*
X15385Y-5203D01*
X15282Y-5240D01*
X15183Y-5285D01*
X15088Y-5338D01*
X14998Y-5400D01*
X14914Y-5469D01*
X14836Y-5545D01*
X14765Y-5628D01*
X14701Y-5717D01*
X14646Y-5811D01*
X14599Y-5909D01*
X14560Y-6011D01*
X14531Y-6116D01*
X14511Y-6223D01*
X14500Y-6332D01*
X14499Y-6440D01*
X14508Y-6549D01*
X14525Y-6656D01*
X14552Y-6762D01*
X14589Y-6865D01*
X14634Y-6964D01*
X14687Y-7059D01*
X14749Y-7149D01*
X14818Y-7233D01*
X14894Y-7311D01*
X14977Y-7382D01*
X14998Y-7398D01*
G54D10*
X16198Y-6399D02*
X16196Y-6360D01*
X16191Y-6321D01*
X16182Y-6283D01*
X16170Y-6246D01*
X16155Y-6209D01*
X16137Y-6175D01*
X16116Y-6141D01*
X16092Y-6110D01*
X16066Y-6081D01*
X16037Y-6055D01*
X16006Y-6031D01*
X15973Y-6010D01*
X15938Y-5992D01*
X15901Y-5977D01*
X15864Y-5965D01*
X15826Y-5956D01*
X15787Y-5951D01*
X15748Y-5949D01*
X15298Y-6399D02*
X15300Y-6438D01*
X15305Y-6477D01*
X15314Y-6515D01*
X15326Y-6552D01*
X15341Y-6589D01*
X15359Y-6623D01*
X15380Y-6657D01*
X15404Y-6688D01*
X15430Y-6717D01*
X15459Y-6743D01*
X15490Y-6767D01*
X15524Y-6788D01*
X15558Y-6806D01*
X15595Y-6821D01*
X15632Y-6833D01*
X15670Y-6842D01*
X15709Y-6847D01*
X15748Y-6849D01*
X16398Y-6399D02*
X16395Y-6343D01*
X16388Y-6287D01*
X16375Y-6231D01*
X16358Y-6177D01*
X16337Y-6125D01*
X16310Y-6075D01*
X16280Y-6027D01*
X16245Y-5982D01*
X16207Y-5940D01*
X16165Y-5902D01*
X16120Y-5867D01*
X16073Y-5837D01*
X16022Y-5810D01*
X15970Y-5789D01*
X15916Y-5772D01*
X15860Y-5759D01*
X15804Y-5752D01*
X15748Y-5749D01*
X15098Y-6399D02*
X15101Y-6455D01*
X15108Y-6511D01*
X15121Y-6567D01*
X15138Y-6621D01*
X15159Y-6673D01*
X15186Y-6723D01*
X15216Y-6771D01*
X15251Y-6816D01*
X15289Y-6858D01*
X15331Y-6896D01*
X15376Y-6931D01*
X15424Y-6961D01*
X15474Y-6988D01*
X15526Y-7009D01*
X15580Y-7026D01*
X15636Y-7039D01*
X15692Y-7046D01*
X15748Y-7049D01*
X16598Y-6399D02*
X16594Y-6325D01*
X16585Y-6252D01*
X16569Y-6180D01*
X16546Y-6109D01*
X16518Y-6040D01*
X16484Y-5975D01*
X16444Y-5912D01*
X16399Y-5853D01*
X16349Y-5798D01*
X16294Y-5748D01*
X16235Y-5703D01*
X16173Y-5663D01*
X16107Y-5629D01*
X16038Y-5601D01*
X15967Y-5578D01*
X15895Y-5562D01*
X15822Y-5553D01*
X15748Y-5549D01*
X14898Y-6399D02*
X14902Y-6473D01*
X14911Y-6546D01*
X14927Y-6618D01*
X14950Y-6689D01*
X14978Y-6758D01*
X15012Y-6823D01*
X15052Y-6886D01*
X15097Y-6945D01*
X15147Y-7000D01*
X15202Y-7050D01*
X15261Y-7095D01*
X15324Y-7135D01*
X15389Y-7169D01*
X15458Y-7197D01*
X15529Y-7220D01*
X15601Y-7236D01*
X15674Y-7245D01*
X15748Y-7249D01*
G54D15*
X7103Y-7874D02*
X7083Y-8068D01*
X7027Y-8255D01*
X6935Y-8427D01*
X6812Y-8579D01*
X6661Y-8703D01*
X6489Y-8796D01*
X6303Y-8854D01*
X6108Y-8874D01*
X5915Y-8857D01*
X5728Y-8802D01*
X5554Y-8711D01*
X5402Y-8589D01*
X5277Y-8439D01*
X5182Y-8268D01*
X5123Y-8082D01*
X5102Y-7887D01*
X5118Y-7694D01*
X5172Y-7506D01*
X5261Y-7332D01*
X5382Y-7179D01*
X5531Y-7053D01*
X5702Y-6957D01*
X5888Y-6897D01*
X6082Y-6874D01*
X6275Y-6889D01*
X6463Y-6941D01*
X6638Y-7029D01*
X6792Y-7150D01*
X6919Y-7297D01*
X7016Y-7467D01*
X7078Y-7653D01*
X7102Y-7847D01*
X7103Y-7874D01*
G54D12*
X9650Y-13673D02*
X11630Y-13673D01*
X11630Y-13673D02*
X11630Y-14673D01*
X11630Y-14673D02*
X9630Y-14673D01*
X9630Y-14673D02*
X9630Y-13673D01*
X9630Y-13923D02*
X9880Y-13673D01*
X14386Y-14870D02*
X12886Y-13370D01*
X12886Y-13370D02*
X12386Y-13370D01*
X12386Y-13370D02*
X11886Y-13870D01*
X11886Y-13870D02*
X11886Y-14870D01*
X11886Y-14870D02*
X12886Y-15870D01*
X12886Y-15870D02*
X13886Y-15870D01*
X13886Y-15870D02*
X14386Y-15370D01*
X14386Y-15370D02*
X14386Y-14870D01*
X17035Y-13370D02*
X15535Y-14870D01*
X15535Y-14870D02*
X15535Y-15370D01*
X15535Y-15370D02*
X16035Y-15870D01*
X16035Y-15870D02*
X17035Y-15870D01*
X17035Y-15870D02*
X18035Y-14870D01*
X18035Y-14870D02*
X18035Y-13870D01*
X18035Y-13870D02*
X17535Y-13370D01*
X17535Y-13370D02*
X17035Y-13370D01*
G54D16*
X10743Y-19291D02*
X10725Y-19465D01*
X10675Y-19633D01*
X10592Y-19789D01*
X10481Y-19925D01*
X10346Y-20037D01*
X10191Y-20120D01*
X10023Y-20172D01*
X9849Y-20190D01*
X9675Y-20175D01*
X9506Y-20125D01*
X9351Y-20044D01*
X9214Y-19934D01*
X9101Y-19799D01*
X9016Y-19645D01*
X8963Y-19478D01*
X8944Y-19303D01*
X8958Y-19129D01*
X9007Y-18960D01*
X9087Y-18804D01*
X9196Y-18666D01*
X9330Y-18552D01*
X9483Y-18467D01*
X9650Y-18412D01*
X9825Y-18392D01*
X9999Y-18405D01*
X10168Y-18452D01*
X10325Y-18532D01*
X10463Y-18640D01*
X10578Y-18773D01*
X10665Y-18925D01*
X10720Y-19092D01*
X10742Y-19266D01*
X10743Y-19291D01*
X10743Y-5906D02*
X10725Y-6080D01*
X10675Y-6248D01*
X10592Y-6404D01*
X10481Y-6540D01*
X10346Y-6652D01*
X10191Y-6735D01*
X10023Y-6787D01*
X9849Y-6805D01*
X9675Y-6790D01*
X9506Y-6740D01*
X9351Y-6659D01*
X9214Y-6549D01*
X9101Y-6414D01*
X9016Y-6260D01*
X8963Y-6093D01*
X8944Y-5918D01*
X8958Y-5744D01*
X9007Y-5575D01*
X9087Y-5419D01*
X9196Y-5281D01*
X9330Y-5167D01*
X9483Y-5082D01*
X9650Y-5027D01*
X9825Y-5007D01*
X9999Y-5020D01*
X10168Y-5067D01*
X10325Y-5147D01*
X10463Y-5255D01*
X10578Y-5388D01*
X10665Y-5540D01*
X10720Y-5707D01*
X10742Y-5881D01*
X10743Y-5906D01*
X6806Y-15551D02*
X6788Y-15725D01*
X6738Y-15893D01*
X6655Y-16049D01*
X6544Y-16185D01*
X6409Y-16297D01*
X6254Y-16380D01*
X6086Y-16432D01*
X5912Y-16450D01*
X5738Y-16435D01*
X5569Y-16385D01*
X5414Y-16304D01*
X5277Y-16194D01*
X5164Y-16059D01*
X5079Y-15905D01*
X5026Y-15738D01*
X5007Y-15563D01*
X5021Y-15389D01*
X5070Y-15220D01*
X5150Y-15064D01*
X5259Y-14926D01*
X5393Y-14812D01*
X5546Y-14727D01*
X5713Y-14672D01*
X5888Y-14652D01*
X6062Y-14665D01*
X6231Y-14712D01*
X6388Y-14792D01*
X6526Y-14900D01*
X6641Y-15033D01*
X6728Y-15185D01*
X6783Y-15352D01*
X6805Y-15526D01*
X6806Y-15551D01*
G54D12*
X5390Y-18217D02*
X5390Y-17217D01*
X5390Y-17217D02*
X8390Y-17217D01*
X8390Y-17217D02*
X8390Y-18217D01*
X8390Y-18217D02*
X5390Y-18217D01*
X6390Y-17217D02*
X6390Y-18217D01*
G54D16*
X14742Y-19110D02*
X11242Y-19110D01*
X11242Y-19110D02*
X11242Y-17110D01*
X11242Y-17110D02*
X14742Y-17110D01*
X14742Y-17110D02*
X14742Y-19110D01*
X14742Y-18360D02*
X14242Y-18360D01*
X14242Y-18360D02*
X14242Y-17860D01*
X14242Y-17860D02*
X14742Y-17860D01*
X18679Y-19110D02*
X15179Y-19110D01*
X15179Y-19110D02*
X15179Y-17110D01*
X15179Y-17110D02*
X18679Y-17110D01*
X18679Y-17110D02*
X18679Y-19110D01*
X18679Y-18360D02*
X18179Y-18360D01*
X18179Y-18360D02*
X18179Y-17860D01*
X18179Y-17860D02*
X18679Y-17860D01*
G54D17*
X5381Y-11182D02*
X5381Y-11464D01*
X5363Y-11520D01*
X5325Y-11558D01*
X5269Y-11576D01*
X5231Y-11576D01*
X5775Y-11576D02*
X5550Y-11576D01*
X5663Y-11576D02*
X5663Y-11182D01*
X5625Y-11239D01*
X5588Y-11276D01*
X5550Y-11295D01*
G54D18*
X5885Y-11300D02*
X5885Y-11459D01*
X5894Y-11478D01*
X5903Y-11487D01*
X5922Y-11496D01*
X5959Y-11496D01*
X5978Y-11487D01*
X5987Y-11478D01*
X5997Y-11459D01*
X5997Y-11300D01*
X6080Y-11487D02*
X6108Y-11496D01*
X6155Y-11496D01*
X6174Y-11487D01*
X6183Y-11478D01*
X6192Y-11459D01*
X6192Y-11440D01*
X6183Y-11422D01*
X6174Y-11412D01*
X6155Y-11403D01*
X6118Y-11394D01*
X6099Y-11384D01*
X6090Y-11375D01*
X6080Y-11356D01*
X6080Y-11338D01*
X6090Y-11319D01*
X6099Y-11310D01*
X6118Y-11300D01*
X6164Y-11300D01*
X6192Y-11310D01*
X6342Y-11394D02*
X6370Y-11403D01*
X6379Y-11412D01*
X6389Y-11431D01*
X6389Y-11459D01*
X6379Y-11478D01*
X6370Y-11487D01*
X6351Y-11496D01*
X6277Y-11496D01*
X6277Y-11300D01*
X6342Y-11300D01*
X6361Y-11310D01*
X6370Y-11319D01*
X6379Y-11338D01*
X6379Y-11356D01*
X6370Y-11375D01*
X6361Y-11384D01*
X6342Y-11394D01*
X6277Y-11394D01*
X6575Y-11496D02*
X6463Y-11496D01*
X6519Y-11496D02*
X6519Y-11300D01*
X6501Y-11328D01*
X6482Y-11347D01*
X6463Y-11356D01*
X6762Y-11496D02*
X6650Y-11496D01*
X6706Y-11496D02*
X6706Y-11300D01*
X6688Y-11328D01*
X6669Y-11347D01*
X6650Y-11356D01*
X6837Y-11319D02*
X6847Y-11310D01*
X6865Y-11300D01*
X6912Y-11300D01*
X6931Y-11310D01*
X6940Y-11319D01*
X6949Y-11338D01*
X6949Y-11356D01*
X6940Y-11384D01*
X6828Y-11496D01*
X6949Y-11496D01*
X7024Y-11440D02*
X7118Y-11440D01*
X7006Y-11496D02*
X7071Y-11300D01*
X7136Y-11496D01*
G54D19*
X9159Y-15864D02*
X8454Y-15864D01*
X9159Y-15622D02*
X8756Y-15803D01*
X8454Y-15622D02*
X8857Y-15864D01*
X9159Y-15218D02*
X9159Y-15460D01*
X9159Y-15339D02*
X8454Y-15339D01*
X8555Y-15379D01*
X8622Y-15420D01*
X8655Y-15460D01*
X13769Y-9575D02*
X14340Y-9575D01*
X14407Y-9555D01*
X14440Y-9535D01*
X14474Y-9494D01*
X14474Y-9414D01*
X14440Y-9373D01*
X14407Y-9353D01*
X14340Y-9333D01*
X13769Y-9333D01*
X14474Y-8909D02*
X14474Y-9151D01*
X14474Y-9030D02*
X13769Y-9030D01*
X13870Y-9070D01*
X13937Y-9111D01*
X13970Y-9151D01*
G54D20*
X18960Y-14883D02*
X18279Y-14883D01*
X18279Y-14720D01*
X18312Y-14679D01*
X18344Y-14659D01*
X18409Y-14639D01*
X18506Y-14639D01*
X18571Y-14659D01*
X18603Y-14679D01*
X18636Y-14720D01*
X18636Y-14883D01*
X18279Y-14496D02*
X18279Y-14231D01*
X18539Y-14374D01*
X18539Y-14312D01*
X18571Y-14272D01*
X18603Y-14251D01*
X18668Y-14231D01*
X18830Y-14231D01*
X18895Y-14251D01*
X18928Y-14272D01*
X18960Y-14312D01*
X18960Y-14435D01*
X18928Y-14475D01*
X18895Y-14496D01*
X18960Y-17245D02*
X18279Y-17245D01*
X18279Y-17082D01*
X18312Y-17041D01*
X18344Y-17021D01*
X18409Y-17001D01*
X18506Y-17001D01*
X18571Y-17021D01*
X18603Y-17041D01*
X18636Y-17082D01*
X18636Y-17245D01*
X18344Y-16837D02*
X18312Y-16817D01*
X18279Y-16776D01*
X18279Y-16674D01*
X18312Y-16634D01*
X18344Y-16613D01*
X18409Y-16593D01*
X18474Y-16593D01*
X18571Y-16613D01*
X18960Y-16858D01*
X18960Y-16593D01*
X18960Y-19607D02*
X18279Y-19607D01*
X18279Y-19444D01*
X18312Y-19403D01*
X18344Y-19383D01*
X18409Y-19363D01*
X18506Y-19363D01*
X18571Y-19383D01*
X18603Y-19403D01*
X18636Y-19444D01*
X18636Y-19607D01*
X18960Y-18955D02*
X18960Y-19199D01*
X18960Y-19077D02*
X18279Y-19077D01*
X18376Y-19118D01*
X18441Y-19159D01*
X18474Y-19199D01*
G54D13*
X18265Y-8934D02*
X18098Y-8672D01*
X17979Y-8934D02*
X17979Y-8384D01*
X18170Y-8384D01*
X18217Y-8410D01*
X18241Y-8436D01*
X18265Y-8488D01*
X18265Y-8567D01*
X18241Y-8619D01*
X18217Y-8646D01*
X18170Y-8672D01*
X17979Y-8672D01*
X18265Y-12771D02*
X18098Y-12509D01*
X17979Y-12771D02*
X17979Y-12221D01*
X18170Y-12221D01*
X18217Y-12247D01*
X18241Y-12273D01*
X18265Y-12325D01*
X18265Y-12404D01*
X18241Y-12456D01*
X18217Y-12483D01*
X18170Y-12509D01*
X17979Y-12509D01*
X18265Y-11837D02*
X18098Y-11575D01*
X17979Y-11837D02*
X17979Y-11287D01*
X18170Y-11287D01*
X18217Y-11313D01*
X18241Y-11339D01*
X18265Y-11391D01*
X18265Y-11470D01*
X18241Y-11522D01*
X18217Y-11549D01*
X18170Y-11575D01*
X17979Y-11575D01*
X18265Y-10803D02*
X18098Y-10541D01*
X17979Y-10803D02*
X17979Y-10253D01*
X18170Y-10253D01*
X18217Y-10279D01*
X18241Y-10305D01*
X18265Y-10357D01*
X18265Y-10436D01*
X18241Y-10488D01*
X18217Y-10515D01*
X18170Y-10541D01*
X17979Y-10541D01*
X9407Y-7653D02*
X9240Y-7391D01*
X9121Y-7653D02*
X9121Y-7103D01*
X9312Y-7103D01*
X9359Y-7129D01*
X9383Y-7155D01*
X9407Y-7207D01*
X9407Y-7286D01*
X9383Y-7338D01*
X9359Y-7365D01*
X9312Y-7391D01*
X9121Y-7391D01*
X18265Y-9919D02*
X18098Y-9657D01*
X17979Y-9919D02*
X17979Y-9369D01*
X18170Y-9369D01*
X18217Y-9395D01*
X18241Y-9421D01*
X18265Y-9473D01*
X18265Y-9552D01*
X18241Y-9604D01*
X18217Y-9631D01*
X18170Y-9657D01*
X17979Y-9657D01*
X14643Y-12247D02*
X14381Y-12414D01*
X14643Y-12533D02*
X14093Y-12533D01*
X14093Y-12342D01*
X14119Y-12295D01*
X14145Y-12271D01*
X14197Y-12247D01*
X14276Y-12247D01*
X14328Y-12271D01*
X14355Y-12295D01*
X14381Y-12342D01*
X14381Y-12533D01*
X15824Y-12247D02*
X15562Y-12414D01*
X15824Y-12533D02*
X15274Y-12533D01*
X15274Y-12342D01*
X15300Y-12295D01*
X15326Y-12271D01*
X15378Y-12247D01*
X15457Y-12247D01*
X15509Y-12271D01*
X15536Y-12295D01*
X15562Y-12342D01*
X15562Y-12533D01*
G54D21*
X14219Y-6521D02*
X13919Y-6521D01*
X13919Y-6449D01*
X13934Y-6406D01*
X13962Y-6378D01*
X13991Y-6363D01*
X14048Y-6349D01*
X14091Y-6349D01*
X14148Y-6363D01*
X14177Y-6378D01*
X14205Y-6406D01*
X14219Y-6449D01*
X14219Y-6521D01*
X14219Y-6063D02*
X14219Y-6235D01*
X14219Y-6149D02*
X13919Y-6149D01*
X13962Y-6178D01*
X13991Y-6206D01*
X14005Y-6235D01*
X11219Y-6492D02*
X11219Y-6635D01*
X10919Y-6635D01*
X11062Y-6392D02*
X11062Y-6292D01*
X11219Y-6249D02*
X11219Y-6392D01*
X10919Y-6392D01*
X10919Y-6249D01*
X11219Y-6121D02*
X10919Y-6121D01*
X10919Y-6049D01*
X10934Y-6006D01*
X10962Y-5978D01*
X10991Y-5963D01*
X11048Y-5949D01*
X11091Y-5949D01*
X11148Y-5963D01*
X11177Y-5978D01*
X11205Y-6006D01*
X11219Y-6049D01*
X11219Y-6121D01*
X20519Y-6521D02*
X20219Y-6521D01*
X20219Y-6449D01*
X20234Y-6406D01*
X20262Y-6378D01*
X20291Y-6363D01*
X20348Y-6349D01*
X20391Y-6349D01*
X20448Y-6363D01*
X20477Y-6378D01*
X20505Y-6406D01*
X20519Y-6449D01*
X20519Y-6521D01*
X20248Y-6235D02*
X20234Y-6221D01*
X20219Y-6192D01*
X20219Y-6121D01*
X20234Y-6092D01*
X20248Y-6078D01*
X20277Y-6063D01*
X20305Y-6063D01*
X20348Y-6078D01*
X20519Y-6249D01*
X20519Y-6063D01*
X17519Y-6492D02*
X17519Y-6635D01*
X17219Y-6635D01*
X17362Y-6392D02*
X17362Y-6292D01*
X17519Y-6249D02*
X17519Y-6392D01*
X17219Y-6392D01*
X17219Y-6249D01*
X17519Y-6121D02*
X17219Y-6121D01*
X17219Y-6049D01*
X17234Y-6006D01*
X17262Y-5978D01*
X17291Y-5963D01*
X17348Y-5949D01*
X17391Y-5949D01*
X17448Y-5963D01*
X17477Y-5978D01*
X17505Y-6006D01*
X17519Y-6049D01*
X17519Y-6121D01*
X17369Y-6521D02*
X17069Y-6521D01*
X17069Y-6449D01*
X17084Y-6406D01*
X17112Y-6378D01*
X17141Y-6363D01*
X17198Y-6349D01*
X17241Y-6349D01*
X17298Y-6363D01*
X17327Y-6378D01*
X17355Y-6406D01*
X17369Y-6449D01*
X17369Y-6521D01*
X17069Y-6249D02*
X17069Y-6063D01*
X17184Y-6163D01*
X17184Y-6121D01*
X17198Y-6092D01*
X17212Y-6078D01*
X17241Y-6063D01*
X17312Y-6063D01*
X17341Y-6078D01*
X17355Y-6092D01*
X17369Y-6121D01*
X17369Y-6206D01*
X17355Y-6235D01*
X17341Y-6249D01*
X14369Y-6492D02*
X14369Y-6635D01*
X14069Y-6635D01*
X14212Y-6392D02*
X14212Y-6292D01*
X14369Y-6249D02*
X14369Y-6392D01*
X14069Y-6392D01*
X14069Y-6249D01*
X14369Y-6121D02*
X14069Y-6121D01*
X14069Y-6049D01*
X14084Y-6006D01*
X14112Y-5978D01*
X14141Y-5963D01*
X14198Y-5949D01*
X14241Y-5949D01*
X14298Y-5963D01*
X14327Y-5978D01*
X14355Y-6006D01*
X14369Y-6049D01*
X14369Y-6121D01*
G54D15*
X6052Y-8466D02*
X6038Y-8480D01*
X5995Y-8494D01*
X5966Y-8494D01*
X5923Y-8480D01*
X5895Y-8452D01*
X5880Y-8423D01*
X5866Y-8366D01*
X5866Y-8323D01*
X5880Y-8266D01*
X5895Y-8237D01*
X5923Y-8209D01*
X5966Y-8194D01*
X5995Y-8194D01*
X6038Y-8209D01*
X6052Y-8223D01*
X6166Y-8223D02*
X6180Y-8209D01*
X6209Y-8194D01*
X6280Y-8194D01*
X6309Y-8209D01*
X6323Y-8223D01*
X6338Y-8252D01*
X6338Y-8280D01*
X6323Y-8323D01*
X6152Y-8494D01*
X6338Y-8494D01*
X5935Y-7467D02*
X5923Y-7481D01*
X5888Y-7495D01*
X5864Y-7495D01*
X5828Y-7481D01*
X5804Y-7453D01*
X5793Y-7424D01*
X5781Y-7367D01*
X5781Y-7324D01*
X5793Y-7267D01*
X5804Y-7238D01*
X5828Y-7210D01*
X5864Y-7195D01*
X5888Y-7195D01*
X5923Y-7210D01*
X5935Y-7224D01*
X6043Y-7495D02*
X6043Y-7195D01*
X6138Y-7195D01*
X6162Y-7210D01*
X6173Y-7224D01*
X6185Y-7253D01*
X6185Y-7295D01*
X6173Y-7324D01*
X6162Y-7338D01*
X6138Y-7353D01*
X6043Y-7353D01*
X6423Y-7495D02*
X6281Y-7495D01*
X6352Y-7495D02*
X6352Y-7195D01*
X6328Y-7238D01*
X6304Y-7267D01*
X6281Y-7281D01*
G54D22*
X6888Y-7881D02*
X7117Y-7881D01*
X7003Y-7995D02*
X7003Y-7767D01*
G54D13*
X10664Y-13397D02*
X10645Y-13416D01*
X10588Y-13435D01*
X10550Y-13435D01*
X10492Y-13416D01*
X10454Y-13378D01*
X10435Y-13340D01*
X10416Y-13263D01*
X10416Y-13206D01*
X10435Y-13130D01*
X10454Y-13092D01*
X10492Y-13054D01*
X10550Y-13035D01*
X10588Y-13035D01*
X10645Y-13054D01*
X10664Y-13073D01*
X11045Y-13435D02*
X10816Y-13435D01*
X10930Y-13435D02*
X10930Y-13035D01*
X10892Y-13092D01*
X10854Y-13130D01*
X10816Y-13149D01*
X15086Y-14908D02*
X15067Y-14946D01*
X15029Y-14984D01*
X14972Y-15041D01*
X14953Y-15080D01*
X14953Y-15118D01*
X15048Y-15099D02*
X15029Y-15137D01*
X14991Y-15175D01*
X14915Y-15194D01*
X14781Y-15194D01*
X14705Y-15175D01*
X14667Y-15137D01*
X14648Y-15099D01*
X14648Y-15022D01*
X14667Y-14984D01*
X14705Y-14946D01*
X14781Y-14927D01*
X14915Y-14927D01*
X14991Y-14946D01*
X15029Y-14984D01*
X15048Y-15022D01*
X15048Y-15099D01*
X15048Y-14546D02*
X15048Y-14775D01*
X15048Y-14661D02*
X14648Y-14661D01*
X14705Y-14699D01*
X14743Y-14737D01*
X14762Y-14775D01*
X11548Y-16270D02*
X11148Y-16270D01*
X11434Y-16136D01*
X11148Y-16003D01*
X11548Y-16003D01*
X11148Y-15737D02*
X11148Y-15660D01*
X11167Y-15622D01*
X11205Y-15584D01*
X11281Y-15565D01*
X11415Y-15565D01*
X11491Y-15584D01*
X11529Y-15622D01*
X11548Y-15660D01*
X11548Y-15737D01*
X11529Y-15775D01*
X11491Y-15813D01*
X11415Y-15832D01*
X11281Y-15832D01*
X11205Y-15813D01*
X11167Y-15775D01*
X11148Y-15737D01*
X11529Y-15413D02*
X11548Y-15356D01*
X11548Y-15260D01*
X11529Y-15222D01*
X11510Y-15203D01*
X11472Y-15184D01*
X11434Y-15184D01*
X11396Y-15203D01*
X11376Y-15222D01*
X11357Y-15260D01*
X11338Y-15337D01*
X11319Y-15375D01*
X11300Y-15394D01*
X11262Y-15413D01*
X11224Y-15413D01*
X11186Y-15394D01*
X11167Y-15375D01*
X11148Y-15337D01*
X11148Y-15241D01*
X11167Y-15184D01*
X11338Y-14879D02*
X11338Y-15013D01*
X11548Y-15013D02*
X11148Y-15013D01*
X11148Y-14822D01*
X11338Y-14670D02*
X11338Y-14536D01*
X11548Y-14479D02*
X11548Y-14670D01*
X11148Y-14670D01*
X11148Y-14479D01*
X11148Y-14365D02*
X11148Y-14136D01*
X11548Y-14251D02*
X11148Y-14251D01*
X11586Y-14098D02*
X11586Y-13793D01*
X11548Y-13698D02*
X11148Y-13698D01*
X11548Y-13469D01*
X11148Y-13469D01*
X16997Y-13070D02*
X16959Y-13051D01*
X16921Y-13013D01*
X16864Y-12956D01*
X16825Y-12937D01*
X16787Y-12937D01*
X16806Y-13032D02*
X16768Y-13013D01*
X16730Y-12975D01*
X16711Y-12899D01*
X16711Y-12765D01*
X16730Y-12689D01*
X16768Y-12651D01*
X16806Y-12632D01*
X16883Y-12632D01*
X16921Y-12651D01*
X16959Y-12689D01*
X16978Y-12765D01*
X16978Y-12899D01*
X16959Y-12975D01*
X16921Y-13013D01*
X16883Y-13032D01*
X16806Y-13032D01*
X17130Y-12670D02*
X17149Y-12651D01*
X17187Y-12632D01*
X17283Y-12632D01*
X17321Y-12651D01*
X17340Y-12670D01*
X17359Y-12708D01*
X17359Y-12746D01*
X17340Y-12803D01*
X17111Y-13032D01*
X17359Y-13032D01*
X15635Y-16532D02*
X15635Y-16132D01*
X15769Y-16418D01*
X15902Y-16132D01*
X15902Y-16532D01*
X16168Y-16132D02*
X16245Y-16132D01*
X16283Y-16151D01*
X16321Y-16189D01*
X16340Y-16265D01*
X16340Y-16399D01*
X16321Y-16475D01*
X16283Y-16513D01*
X16245Y-16532D01*
X16168Y-16532D01*
X16130Y-16513D01*
X16092Y-16475D01*
X16073Y-16399D01*
X16073Y-16265D01*
X16092Y-16189D01*
X16130Y-16151D01*
X16168Y-16132D01*
X16492Y-16513D02*
X16549Y-16532D01*
X16645Y-16532D01*
X16683Y-16513D01*
X16702Y-16494D01*
X16721Y-16456D01*
X16721Y-16418D01*
X16702Y-16380D01*
X16683Y-16360D01*
X16645Y-16341D01*
X16568Y-16322D01*
X16530Y-16303D01*
X16511Y-16284D01*
X16492Y-16246D01*
X16492Y-16208D01*
X16511Y-16170D01*
X16530Y-16151D01*
X16568Y-16132D01*
X16664Y-16132D01*
X16721Y-16151D01*
X17026Y-16322D02*
X16892Y-16322D01*
X16892Y-16532D02*
X16892Y-16132D01*
X17083Y-16132D01*
X17235Y-16322D02*
X17369Y-16322D01*
X17426Y-16532D02*
X17235Y-16532D01*
X17235Y-16132D01*
X17426Y-16132D01*
X17540Y-16132D02*
X17769Y-16132D01*
X17654Y-16532D02*
X17654Y-16132D01*
X17807Y-16570D02*
X18112Y-16570D01*
X18207Y-16532D02*
X18207Y-16132D01*
X18436Y-16532D01*
X18436Y-16132D01*
G54D11*
X9453Y-18253D02*
X9224Y-18253D01*
X9338Y-18253D02*
X9338Y-17853D01*
X9300Y-17910D01*
X9262Y-17948D01*
X9224Y-17967D01*
X9624Y-18253D02*
X9624Y-17853D01*
X9777Y-17853D01*
X9815Y-17872D01*
X9834Y-17891D01*
X9853Y-17929D01*
X9853Y-17986D01*
X9834Y-18024D01*
X9815Y-18043D01*
X9777Y-18062D01*
X9624Y-18062D01*
X10024Y-18253D02*
X10024Y-17853D01*
X10214Y-18253D02*
X10214Y-17853D01*
X10443Y-18253D01*
X10443Y-17853D01*
X11027Y-5477D02*
X10798Y-5477D01*
X10912Y-5477D02*
X10912Y-5077D01*
X10874Y-5134D01*
X10836Y-5172D01*
X10798Y-5191D01*
X11198Y-5477D02*
X11198Y-5077D01*
X11351Y-5077D01*
X11389Y-5096D01*
X11408Y-5115D01*
X11427Y-5153D01*
X11427Y-5210D01*
X11408Y-5248D01*
X11389Y-5267D01*
X11351Y-5286D01*
X11198Y-5286D01*
X11598Y-5477D02*
X11598Y-5077D01*
X11788Y-5477D02*
X11788Y-5077D01*
X12017Y-5477D01*
X12017Y-5077D01*
X5516Y-14513D02*
X5287Y-14513D01*
X5401Y-14513D02*
X5401Y-14113D01*
X5363Y-14170D01*
X5325Y-14208D01*
X5287Y-14227D01*
X5687Y-14513D02*
X5687Y-14113D01*
X5840Y-14113D01*
X5878Y-14132D01*
X5897Y-14151D01*
X5916Y-14189D01*
X5916Y-14246D01*
X5897Y-14284D01*
X5878Y-14303D01*
X5840Y-14322D01*
X5687Y-14322D01*
X6087Y-14513D02*
X6087Y-14113D01*
X6277Y-14513D02*
X6277Y-14113D01*
X6506Y-14513D01*
X6506Y-14113D01*
G54D19*
X6537Y-16297D02*
X6537Y-16800D01*
X6517Y-16901D01*
X6477Y-16968D01*
X6416Y-17002D01*
X6376Y-17002D01*
X6739Y-17002D02*
X6739Y-16297D01*
X6900Y-16297D01*
X6941Y-16330D01*
X6961Y-16364D01*
X6981Y-16431D01*
X6981Y-16532D01*
X6961Y-16599D01*
X6941Y-16633D01*
X6900Y-16666D01*
X6739Y-16666D01*
X7385Y-17002D02*
X7143Y-17002D01*
X7264Y-17002D02*
X7264Y-16297D01*
X7224Y-16398D01*
X7183Y-16465D01*
X7143Y-16498D01*
G54D13*
X15046Y-18415D02*
X15653Y-18415D01*
X15724Y-18396D01*
X15760Y-18377D01*
X15796Y-18339D01*
X15796Y-18262D01*
X15760Y-18224D01*
X15724Y-18205D01*
X15653Y-18186D01*
X15046Y-18186D01*
X15117Y-18015D02*
X15081Y-17996D01*
X15046Y-17958D01*
X15046Y-17862D01*
X15081Y-17824D01*
X15117Y-17805D01*
X15188Y-17786D01*
X15260Y-17786D01*
X15367Y-17805D01*
X15796Y-18034D01*
X15796Y-17786D01*
X10700Y-17753D02*
X10767Y-17753D01*
X10800Y-17781D01*
X10833Y-17839D01*
X10850Y-17953D01*
X10850Y-18153D01*
X10833Y-18267D01*
X10800Y-18324D01*
X10767Y-18353D01*
X10700Y-18353D01*
X10667Y-18324D01*
X10633Y-18267D01*
X10617Y-18153D01*
X10617Y-17953D01*
X10633Y-17839D01*
X10667Y-17781D01*
X10700Y-17753D01*
X11000Y-18353D02*
X11000Y-17753D01*
X11134Y-17753D01*
X11167Y-17781D01*
X11184Y-17810D01*
X11200Y-17867D01*
X11200Y-17953D01*
X11184Y-18010D01*
X11167Y-18039D01*
X11134Y-18067D01*
X11000Y-18067D01*
X11300Y-17753D02*
X11500Y-17753D01*
X11400Y-18353D02*
X11400Y-17753D01*
X11684Y-17753D02*
X11751Y-17753D01*
X11784Y-17781D01*
X11817Y-17839D01*
X11834Y-17953D01*
X11834Y-18153D01*
X11817Y-18267D01*
X11784Y-18324D01*
X11751Y-18353D01*
X11684Y-18353D01*
X11651Y-18324D01*
X11617Y-18267D01*
X11601Y-18153D01*
X11601Y-17953D01*
X11617Y-17839D01*
X11651Y-17781D01*
X11684Y-17753D01*
X11984Y-18124D02*
X12251Y-18124D01*
X12367Y-17753D02*
X12567Y-17753D01*
X12467Y-18353D02*
X12467Y-17753D01*
X12884Y-18353D02*
X12768Y-18067D01*
X12684Y-18353D02*
X12684Y-17753D01*
X12818Y-17753D01*
X12851Y-17781D01*
X12868Y-17810D01*
X12884Y-17867D01*
X12884Y-17953D01*
X12868Y-18010D01*
X12851Y-18039D01*
X12818Y-18067D01*
X12684Y-18067D01*
X13018Y-18181D02*
X13184Y-18181D01*
X12984Y-18353D02*
X13101Y-17753D01*
X13218Y-18353D01*
X13334Y-18353D02*
X13334Y-17753D01*
X13534Y-18353D01*
X13534Y-17753D01*
X13685Y-18324D02*
X13735Y-18353D01*
X13818Y-18353D01*
X13851Y-18324D01*
X13868Y-18296D01*
X13885Y-18239D01*
X13885Y-18181D01*
X13868Y-18124D01*
X13851Y-18096D01*
X13818Y-18067D01*
X13751Y-18039D01*
X13718Y-18010D01*
X13701Y-17981D01*
X13685Y-17924D01*
X13685Y-17867D01*
X13701Y-17810D01*
X13718Y-17781D01*
X13751Y-17753D01*
X13835Y-17753D01*
X13885Y-17781D01*
X14034Y-18353D02*
X14034Y-17753D01*
X14185Y-18324D02*
X14235Y-18353D01*
X14318Y-18353D01*
X14351Y-18324D01*
X14368Y-18296D01*
X14385Y-18239D01*
X14385Y-18181D01*
X14368Y-18124D01*
X14351Y-18096D01*
X14318Y-18067D01*
X14251Y-18039D01*
X14218Y-18010D01*
X14201Y-17981D01*
X14185Y-17924D01*
X14185Y-17867D01*
X14201Y-17810D01*
X14218Y-17781D01*
X14251Y-17753D01*
X14335Y-17753D01*
X14385Y-17781D01*
X14484Y-17753D02*
X14684Y-17753D01*
X14584Y-18353D02*
X14584Y-17753D01*
X14868Y-17753D02*
X14935Y-17753D01*
X14968Y-17781D01*
X15001Y-17839D01*
X15018Y-17953D01*
X15018Y-18153D01*
X15001Y-18267D01*
X14968Y-18324D01*
X14935Y-18353D01*
X14868Y-18353D01*
X14835Y-18324D01*
X14801Y-18267D01*
X14785Y-18153D01*
X14785Y-17953D01*
X14801Y-17839D01*
X14835Y-17781D01*
X14868Y-17753D01*
X15368Y-18353D02*
X15252Y-18067D01*
X15168Y-18353D02*
X15168Y-17753D01*
X15302Y-17753D01*
X15335Y-17781D01*
X15352Y-17810D01*
X15368Y-17867D01*
X15368Y-17953D01*
X15352Y-18010D01*
X15335Y-18039D01*
X15302Y-18067D01*
X15168Y-18067D01*
X18983Y-18415D02*
X19590Y-18415D01*
X19661Y-18396D01*
X19697Y-18377D01*
X19733Y-18339D01*
X19733Y-18262D01*
X19697Y-18224D01*
X19661Y-18205D01*
X19590Y-18186D01*
X18983Y-18186D01*
X18983Y-18034D02*
X18983Y-17786D01*
X19268Y-17920D01*
X19268Y-17862D01*
X19304Y-17824D01*
X19340Y-17805D01*
X19411Y-17786D01*
X19590Y-17786D01*
X19661Y-17805D01*
X19697Y-17824D01*
X19733Y-17862D01*
X19733Y-17977D01*
X19697Y-18015D01*
X19661Y-18034D01*
X14637Y-17753D02*
X14704Y-17753D01*
X14737Y-17781D01*
X14770Y-17839D01*
X14787Y-17953D01*
X14787Y-18153D01*
X14770Y-18267D01*
X14737Y-18324D01*
X14704Y-18353D01*
X14637Y-18353D01*
X14604Y-18324D01*
X14570Y-18267D01*
X14554Y-18153D01*
X14554Y-17953D01*
X14570Y-17839D01*
X14604Y-17781D01*
X14637Y-17753D01*
X14937Y-18353D02*
X14937Y-17753D01*
X15071Y-17753D01*
X15104Y-17781D01*
X15121Y-17810D01*
X15137Y-17867D01*
X15137Y-17953D01*
X15121Y-18010D01*
X15104Y-18039D01*
X15071Y-18067D01*
X14937Y-18067D01*
X15237Y-17753D02*
X15437Y-17753D01*
X15337Y-18353D02*
X15337Y-17753D01*
X15621Y-17753D02*
X15688Y-17753D01*
X15721Y-17781D01*
X15754Y-17839D01*
X15771Y-17953D01*
X15771Y-18153D01*
X15754Y-18267D01*
X15721Y-18324D01*
X15688Y-18353D01*
X15621Y-18353D01*
X15588Y-18324D01*
X15554Y-18267D01*
X15538Y-18153D01*
X15538Y-17953D01*
X15554Y-17839D01*
X15588Y-17781D01*
X15621Y-17753D01*
X15921Y-18124D02*
X16188Y-18124D01*
X16304Y-17753D02*
X16504Y-17753D01*
X16404Y-18353D02*
X16404Y-17753D01*
X16821Y-18353D02*
X16705Y-18067D01*
X16621Y-18353D02*
X16621Y-17753D01*
X16755Y-17753D01*
X16788Y-17781D01*
X16805Y-17810D01*
X16821Y-17867D01*
X16821Y-17953D01*
X16805Y-18010D01*
X16788Y-18039D01*
X16755Y-18067D01*
X16621Y-18067D01*
X16955Y-18181D02*
X17121Y-18181D01*
X16921Y-18353D02*
X17038Y-17753D01*
X17155Y-18353D01*
X17271Y-18353D02*
X17271Y-17753D01*
X17471Y-18353D01*
X17471Y-17753D01*
X17622Y-18324D02*
X17672Y-18353D01*
X17755Y-18353D01*
X17788Y-18324D01*
X17805Y-18296D01*
X17822Y-18239D01*
X17822Y-18181D01*
X17805Y-18124D01*
X17788Y-18096D01*
X17755Y-18067D01*
X17688Y-18039D01*
X17655Y-18010D01*
X17638Y-17981D01*
X17622Y-17924D01*
X17622Y-17867D01*
X17638Y-17810D01*
X17655Y-17781D01*
X17688Y-17753D01*
X17772Y-17753D01*
X17822Y-17781D01*
X17971Y-18353D02*
X17971Y-17753D01*
X18122Y-18324D02*
X18172Y-18353D01*
X18255Y-18353D01*
X18288Y-18324D01*
X18305Y-18296D01*
X18322Y-18239D01*
X18322Y-18181D01*
X18305Y-18124D01*
X18288Y-18096D01*
X18255Y-18067D01*
X18188Y-18039D01*
X18155Y-18010D01*
X18138Y-17981D01*
X18122Y-17924D01*
X18122Y-17867D01*
X18138Y-17810D01*
X18155Y-17781D01*
X18188Y-17753D01*
X18272Y-17753D01*
X18322Y-17781D01*
X18421Y-17753D02*
X18621Y-17753D01*
X18521Y-18353D02*
X18521Y-17753D01*
X18805Y-17753D02*
X18872Y-17753D01*
X18905Y-17781D01*
X18938Y-17839D01*
X18955Y-17953D01*
X18955Y-18153D01*
X18938Y-18267D01*
X18905Y-18324D01*
X18872Y-18353D01*
X18805Y-18353D01*
X18772Y-18324D01*
X18738Y-18267D01*
X18722Y-18153D01*
X18722Y-17953D01*
X18738Y-17839D01*
X18772Y-17781D01*
X18805Y-17753D01*
X19305Y-18353D02*
X19189Y-18067D01*
X19105Y-18353D02*
X19105Y-17753D01*
X19239Y-17753D01*
X19272Y-17781D01*
X19289Y-17810D01*
X19305Y-17867D01*
X19305Y-17953D01*
X19289Y-18010D01*
X19272Y-18039D01*
X19239Y-18067D01*
X19105Y-18067D01*
M02*
