M48
;DRILL file {Pcbnew (2011-nov-30)-testing} date Sun 23 Sep 2012 15:57:58 CEST
;FORMAT={-:-/ absolute / metric / decimal}
FMAT,2
METRIC,TZ
T1C0.635
T2C0.813
T3C3.048
%
G90
G05
M71
T1
X23.500Y-21.999
X23.500Y-27.498
X24.498Y-28.499
X24.999Y-23.500
X26.749Y-30.000
X27.749Y-25.999
X30.500Y-45.999
X31.999Y-28.250
X34.498Y-33.249
X35.999Y-30.749
X36.500Y-32.248
X40.500Y-45.999
X46.248Y-20.000
T2
X14.229Y-20.000
X14.961Y-45.001
X16.769Y-20.000
X17.501Y-45.001
X19.690Y-18.999
X20.000Y-36.960
X20.000Y-39.500
X20.000Y-42.040
X20.041Y-45.001
X25.730Y-35.999
X27.310Y-18.999
X28.270Y-35.999
X30.460Y-42.189
X30.460Y-49.809
X31.999Y-14.729
X31.999Y-17.269
X32.730Y-35.230
X32.730Y-37.770
X33.000Y-42.189
X33.000Y-49.809
X33.500Y-20.960
X33.500Y-23.500
X33.500Y-26.040
X35.270Y-37.770
X35.540Y-42.189
X35.540Y-49.809
X36.500Y-27.691
X36.500Y-35.311
X39.500Y-27.691
X39.500Y-35.311
X40.000Y-14.729
X40.000Y-17.269
X40.460Y-42.189
X40.460Y-49.809
X40.729Y-37.770
X42.189Y-21.999
X42.189Y-24.501
X42.189Y-27.000
X42.189Y-29.500
X42.189Y-31.999
X43.000Y-42.189
X43.000Y-49.809
X43.269Y-35.230
X43.269Y-37.770
X45.540Y-42.189
X45.540Y-49.809
X48.001Y-14.729
X48.001Y-17.269
X49.809Y-21.999
X49.809Y-24.501
X49.809Y-27.000
X49.809Y-29.500
X49.809Y-31.999
X50.000Y-35.730
X50.000Y-38.270
X50.000Y-41.730
X50.000Y-44.270
X50.000Y-47.729
X50.000Y-50.269
T3
X15.001Y-39.500
X25.001Y-15.001
X25.001Y-48.999
T0
M30
