G04 (created by PCBNEW-RS274X (2011-12-28 BZR 3254)-stable) date 2012. 03. 26. 13:07:31*
G01*
G70*
G90*
%MOIN*%
G04 Gerber Fmt 3.4, Leading zero omitted, Abs format*
%FSLAX34Y34*%
G04 APERTURE LIST*
%ADD10C,0.006000*%
%ADD11C,0.015000*%
%ADD12C,0.060000*%
%ADD13C,0.106300*%
%ADD14R,0.055000X0.055000*%
%ADD15C,0.055000*%
%ADD16O,0.120000X0.060000*%
%ADD17C,0.035000*%
%ADD18C,0.019900*%
%ADD19C,0.010000*%
G04 APERTURE END LIST*
G54D10*
G54D11*
X23622Y-04724D02*
X04724Y-04724D01*
X23622Y-24213D02*
X23622Y-04724D01*
X04724Y-24213D02*
X23622Y-24213D01*
X04724Y-04724D02*
X04724Y-24213D01*
G54D12*
X09250Y-19900D03*
X08250Y-19900D03*
X08250Y-20687D03*
X09250Y-20687D03*
G54D13*
X11112Y-21750D03*
X06388Y-21750D03*
G54D14*
X23000Y-19000D03*
G54D15*
X23000Y-18000D03*
X23000Y-17000D03*
X23000Y-16000D03*
X23000Y-15000D03*
X23000Y-14000D03*
X23000Y-13000D03*
X23000Y-12000D03*
G54D14*
X12500Y-17000D03*
G54D15*
X12500Y-16000D03*
X12500Y-15000D03*
X12500Y-14000D03*
X12500Y-13000D03*
X12500Y-12000D03*
G54D14*
X05500Y-17000D03*
G54D15*
X05500Y-16000D03*
X05500Y-15000D03*
X05500Y-14000D03*
X05500Y-13000D03*
X05500Y-12000D03*
G54D14*
X15000Y-05500D03*
G54D15*
X16000Y-05500D03*
X17000Y-05500D03*
X18000Y-05500D03*
X19000Y-05500D03*
G54D14*
X19000Y-10500D03*
G54D15*
X20000Y-10500D03*
X21000Y-10500D03*
X22000Y-10500D03*
X23000Y-10500D03*
G54D14*
X09500Y-10500D03*
G54D15*
X10500Y-10500D03*
X11500Y-10500D03*
X12500Y-10500D03*
X13500Y-10500D03*
G54D14*
X05500Y-05500D03*
G54D15*
X06500Y-05500D03*
X07500Y-05500D03*
X08500Y-05500D03*
X09500Y-05500D03*
G54D14*
X20000Y-05500D03*
G54D15*
X21000Y-05500D03*
X22000Y-05500D03*
X23000Y-05500D03*
G54D14*
X10500Y-05500D03*
G54D15*
X11500Y-05500D03*
X12500Y-05500D03*
X13500Y-05500D03*
G54D14*
X14000Y-17000D03*
G54D15*
X14000Y-16000D03*
X14000Y-15000D03*
X14000Y-14000D03*
G54D14*
X18500Y-20500D03*
G54D15*
X18500Y-21500D03*
X18500Y-22500D03*
X18500Y-23500D03*
G54D14*
X10500Y-18000D03*
G54D15*
X11500Y-18000D03*
X12500Y-18000D03*
G54D14*
X05500Y-18250D03*
G54D15*
X06500Y-18250D03*
X05500Y-20500D03*
X05500Y-23500D03*
G54D16*
X19500Y-19000D03*
X17500Y-18500D03*
X19500Y-18000D03*
X17500Y-17500D03*
X19500Y-17000D03*
X17500Y-16500D03*
X19500Y-16000D03*
X17500Y-15500D03*
X19500Y-15000D03*
X17500Y-14500D03*
X19500Y-14000D03*
X17500Y-13500D03*
X19500Y-13000D03*
X17500Y-12500D03*
X19500Y-12000D03*
G54D14*
X17000Y-23500D03*
G54D15*
X14000Y-23500D03*
G54D14*
X23000Y-23500D03*
G54D15*
X20000Y-23500D03*
G54D14*
X17000Y-22500D03*
G54D15*
X14000Y-22500D03*
G54D14*
X23000Y-22500D03*
G54D15*
X20000Y-22500D03*
G54D14*
X17000Y-21500D03*
G54D15*
X14000Y-21500D03*
G54D14*
X23000Y-21500D03*
G54D15*
X20000Y-21500D03*
G54D14*
X17000Y-20500D03*
G54D15*
X14000Y-20500D03*
G54D14*
X23000Y-20500D03*
G54D15*
X20000Y-20500D03*
X08750Y-18250D03*
X08750Y-17250D03*
X07500Y-08500D03*
X07500Y-07500D03*
X17000Y-08500D03*
X17000Y-07500D03*
G54D14*
X12250Y-20500D03*
G54D15*
X12250Y-19500D03*
G54D17*
X21250Y-18000D03*
X22250Y-16500D03*
X20750Y-14250D03*
X10500Y-08000D03*
X08000Y-14500D03*
X07500Y-17000D03*
X10000Y-14500D03*
X20000Y-08000D03*
X16250Y-18750D03*
X09500Y-15500D03*
X20750Y-17500D03*
G54D18*
X19000Y-19500D02*
X19500Y-19000D01*
X15750Y-19500D02*
X19000Y-19500D01*
X15500Y-15750D02*
X15500Y-19250D01*
X14750Y-15000D02*
X15500Y-15750D01*
X15500Y-19250D02*
X15750Y-19500D01*
X14000Y-15000D02*
X14750Y-15000D01*
G54D19*
X23000Y-15000D02*
X20750Y-15000D01*
X20250Y-14500D02*
X17500Y-14500D01*
X20750Y-15000D02*
X20250Y-14500D01*
X21250Y-18000D02*
X22250Y-19000D01*
X22250Y-19000D02*
X23000Y-19000D01*
X22250Y-16500D02*
X17500Y-16500D01*
X19500Y-17000D02*
X23000Y-17000D01*
G54D18*
X20000Y-21500D02*
X17000Y-21500D01*
G54D19*
X21000Y-14000D02*
X23000Y-14000D01*
X20750Y-14250D02*
X21000Y-14000D01*
X20750Y-19750D02*
X22250Y-19750D01*
X22250Y-19750D02*
X23000Y-20500D01*
X17500Y-17500D02*
X20250Y-17500D01*
X20500Y-19500D02*
X20750Y-19750D01*
X20500Y-17750D02*
X20500Y-19500D01*
X20250Y-17500D02*
X20500Y-17750D01*
X10500Y-08000D02*
X10000Y-07500D01*
X08750Y-07500D02*
X07750Y-06500D01*
X05500Y-06250D02*
X05500Y-05500D01*
X10000Y-07500D02*
X08750Y-07500D01*
X07750Y-06500D02*
X05750Y-06500D01*
X05750Y-06500D02*
X05500Y-06250D01*
G54D18*
X17000Y-22500D02*
X20000Y-22500D01*
X17000Y-20500D02*
X20000Y-20500D01*
G54D19*
X19500Y-14000D02*
X20000Y-14000D01*
X20000Y-14000D02*
X22000Y-12000D01*
X22000Y-12000D02*
X23000Y-12000D01*
X19500Y-16000D02*
X23000Y-16000D01*
G54D18*
X19250Y-11750D02*
X19500Y-12000D01*
X14000Y-14000D02*
X16250Y-11750D01*
X16250Y-11750D02*
X19250Y-11750D01*
G54D19*
X07750Y-14750D02*
X06500Y-14750D01*
X08000Y-14500D02*
X07750Y-14750D01*
X06250Y-15000D02*
X06250Y-16250D01*
X06500Y-14750D02*
X06250Y-15000D01*
X06250Y-16250D02*
X05500Y-17000D01*
X07500Y-17000D02*
X07250Y-17250D01*
G54D18*
X11500Y-18000D02*
X11500Y-18500D01*
X10000Y-19250D02*
X09750Y-19250D01*
G54D19*
X07250Y-17250D02*
X06500Y-17250D01*
G54D18*
X09250Y-20687D02*
X09250Y-21000D01*
G54D19*
X06500Y-17250D02*
X05500Y-18250D01*
G54D18*
X07500Y-21500D02*
X06750Y-20750D01*
X10750Y-19250D02*
X10000Y-19250D01*
X09250Y-21000D02*
X08750Y-21500D01*
X10000Y-20250D02*
X10000Y-19250D01*
X06750Y-20750D02*
X06750Y-20000D01*
X11500Y-18500D02*
X10750Y-19250D01*
X09563Y-20687D02*
X10000Y-20250D01*
X08750Y-21500D02*
X07500Y-21500D01*
X06750Y-20000D02*
X05500Y-18750D01*
X09250Y-20687D02*
X09563Y-20687D01*
X12250Y-19500D02*
X12250Y-19250D01*
X09750Y-19250D02*
X08750Y-18250D01*
X05500Y-18750D02*
X05500Y-18250D01*
X12250Y-19250D02*
X11500Y-18500D01*
G54D19*
X11750Y-16250D02*
X12500Y-17000D01*
X10000Y-14500D02*
X10250Y-14750D01*
X10250Y-14750D02*
X11500Y-14750D01*
X11500Y-14750D02*
X11750Y-15000D01*
X11750Y-15000D02*
X11750Y-16250D01*
X15250Y-06500D02*
X15000Y-06250D01*
X20000Y-08000D02*
X19500Y-07500D01*
X15000Y-06250D02*
X15000Y-05500D01*
X19500Y-07500D02*
X18250Y-07500D01*
X18250Y-07500D02*
X17250Y-06500D01*
X17250Y-06500D02*
X15250Y-06500D01*
G54D18*
X17500Y-12500D02*
X16500Y-12500D01*
X17000Y-23500D02*
X18500Y-23500D01*
X16250Y-12750D02*
X16250Y-18750D01*
X16500Y-12500D02*
X16250Y-12750D01*
X18500Y-23500D02*
X20000Y-23500D01*
G54D19*
X06500Y-18250D02*
X07000Y-18250D01*
X09000Y-15500D02*
X09500Y-15500D01*
X08000Y-16500D02*
X09000Y-15500D01*
X08000Y-17250D02*
X08000Y-16500D01*
X07000Y-18250D02*
X08000Y-17250D01*
X14000Y-16000D02*
X14750Y-16000D01*
X15000Y-17750D02*
X14000Y-18750D01*
X15000Y-16250D02*
X15000Y-17750D01*
X14000Y-18750D02*
X14000Y-20500D01*
X22000Y-17500D02*
X22500Y-18000D01*
X14750Y-16000D02*
X15000Y-16250D01*
X22500Y-18000D02*
X23000Y-18000D01*
X20750Y-17500D02*
X22000Y-17500D01*
G54D10*
G36*
X06215Y-05050D02*
X06203Y-05055D01*
X06055Y-05202D01*
X06024Y-05276D01*
X06024Y-05176D01*
X05986Y-05084D01*
X05952Y-05050D01*
X06215Y-05050D01*
X06215Y-05050D01*
G37*
G54D19*
X06215Y-05050D02*
X06203Y-05055D01*
X06055Y-05202D01*
X06024Y-05276D01*
X06024Y-05176D01*
X05986Y-05084D01*
X05952Y-05050D01*
X06215Y-05050D01*
G54D10*
G36*
X07215Y-05050D02*
X07203Y-05055D01*
X07055Y-05202D01*
X06999Y-05335D01*
X06945Y-05203D01*
X06798Y-05055D01*
X06785Y-05050D01*
X07215Y-05050D01*
X07215Y-05050D01*
G37*
G54D19*
X07215Y-05050D02*
X07203Y-05055D01*
X07055Y-05202D01*
X06999Y-05335D01*
X06945Y-05203D01*
X06798Y-05055D01*
X06785Y-05050D01*
X07215Y-05050D01*
G54D10*
G36*
X08215Y-05050D02*
X08203Y-05055D01*
X08055Y-05202D01*
X07999Y-05335D01*
X07945Y-05203D01*
X07798Y-05055D01*
X07785Y-05050D01*
X08215Y-05050D01*
X08215Y-05050D01*
G37*
G54D19*
X08215Y-05050D02*
X08203Y-05055D01*
X08055Y-05202D01*
X07999Y-05335D01*
X07945Y-05203D01*
X07798Y-05055D01*
X07785Y-05050D01*
X08215Y-05050D01*
G54D10*
G36*
X09215Y-05050D02*
X09203Y-05055D01*
X09055Y-05202D01*
X08999Y-05335D01*
X08945Y-05203D01*
X08798Y-05055D01*
X08785Y-05050D01*
X09215Y-05050D01*
X09215Y-05050D01*
G37*
G54D19*
X09215Y-05050D02*
X09203Y-05055D01*
X09055Y-05202D01*
X08999Y-05335D01*
X08945Y-05203D01*
X08798Y-05055D01*
X08785Y-05050D01*
X09215Y-05050D01*
G54D10*
G36*
X10048Y-05050D02*
X10014Y-05084D01*
X09976Y-05175D01*
X09976Y-05274D01*
X09976Y-05277D01*
X09945Y-05203D01*
X09798Y-05055D01*
X09785Y-05050D01*
X10048Y-05050D01*
X10048Y-05050D01*
G37*
G54D19*
X10048Y-05050D02*
X10014Y-05084D01*
X09976Y-05175D01*
X09976Y-05274D01*
X09976Y-05277D01*
X09945Y-05203D01*
X09798Y-05055D01*
X09785Y-05050D01*
X10048Y-05050D01*
G54D10*
G36*
X10214Y-10950D02*
X09952Y-10950D01*
X09986Y-10916D01*
X10024Y-10825D01*
X10024Y-10726D01*
X10024Y-10722D01*
X10055Y-10797D01*
X10202Y-10945D01*
X10214Y-10950D01*
X10214Y-10950D01*
G37*
G54D19*
X10214Y-10950D02*
X09952Y-10950D01*
X09986Y-10916D01*
X10024Y-10825D01*
X10024Y-10726D01*
X10024Y-10722D01*
X10055Y-10797D01*
X10202Y-10945D01*
X10214Y-10950D01*
G54D10*
G36*
X11214Y-10950D02*
X10784Y-10950D01*
X10797Y-10945D01*
X10945Y-10798D01*
X11000Y-10664D01*
X11055Y-10797D01*
X11202Y-10945D01*
X11214Y-10950D01*
X11214Y-10950D01*
G37*
G54D19*
X11214Y-10950D02*
X10784Y-10950D01*
X10797Y-10945D01*
X10945Y-10798D01*
X11000Y-10664D01*
X11055Y-10797D01*
X11202Y-10945D01*
X11214Y-10950D01*
G54D10*
G36*
X11215Y-05050D02*
X11203Y-05055D01*
X11055Y-05202D01*
X11024Y-05276D01*
X11024Y-05176D01*
X10986Y-05084D01*
X10952Y-05050D01*
X11215Y-05050D01*
X11215Y-05050D01*
G37*
G54D19*
X11215Y-05050D02*
X11203Y-05055D01*
X11055Y-05202D01*
X11024Y-05276D01*
X11024Y-05176D01*
X10986Y-05084D01*
X10952Y-05050D01*
X11215Y-05050D01*
G54D10*
G36*
X12214Y-10950D02*
X11784Y-10950D01*
X11797Y-10945D01*
X11945Y-10798D01*
X12000Y-10664D01*
X12055Y-10797D01*
X12202Y-10945D01*
X12214Y-10950D01*
X12214Y-10950D01*
G37*
G54D19*
X12214Y-10950D02*
X11784Y-10950D01*
X11797Y-10945D01*
X11945Y-10798D01*
X12000Y-10664D01*
X12055Y-10797D01*
X12202Y-10945D01*
X12214Y-10950D01*
G54D10*
G36*
X12215Y-05050D02*
X12203Y-05055D01*
X12055Y-05202D01*
X11999Y-05335D01*
X11945Y-05203D01*
X11798Y-05055D01*
X11785Y-05050D01*
X12215Y-05050D01*
X12215Y-05050D01*
G37*
G54D19*
X12215Y-05050D02*
X12203Y-05055D01*
X12055Y-05202D01*
X11999Y-05335D01*
X11945Y-05203D01*
X11798Y-05055D01*
X11785Y-05050D01*
X12215Y-05050D01*
G54D10*
G36*
X13214Y-10950D02*
X12784Y-10950D01*
X12797Y-10945D01*
X12945Y-10798D01*
X13000Y-10664D01*
X13055Y-10797D01*
X13202Y-10945D01*
X13214Y-10950D01*
X13214Y-10950D01*
G37*
G54D19*
X13214Y-10950D02*
X12784Y-10950D01*
X12797Y-10945D01*
X12945Y-10798D01*
X13000Y-10664D01*
X13055Y-10797D01*
X13202Y-10945D01*
X13214Y-10950D01*
G54D10*
G36*
X13215Y-05050D02*
X13203Y-05055D01*
X13055Y-05202D01*
X12999Y-05335D01*
X12945Y-05203D01*
X12798Y-05055D01*
X12785Y-05050D01*
X13215Y-05050D01*
X13215Y-05050D01*
G37*
G54D19*
X13215Y-05050D02*
X13203Y-05055D01*
X13055Y-05202D01*
X12999Y-05335D01*
X12945Y-05203D01*
X12798Y-05055D01*
X12785Y-05050D01*
X13215Y-05050D01*
G54D10*
G36*
X13950Y-05215D02*
X13945Y-05203D01*
X13798Y-05055D01*
X13785Y-05050D01*
X13950Y-05050D01*
X13950Y-05215D01*
X13950Y-05215D01*
G37*
G54D19*
X13950Y-05215D02*
X13945Y-05203D01*
X13798Y-05055D01*
X13785Y-05050D01*
X13950Y-05050D01*
X13950Y-05215D01*
G54D10*
G36*
X13950Y-10215D02*
X13945Y-10203D01*
X13798Y-10055D01*
X13605Y-09975D01*
X13396Y-09975D01*
X13203Y-10055D01*
X13055Y-10202D01*
X12999Y-10335D01*
X12945Y-10203D01*
X12798Y-10055D01*
X12605Y-09975D01*
X12396Y-09975D01*
X12203Y-10055D01*
X12055Y-10202D01*
X11999Y-10335D01*
X11945Y-10203D01*
X11798Y-10055D01*
X11605Y-09975D01*
X11396Y-09975D01*
X11203Y-10055D01*
X11055Y-10202D01*
X10999Y-10335D01*
X10945Y-10203D01*
X10798Y-10055D01*
X10605Y-09975D01*
X10396Y-09975D01*
X10203Y-10055D01*
X10055Y-10202D01*
X10024Y-10276D01*
X10024Y-10176D01*
X09986Y-10084D01*
X09916Y-10014D01*
X09825Y-09976D01*
X09726Y-09976D01*
X09176Y-09976D01*
X09084Y-10014D01*
X09014Y-10084D01*
X08976Y-10175D01*
X08976Y-10274D01*
X08976Y-10824D01*
X09014Y-10916D01*
X09048Y-10950D01*
X08025Y-10950D01*
X08025Y-08605D01*
X08025Y-08396D01*
X07945Y-08203D01*
X07798Y-08055D01*
X07664Y-07999D01*
X07797Y-07945D01*
X07945Y-07798D01*
X08025Y-07605D01*
X08025Y-07396D01*
X07945Y-07203D01*
X07798Y-07055D01*
X07605Y-06975D01*
X07396Y-06975D01*
X07203Y-07055D01*
X07055Y-07202D01*
X06975Y-07395D01*
X06975Y-07604D01*
X07055Y-07797D01*
X07202Y-07945D01*
X07335Y-08000D01*
X07203Y-08055D01*
X07055Y-08202D01*
X06975Y-08395D01*
X06975Y-08604D01*
X07055Y-08797D01*
X07202Y-08945D01*
X07395Y-09025D01*
X07604Y-09025D01*
X07797Y-08945D01*
X07945Y-08798D01*
X08025Y-08605D01*
X08025Y-10950D01*
X05050Y-10950D01*
X05050Y-05952D01*
X05084Y-05986D01*
X05175Y-06024D01*
X05200Y-06024D01*
X05200Y-06250D01*
X05223Y-06365D01*
X05288Y-06462D01*
X05537Y-06712D01*
X05538Y-06712D01*
X05635Y-06777D01*
X05750Y-06800D01*
X07626Y-06800D01*
X08538Y-07712D01*
X08635Y-07777D01*
X08750Y-07800D01*
X09876Y-07800D01*
X10075Y-07999D01*
X10075Y-08084D01*
X10139Y-08240D01*
X10259Y-08360D01*
X10415Y-08425D01*
X10584Y-08425D01*
X10740Y-08361D01*
X10860Y-08241D01*
X10925Y-08085D01*
X10925Y-07916D01*
X10861Y-07760D01*
X10741Y-07640D01*
X10585Y-07575D01*
X10499Y-07575D01*
X10212Y-07288D01*
X10115Y-07223D01*
X10000Y-07200D01*
X08874Y-07200D01*
X07962Y-06288D01*
X07865Y-06223D01*
X07750Y-06200D01*
X05874Y-06200D01*
X05800Y-06125D01*
X05800Y-06024D01*
X05824Y-06024D01*
X05916Y-05986D01*
X05986Y-05916D01*
X06024Y-05825D01*
X06024Y-05726D01*
X06024Y-05722D01*
X06055Y-05797D01*
X06202Y-05945D01*
X06395Y-06025D01*
X06604Y-06025D01*
X06797Y-05945D01*
X06945Y-05798D01*
X07000Y-05664D01*
X07055Y-05797D01*
X07202Y-05945D01*
X07395Y-06025D01*
X07604Y-06025D01*
X07797Y-05945D01*
X07945Y-05798D01*
X08000Y-05664D01*
X08055Y-05797D01*
X08202Y-05945D01*
X08395Y-06025D01*
X08604Y-06025D01*
X08797Y-05945D01*
X08945Y-05798D01*
X09000Y-05664D01*
X09055Y-05797D01*
X09202Y-05945D01*
X09395Y-06025D01*
X09604Y-06025D01*
X09797Y-05945D01*
X09945Y-05798D01*
X09976Y-05723D01*
X09976Y-05824D01*
X10014Y-05916D01*
X10084Y-05986D01*
X10175Y-06024D01*
X10274Y-06024D01*
X10824Y-06024D01*
X10916Y-05986D01*
X10986Y-05916D01*
X11024Y-05825D01*
X11024Y-05726D01*
X11024Y-05722D01*
X11055Y-05797D01*
X11202Y-05945D01*
X11395Y-06025D01*
X11604Y-06025D01*
X11797Y-05945D01*
X11945Y-05798D01*
X12000Y-05664D01*
X12055Y-05797D01*
X12202Y-05945D01*
X12395Y-06025D01*
X12604Y-06025D01*
X12797Y-05945D01*
X12945Y-05798D01*
X13000Y-05664D01*
X13055Y-05797D01*
X13202Y-05945D01*
X13395Y-06025D01*
X13604Y-06025D01*
X13797Y-05945D01*
X13945Y-05798D01*
X13950Y-05785D01*
X13950Y-10215D01*
X13950Y-10215D01*
G37*
G54D19*
X13950Y-10215D02*
X13945Y-10203D01*
X13798Y-10055D01*
X13605Y-09975D01*
X13396Y-09975D01*
X13203Y-10055D01*
X13055Y-10202D01*
X12999Y-10335D01*
X12945Y-10203D01*
X12798Y-10055D01*
X12605Y-09975D01*
X12396Y-09975D01*
X12203Y-10055D01*
X12055Y-10202D01*
X11999Y-10335D01*
X11945Y-10203D01*
X11798Y-10055D01*
X11605Y-09975D01*
X11396Y-09975D01*
X11203Y-10055D01*
X11055Y-10202D01*
X10999Y-10335D01*
X10945Y-10203D01*
X10798Y-10055D01*
X10605Y-09975D01*
X10396Y-09975D01*
X10203Y-10055D01*
X10055Y-10202D01*
X10024Y-10276D01*
X10024Y-10176D01*
X09986Y-10084D01*
X09916Y-10014D01*
X09825Y-09976D01*
X09726Y-09976D01*
X09176Y-09976D01*
X09084Y-10014D01*
X09014Y-10084D01*
X08976Y-10175D01*
X08976Y-10274D01*
X08976Y-10824D01*
X09014Y-10916D01*
X09048Y-10950D01*
X08025Y-10950D01*
X08025Y-08605D01*
X08025Y-08396D01*
X07945Y-08203D01*
X07798Y-08055D01*
X07664Y-07999D01*
X07797Y-07945D01*
X07945Y-07798D01*
X08025Y-07605D01*
X08025Y-07396D01*
X07945Y-07203D01*
X07798Y-07055D01*
X07605Y-06975D01*
X07396Y-06975D01*
X07203Y-07055D01*
X07055Y-07202D01*
X06975Y-07395D01*
X06975Y-07604D01*
X07055Y-07797D01*
X07202Y-07945D01*
X07335Y-08000D01*
X07203Y-08055D01*
X07055Y-08202D01*
X06975Y-08395D01*
X06975Y-08604D01*
X07055Y-08797D01*
X07202Y-08945D01*
X07395Y-09025D01*
X07604Y-09025D01*
X07797Y-08945D01*
X07945Y-08798D01*
X08025Y-08605D01*
X08025Y-10950D01*
X05050Y-10950D01*
X05050Y-05952D01*
X05084Y-05986D01*
X05175Y-06024D01*
X05200Y-06024D01*
X05200Y-06250D01*
X05223Y-06365D01*
X05288Y-06462D01*
X05537Y-06712D01*
X05538Y-06712D01*
X05635Y-06777D01*
X05750Y-06800D01*
X07626Y-06800D01*
X08538Y-07712D01*
X08635Y-07777D01*
X08750Y-07800D01*
X09876Y-07800D01*
X10075Y-07999D01*
X10075Y-08084D01*
X10139Y-08240D01*
X10259Y-08360D01*
X10415Y-08425D01*
X10584Y-08425D01*
X10740Y-08361D01*
X10860Y-08241D01*
X10925Y-08085D01*
X10925Y-07916D01*
X10861Y-07760D01*
X10741Y-07640D01*
X10585Y-07575D01*
X10499Y-07575D01*
X10212Y-07288D01*
X10115Y-07223D01*
X10000Y-07200D01*
X08874Y-07200D01*
X07962Y-06288D01*
X07865Y-06223D01*
X07750Y-06200D01*
X05874Y-06200D01*
X05800Y-06125D01*
X05800Y-06024D01*
X05824Y-06024D01*
X05916Y-05986D01*
X05986Y-05916D01*
X06024Y-05825D01*
X06024Y-05726D01*
X06024Y-05722D01*
X06055Y-05797D01*
X06202Y-05945D01*
X06395Y-06025D01*
X06604Y-06025D01*
X06797Y-05945D01*
X06945Y-05798D01*
X07000Y-05664D01*
X07055Y-05797D01*
X07202Y-05945D01*
X07395Y-06025D01*
X07604Y-06025D01*
X07797Y-05945D01*
X07945Y-05798D01*
X08000Y-05664D01*
X08055Y-05797D01*
X08202Y-05945D01*
X08395Y-06025D01*
X08604Y-06025D01*
X08797Y-05945D01*
X08945Y-05798D01*
X09000Y-05664D01*
X09055Y-05797D01*
X09202Y-05945D01*
X09395Y-06025D01*
X09604Y-06025D01*
X09797Y-05945D01*
X09945Y-05798D01*
X09976Y-05723D01*
X09976Y-05824D01*
X10014Y-05916D01*
X10084Y-05986D01*
X10175Y-06024D01*
X10274Y-06024D01*
X10824Y-06024D01*
X10916Y-05986D01*
X10986Y-05916D01*
X11024Y-05825D01*
X11024Y-05726D01*
X11024Y-05722D01*
X11055Y-05797D01*
X11202Y-05945D01*
X11395Y-06025D01*
X11604Y-06025D01*
X11797Y-05945D01*
X11945Y-05798D01*
X12000Y-05664D01*
X12055Y-05797D01*
X12202Y-05945D01*
X12395Y-06025D01*
X12604Y-06025D01*
X12797Y-05945D01*
X12945Y-05798D01*
X13000Y-05664D01*
X13055Y-05797D01*
X13202Y-05945D01*
X13395Y-06025D01*
X13604Y-06025D01*
X13797Y-05945D01*
X13945Y-05798D01*
X13950Y-05785D01*
X13950Y-10215D01*
G54D10*
G36*
X13950Y-10950D02*
X13784Y-10950D01*
X13797Y-10945D01*
X13945Y-10798D01*
X13950Y-10785D01*
X13950Y-10950D01*
X13950Y-10950D01*
G37*
G54D19*
X13950Y-10950D02*
X13784Y-10950D01*
X13797Y-10945D01*
X13945Y-10798D01*
X13950Y-10785D01*
X13950Y-10950D01*
G54D10*
G36*
X15715Y-05050D02*
X15703Y-05055D01*
X15555Y-05202D01*
X15524Y-05276D01*
X15524Y-05176D01*
X15486Y-05084D01*
X15452Y-05050D01*
X15715Y-05050D01*
X15715Y-05050D01*
G37*
G54D19*
X15715Y-05050D02*
X15703Y-05055D01*
X15555Y-05202D01*
X15524Y-05276D01*
X15524Y-05176D01*
X15486Y-05084D01*
X15452Y-05050D01*
X15715Y-05050D01*
G54D10*
G36*
X16715Y-05050D02*
X16703Y-05055D01*
X16555Y-05202D01*
X16499Y-05335D01*
X16445Y-05203D01*
X16298Y-05055D01*
X16285Y-05050D01*
X16715Y-05050D01*
X16715Y-05050D01*
G37*
G54D19*
X16715Y-05050D02*
X16703Y-05055D01*
X16555Y-05202D01*
X16499Y-05335D01*
X16445Y-05203D01*
X16298Y-05055D01*
X16285Y-05050D01*
X16715Y-05050D01*
G54D10*
G36*
X17715Y-05050D02*
X17703Y-05055D01*
X17555Y-05202D01*
X17499Y-05335D01*
X17445Y-05203D01*
X17298Y-05055D01*
X17285Y-05050D01*
X17715Y-05050D01*
X17715Y-05050D01*
G37*
G54D19*
X17715Y-05050D02*
X17703Y-05055D01*
X17555Y-05202D01*
X17499Y-05335D01*
X17445Y-05203D01*
X17298Y-05055D01*
X17285Y-05050D01*
X17715Y-05050D01*
G54D10*
G36*
X18715Y-05050D02*
X18703Y-05055D01*
X18555Y-05202D01*
X18499Y-05335D01*
X18445Y-05203D01*
X18298Y-05055D01*
X18285Y-05050D01*
X18715Y-05050D01*
X18715Y-05050D01*
G37*
G54D19*
X18715Y-05050D02*
X18703Y-05055D01*
X18555Y-05202D01*
X18499Y-05335D01*
X18445Y-05203D01*
X18298Y-05055D01*
X18285Y-05050D01*
X18715Y-05050D01*
G54D10*
G36*
X19548Y-05050D02*
X19514Y-05084D01*
X19476Y-05175D01*
X19476Y-05274D01*
X19476Y-05277D01*
X19445Y-05203D01*
X19298Y-05055D01*
X19285Y-05050D01*
X19548Y-05050D01*
X19548Y-05050D01*
G37*
G54D19*
X19548Y-05050D02*
X19514Y-05084D01*
X19476Y-05175D01*
X19476Y-05274D01*
X19476Y-05277D01*
X19445Y-05203D01*
X19298Y-05055D01*
X19285Y-05050D01*
X19548Y-05050D01*
G54D10*
G36*
X19714Y-10950D02*
X19452Y-10950D01*
X19486Y-10916D01*
X19524Y-10825D01*
X19524Y-10726D01*
X19524Y-10722D01*
X19555Y-10797D01*
X19702Y-10945D01*
X19714Y-10950D01*
X19714Y-10950D01*
G37*
G54D19*
X19714Y-10950D02*
X19452Y-10950D01*
X19486Y-10916D01*
X19524Y-10825D01*
X19524Y-10726D01*
X19524Y-10722D01*
X19555Y-10797D01*
X19702Y-10945D01*
X19714Y-10950D01*
G54D10*
G36*
X20714Y-10950D02*
X20284Y-10950D01*
X20297Y-10945D01*
X20445Y-10798D01*
X20500Y-10664D01*
X20555Y-10797D01*
X20702Y-10945D01*
X20714Y-10950D01*
X20714Y-10950D01*
G37*
G54D19*
X20714Y-10950D02*
X20284Y-10950D01*
X20297Y-10945D01*
X20445Y-10798D01*
X20500Y-10664D01*
X20555Y-10797D01*
X20702Y-10945D01*
X20714Y-10950D01*
G54D10*
G36*
X20715Y-05050D02*
X20703Y-05055D01*
X20555Y-05202D01*
X20524Y-05276D01*
X20524Y-05176D01*
X20486Y-05084D01*
X20452Y-05050D01*
X20715Y-05050D01*
X20715Y-05050D01*
G37*
G54D19*
X20715Y-05050D02*
X20703Y-05055D01*
X20555Y-05202D01*
X20524Y-05276D01*
X20524Y-05176D01*
X20486Y-05084D01*
X20452Y-05050D01*
X20715Y-05050D01*
G54D10*
G36*
X21714Y-10950D02*
X21284Y-10950D01*
X21297Y-10945D01*
X21445Y-10798D01*
X21500Y-10664D01*
X21555Y-10797D01*
X21702Y-10945D01*
X21714Y-10950D01*
X21714Y-10950D01*
G37*
G54D19*
X21714Y-10950D02*
X21284Y-10950D01*
X21297Y-10945D01*
X21445Y-10798D01*
X21500Y-10664D01*
X21555Y-10797D01*
X21702Y-10945D01*
X21714Y-10950D01*
G54D10*
G36*
X21715Y-05050D02*
X21703Y-05055D01*
X21555Y-05202D01*
X21499Y-05335D01*
X21445Y-05203D01*
X21298Y-05055D01*
X21285Y-05050D01*
X21715Y-05050D01*
X21715Y-05050D01*
G37*
G54D19*
X21715Y-05050D02*
X21703Y-05055D01*
X21555Y-05202D01*
X21499Y-05335D01*
X21445Y-05203D01*
X21298Y-05055D01*
X21285Y-05050D01*
X21715Y-05050D01*
G54D10*
G36*
X22714Y-10950D02*
X22284Y-10950D01*
X22297Y-10945D01*
X22445Y-10798D01*
X22500Y-10664D01*
X22555Y-10797D01*
X22702Y-10945D01*
X22714Y-10950D01*
X22714Y-10950D01*
G37*
G54D19*
X22714Y-10950D02*
X22284Y-10950D01*
X22297Y-10945D01*
X22445Y-10798D01*
X22500Y-10664D01*
X22555Y-10797D01*
X22702Y-10945D01*
X22714Y-10950D01*
G54D10*
G36*
X22715Y-05050D02*
X22703Y-05055D01*
X22555Y-05202D01*
X22499Y-05335D01*
X22445Y-05203D01*
X22298Y-05055D01*
X22285Y-05050D01*
X22715Y-05050D01*
X22715Y-05050D01*
G37*
G54D19*
X22715Y-05050D02*
X22703Y-05055D01*
X22555Y-05202D01*
X22499Y-05335D01*
X22445Y-05203D01*
X22298Y-05055D01*
X22285Y-05050D01*
X22715Y-05050D01*
G54D10*
G36*
X23297Y-05054D02*
X23285Y-05050D01*
X23297Y-05050D01*
X23297Y-05054D01*
X23297Y-05054D01*
G37*
G54D19*
X23297Y-05054D02*
X23285Y-05050D01*
X23297Y-05050D01*
X23297Y-05054D01*
G54D10*
G36*
X23297Y-10054D02*
X23105Y-09975D01*
X22896Y-09975D01*
X22703Y-10055D01*
X22555Y-10202D01*
X22499Y-10335D01*
X22445Y-10203D01*
X22298Y-10055D01*
X22105Y-09975D01*
X21896Y-09975D01*
X21703Y-10055D01*
X21555Y-10202D01*
X21499Y-10335D01*
X21445Y-10203D01*
X21298Y-10055D01*
X21105Y-09975D01*
X20896Y-09975D01*
X20703Y-10055D01*
X20555Y-10202D01*
X20499Y-10335D01*
X20445Y-10203D01*
X20298Y-10055D01*
X20105Y-09975D01*
X19896Y-09975D01*
X19703Y-10055D01*
X19555Y-10202D01*
X19524Y-10276D01*
X19524Y-10176D01*
X19486Y-10084D01*
X19416Y-10014D01*
X19325Y-09976D01*
X19226Y-09976D01*
X18676Y-09976D01*
X18584Y-10014D01*
X18514Y-10084D01*
X18476Y-10175D01*
X18476Y-10274D01*
X18476Y-10824D01*
X18514Y-10916D01*
X18548Y-10950D01*
X17525Y-10950D01*
X17525Y-08605D01*
X17525Y-08396D01*
X17445Y-08203D01*
X17298Y-08055D01*
X17164Y-07999D01*
X17297Y-07945D01*
X17445Y-07798D01*
X17525Y-07605D01*
X17525Y-07396D01*
X17445Y-07203D01*
X17298Y-07055D01*
X17105Y-06975D01*
X16896Y-06975D01*
X16703Y-07055D01*
X16555Y-07202D01*
X16475Y-07395D01*
X16475Y-07604D01*
X16555Y-07797D01*
X16702Y-07945D01*
X16835Y-08000D01*
X16703Y-08055D01*
X16555Y-08202D01*
X16475Y-08395D01*
X16475Y-08604D01*
X16555Y-08797D01*
X16702Y-08945D01*
X16895Y-09025D01*
X17104Y-09025D01*
X17297Y-08945D01*
X17445Y-08798D01*
X17525Y-08605D01*
X17525Y-10950D01*
X14550Y-10950D01*
X14550Y-05952D01*
X14584Y-05986D01*
X14675Y-06024D01*
X14700Y-06024D01*
X14700Y-06250D01*
X14723Y-06365D01*
X14788Y-06462D01*
X15037Y-06712D01*
X15038Y-06712D01*
X15135Y-06777D01*
X15250Y-06800D01*
X17126Y-06800D01*
X18038Y-07712D01*
X18135Y-07777D01*
X18250Y-07800D01*
X19376Y-07800D01*
X19575Y-07999D01*
X19575Y-08084D01*
X19639Y-08240D01*
X19759Y-08360D01*
X19915Y-08425D01*
X20084Y-08425D01*
X20240Y-08361D01*
X20360Y-08241D01*
X20425Y-08085D01*
X20425Y-07916D01*
X20361Y-07760D01*
X20241Y-07640D01*
X20085Y-07575D01*
X19999Y-07575D01*
X19712Y-07288D01*
X19615Y-07223D01*
X19500Y-07200D01*
X18374Y-07200D01*
X17462Y-06288D01*
X17365Y-06223D01*
X17250Y-06200D01*
X15374Y-06200D01*
X15300Y-06125D01*
X15300Y-06024D01*
X15324Y-06024D01*
X15416Y-05986D01*
X15486Y-05916D01*
X15524Y-05825D01*
X15524Y-05726D01*
X15524Y-05722D01*
X15555Y-05797D01*
X15702Y-05945D01*
X15895Y-06025D01*
X16104Y-06025D01*
X16297Y-05945D01*
X16445Y-05798D01*
X16500Y-05664D01*
X16555Y-05797D01*
X16702Y-05945D01*
X16895Y-06025D01*
X17104Y-06025D01*
X17297Y-05945D01*
X17445Y-05798D01*
X17500Y-05664D01*
X17555Y-05797D01*
X17702Y-05945D01*
X17895Y-06025D01*
X18104Y-06025D01*
X18297Y-05945D01*
X18445Y-05798D01*
X18500Y-05664D01*
X18555Y-05797D01*
X18702Y-05945D01*
X18895Y-06025D01*
X19104Y-06025D01*
X19297Y-05945D01*
X19445Y-05798D01*
X19476Y-05723D01*
X19476Y-05824D01*
X19514Y-05916D01*
X19584Y-05986D01*
X19675Y-06024D01*
X19774Y-06024D01*
X20324Y-06024D01*
X20416Y-05986D01*
X20486Y-05916D01*
X20524Y-05825D01*
X20524Y-05726D01*
X20524Y-05722D01*
X20555Y-05797D01*
X20702Y-05945D01*
X20895Y-06025D01*
X21104Y-06025D01*
X21297Y-05945D01*
X21445Y-05798D01*
X21500Y-05664D01*
X21555Y-05797D01*
X21702Y-05945D01*
X21895Y-06025D01*
X22104Y-06025D01*
X22297Y-05945D01*
X22445Y-05798D01*
X22500Y-05664D01*
X22555Y-05797D01*
X22702Y-05945D01*
X22895Y-06025D01*
X23104Y-06025D01*
X23297Y-05945D01*
X23297Y-10054D01*
X23297Y-10054D01*
G37*
G54D19*
X23297Y-10054D02*
X23105Y-09975D01*
X22896Y-09975D01*
X22703Y-10055D01*
X22555Y-10202D01*
X22499Y-10335D01*
X22445Y-10203D01*
X22298Y-10055D01*
X22105Y-09975D01*
X21896Y-09975D01*
X21703Y-10055D01*
X21555Y-10202D01*
X21499Y-10335D01*
X21445Y-10203D01*
X21298Y-10055D01*
X21105Y-09975D01*
X20896Y-09975D01*
X20703Y-10055D01*
X20555Y-10202D01*
X20499Y-10335D01*
X20445Y-10203D01*
X20298Y-10055D01*
X20105Y-09975D01*
X19896Y-09975D01*
X19703Y-10055D01*
X19555Y-10202D01*
X19524Y-10276D01*
X19524Y-10176D01*
X19486Y-10084D01*
X19416Y-10014D01*
X19325Y-09976D01*
X19226Y-09976D01*
X18676Y-09976D01*
X18584Y-10014D01*
X18514Y-10084D01*
X18476Y-10175D01*
X18476Y-10274D01*
X18476Y-10824D01*
X18514Y-10916D01*
X18548Y-10950D01*
X17525Y-10950D01*
X17525Y-08605D01*
X17525Y-08396D01*
X17445Y-08203D01*
X17298Y-08055D01*
X17164Y-07999D01*
X17297Y-07945D01*
X17445Y-07798D01*
X17525Y-07605D01*
X17525Y-07396D01*
X17445Y-07203D01*
X17298Y-07055D01*
X17105Y-06975D01*
X16896Y-06975D01*
X16703Y-07055D01*
X16555Y-07202D01*
X16475Y-07395D01*
X16475Y-07604D01*
X16555Y-07797D01*
X16702Y-07945D01*
X16835Y-08000D01*
X16703Y-08055D01*
X16555Y-08202D01*
X16475Y-08395D01*
X16475Y-08604D01*
X16555Y-08797D01*
X16702Y-08945D01*
X16895Y-09025D01*
X17104Y-09025D01*
X17297Y-08945D01*
X17445Y-08798D01*
X17525Y-08605D01*
X17525Y-10950D01*
X14550Y-10950D01*
X14550Y-05952D01*
X14584Y-05986D01*
X14675Y-06024D01*
X14700Y-06024D01*
X14700Y-06250D01*
X14723Y-06365D01*
X14788Y-06462D01*
X15037Y-06712D01*
X15038Y-06712D01*
X15135Y-06777D01*
X15250Y-06800D01*
X17126Y-06800D01*
X18038Y-07712D01*
X18135Y-07777D01*
X18250Y-07800D01*
X19376Y-07800D01*
X19575Y-07999D01*
X19575Y-08084D01*
X19639Y-08240D01*
X19759Y-08360D01*
X19915Y-08425D01*
X20084Y-08425D01*
X20240Y-08361D01*
X20360Y-08241D01*
X20425Y-08085D01*
X20425Y-07916D01*
X20361Y-07760D01*
X20241Y-07640D01*
X20085Y-07575D01*
X19999Y-07575D01*
X19712Y-07288D01*
X19615Y-07223D01*
X19500Y-07200D01*
X18374Y-07200D01*
X17462Y-06288D01*
X17365Y-06223D01*
X17250Y-06200D01*
X15374Y-06200D01*
X15300Y-06125D01*
X15300Y-06024D01*
X15324Y-06024D01*
X15416Y-05986D01*
X15486Y-05916D01*
X15524Y-05825D01*
X15524Y-05726D01*
X15524Y-05722D01*
X15555Y-05797D01*
X15702Y-05945D01*
X15895Y-06025D01*
X16104Y-06025D01*
X16297Y-05945D01*
X16445Y-05798D01*
X16500Y-05664D01*
X16555Y-05797D01*
X16702Y-05945D01*
X16895Y-06025D01*
X17104Y-06025D01*
X17297Y-05945D01*
X17445Y-05798D01*
X17500Y-05664D01*
X17555Y-05797D01*
X17702Y-05945D01*
X17895Y-06025D01*
X18104Y-06025D01*
X18297Y-05945D01*
X18445Y-05798D01*
X18500Y-05664D01*
X18555Y-05797D01*
X18702Y-05945D01*
X18895Y-06025D01*
X19104Y-06025D01*
X19297Y-05945D01*
X19445Y-05798D01*
X19476Y-05723D01*
X19476Y-05824D01*
X19514Y-05916D01*
X19584Y-05986D01*
X19675Y-06024D01*
X19774Y-06024D01*
X20324Y-06024D01*
X20416Y-05986D01*
X20486Y-05916D01*
X20524Y-05825D01*
X20524Y-05726D01*
X20524Y-05722D01*
X20555Y-05797D01*
X20702Y-05945D01*
X20895Y-06025D01*
X21104Y-06025D01*
X21297Y-05945D01*
X21445Y-05798D01*
X21500Y-05664D01*
X21555Y-05797D01*
X21702Y-05945D01*
X21895Y-06025D01*
X22104Y-06025D01*
X22297Y-05945D01*
X22445Y-05798D01*
X22500Y-05664D01*
X22555Y-05797D01*
X22702Y-05945D01*
X22895Y-06025D01*
X23104Y-06025D01*
X23297Y-05945D01*
X23297Y-10054D01*
G54D10*
G36*
X23297Y-10950D02*
X23284Y-10950D01*
X23297Y-10945D01*
X23297Y-10950D01*
X23297Y-10950D01*
G37*
G54D19*
X23297Y-10950D02*
X23284Y-10950D01*
X23297Y-10945D01*
X23297Y-10950D01*
G54D10*
G36*
X05145Y-23888D02*
X05050Y-23888D01*
X05050Y-23784D01*
X05055Y-23797D01*
X05145Y-23888D01*
X05145Y-23888D01*
G37*
G54D19*
X05145Y-23888D02*
X05050Y-23888D01*
X05050Y-23784D01*
X05055Y-23797D01*
X05145Y-23888D01*
G54D10*
G36*
X05215Y-11550D02*
X05203Y-11555D01*
X05055Y-11702D01*
X05050Y-11714D01*
X05050Y-11550D01*
X05215Y-11550D01*
X05215Y-11550D01*
G37*
G54D19*
X05215Y-11550D02*
X05203Y-11555D01*
X05055Y-11702D01*
X05050Y-11714D01*
X05050Y-11550D01*
X05215Y-11550D01*
G54D10*
G36*
X05276Y-16476D02*
X05176Y-16476D01*
X05084Y-16514D01*
X05050Y-16548D01*
X05050Y-16284D01*
X05055Y-16297D01*
X05202Y-16445D01*
X05276Y-16476D01*
X05276Y-16476D01*
G37*
G54D19*
X05276Y-16476D02*
X05176Y-16476D01*
X05084Y-16514D01*
X05050Y-16548D01*
X05050Y-16284D01*
X05055Y-16297D01*
X05202Y-16445D01*
X05276Y-16476D01*
G54D10*
G36*
X05335Y-12500D02*
X05203Y-12555D01*
X05055Y-12702D01*
X05050Y-12714D01*
X05050Y-12284D01*
X05055Y-12297D01*
X05202Y-12445D01*
X05335Y-12500D01*
X05335Y-12500D01*
G37*
G54D19*
X05335Y-12500D02*
X05203Y-12555D01*
X05055Y-12702D01*
X05050Y-12714D01*
X05050Y-12284D01*
X05055Y-12297D01*
X05202Y-12445D01*
X05335Y-12500D01*
G54D10*
G36*
X05335Y-13500D02*
X05203Y-13555D01*
X05055Y-13702D01*
X05050Y-13714D01*
X05050Y-13284D01*
X05055Y-13297D01*
X05202Y-13445D01*
X05335Y-13500D01*
X05335Y-13500D01*
G37*
G54D19*
X05335Y-13500D02*
X05203Y-13555D01*
X05055Y-13702D01*
X05050Y-13714D01*
X05050Y-13284D01*
X05055Y-13297D01*
X05202Y-13445D01*
X05335Y-13500D01*
G54D10*
G36*
X05335Y-14500D02*
X05203Y-14555D01*
X05055Y-14702D01*
X05050Y-14714D01*
X05050Y-14284D01*
X05055Y-14297D01*
X05202Y-14445D01*
X05335Y-14500D01*
X05335Y-14500D01*
G37*
G54D19*
X05335Y-14500D02*
X05203Y-14555D01*
X05055Y-14702D01*
X05050Y-14714D01*
X05050Y-14284D01*
X05055Y-14297D01*
X05202Y-14445D01*
X05335Y-14500D01*
G54D10*
G36*
X05335Y-15500D02*
X05203Y-15555D01*
X05055Y-15702D01*
X05050Y-15714D01*
X05050Y-15284D01*
X05055Y-15297D01*
X05202Y-15445D01*
X05335Y-15500D01*
X05335Y-15500D01*
G37*
G54D19*
X05335Y-15500D02*
X05203Y-15555D01*
X05055Y-15702D01*
X05050Y-15714D01*
X05050Y-15284D01*
X05055Y-15297D01*
X05202Y-15445D01*
X05335Y-15500D01*
G54D10*
G36*
X05802Y-17524D02*
X05600Y-17726D01*
X05176Y-17726D01*
X05084Y-17764D01*
X05050Y-17798D01*
X05050Y-17452D01*
X05084Y-17486D01*
X05175Y-17524D01*
X05274Y-17524D01*
X05802Y-17524D01*
X05802Y-17524D01*
G37*
G54D19*
X05802Y-17524D02*
X05600Y-17726D01*
X05176Y-17726D01*
X05084Y-17764D01*
X05050Y-17798D01*
X05050Y-17452D01*
X05084Y-17486D01*
X05175Y-17524D01*
X05274Y-17524D01*
X05802Y-17524D01*
G54D10*
G36*
X05950Y-15715D02*
X05945Y-15703D01*
X05798Y-15555D01*
X05664Y-15499D01*
X05797Y-15445D01*
X05945Y-15298D01*
X05950Y-15285D01*
X05950Y-15715D01*
X05950Y-15715D01*
G37*
G54D19*
X05950Y-15715D02*
X05945Y-15703D01*
X05798Y-15555D01*
X05664Y-15499D01*
X05797Y-15445D01*
X05945Y-15298D01*
X05950Y-15285D01*
X05950Y-15715D01*
G54D10*
G36*
X07282Y-17543D02*
X06909Y-17916D01*
X06798Y-17805D01*
X06605Y-17725D01*
X06449Y-17725D01*
X06624Y-17550D01*
X07250Y-17550D01*
X07282Y-17543D01*
X07282Y-17543D01*
G37*
G54D19*
X07282Y-17543D02*
X06909Y-17916D01*
X06798Y-17805D01*
X06605Y-17725D01*
X06449Y-17725D01*
X06624Y-17550D01*
X07250Y-17550D01*
X07282Y-17543D01*
G54D10*
G36*
X08777Y-20978D02*
X08605Y-21151D01*
X08562Y-21151D01*
X08715Y-20998D01*
X08750Y-20913D01*
X08777Y-20978D01*
X08777Y-20978D01*
G37*
G54D19*
X08777Y-20978D02*
X08605Y-21151D01*
X08562Y-21151D01*
X08715Y-20998D01*
X08750Y-20913D01*
X08777Y-20978D01*
G54D10*
G36*
X08867Y-20293D02*
X08785Y-20376D01*
X08750Y-20460D01*
X08715Y-20376D01*
X08632Y-20293D01*
X08715Y-20211D01*
X08750Y-20126D01*
X08785Y-20211D01*
X08867Y-20293D01*
X08867Y-20293D01*
G37*
G54D19*
X08867Y-20293D02*
X08785Y-20376D01*
X08750Y-20460D01*
X08715Y-20376D01*
X08632Y-20293D01*
X08715Y-20211D01*
X08750Y-20126D01*
X08785Y-20211D01*
X08867Y-20293D01*
G54D10*
G36*
X09357Y-19351D02*
X09141Y-19351D01*
X08939Y-19435D01*
X08785Y-19589D01*
X08750Y-19673D01*
X08715Y-19589D01*
X08561Y-19435D01*
X08359Y-19351D01*
X08141Y-19351D01*
X07939Y-19435D01*
X07785Y-19589D01*
X07701Y-19791D01*
X07701Y-20009D01*
X07785Y-20211D01*
X07867Y-20293D01*
X07785Y-20376D01*
X07701Y-20578D01*
X07701Y-20796D01*
X07785Y-20998D01*
X07938Y-21151D01*
X07644Y-21151D01*
X07099Y-20605D01*
X07099Y-20000D01*
X07098Y-19999D01*
X07099Y-19999D01*
X07085Y-19933D01*
X07072Y-19867D01*
X07072Y-19866D01*
X06997Y-19753D01*
X06994Y-19751D01*
X05947Y-18704D01*
X05986Y-18666D01*
X06024Y-18575D01*
X06024Y-18476D01*
X06024Y-18472D01*
X06055Y-18547D01*
X06202Y-18695D01*
X06395Y-18775D01*
X06604Y-18775D01*
X06797Y-18695D01*
X06942Y-18550D01*
X07000Y-18550D01*
X07115Y-18527D01*
X07212Y-18462D01*
X08212Y-17462D01*
X08247Y-17408D01*
X08305Y-17547D01*
X08452Y-17695D01*
X08585Y-17750D01*
X08453Y-17805D01*
X08305Y-17952D01*
X08225Y-18145D01*
X08225Y-18354D01*
X08305Y-18547D01*
X08452Y-18695D01*
X08645Y-18775D01*
X08781Y-18775D01*
X09357Y-19351D01*
X09357Y-19351D01*
G37*
G54D19*
X09357Y-19351D02*
X09141Y-19351D01*
X08939Y-19435D01*
X08785Y-19589D01*
X08750Y-19673D01*
X08715Y-19589D01*
X08561Y-19435D01*
X08359Y-19351D01*
X08141Y-19351D01*
X07939Y-19435D01*
X07785Y-19589D01*
X07701Y-19791D01*
X07701Y-20009D01*
X07785Y-20211D01*
X07867Y-20293D01*
X07785Y-20376D01*
X07701Y-20578D01*
X07701Y-20796D01*
X07785Y-20998D01*
X07938Y-21151D01*
X07644Y-21151D01*
X07099Y-20605D01*
X07099Y-20000D01*
X07098Y-19999D01*
X07099Y-19999D01*
X07085Y-19933D01*
X07072Y-19867D01*
X07072Y-19866D01*
X06997Y-19753D01*
X06994Y-19751D01*
X05947Y-18704D01*
X05986Y-18666D01*
X06024Y-18575D01*
X06024Y-18476D01*
X06024Y-18472D01*
X06055Y-18547D01*
X06202Y-18695D01*
X06395Y-18775D01*
X06604Y-18775D01*
X06797Y-18695D01*
X06942Y-18550D01*
X07000Y-18550D01*
X07115Y-18527D01*
X07212Y-18462D01*
X08212Y-17462D01*
X08247Y-17408D01*
X08305Y-17547D01*
X08452Y-17695D01*
X08585Y-17750D01*
X08453Y-17805D01*
X08305Y-17952D01*
X08225Y-18145D01*
X08225Y-18354D01*
X08305Y-18547D01*
X08452Y-18695D01*
X08645Y-18775D01*
X08781Y-18775D01*
X09357Y-19351D01*
G54D10*
G36*
X12335Y-14500D02*
X12203Y-14555D01*
X12055Y-14702D01*
X11997Y-14840D01*
X11962Y-14788D01*
X11962Y-14787D01*
X11712Y-14538D01*
X11615Y-14473D01*
X11500Y-14450D01*
X10425Y-14450D01*
X10425Y-14416D01*
X10361Y-14260D01*
X10241Y-14140D01*
X10085Y-14075D01*
X09916Y-14075D01*
X09760Y-14139D01*
X09640Y-14259D01*
X09575Y-14415D01*
X09575Y-14584D01*
X09639Y-14740D01*
X09759Y-14860D01*
X09915Y-14925D01*
X10000Y-14925D01*
X10037Y-14962D01*
X10038Y-14962D01*
X10135Y-15027D01*
X10250Y-15050D01*
X11375Y-15050D01*
X11450Y-15124D01*
X11450Y-16250D01*
X11473Y-16365D01*
X11538Y-16462D01*
X11976Y-16900D01*
X11976Y-17324D01*
X12014Y-17416D01*
X12084Y-17486D01*
X12175Y-17524D01*
X12274Y-17524D01*
X12203Y-17555D01*
X12055Y-17702D01*
X11999Y-17835D01*
X11945Y-17703D01*
X11798Y-17555D01*
X11605Y-17475D01*
X11396Y-17475D01*
X11203Y-17555D01*
X11055Y-17702D01*
X11024Y-17776D01*
X11024Y-17676D01*
X10986Y-17584D01*
X10916Y-17514D01*
X10825Y-17476D01*
X10726Y-17476D01*
X10176Y-17476D01*
X10084Y-17514D01*
X10014Y-17584D01*
X09976Y-17675D01*
X09976Y-17774D01*
X09976Y-18324D01*
X10014Y-18416D01*
X10084Y-18486D01*
X10175Y-18524D01*
X10274Y-18524D01*
X10824Y-18524D01*
X10916Y-18486D01*
X10986Y-18416D01*
X11024Y-18325D01*
X11024Y-18226D01*
X11024Y-18222D01*
X11055Y-18297D01*
X11132Y-18374D01*
X10605Y-18901D01*
X10000Y-18901D01*
X09895Y-18901D01*
X09275Y-18281D01*
X09275Y-18146D01*
X09195Y-17953D01*
X09048Y-17805D01*
X08914Y-17749D01*
X09047Y-17695D01*
X09195Y-17548D01*
X09275Y-17355D01*
X09275Y-17146D01*
X09195Y-16953D01*
X09048Y-16805D01*
X08855Y-16725D01*
X08646Y-16725D01*
X08453Y-16805D01*
X08305Y-16952D01*
X08300Y-16964D01*
X08300Y-16624D01*
X09124Y-15800D01*
X09199Y-15800D01*
X09259Y-15860D01*
X09415Y-15925D01*
X09584Y-15925D01*
X09740Y-15861D01*
X09860Y-15741D01*
X09925Y-15585D01*
X09925Y-15416D01*
X09861Y-15260D01*
X09741Y-15140D01*
X09585Y-15075D01*
X09416Y-15075D01*
X09260Y-15139D01*
X09199Y-15200D01*
X09000Y-15200D01*
X08885Y-15223D01*
X08788Y-15288D01*
X07788Y-16288D01*
X07723Y-16385D01*
X07700Y-16500D01*
X07700Y-16622D01*
X07585Y-16575D01*
X07416Y-16575D01*
X07260Y-16639D01*
X07140Y-16759D01*
X07075Y-16915D01*
X07075Y-16950D01*
X06500Y-16950D01*
X06385Y-16973D01*
X06288Y-17038D01*
X06024Y-17302D01*
X06024Y-17226D01*
X06024Y-16900D01*
X06462Y-16463D01*
X06462Y-16462D01*
X06527Y-16365D01*
X06549Y-16250D01*
X06550Y-16250D01*
X06550Y-15124D01*
X06624Y-15050D01*
X07750Y-15050D01*
X07865Y-15027D01*
X07962Y-14962D01*
X07999Y-14925D01*
X08084Y-14925D01*
X08240Y-14861D01*
X08360Y-14741D01*
X08425Y-14585D01*
X08425Y-14416D01*
X08361Y-14260D01*
X08241Y-14140D01*
X08085Y-14075D01*
X07916Y-14075D01*
X07760Y-14139D01*
X07640Y-14259D01*
X07575Y-14415D01*
X07575Y-14450D01*
X06500Y-14450D01*
X06385Y-14473D01*
X06287Y-14538D01*
X06038Y-14788D01*
X06002Y-14841D01*
X05945Y-14703D01*
X05798Y-14555D01*
X05664Y-14499D01*
X05797Y-14445D01*
X05945Y-14298D01*
X06025Y-14105D01*
X06025Y-13896D01*
X05945Y-13703D01*
X05798Y-13555D01*
X05664Y-13499D01*
X05797Y-13445D01*
X05945Y-13298D01*
X06025Y-13105D01*
X06025Y-12896D01*
X05945Y-12703D01*
X05798Y-12555D01*
X05664Y-12499D01*
X05797Y-12445D01*
X05945Y-12298D01*
X06025Y-12105D01*
X06025Y-11896D01*
X05945Y-11703D01*
X05798Y-11555D01*
X05785Y-11550D01*
X12215Y-11550D01*
X12203Y-11555D01*
X12055Y-11702D01*
X11975Y-11895D01*
X11975Y-12104D01*
X12055Y-12297D01*
X12202Y-12445D01*
X12335Y-12500D01*
X12203Y-12555D01*
X12055Y-12702D01*
X11975Y-12895D01*
X11975Y-13104D01*
X12055Y-13297D01*
X12202Y-13445D01*
X12335Y-13500D01*
X12203Y-13555D01*
X12055Y-13702D01*
X11975Y-13895D01*
X11975Y-14104D01*
X12055Y-14297D01*
X12202Y-14445D01*
X12335Y-14500D01*
X12335Y-14500D01*
G37*
G54D19*
X12335Y-14500D02*
X12203Y-14555D01*
X12055Y-14702D01*
X11997Y-14840D01*
X11962Y-14788D01*
X11962Y-14787D01*
X11712Y-14538D01*
X11615Y-14473D01*
X11500Y-14450D01*
X10425Y-14450D01*
X10425Y-14416D01*
X10361Y-14260D01*
X10241Y-14140D01*
X10085Y-14075D01*
X09916Y-14075D01*
X09760Y-14139D01*
X09640Y-14259D01*
X09575Y-14415D01*
X09575Y-14584D01*
X09639Y-14740D01*
X09759Y-14860D01*
X09915Y-14925D01*
X10000Y-14925D01*
X10037Y-14962D01*
X10038Y-14962D01*
X10135Y-15027D01*
X10250Y-15050D01*
X11375Y-15050D01*
X11450Y-15124D01*
X11450Y-16250D01*
X11473Y-16365D01*
X11538Y-16462D01*
X11976Y-16900D01*
X11976Y-17324D01*
X12014Y-17416D01*
X12084Y-17486D01*
X12175Y-17524D01*
X12274Y-17524D01*
X12203Y-17555D01*
X12055Y-17702D01*
X11999Y-17835D01*
X11945Y-17703D01*
X11798Y-17555D01*
X11605Y-17475D01*
X11396Y-17475D01*
X11203Y-17555D01*
X11055Y-17702D01*
X11024Y-17776D01*
X11024Y-17676D01*
X10986Y-17584D01*
X10916Y-17514D01*
X10825Y-17476D01*
X10726Y-17476D01*
X10176Y-17476D01*
X10084Y-17514D01*
X10014Y-17584D01*
X09976Y-17675D01*
X09976Y-17774D01*
X09976Y-18324D01*
X10014Y-18416D01*
X10084Y-18486D01*
X10175Y-18524D01*
X10274Y-18524D01*
X10824Y-18524D01*
X10916Y-18486D01*
X10986Y-18416D01*
X11024Y-18325D01*
X11024Y-18226D01*
X11024Y-18222D01*
X11055Y-18297D01*
X11132Y-18374D01*
X10605Y-18901D01*
X10000Y-18901D01*
X09895Y-18901D01*
X09275Y-18281D01*
X09275Y-18146D01*
X09195Y-17953D01*
X09048Y-17805D01*
X08914Y-17749D01*
X09047Y-17695D01*
X09195Y-17548D01*
X09275Y-17355D01*
X09275Y-17146D01*
X09195Y-16953D01*
X09048Y-16805D01*
X08855Y-16725D01*
X08646Y-16725D01*
X08453Y-16805D01*
X08305Y-16952D01*
X08300Y-16964D01*
X08300Y-16624D01*
X09124Y-15800D01*
X09199Y-15800D01*
X09259Y-15860D01*
X09415Y-15925D01*
X09584Y-15925D01*
X09740Y-15861D01*
X09860Y-15741D01*
X09925Y-15585D01*
X09925Y-15416D01*
X09861Y-15260D01*
X09741Y-15140D01*
X09585Y-15075D01*
X09416Y-15075D01*
X09260Y-15139D01*
X09199Y-15200D01*
X09000Y-15200D01*
X08885Y-15223D01*
X08788Y-15288D01*
X07788Y-16288D01*
X07723Y-16385D01*
X07700Y-16500D01*
X07700Y-16622D01*
X07585Y-16575D01*
X07416Y-16575D01*
X07260Y-16639D01*
X07140Y-16759D01*
X07075Y-16915D01*
X07075Y-16950D01*
X06500Y-16950D01*
X06385Y-16973D01*
X06288Y-17038D01*
X06024Y-17302D01*
X06024Y-17226D01*
X06024Y-16900D01*
X06462Y-16463D01*
X06462Y-16462D01*
X06527Y-16365D01*
X06549Y-16250D01*
X06550Y-16250D01*
X06550Y-15124D01*
X06624Y-15050D01*
X07750Y-15050D01*
X07865Y-15027D01*
X07962Y-14962D01*
X07999Y-14925D01*
X08084Y-14925D01*
X08240Y-14861D01*
X08360Y-14741D01*
X08425Y-14585D01*
X08425Y-14416D01*
X08361Y-14260D01*
X08241Y-14140D01*
X08085Y-14075D01*
X07916Y-14075D01*
X07760Y-14139D01*
X07640Y-14259D01*
X07575Y-14415D01*
X07575Y-14450D01*
X06500Y-14450D01*
X06385Y-14473D01*
X06287Y-14538D01*
X06038Y-14788D01*
X06002Y-14841D01*
X05945Y-14703D01*
X05798Y-14555D01*
X05664Y-14499D01*
X05797Y-14445D01*
X05945Y-14298D01*
X06025Y-14105D01*
X06025Y-13896D01*
X05945Y-13703D01*
X05798Y-13555D01*
X05664Y-13499D01*
X05797Y-13445D01*
X05945Y-13298D01*
X06025Y-13105D01*
X06025Y-12896D01*
X05945Y-12703D01*
X05798Y-12555D01*
X05664Y-12499D01*
X05797Y-12445D01*
X05945Y-12298D01*
X06025Y-12105D01*
X06025Y-11896D01*
X05945Y-11703D01*
X05798Y-11555D01*
X05785Y-11550D01*
X12215Y-11550D01*
X12203Y-11555D01*
X12055Y-11702D01*
X11975Y-11895D01*
X11975Y-12104D01*
X12055Y-12297D01*
X12202Y-12445D01*
X12335Y-12500D01*
X12203Y-12555D01*
X12055Y-12702D01*
X11975Y-12895D01*
X11975Y-13104D01*
X12055Y-13297D01*
X12202Y-13445D01*
X12335Y-13500D01*
X12203Y-13555D01*
X12055Y-13702D01*
X11975Y-13895D01*
X11975Y-14104D01*
X12055Y-14297D01*
X12202Y-14445D01*
X12335Y-14500D01*
G54D10*
G36*
X12335Y-15500D02*
X12203Y-15555D01*
X12055Y-15702D01*
X12050Y-15714D01*
X12050Y-15284D01*
X12055Y-15297D01*
X12202Y-15445D01*
X12335Y-15500D01*
X12335Y-15500D01*
G37*
G54D19*
X12335Y-15500D02*
X12203Y-15555D01*
X12055Y-15702D01*
X12050Y-15714D01*
X12050Y-15284D01*
X12055Y-15297D01*
X12202Y-15445D01*
X12335Y-15500D01*
G54D10*
G36*
X12950Y-11715D02*
X12945Y-11703D01*
X12798Y-11555D01*
X12785Y-11550D01*
X12950Y-11550D01*
X12950Y-11715D01*
X12950Y-11715D01*
G37*
G54D19*
X12950Y-11715D02*
X12945Y-11703D01*
X12798Y-11555D01*
X12785Y-11550D01*
X12950Y-11550D01*
X12950Y-11715D01*
G54D10*
G36*
X12950Y-12715D02*
X12945Y-12703D01*
X12798Y-12555D01*
X12664Y-12499D01*
X12797Y-12445D01*
X12945Y-12298D01*
X12950Y-12285D01*
X12950Y-12715D01*
X12950Y-12715D01*
G37*
G54D19*
X12950Y-12715D02*
X12945Y-12703D01*
X12798Y-12555D01*
X12664Y-12499D01*
X12797Y-12445D01*
X12945Y-12298D01*
X12950Y-12285D01*
X12950Y-12715D01*
G54D10*
G36*
X12950Y-13715D02*
X12945Y-13703D01*
X12798Y-13555D01*
X12664Y-13499D01*
X12797Y-13445D01*
X12945Y-13298D01*
X12950Y-13285D01*
X12950Y-13715D01*
X12950Y-13715D01*
G37*
G54D19*
X12950Y-13715D02*
X12945Y-13703D01*
X12798Y-13555D01*
X12664Y-13499D01*
X12797Y-13445D01*
X12945Y-13298D01*
X12950Y-13285D01*
X12950Y-13715D01*
G54D10*
G36*
X12950Y-14715D02*
X12945Y-14703D01*
X12798Y-14555D01*
X12664Y-14499D01*
X12797Y-14445D01*
X12945Y-14298D01*
X12950Y-14285D01*
X12950Y-14715D01*
X12950Y-14715D01*
G37*
G54D19*
X12950Y-14715D02*
X12945Y-14703D01*
X12798Y-14555D01*
X12664Y-14499D01*
X12797Y-14445D01*
X12945Y-14298D01*
X12950Y-14285D01*
X12950Y-14715D01*
G54D10*
G36*
X12950Y-15715D02*
X12945Y-15703D01*
X12798Y-15555D01*
X12664Y-15499D01*
X12797Y-15445D01*
X12945Y-15298D01*
X12950Y-15285D01*
X12950Y-15715D01*
X12950Y-15715D01*
G37*
G54D19*
X12950Y-15715D02*
X12945Y-15703D01*
X12798Y-15555D01*
X12664Y-15499D01*
X12797Y-15445D01*
X12945Y-15298D01*
X12950Y-15285D01*
X12950Y-15715D01*
G54D10*
G36*
X12950Y-16548D02*
X12916Y-16514D01*
X12825Y-16476D01*
X12726Y-16476D01*
X12722Y-16476D01*
X12797Y-16445D01*
X12945Y-16298D01*
X12950Y-16285D01*
X12950Y-16548D01*
X12950Y-16548D01*
G37*
G54D19*
X12950Y-16548D02*
X12916Y-16514D01*
X12825Y-16476D01*
X12726Y-16476D01*
X12722Y-16476D01*
X12797Y-16445D01*
X12945Y-16298D01*
X12950Y-16285D01*
X12950Y-16548D01*
G54D10*
G36*
X12950Y-17715D02*
X12945Y-17703D01*
X12798Y-17555D01*
X12723Y-17524D01*
X12824Y-17524D01*
X12916Y-17486D01*
X12950Y-17452D01*
X12950Y-17715D01*
X12950Y-17715D01*
G37*
G54D19*
X12950Y-17715D02*
X12945Y-17703D01*
X12798Y-17555D01*
X12723Y-17524D01*
X12824Y-17524D01*
X12916Y-17486D01*
X12950Y-17452D01*
X12950Y-17715D01*
G54D10*
G36*
X12950Y-23888D02*
X11893Y-23888D01*
X11893Y-21906D01*
X11893Y-21595D01*
X11774Y-21308D01*
X11555Y-21088D01*
X11268Y-20969D01*
X10957Y-20969D01*
X10670Y-21088D01*
X10450Y-21307D01*
X10331Y-21594D01*
X10331Y-21905D01*
X10450Y-22192D01*
X10669Y-22412D01*
X10956Y-22531D01*
X11267Y-22531D01*
X11554Y-22412D01*
X11774Y-22193D01*
X11893Y-21906D01*
X11893Y-23888D01*
X05854Y-23888D01*
X05945Y-23798D01*
X06025Y-23605D01*
X06025Y-23396D01*
X05945Y-23203D01*
X05798Y-23055D01*
X05605Y-22975D01*
X05396Y-22975D01*
X05203Y-23055D01*
X05055Y-23202D01*
X05050Y-23214D01*
X05050Y-20784D01*
X05055Y-20797D01*
X05202Y-20945D01*
X05395Y-21025D01*
X05604Y-21025D01*
X05797Y-20945D01*
X05945Y-20798D01*
X06025Y-20605D01*
X06025Y-20396D01*
X05945Y-20203D01*
X05798Y-20055D01*
X05605Y-19975D01*
X05396Y-19975D01*
X05203Y-20055D01*
X05055Y-20202D01*
X05050Y-20214D01*
X05050Y-18702D01*
X05084Y-18736D01*
X05154Y-18765D01*
X05178Y-18884D01*
X05253Y-18997D01*
X06401Y-20144D01*
X06401Y-20750D01*
X06428Y-20884D01*
X06484Y-20969D01*
X06233Y-20969D01*
X05946Y-21088D01*
X05726Y-21307D01*
X05607Y-21594D01*
X05607Y-21905D01*
X05726Y-22192D01*
X05945Y-22412D01*
X06232Y-22531D01*
X06543Y-22531D01*
X06830Y-22412D01*
X07050Y-22193D01*
X07169Y-21906D01*
X07169Y-21662D01*
X07251Y-21744D01*
X07253Y-21747D01*
X07366Y-21822D01*
X07367Y-21822D01*
X07500Y-21849D01*
X08750Y-21849D01*
X08883Y-21822D01*
X08884Y-21822D01*
X08997Y-21747D01*
X09497Y-21247D01*
X09559Y-21152D01*
X09561Y-21152D01*
X09715Y-20998D01*
X09715Y-20996D01*
X09810Y-20934D01*
X10247Y-20497D01*
X10322Y-20384D01*
X10322Y-20383D01*
X10349Y-20250D01*
X10349Y-19599D01*
X10750Y-19599D01*
X10883Y-19572D01*
X10884Y-19572D01*
X10997Y-19497D01*
X11499Y-18993D01*
X11776Y-19270D01*
X11725Y-19395D01*
X11725Y-19604D01*
X11805Y-19797D01*
X11952Y-19945D01*
X12026Y-19976D01*
X11926Y-19976D01*
X11834Y-20014D01*
X11764Y-20084D01*
X11726Y-20175D01*
X11726Y-20274D01*
X11726Y-20824D01*
X11764Y-20916D01*
X11834Y-20986D01*
X11925Y-21024D01*
X12024Y-21024D01*
X12574Y-21024D01*
X12666Y-20986D01*
X12736Y-20916D01*
X12774Y-20825D01*
X12774Y-20726D01*
X12774Y-20176D01*
X12736Y-20084D01*
X12666Y-20014D01*
X12575Y-19976D01*
X12476Y-19976D01*
X12472Y-19976D01*
X12547Y-19945D01*
X12695Y-19798D01*
X12775Y-19605D01*
X12775Y-19396D01*
X12695Y-19203D01*
X12548Y-19055D01*
X12525Y-19045D01*
X12524Y-19045D01*
X12497Y-19003D01*
X12494Y-19001D01*
X11868Y-18374D01*
X11945Y-18298D01*
X12000Y-18164D01*
X12055Y-18297D01*
X12202Y-18445D01*
X12395Y-18525D01*
X12604Y-18525D01*
X12797Y-18445D01*
X12945Y-18298D01*
X12950Y-18285D01*
X12950Y-23888D01*
X12950Y-23888D01*
G37*
G54D19*
X12950Y-23888D02*
X11893Y-23888D01*
X11893Y-21906D01*
X11893Y-21595D01*
X11774Y-21308D01*
X11555Y-21088D01*
X11268Y-20969D01*
X10957Y-20969D01*
X10670Y-21088D01*
X10450Y-21307D01*
X10331Y-21594D01*
X10331Y-21905D01*
X10450Y-22192D01*
X10669Y-22412D01*
X10956Y-22531D01*
X11267Y-22531D01*
X11554Y-22412D01*
X11774Y-22193D01*
X11893Y-21906D01*
X11893Y-23888D01*
X05854Y-23888D01*
X05945Y-23798D01*
X06025Y-23605D01*
X06025Y-23396D01*
X05945Y-23203D01*
X05798Y-23055D01*
X05605Y-22975D01*
X05396Y-22975D01*
X05203Y-23055D01*
X05055Y-23202D01*
X05050Y-23214D01*
X05050Y-20784D01*
X05055Y-20797D01*
X05202Y-20945D01*
X05395Y-21025D01*
X05604Y-21025D01*
X05797Y-20945D01*
X05945Y-20798D01*
X06025Y-20605D01*
X06025Y-20396D01*
X05945Y-20203D01*
X05798Y-20055D01*
X05605Y-19975D01*
X05396Y-19975D01*
X05203Y-20055D01*
X05055Y-20202D01*
X05050Y-20214D01*
X05050Y-18702D01*
X05084Y-18736D01*
X05154Y-18765D01*
X05178Y-18884D01*
X05253Y-18997D01*
X06401Y-20144D01*
X06401Y-20750D01*
X06428Y-20884D01*
X06484Y-20969D01*
X06233Y-20969D01*
X05946Y-21088D01*
X05726Y-21307D01*
X05607Y-21594D01*
X05607Y-21905D01*
X05726Y-22192D01*
X05945Y-22412D01*
X06232Y-22531D01*
X06543Y-22531D01*
X06830Y-22412D01*
X07050Y-22193D01*
X07169Y-21906D01*
X07169Y-21662D01*
X07251Y-21744D01*
X07253Y-21747D01*
X07366Y-21822D01*
X07367Y-21822D01*
X07500Y-21849D01*
X08750Y-21849D01*
X08883Y-21822D01*
X08884Y-21822D01*
X08997Y-21747D01*
X09497Y-21247D01*
X09559Y-21152D01*
X09561Y-21152D01*
X09715Y-20998D01*
X09715Y-20996D01*
X09810Y-20934D01*
X10247Y-20497D01*
X10322Y-20384D01*
X10322Y-20383D01*
X10349Y-20250D01*
X10349Y-19599D01*
X10750Y-19599D01*
X10883Y-19572D01*
X10884Y-19572D01*
X10997Y-19497D01*
X11499Y-18993D01*
X11776Y-19270D01*
X11725Y-19395D01*
X11725Y-19604D01*
X11805Y-19797D01*
X11952Y-19945D01*
X12026Y-19976D01*
X11926Y-19976D01*
X11834Y-20014D01*
X11764Y-20084D01*
X11726Y-20175D01*
X11726Y-20274D01*
X11726Y-20824D01*
X11764Y-20916D01*
X11834Y-20986D01*
X11925Y-21024D01*
X12024Y-21024D01*
X12574Y-21024D01*
X12666Y-20986D01*
X12736Y-20916D01*
X12774Y-20825D01*
X12774Y-20726D01*
X12774Y-20176D01*
X12736Y-20084D01*
X12666Y-20014D01*
X12575Y-19976D01*
X12476Y-19976D01*
X12472Y-19976D01*
X12547Y-19945D01*
X12695Y-19798D01*
X12775Y-19605D01*
X12775Y-19396D01*
X12695Y-19203D01*
X12548Y-19055D01*
X12525Y-19045D01*
X12524Y-19045D01*
X12497Y-19003D01*
X12494Y-19001D01*
X11868Y-18374D01*
X11945Y-18298D01*
X12000Y-18164D01*
X12055Y-18297D01*
X12202Y-18445D01*
X12395Y-18525D01*
X12604Y-18525D01*
X12797Y-18445D01*
X12945Y-18298D01*
X12950Y-18285D01*
X12950Y-23888D01*
G54D10*
G36*
X13645Y-23888D02*
X13550Y-23888D01*
X13550Y-23784D01*
X13555Y-23797D01*
X13645Y-23888D01*
X13645Y-23888D01*
G37*
G54D19*
X13645Y-23888D02*
X13550Y-23888D01*
X13550Y-23784D01*
X13555Y-23797D01*
X13645Y-23888D01*
G54D10*
G36*
X13776Y-16476D02*
X13676Y-16476D01*
X13584Y-16514D01*
X13550Y-16548D01*
X13550Y-16284D01*
X13555Y-16297D01*
X13702Y-16445D01*
X13776Y-16476D01*
X13776Y-16476D01*
G37*
G54D19*
X13776Y-16476D02*
X13676Y-16476D01*
X13584Y-16514D01*
X13550Y-16548D01*
X13550Y-16284D01*
X13555Y-16297D01*
X13702Y-16445D01*
X13776Y-16476D01*
G54D10*
G36*
X13835Y-14500D02*
X13703Y-14555D01*
X13555Y-14702D01*
X13550Y-14714D01*
X13550Y-14284D01*
X13555Y-14297D01*
X13702Y-14445D01*
X13835Y-14500D01*
X13835Y-14500D01*
G37*
G54D19*
X13835Y-14500D02*
X13703Y-14555D01*
X13555Y-14702D01*
X13550Y-14714D01*
X13550Y-14284D01*
X13555Y-14297D01*
X13702Y-14445D01*
X13835Y-14500D01*
G54D10*
G36*
X13835Y-15500D02*
X13703Y-15555D01*
X13555Y-15702D01*
X13550Y-15714D01*
X13550Y-15284D01*
X13555Y-15297D01*
X13702Y-15445D01*
X13835Y-15500D01*
X13835Y-15500D01*
G37*
G54D19*
X13835Y-15500D02*
X13703Y-15555D01*
X13555Y-15702D01*
X13550Y-15714D01*
X13550Y-15284D01*
X13555Y-15297D01*
X13702Y-15445D01*
X13835Y-15500D01*
G54D10*
G36*
X13835Y-21000D02*
X13703Y-21055D01*
X13555Y-21202D01*
X13550Y-21214D01*
X13550Y-20784D01*
X13555Y-20797D01*
X13702Y-20945D01*
X13835Y-21000D01*
X13835Y-21000D01*
G37*
G54D19*
X13835Y-21000D02*
X13703Y-21055D01*
X13555Y-21202D01*
X13550Y-21214D01*
X13550Y-20784D01*
X13555Y-20797D01*
X13702Y-20945D01*
X13835Y-21000D01*
G54D10*
G36*
X13835Y-22000D02*
X13703Y-22055D01*
X13555Y-22202D01*
X13550Y-22214D01*
X13550Y-21784D01*
X13555Y-21797D01*
X13702Y-21945D01*
X13835Y-22000D01*
X13835Y-22000D01*
G37*
G54D19*
X13835Y-22000D02*
X13703Y-22055D01*
X13555Y-22202D01*
X13550Y-22214D01*
X13550Y-21784D01*
X13555Y-21797D01*
X13702Y-21945D01*
X13835Y-22000D01*
G54D10*
G36*
X13835Y-23000D02*
X13703Y-23055D01*
X13555Y-23202D01*
X13550Y-23214D01*
X13550Y-22784D01*
X13555Y-22797D01*
X13702Y-22945D01*
X13835Y-23000D01*
X13835Y-23000D01*
G37*
G54D19*
X13835Y-23000D02*
X13703Y-23055D01*
X13555Y-23202D01*
X13550Y-23214D01*
X13550Y-22784D01*
X13555Y-22797D01*
X13702Y-22945D01*
X13835Y-23000D01*
G54D10*
G36*
X14700Y-17626D02*
X13788Y-18538D01*
X13723Y-18635D01*
X13700Y-18750D01*
X13700Y-20057D01*
X13555Y-20202D01*
X13550Y-20214D01*
X13550Y-17452D01*
X13584Y-17486D01*
X13675Y-17524D01*
X13774Y-17524D01*
X14324Y-17524D01*
X14416Y-17486D01*
X14486Y-17416D01*
X14524Y-17325D01*
X14524Y-17226D01*
X14524Y-16676D01*
X14486Y-16584D01*
X14416Y-16514D01*
X14325Y-16476D01*
X14226Y-16476D01*
X14222Y-16476D01*
X14297Y-16445D01*
X14442Y-16300D01*
X14625Y-16300D01*
X14700Y-16374D01*
X14700Y-17626D01*
X14700Y-17626D01*
G37*
G54D19*
X14700Y-17626D02*
X13788Y-18538D01*
X13723Y-18635D01*
X13700Y-18750D01*
X13700Y-20057D01*
X13555Y-20202D01*
X13550Y-20214D01*
X13550Y-17452D01*
X13584Y-17486D01*
X13675Y-17524D01*
X13774Y-17524D01*
X14324Y-17524D01*
X14416Y-17486D01*
X14486Y-17416D01*
X14524Y-17325D01*
X14524Y-17226D01*
X14524Y-16676D01*
X14486Y-16584D01*
X14416Y-16514D01*
X14325Y-16476D01*
X14226Y-16476D01*
X14222Y-16476D01*
X14297Y-16445D01*
X14442Y-16300D01*
X14625Y-16300D01*
X14700Y-16374D01*
X14700Y-17626D01*
G54D10*
G36*
X15151Y-15976D02*
X14962Y-15788D01*
X14865Y-15723D01*
X14750Y-15700D01*
X14442Y-15700D01*
X14298Y-15555D01*
X14164Y-15499D01*
X14297Y-15445D01*
X14393Y-15349D01*
X14605Y-15349D01*
X15151Y-15894D01*
X15151Y-15976D01*
X15151Y-15976D01*
G37*
G54D19*
X15151Y-15976D02*
X14962Y-15788D01*
X14865Y-15723D01*
X14750Y-15700D01*
X14442Y-15700D01*
X14298Y-15555D01*
X14164Y-15499D01*
X14297Y-15445D01*
X14393Y-15349D01*
X14605Y-15349D01*
X15151Y-15894D01*
X15151Y-15976D01*
G54D10*
G36*
X15956Y-11550D02*
X14031Y-13475D01*
X13896Y-13475D01*
X13703Y-13555D01*
X13555Y-13702D01*
X13550Y-13714D01*
X13550Y-11550D01*
X15956Y-11550D01*
X15956Y-11550D01*
G37*
G54D19*
X15956Y-11550D02*
X14031Y-13475D01*
X13896Y-13475D01*
X13703Y-13555D01*
X13555Y-13702D01*
X13550Y-13714D01*
X13550Y-11550D01*
X15956Y-11550D01*
G54D10*
G36*
X16107Y-19151D02*
X15894Y-19151D01*
X15849Y-19105D01*
X15849Y-18892D01*
X15889Y-18990D01*
X16009Y-19110D01*
X16107Y-19151D01*
X16107Y-19151D01*
G37*
G54D19*
X16107Y-19151D02*
X15894Y-19151D01*
X15849Y-19105D01*
X15849Y-18892D01*
X15889Y-18990D01*
X16009Y-19110D01*
X16107Y-19151D01*
G54D10*
G36*
X16821Y-12099D02*
X16769Y-12151D01*
X16500Y-12151D01*
X16366Y-12178D01*
X16253Y-12253D01*
X16251Y-12255D01*
X16003Y-12503D01*
X15928Y-12616D01*
X15901Y-12750D01*
X15901Y-18498D01*
X15890Y-18509D01*
X15849Y-18607D01*
X15849Y-15750D01*
X15822Y-15617D01*
X15822Y-15616D01*
X15747Y-15503D01*
X15744Y-15501D01*
X14997Y-14753D01*
X14884Y-14678D01*
X14750Y-14651D01*
X14393Y-14651D01*
X14298Y-14555D01*
X14164Y-14499D01*
X14297Y-14445D01*
X14445Y-14298D01*
X14525Y-14105D01*
X14525Y-13968D01*
X16394Y-12099D01*
X16821Y-12099D01*
X16821Y-12099D01*
G37*
G54D19*
X16821Y-12099D02*
X16769Y-12151D01*
X16500Y-12151D01*
X16366Y-12178D01*
X16253Y-12253D01*
X16251Y-12255D01*
X16003Y-12503D01*
X15928Y-12616D01*
X15901Y-12750D01*
X15901Y-18498D01*
X15890Y-18509D01*
X15849Y-18607D01*
X15849Y-15750D01*
X15822Y-15617D01*
X15822Y-15616D01*
X15747Y-15503D01*
X15744Y-15501D01*
X14997Y-14753D01*
X14884Y-14678D01*
X14750Y-14651D01*
X14393Y-14651D01*
X14298Y-14555D01*
X14164Y-14499D01*
X14297Y-14445D01*
X14445Y-14298D01*
X14525Y-14105D01*
X14525Y-13968D01*
X16394Y-12099D01*
X16821Y-12099D01*
G54D10*
G36*
X16980Y-17999D02*
X16878Y-18042D01*
X16727Y-18194D01*
X16644Y-18392D01*
X16644Y-18590D01*
X16611Y-18510D01*
X16599Y-18498D01*
X16599Y-12894D01*
X16644Y-12849D01*
X16769Y-12849D01*
X16878Y-12957D01*
X16980Y-12999D01*
X16878Y-13042D01*
X16727Y-13194D01*
X16644Y-13392D01*
X16644Y-13607D01*
X16726Y-13806D01*
X16878Y-13957D01*
X16980Y-13999D01*
X16878Y-14042D01*
X16727Y-14194D01*
X16644Y-14392D01*
X16644Y-14607D01*
X16726Y-14806D01*
X16878Y-14957D01*
X16980Y-14999D01*
X16878Y-15042D01*
X16727Y-15194D01*
X16644Y-15392D01*
X16644Y-15607D01*
X16726Y-15806D01*
X16878Y-15957D01*
X16980Y-15999D01*
X16878Y-16042D01*
X16727Y-16194D01*
X16644Y-16392D01*
X16644Y-16607D01*
X16726Y-16806D01*
X16878Y-16957D01*
X16980Y-16999D01*
X16878Y-17042D01*
X16727Y-17194D01*
X16644Y-17392D01*
X16644Y-17607D01*
X16726Y-17806D01*
X16878Y-17957D01*
X16980Y-17999D01*
X16980Y-17999D01*
G37*
G54D19*
X16980Y-17999D02*
X16878Y-18042D01*
X16727Y-18194D01*
X16644Y-18392D01*
X16644Y-18590D01*
X16611Y-18510D01*
X16599Y-18498D01*
X16599Y-12894D01*
X16644Y-12849D01*
X16769Y-12849D01*
X16878Y-12957D01*
X16980Y-12999D01*
X16878Y-13042D01*
X16727Y-13194D01*
X16644Y-13392D01*
X16644Y-13607D01*
X16726Y-13806D01*
X16878Y-13957D01*
X16980Y-13999D01*
X16878Y-14042D01*
X16727Y-14194D01*
X16644Y-14392D01*
X16644Y-14607D01*
X16726Y-14806D01*
X16878Y-14957D01*
X16980Y-14999D01*
X16878Y-15042D01*
X16727Y-15194D01*
X16644Y-15392D01*
X16644Y-15607D01*
X16726Y-15806D01*
X16878Y-15957D01*
X16980Y-15999D01*
X16878Y-16042D01*
X16727Y-16194D01*
X16644Y-16392D01*
X16644Y-16607D01*
X16726Y-16806D01*
X16878Y-16957D01*
X16980Y-16999D01*
X16878Y-17042D01*
X16727Y-17194D01*
X16644Y-17392D01*
X16644Y-17607D01*
X16726Y-17806D01*
X16878Y-17957D01*
X16980Y-17999D01*
G54D10*
G36*
X18145Y-23888D02*
X17497Y-23888D01*
X17513Y-23849D01*
X18106Y-23849D01*
X18145Y-23888D01*
X18145Y-23888D01*
G37*
G54D19*
X18145Y-23888D02*
X17497Y-23888D01*
X17513Y-23849D01*
X18106Y-23849D01*
X18145Y-23888D01*
G54D10*
G36*
X18274Y-21024D02*
X18203Y-21055D01*
X18106Y-21151D01*
X17513Y-21151D01*
X17486Y-21084D01*
X17416Y-21014D01*
X17382Y-20999D01*
X17416Y-20986D01*
X17486Y-20916D01*
X17513Y-20849D01*
X17986Y-20849D01*
X18014Y-20916D01*
X18084Y-20986D01*
X18175Y-21024D01*
X18274Y-21024D01*
X18274Y-21024D01*
G37*
G54D19*
X18274Y-21024D02*
X18203Y-21055D01*
X18106Y-21151D01*
X17513Y-21151D01*
X17486Y-21084D01*
X17416Y-21014D01*
X17382Y-20999D01*
X17416Y-20986D01*
X17486Y-20916D01*
X17513Y-20849D01*
X17986Y-20849D01*
X18014Y-20916D01*
X18084Y-20986D01*
X18175Y-21024D01*
X18274Y-21024D01*
G54D10*
G36*
X18335Y-22000D02*
X18203Y-22055D01*
X18106Y-22151D01*
X17513Y-22151D01*
X17486Y-22084D01*
X17416Y-22014D01*
X17382Y-21999D01*
X17416Y-21986D01*
X17486Y-21916D01*
X17513Y-21849D01*
X18106Y-21849D01*
X18202Y-21945D01*
X18335Y-22000D01*
X18335Y-22000D01*
G37*
G54D19*
X18335Y-22000D02*
X18203Y-22055D01*
X18106Y-22151D01*
X17513Y-22151D01*
X17486Y-22084D01*
X17416Y-22014D01*
X17382Y-21999D01*
X17416Y-21986D01*
X17486Y-21916D01*
X17513Y-21849D01*
X18106Y-21849D01*
X18202Y-21945D01*
X18335Y-22000D01*
G54D10*
G36*
X18335Y-23000D02*
X18203Y-23055D01*
X18106Y-23151D01*
X17513Y-23151D01*
X17486Y-23084D01*
X17416Y-23014D01*
X17382Y-22999D01*
X17416Y-22986D01*
X17486Y-22916D01*
X17513Y-22849D01*
X18106Y-22849D01*
X18202Y-22945D01*
X18335Y-23000D01*
X18335Y-23000D01*
G37*
G54D19*
X18335Y-23000D02*
X18203Y-23055D01*
X18106Y-23151D01*
X17513Y-23151D01*
X17486Y-23084D01*
X17416Y-23014D01*
X17382Y-22999D01*
X17416Y-22986D01*
X17486Y-22916D01*
X17513Y-22849D01*
X18106Y-22849D01*
X18202Y-22945D01*
X18335Y-23000D01*
G54D10*
G36*
X18682Y-17200D02*
X18276Y-17200D01*
X18274Y-17194D01*
X18122Y-17043D01*
X18019Y-17000D01*
X18122Y-16958D01*
X18273Y-16806D01*
X18275Y-16800D01*
X18682Y-16800D01*
X18644Y-16892D01*
X18644Y-17107D01*
X18682Y-17200D01*
X18682Y-17200D01*
G37*
G54D19*
X18682Y-17200D02*
X18276Y-17200D01*
X18274Y-17194D01*
X18122Y-17043D01*
X18019Y-17000D01*
X18122Y-16958D01*
X18273Y-16806D01*
X18275Y-16800D01*
X18682Y-16800D01*
X18644Y-16892D01*
X18644Y-17107D01*
X18682Y-17200D01*
G54D10*
G36*
X18980Y-13499D02*
X18878Y-13542D01*
X18727Y-13694D01*
X18644Y-13892D01*
X18644Y-14107D01*
X18682Y-14200D01*
X18276Y-14200D01*
X18274Y-14194D01*
X18122Y-14043D01*
X18019Y-14000D01*
X18122Y-13958D01*
X18273Y-13806D01*
X18356Y-13608D01*
X18356Y-13393D01*
X18274Y-13194D01*
X18122Y-13043D01*
X18019Y-13000D01*
X18122Y-12958D01*
X18273Y-12806D01*
X18356Y-12608D01*
X18356Y-12393D01*
X18274Y-12194D01*
X18178Y-12099D01*
X18644Y-12099D01*
X18644Y-12107D01*
X18726Y-12306D01*
X18878Y-12457D01*
X18980Y-12499D01*
X18878Y-12542D01*
X18727Y-12694D01*
X18644Y-12892D01*
X18644Y-13107D01*
X18726Y-13306D01*
X18878Y-13457D01*
X18980Y-13499D01*
X18980Y-13499D01*
G37*
G54D19*
X18980Y-13499D02*
X18878Y-13542D01*
X18727Y-13694D01*
X18644Y-13892D01*
X18644Y-14107D01*
X18682Y-14200D01*
X18276Y-14200D01*
X18274Y-14194D01*
X18122Y-14043D01*
X18019Y-14000D01*
X18122Y-13958D01*
X18273Y-13806D01*
X18356Y-13608D01*
X18356Y-13393D01*
X18274Y-13194D01*
X18122Y-13043D01*
X18019Y-13000D01*
X18122Y-12958D01*
X18273Y-12806D01*
X18356Y-12608D01*
X18356Y-12393D01*
X18274Y-12194D01*
X18178Y-12099D01*
X18644Y-12099D01*
X18644Y-12107D01*
X18726Y-12306D01*
X18878Y-12457D01*
X18980Y-12499D01*
X18878Y-12542D01*
X18727Y-12694D01*
X18644Y-12892D01*
X18644Y-13107D01*
X18726Y-13306D01*
X18878Y-13457D01*
X18980Y-13499D01*
G54D10*
G36*
X18980Y-15499D02*
X18878Y-15542D01*
X18727Y-15694D01*
X18644Y-15892D01*
X18644Y-16107D01*
X18682Y-16200D01*
X18276Y-16200D01*
X18274Y-16194D01*
X18122Y-16043D01*
X18019Y-16000D01*
X18122Y-15958D01*
X18273Y-15806D01*
X18356Y-15608D01*
X18356Y-15393D01*
X18274Y-15194D01*
X18122Y-15043D01*
X18019Y-15000D01*
X18122Y-14958D01*
X18273Y-14806D01*
X18275Y-14800D01*
X18682Y-14800D01*
X18644Y-14892D01*
X18644Y-15107D01*
X18726Y-15306D01*
X18878Y-15457D01*
X18980Y-15499D01*
X18980Y-15499D01*
G37*
G54D19*
X18980Y-15499D02*
X18878Y-15542D01*
X18727Y-15694D01*
X18644Y-15892D01*
X18644Y-16107D01*
X18682Y-16200D01*
X18276Y-16200D01*
X18274Y-16194D01*
X18122Y-16043D01*
X18019Y-16000D01*
X18122Y-15958D01*
X18273Y-15806D01*
X18356Y-15608D01*
X18356Y-15393D01*
X18274Y-15194D01*
X18122Y-15043D01*
X18019Y-15000D01*
X18122Y-14958D01*
X18273Y-14806D01*
X18275Y-14800D01*
X18682Y-14800D01*
X18644Y-14892D01*
X18644Y-15107D01*
X18726Y-15306D01*
X18878Y-15457D01*
X18980Y-15499D01*
G54D10*
G36*
X18980Y-18499D02*
X18878Y-18542D01*
X18727Y-18694D01*
X18644Y-18892D01*
X18644Y-19107D01*
X18662Y-19151D01*
X16392Y-19151D01*
X16490Y-19111D01*
X16610Y-18991D01*
X16675Y-18835D01*
X16675Y-18682D01*
X16726Y-18806D01*
X16878Y-18957D01*
X17076Y-19040D01*
X17291Y-19040D01*
X17923Y-19040D01*
X18122Y-18958D01*
X18273Y-18806D01*
X18356Y-18608D01*
X18356Y-18393D01*
X18274Y-18194D01*
X18122Y-18043D01*
X18019Y-18000D01*
X18122Y-17958D01*
X18273Y-17806D01*
X18275Y-17800D01*
X18682Y-17800D01*
X18644Y-17892D01*
X18644Y-18107D01*
X18726Y-18306D01*
X18878Y-18457D01*
X18980Y-18499D01*
X18980Y-18499D01*
G37*
G54D19*
X18980Y-18499D02*
X18878Y-18542D01*
X18727Y-18694D01*
X18644Y-18892D01*
X18644Y-19107D01*
X18662Y-19151D01*
X16392Y-19151D01*
X16490Y-19111D01*
X16610Y-18991D01*
X16675Y-18835D01*
X16675Y-18682D01*
X16726Y-18806D01*
X16878Y-18957D01*
X17076Y-19040D01*
X17291Y-19040D01*
X17923Y-19040D01*
X18122Y-18958D01*
X18273Y-18806D01*
X18356Y-18608D01*
X18356Y-18393D01*
X18274Y-18194D01*
X18122Y-18043D01*
X18019Y-18000D01*
X18122Y-17958D01*
X18273Y-17806D01*
X18275Y-17800D01*
X18682Y-17800D01*
X18644Y-17892D01*
X18644Y-18107D01*
X18726Y-18306D01*
X18878Y-18457D01*
X18980Y-18499D01*
G54D10*
G36*
X19645Y-23888D02*
X18854Y-23888D01*
X18893Y-23849D01*
X19606Y-23849D01*
X19645Y-23888D01*
X19645Y-23888D01*
G37*
G54D19*
X19645Y-23888D02*
X18854Y-23888D01*
X18893Y-23849D01*
X19606Y-23849D01*
X19645Y-23888D01*
G54D10*
G36*
X19835Y-21000D02*
X19703Y-21055D01*
X19606Y-21151D01*
X18893Y-21151D01*
X18798Y-21055D01*
X18723Y-21024D01*
X18824Y-21024D01*
X18916Y-20986D01*
X18986Y-20916D01*
X19013Y-20849D01*
X19606Y-20849D01*
X19702Y-20945D01*
X19835Y-21000D01*
X19835Y-21000D01*
G37*
G54D19*
X19835Y-21000D02*
X19703Y-21055D01*
X19606Y-21151D01*
X18893Y-21151D01*
X18798Y-21055D01*
X18723Y-21024D01*
X18824Y-21024D01*
X18916Y-20986D01*
X18986Y-20916D01*
X19013Y-20849D01*
X19606Y-20849D01*
X19702Y-20945D01*
X19835Y-21000D01*
G54D10*
G36*
X19835Y-22000D02*
X19703Y-22055D01*
X19606Y-22151D01*
X18893Y-22151D01*
X18798Y-22055D01*
X18664Y-21999D01*
X18797Y-21945D01*
X18893Y-21849D01*
X19606Y-21849D01*
X19702Y-21945D01*
X19835Y-22000D01*
X19835Y-22000D01*
G37*
G54D19*
X19835Y-22000D02*
X19703Y-22055D01*
X19606Y-22151D01*
X18893Y-22151D01*
X18798Y-22055D01*
X18664Y-21999D01*
X18797Y-21945D01*
X18893Y-21849D01*
X19606Y-21849D01*
X19702Y-21945D01*
X19835Y-22000D01*
G54D10*
G36*
X19835Y-23000D02*
X19703Y-23055D01*
X19606Y-23151D01*
X18893Y-23151D01*
X18798Y-23055D01*
X18664Y-22999D01*
X18797Y-22945D01*
X18893Y-22849D01*
X19606Y-22849D01*
X19702Y-22945D01*
X19835Y-23000D01*
X19835Y-23000D01*
G37*
G54D19*
X19835Y-23000D02*
X19703Y-23055D01*
X19606Y-23151D01*
X18893Y-23151D01*
X18798Y-23055D01*
X18664Y-22999D01*
X18797Y-22945D01*
X18893Y-22849D01*
X19606Y-22849D01*
X19702Y-22945D01*
X19835Y-23000D01*
G54D10*
G36*
X20115Y-13460D02*
X20059Y-13516D01*
X20019Y-13500D01*
X20115Y-13460D01*
X20115Y-13460D01*
G37*
G54D19*
X20115Y-13460D02*
X20059Y-13516D01*
X20019Y-13500D01*
X20115Y-13460D01*
G54D10*
G36*
X20200Y-18620D02*
X20122Y-18543D01*
X20019Y-18500D01*
X20122Y-18458D01*
X20200Y-18379D01*
X20200Y-18620D01*
X20200Y-18620D01*
G37*
G54D19*
X20200Y-18620D02*
X20122Y-18543D01*
X20019Y-18500D01*
X20122Y-18458D01*
X20200Y-18379D01*
X20200Y-18620D01*
G54D10*
G36*
X20325Y-14215D02*
X20312Y-14212D01*
X20325Y-14181D01*
X20325Y-14215D01*
X20325Y-14215D01*
G37*
G54D19*
X20325Y-14215D02*
X20312Y-14212D01*
X20325Y-14181D01*
X20325Y-14215D01*
G54D10*
G36*
X20372Y-14051D02*
X20356Y-14090D01*
X20356Y-14068D01*
X20372Y-14051D01*
X20372Y-14051D01*
G37*
G54D19*
X20372Y-14051D02*
X20356Y-14090D01*
X20356Y-14068D01*
X20372Y-14051D01*
G54D10*
G36*
X22617Y-23000D02*
X22584Y-23014D01*
X22514Y-23084D01*
X22476Y-23175D01*
X22476Y-23274D01*
X22476Y-23824D01*
X22502Y-23888D01*
X20354Y-23888D01*
X20445Y-23798D01*
X20525Y-23605D01*
X20525Y-23396D01*
X20445Y-23203D01*
X20298Y-23055D01*
X20164Y-22999D01*
X20297Y-22945D01*
X20445Y-22798D01*
X20525Y-22605D01*
X20525Y-22396D01*
X20445Y-22203D01*
X20298Y-22055D01*
X20164Y-21999D01*
X20297Y-21945D01*
X20445Y-21798D01*
X20525Y-21605D01*
X20525Y-21396D01*
X20445Y-21203D01*
X20298Y-21055D01*
X20164Y-20999D01*
X20297Y-20945D01*
X20445Y-20798D01*
X20525Y-20605D01*
X20525Y-20396D01*
X20445Y-20203D01*
X20298Y-20055D01*
X20105Y-19975D01*
X19896Y-19975D01*
X19703Y-20055D01*
X19606Y-20151D01*
X19013Y-20151D01*
X18986Y-20084D01*
X18916Y-20014D01*
X18825Y-19976D01*
X18726Y-19976D01*
X18176Y-19976D01*
X18084Y-20014D01*
X18014Y-20084D01*
X17986Y-20151D01*
X17513Y-20151D01*
X17486Y-20084D01*
X17416Y-20014D01*
X17325Y-19976D01*
X17226Y-19976D01*
X16676Y-19976D01*
X16584Y-20014D01*
X16514Y-20084D01*
X16476Y-20175D01*
X16476Y-20274D01*
X16476Y-20824D01*
X16514Y-20916D01*
X16584Y-20986D01*
X16617Y-21000D01*
X16584Y-21014D01*
X16514Y-21084D01*
X16476Y-21175D01*
X16476Y-21274D01*
X16476Y-21824D01*
X16514Y-21916D01*
X16584Y-21986D01*
X16617Y-22000D01*
X16584Y-22014D01*
X16514Y-22084D01*
X16476Y-22175D01*
X16476Y-22274D01*
X16476Y-22824D01*
X16514Y-22916D01*
X16584Y-22986D01*
X16617Y-23000D01*
X16584Y-23014D01*
X16514Y-23084D01*
X16476Y-23175D01*
X16476Y-23274D01*
X16476Y-23824D01*
X16502Y-23888D01*
X14354Y-23888D01*
X14445Y-23798D01*
X14525Y-23605D01*
X14525Y-23396D01*
X14445Y-23203D01*
X14298Y-23055D01*
X14164Y-22999D01*
X14297Y-22945D01*
X14445Y-22798D01*
X14525Y-22605D01*
X14525Y-22396D01*
X14445Y-22203D01*
X14298Y-22055D01*
X14164Y-21999D01*
X14297Y-21945D01*
X14445Y-21798D01*
X14525Y-21605D01*
X14525Y-21396D01*
X14445Y-21203D01*
X14298Y-21055D01*
X14164Y-20999D01*
X14297Y-20945D01*
X14445Y-20798D01*
X14525Y-20605D01*
X14525Y-20396D01*
X14445Y-20203D01*
X14300Y-20057D01*
X14300Y-18874D01*
X15151Y-18023D01*
X15151Y-19250D01*
X15178Y-19384D01*
X15253Y-19497D01*
X15501Y-19744D01*
X15503Y-19747D01*
X15616Y-19822D01*
X15617Y-19822D01*
X15750Y-19849D01*
X19000Y-19849D01*
X19133Y-19822D01*
X19134Y-19822D01*
X19247Y-19747D01*
X19454Y-19540D01*
X19923Y-19540D01*
X20122Y-19458D01*
X20200Y-19379D01*
X20200Y-19500D01*
X20223Y-19615D01*
X20288Y-19712D01*
X20537Y-19962D01*
X20538Y-19962D01*
X20635Y-20027D01*
X20750Y-20050D01*
X22125Y-20050D01*
X22476Y-20400D01*
X22476Y-20824D01*
X22514Y-20916D01*
X22584Y-20986D01*
X22617Y-21000D01*
X22584Y-21014D01*
X22514Y-21084D01*
X22476Y-21175D01*
X22476Y-21274D01*
X22476Y-21824D01*
X22514Y-21916D01*
X22584Y-21986D01*
X22617Y-22000D01*
X22584Y-22014D01*
X22514Y-22084D01*
X22476Y-22175D01*
X22476Y-22274D01*
X22476Y-22824D01*
X22514Y-22916D01*
X22584Y-22986D01*
X22617Y-23000D01*
X22617Y-23000D01*
G37*
G54D19*
X22617Y-23000D02*
X22584Y-23014D01*
X22514Y-23084D01*
X22476Y-23175D01*
X22476Y-23274D01*
X22476Y-23824D01*
X22502Y-23888D01*
X20354Y-23888D01*
X20445Y-23798D01*
X20525Y-23605D01*
X20525Y-23396D01*
X20445Y-23203D01*
X20298Y-23055D01*
X20164Y-22999D01*
X20297Y-22945D01*
X20445Y-22798D01*
X20525Y-22605D01*
X20525Y-22396D01*
X20445Y-22203D01*
X20298Y-22055D01*
X20164Y-21999D01*
X20297Y-21945D01*
X20445Y-21798D01*
X20525Y-21605D01*
X20525Y-21396D01*
X20445Y-21203D01*
X20298Y-21055D01*
X20164Y-20999D01*
X20297Y-20945D01*
X20445Y-20798D01*
X20525Y-20605D01*
X20525Y-20396D01*
X20445Y-20203D01*
X20298Y-20055D01*
X20105Y-19975D01*
X19896Y-19975D01*
X19703Y-20055D01*
X19606Y-20151D01*
X19013Y-20151D01*
X18986Y-20084D01*
X18916Y-20014D01*
X18825Y-19976D01*
X18726Y-19976D01*
X18176Y-19976D01*
X18084Y-20014D01*
X18014Y-20084D01*
X17986Y-20151D01*
X17513Y-20151D01*
X17486Y-20084D01*
X17416Y-20014D01*
X17325Y-19976D01*
X17226Y-19976D01*
X16676Y-19976D01*
X16584Y-20014D01*
X16514Y-20084D01*
X16476Y-20175D01*
X16476Y-20274D01*
X16476Y-20824D01*
X16514Y-20916D01*
X16584Y-20986D01*
X16617Y-21000D01*
X16584Y-21014D01*
X16514Y-21084D01*
X16476Y-21175D01*
X16476Y-21274D01*
X16476Y-21824D01*
X16514Y-21916D01*
X16584Y-21986D01*
X16617Y-22000D01*
X16584Y-22014D01*
X16514Y-22084D01*
X16476Y-22175D01*
X16476Y-22274D01*
X16476Y-22824D01*
X16514Y-22916D01*
X16584Y-22986D01*
X16617Y-23000D01*
X16584Y-23014D01*
X16514Y-23084D01*
X16476Y-23175D01*
X16476Y-23274D01*
X16476Y-23824D01*
X16502Y-23888D01*
X14354Y-23888D01*
X14445Y-23798D01*
X14525Y-23605D01*
X14525Y-23396D01*
X14445Y-23203D01*
X14298Y-23055D01*
X14164Y-22999D01*
X14297Y-22945D01*
X14445Y-22798D01*
X14525Y-22605D01*
X14525Y-22396D01*
X14445Y-22203D01*
X14298Y-22055D01*
X14164Y-21999D01*
X14297Y-21945D01*
X14445Y-21798D01*
X14525Y-21605D01*
X14525Y-21396D01*
X14445Y-21203D01*
X14298Y-21055D01*
X14164Y-20999D01*
X14297Y-20945D01*
X14445Y-20798D01*
X14525Y-20605D01*
X14525Y-20396D01*
X14445Y-20203D01*
X14300Y-20057D01*
X14300Y-18874D01*
X15151Y-18023D01*
X15151Y-19250D01*
X15178Y-19384D01*
X15253Y-19497D01*
X15501Y-19744D01*
X15503Y-19747D01*
X15616Y-19822D01*
X15617Y-19822D01*
X15750Y-19849D01*
X19000Y-19849D01*
X19133Y-19822D01*
X19134Y-19822D01*
X19247Y-19747D01*
X19454Y-19540D01*
X19923Y-19540D01*
X20122Y-19458D01*
X20200Y-19379D01*
X20200Y-19500D01*
X20223Y-19615D01*
X20288Y-19712D01*
X20537Y-19962D01*
X20538Y-19962D01*
X20635Y-20027D01*
X20750Y-20050D01*
X22125Y-20050D01*
X22476Y-20400D01*
X22476Y-20824D01*
X22514Y-20916D01*
X22584Y-20986D01*
X22617Y-21000D01*
X22584Y-21014D01*
X22514Y-21084D01*
X22476Y-21175D01*
X22476Y-21274D01*
X22476Y-21824D01*
X22514Y-21916D01*
X22584Y-21986D01*
X22617Y-22000D01*
X22584Y-22014D01*
X22514Y-22084D01*
X22476Y-22175D01*
X22476Y-22274D01*
X22476Y-22824D01*
X22514Y-22916D01*
X22584Y-22986D01*
X22617Y-23000D01*
G54D10*
G36*
X22715Y-11550D02*
X22703Y-11555D01*
X22557Y-11700D01*
X22000Y-11700D01*
X21885Y-11723D01*
X21788Y-11788D01*
X20275Y-13300D01*
X20356Y-13108D01*
X20356Y-12893D01*
X20274Y-12694D01*
X20122Y-12543D01*
X20019Y-12500D01*
X20122Y-12458D01*
X20273Y-12306D01*
X20356Y-12108D01*
X20356Y-11893D01*
X20274Y-11694D01*
X20129Y-11550D01*
X22715Y-11550D01*
X22715Y-11550D01*
G37*
G54D19*
X22715Y-11550D02*
X22703Y-11555D01*
X22557Y-11700D01*
X22000Y-11700D01*
X21885Y-11723D01*
X21788Y-11788D01*
X20275Y-13300D01*
X20356Y-13108D01*
X20356Y-12893D01*
X20274Y-12694D01*
X20122Y-12543D01*
X20019Y-12500D01*
X20122Y-12458D01*
X20273Y-12306D01*
X20356Y-12108D01*
X20356Y-11893D01*
X20274Y-11694D01*
X20129Y-11550D01*
X22715Y-11550D01*
G54D10*
G36*
X22776Y-18476D02*
X22676Y-18476D01*
X22584Y-18514D01*
X22514Y-18584D01*
X22476Y-18675D01*
X22476Y-18700D01*
X22374Y-18700D01*
X21675Y-18001D01*
X21675Y-17916D01*
X21627Y-17800D01*
X21876Y-17800D01*
X22288Y-18212D01*
X22385Y-18277D01*
X22500Y-18300D01*
X22557Y-18300D01*
X22702Y-18445D01*
X22776Y-18476D01*
X22776Y-18476D01*
G37*
G54D19*
X22776Y-18476D02*
X22676Y-18476D01*
X22584Y-18514D01*
X22514Y-18584D01*
X22476Y-18675D01*
X22476Y-18700D01*
X22374Y-18700D01*
X21675Y-18001D01*
X21675Y-17916D01*
X21627Y-17800D01*
X21876Y-17800D01*
X22288Y-18212D01*
X22385Y-18277D01*
X22500Y-18300D01*
X22557Y-18300D01*
X22702Y-18445D01*
X22776Y-18476D01*
G54D10*
G36*
X22835Y-13500D02*
X22703Y-13555D01*
X22557Y-13700D01*
X21000Y-13700D01*
X20885Y-13723D01*
X20787Y-13788D01*
X20750Y-13825D01*
X20666Y-13825D01*
X20552Y-13871D01*
X22124Y-12300D01*
X22557Y-12300D01*
X22702Y-12445D01*
X22835Y-12500D01*
X22703Y-12555D01*
X22555Y-12702D01*
X22475Y-12895D01*
X22475Y-13104D01*
X22555Y-13297D01*
X22702Y-13445D01*
X22835Y-13500D01*
X22835Y-13500D01*
G37*
G54D19*
X22835Y-13500D02*
X22703Y-13555D01*
X22557Y-13700D01*
X21000Y-13700D01*
X20885Y-13723D01*
X20787Y-13788D01*
X20750Y-13825D01*
X20666Y-13825D01*
X20552Y-13871D01*
X22124Y-12300D01*
X22557Y-12300D01*
X22702Y-12445D01*
X22835Y-12500D01*
X22703Y-12555D01*
X22555Y-12702D01*
X22475Y-12895D01*
X22475Y-13104D01*
X22555Y-13297D01*
X22702Y-13445D01*
X22835Y-13500D01*
G54D10*
G36*
X22835Y-14500D02*
X22703Y-14555D01*
X22557Y-14700D01*
X20874Y-14700D01*
X20844Y-14670D01*
X20990Y-14611D01*
X21110Y-14491D01*
X21175Y-14335D01*
X21175Y-14300D01*
X22557Y-14300D01*
X22702Y-14445D01*
X22835Y-14500D01*
X22835Y-14500D01*
G37*
G54D19*
X22835Y-14500D02*
X22703Y-14555D01*
X22557Y-14700D01*
X20874Y-14700D01*
X20844Y-14670D01*
X20990Y-14611D01*
X21110Y-14491D01*
X21175Y-14335D01*
X21175Y-14300D01*
X22557Y-14300D01*
X22702Y-14445D01*
X22835Y-14500D01*
G54D10*
G36*
X22835Y-15500D02*
X22703Y-15555D01*
X22557Y-15700D01*
X20276Y-15700D01*
X20274Y-15694D01*
X20122Y-15543D01*
X20019Y-15500D01*
X20122Y-15458D01*
X20273Y-15306D01*
X20356Y-15108D01*
X20356Y-15030D01*
X20538Y-15212D01*
X20635Y-15277D01*
X20750Y-15300D01*
X22557Y-15300D01*
X22702Y-15445D01*
X22835Y-15500D01*
X22835Y-15500D01*
G37*
G54D19*
X22835Y-15500D02*
X22703Y-15555D01*
X22557Y-15700D01*
X20276Y-15700D01*
X20274Y-15694D01*
X20122Y-15543D01*
X20019Y-15500D01*
X20122Y-15458D01*
X20273Y-15306D01*
X20356Y-15108D01*
X20356Y-15030D01*
X20538Y-15212D01*
X20635Y-15277D01*
X20750Y-15300D01*
X22557Y-15300D01*
X22702Y-15445D01*
X22835Y-15500D01*
G54D10*
G36*
X22835Y-16500D02*
X22703Y-16555D01*
X22675Y-16582D01*
X22675Y-16417D01*
X22702Y-16445D01*
X22835Y-16500D01*
X22835Y-16500D01*
G37*
G54D19*
X22835Y-16500D02*
X22703Y-16555D01*
X22675Y-16582D01*
X22675Y-16417D01*
X22702Y-16445D01*
X22835Y-16500D01*
G54D10*
G36*
X22835Y-17500D02*
X22703Y-17555D01*
X22590Y-17666D01*
X22224Y-17300D01*
X22557Y-17300D01*
X22702Y-17445D01*
X22835Y-17500D01*
X22835Y-17500D01*
G37*
G54D19*
X22835Y-17500D02*
X22703Y-17555D01*
X22590Y-17666D01*
X22224Y-17300D01*
X22557Y-17300D01*
X22702Y-17445D01*
X22835Y-17500D01*
G54D10*
G36*
X23297Y-11554D02*
X23285Y-11550D01*
X23297Y-11550D01*
X23297Y-11554D01*
X23297Y-11554D01*
G37*
G54D19*
X23297Y-11554D02*
X23285Y-11550D01*
X23297Y-11550D01*
X23297Y-11554D01*
G54D10*
G36*
X23297Y-12554D02*
X23164Y-12499D01*
X23297Y-12445D01*
X23297Y-12554D01*
X23297Y-12554D01*
G37*
G54D19*
X23297Y-12554D02*
X23164Y-12499D01*
X23297Y-12445D01*
X23297Y-12554D01*
G54D10*
G36*
X23297Y-13554D02*
X23164Y-13499D01*
X23297Y-13445D01*
X23297Y-13554D01*
X23297Y-13554D01*
G37*
G54D19*
X23297Y-13554D02*
X23164Y-13499D01*
X23297Y-13445D01*
X23297Y-13554D01*
G54D10*
G36*
X23297Y-14554D02*
X23164Y-14499D01*
X23297Y-14445D01*
X23297Y-14554D01*
X23297Y-14554D01*
G37*
G54D19*
X23297Y-14554D02*
X23164Y-14499D01*
X23297Y-14445D01*
X23297Y-14554D01*
G54D10*
G36*
X23297Y-15554D02*
X23164Y-15499D01*
X23297Y-15445D01*
X23297Y-15554D01*
X23297Y-15554D01*
G37*
G54D19*
X23297Y-15554D02*
X23164Y-15499D01*
X23297Y-15445D01*
X23297Y-15554D01*
G54D10*
G36*
X23297Y-16554D02*
X23164Y-16499D01*
X23297Y-16445D01*
X23297Y-16554D01*
X23297Y-16554D01*
G37*
G54D19*
X23297Y-16554D02*
X23164Y-16499D01*
X23297Y-16445D01*
X23297Y-16554D01*
G54D10*
G36*
X23297Y-17554D02*
X23164Y-17499D01*
X23297Y-17445D01*
X23297Y-17554D01*
X23297Y-17554D01*
G37*
G54D19*
X23297Y-17554D02*
X23164Y-17499D01*
X23297Y-17445D01*
X23297Y-17554D01*
G54D10*
G36*
X23297Y-18476D02*
X23226Y-18476D01*
X23222Y-18476D01*
X23297Y-18445D01*
X23297Y-18476D01*
X23297Y-18476D01*
G37*
G54D19*
X23297Y-18476D02*
X23226Y-18476D01*
X23222Y-18476D01*
X23297Y-18445D01*
X23297Y-18476D01*
G54D10*
G36*
X23297Y-19976D02*
X23226Y-19976D01*
X22900Y-19976D01*
X22462Y-19538D01*
X22365Y-19473D01*
X22250Y-19450D01*
X20874Y-19450D01*
X20800Y-19375D01*
X20800Y-17925D01*
X20825Y-17925D01*
X20825Y-18084D01*
X20889Y-18240D01*
X21009Y-18360D01*
X21165Y-18425D01*
X21251Y-18425D01*
X22038Y-19212D01*
X22135Y-19277D01*
X22250Y-19300D01*
X22476Y-19300D01*
X22476Y-19324D01*
X22514Y-19416D01*
X22584Y-19486D01*
X22675Y-19524D01*
X22774Y-19524D01*
X23297Y-19524D01*
X23297Y-19976D01*
X23297Y-19976D01*
G37*
G54D19*
X23297Y-19976D02*
X23226Y-19976D01*
X22900Y-19976D01*
X22462Y-19538D01*
X22365Y-19473D01*
X22250Y-19450D01*
X20874Y-19450D01*
X20800Y-19375D01*
X20800Y-17925D01*
X20825Y-17925D01*
X20825Y-18084D01*
X20889Y-18240D01*
X21009Y-18360D01*
X21165Y-18425D01*
X21251Y-18425D01*
X22038Y-19212D01*
X22135Y-19277D01*
X22250Y-19300D01*
X22476Y-19300D01*
X22476Y-19324D01*
X22514Y-19416D01*
X22584Y-19486D01*
X22675Y-19524D01*
X22774Y-19524D01*
X23297Y-19524D01*
X23297Y-19976D01*
M02*
