G04 (created by PCBNEW-RS274X (2011-12-28 BZR 3254)-stable) date 2012. 03. 26. 13:07:31*
G01*
G70*
G90*
%MOIN*%
G04 Gerber Fmt 3.4, Leading zero omitted, Abs format*
%FSLAX34Y34*%
G04 APERTURE LIST*
%ADD10C,0.006000*%
%ADD11C,0.015000*%
%ADD12C,0.060000*%
%ADD13C,0.106300*%
%ADD14R,0.050000X0.020000*%
%ADD15R,0.020000X0.045000*%
%ADD16R,0.055000X0.055000*%
%ADD17C,0.055000*%
%ADD18O,0.120000X0.060000*%
%ADD19C,0.035000*%
%ADD20C,0.010000*%
%ADD21C,0.019900*%
G04 APERTURE END LIST*
G54D10*
G54D11*
X23622Y-04724D02*
X04724Y-04724D01*
X23622Y-24213D02*
X23622Y-04724D01*
X04724Y-24213D02*
X23622Y-24213D01*
X04724Y-04724D02*
X04724Y-24213D01*
G54D12*
X09250Y-19900D03*
X08250Y-19900D03*
X08250Y-20687D03*
X09250Y-20687D03*
G54D13*
X11112Y-21750D03*
X06388Y-21750D03*
G54D14*
X07100Y-11750D03*
X07100Y-12250D03*
X07100Y-12750D03*
X07100Y-13250D03*
X07100Y-13750D03*
X07100Y-14250D03*
X07100Y-14750D03*
X07100Y-15250D03*
X07100Y-15750D03*
X07100Y-16250D03*
X10900Y-16250D03*
X10900Y-15750D03*
X10900Y-15250D03*
X10900Y-14750D03*
X10900Y-14250D03*
X10900Y-13750D03*
X10900Y-13250D03*
X10900Y-12750D03*
X10900Y-12250D03*
X10900Y-11750D03*
G54D15*
X09000Y-09300D03*
X09500Y-09300D03*
X10000Y-09300D03*
X10500Y-09300D03*
X11000Y-09300D03*
X11500Y-09300D03*
X12000Y-09300D03*
X12000Y-06800D03*
X11500Y-06800D03*
X10500Y-06800D03*
X10000Y-06800D03*
X09500Y-06800D03*
X09000Y-06800D03*
X11000Y-06800D03*
X18500Y-09300D03*
X19000Y-09300D03*
X19500Y-09300D03*
X20000Y-09300D03*
X20500Y-09300D03*
X21000Y-09300D03*
X21500Y-09300D03*
X21500Y-06800D03*
X21000Y-06800D03*
X20000Y-06800D03*
X19500Y-06800D03*
X19000Y-06800D03*
X18500Y-06800D03*
X20500Y-06800D03*
G54D16*
X23000Y-19000D03*
G54D17*
X23000Y-18000D03*
X23000Y-17000D03*
X23000Y-16000D03*
X23000Y-15000D03*
X23000Y-14000D03*
X23000Y-13000D03*
X23000Y-12000D03*
G54D16*
X12500Y-17000D03*
G54D17*
X12500Y-16000D03*
X12500Y-15000D03*
X12500Y-14000D03*
X12500Y-13000D03*
X12500Y-12000D03*
G54D16*
X05500Y-17000D03*
G54D17*
X05500Y-16000D03*
X05500Y-15000D03*
X05500Y-14000D03*
X05500Y-13000D03*
X05500Y-12000D03*
G54D16*
X15000Y-05500D03*
G54D17*
X16000Y-05500D03*
X17000Y-05500D03*
X18000Y-05500D03*
X19000Y-05500D03*
G54D16*
X19000Y-10500D03*
G54D17*
X20000Y-10500D03*
X21000Y-10500D03*
X22000Y-10500D03*
X23000Y-10500D03*
G54D16*
X09500Y-10500D03*
G54D17*
X10500Y-10500D03*
X11500Y-10500D03*
X12500Y-10500D03*
X13500Y-10500D03*
G54D16*
X05500Y-05500D03*
G54D17*
X06500Y-05500D03*
X07500Y-05500D03*
X08500Y-05500D03*
X09500Y-05500D03*
G54D16*
X20000Y-05500D03*
G54D17*
X21000Y-05500D03*
X22000Y-05500D03*
X23000Y-05500D03*
G54D16*
X10500Y-05500D03*
G54D17*
X11500Y-05500D03*
X12500Y-05500D03*
X13500Y-05500D03*
G54D16*
X14000Y-17000D03*
G54D17*
X14000Y-16000D03*
X14000Y-15000D03*
X14000Y-14000D03*
G54D16*
X18500Y-20500D03*
G54D17*
X18500Y-21500D03*
X18500Y-22500D03*
X18500Y-23500D03*
G54D16*
X10500Y-18000D03*
G54D17*
X11500Y-18000D03*
X12500Y-18000D03*
G54D16*
X05500Y-18250D03*
G54D17*
X06500Y-18250D03*
X05500Y-20500D03*
X05500Y-23500D03*
G54D18*
X19500Y-19000D03*
X17500Y-18500D03*
X19500Y-18000D03*
X17500Y-17500D03*
X19500Y-17000D03*
X17500Y-16500D03*
X19500Y-16000D03*
X17500Y-15500D03*
X19500Y-15000D03*
X17500Y-14500D03*
X19500Y-14000D03*
X17500Y-13500D03*
X19500Y-13000D03*
X17500Y-12500D03*
X19500Y-12000D03*
G54D16*
X17000Y-23500D03*
G54D17*
X14000Y-23500D03*
G54D16*
X23000Y-23500D03*
G54D17*
X20000Y-23500D03*
G54D16*
X17000Y-22500D03*
G54D17*
X14000Y-22500D03*
G54D16*
X23000Y-22500D03*
G54D17*
X20000Y-22500D03*
G54D16*
X17000Y-21500D03*
G54D17*
X14000Y-21500D03*
G54D16*
X23000Y-21500D03*
G54D17*
X20000Y-21500D03*
G54D16*
X17000Y-20500D03*
G54D17*
X14000Y-20500D03*
G54D16*
X23000Y-20500D03*
G54D17*
X20000Y-20500D03*
X08750Y-18250D03*
X08750Y-17250D03*
X07500Y-08500D03*
X07500Y-07500D03*
X17000Y-08500D03*
X17000Y-07500D03*
G54D16*
X12250Y-20500D03*
G54D17*
X12250Y-19500D03*
G54D19*
X21250Y-18000D03*
X22250Y-16500D03*
X20750Y-14250D03*
X10500Y-08000D03*
X08000Y-14500D03*
X07500Y-17000D03*
X10000Y-14500D03*
X20000Y-08000D03*
X16250Y-18750D03*
X09500Y-15500D03*
X20750Y-17500D03*
G54D20*
X20500Y-15500D02*
X21000Y-15500D01*
X20000Y-15000D02*
X20500Y-15500D01*
X21000Y-15500D02*
X21250Y-15750D01*
X21250Y-15750D02*
X21250Y-18000D01*
X19500Y-15000D02*
X20000Y-15000D01*
X22250Y-13250D02*
X22250Y-16500D01*
X23000Y-13000D02*
X22500Y-13000D01*
X22500Y-13000D02*
X22250Y-13250D01*
G54D21*
X17000Y-21500D02*
X18500Y-21500D01*
X19500Y-18000D02*
X20500Y-18000D01*
X21000Y-21000D02*
X20500Y-21500D01*
X21000Y-18500D02*
X21000Y-21000D01*
X18500Y-21500D02*
X20000Y-21500D01*
X20500Y-21500D02*
X20000Y-21500D01*
X20500Y-18000D02*
X21000Y-18500D01*
G54D20*
X20250Y-13500D02*
X20750Y-14000D01*
X17500Y-13500D02*
X20250Y-13500D01*
X20750Y-14000D02*
X20750Y-14250D01*
G54D21*
X15500Y-17500D02*
X17500Y-17500D01*
X23000Y-23500D02*
X23000Y-22500D01*
X15000Y-17000D02*
X15500Y-17500D01*
X14000Y-17000D02*
X15000Y-17000D01*
X23000Y-22500D02*
X23000Y-21500D01*
X23000Y-21500D02*
X23000Y-20500D01*
G54D20*
X10500Y-09300D02*
X10500Y-08000D01*
X09500Y-06800D02*
X09500Y-06500D01*
X09500Y-06500D02*
X08500Y-05500D01*
X13500Y-09250D02*
X13500Y-10500D01*
X13000Y-08750D02*
X13500Y-09250D01*
X12000Y-09300D02*
X12000Y-09000D01*
X12250Y-08750D02*
X13000Y-08750D01*
X12000Y-09000D02*
X12250Y-08750D01*
G54D21*
X21750Y-14250D02*
X21750Y-22000D01*
X17000Y-22500D02*
X18500Y-22500D01*
X18500Y-22500D02*
X20000Y-22500D01*
X19500Y-13000D02*
X20500Y-13000D01*
X21250Y-22500D02*
X20000Y-22500D01*
X20500Y-13000D02*
X21750Y-14250D01*
X21750Y-22000D02*
X21250Y-22500D01*
X18500Y-20500D02*
X20000Y-20500D01*
X17000Y-20500D02*
X18500Y-20500D01*
X17500Y-18500D02*
X17500Y-19500D01*
X17500Y-19500D02*
X18500Y-20500D01*
G54D20*
X09500Y-06000D02*
X09500Y-05500D01*
X10000Y-06800D02*
X10000Y-06500D01*
X10000Y-06500D02*
X09500Y-06000D01*
X08000Y-16000D02*
X08000Y-19650D01*
X07750Y-15750D02*
X08000Y-16000D01*
X08000Y-19650D02*
X08250Y-19900D01*
X07100Y-15750D02*
X07750Y-15750D01*
X12000Y-17500D02*
X12500Y-18000D01*
X11750Y-17250D02*
X12000Y-17500D01*
X11750Y-15750D02*
X11750Y-17250D01*
X10900Y-15250D02*
X11250Y-15250D01*
X11250Y-15250D02*
X11750Y-15750D01*
X10900Y-11750D02*
X12250Y-11750D01*
X12250Y-11750D02*
X12500Y-12000D01*
X07100Y-15250D02*
X06750Y-15250D01*
X06500Y-16750D02*
X07250Y-17500D01*
X06500Y-15500D02*
X06500Y-16750D01*
X06750Y-15250D02*
X06500Y-15500D01*
X07250Y-17500D02*
X07250Y-20500D01*
X07250Y-20500D02*
X07437Y-20687D01*
X07437Y-20687D02*
X08250Y-20687D01*
X07100Y-14750D02*
X07750Y-14750D01*
X08750Y-15750D02*
X08750Y-17250D01*
X07750Y-14750D02*
X08750Y-15750D01*
X07750Y-14250D02*
X08000Y-14500D01*
X07100Y-14250D02*
X07750Y-14250D01*
X07100Y-13750D02*
X06750Y-13750D01*
X06500Y-15000D02*
X05500Y-16000D01*
X06750Y-13750D02*
X06500Y-14000D01*
X06500Y-14000D02*
X06500Y-15000D01*
X06750Y-13250D02*
X06250Y-13750D01*
X06250Y-13750D02*
X06250Y-14250D01*
X06250Y-14250D02*
X05500Y-15000D01*
X07100Y-13250D02*
X06750Y-13250D01*
X06750Y-12750D02*
X05500Y-14000D01*
X07100Y-12750D02*
X06750Y-12750D01*
X06250Y-12250D02*
X05500Y-13000D01*
X07100Y-12250D02*
X06250Y-12250D01*
X05750Y-11750D02*
X05500Y-12000D01*
X07100Y-11750D02*
X05750Y-11750D01*
X07500Y-16250D02*
X07500Y-17000D01*
X07100Y-16250D02*
X07500Y-16250D01*
X10900Y-12250D02*
X11750Y-12250D01*
X11750Y-12250D02*
X12500Y-13000D01*
X10900Y-12750D02*
X11250Y-12750D01*
X11250Y-12750D02*
X12500Y-14000D01*
X11750Y-14250D02*
X12500Y-15000D01*
X11750Y-13750D02*
X11750Y-14250D01*
X10900Y-13250D02*
X11250Y-13250D01*
X11250Y-13250D02*
X11750Y-13750D01*
X11250Y-13750D02*
X11500Y-14000D01*
X10900Y-13750D02*
X11250Y-13750D01*
X11500Y-15000D02*
X12500Y-16000D01*
X11500Y-14000D02*
X11500Y-15000D01*
X12000Y-06800D02*
X12000Y-07000D01*
X12000Y-07000D02*
X12250Y-07250D01*
X13000Y-07250D02*
X13500Y-06750D01*
X13500Y-06750D02*
X13500Y-05500D01*
X12250Y-07250D02*
X13000Y-07250D01*
X18250Y-08500D02*
X17000Y-08500D01*
X18500Y-09300D02*
X18500Y-08750D01*
X16500Y-08500D02*
X17000Y-08500D01*
X16000Y-05500D02*
X16000Y-08000D01*
X18500Y-08750D02*
X18250Y-08500D01*
X16000Y-08000D02*
X16500Y-08500D01*
X22500Y-08750D02*
X23000Y-09250D01*
X23000Y-09250D02*
X23000Y-10500D01*
X21500Y-09300D02*
X21500Y-09000D01*
X21500Y-09000D02*
X21750Y-08750D01*
X21750Y-08750D02*
X22500Y-08750D01*
X11500Y-06800D02*
X11500Y-06250D01*
X12000Y-06250D02*
X12500Y-05750D01*
X11500Y-06250D02*
X12000Y-06250D01*
X12500Y-05750D02*
X12500Y-05500D01*
X11500Y-05750D02*
X11500Y-05500D01*
X11000Y-06250D02*
X11500Y-05750D01*
X11000Y-06800D02*
X11000Y-06250D01*
X10500Y-06800D02*
X10500Y-05500D01*
X11500Y-09750D02*
X11750Y-10000D01*
X11750Y-10000D02*
X12000Y-10000D01*
X11500Y-09300D02*
X11500Y-09750D01*
X12000Y-10000D02*
X12500Y-10500D01*
X11000Y-09300D02*
X11000Y-10000D01*
X11000Y-10000D02*
X11500Y-10500D01*
X10000Y-09300D02*
X10000Y-09750D01*
X10500Y-10250D02*
X10500Y-10500D01*
X10000Y-09750D02*
X10500Y-10250D01*
X09500Y-09300D02*
X09500Y-10500D01*
X08750Y-07500D02*
X07500Y-07500D01*
X09000Y-06800D02*
X09000Y-07250D01*
X07500Y-05500D02*
X07500Y-07500D01*
X09000Y-07250D02*
X08750Y-07500D01*
X10900Y-14250D02*
X10250Y-14250D01*
X10250Y-14250D02*
X10000Y-14500D01*
X20000Y-06800D02*
X20000Y-05500D01*
X20500Y-06800D02*
X20500Y-06250D01*
X21000Y-05750D02*
X21000Y-05500D01*
X20500Y-06250D02*
X21000Y-05750D01*
X21000Y-06250D02*
X21500Y-06250D01*
X21000Y-06800D02*
X21000Y-06250D01*
X21500Y-06250D02*
X22000Y-05750D01*
X22000Y-05750D02*
X22000Y-05500D01*
X22500Y-07250D02*
X23000Y-06750D01*
X21500Y-07000D02*
X21750Y-07250D01*
X21750Y-07250D02*
X22500Y-07250D01*
X23000Y-06750D02*
X23000Y-05500D01*
X21500Y-06800D02*
X21500Y-07000D01*
X21500Y-10000D02*
X22000Y-10500D01*
X21000Y-09300D02*
X21000Y-09750D01*
X21000Y-09750D02*
X21250Y-10000D01*
X21250Y-10000D02*
X21500Y-10000D01*
X20000Y-09300D02*
X20000Y-08000D01*
X19500Y-09300D02*
X19500Y-09750D01*
X20000Y-10250D02*
X20000Y-10500D01*
X19500Y-09750D02*
X20000Y-10250D01*
X19000Y-09300D02*
X19000Y-10500D01*
X18750Y-06250D02*
X18000Y-05500D01*
X19000Y-06800D02*
X19000Y-06500D01*
X19000Y-06500D02*
X18750Y-06250D01*
X06500Y-08000D02*
X07000Y-08500D01*
X07000Y-08500D02*
X07500Y-08500D01*
X09000Y-09300D02*
X09000Y-08750D01*
X09000Y-08750D02*
X08750Y-08500D01*
X06500Y-05500D02*
X06500Y-08000D01*
X08750Y-08500D02*
X07500Y-08500D01*
X20500Y-09300D02*
X20500Y-10000D01*
X20500Y-10000D02*
X21000Y-10500D01*
G54D21*
X16250Y-18750D02*
X15750Y-19250D01*
X16250Y-23500D02*
X17000Y-23500D01*
X17000Y-23500D02*
X20000Y-23500D01*
X15750Y-19250D02*
X15750Y-23000D01*
X15750Y-23000D02*
X16250Y-23500D01*
G54D20*
X19000Y-06000D02*
X19000Y-05500D01*
X19500Y-06800D02*
X19500Y-06500D01*
X19500Y-06500D02*
X19000Y-06000D01*
X05500Y-20500D02*
X05500Y-20250D01*
X06500Y-19250D02*
X06500Y-18250D01*
X05500Y-20250D02*
X06500Y-19250D01*
X10250Y-14750D02*
X10900Y-14750D01*
X09500Y-15500D02*
X10250Y-14750D01*
X09250Y-19900D02*
X09250Y-19500D01*
G54D21*
X11750Y-23500D02*
X12250Y-23000D01*
G54D20*
X09500Y-16750D02*
X10000Y-16250D01*
X10000Y-16250D02*
X10900Y-16250D01*
X09500Y-19250D02*
X09500Y-16750D01*
X09250Y-19500D02*
X09500Y-19250D01*
G54D21*
X10400Y-19900D02*
X09250Y-19900D01*
X12250Y-23000D02*
X12250Y-20500D01*
X12250Y-20500D02*
X11000Y-20500D01*
X05500Y-23500D02*
X11750Y-23500D01*
X11000Y-20500D02*
X10400Y-19900D01*
G54D20*
X17500Y-15500D02*
X18250Y-15500D01*
G54D21*
X16000Y-15500D02*
X17500Y-15500D01*
G54D20*
X20750Y-16750D02*
X20750Y-17500D01*
G54D21*
X14000Y-23500D02*
X14000Y-22500D01*
X14000Y-22500D02*
X14000Y-21500D01*
X14000Y-21500D02*
X14000Y-20500D01*
X14000Y-16000D02*
X15500Y-16000D01*
X15500Y-16000D02*
X16000Y-15500D01*
G54D20*
X18500Y-16250D02*
X18750Y-16500D01*
X18250Y-15500D02*
X18500Y-15750D01*
X20500Y-16500D02*
X20750Y-16750D01*
X18750Y-16500D02*
X20500Y-16500D01*
X18500Y-15750D02*
X18500Y-16250D01*
X18250Y-07500D02*
X17000Y-07500D01*
X18500Y-07250D02*
X18250Y-07500D01*
X18500Y-06800D02*
X18500Y-07250D01*
X17000Y-05500D02*
X17000Y-07500D01*
X10900Y-15750D02*
X11250Y-15750D01*
X11500Y-16000D02*
X11500Y-16750D01*
X11250Y-15750D02*
X11500Y-16000D01*
X10500Y-17750D02*
X10500Y-18000D01*
X11500Y-16750D02*
X10500Y-17750D01*
G54D10*
G36*
X06215Y-05050D02*
X06203Y-05055D01*
X06055Y-05202D01*
X06024Y-05276D01*
X06024Y-05176D01*
X05986Y-05084D01*
X05952Y-05050D01*
X06215Y-05050D01*
X06215Y-05050D01*
G37*
G54D20*
X06215Y-05050D02*
X06203Y-05055D01*
X06055Y-05202D01*
X06024Y-05276D01*
X06024Y-05176D01*
X05986Y-05084D01*
X05952Y-05050D01*
X06215Y-05050D01*
G54D10*
G36*
X07215Y-05050D02*
X07203Y-05055D01*
X07055Y-05202D01*
X06999Y-05335D01*
X06945Y-05203D01*
X06798Y-05055D01*
X06785Y-05050D01*
X07215Y-05050D01*
X07215Y-05050D01*
G37*
G54D20*
X07215Y-05050D02*
X07203Y-05055D01*
X07055Y-05202D01*
X06999Y-05335D01*
X06945Y-05203D01*
X06798Y-05055D01*
X06785Y-05050D01*
X07215Y-05050D01*
G54D10*
G36*
X07335Y-08000D02*
X07203Y-08055D01*
X07090Y-08166D01*
X06800Y-07876D01*
X06800Y-05942D01*
X06945Y-05798D01*
X07000Y-05664D01*
X07055Y-05797D01*
X07200Y-05942D01*
X07200Y-07057D01*
X07055Y-07202D01*
X06975Y-07395D01*
X06975Y-07604D01*
X07055Y-07797D01*
X07202Y-07945D01*
X07335Y-08000D01*
X07335Y-08000D01*
G37*
G54D20*
X07335Y-08000D02*
X07203Y-08055D01*
X07090Y-08166D01*
X06800Y-07876D01*
X06800Y-05942D01*
X06945Y-05798D01*
X07000Y-05664D01*
X07055Y-05797D01*
X07200Y-05942D01*
X07200Y-07057D01*
X07055Y-07202D01*
X06975Y-07395D01*
X06975Y-07604D01*
X07055Y-07797D01*
X07202Y-07945D01*
X07335Y-08000D01*
G54D10*
G36*
X08215Y-05050D02*
X08203Y-05055D01*
X08055Y-05202D01*
X07999Y-05335D01*
X07945Y-05203D01*
X07798Y-05055D01*
X07785Y-05050D01*
X08215Y-05050D01*
X08215Y-05050D01*
G37*
G54D20*
X08215Y-05050D02*
X08203Y-05055D01*
X08055Y-05202D01*
X07999Y-05335D01*
X07945Y-05203D01*
X07798Y-05055D01*
X07785Y-05050D01*
X08215Y-05050D01*
G54D10*
G36*
X08902Y-06326D02*
X08851Y-06326D01*
X08759Y-06364D01*
X08689Y-06434D01*
X08651Y-06525D01*
X08651Y-06624D01*
X08651Y-07074D01*
X08680Y-07145D01*
X08625Y-07200D01*
X07942Y-07200D01*
X07800Y-07057D01*
X07800Y-05942D01*
X07945Y-05798D01*
X08000Y-05664D01*
X08055Y-05797D01*
X08202Y-05945D01*
X08395Y-06025D01*
X08601Y-06025D01*
X08902Y-06326D01*
X08902Y-06326D01*
G37*
G54D20*
X08902Y-06326D02*
X08851Y-06326D01*
X08759Y-06364D01*
X08689Y-06434D01*
X08651Y-06525D01*
X08651Y-06624D01*
X08651Y-07074D01*
X08680Y-07145D01*
X08625Y-07200D01*
X07942Y-07200D01*
X07800Y-07057D01*
X07800Y-05942D01*
X07945Y-05798D01*
X08000Y-05664D01*
X08055Y-05797D01*
X08202Y-05945D01*
X08395Y-06025D01*
X08601Y-06025D01*
X08902Y-06326D01*
G54D10*
G36*
X09200Y-09976D02*
X09176Y-09976D01*
X09084Y-10014D01*
X09014Y-10084D01*
X08976Y-10175D01*
X08976Y-10274D01*
X08976Y-10824D01*
X09014Y-10916D01*
X09048Y-10950D01*
X05050Y-10950D01*
X05050Y-05952D01*
X05084Y-05986D01*
X05175Y-06024D01*
X05274Y-06024D01*
X05824Y-06024D01*
X05916Y-05986D01*
X05986Y-05916D01*
X06024Y-05825D01*
X06024Y-05726D01*
X06024Y-05722D01*
X06055Y-05797D01*
X06200Y-05942D01*
X06200Y-08000D01*
X06223Y-08115D01*
X06288Y-08212D01*
X06788Y-08712D01*
X06885Y-08777D01*
X07000Y-08800D01*
X07057Y-08800D01*
X07202Y-08945D01*
X07395Y-09025D01*
X07604Y-09025D01*
X07797Y-08945D01*
X07942Y-08800D01*
X08625Y-08800D01*
X08700Y-08874D01*
X08700Y-08923D01*
X08689Y-08934D01*
X08651Y-09025D01*
X08651Y-09124D01*
X08651Y-09574D01*
X08689Y-09666D01*
X08759Y-09736D01*
X08850Y-09774D01*
X08949Y-09774D01*
X09149Y-09774D01*
X09200Y-09752D01*
X09200Y-09976D01*
X09200Y-09976D01*
G37*
G54D20*
X09200Y-09976D02*
X09176Y-09976D01*
X09084Y-10014D01*
X09014Y-10084D01*
X08976Y-10175D01*
X08976Y-10274D01*
X08976Y-10824D01*
X09014Y-10916D01*
X09048Y-10950D01*
X05050Y-10950D01*
X05050Y-05952D01*
X05084Y-05986D01*
X05175Y-06024D01*
X05274Y-06024D01*
X05824Y-06024D01*
X05916Y-05986D01*
X05986Y-05916D01*
X06024Y-05825D01*
X06024Y-05726D01*
X06024Y-05722D01*
X06055Y-05797D01*
X06200Y-05942D01*
X06200Y-08000D01*
X06223Y-08115D01*
X06288Y-08212D01*
X06788Y-08712D01*
X06885Y-08777D01*
X07000Y-08800D01*
X07057Y-08800D01*
X07202Y-08945D01*
X07395Y-09025D01*
X07604Y-09025D01*
X07797Y-08945D01*
X07942Y-08800D01*
X08625Y-08800D01*
X08700Y-08874D01*
X08700Y-08923D01*
X08689Y-08934D01*
X08651Y-09025D01*
X08651Y-09124D01*
X08651Y-09574D01*
X08689Y-09666D01*
X08759Y-09736D01*
X08850Y-09774D01*
X08949Y-09774D01*
X09149Y-09774D01*
X09200Y-09752D01*
X09200Y-09976D01*
G54D10*
G36*
X09215Y-05050D02*
X09203Y-05055D01*
X09055Y-05202D01*
X08999Y-05335D01*
X08945Y-05203D01*
X08798Y-05055D01*
X08785Y-05050D01*
X09215Y-05050D01*
X09215Y-05050D01*
G37*
G54D20*
X09215Y-05050D02*
X09203Y-05055D01*
X09055Y-05202D01*
X08999Y-05335D01*
X08945Y-05203D01*
X08798Y-05055D01*
X08785Y-05050D01*
X09215Y-05050D01*
G54D10*
G36*
X09802Y-09976D02*
X09800Y-09976D01*
X09800Y-09974D01*
X09802Y-09976D01*
X09802Y-09976D01*
G37*
G54D20*
X09802Y-09976D02*
X09800Y-09976D01*
X09800Y-09974D01*
X09802Y-09976D01*
G54D10*
G36*
X10047Y-10221D02*
X10024Y-10276D01*
X10024Y-10198D01*
X10047Y-10221D01*
X10047Y-10221D01*
G37*
G54D20*
X10047Y-10221D02*
X10024Y-10276D01*
X10024Y-10198D01*
X10047Y-10221D01*
G54D10*
G36*
X10048Y-05050D02*
X10014Y-05084D01*
X09976Y-05175D01*
X09976Y-05274D01*
X09976Y-05277D01*
X09945Y-05203D01*
X09798Y-05055D01*
X09785Y-05050D01*
X10048Y-05050D01*
X10048Y-05050D01*
G37*
G54D20*
X10048Y-05050D02*
X10014Y-05084D01*
X09976Y-05175D01*
X09976Y-05274D01*
X09976Y-05277D01*
X09945Y-05203D01*
X09798Y-05055D01*
X09785Y-05050D01*
X10048Y-05050D01*
G54D10*
G36*
X10200Y-06276D02*
X09833Y-05909D01*
X09945Y-05798D01*
X09976Y-05723D01*
X09976Y-05824D01*
X10014Y-05916D01*
X10084Y-05986D01*
X10175Y-06024D01*
X10200Y-06024D01*
X10200Y-06276D01*
X10200Y-06276D01*
G37*
G54D20*
X10200Y-06276D02*
X09833Y-05909D01*
X09945Y-05798D01*
X09976Y-05723D01*
X09976Y-05824D01*
X10014Y-05916D01*
X10084Y-05986D01*
X10175Y-06024D01*
X10200Y-06024D01*
X10200Y-06276D01*
G54D10*
G36*
X10214Y-10950D02*
X09952Y-10950D01*
X09986Y-10916D01*
X10024Y-10825D01*
X10024Y-10726D01*
X10024Y-10722D01*
X10055Y-10797D01*
X10202Y-10945D01*
X10214Y-10950D01*
X10214Y-10950D01*
G37*
G54D20*
X10214Y-10950D02*
X09952Y-10950D01*
X09986Y-10916D01*
X10024Y-10825D01*
X10024Y-10726D01*
X10024Y-10722D01*
X10055Y-10797D01*
X10202Y-10945D01*
X10214Y-10950D01*
G54D10*
G36*
X10703Y-10015D02*
X10680Y-10006D01*
X10448Y-09774D01*
X10449Y-09774D01*
X10649Y-09774D01*
X10700Y-09752D01*
X10700Y-10000D01*
X10703Y-10015D01*
X10703Y-10015D01*
G37*
G54D20*
X10703Y-10015D02*
X10680Y-10006D01*
X10448Y-09774D01*
X10449Y-09774D01*
X10649Y-09774D01*
X10700Y-09752D01*
X10700Y-10000D01*
X10703Y-10015D01*
G54D10*
G36*
X10802Y-06024D02*
X10800Y-06026D01*
X10800Y-06024D01*
X10802Y-06024D01*
X10802Y-06024D01*
G37*
G54D20*
X10802Y-06024D02*
X10800Y-06026D01*
X10800Y-06024D01*
X10802Y-06024D01*
G54D10*
G36*
X11047Y-05778D02*
X11024Y-05802D01*
X11024Y-05726D01*
X11024Y-05722D01*
X11047Y-05778D01*
X11047Y-05778D01*
G37*
G54D20*
X11047Y-05778D02*
X11024Y-05802D01*
X11024Y-05726D01*
X11024Y-05722D01*
X11047Y-05778D01*
G54D10*
G36*
X11214Y-10950D02*
X10784Y-10950D01*
X10797Y-10945D01*
X10945Y-10798D01*
X11000Y-10664D01*
X11055Y-10797D01*
X11202Y-10945D01*
X11214Y-10950D01*
X11214Y-10950D01*
G37*
G54D20*
X11214Y-10950D02*
X10784Y-10950D01*
X10797Y-10945D01*
X10945Y-10798D01*
X11000Y-10664D01*
X11055Y-10797D01*
X11202Y-10945D01*
X11214Y-10950D01*
G54D10*
G36*
X11215Y-05050D02*
X11203Y-05055D01*
X11055Y-05202D01*
X11024Y-05276D01*
X11024Y-05176D01*
X10986Y-05084D01*
X10952Y-05050D01*
X11215Y-05050D01*
X11215Y-05050D01*
G37*
G54D20*
X11215Y-05050D02*
X11203Y-05055D01*
X11055Y-05202D01*
X11024Y-05276D01*
X11024Y-05176D01*
X10986Y-05084D01*
X10952Y-05050D01*
X11215Y-05050D01*
G54D10*
G36*
X12047Y-05778D02*
X11876Y-05950D01*
X11784Y-05950D01*
X11797Y-05945D01*
X11945Y-05798D01*
X12000Y-05664D01*
X12047Y-05778D01*
X12047Y-05778D01*
G37*
G54D20*
X12047Y-05778D02*
X11876Y-05950D01*
X11784Y-05950D01*
X11797Y-05945D01*
X11945Y-05798D01*
X12000Y-05664D01*
X12047Y-05778D01*
G54D10*
G36*
X12214Y-10950D02*
X11784Y-10950D01*
X11797Y-10945D01*
X11945Y-10798D01*
X12000Y-10664D01*
X12055Y-10797D01*
X12202Y-10945D01*
X12214Y-10950D01*
X12214Y-10950D01*
G37*
G54D20*
X12214Y-10950D02*
X11784Y-10950D01*
X11797Y-10945D01*
X11945Y-10798D01*
X12000Y-10664D01*
X12055Y-10797D01*
X12202Y-10945D01*
X12214Y-10950D01*
G54D10*
G36*
X12215Y-05050D02*
X12203Y-05055D01*
X12055Y-05202D01*
X11999Y-05335D01*
X11945Y-05203D01*
X11798Y-05055D01*
X11785Y-05050D01*
X12215Y-05050D01*
X12215Y-05050D01*
G37*
G54D20*
X12215Y-05050D02*
X12203Y-05055D01*
X12055Y-05202D01*
X11999Y-05335D01*
X11945Y-05203D01*
X11798Y-05055D01*
X11785Y-05050D01*
X12215Y-05050D01*
G54D10*
G36*
X13200Y-06626D02*
X12876Y-06950D01*
X12374Y-06950D01*
X12349Y-06924D01*
X12349Y-06526D01*
X12311Y-06434D01*
X12275Y-06398D01*
X12680Y-05993D01*
X12797Y-05945D01*
X12945Y-05798D01*
X13000Y-05664D01*
X13055Y-05797D01*
X13200Y-05942D01*
X13200Y-06626D01*
X13200Y-06626D01*
G37*
G54D20*
X13200Y-06626D02*
X12876Y-06950D01*
X12374Y-06950D01*
X12349Y-06924D01*
X12349Y-06526D01*
X12311Y-06434D01*
X12275Y-06398D01*
X12680Y-05993D01*
X12797Y-05945D01*
X12945Y-05798D01*
X13000Y-05664D01*
X13055Y-05797D01*
X13200Y-05942D01*
X13200Y-06626D01*
G54D10*
G36*
X13200Y-10057D02*
X13055Y-10202D01*
X12999Y-10335D01*
X12945Y-10203D01*
X12798Y-10055D01*
X12605Y-09975D01*
X12399Y-09975D01*
X12212Y-09788D01*
X12175Y-09763D01*
X12241Y-09736D01*
X12311Y-09666D01*
X12349Y-09575D01*
X12349Y-09476D01*
X12349Y-09075D01*
X12374Y-09050D01*
X12876Y-09050D01*
X13200Y-09374D01*
X13200Y-10057D01*
X13200Y-10057D01*
G37*
G54D20*
X13200Y-10057D02*
X13055Y-10202D01*
X12999Y-10335D01*
X12945Y-10203D01*
X12798Y-10055D01*
X12605Y-09975D01*
X12399Y-09975D01*
X12212Y-09788D01*
X12175Y-09763D01*
X12241Y-09736D01*
X12311Y-09666D01*
X12349Y-09575D01*
X12349Y-09476D01*
X12349Y-09075D01*
X12374Y-09050D01*
X12876Y-09050D01*
X13200Y-09374D01*
X13200Y-10057D01*
G54D10*
G36*
X13214Y-10950D02*
X12784Y-10950D01*
X12797Y-10945D01*
X12945Y-10798D01*
X13000Y-10664D01*
X13055Y-10797D01*
X13202Y-10945D01*
X13214Y-10950D01*
X13214Y-10950D01*
G37*
G54D20*
X13214Y-10950D02*
X12784Y-10950D01*
X12797Y-10945D01*
X12945Y-10798D01*
X13000Y-10664D01*
X13055Y-10797D01*
X13202Y-10945D01*
X13214Y-10950D01*
G54D10*
G36*
X13215Y-05050D02*
X13203Y-05055D01*
X13055Y-05202D01*
X12999Y-05335D01*
X12945Y-05203D01*
X12798Y-05055D01*
X12785Y-05050D01*
X13215Y-05050D01*
X13215Y-05050D01*
G37*
G54D20*
X13215Y-05050D02*
X13203Y-05055D01*
X13055Y-05202D01*
X12999Y-05335D01*
X12945Y-05203D01*
X12798Y-05055D01*
X12785Y-05050D01*
X13215Y-05050D01*
G54D10*
G36*
X13950Y-05215D02*
X13945Y-05203D01*
X13798Y-05055D01*
X13785Y-05050D01*
X13950Y-05050D01*
X13950Y-05215D01*
X13950Y-05215D01*
G37*
G54D20*
X13950Y-05215D02*
X13945Y-05203D01*
X13798Y-05055D01*
X13785Y-05050D01*
X13950Y-05050D01*
X13950Y-05215D01*
G54D10*
G36*
X13950Y-10215D02*
X13945Y-10203D01*
X13800Y-10057D01*
X13800Y-09250D01*
X13777Y-09135D01*
X13712Y-09038D01*
X13212Y-08538D01*
X13115Y-08473D01*
X13000Y-08450D01*
X12250Y-08450D01*
X12135Y-08473D01*
X12037Y-08538D01*
X11788Y-08788D01*
X11737Y-08862D01*
X11650Y-08826D01*
X11551Y-08826D01*
X11351Y-08826D01*
X11259Y-08864D01*
X11250Y-08873D01*
X11241Y-08864D01*
X11150Y-08826D01*
X11051Y-08826D01*
X10851Y-08826D01*
X10800Y-08847D01*
X10800Y-08301D01*
X10860Y-08241D01*
X10925Y-08085D01*
X10925Y-07916D01*
X10861Y-07760D01*
X10741Y-07640D01*
X10585Y-07575D01*
X10416Y-07575D01*
X10260Y-07639D01*
X10140Y-07759D01*
X10075Y-07915D01*
X10075Y-08084D01*
X10139Y-08240D01*
X10200Y-08301D01*
X10200Y-08846D01*
X10150Y-08826D01*
X10051Y-08826D01*
X09851Y-08826D01*
X09759Y-08864D01*
X09750Y-08873D01*
X09741Y-08864D01*
X09650Y-08826D01*
X09551Y-08826D01*
X09351Y-08826D01*
X09300Y-08847D01*
X09300Y-08750D01*
X09277Y-08635D01*
X09212Y-08538D01*
X09212Y-08537D01*
X08962Y-08288D01*
X08865Y-08223D01*
X08750Y-08200D01*
X07942Y-08200D01*
X07798Y-08055D01*
X07664Y-07999D01*
X07797Y-07945D01*
X07942Y-07800D01*
X08750Y-07800D01*
X08865Y-07777D01*
X08962Y-07712D01*
X09212Y-07463D01*
X09212Y-07462D01*
X09277Y-07365D01*
X09299Y-07252D01*
X09350Y-07274D01*
X09449Y-07274D01*
X09649Y-07274D01*
X09741Y-07236D01*
X09750Y-07227D01*
X09759Y-07236D01*
X09850Y-07274D01*
X09949Y-07274D01*
X10149Y-07274D01*
X10241Y-07236D01*
X10250Y-07227D01*
X10259Y-07236D01*
X10350Y-07274D01*
X10449Y-07274D01*
X10649Y-07274D01*
X10741Y-07236D01*
X10750Y-07227D01*
X10759Y-07236D01*
X10850Y-07274D01*
X10949Y-07274D01*
X11149Y-07274D01*
X11241Y-07236D01*
X11250Y-07227D01*
X11259Y-07236D01*
X11350Y-07274D01*
X11449Y-07274D01*
X11649Y-07274D01*
X11741Y-07236D01*
X11750Y-07227D01*
X11759Y-07236D01*
X11849Y-07273D01*
X11850Y-07274D01*
X12037Y-07462D01*
X12038Y-07462D01*
X12135Y-07527D01*
X12250Y-07550D01*
X13000Y-07550D01*
X13115Y-07527D01*
X13212Y-07462D01*
X13712Y-06962D01*
X13777Y-06865D01*
X13800Y-06750D01*
X13800Y-05942D01*
X13945Y-05798D01*
X13950Y-05785D01*
X13950Y-10215D01*
X13950Y-10215D01*
G37*
G54D20*
X13950Y-10215D02*
X13945Y-10203D01*
X13800Y-10057D01*
X13800Y-09250D01*
X13777Y-09135D01*
X13712Y-09038D01*
X13212Y-08538D01*
X13115Y-08473D01*
X13000Y-08450D01*
X12250Y-08450D01*
X12135Y-08473D01*
X12037Y-08538D01*
X11788Y-08788D01*
X11737Y-08862D01*
X11650Y-08826D01*
X11551Y-08826D01*
X11351Y-08826D01*
X11259Y-08864D01*
X11250Y-08873D01*
X11241Y-08864D01*
X11150Y-08826D01*
X11051Y-08826D01*
X10851Y-08826D01*
X10800Y-08847D01*
X10800Y-08301D01*
X10860Y-08241D01*
X10925Y-08085D01*
X10925Y-07916D01*
X10861Y-07760D01*
X10741Y-07640D01*
X10585Y-07575D01*
X10416Y-07575D01*
X10260Y-07639D01*
X10140Y-07759D01*
X10075Y-07915D01*
X10075Y-08084D01*
X10139Y-08240D01*
X10200Y-08301D01*
X10200Y-08846D01*
X10150Y-08826D01*
X10051Y-08826D01*
X09851Y-08826D01*
X09759Y-08864D01*
X09750Y-08873D01*
X09741Y-08864D01*
X09650Y-08826D01*
X09551Y-08826D01*
X09351Y-08826D01*
X09300Y-08847D01*
X09300Y-08750D01*
X09277Y-08635D01*
X09212Y-08538D01*
X09212Y-08537D01*
X08962Y-08288D01*
X08865Y-08223D01*
X08750Y-08200D01*
X07942Y-08200D01*
X07798Y-08055D01*
X07664Y-07999D01*
X07797Y-07945D01*
X07942Y-07800D01*
X08750Y-07800D01*
X08865Y-07777D01*
X08962Y-07712D01*
X09212Y-07463D01*
X09212Y-07462D01*
X09277Y-07365D01*
X09299Y-07252D01*
X09350Y-07274D01*
X09449Y-07274D01*
X09649Y-07274D01*
X09741Y-07236D01*
X09750Y-07227D01*
X09759Y-07236D01*
X09850Y-07274D01*
X09949Y-07274D01*
X10149Y-07274D01*
X10241Y-07236D01*
X10250Y-07227D01*
X10259Y-07236D01*
X10350Y-07274D01*
X10449Y-07274D01*
X10649Y-07274D01*
X10741Y-07236D01*
X10750Y-07227D01*
X10759Y-07236D01*
X10850Y-07274D01*
X10949Y-07274D01*
X11149Y-07274D01*
X11241Y-07236D01*
X11250Y-07227D01*
X11259Y-07236D01*
X11350Y-07274D01*
X11449Y-07274D01*
X11649Y-07274D01*
X11741Y-07236D01*
X11750Y-07227D01*
X11759Y-07236D01*
X11849Y-07273D01*
X11850Y-07274D01*
X12037Y-07462D01*
X12038Y-07462D01*
X12135Y-07527D01*
X12250Y-07550D01*
X13000Y-07550D01*
X13115Y-07527D01*
X13212Y-07462D01*
X13712Y-06962D01*
X13777Y-06865D01*
X13800Y-06750D01*
X13800Y-05942D01*
X13945Y-05798D01*
X13950Y-05785D01*
X13950Y-10215D01*
G54D10*
G36*
X13950Y-10950D02*
X13784Y-10950D01*
X13797Y-10945D01*
X13945Y-10798D01*
X13950Y-10785D01*
X13950Y-10950D01*
X13950Y-10950D01*
G37*
G54D20*
X13950Y-10950D02*
X13784Y-10950D01*
X13797Y-10945D01*
X13945Y-10798D01*
X13950Y-10785D01*
X13950Y-10950D01*
G54D10*
G36*
X15715Y-05050D02*
X15703Y-05055D01*
X15555Y-05202D01*
X15524Y-05276D01*
X15524Y-05176D01*
X15486Y-05084D01*
X15452Y-05050D01*
X15715Y-05050D01*
X15715Y-05050D01*
G37*
G54D20*
X15715Y-05050D02*
X15703Y-05055D01*
X15555Y-05202D01*
X15524Y-05276D01*
X15524Y-05176D01*
X15486Y-05084D01*
X15452Y-05050D01*
X15715Y-05050D01*
G54D10*
G36*
X16715Y-05050D02*
X16703Y-05055D01*
X16555Y-05202D01*
X16499Y-05335D01*
X16445Y-05203D01*
X16298Y-05055D01*
X16285Y-05050D01*
X16715Y-05050D01*
X16715Y-05050D01*
G37*
G54D20*
X16715Y-05050D02*
X16703Y-05055D01*
X16555Y-05202D01*
X16499Y-05335D01*
X16445Y-05203D01*
X16298Y-05055D01*
X16285Y-05050D01*
X16715Y-05050D01*
G54D10*
G36*
X16835Y-08000D02*
X16703Y-08055D01*
X16590Y-08166D01*
X16300Y-07876D01*
X16300Y-05942D01*
X16445Y-05798D01*
X16500Y-05664D01*
X16555Y-05797D01*
X16700Y-05942D01*
X16700Y-07057D01*
X16555Y-07202D01*
X16475Y-07395D01*
X16475Y-07604D01*
X16555Y-07797D01*
X16702Y-07945D01*
X16835Y-08000D01*
X16835Y-08000D01*
G37*
G54D20*
X16835Y-08000D02*
X16703Y-08055D01*
X16590Y-08166D01*
X16300Y-07876D01*
X16300Y-05942D01*
X16445Y-05798D01*
X16500Y-05664D01*
X16555Y-05797D01*
X16700Y-05942D01*
X16700Y-07057D01*
X16555Y-07202D01*
X16475Y-07395D01*
X16475Y-07604D01*
X16555Y-07797D01*
X16702Y-07945D01*
X16835Y-08000D01*
G54D10*
G36*
X17715Y-05050D02*
X17703Y-05055D01*
X17555Y-05202D01*
X17499Y-05335D01*
X17445Y-05203D01*
X17298Y-05055D01*
X17285Y-05050D01*
X17715Y-05050D01*
X17715Y-05050D01*
G37*
G54D20*
X17715Y-05050D02*
X17703Y-05055D01*
X17555Y-05202D01*
X17499Y-05335D01*
X17445Y-05203D01*
X17298Y-05055D01*
X17285Y-05050D01*
X17715Y-05050D01*
G54D10*
G36*
X18401Y-06326D02*
X18351Y-06326D01*
X18259Y-06364D01*
X18189Y-06434D01*
X18151Y-06525D01*
X18151Y-06624D01*
X18151Y-07074D01*
X18180Y-07145D01*
X18125Y-07200D01*
X17442Y-07200D01*
X17300Y-07057D01*
X17300Y-05942D01*
X17445Y-05798D01*
X17500Y-05664D01*
X17555Y-05797D01*
X17702Y-05945D01*
X17895Y-06025D01*
X18100Y-06025D01*
X18401Y-06326D01*
X18401Y-06326D01*
G37*
G54D20*
X18401Y-06326D02*
X18351Y-06326D01*
X18259Y-06364D01*
X18189Y-06434D01*
X18151Y-06525D01*
X18151Y-06624D01*
X18151Y-07074D01*
X18180Y-07145D01*
X18125Y-07200D01*
X17442Y-07200D01*
X17300Y-07057D01*
X17300Y-05942D01*
X17445Y-05798D01*
X17500Y-05664D01*
X17555Y-05797D01*
X17702Y-05945D01*
X17895Y-06025D01*
X18100Y-06025D01*
X18401Y-06326D01*
G54D10*
G36*
X18700Y-09976D02*
X18676Y-09976D01*
X18584Y-10014D01*
X18514Y-10084D01*
X18476Y-10175D01*
X18476Y-10274D01*
X18476Y-10824D01*
X18514Y-10916D01*
X18548Y-10950D01*
X14550Y-10950D01*
X14550Y-05952D01*
X14584Y-05986D01*
X14675Y-06024D01*
X14774Y-06024D01*
X15324Y-06024D01*
X15416Y-05986D01*
X15486Y-05916D01*
X15524Y-05825D01*
X15524Y-05726D01*
X15524Y-05722D01*
X15555Y-05797D01*
X15700Y-05942D01*
X15700Y-08000D01*
X15723Y-08115D01*
X15788Y-08212D01*
X16288Y-08712D01*
X16385Y-08777D01*
X16500Y-08800D01*
X16557Y-08800D01*
X16702Y-08945D01*
X16895Y-09025D01*
X17104Y-09025D01*
X17297Y-08945D01*
X17442Y-08800D01*
X18125Y-08800D01*
X18200Y-08874D01*
X18200Y-08923D01*
X18189Y-08934D01*
X18151Y-09025D01*
X18151Y-09124D01*
X18151Y-09574D01*
X18189Y-09666D01*
X18259Y-09736D01*
X18350Y-09774D01*
X18449Y-09774D01*
X18649Y-09774D01*
X18700Y-09752D01*
X18700Y-09976D01*
X18700Y-09976D01*
G37*
G54D20*
X18700Y-09976D02*
X18676Y-09976D01*
X18584Y-10014D01*
X18514Y-10084D01*
X18476Y-10175D01*
X18476Y-10274D01*
X18476Y-10824D01*
X18514Y-10916D01*
X18548Y-10950D01*
X14550Y-10950D01*
X14550Y-05952D01*
X14584Y-05986D01*
X14675Y-06024D01*
X14774Y-06024D01*
X15324Y-06024D01*
X15416Y-05986D01*
X15486Y-05916D01*
X15524Y-05825D01*
X15524Y-05726D01*
X15524Y-05722D01*
X15555Y-05797D01*
X15700Y-05942D01*
X15700Y-08000D01*
X15723Y-08115D01*
X15788Y-08212D01*
X16288Y-08712D01*
X16385Y-08777D01*
X16500Y-08800D01*
X16557Y-08800D01*
X16702Y-08945D01*
X16895Y-09025D01*
X17104Y-09025D01*
X17297Y-08945D01*
X17442Y-08800D01*
X18125Y-08800D01*
X18200Y-08874D01*
X18200Y-08923D01*
X18189Y-08934D01*
X18151Y-09025D01*
X18151Y-09124D01*
X18151Y-09574D01*
X18189Y-09666D01*
X18259Y-09736D01*
X18350Y-09774D01*
X18449Y-09774D01*
X18649Y-09774D01*
X18700Y-09752D01*
X18700Y-09976D01*
G54D10*
G36*
X18715Y-05050D02*
X18703Y-05055D01*
X18555Y-05202D01*
X18499Y-05335D01*
X18445Y-05203D01*
X18298Y-05055D01*
X18285Y-05050D01*
X18715Y-05050D01*
X18715Y-05050D01*
G37*
G54D20*
X18715Y-05050D02*
X18703Y-05055D01*
X18555Y-05202D01*
X18499Y-05335D01*
X18445Y-05203D01*
X18298Y-05055D01*
X18285Y-05050D01*
X18715Y-05050D01*
G54D10*
G36*
X19302Y-09976D02*
X19300Y-09976D01*
X19300Y-09974D01*
X19302Y-09976D01*
X19302Y-09976D01*
G37*
G54D20*
X19302Y-09976D02*
X19300Y-09976D01*
X19300Y-09974D01*
X19302Y-09976D01*
G54D10*
G36*
X19547Y-10221D02*
X19524Y-10276D01*
X19524Y-10198D01*
X19547Y-10221D01*
X19547Y-10221D01*
G37*
G54D20*
X19547Y-10221D02*
X19524Y-10276D01*
X19524Y-10198D01*
X19547Y-10221D01*
G54D10*
G36*
X19548Y-05050D02*
X19514Y-05084D01*
X19476Y-05175D01*
X19476Y-05274D01*
X19476Y-05277D01*
X19445Y-05203D01*
X19298Y-05055D01*
X19285Y-05050D01*
X19548Y-05050D01*
X19548Y-05050D01*
G37*
G54D20*
X19548Y-05050D02*
X19514Y-05084D01*
X19476Y-05175D01*
X19476Y-05274D01*
X19476Y-05277D01*
X19445Y-05203D01*
X19298Y-05055D01*
X19285Y-05050D01*
X19548Y-05050D01*
G54D10*
G36*
X19700Y-06276D02*
X19333Y-05909D01*
X19445Y-05798D01*
X19476Y-05723D01*
X19476Y-05824D01*
X19514Y-05916D01*
X19584Y-05986D01*
X19675Y-06024D01*
X19700Y-06024D01*
X19700Y-06276D01*
X19700Y-06276D01*
G37*
G54D20*
X19700Y-06276D02*
X19333Y-05909D01*
X19445Y-05798D01*
X19476Y-05723D01*
X19476Y-05824D01*
X19514Y-05916D01*
X19584Y-05986D01*
X19675Y-06024D01*
X19700Y-06024D01*
X19700Y-06276D01*
G54D10*
G36*
X19714Y-10950D02*
X19452Y-10950D01*
X19486Y-10916D01*
X19524Y-10825D01*
X19524Y-10726D01*
X19524Y-10722D01*
X19555Y-10797D01*
X19702Y-10945D01*
X19714Y-10950D01*
X19714Y-10950D01*
G37*
G54D20*
X19714Y-10950D02*
X19452Y-10950D01*
X19486Y-10916D01*
X19524Y-10825D01*
X19524Y-10726D01*
X19524Y-10722D01*
X19555Y-10797D01*
X19702Y-10945D01*
X19714Y-10950D01*
G54D10*
G36*
X20203Y-10015D02*
X20180Y-10006D01*
X19948Y-09774D01*
X19949Y-09774D01*
X20149Y-09774D01*
X20200Y-09752D01*
X20200Y-10000D01*
X20203Y-10015D01*
X20203Y-10015D01*
G37*
G54D20*
X20203Y-10015D02*
X20180Y-10006D01*
X19948Y-09774D01*
X19949Y-09774D01*
X20149Y-09774D01*
X20200Y-09752D01*
X20200Y-10000D01*
X20203Y-10015D01*
G54D10*
G36*
X20302Y-06024D02*
X20300Y-06026D01*
X20300Y-06024D01*
X20302Y-06024D01*
X20302Y-06024D01*
G37*
G54D20*
X20302Y-06024D02*
X20300Y-06026D01*
X20300Y-06024D01*
X20302Y-06024D01*
G54D10*
G36*
X20547Y-05778D02*
X20524Y-05802D01*
X20524Y-05726D01*
X20524Y-05722D01*
X20547Y-05778D01*
X20547Y-05778D01*
G37*
G54D20*
X20547Y-05778D02*
X20524Y-05802D01*
X20524Y-05726D01*
X20524Y-05722D01*
X20547Y-05778D01*
G54D10*
G36*
X20714Y-10950D02*
X20284Y-10950D01*
X20297Y-10945D01*
X20445Y-10798D01*
X20500Y-10664D01*
X20555Y-10797D01*
X20702Y-10945D01*
X20714Y-10950D01*
X20714Y-10950D01*
G37*
G54D20*
X20714Y-10950D02*
X20284Y-10950D01*
X20297Y-10945D01*
X20445Y-10798D01*
X20500Y-10664D01*
X20555Y-10797D01*
X20702Y-10945D01*
X20714Y-10950D01*
G54D10*
G36*
X20715Y-05050D02*
X20703Y-05055D01*
X20555Y-05202D01*
X20524Y-05276D01*
X20524Y-05176D01*
X20486Y-05084D01*
X20452Y-05050D01*
X20715Y-05050D01*
X20715Y-05050D01*
G37*
G54D20*
X20715Y-05050D02*
X20703Y-05055D01*
X20555Y-05202D01*
X20524Y-05276D01*
X20524Y-05176D01*
X20486Y-05084D01*
X20452Y-05050D01*
X20715Y-05050D01*
G54D10*
G36*
X21547Y-05778D02*
X21376Y-05950D01*
X21284Y-05950D01*
X21297Y-05945D01*
X21445Y-05798D01*
X21500Y-05664D01*
X21547Y-05778D01*
X21547Y-05778D01*
G37*
G54D20*
X21547Y-05778D02*
X21376Y-05950D01*
X21284Y-05950D01*
X21297Y-05945D01*
X21445Y-05798D01*
X21500Y-05664D01*
X21547Y-05778D01*
G54D10*
G36*
X21714Y-10950D02*
X21284Y-10950D01*
X21297Y-10945D01*
X21445Y-10798D01*
X21500Y-10664D01*
X21555Y-10797D01*
X21702Y-10945D01*
X21714Y-10950D01*
X21714Y-10950D01*
G37*
G54D20*
X21714Y-10950D02*
X21284Y-10950D01*
X21297Y-10945D01*
X21445Y-10798D01*
X21500Y-10664D01*
X21555Y-10797D01*
X21702Y-10945D01*
X21714Y-10950D01*
G54D10*
G36*
X21715Y-05050D02*
X21703Y-05055D01*
X21555Y-05202D01*
X21499Y-05335D01*
X21445Y-05203D01*
X21298Y-05055D01*
X21285Y-05050D01*
X21715Y-05050D01*
X21715Y-05050D01*
G37*
G54D20*
X21715Y-05050D02*
X21703Y-05055D01*
X21555Y-05202D01*
X21499Y-05335D01*
X21445Y-05203D01*
X21298Y-05055D01*
X21285Y-05050D01*
X21715Y-05050D01*
G54D10*
G36*
X22700Y-06626D02*
X22376Y-06950D01*
X21874Y-06950D01*
X21849Y-06924D01*
X21849Y-06526D01*
X21811Y-06434D01*
X21775Y-06398D01*
X22180Y-05993D01*
X22297Y-05945D01*
X22445Y-05798D01*
X22500Y-05664D01*
X22555Y-05797D01*
X22700Y-05942D01*
X22700Y-06626D01*
X22700Y-06626D01*
G37*
G54D20*
X22700Y-06626D02*
X22376Y-06950D01*
X21874Y-06950D01*
X21849Y-06924D01*
X21849Y-06526D01*
X21811Y-06434D01*
X21775Y-06398D01*
X22180Y-05993D01*
X22297Y-05945D01*
X22445Y-05798D01*
X22500Y-05664D01*
X22555Y-05797D01*
X22700Y-05942D01*
X22700Y-06626D01*
G54D10*
G36*
X22700Y-10057D02*
X22555Y-10202D01*
X22499Y-10335D01*
X22445Y-10203D01*
X22298Y-10055D01*
X22105Y-09975D01*
X21899Y-09975D01*
X21712Y-09788D01*
X21675Y-09763D01*
X21741Y-09736D01*
X21811Y-09666D01*
X21849Y-09575D01*
X21849Y-09476D01*
X21849Y-09075D01*
X21874Y-09050D01*
X22376Y-09050D01*
X22700Y-09374D01*
X22700Y-10057D01*
X22700Y-10057D01*
G37*
G54D20*
X22700Y-10057D02*
X22555Y-10202D01*
X22499Y-10335D01*
X22445Y-10203D01*
X22298Y-10055D01*
X22105Y-09975D01*
X21899Y-09975D01*
X21712Y-09788D01*
X21675Y-09763D01*
X21741Y-09736D01*
X21811Y-09666D01*
X21849Y-09575D01*
X21849Y-09476D01*
X21849Y-09075D01*
X21874Y-09050D01*
X22376Y-09050D01*
X22700Y-09374D01*
X22700Y-10057D01*
G54D10*
G36*
X22714Y-10950D02*
X22284Y-10950D01*
X22297Y-10945D01*
X22445Y-10798D01*
X22500Y-10664D01*
X22555Y-10797D01*
X22702Y-10945D01*
X22714Y-10950D01*
X22714Y-10950D01*
G37*
G54D20*
X22714Y-10950D02*
X22284Y-10950D01*
X22297Y-10945D01*
X22445Y-10798D01*
X22500Y-10664D01*
X22555Y-10797D01*
X22702Y-10945D01*
X22714Y-10950D01*
G54D10*
G36*
X22715Y-05050D02*
X22703Y-05055D01*
X22555Y-05202D01*
X22499Y-05335D01*
X22445Y-05203D01*
X22298Y-05055D01*
X22285Y-05050D01*
X22715Y-05050D01*
X22715Y-05050D01*
G37*
G54D20*
X22715Y-05050D02*
X22703Y-05055D01*
X22555Y-05202D01*
X22499Y-05335D01*
X22445Y-05203D01*
X22298Y-05055D01*
X22285Y-05050D01*
X22715Y-05050D01*
G54D10*
G36*
X23297Y-05054D02*
X23285Y-05050D01*
X23297Y-05050D01*
X23297Y-05054D01*
X23297Y-05054D01*
G37*
G54D20*
X23297Y-05054D02*
X23285Y-05050D01*
X23297Y-05050D01*
X23297Y-05054D01*
G54D10*
G36*
X23297Y-09235D02*
X23277Y-09135D01*
X23212Y-09038D01*
X22712Y-08538D01*
X22615Y-08473D01*
X22500Y-08450D01*
X21750Y-08450D01*
X21635Y-08473D01*
X21537Y-08538D01*
X21288Y-08788D01*
X21237Y-08862D01*
X21150Y-08826D01*
X21051Y-08826D01*
X20851Y-08826D01*
X20759Y-08864D01*
X20750Y-08873D01*
X20741Y-08864D01*
X20650Y-08826D01*
X20551Y-08826D01*
X20351Y-08826D01*
X20300Y-08847D01*
X20300Y-08301D01*
X20360Y-08241D01*
X20425Y-08085D01*
X20425Y-07916D01*
X20361Y-07760D01*
X20241Y-07640D01*
X20085Y-07575D01*
X19916Y-07575D01*
X19760Y-07639D01*
X19640Y-07759D01*
X19575Y-07915D01*
X19575Y-08084D01*
X19639Y-08240D01*
X19700Y-08301D01*
X19700Y-08846D01*
X19650Y-08826D01*
X19551Y-08826D01*
X19351Y-08826D01*
X19259Y-08864D01*
X19250Y-08873D01*
X19241Y-08864D01*
X19150Y-08826D01*
X19051Y-08826D01*
X18851Y-08826D01*
X18800Y-08847D01*
X18800Y-08750D01*
X18777Y-08635D01*
X18712Y-08538D01*
X18712Y-08537D01*
X18462Y-08288D01*
X18365Y-08223D01*
X18250Y-08200D01*
X17442Y-08200D01*
X17298Y-08055D01*
X17164Y-07999D01*
X17297Y-07945D01*
X17442Y-07800D01*
X18250Y-07800D01*
X18365Y-07777D01*
X18462Y-07712D01*
X18712Y-07463D01*
X18712Y-07462D01*
X18777Y-07365D01*
X18799Y-07252D01*
X18850Y-07274D01*
X18949Y-07274D01*
X19149Y-07274D01*
X19241Y-07236D01*
X19250Y-07227D01*
X19259Y-07236D01*
X19350Y-07274D01*
X19449Y-07274D01*
X19649Y-07274D01*
X19741Y-07236D01*
X19750Y-07227D01*
X19759Y-07236D01*
X19850Y-07274D01*
X19949Y-07274D01*
X20149Y-07274D01*
X20241Y-07236D01*
X20250Y-07227D01*
X20259Y-07236D01*
X20350Y-07274D01*
X20449Y-07274D01*
X20649Y-07274D01*
X20741Y-07236D01*
X20750Y-07227D01*
X20759Y-07236D01*
X20850Y-07274D01*
X20949Y-07274D01*
X21149Y-07274D01*
X21241Y-07236D01*
X21250Y-07227D01*
X21259Y-07236D01*
X21349Y-07273D01*
X21350Y-07274D01*
X21537Y-07462D01*
X21538Y-07462D01*
X21635Y-07527D01*
X21750Y-07550D01*
X22500Y-07550D01*
X22615Y-07527D01*
X22712Y-07462D01*
X23212Y-06962D01*
X23277Y-06865D01*
X23297Y-06765D01*
X23297Y-09235D01*
X23297Y-09235D01*
G37*
G54D20*
X23297Y-09235D02*
X23277Y-09135D01*
X23212Y-09038D01*
X22712Y-08538D01*
X22615Y-08473D01*
X22500Y-08450D01*
X21750Y-08450D01*
X21635Y-08473D01*
X21537Y-08538D01*
X21288Y-08788D01*
X21237Y-08862D01*
X21150Y-08826D01*
X21051Y-08826D01*
X20851Y-08826D01*
X20759Y-08864D01*
X20750Y-08873D01*
X20741Y-08864D01*
X20650Y-08826D01*
X20551Y-08826D01*
X20351Y-08826D01*
X20300Y-08847D01*
X20300Y-08301D01*
X20360Y-08241D01*
X20425Y-08085D01*
X20425Y-07916D01*
X20361Y-07760D01*
X20241Y-07640D01*
X20085Y-07575D01*
X19916Y-07575D01*
X19760Y-07639D01*
X19640Y-07759D01*
X19575Y-07915D01*
X19575Y-08084D01*
X19639Y-08240D01*
X19700Y-08301D01*
X19700Y-08846D01*
X19650Y-08826D01*
X19551Y-08826D01*
X19351Y-08826D01*
X19259Y-08864D01*
X19250Y-08873D01*
X19241Y-08864D01*
X19150Y-08826D01*
X19051Y-08826D01*
X18851Y-08826D01*
X18800Y-08847D01*
X18800Y-08750D01*
X18777Y-08635D01*
X18712Y-08538D01*
X18712Y-08537D01*
X18462Y-08288D01*
X18365Y-08223D01*
X18250Y-08200D01*
X17442Y-08200D01*
X17298Y-08055D01*
X17164Y-07999D01*
X17297Y-07945D01*
X17442Y-07800D01*
X18250Y-07800D01*
X18365Y-07777D01*
X18462Y-07712D01*
X18712Y-07463D01*
X18712Y-07462D01*
X18777Y-07365D01*
X18799Y-07252D01*
X18850Y-07274D01*
X18949Y-07274D01*
X19149Y-07274D01*
X19241Y-07236D01*
X19250Y-07227D01*
X19259Y-07236D01*
X19350Y-07274D01*
X19449Y-07274D01*
X19649Y-07274D01*
X19741Y-07236D01*
X19750Y-07227D01*
X19759Y-07236D01*
X19850Y-07274D01*
X19949Y-07274D01*
X20149Y-07274D01*
X20241Y-07236D01*
X20250Y-07227D01*
X20259Y-07236D01*
X20350Y-07274D01*
X20449Y-07274D01*
X20649Y-07274D01*
X20741Y-07236D01*
X20750Y-07227D01*
X20759Y-07236D01*
X20850Y-07274D01*
X20949Y-07274D01*
X21149Y-07274D01*
X21241Y-07236D01*
X21250Y-07227D01*
X21259Y-07236D01*
X21349Y-07273D01*
X21350Y-07274D01*
X21537Y-07462D01*
X21538Y-07462D01*
X21635Y-07527D01*
X21750Y-07550D01*
X22500Y-07550D01*
X22615Y-07527D01*
X22712Y-07462D01*
X23212Y-06962D01*
X23277Y-06865D01*
X23297Y-06765D01*
X23297Y-09235D01*
G54D10*
G36*
X23297Y-10950D02*
X23284Y-10950D01*
X23297Y-10945D01*
X23297Y-10950D01*
X23297Y-10950D01*
G37*
G54D20*
X23297Y-10950D02*
X23284Y-10950D01*
X23297Y-10945D01*
X23297Y-10950D01*
G54D10*
G36*
X05145Y-23888D02*
X05050Y-23888D01*
X05050Y-23784D01*
X05055Y-23797D01*
X05145Y-23888D01*
X05145Y-23888D01*
G37*
G54D20*
X05145Y-23888D02*
X05050Y-23888D01*
X05050Y-23784D01*
X05055Y-23797D01*
X05145Y-23888D01*
G54D10*
G36*
X05215Y-11550D02*
X05203Y-11555D01*
X05055Y-11702D01*
X05050Y-11714D01*
X05050Y-11550D01*
X05215Y-11550D01*
X05215Y-11550D01*
G37*
G54D20*
X05215Y-11550D02*
X05203Y-11555D01*
X05055Y-11702D01*
X05050Y-11714D01*
X05050Y-11550D01*
X05215Y-11550D01*
G54D10*
G36*
X05276Y-16476D02*
X05176Y-16476D01*
X05084Y-16514D01*
X05050Y-16548D01*
X05050Y-16284D01*
X05055Y-16297D01*
X05202Y-16445D01*
X05276Y-16476D01*
X05276Y-16476D01*
G37*
G54D20*
X05276Y-16476D02*
X05176Y-16476D01*
X05084Y-16514D01*
X05050Y-16548D01*
X05050Y-16284D01*
X05055Y-16297D01*
X05202Y-16445D01*
X05276Y-16476D01*
G54D10*
G36*
X05335Y-12500D02*
X05203Y-12555D01*
X05055Y-12702D01*
X05050Y-12714D01*
X05050Y-12284D01*
X05055Y-12297D01*
X05202Y-12445D01*
X05335Y-12500D01*
X05335Y-12500D01*
G37*
G54D20*
X05335Y-12500D02*
X05203Y-12555D01*
X05055Y-12702D01*
X05050Y-12714D01*
X05050Y-12284D01*
X05055Y-12297D01*
X05202Y-12445D01*
X05335Y-12500D01*
G54D10*
G36*
X05335Y-13500D02*
X05203Y-13555D01*
X05055Y-13702D01*
X05050Y-13714D01*
X05050Y-13284D01*
X05055Y-13297D01*
X05202Y-13445D01*
X05335Y-13500D01*
X05335Y-13500D01*
G37*
G54D20*
X05335Y-13500D02*
X05203Y-13555D01*
X05055Y-13702D01*
X05050Y-13714D01*
X05050Y-13284D01*
X05055Y-13297D01*
X05202Y-13445D01*
X05335Y-13500D01*
G54D10*
G36*
X05335Y-14500D02*
X05203Y-14555D01*
X05055Y-14702D01*
X05050Y-14714D01*
X05050Y-14284D01*
X05055Y-14297D01*
X05202Y-14445D01*
X05335Y-14500D01*
X05335Y-14500D01*
G37*
G54D20*
X05335Y-14500D02*
X05203Y-14555D01*
X05055Y-14702D01*
X05050Y-14714D01*
X05050Y-14284D01*
X05055Y-14297D01*
X05202Y-14445D01*
X05335Y-14500D01*
G54D10*
G36*
X05335Y-15500D02*
X05203Y-15555D01*
X05055Y-15702D01*
X05050Y-15714D01*
X05050Y-15284D01*
X05055Y-15297D01*
X05202Y-15445D01*
X05335Y-15500D01*
X05335Y-15500D01*
G37*
G54D20*
X05335Y-15500D02*
X05203Y-15555D01*
X05055Y-15702D01*
X05050Y-15714D01*
X05050Y-15284D01*
X05055Y-15297D01*
X05202Y-15445D01*
X05335Y-15500D01*
G54D10*
G36*
X06200Y-14876D02*
X06025Y-15051D01*
X06025Y-14899D01*
X06200Y-14724D01*
X06200Y-14876D01*
X06200Y-14876D01*
G37*
G54D20*
X06200Y-14876D02*
X06025Y-15051D01*
X06025Y-14899D01*
X06200Y-14724D01*
X06200Y-14876D01*
G54D10*
G36*
X06200Y-19126D02*
X05319Y-20006D01*
X05203Y-20055D01*
X05055Y-20202D01*
X05050Y-20214D01*
X05050Y-18702D01*
X05084Y-18736D01*
X05175Y-18774D01*
X05274Y-18774D01*
X05824Y-18774D01*
X05916Y-18736D01*
X05986Y-18666D01*
X06024Y-18575D01*
X06024Y-18476D01*
X06024Y-18472D01*
X06055Y-18547D01*
X06200Y-18692D01*
X06200Y-19126D01*
X06200Y-19126D01*
G37*
G54D20*
X06200Y-19126D02*
X05319Y-20006D01*
X05203Y-20055D01*
X05055Y-20202D01*
X05050Y-20214D01*
X05050Y-18702D01*
X05084Y-18736D01*
X05175Y-18774D01*
X05274Y-18774D01*
X05824Y-18774D01*
X05916Y-18736D01*
X05986Y-18666D01*
X06024Y-18575D01*
X06024Y-18476D01*
X06024Y-18472D01*
X06055Y-18547D01*
X06200Y-18692D01*
X06200Y-19126D01*
G54D10*
G36*
X06525Y-12550D02*
X06025Y-13050D01*
X06025Y-12899D01*
X06374Y-12550D01*
X06525Y-12550D01*
X06525Y-12550D01*
G37*
G54D20*
X06525Y-12550D02*
X06025Y-13050D01*
X06025Y-12899D01*
X06374Y-12550D01*
X06525Y-12550D01*
G54D10*
G36*
X06950Y-17965D02*
X06945Y-17953D01*
X06798Y-17805D01*
X06605Y-17725D01*
X06396Y-17725D01*
X06203Y-17805D01*
X06055Y-17952D01*
X06024Y-18026D01*
X06024Y-17926D01*
X05986Y-17834D01*
X05916Y-17764D01*
X05825Y-17726D01*
X05726Y-17726D01*
X05176Y-17726D01*
X05084Y-17764D01*
X05050Y-17798D01*
X05050Y-17452D01*
X05084Y-17486D01*
X05175Y-17524D01*
X05274Y-17524D01*
X05824Y-17524D01*
X05916Y-17486D01*
X05986Y-17416D01*
X06024Y-17325D01*
X06024Y-17226D01*
X06024Y-16676D01*
X05986Y-16584D01*
X05916Y-16514D01*
X05825Y-16476D01*
X05726Y-16476D01*
X05722Y-16476D01*
X05797Y-16445D01*
X05945Y-16298D01*
X06025Y-16105D01*
X06025Y-15899D01*
X06200Y-15724D01*
X06200Y-16750D01*
X06223Y-16865D01*
X06288Y-16962D01*
X06950Y-17624D01*
X06950Y-17965D01*
X06950Y-17965D01*
G37*
G54D20*
X06950Y-17965D02*
X06945Y-17953D01*
X06798Y-17805D01*
X06605Y-17725D01*
X06396Y-17725D01*
X06203Y-17805D01*
X06055Y-17952D01*
X06024Y-18026D01*
X06024Y-17926D01*
X05986Y-17834D01*
X05916Y-17764D01*
X05825Y-17726D01*
X05726Y-17726D01*
X05176Y-17726D01*
X05084Y-17764D01*
X05050Y-17798D01*
X05050Y-17452D01*
X05084Y-17486D01*
X05175Y-17524D01*
X05274Y-17524D01*
X05824Y-17524D01*
X05916Y-17486D01*
X05986Y-17416D01*
X06024Y-17325D01*
X06024Y-17226D01*
X06024Y-16676D01*
X05986Y-16584D01*
X05916Y-16514D01*
X05825Y-16476D01*
X05726Y-16476D01*
X05722Y-16476D01*
X05797Y-16445D01*
X05945Y-16298D01*
X06025Y-16105D01*
X06025Y-15899D01*
X06200Y-15724D01*
X06200Y-16750D01*
X06223Y-16865D01*
X06288Y-16962D01*
X06950Y-17624D01*
X06950Y-17965D01*
G54D10*
G36*
X07200Y-16699D02*
X07140Y-16759D01*
X07079Y-16904D01*
X06800Y-16625D01*
X06800Y-16599D01*
X06899Y-16599D01*
X07200Y-16599D01*
X07200Y-16699D01*
X07200Y-16699D01*
G37*
G54D20*
X07200Y-16699D02*
X07140Y-16759D01*
X07079Y-16904D01*
X06800Y-16625D01*
X06800Y-16599D01*
X06899Y-16599D01*
X07200Y-16599D01*
X07200Y-16699D01*
G54D10*
G36*
X07867Y-20293D02*
X07785Y-20376D01*
X07780Y-20387D01*
X07561Y-20387D01*
X07550Y-20376D01*
X07550Y-17500D01*
X07535Y-17425D01*
X07584Y-17425D01*
X07700Y-17377D01*
X07700Y-19650D01*
X07719Y-19746D01*
X07701Y-19791D01*
X07701Y-20009D01*
X07785Y-20211D01*
X07867Y-20293D01*
X07867Y-20293D01*
G37*
G54D20*
X07867Y-20293D02*
X07785Y-20376D01*
X07780Y-20387D01*
X07561Y-20387D01*
X07550Y-20376D01*
X07550Y-17500D01*
X07535Y-17425D01*
X07584Y-17425D01*
X07700Y-17377D01*
X07700Y-19650D01*
X07719Y-19746D01*
X07701Y-19791D01*
X07701Y-20009D01*
X07785Y-20211D01*
X07867Y-20293D01*
G54D10*
G36*
X08450Y-16807D02*
X08305Y-16952D01*
X08300Y-16964D01*
X08300Y-16000D01*
X08277Y-15885D01*
X08212Y-15788D01*
X08212Y-15787D01*
X07962Y-15538D01*
X07865Y-15473D01*
X07750Y-15450D01*
X07578Y-15450D01*
X07599Y-15400D01*
X07599Y-15301D01*
X07599Y-15101D01*
X07577Y-15050D01*
X07626Y-15050D01*
X08450Y-15874D01*
X08450Y-16807D01*
X08450Y-16807D01*
G37*
G54D20*
X08450Y-16807D02*
X08305Y-16952D01*
X08300Y-16964D01*
X08300Y-16000D01*
X08277Y-15885D01*
X08212Y-15788D01*
X08212Y-15787D01*
X07962Y-15538D01*
X07865Y-15473D01*
X07750Y-15450D01*
X07578Y-15450D01*
X07599Y-15400D01*
X07599Y-15301D01*
X07599Y-15101D01*
X07577Y-15050D01*
X07626Y-15050D01*
X08450Y-15874D01*
X08450Y-16807D01*
G54D10*
G36*
X08585Y-17750D02*
X08453Y-17805D01*
X08305Y-17952D01*
X08300Y-17964D01*
X08300Y-17534D01*
X08305Y-17547D01*
X08452Y-17695D01*
X08585Y-17750D01*
X08585Y-17750D01*
G37*
G54D20*
X08585Y-17750D02*
X08453Y-17805D01*
X08305Y-17952D01*
X08300Y-17964D01*
X08300Y-17534D01*
X08305Y-17547D01*
X08452Y-17695D01*
X08585Y-17750D01*
G54D10*
G36*
X08867Y-20293D02*
X08785Y-20376D01*
X08750Y-20460D01*
X08715Y-20376D01*
X08632Y-20293D01*
X08715Y-20211D01*
X08750Y-20126D01*
X08785Y-20211D01*
X08867Y-20293D01*
X08867Y-20293D01*
G37*
G54D20*
X08867Y-20293D02*
X08785Y-20376D01*
X08750Y-20460D01*
X08715Y-20376D01*
X08632Y-20293D01*
X08715Y-20211D01*
X08750Y-20126D01*
X08785Y-20211D01*
X08867Y-20293D01*
G54D10*
G36*
X09200Y-17965D02*
X09195Y-17953D01*
X09048Y-17805D01*
X08914Y-17749D01*
X09047Y-17695D01*
X09195Y-17548D01*
X09200Y-17535D01*
X09200Y-17965D01*
X09200Y-17965D01*
G37*
G54D20*
X09200Y-17965D02*
X09195Y-17953D01*
X09048Y-17805D01*
X08914Y-17749D01*
X09047Y-17695D01*
X09195Y-17548D01*
X09200Y-17535D01*
X09200Y-17965D01*
G54D10*
G36*
X09200Y-19125D02*
X09038Y-19288D01*
X08973Y-19385D01*
X08965Y-19424D01*
X08939Y-19435D01*
X08785Y-19589D01*
X08750Y-19673D01*
X08715Y-19589D01*
X08561Y-19435D01*
X08359Y-19351D01*
X08300Y-19351D01*
X08300Y-18534D01*
X08305Y-18547D01*
X08452Y-18695D01*
X08645Y-18775D01*
X08854Y-18775D01*
X09047Y-18695D01*
X09195Y-18548D01*
X09200Y-18535D01*
X09200Y-19125D01*
X09200Y-19125D01*
G37*
G54D20*
X09200Y-19125D02*
X09038Y-19288D01*
X08973Y-19385D01*
X08965Y-19424D01*
X08939Y-19435D01*
X08785Y-19589D01*
X08750Y-19673D01*
X08715Y-19589D01*
X08561Y-19435D01*
X08359Y-19351D01*
X08300Y-19351D01*
X08300Y-18534D01*
X08305Y-18547D01*
X08452Y-18695D01*
X08645Y-18775D01*
X08854Y-18775D01*
X09047Y-18695D01*
X09195Y-18548D01*
X09200Y-18535D01*
X09200Y-19125D01*
G54D10*
G36*
X10448Y-15500D02*
X10439Y-15509D01*
X10401Y-15600D01*
X10401Y-15699D01*
X10401Y-15899D01*
X10422Y-15950D01*
X10000Y-15950D01*
X09885Y-15973D01*
X09788Y-16038D01*
X09288Y-16538D01*
X09223Y-16635D01*
X09200Y-16750D01*
X09200Y-16965D01*
X09195Y-16953D01*
X09050Y-16807D01*
X09050Y-15750D01*
X09027Y-15635D01*
X08962Y-15538D01*
X08262Y-14838D01*
X08360Y-14741D01*
X08425Y-14585D01*
X08425Y-14416D01*
X08361Y-14260D01*
X08241Y-14140D01*
X08085Y-14075D01*
X07999Y-14075D01*
X07962Y-14038D01*
X07865Y-13973D01*
X07750Y-13950D01*
X07578Y-13950D01*
X07599Y-13900D01*
X07599Y-13801D01*
X07599Y-13601D01*
X07561Y-13509D01*
X07552Y-13500D01*
X07561Y-13491D01*
X07599Y-13400D01*
X07599Y-13301D01*
X07599Y-13101D01*
X07561Y-13009D01*
X07552Y-13000D01*
X07561Y-12991D01*
X07599Y-12900D01*
X07599Y-12801D01*
X07599Y-12601D01*
X07561Y-12509D01*
X07552Y-12500D01*
X07561Y-12491D01*
X07599Y-12400D01*
X07599Y-12301D01*
X07599Y-12101D01*
X07561Y-12009D01*
X07552Y-12000D01*
X07561Y-11991D01*
X07599Y-11900D01*
X07599Y-11801D01*
X07599Y-11601D01*
X07577Y-11550D01*
X10421Y-11550D01*
X10401Y-11600D01*
X10401Y-11699D01*
X10401Y-11899D01*
X10439Y-11991D01*
X10448Y-12000D01*
X10439Y-12009D01*
X10401Y-12100D01*
X10401Y-12199D01*
X10401Y-12399D01*
X10439Y-12491D01*
X10448Y-12500D01*
X10439Y-12509D01*
X10401Y-12600D01*
X10401Y-12699D01*
X10401Y-12899D01*
X10439Y-12991D01*
X10448Y-13000D01*
X10439Y-13009D01*
X10401Y-13100D01*
X10401Y-13199D01*
X10401Y-13399D01*
X10439Y-13491D01*
X10448Y-13500D01*
X10439Y-13509D01*
X10401Y-13600D01*
X10401Y-13699D01*
X10401Y-13899D01*
X10422Y-13950D01*
X10250Y-13950D01*
X10135Y-13973D01*
X10037Y-14038D01*
X10000Y-14075D01*
X09916Y-14075D01*
X09760Y-14139D01*
X09640Y-14259D01*
X09575Y-14415D01*
X09575Y-14584D01*
X09639Y-14740D01*
X09737Y-14838D01*
X09500Y-15075D01*
X09416Y-15075D01*
X09260Y-15139D01*
X09140Y-15259D01*
X09075Y-15415D01*
X09075Y-15584D01*
X09139Y-15740D01*
X09259Y-15860D01*
X09415Y-15925D01*
X09584Y-15925D01*
X09740Y-15861D01*
X09860Y-15741D01*
X09925Y-15585D01*
X09925Y-15499D01*
X10374Y-15050D01*
X10421Y-15050D01*
X10401Y-15100D01*
X10401Y-15199D01*
X10401Y-15399D01*
X10439Y-15491D01*
X10448Y-15500D01*
X10448Y-15500D01*
G37*
G54D20*
X10448Y-15500D02*
X10439Y-15509D01*
X10401Y-15600D01*
X10401Y-15699D01*
X10401Y-15899D01*
X10422Y-15950D01*
X10000Y-15950D01*
X09885Y-15973D01*
X09788Y-16038D01*
X09288Y-16538D01*
X09223Y-16635D01*
X09200Y-16750D01*
X09200Y-16965D01*
X09195Y-16953D01*
X09050Y-16807D01*
X09050Y-15750D01*
X09027Y-15635D01*
X08962Y-15538D01*
X08262Y-14838D01*
X08360Y-14741D01*
X08425Y-14585D01*
X08425Y-14416D01*
X08361Y-14260D01*
X08241Y-14140D01*
X08085Y-14075D01*
X07999Y-14075D01*
X07962Y-14038D01*
X07865Y-13973D01*
X07750Y-13950D01*
X07578Y-13950D01*
X07599Y-13900D01*
X07599Y-13801D01*
X07599Y-13601D01*
X07561Y-13509D01*
X07552Y-13500D01*
X07561Y-13491D01*
X07599Y-13400D01*
X07599Y-13301D01*
X07599Y-13101D01*
X07561Y-13009D01*
X07552Y-13000D01*
X07561Y-12991D01*
X07599Y-12900D01*
X07599Y-12801D01*
X07599Y-12601D01*
X07561Y-12509D01*
X07552Y-12500D01*
X07561Y-12491D01*
X07599Y-12400D01*
X07599Y-12301D01*
X07599Y-12101D01*
X07561Y-12009D01*
X07552Y-12000D01*
X07561Y-11991D01*
X07599Y-11900D01*
X07599Y-11801D01*
X07599Y-11601D01*
X07577Y-11550D01*
X10421Y-11550D01*
X10401Y-11600D01*
X10401Y-11699D01*
X10401Y-11899D01*
X10439Y-11991D01*
X10448Y-12000D01*
X10439Y-12009D01*
X10401Y-12100D01*
X10401Y-12199D01*
X10401Y-12399D01*
X10439Y-12491D01*
X10448Y-12500D01*
X10439Y-12509D01*
X10401Y-12600D01*
X10401Y-12699D01*
X10401Y-12899D01*
X10439Y-12991D01*
X10448Y-13000D01*
X10439Y-13009D01*
X10401Y-13100D01*
X10401Y-13199D01*
X10401Y-13399D01*
X10439Y-13491D01*
X10448Y-13500D01*
X10439Y-13509D01*
X10401Y-13600D01*
X10401Y-13699D01*
X10401Y-13899D01*
X10422Y-13950D01*
X10250Y-13950D01*
X10135Y-13973D01*
X10037Y-14038D01*
X10000Y-14075D01*
X09916Y-14075D01*
X09760Y-14139D01*
X09640Y-14259D01*
X09575Y-14415D01*
X09575Y-14584D01*
X09639Y-14740D01*
X09737Y-14838D01*
X09500Y-15075D01*
X09416Y-15075D01*
X09260Y-15139D01*
X09140Y-15259D01*
X09075Y-15415D01*
X09075Y-15584D01*
X09139Y-15740D01*
X09259Y-15860D01*
X09415Y-15925D01*
X09584Y-15925D01*
X09740Y-15861D01*
X09860Y-15741D01*
X09925Y-15585D01*
X09925Y-15499D01*
X10374Y-15050D01*
X10421Y-15050D01*
X10401Y-15100D01*
X10401Y-15199D01*
X10401Y-15399D01*
X10439Y-15491D01*
X10448Y-15500D01*
G54D10*
G36*
X11550Y-17475D02*
X11396Y-17475D01*
X11203Y-17555D01*
X11055Y-17702D01*
X11024Y-17776D01*
X11024Y-17676D01*
X11016Y-17657D01*
X11450Y-17224D01*
X11450Y-17250D01*
X11473Y-17365D01*
X11538Y-17462D01*
X11550Y-17475D01*
X11550Y-17475D01*
G37*
G54D20*
X11550Y-17475D02*
X11396Y-17475D01*
X11203Y-17555D01*
X11055Y-17702D01*
X11024Y-17776D01*
X11024Y-17676D01*
X11016Y-17657D01*
X11450Y-17224D01*
X11450Y-17250D01*
X11473Y-17365D01*
X11538Y-17462D01*
X11550Y-17475D01*
G54D10*
G36*
X11901Y-22855D02*
X11893Y-22863D01*
X11893Y-21906D01*
X11893Y-21595D01*
X11774Y-21308D01*
X11555Y-21088D01*
X11268Y-20969D01*
X10957Y-20969D01*
X10670Y-21088D01*
X10450Y-21307D01*
X10331Y-21594D01*
X10331Y-21905D01*
X10450Y-22192D01*
X10669Y-22412D01*
X10956Y-22531D01*
X11267Y-22531D01*
X11554Y-22412D01*
X11774Y-22193D01*
X11893Y-21906D01*
X11893Y-22863D01*
X11605Y-23151D01*
X07169Y-23151D01*
X07169Y-21906D01*
X07169Y-21595D01*
X07050Y-21308D01*
X06831Y-21088D01*
X06544Y-20969D01*
X06233Y-20969D01*
X05946Y-21088D01*
X05726Y-21307D01*
X05607Y-21594D01*
X05607Y-21905D01*
X05726Y-22192D01*
X05945Y-22412D01*
X06232Y-22531D01*
X06543Y-22531D01*
X06830Y-22412D01*
X07050Y-22193D01*
X07169Y-21906D01*
X07169Y-23151D01*
X05893Y-23151D01*
X05798Y-23055D01*
X05605Y-22975D01*
X05396Y-22975D01*
X05203Y-23055D01*
X05055Y-23202D01*
X05050Y-23214D01*
X05050Y-20784D01*
X05055Y-20797D01*
X05202Y-20945D01*
X05395Y-21025D01*
X05604Y-21025D01*
X05797Y-20945D01*
X05945Y-20798D01*
X06025Y-20605D01*
X06025Y-20396D01*
X05952Y-20221D01*
X06712Y-19462D01*
X06777Y-19365D01*
X06800Y-19250D01*
X06800Y-18692D01*
X06945Y-18548D01*
X06950Y-18535D01*
X06950Y-20500D01*
X06973Y-20615D01*
X07038Y-20712D01*
X07225Y-20899D01*
X07322Y-20964D01*
X07437Y-20987D01*
X07780Y-20987D01*
X07785Y-20998D01*
X07939Y-21152D01*
X08141Y-21236D01*
X08359Y-21236D01*
X08561Y-21152D01*
X08715Y-20998D01*
X08750Y-20913D01*
X08785Y-20998D01*
X08939Y-21152D01*
X09141Y-21236D01*
X09359Y-21236D01*
X09561Y-21152D01*
X09715Y-20998D01*
X09799Y-20796D01*
X09799Y-20578D01*
X09715Y-20376D01*
X09632Y-20293D01*
X09677Y-20249D01*
X10255Y-20249D01*
X10751Y-20744D01*
X10753Y-20747D01*
X10866Y-20822D01*
X10867Y-20822D01*
X11000Y-20849D01*
X11736Y-20849D01*
X11764Y-20916D01*
X11834Y-20986D01*
X11901Y-21013D01*
X11901Y-22855D01*
X11901Y-22855D01*
G37*
G54D20*
X11901Y-22855D02*
X11893Y-22863D01*
X11893Y-21906D01*
X11893Y-21595D01*
X11774Y-21308D01*
X11555Y-21088D01*
X11268Y-20969D01*
X10957Y-20969D01*
X10670Y-21088D01*
X10450Y-21307D01*
X10331Y-21594D01*
X10331Y-21905D01*
X10450Y-22192D01*
X10669Y-22412D01*
X10956Y-22531D01*
X11267Y-22531D01*
X11554Y-22412D01*
X11774Y-22193D01*
X11893Y-21906D01*
X11893Y-22863D01*
X11605Y-23151D01*
X07169Y-23151D01*
X07169Y-21906D01*
X07169Y-21595D01*
X07050Y-21308D01*
X06831Y-21088D01*
X06544Y-20969D01*
X06233Y-20969D01*
X05946Y-21088D01*
X05726Y-21307D01*
X05607Y-21594D01*
X05607Y-21905D01*
X05726Y-22192D01*
X05945Y-22412D01*
X06232Y-22531D01*
X06543Y-22531D01*
X06830Y-22412D01*
X07050Y-22193D01*
X07169Y-21906D01*
X07169Y-23151D01*
X05893Y-23151D01*
X05798Y-23055D01*
X05605Y-22975D01*
X05396Y-22975D01*
X05203Y-23055D01*
X05055Y-23202D01*
X05050Y-23214D01*
X05050Y-20784D01*
X05055Y-20797D01*
X05202Y-20945D01*
X05395Y-21025D01*
X05604Y-21025D01*
X05797Y-20945D01*
X05945Y-20798D01*
X06025Y-20605D01*
X06025Y-20396D01*
X05952Y-20221D01*
X06712Y-19462D01*
X06777Y-19365D01*
X06800Y-19250D01*
X06800Y-18692D01*
X06945Y-18548D01*
X06950Y-18535D01*
X06950Y-20500D01*
X06973Y-20615D01*
X07038Y-20712D01*
X07225Y-20899D01*
X07322Y-20964D01*
X07437Y-20987D01*
X07780Y-20987D01*
X07785Y-20998D01*
X07939Y-21152D01*
X08141Y-21236D01*
X08359Y-21236D01*
X08561Y-21152D01*
X08715Y-20998D01*
X08750Y-20913D01*
X08785Y-20998D01*
X08939Y-21152D01*
X09141Y-21236D01*
X09359Y-21236D01*
X09561Y-21152D01*
X09715Y-20998D01*
X09799Y-20796D01*
X09799Y-20578D01*
X09715Y-20376D01*
X09632Y-20293D01*
X09677Y-20249D01*
X10255Y-20249D01*
X10751Y-20744D01*
X10753Y-20747D01*
X10866Y-20822D01*
X10867Y-20822D01*
X11000Y-20849D01*
X11736Y-20849D01*
X11764Y-20916D01*
X11834Y-20986D01*
X11901Y-21013D01*
X11901Y-22855D01*
G54D10*
G36*
X11975Y-13050D02*
X11474Y-12550D01*
X11625Y-12550D01*
X11975Y-12899D01*
X11975Y-13050D01*
X11975Y-13050D01*
G37*
G54D20*
X11975Y-13050D02*
X11474Y-12550D01*
X11625Y-12550D01*
X11975Y-12899D01*
X11975Y-13050D01*
G54D10*
G36*
X11975Y-15051D02*
X11800Y-14876D01*
X11800Y-14724D01*
X11975Y-14899D01*
X11975Y-15051D01*
X11975Y-15051D01*
G37*
G54D20*
X11975Y-15051D02*
X11800Y-14876D01*
X11800Y-14724D01*
X11975Y-14899D01*
X11975Y-15051D01*
G54D10*
G36*
X12276Y-16476D02*
X12176Y-16476D01*
X12084Y-16514D01*
X12050Y-16548D01*
X12050Y-16284D01*
X12055Y-16297D01*
X12202Y-16445D01*
X12276Y-16476D01*
X12276Y-16476D01*
G37*
G54D20*
X12276Y-16476D02*
X12176Y-16476D01*
X12084Y-16514D01*
X12050Y-16548D01*
X12050Y-16284D01*
X12055Y-16297D01*
X12202Y-16445D01*
X12276Y-16476D01*
G54D10*
G36*
X12950Y-11715D02*
X12945Y-11703D01*
X12798Y-11555D01*
X12785Y-11550D01*
X12950Y-11550D01*
X12950Y-11715D01*
X12950Y-11715D01*
G37*
G54D20*
X12950Y-11715D02*
X12945Y-11703D01*
X12798Y-11555D01*
X12785Y-11550D01*
X12950Y-11550D01*
X12950Y-11715D01*
G54D10*
G36*
X12950Y-12715D02*
X12945Y-12703D01*
X12798Y-12555D01*
X12664Y-12499D01*
X12797Y-12445D01*
X12945Y-12298D01*
X12950Y-12285D01*
X12950Y-12715D01*
X12950Y-12715D01*
G37*
G54D20*
X12950Y-12715D02*
X12945Y-12703D01*
X12798Y-12555D01*
X12664Y-12499D01*
X12797Y-12445D01*
X12945Y-12298D01*
X12950Y-12285D01*
X12950Y-12715D01*
G54D10*
G36*
X12950Y-13715D02*
X12945Y-13703D01*
X12798Y-13555D01*
X12664Y-13499D01*
X12797Y-13445D01*
X12945Y-13298D01*
X12950Y-13285D01*
X12950Y-13715D01*
X12950Y-13715D01*
G37*
G54D20*
X12950Y-13715D02*
X12945Y-13703D01*
X12798Y-13555D01*
X12664Y-13499D01*
X12797Y-13445D01*
X12945Y-13298D01*
X12950Y-13285D01*
X12950Y-13715D01*
G54D10*
G36*
X12950Y-14715D02*
X12945Y-14703D01*
X12798Y-14555D01*
X12664Y-14499D01*
X12797Y-14445D01*
X12945Y-14298D01*
X12950Y-14285D01*
X12950Y-14715D01*
X12950Y-14715D01*
G37*
G54D20*
X12950Y-14715D02*
X12945Y-14703D01*
X12798Y-14555D01*
X12664Y-14499D01*
X12797Y-14445D01*
X12945Y-14298D01*
X12950Y-14285D01*
X12950Y-14715D01*
G54D10*
G36*
X12950Y-15715D02*
X12945Y-15703D01*
X12798Y-15555D01*
X12664Y-15499D01*
X12797Y-15445D01*
X12945Y-15298D01*
X12950Y-15285D01*
X12950Y-15715D01*
X12950Y-15715D01*
G37*
G54D20*
X12950Y-15715D02*
X12945Y-15703D01*
X12798Y-15555D01*
X12664Y-15499D01*
X12797Y-15445D01*
X12945Y-15298D01*
X12950Y-15285D01*
X12950Y-15715D01*
G54D10*
G36*
X12950Y-16548D02*
X12916Y-16514D01*
X12825Y-16476D01*
X12726Y-16476D01*
X12722Y-16476D01*
X12797Y-16445D01*
X12945Y-16298D01*
X12950Y-16285D01*
X12950Y-16548D01*
X12950Y-16548D01*
G37*
G54D20*
X12950Y-16548D02*
X12916Y-16514D01*
X12825Y-16476D01*
X12726Y-16476D01*
X12722Y-16476D01*
X12797Y-16445D01*
X12945Y-16298D01*
X12950Y-16285D01*
X12950Y-16548D01*
G54D10*
G36*
X12950Y-17715D02*
X12945Y-17703D01*
X12798Y-17555D01*
X12723Y-17524D01*
X12824Y-17524D01*
X12916Y-17486D01*
X12950Y-17452D01*
X12950Y-17715D01*
X12950Y-17715D01*
G37*
G54D20*
X12950Y-17715D02*
X12945Y-17703D01*
X12798Y-17555D01*
X12723Y-17524D01*
X12824Y-17524D01*
X12916Y-17486D01*
X12950Y-17452D01*
X12950Y-17715D01*
G54D10*
G36*
X12950Y-23888D02*
X05854Y-23888D01*
X05893Y-23849D01*
X11750Y-23849D01*
X11883Y-23822D01*
X11884Y-23822D01*
X11997Y-23747D01*
X12497Y-23247D01*
X12572Y-23134D01*
X12572Y-23133D01*
X12599Y-23000D01*
X12599Y-21013D01*
X12666Y-20986D01*
X12736Y-20916D01*
X12774Y-20825D01*
X12774Y-20726D01*
X12774Y-20176D01*
X12736Y-20084D01*
X12666Y-20014D01*
X12575Y-19976D01*
X12476Y-19976D01*
X12472Y-19976D01*
X12547Y-19945D01*
X12695Y-19798D01*
X12775Y-19605D01*
X12775Y-19396D01*
X12695Y-19203D01*
X12548Y-19055D01*
X12355Y-18975D01*
X12146Y-18975D01*
X11953Y-19055D01*
X11805Y-19202D01*
X11725Y-19395D01*
X11725Y-19604D01*
X11805Y-19797D01*
X11952Y-19945D01*
X12026Y-19976D01*
X11926Y-19976D01*
X11834Y-20014D01*
X11764Y-20084D01*
X11736Y-20151D01*
X11144Y-20151D01*
X10647Y-19653D01*
X10534Y-19578D01*
X10400Y-19551D01*
X09677Y-19551D01*
X09650Y-19524D01*
X09712Y-19463D01*
X09712Y-19462D01*
X09777Y-19365D01*
X09799Y-19250D01*
X09800Y-19250D01*
X09800Y-16874D01*
X10124Y-16550D01*
X10498Y-16550D01*
X10509Y-16561D01*
X10600Y-16599D01*
X10699Y-16599D01*
X11199Y-16599D01*
X11200Y-16598D01*
X11200Y-16626D01*
X10350Y-17476D01*
X10176Y-17476D01*
X10084Y-17514D01*
X10014Y-17584D01*
X09976Y-17675D01*
X09976Y-17774D01*
X09976Y-18324D01*
X10014Y-18416D01*
X10084Y-18486D01*
X10175Y-18524D01*
X10274Y-18524D01*
X10824Y-18524D01*
X10916Y-18486D01*
X10986Y-18416D01*
X11024Y-18325D01*
X11024Y-18226D01*
X11024Y-18222D01*
X11055Y-18297D01*
X11202Y-18445D01*
X11395Y-18525D01*
X11604Y-18525D01*
X11797Y-18445D01*
X11945Y-18298D01*
X12000Y-18164D01*
X12055Y-18297D01*
X12202Y-18445D01*
X12395Y-18525D01*
X12604Y-18525D01*
X12797Y-18445D01*
X12945Y-18298D01*
X12950Y-18285D01*
X12950Y-23888D01*
X12950Y-23888D01*
G37*
G54D20*
X12950Y-23888D02*
X05854Y-23888D01*
X05893Y-23849D01*
X11750Y-23849D01*
X11883Y-23822D01*
X11884Y-23822D01*
X11997Y-23747D01*
X12497Y-23247D01*
X12572Y-23134D01*
X12572Y-23133D01*
X12599Y-23000D01*
X12599Y-21013D01*
X12666Y-20986D01*
X12736Y-20916D01*
X12774Y-20825D01*
X12774Y-20726D01*
X12774Y-20176D01*
X12736Y-20084D01*
X12666Y-20014D01*
X12575Y-19976D01*
X12476Y-19976D01*
X12472Y-19976D01*
X12547Y-19945D01*
X12695Y-19798D01*
X12775Y-19605D01*
X12775Y-19396D01*
X12695Y-19203D01*
X12548Y-19055D01*
X12355Y-18975D01*
X12146Y-18975D01*
X11953Y-19055D01*
X11805Y-19202D01*
X11725Y-19395D01*
X11725Y-19604D01*
X11805Y-19797D01*
X11952Y-19945D01*
X12026Y-19976D01*
X11926Y-19976D01*
X11834Y-20014D01*
X11764Y-20084D01*
X11736Y-20151D01*
X11144Y-20151D01*
X10647Y-19653D01*
X10534Y-19578D01*
X10400Y-19551D01*
X09677Y-19551D01*
X09650Y-19524D01*
X09712Y-19463D01*
X09712Y-19462D01*
X09777Y-19365D01*
X09799Y-19250D01*
X09800Y-19250D01*
X09800Y-16874D01*
X10124Y-16550D01*
X10498Y-16550D01*
X10509Y-16561D01*
X10600Y-16599D01*
X10699Y-16599D01*
X11199Y-16599D01*
X11200Y-16598D01*
X11200Y-16626D01*
X10350Y-17476D01*
X10176Y-17476D01*
X10084Y-17514D01*
X10014Y-17584D01*
X09976Y-17675D01*
X09976Y-17774D01*
X09976Y-18324D01*
X10014Y-18416D01*
X10084Y-18486D01*
X10175Y-18524D01*
X10274Y-18524D01*
X10824Y-18524D01*
X10916Y-18486D01*
X10986Y-18416D01*
X11024Y-18325D01*
X11024Y-18226D01*
X11024Y-18222D01*
X11055Y-18297D01*
X11202Y-18445D01*
X11395Y-18525D01*
X11604Y-18525D01*
X11797Y-18445D01*
X11945Y-18298D01*
X12000Y-18164D01*
X12055Y-18297D01*
X12202Y-18445D01*
X12395Y-18525D01*
X12604Y-18525D01*
X12797Y-18445D01*
X12945Y-18298D01*
X12950Y-18285D01*
X12950Y-23888D01*
G54D10*
G36*
X13645Y-23888D02*
X13550Y-23888D01*
X13550Y-23784D01*
X13555Y-23797D01*
X13645Y-23888D01*
X13645Y-23888D01*
G37*
G54D20*
X13645Y-23888D02*
X13550Y-23888D01*
X13550Y-23784D01*
X13555Y-23797D01*
X13645Y-23888D01*
G54D10*
G36*
X13651Y-21106D02*
X13555Y-21202D01*
X13550Y-21214D01*
X13550Y-20784D01*
X13555Y-20797D01*
X13651Y-20893D01*
X13651Y-21106D01*
X13651Y-21106D01*
G37*
G54D20*
X13651Y-21106D02*
X13555Y-21202D01*
X13550Y-21214D01*
X13550Y-20784D01*
X13555Y-20797D01*
X13651Y-20893D01*
X13651Y-21106D01*
G54D10*
G36*
X13651Y-22106D02*
X13555Y-22202D01*
X13550Y-22214D01*
X13550Y-21784D01*
X13555Y-21797D01*
X13651Y-21893D01*
X13651Y-22106D01*
X13651Y-22106D01*
G37*
G54D20*
X13651Y-22106D02*
X13555Y-22202D01*
X13550Y-22214D01*
X13550Y-21784D01*
X13555Y-21797D01*
X13651Y-21893D01*
X13651Y-22106D01*
G54D10*
G36*
X13651Y-23106D02*
X13555Y-23202D01*
X13550Y-23214D01*
X13550Y-22784D01*
X13555Y-22797D01*
X13651Y-22893D01*
X13651Y-23106D01*
X13651Y-23106D01*
G37*
G54D20*
X13651Y-23106D02*
X13555Y-23202D01*
X13550Y-23214D01*
X13550Y-22784D01*
X13555Y-22797D01*
X13651Y-22893D01*
X13651Y-23106D01*
G54D10*
G36*
X13776Y-16476D02*
X13676Y-16476D01*
X13584Y-16514D01*
X13550Y-16548D01*
X13550Y-16284D01*
X13555Y-16297D01*
X13702Y-16445D01*
X13776Y-16476D01*
X13776Y-16476D01*
G37*
G54D20*
X13776Y-16476D02*
X13676Y-16476D01*
X13584Y-16514D01*
X13550Y-16548D01*
X13550Y-16284D01*
X13555Y-16297D01*
X13702Y-16445D01*
X13776Y-16476D01*
G54D10*
G36*
X13835Y-14500D02*
X13703Y-14555D01*
X13555Y-14702D01*
X13550Y-14714D01*
X13550Y-14284D01*
X13555Y-14297D01*
X13702Y-14445D01*
X13835Y-14500D01*
X13835Y-14500D01*
G37*
G54D20*
X13835Y-14500D02*
X13703Y-14555D01*
X13555Y-14702D01*
X13550Y-14714D01*
X13550Y-14284D01*
X13555Y-14297D01*
X13702Y-14445D01*
X13835Y-14500D01*
G54D10*
G36*
X13835Y-15500D02*
X13703Y-15555D01*
X13555Y-15702D01*
X13550Y-15714D01*
X13550Y-15284D01*
X13555Y-15297D01*
X13702Y-15445D01*
X13835Y-15500D01*
X13835Y-15500D01*
G37*
G54D20*
X13835Y-15500D02*
X13703Y-15555D01*
X13555Y-15702D01*
X13550Y-15714D01*
X13550Y-15284D01*
X13555Y-15297D01*
X13702Y-15445D01*
X13835Y-15500D01*
G54D10*
G36*
X16980Y-16999D02*
X16878Y-17042D01*
X16769Y-17151D01*
X15645Y-17151D01*
X15247Y-16753D01*
X15134Y-16678D01*
X15000Y-16651D01*
X14513Y-16651D01*
X14486Y-16584D01*
X14416Y-16514D01*
X14325Y-16476D01*
X14226Y-16476D01*
X14222Y-16476D01*
X14297Y-16445D01*
X14393Y-16349D01*
X15500Y-16349D01*
X15633Y-16322D01*
X15634Y-16322D01*
X15747Y-16247D01*
X16145Y-15849D01*
X16769Y-15849D01*
X16878Y-15957D01*
X16980Y-15999D01*
X16878Y-16042D01*
X16727Y-16194D01*
X16644Y-16392D01*
X16644Y-16607D01*
X16726Y-16806D01*
X16878Y-16957D01*
X16980Y-16999D01*
X16980Y-16999D01*
G37*
G54D20*
X16980Y-16999D02*
X16878Y-17042D01*
X16769Y-17151D01*
X15645Y-17151D01*
X15247Y-16753D01*
X15134Y-16678D01*
X15000Y-16651D01*
X14513Y-16651D01*
X14486Y-16584D01*
X14416Y-16514D01*
X14325Y-16476D01*
X14226Y-16476D01*
X14222Y-16476D01*
X14297Y-16445D01*
X14393Y-16349D01*
X15500Y-16349D01*
X15633Y-16322D01*
X15634Y-16322D01*
X15747Y-16247D01*
X16145Y-15849D01*
X16769Y-15849D01*
X16878Y-15957D01*
X16980Y-15999D01*
X16878Y-16042D01*
X16727Y-16194D01*
X16644Y-16392D01*
X16644Y-16607D01*
X16726Y-16806D01*
X16878Y-16957D01*
X16980Y-16999D01*
G54D10*
G36*
X16980Y-17999D02*
X16878Y-18042D01*
X16727Y-18194D01*
X16644Y-18392D01*
X16644Y-18590D01*
X16611Y-18510D01*
X16491Y-18390D01*
X16335Y-18325D01*
X16166Y-18325D01*
X16010Y-18389D01*
X15890Y-18509D01*
X15825Y-18665D01*
X15825Y-18681D01*
X15503Y-19003D01*
X15428Y-19116D01*
X15401Y-19250D01*
X15401Y-23000D01*
X15428Y-23134D01*
X15503Y-23247D01*
X16003Y-23747D01*
X16116Y-23822D01*
X16117Y-23822D01*
X16250Y-23849D01*
X16486Y-23849D01*
X16502Y-23888D01*
X14354Y-23888D01*
X14445Y-23798D01*
X14525Y-23605D01*
X14525Y-23396D01*
X14445Y-23203D01*
X14349Y-23106D01*
X14349Y-22893D01*
X14445Y-22798D01*
X14525Y-22605D01*
X14525Y-22396D01*
X14445Y-22203D01*
X14349Y-22106D01*
X14349Y-21893D01*
X14445Y-21798D01*
X14525Y-21605D01*
X14525Y-21396D01*
X14445Y-21203D01*
X14349Y-21106D01*
X14349Y-20893D01*
X14445Y-20798D01*
X14525Y-20605D01*
X14525Y-20396D01*
X14445Y-20203D01*
X14298Y-20055D01*
X14105Y-19975D01*
X13896Y-19975D01*
X13703Y-20055D01*
X13555Y-20202D01*
X13550Y-20214D01*
X13550Y-17452D01*
X13584Y-17486D01*
X13675Y-17524D01*
X13774Y-17524D01*
X14324Y-17524D01*
X14416Y-17486D01*
X14486Y-17416D01*
X14513Y-17349D01*
X14855Y-17349D01*
X15253Y-17747D01*
X15366Y-17822D01*
X15367Y-17822D01*
X15500Y-17849D01*
X16769Y-17849D01*
X16878Y-17957D01*
X16980Y-17999D01*
X16980Y-17999D01*
G37*
G54D20*
X16980Y-17999D02*
X16878Y-18042D01*
X16727Y-18194D01*
X16644Y-18392D01*
X16644Y-18590D01*
X16611Y-18510D01*
X16491Y-18390D01*
X16335Y-18325D01*
X16166Y-18325D01*
X16010Y-18389D01*
X15890Y-18509D01*
X15825Y-18665D01*
X15825Y-18681D01*
X15503Y-19003D01*
X15428Y-19116D01*
X15401Y-19250D01*
X15401Y-23000D01*
X15428Y-23134D01*
X15503Y-23247D01*
X16003Y-23747D01*
X16116Y-23822D01*
X16117Y-23822D01*
X16250Y-23849D01*
X16486Y-23849D01*
X16502Y-23888D01*
X14354Y-23888D01*
X14445Y-23798D01*
X14525Y-23605D01*
X14525Y-23396D01*
X14445Y-23203D01*
X14349Y-23106D01*
X14349Y-22893D01*
X14445Y-22798D01*
X14525Y-22605D01*
X14525Y-22396D01*
X14445Y-22203D01*
X14349Y-22106D01*
X14349Y-21893D01*
X14445Y-21798D01*
X14525Y-21605D01*
X14525Y-21396D01*
X14445Y-21203D01*
X14349Y-21106D01*
X14349Y-20893D01*
X14445Y-20798D01*
X14525Y-20605D01*
X14525Y-20396D01*
X14445Y-20203D01*
X14298Y-20055D01*
X14105Y-19975D01*
X13896Y-19975D01*
X13703Y-20055D01*
X13555Y-20202D01*
X13550Y-20214D01*
X13550Y-17452D01*
X13584Y-17486D01*
X13675Y-17524D01*
X13774Y-17524D01*
X14324Y-17524D01*
X14416Y-17486D01*
X14486Y-17416D01*
X14513Y-17349D01*
X14855Y-17349D01*
X15253Y-17747D01*
X15366Y-17822D01*
X15367Y-17822D01*
X15500Y-17849D01*
X16769Y-17849D01*
X16878Y-17957D01*
X16980Y-17999D01*
G54D10*
G36*
X17657Y-20151D02*
X17513Y-20151D01*
X17486Y-20084D01*
X17416Y-20014D01*
X17325Y-19976D01*
X17226Y-19976D01*
X16676Y-19976D01*
X16584Y-20014D01*
X16514Y-20084D01*
X16476Y-20175D01*
X16476Y-20274D01*
X16476Y-20824D01*
X16514Y-20916D01*
X16584Y-20986D01*
X16617Y-21000D01*
X16584Y-21014D01*
X16514Y-21084D01*
X16476Y-21175D01*
X16476Y-21274D01*
X16476Y-21824D01*
X16514Y-21916D01*
X16584Y-21986D01*
X16617Y-22000D01*
X16584Y-22014D01*
X16514Y-22084D01*
X16476Y-22175D01*
X16476Y-22274D01*
X16476Y-22824D01*
X16514Y-22916D01*
X16584Y-22986D01*
X16617Y-23000D01*
X16584Y-23014D01*
X16514Y-23084D01*
X16486Y-23151D01*
X16395Y-23151D01*
X16099Y-22855D01*
X16099Y-19395D01*
X16319Y-19175D01*
X16334Y-19175D01*
X16490Y-19111D01*
X16610Y-18991D01*
X16675Y-18835D01*
X16675Y-18682D01*
X16726Y-18806D01*
X16878Y-18957D01*
X17076Y-19040D01*
X17151Y-19040D01*
X17151Y-19500D01*
X17178Y-19634D01*
X17253Y-19747D01*
X17657Y-20151D01*
X17657Y-20151D01*
G37*
G54D20*
X17657Y-20151D02*
X17513Y-20151D01*
X17486Y-20084D01*
X17416Y-20014D01*
X17325Y-19976D01*
X17226Y-19976D01*
X16676Y-19976D01*
X16584Y-20014D01*
X16514Y-20084D01*
X16476Y-20175D01*
X16476Y-20274D01*
X16476Y-20824D01*
X16514Y-20916D01*
X16584Y-20986D01*
X16617Y-21000D01*
X16584Y-21014D01*
X16514Y-21084D01*
X16476Y-21175D01*
X16476Y-21274D01*
X16476Y-21824D01*
X16514Y-21916D01*
X16584Y-21986D01*
X16617Y-22000D01*
X16584Y-22014D01*
X16514Y-22084D01*
X16476Y-22175D01*
X16476Y-22274D01*
X16476Y-22824D01*
X16514Y-22916D01*
X16584Y-22986D01*
X16617Y-23000D01*
X16584Y-23014D01*
X16514Y-23084D01*
X16486Y-23151D01*
X16395Y-23151D01*
X16099Y-22855D01*
X16099Y-19395D01*
X16319Y-19175D01*
X16334Y-19175D01*
X16490Y-19111D01*
X16610Y-18991D01*
X16675Y-18835D01*
X16675Y-18682D01*
X16726Y-18806D01*
X16878Y-18957D01*
X17076Y-19040D01*
X17151Y-19040D01*
X17151Y-19500D01*
X17178Y-19634D01*
X17253Y-19747D01*
X17657Y-20151D01*
G54D10*
G36*
X18145Y-23888D02*
X17497Y-23888D01*
X17513Y-23849D01*
X18106Y-23849D01*
X18145Y-23888D01*
X18145Y-23888D01*
G37*
G54D20*
X18145Y-23888D02*
X17497Y-23888D01*
X17513Y-23849D01*
X18106Y-23849D01*
X18145Y-23888D01*
G54D10*
G36*
X18200Y-16120D02*
X18122Y-16043D01*
X18019Y-16000D01*
X18122Y-15958D01*
X18200Y-15879D01*
X18200Y-16120D01*
X18200Y-16120D01*
G37*
G54D20*
X18200Y-16120D02*
X18122Y-16043D01*
X18019Y-16000D01*
X18122Y-15958D01*
X18200Y-15879D01*
X18200Y-16120D01*
G54D10*
G36*
X18274Y-21024D02*
X18203Y-21055D01*
X18106Y-21151D01*
X17513Y-21151D01*
X17486Y-21084D01*
X17416Y-21014D01*
X17382Y-20999D01*
X17416Y-20986D01*
X17486Y-20916D01*
X17513Y-20849D01*
X17986Y-20849D01*
X18014Y-20916D01*
X18084Y-20986D01*
X18175Y-21024D01*
X18274Y-21024D01*
X18274Y-21024D01*
G37*
G54D20*
X18274Y-21024D02*
X18203Y-21055D01*
X18106Y-21151D01*
X17513Y-21151D01*
X17486Y-21084D01*
X17416Y-21014D01*
X17382Y-20999D01*
X17416Y-20986D01*
X17486Y-20916D01*
X17513Y-20849D01*
X17986Y-20849D01*
X18014Y-20916D01*
X18084Y-20986D01*
X18175Y-21024D01*
X18274Y-21024D01*
G54D10*
G36*
X18335Y-22000D02*
X18203Y-22055D01*
X18106Y-22151D01*
X17513Y-22151D01*
X17486Y-22084D01*
X17416Y-22014D01*
X17382Y-21999D01*
X17416Y-21986D01*
X17486Y-21916D01*
X17513Y-21849D01*
X18106Y-21849D01*
X18202Y-21945D01*
X18335Y-22000D01*
X18335Y-22000D01*
G37*
G54D20*
X18335Y-22000D02*
X18203Y-22055D01*
X18106Y-22151D01*
X17513Y-22151D01*
X17486Y-22084D01*
X17416Y-22014D01*
X17382Y-21999D01*
X17416Y-21986D01*
X17486Y-21916D01*
X17513Y-21849D01*
X18106Y-21849D01*
X18202Y-21945D01*
X18335Y-22000D01*
G54D10*
G36*
X18335Y-23000D02*
X18203Y-23055D01*
X18106Y-23151D01*
X17513Y-23151D01*
X17486Y-23084D01*
X17416Y-23014D01*
X17382Y-22999D01*
X17416Y-22986D01*
X17486Y-22916D01*
X17513Y-22849D01*
X18106Y-22849D01*
X18202Y-22945D01*
X18335Y-23000D01*
X18335Y-23000D01*
G37*
G54D20*
X18335Y-23000D02*
X18203Y-23055D01*
X18106Y-23151D01*
X17513Y-23151D01*
X17486Y-23084D01*
X17416Y-23014D01*
X17382Y-22999D01*
X17416Y-22986D01*
X17486Y-22916D01*
X17513Y-22849D01*
X18106Y-22849D01*
X18202Y-22945D01*
X18335Y-23000D01*
G54D10*
G36*
X18980Y-12499D02*
X18878Y-12542D01*
X18727Y-12694D01*
X18644Y-12892D01*
X18644Y-13107D01*
X18682Y-13200D01*
X18276Y-13200D01*
X18274Y-13194D01*
X18122Y-13043D01*
X18019Y-13000D01*
X18122Y-12958D01*
X18273Y-12806D01*
X18356Y-12608D01*
X18356Y-12393D01*
X18274Y-12194D01*
X18122Y-12043D01*
X17924Y-11960D01*
X17709Y-11960D01*
X17077Y-11960D01*
X16878Y-12042D01*
X16727Y-12194D01*
X16644Y-12392D01*
X16644Y-12607D01*
X16726Y-12806D01*
X16878Y-12957D01*
X16980Y-12999D01*
X16878Y-13042D01*
X16727Y-13194D01*
X16644Y-13392D01*
X16644Y-13607D01*
X16726Y-13806D01*
X16878Y-13957D01*
X16980Y-13999D01*
X16878Y-14042D01*
X16727Y-14194D01*
X16644Y-14392D01*
X16644Y-14607D01*
X16726Y-14806D01*
X16878Y-14957D01*
X16980Y-14999D01*
X16878Y-15042D01*
X16769Y-15151D01*
X16000Y-15151D01*
X15866Y-15178D01*
X15753Y-15253D01*
X15355Y-15651D01*
X14393Y-15651D01*
X14298Y-15555D01*
X14164Y-15499D01*
X14297Y-15445D01*
X14445Y-15298D01*
X14525Y-15105D01*
X14525Y-14896D01*
X14445Y-14703D01*
X14298Y-14555D01*
X14164Y-14499D01*
X14297Y-14445D01*
X14445Y-14298D01*
X14525Y-14105D01*
X14525Y-13896D01*
X14445Y-13703D01*
X14298Y-13555D01*
X14105Y-13475D01*
X13896Y-13475D01*
X13703Y-13555D01*
X13555Y-13702D01*
X13550Y-13714D01*
X13550Y-11550D01*
X18870Y-11550D01*
X18727Y-11694D01*
X18644Y-11892D01*
X18644Y-12107D01*
X18726Y-12306D01*
X18878Y-12457D01*
X18980Y-12499D01*
X18980Y-12499D01*
G37*
G54D20*
X18980Y-12499D02*
X18878Y-12542D01*
X18727Y-12694D01*
X18644Y-12892D01*
X18644Y-13107D01*
X18682Y-13200D01*
X18276Y-13200D01*
X18274Y-13194D01*
X18122Y-13043D01*
X18019Y-13000D01*
X18122Y-12958D01*
X18273Y-12806D01*
X18356Y-12608D01*
X18356Y-12393D01*
X18274Y-12194D01*
X18122Y-12043D01*
X17924Y-11960D01*
X17709Y-11960D01*
X17077Y-11960D01*
X16878Y-12042D01*
X16727Y-12194D01*
X16644Y-12392D01*
X16644Y-12607D01*
X16726Y-12806D01*
X16878Y-12957D01*
X16980Y-12999D01*
X16878Y-13042D01*
X16727Y-13194D01*
X16644Y-13392D01*
X16644Y-13607D01*
X16726Y-13806D01*
X16878Y-13957D01*
X16980Y-13999D01*
X16878Y-14042D01*
X16727Y-14194D01*
X16644Y-14392D01*
X16644Y-14607D01*
X16726Y-14806D01*
X16878Y-14957D01*
X16980Y-14999D01*
X16878Y-15042D01*
X16769Y-15151D01*
X16000Y-15151D01*
X15866Y-15178D01*
X15753Y-15253D01*
X15355Y-15651D01*
X14393Y-15651D01*
X14298Y-15555D01*
X14164Y-15499D01*
X14297Y-15445D01*
X14445Y-15298D01*
X14525Y-15105D01*
X14525Y-14896D01*
X14445Y-14703D01*
X14298Y-14555D01*
X14164Y-14499D01*
X14297Y-14445D01*
X14445Y-14298D01*
X14525Y-14105D01*
X14525Y-13896D01*
X14445Y-13703D01*
X14298Y-13555D01*
X14105Y-13475D01*
X13896Y-13475D01*
X13703Y-13555D01*
X13555Y-13702D01*
X13550Y-13714D01*
X13550Y-11550D01*
X18870Y-11550D01*
X18727Y-11694D01*
X18644Y-11892D01*
X18644Y-12107D01*
X18726Y-12306D01*
X18878Y-12457D01*
X18980Y-12499D01*
G54D10*
G36*
X18980Y-15499D02*
X18878Y-15542D01*
X18778Y-15642D01*
X18777Y-15635D01*
X18712Y-15538D01*
X18712Y-15537D01*
X18462Y-15288D01*
X18365Y-15223D01*
X18278Y-15205D01*
X18274Y-15194D01*
X18122Y-15043D01*
X18019Y-15000D01*
X18122Y-14958D01*
X18273Y-14806D01*
X18356Y-14608D01*
X18356Y-14393D01*
X18274Y-14194D01*
X18122Y-14043D01*
X18019Y-14000D01*
X18122Y-13958D01*
X18273Y-13806D01*
X18275Y-13800D01*
X18682Y-13800D01*
X18644Y-13892D01*
X18644Y-14107D01*
X18726Y-14306D01*
X18878Y-14457D01*
X18980Y-14499D01*
X18878Y-14542D01*
X18727Y-14694D01*
X18644Y-14892D01*
X18644Y-15107D01*
X18726Y-15306D01*
X18878Y-15457D01*
X18980Y-15499D01*
X18980Y-15499D01*
G37*
G54D20*
X18980Y-15499D02*
X18878Y-15542D01*
X18778Y-15642D01*
X18777Y-15635D01*
X18712Y-15538D01*
X18712Y-15537D01*
X18462Y-15288D01*
X18365Y-15223D01*
X18278Y-15205D01*
X18274Y-15194D01*
X18122Y-15043D01*
X18019Y-15000D01*
X18122Y-14958D01*
X18273Y-14806D01*
X18356Y-14608D01*
X18356Y-14393D01*
X18274Y-14194D01*
X18122Y-14043D01*
X18019Y-14000D01*
X18122Y-13958D01*
X18273Y-13806D01*
X18275Y-13800D01*
X18682Y-13800D01*
X18644Y-13892D01*
X18644Y-14107D01*
X18726Y-14306D01*
X18878Y-14457D01*
X18980Y-14499D01*
X18878Y-14542D01*
X18727Y-14694D01*
X18644Y-14892D01*
X18644Y-15107D01*
X18726Y-15306D01*
X18878Y-15457D01*
X18980Y-15499D01*
G54D10*
G36*
X19645Y-23888D02*
X18854Y-23888D01*
X18893Y-23849D01*
X19606Y-23849D01*
X19645Y-23888D01*
X19645Y-23888D01*
G37*
G54D20*
X19645Y-23888D02*
X18854Y-23888D01*
X18893Y-23849D01*
X19606Y-23849D01*
X19645Y-23888D01*
G54D10*
G36*
X19835Y-21000D02*
X19703Y-21055D01*
X19606Y-21151D01*
X18893Y-21151D01*
X18798Y-21055D01*
X18723Y-21024D01*
X18824Y-21024D01*
X18916Y-20986D01*
X18986Y-20916D01*
X19013Y-20849D01*
X19606Y-20849D01*
X19702Y-20945D01*
X19835Y-21000D01*
X19835Y-21000D01*
G37*
G54D20*
X19835Y-21000D02*
X19703Y-21055D01*
X19606Y-21151D01*
X18893Y-21151D01*
X18798Y-21055D01*
X18723Y-21024D01*
X18824Y-21024D01*
X18916Y-20986D01*
X18986Y-20916D01*
X19013Y-20849D01*
X19606Y-20849D01*
X19702Y-20945D01*
X19835Y-21000D01*
G54D10*
G36*
X19835Y-22000D02*
X19703Y-22055D01*
X19606Y-22151D01*
X18893Y-22151D01*
X18798Y-22055D01*
X18664Y-21999D01*
X18797Y-21945D01*
X18893Y-21849D01*
X19606Y-21849D01*
X19702Y-21945D01*
X19835Y-22000D01*
X19835Y-22000D01*
G37*
G54D20*
X19835Y-22000D02*
X19703Y-22055D01*
X19606Y-22151D01*
X18893Y-22151D01*
X18798Y-22055D01*
X18664Y-21999D01*
X18797Y-21945D01*
X18893Y-21849D01*
X19606Y-21849D01*
X19702Y-21945D01*
X19835Y-22000D01*
G54D10*
G36*
X19835Y-23000D02*
X19703Y-23055D01*
X19606Y-23151D01*
X18893Y-23151D01*
X18798Y-23055D01*
X18664Y-22999D01*
X18797Y-22945D01*
X18893Y-22849D01*
X19606Y-22849D01*
X19702Y-22945D01*
X19835Y-23000D01*
X19835Y-23000D01*
G37*
G54D20*
X19835Y-23000D02*
X19703Y-23055D01*
X19606Y-23151D01*
X18893Y-23151D01*
X18798Y-23055D01*
X18664Y-22999D01*
X18797Y-22945D01*
X18893Y-22849D01*
X19606Y-22849D01*
X19702Y-22945D01*
X19835Y-23000D01*
G54D10*
G36*
X20116Y-15540D02*
X20019Y-15500D01*
X20059Y-15483D01*
X20116Y-15540D01*
X20116Y-15540D01*
G37*
G54D20*
X20116Y-15540D02*
X20019Y-15500D01*
X20059Y-15483D01*
X20116Y-15540D01*
G54D10*
G36*
X20373Y-14047D02*
X20356Y-14090D01*
X20356Y-14030D01*
X20373Y-14047D01*
X20373Y-14047D01*
G37*
G54D20*
X20373Y-14047D02*
X20356Y-14090D01*
X20356Y-14030D01*
X20373Y-14047D01*
G54D10*
G36*
X20450Y-17199D02*
X20390Y-17259D01*
X20325Y-17415D01*
X20325Y-17584D01*
X20352Y-17651D01*
X20230Y-17651D01*
X20122Y-17543D01*
X20019Y-17500D01*
X20122Y-17458D01*
X20273Y-17306D01*
X20356Y-17108D01*
X20356Y-16893D01*
X20317Y-16800D01*
X20375Y-16800D01*
X20450Y-16874D01*
X20450Y-17199D01*
X20450Y-17199D01*
G37*
G54D20*
X20450Y-17199D02*
X20390Y-17259D01*
X20325Y-17415D01*
X20325Y-17584D01*
X20352Y-17651D01*
X20230Y-17651D01*
X20122Y-17543D01*
X20019Y-17500D01*
X20122Y-17458D01*
X20273Y-17306D01*
X20356Y-17108D01*
X20356Y-16893D01*
X20317Y-16800D01*
X20375Y-16800D01*
X20450Y-16874D01*
X20450Y-17199D01*
G54D10*
G36*
X20651Y-20855D02*
X20374Y-21131D01*
X20298Y-21055D01*
X20164Y-20999D01*
X20297Y-20945D01*
X20445Y-20798D01*
X20525Y-20605D01*
X20525Y-20396D01*
X20445Y-20203D01*
X20298Y-20055D01*
X20105Y-19975D01*
X19896Y-19975D01*
X19703Y-20055D01*
X19606Y-20151D01*
X19013Y-20151D01*
X18986Y-20084D01*
X18916Y-20014D01*
X18825Y-19976D01*
X18726Y-19976D01*
X18470Y-19976D01*
X17849Y-19355D01*
X17849Y-19040D01*
X17923Y-19040D01*
X18122Y-18958D01*
X18273Y-18806D01*
X18356Y-18608D01*
X18356Y-18393D01*
X18274Y-18194D01*
X18122Y-18043D01*
X18019Y-18000D01*
X18122Y-17958D01*
X18273Y-17806D01*
X18356Y-17608D01*
X18356Y-17393D01*
X18274Y-17194D01*
X18122Y-17043D01*
X18019Y-17000D01*
X18122Y-16958D01*
X18273Y-16806D01*
X18356Y-16608D01*
X18356Y-16530D01*
X18537Y-16712D01*
X18538Y-16712D01*
X18635Y-16777D01*
X18687Y-16787D01*
X18644Y-16892D01*
X18644Y-17107D01*
X18726Y-17306D01*
X18878Y-17457D01*
X18980Y-17499D01*
X18878Y-17542D01*
X18727Y-17694D01*
X18644Y-17892D01*
X18644Y-18107D01*
X18726Y-18306D01*
X18878Y-18457D01*
X18980Y-18499D01*
X18878Y-18542D01*
X18727Y-18694D01*
X18644Y-18892D01*
X18644Y-19107D01*
X18726Y-19306D01*
X18878Y-19457D01*
X19076Y-19540D01*
X19291Y-19540D01*
X19923Y-19540D01*
X20122Y-19458D01*
X20273Y-19306D01*
X20356Y-19108D01*
X20356Y-18893D01*
X20274Y-18694D01*
X20122Y-18543D01*
X20019Y-18500D01*
X20122Y-18458D01*
X20230Y-18349D01*
X20355Y-18349D01*
X20651Y-18645D01*
X20651Y-20855D01*
X20651Y-20855D01*
G37*
G54D20*
X20651Y-20855D02*
X20374Y-21131D01*
X20298Y-21055D01*
X20164Y-20999D01*
X20297Y-20945D01*
X20445Y-20798D01*
X20525Y-20605D01*
X20525Y-20396D01*
X20445Y-20203D01*
X20298Y-20055D01*
X20105Y-19975D01*
X19896Y-19975D01*
X19703Y-20055D01*
X19606Y-20151D01*
X19013Y-20151D01*
X18986Y-20084D01*
X18916Y-20014D01*
X18825Y-19976D01*
X18726Y-19976D01*
X18470Y-19976D01*
X17849Y-19355D01*
X17849Y-19040D01*
X17923Y-19040D01*
X18122Y-18958D01*
X18273Y-18806D01*
X18356Y-18608D01*
X18356Y-18393D01*
X18274Y-18194D01*
X18122Y-18043D01*
X18019Y-18000D01*
X18122Y-17958D01*
X18273Y-17806D01*
X18356Y-17608D01*
X18356Y-17393D01*
X18274Y-17194D01*
X18122Y-17043D01*
X18019Y-17000D01*
X18122Y-16958D01*
X18273Y-16806D01*
X18356Y-16608D01*
X18356Y-16530D01*
X18537Y-16712D01*
X18538Y-16712D01*
X18635Y-16777D01*
X18687Y-16787D01*
X18644Y-16892D01*
X18644Y-17107D01*
X18726Y-17306D01*
X18878Y-17457D01*
X18980Y-17499D01*
X18878Y-17542D01*
X18727Y-17694D01*
X18644Y-17892D01*
X18644Y-18107D01*
X18726Y-18306D01*
X18878Y-18457D01*
X18980Y-18499D01*
X18878Y-18542D01*
X18727Y-18694D01*
X18644Y-18892D01*
X18644Y-19107D01*
X18726Y-19306D01*
X18878Y-19457D01*
X19076Y-19540D01*
X19291Y-19540D01*
X19923Y-19540D01*
X20122Y-19458D01*
X20273Y-19306D01*
X20356Y-19108D01*
X20356Y-18893D01*
X20274Y-18694D01*
X20122Y-18543D01*
X20019Y-18500D01*
X20122Y-18458D01*
X20230Y-18349D01*
X20355Y-18349D01*
X20651Y-18645D01*
X20651Y-20855D01*
G54D10*
G36*
X20950Y-16525D02*
X20712Y-16288D01*
X20615Y-16223D01*
X20500Y-16200D01*
X20317Y-16200D01*
X20356Y-16108D01*
X20356Y-15893D01*
X20276Y-15700D01*
X20288Y-15712D01*
X20385Y-15777D01*
X20500Y-15800D01*
X20875Y-15800D01*
X20950Y-15874D01*
X20950Y-16525D01*
X20950Y-16525D01*
G37*
G54D20*
X20950Y-16525D02*
X20712Y-16288D01*
X20615Y-16223D01*
X20500Y-16200D01*
X20317Y-16200D01*
X20356Y-16108D01*
X20356Y-15893D01*
X20276Y-15700D01*
X20288Y-15712D01*
X20385Y-15777D01*
X20500Y-15800D01*
X20875Y-15800D01*
X20950Y-15874D01*
X20950Y-16525D01*
G54D10*
G36*
X21401Y-15476D02*
X21212Y-15288D01*
X21115Y-15223D01*
X21000Y-15200D01*
X20624Y-15200D01*
X20356Y-14932D01*
X20356Y-14893D01*
X20274Y-14694D01*
X20122Y-14543D01*
X20019Y-14500D01*
X20122Y-14458D01*
X20273Y-14306D01*
X20325Y-14181D01*
X20325Y-14334D01*
X20389Y-14490D01*
X20509Y-14610D01*
X20665Y-14675D01*
X20834Y-14675D01*
X20990Y-14611D01*
X21110Y-14491D01*
X21175Y-14335D01*
X21175Y-14168D01*
X21401Y-14394D01*
X21401Y-15476D01*
X21401Y-15476D01*
G37*
G54D20*
X21401Y-15476D02*
X21212Y-15288D01*
X21115Y-15223D01*
X21000Y-15200D01*
X20624Y-15200D01*
X20356Y-14932D01*
X20356Y-14893D01*
X20274Y-14694D01*
X20122Y-14543D01*
X20019Y-14500D01*
X20122Y-14458D01*
X20273Y-14306D01*
X20325Y-14181D01*
X20325Y-14334D01*
X20389Y-14490D01*
X20509Y-14610D01*
X20665Y-14675D01*
X20834Y-14675D01*
X20990Y-14611D01*
X21110Y-14491D01*
X21175Y-14335D01*
X21175Y-14168D01*
X21401Y-14394D01*
X21401Y-15476D01*
G54D10*
G36*
X21401Y-21855D02*
X21105Y-22151D01*
X20393Y-22151D01*
X20298Y-22055D01*
X20164Y-21999D01*
X20297Y-21945D01*
X20393Y-21849D01*
X20500Y-21849D01*
X20633Y-21822D01*
X20634Y-21822D01*
X20747Y-21747D01*
X21247Y-21247D01*
X21322Y-21134D01*
X21322Y-21133D01*
X21349Y-21000D01*
X21349Y-18500D01*
X21334Y-18425D01*
X21401Y-18397D01*
X21401Y-21855D01*
X21401Y-21855D01*
G37*
G54D20*
X21401Y-21855D02*
X21105Y-22151D01*
X20393Y-22151D01*
X20298Y-22055D01*
X20164Y-21999D01*
X20297Y-21945D01*
X20393Y-21849D01*
X20500Y-21849D01*
X20633Y-21822D01*
X20634Y-21822D01*
X20747Y-21747D01*
X21247Y-21247D01*
X21322Y-21134D01*
X21322Y-21133D01*
X21349Y-21000D01*
X21349Y-18500D01*
X21334Y-18425D01*
X21401Y-18397D01*
X21401Y-21855D01*
G54D10*
G36*
X22835Y-12500D02*
X22703Y-12555D01*
X22557Y-12700D01*
X22500Y-12700D01*
X22385Y-12723D01*
X22287Y-12788D01*
X22038Y-13038D01*
X21973Y-13135D01*
X21950Y-13250D01*
X21950Y-13956D01*
X20747Y-12753D01*
X20634Y-12678D01*
X20500Y-12651D01*
X20230Y-12651D01*
X20122Y-12543D01*
X20019Y-12500D01*
X20122Y-12458D01*
X20273Y-12306D01*
X20356Y-12108D01*
X20356Y-11893D01*
X20274Y-11694D01*
X20129Y-11550D01*
X22715Y-11550D01*
X22703Y-11555D01*
X22555Y-11702D01*
X22475Y-11895D01*
X22475Y-12104D01*
X22555Y-12297D01*
X22702Y-12445D01*
X22835Y-12500D01*
X22835Y-12500D01*
G37*
G54D20*
X22835Y-12500D02*
X22703Y-12555D01*
X22557Y-12700D01*
X22500Y-12700D01*
X22385Y-12723D01*
X22287Y-12788D01*
X22038Y-13038D01*
X21973Y-13135D01*
X21950Y-13250D01*
X21950Y-13956D01*
X20747Y-12753D01*
X20634Y-12678D01*
X20500Y-12651D01*
X20230Y-12651D01*
X20122Y-12543D01*
X20019Y-12500D01*
X20122Y-12458D01*
X20273Y-12306D01*
X20356Y-12108D01*
X20356Y-11893D01*
X20274Y-11694D01*
X20129Y-11550D01*
X22715Y-11550D01*
X22703Y-11555D01*
X22555Y-11702D01*
X22475Y-11895D01*
X22475Y-12104D01*
X22555Y-12297D01*
X22702Y-12445D01*
X22835Y-12500D01*
G54D10*
G36*
X22835Y-13500D02*
X22703Y-13555D01*
X22555Y-13702D01*
X22550Y-13714D01*
X22550Y-13374D01*
X22591Y-13333D01*
X22702Y-13445D01*
X22835Y-13500D01*
X22835Y-13500D01*
G37*
G54D20*
X22835Y-13500D02*
X22703Y-13555D01*
X22555Y-13702D01*
X22550Y-13714D01*
X22550Y-13374D01*
X22591Y-13333D01*
X22702Y-13445D01*
X22835Y-13500D01*
G54D10*
G36*
X22835Y-14500D02*
X22703Y-14555D01*
X22555Y-14702D01*
X22550Y-14714D01*
X22550Y-14284D01*
X22555Y-14297D01*
X22702Y-14445D01*
X22835Y-14500D01*
X22835Y-14500D01*
G37*
G54D20*
X22835Y-14500D02*
X22703Y-14555D01*
X22555Y-14702D01*
X22550Y-14714D01*
X22550Y-14284D01*
X22555Y-14297D01*
X22702Y-14445D01*
X22835Y-14500D01*
G54D10*
G36*
X22835Y-15500D02*
X22703Y-15555D01*
X22555Y-15702D01*
X22550Y-15714D01*
X22550Y-15284D01*
X22555Y-15297D01*
X22702Y-15445D01*
X22835Y-15500D01*
X22835Y-15500D01*
G37*
G54D20*
X22835Y-15500D02*
X22703Y-15555D01*
X22555Y-15702D01*
X22550Y-15714D01*
X22550Y-15284D01*
X22555Y-15297D01*
X22702Y-15445D01*
X22835Y-15500D01*
G54D10*
G36*
X22835Y-16500D02*
X22703Y-16555D01*
X22675Y-16582D01*
X22675Y-16417D01*
X22702Y-16445D01*
X22835Y-16500D01*
X22835Y-16500D01*
G37*
G54D20*
X22835Y-16500D02*
X22703Y-16555D01*
X22675Y-16582D01*
X22675Y-16417D01*
X22702Y-16445D01*
X22835Y-16500D01*
G54D10*
G36*
X23297Y-11554D02*
X23285Y-11550D01*
X23297Y-11550D01*
X23297Y-11554D01*
X23297Y-11554D01*
G37*
G54D20*
X23297Y-11554D02*
X23285Y-11550D01*
X23297Y-11550D01*
X23297Y-11554D01*
G54D10*
G36*
X23297Y-12554D02*
X23164Y-12499D01*
X23297Y-12445D01*
X23297Y-12554D01*
X23297Y-12554D01*
G37*
G54D20*
X23297Y-12554D02*
X23164Y-12499D01*
X23297Y-12445D01*
X23297Y-12554D01*
G54D10*
G36*
X23297Y-13554D02*
X23164Y-13499D01*
X23297Y-13445D01*
X23297Y-13554D01*
X23297Y-13554D01*
G37*
G54D20*
X23297Y-13554D02*
X23164Y-13499D01*
X23297Y-13445D01*
X23297Y-13554D01*
G54D10*
G36*
X23297Y-14554D02*
X23164Y-14499D01*
X23297Y-14445D01*
X23297Y-14554D01*
X23297Y-14554D01*
G37*
G54D20*
X23297Y-14554D02*
X23164Y-14499D01*
X23297Y-14445D01*
X23297Y-14554D01*
G54D10*
G36*
X23297Y-15554D02*
X23164Y-15499D01*
X23297Y-15445D01*
X23297Y-15554D01*
X23297Y-15554D01*
G37*
G54D20*
X23297Y-15554D02*
X23164Y-15499D01*
X23297Y-15445D01*
X23297Y-15554D01*
G54D10*
G36*
X23297Y-16554D02*
X23164Y-16499D01*
X23297Y-16445D01*
X23297Y-16554D01*
X23297Y-16554D01*
G37*
G54D20*
X23297Y-16554D02*
X23164Y-16499D01*
X23297Y-16445D01*
X23297Y-16554D01*
G54D10*
G36*
X23297Y-17554D02*
X23164Y-17499D01*
X23297Y-17445D01*
X23297Y-17554D01*
X23297Y-17554D01*
G37*
G54D20*
X23297Y-17554D02*
X23164Y-17499D01*
X23297Y-17445D01*
X23297Y-17554D01*
G54D10*
G36*
X23297Y-18476D02*
X23226Y-18476D01*
X23222Y-18476D01*
X23297Y-18445D01*
X23297Y-18476D01*
X23297Y-18476D01*
G37*
G54D20*
X23297Y-18476D02*
X23226Y-18476D01*
X23222Y-18476D01*
X23297Y-18445D01*
X23297Y-18476D01*
G54D10*
G36*
X23297Y-19976D02*
X23226Y-19976D01*
X22676Y-19976D01*
X22584Y-20014D01*
X22514Y-20084D01*
X22476Y-20175D01*
X22476Y-20274D01*
X22476Y-20824D01*
X22514Y-20916D01*
X22584Y-20986D01*
X22617Y-21000D01*
X22584Y-21014D01*
X22514Y-21084D01*
X22476Y-21175D01*
X22476Y-21274D01*
X22476Y-21824D01*
X22514Y-21916D01*
X22584Y-21986D01*
X22617Y-22000D01*
X22584Y-22014D01*
X22514Y-22084D01*
X22476Y-22175D01*
X22476Y-22274D01*
X22476Y-22824D01*
X22514Y-22916D01*
X22584Y-22986D01*
X22617Y-23000D01*
X22584Y-23014D01*
X22514Y-23084D01*
X22476Y-23175D01*
X22476Y-23274D01*
X22476Y-23824D01*
X22502Y-23888D01*
X20354Y-23888D01*
X20445Y-23798D01*
X20525Y-23605D01*
X20525Y-23396D01*
X20445Y-23203D01*
X20298Y-23055D01*
X20164Y-22999D01*
X20297Y-22945D01*
X20393Y-22849D01*
X21250Y-22849D01*
X21383Y-22822D01*
X21384Y-22822D01*
X21497Y-22747D01*
X21997Y-22247D01*
X22072Y-22134D01*
X22072Y-22133D01*
X22099Y-22000D01*
X22099Y-16897D01*
X22165Y-16925D01*
X22334Y-16925D01*
X22488Y-16861D01*
X22475Y-16895D01*
X22475Y-17104D01*
X22555Y-17297D01*
X22702Y-17445D01*
X22835Y-17500D01*
X22703Y-17555D01*
X22555Y-17702D01*
X22475Y-17895D01*
X22475Y-18104D01*
X22555Y-18297D01*
X22702Y-18445D01*
X22776Y-18476D01*
X22676Y-18476D01*
X22584Y-18514D01*
X22514Y-18584D01*
X22476Y-18675D01*
X22476Y-18774D01*
X22476Y-19324D01*
X22514Y-19416D01*
X22584Y-19486D01*
X22675Y-19524D01*
X22774Y-19524D01*
X23297Y-19524D01*
X23297Y-19976D01*
X23297Y-19976D01*
G37*
G54D20*
X23297Y-19976D02*
X23226Y-19976D01*
X22676Y-19976D01*
X22584Y-20014D01*
X22514Y-20084D01*
X22476Y-20175D01*
X22476Y-20274D01*
X22476Y-20824D01*
X22514Y-20916D01*
X22584Y-20986D01*
X22617Y-21000D01*
X22584Y-21014D01*
X22514Y-21084D01*
X22476Y-21175D01*
X22476Y-21274D01*
X22476Y-21824D01*
X22514Y-21916D01*
X22584Y-21986D01*
X22617Y-22000D01*
X22584Y-22014D01*
X22514Y-22084D01*
X22476Y-22175D01*
X22476Y-22274D01*
X22476Y-22824D01*
X22514Y-22916D01*
X22584Y-22986D01*
X22617Y-23000D01*
X22584Y-23014D01*
X22514Y-23084D01*
X22476Y-23175D01*
X22476Y-23274D01*
X22476Y-23824D01*
X22502Y-23888D01*
X20354Y-23888D01*
X20445Y-23798D01*
X20525Y-23605D01*
X20525Y-23396D01*
X20445Y-23203D01*
X20298Y-23055D01*
X20164Y-22999D01*
X20297Y-22945D01*
X20393Y-22849D01*
X21250Y-22849D01*
X21383Y-22822D01*
X21384Y-22822D01*
X21497Y-22747D01*
X21997Y-22247D01*
X22072Y-22134D01*
X22072Y-22133D01*
X22099Y-22000D01*
X22099Y-16897D01*
X22165Y-16925D01*
X22334Y-16925D01*
X22488Y-16861D01*
X22475Y-16895D01*
X22475Y-17104D01*
X22555Y-17297D01*
X22702Y-17445D01*
X22835Y-17500D01*
X22703Y-17555D01*
X22555Y-17702D01*
X22475Y-17895D01*
X22475Y-18104D01*
X22555Y-18297D01*
X22702Y-18445D01*
X22776Y-18476D01*
X22676Y-18476D01*
X22584Y-18514D01*
X22514Y-18584D01*
X22476Y-18675D01*
X22476Y-18774D01*
X22476Y-19324D01*
X22514Y-19416D01*
X22584Y-19486D01*
X22675Y-19524D01*
X22774Y-19524D01*
X23297Y-19524D01*
X23297Y-19976D01*
M02*
