G04 (created by PCBNEW (2011-12-28 BZR 3254)-stable) date 2012. 03. 26. 13:08:59*
G01*
G70*
G90*
%MOIN*%
G04 Gerber Fmt 3.4, Leading zero omitted, Abs format*
%FSLAX34Y34*%
G04 APERTURE LIST*
%ADD10C,0.001000*%
%ADD11C,0.015000*%
%ADD12C,0.008000*%
G04 APERTURE END LIST*
G54D10*
G54D11*
X23622Y-04724D02*
X04724Y-04724D01*
X23622Y-24213D02*
X23622Y-04724D01*
X04724Y-24213D02*
X23622Y-24213D01*
X04724Y-04724D02*
X04724Y-24213D01*
G54D10*
X10659Y-21297D02*
X11565Y-22203D01*
X11565Y-21297D02*
X10659Y-22203D01*
G54D12*
X04907Y-27155D02*
X04907Y-26355D01*
X05098Y-26355D01*
X05212Y-26393D01*
X05288Y-26469D01*
X05327Y-26545D01*
X05365Y-26698D01*
X05365Y-26812D01*
X05327Y-26964D01*
X05288Y-27041D01*
X05212Y-27117D01*
X05098Y-27155D01*
X04907Y-27155D01*
X05707Y-27155D02*
X05707Y-26621D01*
X05707Y-26774D02*
X05746Y-26698D01*
X05784Y-26660D01*
X05860Y-26621D01*
X05936Y-26621D01*
X06202Y-27155D02*
X06202Y-26621D01*
X06202Y-26355D02*
X06164Y-26393D01*
X06202Y-26431D01*
X06241Y-26393D01*
X06202Y-26355D01*
X06202Y-26431D01*
X06698Y-27155D02*
X06622Y-27117D01*
X06583Y-27041D01*
X06583Y-26355D01*
X07117Y-27155D02*
X07041Y-27117D01*
X07002Y-27041D01*
X07002Y-26355D01*
X08031Y-27155D02*
X08031Y-26355D01*
X08298Y-26926D01*
X08565Y-26355D01*
X08565Y-27155D01*
X09288Y-27155D02*
X09288Y-26736D01*
X09250Y-26660D01*
X09174Y-26621D01*
X09022Y-26621D01*
X08945Y-26660D01*
X09288Y-27117D02*
X09212Y-27155D01*
X09022Y-27155D01*
X08945Y-27117D01*
X08907Y-27041D01*
X08907Y-26964D01*
X08945Y-26888D01*
X09022Y-26850D01*
X09212Y-26850D01*
X09288Y-26812D01*
X09669Y-26621D02*
X09669Y-27421D01*
X09669Y-26660D02*
X09746Y-26621D01*
X09898Y-26621D01*
X09974Y-26660D01*
X10012Y-26698D01*
X10050Y-26774D01*
X10050Y-27002D01*
X10012Y-27079D01*
X09974Y-27117D01*
X09898Y-27155D01*
X09746Y-27155D01*
X09669Y-27117D01*
X10393Y-27079D02*
X10432Y-27117D01*
X10393Y-27155D01*
X10355Y-27117D01*
X10393Y-27079D01*
X10393Y-27155D01*
X10393Y-26660D02*
X10432Y-26698D01*
X10393Y-26736D01*
X10355Y-26698D01*
X10393Y-26660D01*
X10393Y-26736D01*
X03611Y-28058D02*
X04517Y-28964D01*
X04517Y-28058D02*
X03611Y-28964D01*
X04869Y-28111D02*
X04907Y-28073D01*
X04984Y-28035D01*
X05174Y-28035D01*
X05250Y-28073D01*
X05288Y-28111D01*
X05327Y-28187D01*
X05327Y-28263D01*
X05288Y-28378D01*
X04831Y-28835D01*
X05327Y-28835D01*
X05669Y-28759D02*
X05708Y-28797D01*
X05669Y-28835D01*
X05631Y-28797D01*
X05669Y-28759D01*
X05669Y-28835D01*
X05974Y-28035D02*
X06470Y-28035D01*
X06203Y-28340D01*
X06317Y-28340D01*
X06393Y-28378D01*
X06431Y-28416D01*
X06470Y-28492D01*
X06470Y-28682D01*
X06431Y-28759D01*
X06393Y-28797D01*
X06317Y-28835D01*
X06089Y-28835D01*
X06012Y-28797D01*
X05974Y-28759D01*
X06965Y-28035D02*
X07041Y-28035D01*
X07117Y-28073D01*
X07155Y-28111D01*
X07193Y-28187D01*
X07232Y-28340D01*
X07232Y-28530D01*
X07193Y-28682D01*
X07155Y-28759D01*
X07117Y-28797D01*
X07041Y-28835D01*
X06965Y-28835D01*
X06889Y-28797D01*
X06851Y-28759D01*
X06812Y-28682D01*
X06774Y-28530D01*
X06774Y-28340D01*
X06812Y-28187D01*
X06851Y-28111D01*
X06889Y-28073D01*
X06965Y-28035D01*
X07574Y-28835D02*
X07574Y-28301D01*
X07574Y-28378D02*
X07613Y-28340D01*
X07689Y-28301D01*
X07803Y-28301D01*
X07879Y-28340D01*
X07917Y-28416D01*
X07917Y-28835D01*
X07917Y-28416D02*
X07955Y-28340D01*
X08032Y-28301D01*
X08146Y-28301D01*
X08222Y-28340D01*
X08260Y-28416D01*
X08260Y-28835D01*
X08641Y-28835D02*
X08641Y-28301D01*
X08641Y-28378D02*
X08680Y-28340D01*
X08756Y-28301D01*
X08870Y-28301D01*
X08946Y-28340D01*
X08984Y-28416D01*
X08984Y-28835D01*
X08984Y-28416D02*
X09022Y-28340D01*
X09099Y-28301D01*
X09213Y-28301D01*
X09289Y-28340D01*
X09327Y-28416D01*
X09327Y-28835D01*
X10890Y-27997D02*
X10204Y-29025D01*
X11919Y-28035D02*
X11995Y-28035D01*
X12071Y-28073D01*
X12109Y-28111D01*
X12147Y-28187D01*
X12186Y-28340D01*
X12186Y-28530D01*
X12147Y-28682D01*
X12109Y-28759D01*
X12071Y-28797D01*
X11995Y-28835D01*
X11919Y-28835D01*
X11843Y-28797D01*
X11805Y-28759D01*
X11766Y-28682D01*
X11728Y-28530D01*
X11728Y-28340D01*
X11766Y-28187D01*
X11805Y-28111D01*
X11843Y-28073D01*
X11919Y-28035D01*
X12528Y-28759D02*
X12567Y-28797D01*
X12528Y-28835D01*
X12490Y-28797D01*
X12528Y-28759D01*
X12528Y-28835D01*
X13062Y-28035D02*
X13138Y-28035D01*
X13214Y-28073D01*
X13252Y-28111D01*
X13290Y-28187D01*
X13329Y-28340D01*
X13329Y-28530D01*
X13290Y-28682D01*
X13252Y-28759D01*
X13214Y-28797D01*
X13138Y-28835D01*
X13062Y-28835D01*
X12986Y-28797D01*
X12948Y-28759D01*
X12909Y-28682D01*
X12871Y-28530D01*
X12871Y-28340D01*
X12909Y-28187D01*
X12948Y-28111D01*
X12986Y-28073D01*
X13062Y-28035D01*
X13710Y-28835D02*
X13862Y-28835D01*
X13938Y-28797D01*
X13976Y-28759D01*
X14052Y-28644D01*
X14091Y-28492D01*
X14091Y-28187D01*
X14052Y-28111D01*
X14014Y-28073D01*
X13938Y-28035D01*
X13786Y-28035D01*
X13710Y-28073D01*
X13671Y-28111D01*
X13633Y-28187D01*
X13633Y-28378D01*
X13671Y-28454D01*
X13710Y-28492D01*
X13786Y-28530D01*
X13938Y-28530D01*
X14014Y-28492D01*
X14052Y-28454D01*
X14091Y-28378D01*
X14853Y-28835D02*
X14395Y-28835D01*
X14624Y-28835D02*
X14624Y-28035D01*
X14548Y-28149D01*
X14472Y-28225D01*
X14395Y-28263D01*
X15157Y-28035D02*
X15157Y-28187D01*
X15462Y-28035D02*
X15462Y-28187D01*
X16644Y-29140D02*
X16606Y-29101D01*
X16530Y-28987D01*
X16492Y-28911D01*
X16454Y-28797D01*
X16415Y-28606D01*
X16415Y-28454D01*
X16454Y-28263D01*
X16492Y-28149D01*
X16530Y-28073D01*
X16606Y-27959D01*
X16644Y-27921D01*
X17368Y-28835D02*
X16910Y-28835D01*
X17139Y-28835D02*
X17139Y-28035D01*
X17063Y-28149D01*
X16987Y-28225D01*
X16910Y-28263D01*
X18320Y-28835D02*
X18320Y-28035D01*
X18663Y-28835D02*
X18663Y-28416D01*
X18625Y-28340D01*
X18549Y-28301D01*
X18435Y-28301D01*
X18359Y-28340D01*
X18320Y-28378D01*
X19159Y-28835D02*
X19083Y-28797D01*
X19044Y-28759D01*
X19006Y-28682D01*
X19006Y-28454D01*
X19044Y-28378D01*
X19083Y-28340D01*
X19159Y-28301D01*
X19273Y-28301D01*
X19349Y-28340D01*
X19387Y-28378D01*
X19425Y-28454D01*
X19425Y-28682D01*
X19387Y-28759D01*
X19349Y-28797D01*
X19273Y-28835D01*
X19159Y-28835D01*
X19883Y-28835D02*
X19807Y-28797D01*
X19768Y-28721D01*
X19768Y-28035D01*
X20492Y-28797D02*
X20416Y-28835D01*
X20264Y-28835D01*
X20187Y-28797D01*
X20149Y-28721D01*
X20149Y-28416D01*
X20187Y-28340D01*
X20264Y-28301D01*
X20416Y-28301D01*
X20492Y-28340D01*
X20530Y-28416D01*
X20530Y-28492D01*
X20149Y-28568D01*
X20797Y-29140D02*
X20835Y-29101D01*
X20912Y-28987D01*
X20950Y-28911D01*
X20988Y-28797D01*
X21026Y-28606D01*
X21026Y-28454D01*
X20988Y-28263D01*
X20950Y-28149D01*
X20912Y-28073D01*
X20835Y-27959D01*
X20797Y-27921D01*
M02*
