G04 (created by PCBNEW-RS274X (2011-12-28 BZR 3254)-stable) date 2012. 03. 22. 18:32:50*
G01*
G70*
G90*
%MOIN*%
G04 Gerber Fmt 3.4, Leading zero omitted, Abs format*
%FSLAX34Y34*%
G04 APERTURE LIST*
%ADD10C,0.006000*%
%ADD11C,0.015000*%
%ADD12C,0.060000*%
%ADD13C,0.106300*%
%ADD14R,0.055000X0.055000*%
%ADD15C,0.055000*%
%ADD16O,0.120000X0.060000*%
%ADD17C,0.035000*%
%ADD18C,0.019900*%
%ADD19C,0.010000*%
G04 APERTURE END LIST*
G54D10*
G54D11*
X04724Y-24409D02*
X04724Y-04724D01*
X24409Y-24409D02*
X04724Y-24409D01*
X24409Y-04724D02*
X24409Y-24409D01*
X04724Y-04724D02*
X24409Y-04724D01*
G54D12*
X09250Y-19900D03*
X08250Y-19900D03*
X08250Y-20687D03*
X09250Y-20687D03*
G54D13*
X11112Y-21750D03*
X06388Y-21750D03*
G54D14*
X23500Y-19000D03*
G54D15*
X23500Y-18000D03*
X23500Y-17000D03*
X23500Y-16000D03*
X23500Y-15000D03*
X23500Y-14000D03*
X23500Y-13000D03*
X23500Y-12000D03*
G54D14*
X12500Y-17000D03*
G54D15*
X12500Y-16000D03*
X12500Y-15000D03*
X12500Y-14000D03*
X12500Y-13000D03*
X12500Y-12000D03*
G54D14*
X05500Y-17000D03*
G54D15*
X05500Y-16000D03*
X05500Y-15000D03*
X05500Y-14000D03*
X05500Y-13000D03*
X05500Y-12000D03*
G54D14*
X15500Y-05500D03*
G54D15*
X16500Y-05500D03*
X17500Y-05500D03*
X18500Y-05500D03*
X19500Y-05500D03*
G54D14*
X19500Y-10500D03*
G54D15*
X20500Y-10500D03*
X21500Y-10500D03*
X22500Y-10500D03*
X23500Y-10500D03*
G54D14*
X09500Y-10500D03*
G54D15*
X10500Y-10500D03*
X11500Y-10500D03*
X12500Y-10500D03*
X13500Y-10500D03*
G54D14*
X05500Y-05500D03*
G54D15*
X06500Y-05500D03*
X07500Y-05500D03*
X08500Y-05500D03*
X09500Y-05500D03*
G54D14*
X20500Y-05500D03*
G54D15*
X21500Y-05500D03*
X22500Y-05500D03*
X23500Y-05500D03*
G54D14*
X10500Y-05500D03*
G54D15*
X11500Y-05500D03*
X12500Y-05500D03*
X13500Y-05500D03*
G54D14*
X14500Y-17000D03*
G54D15*
X14500Y-16000D03*
X14500Y-15000D03*
X14500Y-14000D03*
G54D14*
X19000Y-20500D03*
G54D15*
X19000Y-21500D03*
X19000Y-22500D03*
X19000Y-23500D03*
G54D14*
X10500Y-18000D03*
G54D15*
X11500Y-18000D03*
X12500Y-18000D03*
G54D14*
X05500Y-18250D03*
G54D15*
X06500Y-18250D03*
X05500Y-20500D03*
X05500Y-23500D03*
G54D16*
X20000Y-19000D03*
X18000Y-18500D03*
X20000Y-18000D03*
X18000Y-17500D03*
X20000Y-17000D03*
X18000Y-16500D03*
X20000Y-16000D03*
X18000Y-15500D03*
X20000Y-15000D03*
X18000Y-14500D03*
X20000Y-14000D03*
X18000Y-13500D03*
X20000Y-13000D03*
X18000Y-12500D03*
X20000Y-12000D03*
G54D14*
X17500Y-23500D03*
G54D15*
X14500Y-23500D03*
G54D14*
X23500Y-23500D03*
G54D15*
X20500Y-23500D03*
G54D14*
X17500Y-22500D03*
G54D15*
X14500Y-22500D03*
G54D14*
X23500Y-22500D03*
G54D15*
X20500Y-22500D03*
G54D14*
X17500Y-21500D03*
G54D15*
X14500Y-21500D03*
G54D14*
X23500Y-21500D03*
G54D15*
X20500Y-21500D03*
G54D14*
X17500Y-20500D03*
G54D15*
X14500Y-20500D03*
G54D14*
X23500Y-20500D03*
G54D15*
X20500Y-20500D03*
X08750Y-18250D03*
X08750Y-17250D03*
X07500Y-08500D03*
X07500Y-07500D03*
X17500Y-08500D03*
X17500Y-07500D03*
G54D14*
X12250Y-20500D03*
G54D15*
X12250Y-19500D03*
G54D17*
X21750Y-18000D03*
X22750Y-16500D03*
X21250Y-14250D03*
X10500Y-08000D03*
X08000Y-14500D03*
X07500Y-17000D03*
X10000Y-14500D03*
X20500Y-08000D03*
X16750Y-18750D03*
X09500Y-15500D03*
X21250Y-17500D03*
G54D18*
X16000Y-19250D02*
X16250Y-19500D01*
X14500Y-15000D02*
X15250Y-15000D01*
X19500Y-19500D02*
X20000Y-19000D01*
X16250Y-19500D02*
X19500Y-19500D01*
X16000Y-15750D02*
X16000Y-19250D01*
X15250Y-15000D02*
X16000Y-15750D01*
G54D19*
X23500Y-15000D02*
X21250Y-15000D01*
X20750Y-14500D02*
X18000Y-14500D01*
X21250Y-15000D02*
X20750Y-14500D01*
X21750Y-18000D02*
X22750Y-19000D01*
X22750Y-19000D02*
X23500Y-19000D01*
X22750Y-16500D02*
X18000Y-16500D01*
X20000Y-17000D02*
X23500Y-17000D01*
G54D18*
X20500Y-21500D02*
X17500Y-21500D01*
G54D19*
X21500Y-14000D02*
X23500Y-14000D01*
X21250Y-14250D02*
X21500Y-14000D01*
X21250Y-19750D02*
X22750Y-19750D01*
X22750Y-19750D02*
X23500Y-20500D01*
X18000Y-17500D02*
X20750Y-17500D01*
X21000Y-19500D02*
X21250Y-19750D01*
X21000Y-17750D02*
X21000Y-19500D01*
X20750Y-17500D02*
X21000Y-17750D01*
X10500Y-08000D02*
X10000Y-07500D01*
X08750Y-07500D02*
X07750Y-06500D01*
X05500Y-06250D02*
X05500Y-05500D01*
X10000Y-07500D02*
X08750Y-07500D01*
X07750Y-06500D02*
X05750Y-06500D01*
X05750Y-06500D02*
X05500Y-06250D01*
G54D18*
X17500Y-22500D02*
X20500Y-22500D01*
X17500Y-20500D02*
X20500Y-20500D01*
G54D19*
X20000Y-14000D02*
X20500Y-14000D01*
X20500Y-14000D02*
X22500Y-12000D01*
X22500Y-12000D02*
X23500Y-12000D01*
X20000Y-16000D02*
X23500Y-16000D01*
G54D18*
X19750Y-11750D02*
X20000Y-12000D01*
X14500Y-14000D02*
X16750Y-11750D01*
X16750Y-11750D02*
X19750Y-11750D01*
G54D19*
X07750Y-14750D02*
X06500Y-14750D01*
X08000Y-14500D02*
X07750Y-14750D01*
X06250Y-15000D02*
X06250Y-16250D01*
X06500Y-14750D02*
X06250Y-15000D01*
X06250Y-16250D02*
X05500Y-17000D01*
G54D18*
X11500Y-18500D02*
X10750Y-19250D01*
G54D19*
X06500Y-17250D02*
X05500Y-18250D01*
G54D18*
X10000Y-19250D02*
X09750Y-19250D01*
X10750Y-19250D02*
X10000Y-19250D01*
X09750Y-19250D02*
X08750Y-18250D01*
X11500Y-18000D02*
X11500Y-18500D01*
G54D19*
X07500Y-17000D02*
X07250Y-17250D01*
X07250Y-17250D02*
X06500Y-17250D01*
G54D18*
X10000Y-20250D02*
X10000Y-19250D01*
X12250Y-19250D02*
X11500Y-18500D01*
X09250Y-20687D02*
X09250Y-21000D01*
X05500Y-18750D02*
X05500Y-18250D01*
X06750Y-20000D02*
X05500Y-18750D01*
X06750Y-20750D02*
X06750Y-20000D01*
X07500Y-21500D02*
X06750Y-20750D01*
X08750Y-21500D02*
X07500Y-21500D01*
X09250Y-21000D02*
X08750Y-21500D01*
X09250Y-20687D02*
X09563Y-20687D01*
X09563Y-20687D02*
X10000Y-20250D01*
X12250Y-19500D02*
X12250Y-19250D01*
G54D19*
X11750Y-16250D02*
X12500Y-17000D01*
X10000Y-14500D02*
X10250Y-14750D01*
X10250Y-14750D02*
X11500Y-14750D01*
X11500Y-14750D02*
X11750Y-15000D01*
X11750Y-15000D02*
X11750Y-16250D01*
X15750Y-06500D02*
X15500Y-06250D01*
X20500Y-08000D02*
X20000Y-07500D01*
X15500Y-06250D02*
X15500Y-05500D01*
X20000Y-07500D02*
X18750Y-07500D01*
X18750Y-07500D02*
X17750Y-06500D01*
X17750Y-06500D02*
X15750Y-06500D01*
G54D18*
X18000Y-12500D02*
X17000Y-12500D01*
X17500Y-23500D02*
X19000Y-23500D01*
X16750Y-12750D02*
X16750Y-18750D01*
X17000Y-12500D02*
X16750Y-12750D01*
X19000Y-23500D02*
X20500Y-23500D01*
G54D19*
X07000Y-18250D02*
X08000Y-17250D01*
X08000Y-17250D02*
X08000Y-16500D01*
X08000Y-16500D02*
X09000Y-15500D01*
X09000Y-15500D02*
X09500Y-15500D01*
X06500Y-18250D02*
X07000Y-18250D01*
X14500Y-16000D02*
X15250Y-16000D01*
X15500Y-17750D02*
X14500Y-18750D01*
X15500Y-16250D02*
X15500Y-17750D01*
X21250Y-17500D02*
X22500Y-17500D01*
X14500Y-18750D02*
X14500Y-20500D01*
X15250Y-16000D02*
X15500Y-16250D01*
X23000Y-18000D02*
X23500Y-18000D01*
X22500Y-17500D02*
X23000Y-18000D01*
G54D10*
G36*
X05276Y-16476D02*
X05176Y-16476D01*
X05084Y-16514D01*
X05049Y-16549D01*
X05049Y-16282D01*
X05055Y-16297D01*
X05202Y-16445D01*
X05276Y-16476D01*
X05276Y-16476D01*
G37*
G54D19*
X05276Y-16476D02*
X05176Y-16476D01*
X05084Y-16514D01*
X05049Y-16549D01*
X05049Y-16282D01*
X05055Y-16297D01*
X05202Y-16445D01*
X05276Y-16476D01*
G54D10*
G36*
X05335Y-12500D02*
X05203Y-12555D01*
X05055Y-12702D01*
X05049Y-12716D01*
X05049Y-12282D01*
X05055Y-12297D01*
X05202Y-12445D01*
X05335Y-12500D01*
X05335Y-12500D01*
G37*
G54D19*
X05335Y-12500D02*
X05203Y-12555D01*
X05055Y-12702D01*
X05049Y-12716D01*
X05049Y-12282D01*
X05055Y-12297D01*
X05202Y-12445D01*
X05335Y-12500D01*
G54D10*
G36*
X05335Y-13500D02*
X05203Y-13555D01*
X05055Y-13702D01*
X05049Y-13716D01*
X05049Y-13282D01*
X05055Y-13297D01*
X05202Y-13445D01*
X05335Y-13500D01*
X05335Y-13500D01*
G37*
G54D19*
X05335Y-13500D02*
X05203Y-13555D01*
X05055Y-13702D01*
X05049Y-13716D01*
X05049Y-13282D01*
X05055Y-13297D01*
X05202Y-13445D01*
X05335Y-13500D01*
G54D10*
G36*
X05335Y-14500D02*
X05203Y-14555D01*
X05055Y-14702D01*
X05049Y-14716D01*
X05049Y-14282D01*
X05055Y-14297D01*
X05202Y-14445D01*
X05335Y-14500D01*
X05335Y-14500D01*
G37*
G54D19*
X05335Y-14500D02*
X05203Y-14555D01*
X05055Y-14702D01*
X05049Y-14716D01*
X05049Y-14282D01*
X05055Y-14297D01*
X05202Y-14445D01*
X05335Y-14500D01*
G54D10*
G36*
X05335Y-15500D02*
X05203Y-15555D01*
X05055Y-15702D01*
X05049Y-15716D01*
X05049Y-15282D01*
X05055Y-15297D01*
X05202Y-15445D01*
X05335Y-15500D01*
X05335Y-15500D01*
G37*
G54D19*
X05335Y-15500D02*
X05203Y-15555D01*
X05055Y-15702D01*
X05049Y-15716D01*
X05049Y-15282D01*
X05055Y-15297D01*
X05202Y-15445D01*
X05335Y-15500D01*
G54D10*
G36*
X05802Y-17524D02*
X05600Y-17726D01*
X05176Y-17726D01*
X05084Y-17764D01*
X05049Y-17799D01*
X05049Y-17451D01*
X05084Y-17486D01*
X05175Y-17524D01*
X05274Y-17524D01*
X05802Y-17524D01*
X05802Y-17524D01*
G37*
G54D19*
X05802Y-17524D02*
X05600Y-17726D01*
X05176Y-17726D01*
X05084Y-17764D01*
X05049Y-17799D01*
X05049Y-17451D01*
X05084Y-17486D01*
X05175Y-17524D01*
X05274Y-17524D01*
X05802Y-17524D01*
G54D10*
G36*
X05950Y-15715D02*
X05945Y-15703D01*
X05798Y-15555D01*
X05664Y-15499D01*
X05797Y-15445D01*
X05945Y-15298D01*
X05950Y-15285D01*
X05950Y-15715D01*
X05950Y-15715D01*
G37*
G54D19*
X05950Y-15715D02*
X05945Y-15703D01*
X05798Y-15555D01*
X05664Y-15499D01*
X05797Y-15445D01*
X05945Y-15298D01*
X05950Y-15285D01*
X05950Y-15715D01*
G54D10*
G36*
X06217Y-05049D02*
X06203Y-05055D01*
X06055Y-05202D01*
X06024Y-05276D01*
X06024Y-05176D01*
X05986Y-05084D01*
X05951Y-05049D01*
X06217Y-05049D01*
X06217Y-05049D01*
G37*
G54D19*
X06217Y-05049D02*
X06203Y-05055D01*
X06055Y-05202D01*
X06024Y-05276D01*
X06024Y-05176D01*
X05986Y-05084D01*
X05951Y-05049D01*
X06217Y-05049D01*
G54D10*
G36*
X07217Y-05049D02*
X07203Y-05055D01*
X07055Y-05202D01*
X06999Y-05335D01*
X06945Y-05203D01*
X06798Y-05055D01*
X06783Y-05049D01*
X07217Y-05049D01*
X07217Y-05049D01*
G37*
G54D19*
X07217Y-05049D02*
X07203Y-05055D01*
X07055Y-05202D01*
X06999Y-05335D01*
X06945Y-05203D01*
X06798Y-05055D01*
X06783Y-05049D01*
X07217Y-05049D01*
G54D10*
G36*
X07282Y-17543D02*
X06909Y-17916D01*
X06798Y-17805D01*
X06605Y-17725D01*
X06449Y-17725D01*
X06624Y-17550D01*
X07250Y-17550D01*
X07282Y-17543D01*
X07282Y-17543D01*
G37*
G54D19*
X07282Y-17543D02*
X06909Y-17916D01*
X06798Y-17805D01*
X06605Y-17725D01*
X06449Y-17725D01*
X06624Y-17550D01*
X07250Y-17550D01*
X07282Y-17543D01*
G54D10*
G36*
X08217Y-05049D02*
X08203Y-05055D01*
X08055Y-05202D01*
X07999Y-05335D01*
X07945Y-05203D01*
X07798Y-05055D01*
X07783Y-05049D01*
X08217Y-05049D01*
X08217Y-05049D01*
G37*
G54D19*
X08217Y-05049D02*
X08203Y-05055D01*
X08055Y-05202D01*
X07999Y-05335D01*
X07945Y-05203D01*
X07798Y-05055D01*
X07783Y-05049D01*
X08217Y-05049D01*
G54D10*
G36*
X08777Y-20978D02*
X08605Y-21151D01*
X08562Y-21151D01*
X08715Y-20998D01*
X08750Y-20913D01*
X08777Y-20978D01*
X08777Y-20978D01*
G37*
G54D19*
X08777Y-20978D02*
X08605Y-21151D01*
X08562Y-21151D01*
X08715Y-20998D01*
X08750Y-20913D01*
X08777Y-20978D01*
G54D10*
G36*
X08867Y-20293D02*
X08785Y-20376D01*
X08750Y-20460D01*
X08715Y-20376D01*
X08632Y-20293D01*
X08715Y-20211D01*
X08750Y-20126D01*
X08785Y-20211D01*
X08867Y-20293D01*
X08867Y-20293D01*
G37*
G54D19*
X08867Y-20293D02*
X08785Y-20376D01*
X08750Y-20460D01*
X08715Y-20376D01*
X08632Y-20293D01*
X08715Y-20211D01*
X08750Y-20126D01*
X08785Y-20211D01*
X08867Y-20293D01*
G54D10*
G36*
X09217Y-05049D02*
X09203Y-05055D01*
X09055Y-05202D01*
X08999Y-05335D01*
X08945Y-05203D01*
X08798Y-05055D01*
X08783Y-05049D01*
X09217Y-05049D01*
X09217Y-05049D01*
G37*
G54D19*
X09217Y-05049D02*
X09203Y-05055D01*
X09055Y-05202D01*
X08999Y-05335D01*
X08945Y-05203D01*
X08798Y-05055D01*
X08783Y-05049D01*
X09217Y-05049D01*
G54D10*
G36*
X09357Y-19351D02*
X09141Y-19351D01*
X08939Y-19435D01*
X08785Y-19589D01*
X08750Y-19673D01*
X08715Y-19589D01*
X08561Y-19435D01*
X08359Y-19351D01*
X08141Y-19351D01*
X07939Y-19435D01*
X07785Y-19589D01*
X07701Y-19791D01*
X07701Y-20009D01*
X07785Y-20211D01*
X07867Y-20293D01*
X07785Y-20376D01*
X07701Y-20578D01*
X07701Y-20796D01*
X07785Y-20998D01*
X07938Y-21151D01*
X07644Y-21151D01*
X07099Y-20605D01*
X07099Y-20000D01*
X07098Y-19999D01*
X07099Y-19999D01*
X07085Y-19933D01*
X07072Y-19867D01*
X07072Y-19866D01*
X06997Y-19753D01*
X06994Y-19751D01*
X05947Y-18704D01*
X05986Y-18666D01*
X06024Y-18575D01*
X06024Y-18476D01*
X06024Y-18472D01*
X06055Y-18547D01*
X06202Y-18695D01*
X06395Y-18775D01*
X06604Y-18775D01*
X06797Y-18695D01*
X06942Y-18550D01*
X07000Y-18550D01*
X07115Y-18527D01*
X07212Y-18462D01*
X08212Y-17462D01*
X08247Y-17408D01*
X08305Y-17547D01*
X08452Y-17695D01*
X08585Y-17750D01*
X08453Y-17805D01*
X08305Y-17952D01*
X08225Y-18145D01*
X08225Y-18354D01*
X08305Y-18547D01*
X08452Y-18695D01*
X08645Y-18775D01*
X08781Y-18775D01*
X09357Y-19351D01*
X09357Y-19351D01*
G37*
G54D19*
X09357Y-19351D02*
X09141Y-19351D01*
X08939Y-19435D01*
X08785Y-19589D01*
X08750Y-19673D01*
X08715Y-19589D01*
X08561Y-19435D01*
X08359Y-19351D01*
X08141Y-19351D01*
X07939Y-19435D01*
X07785Y-19589D01*
X07701Y-19791D01*
X07701Y-20009D01*
X07785Y-20211D01*
X07867Y-20293D01*
X07785Y-20376D01*
X07701Y-20578D01*
X07701Y-20796D01*
X07785Y-20998D01*
X07938Y-21151D01*
X07644Y-21151D01*
X07099Y-20605D01*
X07099Y-20000D01*
X07098Y-19999D01*
X07099Y-19999D01*
X07085Y-19933D01*
X07072Y-19867D01*
X07072Y-19866D01*
X06997Y-19753D01*
X06994Y-19751D01*
X05947Y-18704D01*
X05986Y-18666D01*
X06024Y-18575D01*
X06024Y-18476D01*
X06024Y-18472D01*
X06055Y-18547D01*
X06202Y-18695D01*
X06395Y-18775D01*
X06604Y-18775D01*
X06797Y-18695D01*
X06942Y-18550D01*
X07000Y-18550D01*
X07115Y-18527D01*
X07212Y-18462D01*
X08212Y-17462D01*
X08247Y-17408D01*
X08305Y-17547D01*
X08452Y-17695D01*
X08585Y-17750D01*
X08453Y-17805D01*
X08305Y-17952D01*
X08225Y-18145D01*
X08225Y-18354D01*
X08305Y-18547D01*
X08452Y-18695D01*
X08645Y-18775D01*
X08781Y-18775D01*
X09357Y-19351D01*
G54D10*
G36*
X10049Y-05049D02*
X10014Y-05084D01*
X09976Y-05175D01*
X09976Y-05274D01*
X09976Y-05277D01*
X09945Y-05203D01*
X09798Y-05055D01*
X09783Y-05049D01*
X10049Y-05049D01*
X10049Y-05049D01*
G37*
G54D19*
X10049Y-05049D02*
X10014Y-05084D01*
X09976Y-05175D01*
X09976Y-05274D01*
X09976Y-05277D01*
X09945Y-05203D01*
X09798Y-05055D01*
X09783Y-05049D01*
X10049Y-05049D01*
G54D10*
G36*
X11217Y-05049D02*
X11203Y-05055D01*
X11055Y-05202D01*
X11024Y-05276D01*
X11024Y-05176D01*
X10986Y-05084D01*
X10951Y-05049D01*
X11217Y-05049D01*
X11217Y-05049D01*
G37*
G54D19*
X11217Y-05049D02*
X11203Y-05055D01*
X11055Y-05202D01*
X11024Y-05276D01*
X11024Y-05176D01*
X10986Y-05084D01*
X10951Y-05049D01*
X11217Y-05049D01*
G54D10*
G36*
X12217Y-05049D02*
X12203Y-05055D01*
X12055Y-05202D01*
X11999Y-05335D01*
X11945Y-05203D01*
X11798Y-05055D01*
X11783Y-05049D01*
X12217Y-05049D01*
X12217Y-05049D01*
G37*
G54D19*
X12217Y-05049D02*
X12203Y-05055D01*
X12055Y-05202D01*
X11999Y-05335D01*
X11945Y-05203D01*
X11798Y-05055D01*
X11783Y-05049D01*
X12217Y-05049D01*
G54D10*
G36*
X12335Y-15500D02*
X12203Y-15555D01*
X12055Y-15702D01*
X12050Y-15714D01*
X12050Y-15284D01*
X12055Y-15297D01*
X12202Y-15445D01*
X12335Y-15500D01*
X12335Y-15500D01*
G37*
G54D19*
X12335Y-15500D02*
X12203Y-15555D01*
X12055Y-15702D01*
X12050Y-15714D01*
X12050Y-15284D01*
X12055Y-15297D01*
X12202Y-15445D01*
X12335Y-15500D01*
G54D10*
G36*
X13217Y-05049D02*
X13203Y-05055D01*
X13055Y-05202D01*
X12999Y-05335D01*
X12945Y-05203D01*
X12798Y-05055D01*
X12783Y-05049D01*
X13217Y-05049D01*
X13217Y-05049D01*
G37*
G54D19*
X13217Y-05049D02*
X13203Y-05055D01*
X13055Y-05202D01*
X12999Y-05335D01*
X12945Y-05203D01*
X12798Y-05055D01*
X12783Y-05049D01*
X13217Y-05049D01*
G54D10*
G36*
X15651Y-15976D02*
X15462Y-15788D01*
X15365Y-15723D01*
X15250Y-15700D01*
X14942Y-15700D01*
X14798Y-15555D01*
X14664Y-15499D01*
X14797Y-15445D01*
X14893Y-15349D01*
X15105Y-15349D01*
X15651Y-15894D01*
X15651Y-15976D01*
X15651Y-15976D01*
G37*
G54D19*
X15651Y-15976D02*
X15462Y-15788D01*
X15365Y-15723D01*
X15250Y-15700D01*
X14942Y-15700D01*
X14798Y-15555D01*
X14664Y-15499D01*
X14797Y-15445D01*
X14893Y-15349D01*
X15105Y-15349D01*
X15651Y-15894D01*
X15651Y-15976D01*
G54D10*
G36*
X16217Y-05049D02*
X16203Y-05055D01*
X16055Y-05202D01*
X16024Y-05276D01*
X16024Y-05176D01*
X15986Y-05084D01*
X15951Y-05049D01*
X16217Y-05049D01*
X16217Y-05049D01*
G37*
G54D19*
X16217Y-05049D02*
X16203Y-05055D01*
X16055Y-05202D01*
X16024Y-05276D01*
X16024Y-05176D01*
X15986Y-05084D01*
X15951Y-05049D01*
X16217Y-05049D01*
G54D10*
G36*
X16607Y-19151D02*
X16394Y-19151D01*
X16349Y-19105D01*
X16349Y-18892D01*
X16389Y-18990D01*
X16509Y-19110D01*
X16607Y-19151D01*
X16607Y-19151D01*
G37*
G54D19*
X16607Y-19151D02*
X16394Y-19151D01*
X16349Y-19105D01*
X16349Y-18892D01*
X16389Y-18990D01*
X16509Y-19110D01*
X16607Y-19151D01*
G54D10*
G36*
X17217Y-05049D02*
X17203Y-05055D01*
X17055Y-05202D01*
X16999Y-05335D01*
X16945Y-05203D01*
X16798Y-05055D01*
X16783Y-05049D01*
X17217Y-05049D01*
X17217Y-05049D01*
G37*
G54D19*
X17217Y-05049D02*
X17203Y-05055D01*
X17055Y-05202D01*
X16999Y-05335D01*
X16945Y-05203D01*
X16798Y-05055D01*
X16783Y-05049D01*
X17217Y-05049D01*
G54D10*
G36*
X17321Y-12099D02*
X17269Y-12151D01*
X17000Y-12151D01*
X16866Y-12178D01*
X16753Y-12253D01*
X16751Y-12255D01*
X16503Y-12503D01*
X16428Y-12616D01*
X16401Y-12750D01*
X16401Y-18498D01*
X16390Y-18509D01*
X16349Y-18607D01*
X16349Y-15750D01*
X16322Y-15617D01*
X16322Y-15616D01*
X16247Y-15503D01*
X16244Y-15501D01*
X15497Y-14753D01*
X15384Y-14678D01*
X15250Y-14651D01*
X14893Y-14651D01*
X14798Y-14555D01*
X14664Y-14499D01*
X14797Y-14445D01*
X14945Y-14298D01*
X15025Y-14105D01*
X15025Y-13968D01*
X16894Y-12099D01*
X17321Y-12099D01*
X17321Y-12099D01*
G37*
G54D19*
X17321Y-12099D02*
X17269Y-12151D01*
X17000Y-12151D01*
X16866Y-12178D01*
X16753Y-12253D01*
X16751Y-12255D01*
X16503Y-12503D01*
X16428Y-12616D01*
X16401Y-12750D01*
X16401Y-18498D01*
X16390Y-18509D01*
X16349Y-18607D01*
X16349Y-15750D01*
X16322Y-15617D01*
X16322Y-15616D01*
X16247Y-15503D01*
X16244Y-15501D01*
X15497Y-14753D01*
X15384Y-14678D01*
X15250Y-14651D01*
X14893Y-14651D01*
X14798Y-14555D01*
X14664Y-14499D01*
X14797Y-14445D01*
X14945Y-14298D01*
X15025Y-14105D01*
X15025Y-13968D01*
X16894Y-12099D01*
X17321Y-12099D01*
G54D10*
G36*
X17480Y-17999D02*
X17378Y-18042D01*
X17227Y-18194D01*
X17144Y-18392D01*
X17144Y-18590D01*
X17111Y-18510D01*
X17099Y-18498D01*
X17099Y-12894D01*
X17144Y-12849D01*
X17269Y-12849D01*
X17378Y-12957D01*
X17480Y-12999D01*
X17378Y-13042D01*
X17227Y-13194D01*
X17144Y-13392D01*
X17144Y-13607D01*
X17226Y-13806D01*
X17378Y-13957D01*
X17480Y-13999D01*
X17378Y-14042D01*
X17227Y-14194D01*
X17144Y-14392D01*
X17144Y-14607D01*
X17226Y-14806D01*
X17378Y-14957D01*
X17480Y-14999D01*
X17378Y-15042D01*
X17227Y-15194D01*
X17144Y-15392D01*
X17144Y-15607D01*
X17226Y-15806D01*
X17378Y-15957D01*
X17480Y-15999D01*
X17378Y-16042D01*
X17227Y-16194D01*
X17144Y-16392D01*
X17144Y-16607D01*
X17226Y-16806D01*
X17378Y-16957D01*
X17480Y-16999D01*
X17378Y-17042D01*
X17227Y-17194D01*
X17144Y-17392D01*
X17144Y-17607D01*
X17226Y-17806D01*
X17378Y-17957D01*
X17480Y-17999D01*
X17480Y-17999D01*
G37*
G54D19*
X17480Y-17999D02*
X17378Y-18042D01*
X17227Y-18194D01*
X17144Y-18392D01*
X17144Y-18590D01*
X17111Y-18510D01*
X17099Y-18498D01*
X17099Y-12894D01*
X17144Y-12849D01*
X17269Y-12849D01*
X17378Y-12957D01*
X17480Y-12999D01*
X17378Y-13042D01*
X17227Y-13194D01*
X17144Y-13392D01*
X17144Y-13607D01*
X17226Y-13806D01*
X17378Y-13957D01*
X17480Y-13999D01*
X17378Y-14042D01*
X17227Y-14194D01*
X17144Y-14392D01*
X17144Y-14607D01*
X17226Y-14806D01*
X17378Y-14957D01*
X17480Y-14999D01*
X17378Y-15042D01*
X17227Y-15194D01*
X17144Y-15392D01*
X17144Y-15607D01*
X17226Y-15806D01*
X17378Y-15957D01*
X17480Y-15999D01*
X17378Y-16042D01*
X17227Y-16194D01*
X17144Y-16392D01*
X17144Y-16607D01*
X17226Y-16806D01*
X17378Y-16957D01*
X17480Y-16999D01*
X17378Y-17042D01*
X17227Y-17194D01*
X17144Y-17392D01*
X17144Y-17607D01*
X17226Y-17806D01*
X17378Y-17957D01*
X17480Y-17999D01*
G54D10*
G36*
X18217Y-05049D02*
X18203Y-05055D01*
X18055Y-05202D01*
X17999Y-05335D01*
X17945Y-05203D01*
X17798Y-05055D01*
X17783Y-05049D01*
X18217Y-05049D01*
X18217Y-05049D01*
G37*
G54D19*
X18217Y-05049D02*
X18203Y-05055D01*
X18055Y-05202D01*
X17999Y-05335D01*
X17945Y-05203D01*
X17798Y-05055D01*
X17783Y-05049D01*
X18217Y-05049D01*
G54D10*
G36*
X18774Y-21024D02*
X18703Y-21055D01*
X18606Y-21151D01*
X18013Y-21151D01*
X17986Y-21084D01*
X17916Y-21014D01*
X17882Y-20999D01*
X17916Y-20986D01*
X17986Y-20916D01*
X18013Y-20849D01*
X18486Y-20849D01*
X18514Y-20916D01*
X18584Y-20986D01*
X18675Y-21024D01*
X18774Y-21024D01*
X18774Y-21024D01*
G37*
G54D19*
X18774Y-21024D02*
X18703Y-21055D01*
X18606Y-21151D01*
X18013Y-21151D01*
X17986Y-21084D01*
X17916Y-21014D01*
X17882Y-20999D01*
X17916Y-20986D01*
X17986Y-20916D01*
X18013Y-20849D01*
X18486Y-20849D01*
X18514Y-20916D01*
X18584Y-20986D01*
X18675Y-21024D01*
X18774Y-21024D01*
G54D10*
G36*
X18835Y-22000D02*
X18703Y-22055D01*
X18606Y-22151D01*
X18013Y-22151D01*
X17986Y-22084D01*
X17916Y-22014D01*
X17882Y-21999D01*
X17916Y-21986D01*
X17986Y-21916D01*
X18013Y-21849D01*
X18606Y-21849D01*
X18702Y-21945D01*
X18835Y-22000D01*
X18835Y-22000D01*
G37*
G54D19*
X18835Y-22000D02*
X18703Y-22055D01*
X18606Y-22151D01*
X18013Y-22151D01*
X17986Y-22084D01*
X17916Y-22014D01*
X17882Y-21999D01*
X17916Y-21986D01*
X17986Y-21916D01*
X18013Y-21849D01*
X18606Y-21849D01*
X18702Y-21945D01*
X18835Y-22000D01*
G54D10*
G36*
X18835Y-23000D02*
X18703Y-23055D01*
X18606Y-23151D01*
X18013Y-23151D01*
X17986Y-23084D01*
X17916Y-23014D01*
X17882Y-22999D01*
X17916Y-22986D01*
X17986Y-22916D01*
X18013Y-22849D01*
X18606Y-22849D01*
X18702Y-22945D01*
X18835Y-23000D01*
X18835Y-23000D01*
G37*
G54D19*
X18835Y-23000D02*
X18703Y-23055D01*
X18606Y-23151D01*
X18013Y-23151D01*
X17986Y-23084D01*
X17916Y-23014D01*
X17882Y-22999D01*
X17916Y-22986D01*
X17986Y-22916D01*
X18013Y-22849D01*
X18606Y-22849D01*
X18702Y-22945D01*
X18835Y-23000D01*
G54D10*
G36*
X19182Y-17200D02*
X18776Y-17200D01*
X18774Y-17194D01*
X18622Y-17043D01*
X18519Y-17000D01*
X18622Y-16958D01*
X18773Y-16806D01*
X18775Y-16800D01*
X19182Y-16800D01*
X19144Y-16892D01*
X19144Y-17107D01*
X19182Y-17200D01*
X19182Y-17200D01*
G37*
G54D19*
X19182Y-17200D02*
X18776Y-17200D01*
X18774Y-17194D01*
X18622Y-17043D01*
X18519Y-17000D01*
X18622Y-16958D01*
X18773Y-16806D01*
X18775Y-16800D01*
X19182Y-16800D01*
X19144Y-16892D01*
X19144Y-17107D01*
X19182Y-17200D01*
G54D10*
G36*
X19217Y-05049D02*
X19203Y-05055D01*
X19055Y-05202D01*
X18999Y-05335D01*
X18945Y-05203D01*
X18798Y-05055D01*
X18783Y-05049D01*
X19217Y-05049D01*
X19217Y-05049D01*
G37*
G54D19*
X19217Y-05049D02*
X19203Y-05055D01*
X19055Y-05202D01*
X18999Y-05335D01*
X18945Y-05203D01*
X18798Y-05055D01*
X18783Y-05049D01*
X19217Y-05049D01*
G54D10*
G36*
X19480Y-13499D02*
X19378Y-13542D01*
X19227Y-13694D01*
X19144Y-13892D01*
X19144Y-14107D01*
X19182Y-14200D01*
X18776Y-14200D01*
X18774Y-14194D01*
X18622Y-14043D01*
X18519Y-14000D01*
X18622Y-13958D01*
X18773Y-13806D01*
X18856Y-13608D01*
X18856Y-13393D01*
X18774Y-13194D01*
X18622Y-13043D01*
X18519Y-13000D01*
X18622Y-12958D01*
X18773Y-12806D01*
X18856Y-12608D01*
X18856Y-12393D01*
X18774Y-12194D01*
X18678Y-12099D01*
X19144Y-12099D01*
X19144Y-12107D01*
X19226Y-12306D01*
X19378Y-12457D01*
X19480Y-12499D01*
X19378Y-12542D01*
X19227Y-12694D01*
X19144Y-12892D01*
X19144Y-13107D01*
X19226Y-13306D01*
X19378Y-13457D01*
X19480Y-13499D01*
X19480Y-13499D01*
G37*
G54D19*
X19480Y-13499D02*
X19378Y-13542D01*
X19227Y-13694D01*
X19144Y-13892D01*
X19144Y-14107D01*
X19182Y-14200D01*
X18776Y-14200D01*
X18774Y-14194D01*
X18622Y-14043D01*
X18519Y-14000D01*
X18622Y-13958D01*
X18773Y-13806D01*
X18856Y-13608D01*
X18856Y-13393D01*
X18774Y-13194D01*
X18622Y-13043D01*
X18519Y-13000D01*
X18622Y-12958D01*
X18773Y-12806D01*
X18856Y-12608D01*
X18856Y-12393D01*
X18774Y-12194D01*
X18678Y-12099D01*
X19144Y-12099D01*
X19144Y-12107D01*
X19226Y-12306D01*
X19378Y-12457D01*
X19480Y-12499D01*
X19378Y-12542D01*
X19227Y-12694D01*
X19144Y-12892D01*
X19144Y-13107D01*
X19226Y-13306D01*
X19378Y-13457D01*
X19480Y-13499D01*
G54D10*
G36*
X19480Y-15499D02*
X19378Y-15542D01*
X19227Y-15694D01*
X19144Y-15892D01*
X19144Y-16107D01*
X19182Y-16200D01*
X18776Y-16200D01*
X18774Y-16194D01*
X18622Y-16043D01*
X18519Y-16000D01*
X18622Y-15958D01*
X18773Y-15806D01*
X18856Y-15608D01*
X18856Y-15393D01*
X18774Y-15194D01*
X18622Y-15043D01*
X18519Y-15000D01*
X18622Y-14958D01*
X18773Y-14806D01*
X18775Y-14800D01*
X19182Y-14800D01*
X19144Y-14892D01*
X19144Y-15107D01*
X19226Y-15306D01*
X19378Y-15457D01*
X19480Y-15499D01*
X19480Y-15499D01*
G37*
G54D19*
X19480Y-15499D02*
X19378Y-15542D01*
X19227Y-15694D01*
X19144Y-15892D01*
X19144Y-16107D01*
X19182Y-16200D01*
X18776Y-16200D01*
X18774Y-16194D01*
X18622Y-16043D01*
X18519Y-16000D01*
X18622Y-15958D01*
X18773Y-15806D01*
X18856Y-15608D01*
X18856Y-15393D01*
X18774Y-15194D01*
X18622Y-15043D01*
X18519Y-15000D01*
X18622Y-14958D01*
X18773Y-14806D01*
X18775Y-14800D01*
X19182Y-14800D01*
X19144Y-14892D01*
X19144Y-15107D01*
X19226Y-15306D01*
X19378Y-15457D01*
X19480Y-15499D01*
G54D10*
G36*
X19480Y-18499D02*
X19378Y-18542D01*
X19227Y-18694D01*
X19144Y-18892D01*
X19144Y-19107D01*
X19162Y-19151D01*
X16892Y-19151D01*
X16990Y-19111D01*
X17110Y-18991D01*
X17175Y-18835D01*
X17175Y-18682D01*
X17226Y-18806D01*
X17378Y-18957D01*
X17576Y-19040D01*
X17791Y-19040D01*
X18423Y-19040D01*
X18622Y-18958D01*
X18773Y-18806D01*
X18856Y-18608D01*
X18856Y-18393D01*
X18774Y-18194D01*
X18622Y-18043D01*
X18519Y-18000D01*
X18622Y-17958D01*
X18773Y-17806D01*
X18775Y-17800D01*
X19182Y-17800D01*
X19144Y-17892D01*
X19144Y-18107D01*
X19226Y-18306D01*
X19378Y-18457D01*
X19480Y-18499D01*
X19480Y-18499D01*
G37*
G54D19*
X19480Y-18499D02*
X19378Y-18542D01*
X19227Y-18694D01*
X19144Y-18892D01*
X19144Y-19107D01*
X19162Y-19151D01*
X16892Y-19151D01*
X16990Y-19111D01*
X17110Y-18991D01*
X17175Y-18835D01*
X17175Y-18682D01*
X17226Y-18806D01*
X17378Y-18957D01*
X17576Y-19040D01*
X17791Y-19040D01*
X18423Y-19040D01*
X18622Y-18958D01*
X18773Y-18806D01*
X18856Y-18608D01*
X18856Y-18393D01*
X18774Y-18194D01*
X18622Y-18043D01*
X18519Y-18000D01*
X18622Y-17958D01*
X18773Y-17806D01*
X18775Y-17800D01*
X19182Y-17800D01*
X19144Y-17892D01*
X19144Y-18107D01*
X19226Y-18306D01*
X19378Y-18457D01*
X19480Y-18499D01*
G54D10*
G36*
X20049Y-05049D02*
X20014Y-05084D01*
X19976Y-05175D01*
X19976Y-05274D01*
X19976Y-05277D01*
X19945Y-05203D01*
X19798Y-05055D01*
X19783Y-05049D01*
X20049Y-05049D01*
X20049Y-05049D01*
G37*
G54D19*
X20049Y-05049D02*
X20014Y-05084D01*
X19976Y-05175D01*
X19976Y-05274D01*
X19976Y-05277D01*
X19945Y-05203D01*
X19798Y-05055D01*
X19783Y-05049D01*
X20049Y-05049D01*
G54D10*
G36*
X20335Y-21000D02*
X20203Y-21055D01*
X20106Y-21151D01*
X19393Y-21151D01*
X19298Y-21055D01*
X19223Y-21024D01*
X19324Y-21024D01*
X19416Y-20986D01*
X19486Y-20916D01*
X19513Y-20849D01*
X20106Y-20849D01*
X20202Y-20945D01*
X20335Y-21000D01*
X20335Y-21000D01*
G37*
G54D19*
X20335Y-21000D02*
X20203Y-21055D01*
X20106Y-21151D01*
X19393Y-21151D01*
X19298Y-21055D01*
X19223Y-21024D01*
X19324Y-21024D01*
X19416Y-20986D01*
X19486Y-20916D01*
X19513Y-20849D01*
X20106Y-20849D01*
X20202Y-20945D01*
X20335Y-21000D01*
G54D10*
G36*
X20335Y-22000D02*
X20203Y-22055D01*
X20106Y-22151D01*
X19393Y-22151D01*
X19298Y-22055D01*
X19164Y-21999D01*
X19297Y-21945D01*
X19393Y-21849D01*
X20106Y-21849D01*
X20202Y-21945D01*
X20335Y-22000D01*
X20335Y-22000D01*
G37*
G54D19*
X20335Y-22000D02*
X20203Y-22055D01*
X20106Y-22151D01*
X19393Y-22151D01*
X19298Y-22055D01*
X19164Y-21999D01*
X19297Y-21945D01*
X19393Y-21849D01*
X20106Y-21849D01*
X20202Y-21945D01*
X20335Y-22000D01*
G54D10*
G36*
X20335Y-23000D02*
X20203Y-23055D01*
X20106Y-23151D01*
X19393Y-23151D01*
X19298Y-23055D01*
X19164Y-22999D01*
X19297Y-22945D01*
X19393Y-22849D01*
X20106Y-22849D01*
X20202Y-22945D01*
X20335Y-23000D01*
X20335Y-23000D01*
G37*
G54D19*
X20335Y-23000D02*
X20203Y-23055D01*
X20106Y-23151D01*
X19393Y-23151D01*
X19298Y-23055D01*
X19164Y-22999D01*
X19297Y-22945D01*
X19393Y-22849D01*
X20106Y-22849D01*
X20202Y-22945D01*
X20335Y-23000D01*
G54D10*
G36*
X20615Y-13460D02*
X20559Y-13516D01*
X20519Y-13500D01*
X20615Y-13460D01*
X20615Y-13460D01*
G37*
G54D19*
X20615Y-13460D02*
X20559Y-13516D01*
X20519Y-13500D01*
X20615Y-13460D01*
G54D10*
G36*
X20700Y-18620D02*
X20622Y-18543D01*
X20519Y-18500D01*
X20622Y-18458D01*
X20700Y-18379D01*
X20700Y-18620D01*
X20700Y-18620D01*
G37*
G54D19*
X20700Y-18620D02*
X20622Y-18543D01*
X20519Y-18500D01*
X20622Y-18458D01*
X20700Y-18379D01*
X20700Y-18620D01*
G54D10*
G36*
X20825Y-14215D02*
X20812Y-14212D01*
X20825Y-14181D01*
X20825Y-14215D01*
X20825Y-14215D01*
G37*
G54D19*
X20825Y-14215D02*
X20812Y-14212D01*
X20825Y-14181D01*
X20825Y-14215D01*
G54D10*
G36*
X20872Y-14051D02*
X20856Y-14090D01*
X20856Y-14068D01*
X20872Y-14051D01*
X20872Y-14051D01*
G37*
G54D19*
X20872Y-14051D02*
X20856Y-14090D01*
X20856Y-14068D01*
X20872Y-14051D01*
G54D10*
G36*
X21217Y-05049D02*
X21203Y-05055D01*
X21055Y-05202D01*
X21024Y-05276D01*
X21024Y-05176D01*
X20986Y-05084D01*
X20951Y-05049D01*
X21217Y-05049D01*
X21217Y-05049D01*
G37*
G54D19*
X21217Y-05049D02*
X21203Y-05055D01*
X21055Y-05202D01*
X21024Y-05276D01*
X21024Y-05176D01*
X20986Y-05084D01*
X20951Y-05049D01*
X21217Y-05049D01*
G54D10*
G36*
X22217Y-05049D02*
X22203Y-05055D01*
X22055Y-05202D01*
X21999Y-05335D01*
X21945Y-05203D01*
X21798Y-05055D01*
X21783Y-05049D01*
X22217Y-05049D01*
X22217Y-05049D01*
G37*
G54D19*
X22217Y-05049D02*
X22203Y-05055D01*
X22055Y-05202D01*
X21999Y-05335D01*
X21945Y-05203D01*
X21798Y-05055D01*
X21783Y-05049D01*
X22217Y-05049D01*
G54D10*
G36*
X23217Y-05049D02*
X23203Y-05055D01*
X23055Y-05202D01*
X22999Y-05335D01*
X22945Y-05203D01*
X22798Y-05055D01*
X22783Y-05049D01*
X23217Y-05049D01*
X23217Y-05049D01*
G37*
G54D19*
X23217Y-05049D02*
X23203Y-05055D01*
X23055Y-05202D01*
X22999Y-05335D01*
X22945Y-05203D01*
X22798Y-05055D01*
X22783Y-05049D01*
X23217Y-05049D01*
G54D10*
G36*
X23276Y-18476D02*
X23176Y-18476D01*
X23084Y-18514D01*
X23014Y-18584D01*
X22976Y-18675D01*
X22976Y-18700D01*
X22874Y-18700D01*
X22175Y-18001D01*
X22175Y-17916D01*
X22127Y-17800D01*
X22376Y-17800D01*
X22788Y-18212D01*
X22885Y-18277D01*
X23000Y-18300D01*
X23057Y-18300D01*
X23202Y-18445D01*
X23276Y-18476D01*
X23276Y-18476D01*
G37*
G54D19*
X23276Y-18476D02*
X23176Y-18476D01*
X23084Y-18514D01*
X23014Y-18584D01*
X22976Y-18675D01*
X22976Y-18700D01*
X22874Y-18700D01*
X22175Y-18001D01*
X22175Y-17916D01*
X22127Y-17800D01*
X22376Y-17800D01*
X22788Y-18212D01*
X22885Y-18277D01*
X23000Y-18300D01*
X23057Y-18300D01*
X23202Y-18445D01*
X23276Y-18476D01*
G54D10*
G36*
X23335Y-13500D02*
X23203Y-13555D01*
X23057Y-13700D01*
X21500Y-13700D01*
X21385Y-13723D01*
X21287Y-13788D01*
X21250Y-13825D01*
X21166Y-13825D01*
X21052Y-13871D01*
X22624Y-12300D01*
X23057Y-12300D01*
X23202Y-12445D01*
X23335Y-12500D01*
X23203Y-12555D01*
X23055Y-12702D01*
X22975Y-12895D01*
X22975Y-13104D01*
X23055Y-13297D01*
X23202Y-13445D01*
X23335Y-13500D01*
X23335Y-13500D01*
G37*
G54D19*
X23335Y-13500D02*
X23203Y-13555D01*
X23057Y-13700D01*
X21500Y-13700D01*
X21385Y-13723D01*
X21287Y-13788D01*
X21250Y-13825D01*
X21166Y-13825D01*
X21052Y-13871D01*
X22624Y-12300D01*
X23057Y-12300D01*
X23202Y-12445D01*
X23335Y-12500D01*
X23203Y-12555D01*
X23055Y-12702D01*
X22975Y-12895D01*
X22975Y-13104D01*
X23055Y-13297D01*
X23202Y-13445D01*
X23335Y-13500D01*
G54D10*
G36*
X23335Y-14500D02*
X23203Y-14555D01*
X23057Y-14700D01*
X21374Y-14700D01*
X21344Y-14670D01*
X21490Y-14611D01*
X21610Y-14491D01*
X21675Y-14335D01*
X21675Y-14300D01*
X23057Y-14300D01*
X23202Y-14445D01*
X23335Y-14500D01*
X23335Y-14500D01*
G37*
G54D19*
X23335Y-14500D02*
X23203Y-14555D01*
X23057Y-14700D01*
X21374Y-14700D01*
X21344Y-14670D01*
X21490Y-14611D01*
X21610Y-14491D01*
X21675Y-14335D01*
X21675Y-14300D01*
X23057Y-14300D01*
X23202Y-14445D01*
X23335Y-14500D01*
G54D10*
G36*
X23335Y-15500D02*
X23203Y-15555D01*
X23057Y-15700D01*
X20776Y-15700D01*
X20774Y-15694D01*
X20622Y-15543D01*
X20519Y-15500D01*
X20622Y-15458D01*
X20773Y-15306D01*
X20856Y-15108D01*
X20856Y-15030D01*
X21038Y-15212D01*
X21135Y-15277D01*
X21250Y-15300D01*
X23057Y-15300D01*
X23202Y-15445D01*
X23335Y-15500D01*
X23335Y-15500D01*
G37*
G54D19*
X23335Y-15500D02*
X23203Y-15555D01*
X23057Y-15700D01*
X20776Y-15700D01*
X20774Y-15694D01*
X20622Y-15543D01*
X20519Y-15500D01*
X20622Y-15458D01*
X20773Y-15306D01*
X20856Y-15108D01*
X20856Y-15030D01*
X21038Y-15212D01*
X21135Y-15277D01*
X21250Y-15300D01*
X23057Y-15300D01*
X23202Y-15445D01*
X23335Y-15500D01*
G54D10*
G36*
X23335Y-16500D02*
X23203Y-16555D01*
X23175Y-16582D01*
X23175Y-16417D01*
X23202Y-16445D01*
X23335Y-16500D01*
X23335Y-16500D01*
G37*
G54D19*
X23335Y-16500D02*
X23203Y-16555D01*
X23175Y-16582D01*
X23175Y-16417D01*
X23202Y-16445D01*
X23335Y-16500D01*
G54D10*
G36*
X23335Y-17500D02*
X23203Y-17555D01*
X23090Y-17666D01*
X22724Y-17300D01*
X23057Y-17300D01*
X23202Y-17445D01*
X23335Y-17500D01*
X23335Y-17500D01*
G37*
G54D19*
X23335Y-17500D02*
X23203Y-17555D01*
X23090Y-17666D01*
X22724Y-17300D01*
X23057Y-17300D01*
X23202Y-17445D01*
X23335Y-17500D01*
G54D10*
G36*
X24084Y-24084D02*
X24025Y-24084D01*
X24025Y-18105D01*
X24025Y-17896D01*
X23945Y-17703D01*
X23798Y-17555D01*
X23664Y-17499D01*
X23797Y-17445D01*
X23945Y-17298D01*
X24025Y-17105D01*
X24025Y-16896D01*
X23945Y-16703D01*
X23798Y-16555D01*
X23664Y-16499D01*
X23797Y-16445D01*
X23945Y-16298D01*
X24025Y-16105D01*
X24025Y-15896D01*
X23945Y-15703D01*
X23798Y-15555D01*
X23664Y-15499D01*
X23797Y-15445D01*
X23945Y-15298D01*
X24025Y-15105D01*
X24025Y-14896D01*
X23945Y-14703D01*
X23798Y-14555D01*
X23664Y-14499D01*
X23797Y-14445D01*
X23945Y-14298D01*
X24025Y-14105D01*
X24025Y-13896D01*
X23945Y-13703D01*
X23798Y-13555D01*
X23664Y-13499D01*
X23797Y-13445D01*
X23945Y-13298D01*
X24025Y-13105D01*
X24025Y-12896D01*
X23945Y-12703D01*
X23798Y-12555D01*
X23664Y-12499D01*
X23797Y-12445D01*
X23945Y-12298D01*
X24025Y-12105D01*
X24025Y-11896D01*
X24025Y-10605D01*
X24025Y-10396D01*
X23945Y-10203D01*
X23798Y-10055D01*
X23605Y-09975D01*
X23396Y-09975D01*
X23203Y-10055D01*
X23055Y-10202D01*
X22999Y-10335D01*
X22945Y-10203D01*
X22798Y-10055D01*
X22605Y-09975D01*
X22396Y-09975D01*
X22203Y-10055D01*
X22055Y-10202D01*
X21999Y-10335D01*
X21945Y-10203D01*
X21798Y-10055D01*
X21605Y-09975D01*
X21396Y-09975D01*
X21203Y-10055D01*
X21055Y-10202D01*
X20999Y-10335D01*
X20945Y-10203D01*
X20798Y-10055D01*
X20605Y-09975D01*
X20396Y-09975D01*
X20203Y-10055D01*
X20055Y-10202D01*
X20024Y-10276D01*
X20024Y-10176D01*
X19986Y-10084D01*
X19916Y-10014D01*
X19825Y-09976D01*
X19726Y-09976D01*
X19176Y-09976D01*
X19084Y-10014D01*
X19014Y-10084D01*
X18976Y-10175D01*
X18976Y-10274D01*
X18976Y-10824D01*
X19014Y-10916D01*
X19084Y-10986D01*
X19175Y-11024D01*
X19274Y-11024D01*
X19824Y-11024D01*
X19916Y-10986D01*
X19986Y-10916D01*
X20024Y-10825D01*
X20024Y-10726D01*
X20024Y-10722D01*
X20055Y-10797D01*
X20202Y-10945D01*
X20395Y-11025D01*
X20604Y-11025D01*
X20797Y-10945D01*
X20945Y-10798D01*
X21000Y-10664D01*
X21055Y-10797D01*
X21202Y-10945D01*
X21395Y-11025D01*
X21604Y-11025D01*
X21797Y-10945D01*
X21945Y-10798D01*
X22000Y-10664D01*
X22055Y-10797D01*
X22202Y-10945D01*
X22395Y-11025D01*
X22604Y-11025D01*
X22797Y-10945D01*
X22945Y-10798D01*
X23000Y-10664D01*
X23055Y-10797D01*
X23202Y-10945D01*
X23395Y-11025D01*
X23604Y-11025D01*
X23797Y-10945D01*
X23945Y-10798D01*
X24025Y-10605D01*
X24025Y-11896D01*
X23945Y-11703D01*
X23798Y-11555D01*
X23605Y-11475D01*
X23396Y-11475D01*
X23203Y-11555D01*
X23057Y-11700D01*
X22500Y-11700D01*
X22385Y-11723D01*
X22288Y-11788D01*
X20775Y-13300D01*
X20856Y-13108D01*
X20856Y-12893D01*
X20774Y-12694D01*
X20622Y-12543D01*
X20519Y-12500D01*
X20622Y-12458D01*
X20773Y-12306D01*
X20856Y-12108D01*
X20856Y-11893D01*
X20774Y-11694D01*
X20622Y-11543D01*
X20424Y-11460D01*
X20209Y-11460D01*
X19932Y-11460D01*
X19884Y-11428D01*
X19750Y-11401D01*
X18025Y-11401D01*
X18025Y-08605D01*
X18025Y-08396D01*
X17945Y-08203D01*
X17798Y-08055D01*
X17664Y-07999D01*
X17797Y-07945D01*
X17945Y-07798D01*
X18025Y-07605D01*
X18025Y-07396D01*
X17945Y-07203D01*
X17798Y-07055D01*
X17605Y-06975D01*
X17396Y-06975D01*
X17203Y-07055D01*
X17055Y-07202D01*
X16975Y-07395D01*
X16975Y-07604D01*
X17055Y-07797D01*
X17202Y-07945D01*
X17335Y-08000D01*
X17203Y-08055D01*
X17055Y-08202D01*
X16975Y-08395D01*
X16975Y-08604D01*
X17055Y-08797D01*
X17202Y-08945D01*
X17395Y-09025D01*
X17604Y-09025D01*
X17797Y-08945D01*
X17945Y-08798D01*
X18025Y-08605D01*
X18025Y-11401D01*
X16750Y-11401D01*
X16749Y-11401D01*
X16616Y-11428D01*
X16503Y-11503D01*
X16501Y-11505D01*
X14531Y-13475D01*
X14396Y-13475D01*
X14203Y-13555D01*
X14055Y-13702D01*
X14025Y-13774D01*
X14025Y-10605D01*
X14025Y-10396D01*
X13945Y-10203D01*
X13798Y-10055D01*
X13605Y-09975D01*
X13396Y-09975D01*
X13203Y-10055D01*
X13055Y-10202D01*
X12999Y-10335D01*
X12945Y-10203D01*
X12798Y-10055D01*
X12605Y-09975D01*
X12396Y-09975D01*
X12203Y-10055D01*
X12055Y-10202D01*
X11999Y-10335D01*
X11945Y-10203D01*
X11798Y-10055D01*
X11605Y-09975D01*
X11396Y-09975D01*
X11203Y-10055D01*
X11055Y-10202D01*
X10999Y-10335D01*
X10945Y-10203D01*
X10798Y-10055D01*
X10605Y-09975D01*
X10396Y-09975D01*
X10203Y-10055D01*
X10055Y-10202D01*
X10024Y-10276D01*
X10024Y-10176D01*
X09986Y-10084D01*
X09916Y-10014D01*
X09825Y-09976D01*
X09726Y-09976D01*
X09176Y-09976D01*
X09084Y-10014D01*
X09014Y-10084D01*
X08976Y-10175D01*
X08976Y-10274D01*
X08976Y-10824D01*
X09014Y-10916D01*
X09084Y-10986D01*
X09175Y-11024D01*
X09274Y-11024D01*
X09824Y-11024D01*
X09916Y-10986D01*
X09986Y-10916D01*
X10024Y-10825D01*
X10024Y-10726D01*
X10024Y-10722D01*
X10055Y-10797D01*
X10202Y-10945D01*
X10395Y-11025D01*
X10604Y-11025D01*
X10797Y-10945D01*
X10945Y-10798D01*
X11000Y-10664D01*
X11055Y-10797D01*
X11202Y-10945D01*
X11395Y-11025D01*
X11604Y-11025D01*
X11797Y-10945D01*
X11945Y-10798D01*
X12000Y-10664D01*
X12055Y-10797D01*
X12202Y-10945D01*
X12395Y-11025D01*
X12604Y-11025D01*
X12797Y-10945D01*
X12945Y-10798D01*
X13000Y-10664D01*
X13055Y-10797D01*
X13202Y-10945D01*
X13395Y-11025D01*
X13604Y-11025D01*
X13797Y-10945D01*
X13945Y-10798D01*
X14025Y-10605D01*
X14025Y-13774D01*
X13975Y-13895D01*
X13975Y-14104D01*
X14055Y-14297D01*
X14202Y-14445D01*
X14335Y-14500D01*
X14203Y-14555D01*
X14055Y-14702D01*
X13975Y-14895D01*
X13975Y-15104D01*
X14055Y-15297D01*
X14202Y-15445D01*
X14335Y-15500D01*
X14203Y-15555D01*
X14055Y-15702D01*
X13975Y-15895D01*
X13975Y-16104D01*
X14055Y-16297D01*
X14202Y-16445D01*
X14276Y-16476D01*
X14176Y-16476D01*
X14084Y-16514D01*
X14014Y-16584D01*
X13976Y-16675D01*
X13976Y-16774D01*
X13976Y-17324D01*
X14014Y-17416D01*
X14084Y-17486D01*
X14175Y-17524D01*
X14274Y-17524D01*
X14824Y-17524D01*
X14916Y-17486D01*
X14986Y-17416D01*
X15024Y-17325D01*
X15024Y-17226D01*
X15024Y-16676D01*
X14986Y-16584D01*
X14916Y-16514D01*
X14825Y-16476D01*
X14726Y-16476D01*
X14722Y-16476D01*
X14797Y-16445D01*
X14942Y-16300D01*
X15125Y-16300D01*
X15200Y-16374D01*
X15200Y-17626D01*
X14288Y-18538D01*
X14223Y-18635D01*
X14200Y-18750D01*
X14200Y-20057D01*
X14055Y-20202D01*
X13975Y-20395D01*
X13975Y-20604D01*
X14055Y-20797D01*
X14202Y-20945D01*
X14335Y-21000D01*
X14203Y-21055D01*
X14055Y-21202D01*
X13975Y-21395D01*
X13975Y-21604D01*
X14055Y-21797D01*
X14202Y-21945D01*
X14335Y-22000D01*
X14203Y-22055D01*
X14055Y-22202D01*
X13975Y-22395D01*
X13975Y-22604D01*
X14055Y-22797D01*
X14202Y-22945D01*
X14335Y-23000D01*
X14203Y-23055D01*
X14055Y-23202D01*
X13975Y-23395D01*
X13975Y-23604D01*
X14055Y-23797D01*
X14202Y-23945D01*
X14395Y-24025D01*
X14604Y-24025D01*
X14797Y-23945D01*
X14945Y-23798D01*
X15025Y-23605D01*
X15025Y-23396D01*
X14945Y-23203D01*
X14798Y-23055D01*
X14664Y-22999D01*
X14797Y-22945D01*
X14945Y-22798D01*
X15025Y-22605D01*
X15025Y-22396D01*
X14945Y-22203D01*
X14798Y-22055D01*
X14664Y-21999D01*
X14797Y-21945D01*
X14945Y-21798D01*
X15025Y-21605D01*
X15025Y-21396D01*
X14945Y-21203D01*
X14798Y-21055D01*
X14664Y-20999D01*
X14797Y-20945D01*
X14945Y-20798D01*
X15025Y-20605D01*
X15025Y-20396D01*
X14945Y-20203D01*
X14800Y-20057D01*
X14800Y-18874D01*
X15651Y-18023D01*
X15651Y-19250D01*
X15678Y-19384D01*
X15753Y-19497D01*
X16001Y-19744D01*
X16003Y-19747D01*
X16116Y-19822D01*
X16117Y-19822D01*
X16250Y-19849D01*
X19500Y-19849D01*
X19633Y-19822D01*
X19634Y-19822D01*
X19747Y-19747D01*
X19954Y-19540D01*
X20423Y-19540D01*
X20622Y-19458D01*
X20700Y-19379D01*
X20700Y-19500D01*
X20723Y-19615D01*
X20788Y-19712D01*
X21037Y-19962D01*
X21038Y-19962D01*
X21135Y-20027D01*
X21250Y-20050D01*
X22625Y-20050D01*
X22976Y-20400D01*
X22976Y-20824D01*
X23014Y-20916D01*
X23084Y-20986D01*
X23117Y-21000D01*
X23084Y-21014D01*
X23014Y-21084D01*
X22976Y-21175D01*
X22976Y-21274D01*
X22976Y-21824D01*
X23014Y-21916D01*
X23084Y-21986D01*
X23117Y-22000D01*
X23084Y-22014D01*
X23014Y-22084D01*
X22976Y-22175D01*
X22976Y-22274D01*
X22976Y-22824D01*
X23014Y-22916D01*
X23084Y-22986D01*
X23117Y-23000D01*
X23084Y-23014D01*
X23014Y-23084D01*
X22976Y-23175D01*
X22976Y-23274D01*
X22976Y-23824D01*
X23014Y-23916D01*
X23084Y-23986D01*
X23175Y-24024D01*
X23274Y-24024D01*
X23824Y-24024D01*
X23916Y-23986D01*
X23986Y-23916D01*
X24024Y-23825D01*
X24024Y-23726D01*
X24024Y-23176D01*
X23986Y-23084D01*
X23916Y-23014D01*
X23882Y-22999D01*
X23916Y-22986D01*
X23986Y-22916D01*
X24024Y-22825D01*
X24024Y-22726D01*
X24024Y-22176D01*
X23986Y-22084D01*
X23916Y-22014D01*
X23882Y-21999D01*
X23916Y-21986D01*
X23986Y-21916D01*
X24024Y-21825D01*
X24024Y-21726D01*
X24024Y-21176D01*
X23986Y-21084D01*
X23916Y-21014D01*
X23882Y-20999D01*
X23916Y-20986D01*
X23986Y-20916D01*
X24024Y-20825D01*
X24024Y-20726D01*
X24024Y-20176D01*
X23986Y-20084D01*
X23916Y-20014D01*
X23825Y-19976D01*
X23726Y-19976D01*
X23400Y-19976D01*
X22962Y-19538D01*
X22865Y-19473D01*
X22750Y-19450D01*
X21374Y-19450D01*
X21300Y-19375D01*
X21300Y-17925D01*
X21325Y-17925D01*
X21325Y-18084D01*
X21389Y-18240D01*
X21509Y-18360D01*
X21665Y-18425D01*
X21751Y-18425D01*
X22538Y-19212D01*
X22635Y-19277D01*
X22750Y-19300D01*
X22976Y-19300D01*
X22976Y-19324D01*
X23014Y-19416D01*
X23084Y-19486D01*
X23175Y-19524D01*
X23274Y-19524D01*
X23824Y-19524D01*
X23916Y-19486D01*
X23986Y-19416D01*
X24024Y-19325D01*
X24024Y-19226D01*
X24024Y-18676D01*
X23986Y-18584D01*
X23916Y-18514D01*
X23825Y-18476D01*
X23726Y-18476D01*
X23722Y-18476D01*
X23797Y-18445D01*
X23945Y-18298D01*
X24025Y-18105D01*
X24025Y-24084D01*
X21025Y-24084D01*
X21025Y-23605D01*
X21025Y-23396D01*
X20945Y-23203D01*
X20798Y-23055D01*
X20664Y-22999D01*
X20797Y-22945D01*
X20945Y-22798D01*
X21025Y-22605D01*
X21025Y-22396D01*
X20945Y-22203D01*
X20798Y-22055D01*
X20664Y-21999D01*
X20797Y-21945D01*
X20945Y-21798D01*
X21025Y-21605D01*
X21025Y-21396D01*
X20945Y-21203D01*
X20798Y-21055D01*
X20664Y-20999D01*
X20797Y-20945D01*
X20945Y-20798D01*
X21025Y-20605D01*
X21025Y-20396D01*
X20945Y-20203D01*
X20798Y-20055D01*
X20605Y-19975D01*
X20396Y-19975D01*
X20203Y-20055D01*
X20106Y-20151D01*
X19513Y-20151D01*
X19486Y-20084D01*
X19416Y-20014D01*
X19325Y-19976D01*
X19226Y-19976D01*
X18676Y-19976D01*
X18584Y-20014D01*
X18514Y-20084D01*
X18486Y-20151D01*
X18013Y-20151D01*
X17986Y-20084D01*
X17916Y-20014D01*
X17825Y-19976D01*
X17726Y-19976D01*
X17176Y-19976D01*
X17084Y-20014D01*
X17014Y-20084D01*
X16976Y-20175D01*
X16976Y-20274D01*
X16976Y-20824D01*
X17014Y-20916D01*
X17084Y-20986D01*
X17117Y-21000D01*
X17084Y-21014D01*
X17014Y-21084D01*
X16976Y-21175D01*
X16976Y-21274D01*
X16976Y-21824D01*
X17014Y-21916D01*
X17084Y-21986D01*
X17117Y-22000D01*
X17084Y-22014D01*
X17014Y-22084D01*
X16976Y-22175D01*
X16976Y-22274D01*
X16976Y-22824D01*
X17014Y-22916D01*
X17084Y-22986D01*
X17117Y-23000D01*
X17084Y-23014D01*
X17014Y-23084D01*
X16976Y-23175D01*
X16976Y-23274D01*
X16976Y-23824D01*
X17014Y-23916D01*
X17084Y-23986D01*
X17175Y-24024D01*
X17274Y-24024D01*
X17824Y-24024D01*
X17916Y-23986D01*
X17986Y-23916D01*
X18013Y-23849D01*
X18606Y-23849D01*
X18702Y-23945D01*
X18895Y-24025D01*
X19104Y-24025D01*
X19297Y-23945D01*
X19393Y-23849D01*
X20106Y-23849D01*
X20202Y-23945D01*
X20395Y-24025D01*
X20604Y-24025D01*
X20797Y-23945D01*
X20945Y-23798D01*
X21025Y-23605D01*
X21025Y-24084D01*
X11893Y-24084D01*
X11893Y-21906D01*
X11893Y-21595D01*
X11774Y-21308D01*
X11555Y-21088D01*
X11268Y-20969D01*
X10957Y-20969D01*
X10670Y-21088D01*
X10450Y-21307D01*
X10331Y-21594D01*
X10331Y-21905D01*
X10450Y-22192D01*
X10669Y-22412D01*
X10956Y-22531D01*
X11267Y-22531D01*
X11554Y-22412D01*
X11774Y-22193D01*
X11893Y-21906D01*
X11893Y-24084D01*
X05049Y-24084D01*
X05049Y-23782D01*
X05055Y-23797D01*
X05202Y-23945D01*
X05395Y-24025D01*
X05604Y-24025D01*
X05797Y-23945D01*
X05945Y-23798D01*
X06025Y-23605D01*
X06025Y-23396D01*
X05945Y-23203D01*
X05798Y-23055D01*
X05605Y-22975D01*
X05396Y-22975D01*
X05203Y-23055D01*
X05055Y-23202D01*
X05049Y-23216D01*
X05049Y-20782D01*
X05055Y-20797D01*
X05202Y-20945D01*
X05395Y-21025D01*
X05604Y-21025D01*
X05797Y-20945D01*
X05945Y-20798D01*
X06025Y-20605D01*
X06025Y-20396D01*
X05945Y-20203D01*
X05798Y-20055D01*
X05605Y-19975D01*
X05396Y-19975D01*
X05203Y-20055D01*
X05055Y-20202D01*
X05049Y-20216D01*
X05049Y-18701D01*
X05084Y-18736D01*
X05154Y-18765D01*
X05178Y-18884D01*
X05253Y-18997D01*
X06401Y-20144D01*
X06401Y-20750D01*
X06428Y-20884D01*
X06484Y-20969D01*
X06233Y-20969D01*
X05946Y-21088D01*
X05726Y-21307D01*
X05607Y-21594D01*
X05607Y-21905D01*
X05726Y-22192D01*
X05945Y-22412D01*
X06232Y-22531D01*
X06543Y-22531D01*
X06830Y-22412D01*
X07050Y-22193D01*
X07169Y-21906D01*
X07169Y-21662D01*
X07251Y-21744D01*
X07253Y-21747D01*
X07366Y-21822D01*
X07367Y-21822D01*
X07500Y-21849D01*
X08750Y-21849D01*
X08883Y-21822D01*
X08884Y-21822D01*
X08997Y-21747D01*
X09497Y-21247D01*
X09559Y-21152D01*
X09561Y-21152D01*
X09715Y-20998D01*
X09715Y-20996D01*
X09810Y-20934D01*
X10247Y-20497D01*
X10322Y-20384D01*
X10322Y-20383D01*
X10349Y-20250D01*
X10349Y-19599D01*
X10750Y-19599D01*
X10883Y-19572D01*
X10884Y-19572D01*
X10997Y-19497D01*
X11499Y-18993D01*
X11776Y-19270D01*
X11725Y-19395D01*
X11725Y-19604D01*
X11805Y-19797D01*
X11952Y-19945D01*
X12026Y-19976D01*
X11926Y-19976D01*
X11834Y-20014D01*
X11764Y-20084D01*
X11726Y-20175D01*
X11726Y-20274D01*
X11726Y-20824D01*
X11764Y-20916D01*
X11834Y-20986D01*
X11925Y-21024D01*
X12024Y-21024D01*
X12574Y-21024D01*
X12666Y-20986D01*
X12736Y-20916D01*
X12774Y-20825D01*
X12774Y-20726D01*
X12774Y-20176D01*
X12736Y-20084D01*
X12666Y-20014D01*
X12575Y-19976D01*
X12476Y-19976D01*
X12472Y-19976D01*
X12547Y-19945D01*
X12695Y-19798D01*
X12775Y-19605D01*
X12775Y-19396D01*
X12695Y-19203D01*
X12548Y-19055D01*
X12525Y-19045D01*
X12524Y-19045D01*
X12497Y-19003D01*
X12494Y-19001D01*
X11868Y-18374D01*
X11945Y-18298D01*
X12000Y-18164D01*
X12055Y-18297D01*
X12202Y-18445D01*
X12395Y-18525D01*
X12604Y-18525D01*
X12797Y-18445D01*
X12945Y-18298D01*
X13025Y-18105D01*
X13025Y-17896D01*
X12945Y-17703D01*
X12798Y-17555D01*
X12723Y-17524D01*
X12824Y-17524D01*
X12916Y-17486D01*
X12986Y-17416D01*
X13024Y-17325D01*
X13024Y-17226D01*
X13024Y-16676D01*
X12986Y-16584D01*
X12916Y-16514D01*
X12825Y-16476D01*
X12726Y-16476D01*
X12722Y-16476D01*
X12797Y-16445D01*
X12945Y-16298D01*
X13025Y-16105D01*
X13025Y-15896D01*
X12945Y-15703D01*
X12798Y-15555D01*
X12664Y-15499D01*
X12797Y-15445D01*
X12945Y-15298D01*
X13025Y-15105D01*
X13025Y-14896D01*
X12945Y-14703D01*
X12798Y-14555D01*
X12664Y-14499D01*
X12797Y-14445D01*
X12945Y-14298D01*
X13025Y-14105D01*
X13025Y-13896D01*
X12945Y-13703D01*
X12798Y-13555D01*
X12664Y-13499D01*
X12797Y-13445D01*
X12945Y-13298D01*
X13025Y-13105D01*
X13025Y-12896D01*
X12945Y-12703D01*
X12798Y-12555D01*
X12664Y-12499D01*
X12797Y-12445D01*
X12945Y-12298D01*
X13025Y-12105D01*
X13025Y-11896D01*
X12945Y-11703D01*
X12798Y-11555D01*
X12605Y-11475D01*
X12396Y-11475D01*
X12203Y-11555D01*
X12055Y-11702D01*
X11975Y-11895D01*
X11975Y-12104D01*
X12055Y-12297D01*
X12202Y-12445D01*
X12335Y-12500D01*
X12203Y-12555D01*
X12055Y-12702D01*
X11975Y-12895D01*
X11975Y-13104D01*
X12055Y-13297D01*
X12202Y-13445D01*
X12335Y-13500D01*
X12203Y-13555D01*
X12055Y-13702D01*
X11975Y-13895D01*
X11975Y-14104D01*
X12055Y-14297D01*
X12202Y-14445D01*
X12335Y-14500D01*
X12203Y-14555D01*
X12055Y-14702D01*
X11997Y-14840D01*
X11962Y-14788D01*
X11962Y-14787D01*
X11712Y-14538D01*
X11615Y-14473D01*
X11500Y-14450D01*
X10425Y-14450D01*
X10425Y-14416D01*
X10361Y-14260D01*
X10241Y-14140D01*
X10085Y-14075D01*
X09916Y-14075D01*
X09760Y-14139D01*
X09640Y-14259D01*
X09575Y-14415D01*
X09575Y-14584D01*
X09639Y-14740D01*
X09759Y-14860D01*
X09915Y-14925D01*
X10000Y-14925D01*
X10037Y-14962D01*
X10038Y-14962D01*
X10135Y-15027D01*
X10250Y-15050D01*
X11375Y-15050D01*
X11450Y-15124D01*
X11450Y-16250D01*
X11473Y-16365D01*
X11538Y-16462D01*
X11976Y-16900D01*
X11976Y-17324D01*
X12014Y-17416D01*
X12084Y-17486D01*
X12175Y-17524D01*
X12274Y-17524D01*
X12203Y-17555D01*
X12055Y-17702D01*
X11999Y-17835D01*
X11945Y-17703D01*
X11798Y-17555D01*
X11605Y-17475D01*
X11396Y-17475D01*
X11203Y-17555D01*
X11055Y-17702D01*
X11024Y-17776D01*
X11024Y-17676D01*
X10986Y-17584D01*
X10916Y-17514D01*
X10825Y-17476D01*
X10726Y-17476D01*
X10176Y-17476D01*
X10084Y-17514D01*
X10014Y-17584D01*
X09976Y-17675D01*
X09976Y-17774D01*
X09976Y-18324D01*
X10014Y-18416D01*
X10084Y-18486D01*
X10175Y-18524D01*
X10274Y-18524D01*
X10824Y-18524D01*
X10916Y-18486D01*
X10986Y-18416D01*
X11024Y-18325D01*
X11024Y-18226D01*
X11024Y-18222D01*
X11055Y-18297D01*
X11132Y-18374D01*
X10605Y-18901D01*
X10000Y-18901D01*
X09895Y-18901D01*
X09275Y-18281D01*
X09275Y-18146D01*
X09195Y-17953D01*
X09048Y-17805D01*
X08914Y-17749D01*
X09047Y-17695D01*
X09195Y-17548D01*
X09275Y-17355D01*
X09275Y-17146D01*
X09195Y-16953D01*
X09048Y-16805D01*
X08855Y-16725D01*
X08646Y-16725D01*
X08453Y-16805D01*
X08305Y-16952D01*
X08300Y-16964D01*
X08300Y-16624D01*
X09124Y-15800D01*
X09199Y-15800D01*
X09259Y-15860D01*
X09415Y-15925D01*
X09584Y-15925D01*
X09740Y-15861D01*
X09860Y-15741D01*
X09925Y-15585D01*
X09925Y-15416D01*
X09861Y-15260D01*
X09741Y-15140D01*
X09585Y-15075D01*
X09416Y-15075D01*
X09260Y-15139D01*
X09199Y-15200D01*
X09000Y-15200D01*
X08885Y-15223D01*
X08788Y-15288D01*
X07788Y-16288D01*
X07723Y-16385D01*
X07700Y-16500D01*
X07700Y-16622D01*
X07585Y-16575D01*
X07416Y-16575D01*
X07260Y-16639D01*
X07140Y-16759D01*
X07075Y-16915D01*
X07075Y-16950D01*
X06500Y-16950D01*
X06385Y-16973D01*
X06288Y-17038D01*
X06024Y-17302D01*
X06024Y-17226D01*
X06024Y-16900D01*
X06462Y-16463D01*
X06462Y-16462D01*
X06527Y-16365D01*
X06549Y-16250D01*
X06550Y-16250D01*
X06550Y-15124D01*
X06624Y-15050D01*
X07750Y-15050D01*
X07865Y-15027D01*
X07962Y-14962D01*
X07999Y-14925D01*
X08084Y-14925D01*
X08240Y-14861D01*
X08360Y-14741D01*
X08425Y-14585D01*
X08425Y-14416D01*
X08361Y-14260D01*
X08241Y-14140D01*
X08085Y-14075D01*
X08025Y-14075D01*
X08025Y-08605D01*
X08025Y-08396D01*
X07945Y-08203D01*
X07798Y-08055D01*
X07664Y-07999D01*
X07797Y-07945D01*
X07945Y-07798D01*
X08025Y-07605D01*
X08025Y-07396D01*
X07945Y-07203D01*
X07798Y-07055D01*
X07605Y-06975D01*
X07396Y-06975D01*
X07203Y-07055D01*
X07055Y-07202D01*
X06975Y-07395D01*
X06975Y-07604D01*
X07055Y-07797D01*
X07202Y-07945D01*
X07335Y-08000D01*
X07203Y-08055D01*
X07055Y-08202D01*
X06975Y-08395D01*
X06975Y-08604D01*
X07055Y-08797D01*
X07202Y-08945D01*
X07395Y-09025D01*
X07604Y-09025D01*
X07797Y-08945D01*
X07945Y-08798D01*
X08025Y-08605D01*
X08025Y-14075D01*
X07916Y-14075D01*
X07760Y-14139D01*
X07640Y-14259D01*
X07575Y-14415D01*
X07575Y-14450D01*
X06500Y-14450D01*
X06385Y-14473D01*
X06287Y-14538D01*
X06038Y-14788D01*
X06002Y-14841D01*
X05945Y-14703D01*
X05798Y-14555D01*
X05664Y-14499D01*
X05797Y-14445D01*
X05945Y-14298D01*
X06025Y-14105D01*
X06025Y-13896D01*
X05945Y-13703D01*
X05798Y-13555D01*
X05664Y-13499D01*
X05797Y-13445D01*
X05945Y-13298D01*
X06025Y-13105D01*
X06025Y-12896D01*
X05945Y-12703D01*
X05798Y-12555D01*
X05664Y-12499D01*
X05797Y-12445D01*
X05945Y-12298D01*
X06025Y-12105D01*
X06025Y-11896D01*
X05945Y-11703D01*
X05798Y-11555D01*
X05605Y-11475D01*
X05396Y-11475D01*
X05203Y-11555D01*
X05055Y-11702D01*
X05049Y-11716D01*
X05049Y-05951D01*
X05084Y-05986D01*
X05175Y-06024D01*
X05200Y-06024D01*
X05200Y-06250D01*
X05223Y-06365D01*
X05288Y-06462D01*
X05537Y-06712D01*
X05538Y-06712D01*
X05635Y-06777D01*
X05750Y-06800D01*
X07626Y-06800D01*
X08538Y-07712D01*
X08635Y-07777D01*
X08750Y-07800D01*
X09876Y-07800D01*
X10075Y-07999D01*
X10075Y-08084D01*
X10139Y-08240D01*
X10259Y-08360D01*
X10415Y-08425D01*
X10584Y-08425D01*
X10740Y-08361D01*
X10860Y-08241D01*
X10925Y-08085D01*
X10925Y-07916D01*
X10861Y-07760D01*
X10741Y-07640D01*
X10585Y-07575D01*
X10499Y-07575D01*
X10212Y-07288D01*
X10115Y-07223D01*
X10000Y-07200D01*
X08874Y-07200D01*
X07962Y-06288D01*
X07865Y-06223D01*
X07750Y-06200D01*
X05874Y-06200D01*
X05800Y-06125D01*
X05800Y-06024D01*
X05824Y-06024D01*
X05916Y-05986D01*
X05986Y-05916D01*
X06024Y-05825D01*
X06024Y-05726D01*
X06024Y-05722D01*
X06055Y-05797D01*
X06202Y-05945D01*
X06395Y-06025D01*
X06604Y-06025D01*
X06797Y-05945D01*
X06945Y-05798D01*
X07000Y-05664D01*
X07055Y-05797D01*
X07202Y-05945D01*
X07395Y-06025D01*
X07604Y-06025D01*
X07797Y-05945D01*
X07945Y-05798D01*
X08000Y-05664D01*
X08055Y-05797D01*
X08202Y-05945D01*
X08395Y-06025D01*
X08604Y-06025D01*
X08797Y-05945D01*
X08945Y-05798D01*
X09000Y-05664D01*
X09055Y-05797D01*
X09202Y-05945D01*
X09395Y-06025D01*
X09604Y-06025D01*
X09797Y-05945D01*
X09945Y-05798D01*
X09976Y-05723D01*
X09976Y-05824D01*
X10014Y-05916D01*
X10084Y-05986D01*
X10175Y-06024D01*
X10274Y-06024D01*
X10824Y-06024D01*
X10916Y-05986D01*
X10986Y-05916D01*
X11024Y-05825D01*
X11024Y-05726D01*
X11024Y-05722D01*
X11055Y-05797D01*
X11202Y-05945D01*
X11395Y-06025D01*
X11604Y-06025D01*
X11797Y-05945D01*
X11945Y-05798D01*
X12000Y-05664D01*
X12055Y-05797D01*
X12202Y-05945D01*
X12395Y-06025D01*
X12604Y-06025D01*
X12797Y-05945D01*
X12945Y-05798D01*
X13000Y-05664D01*
X13055Y-05797D01*
X13202Y-05945D01*
X13395Y-06025D01*
X13604Y-06025D01*
X13797Y-05945D01*
X13945Y-05798D01*
X14025Y-05605D01*
X14025Y-05396D01*
X13945Y-05203D01*
X13798Y-05055D01*
X13783Y-05049D01*
X15049Y-05049D01*
X15014Y-05084D01*
X14976Y-05175D01*
X14976Y-05274D01*
X14976Y-05824D01*
X15014Y-05916D01*
X15084Y-05986D01*
X15175Y-06024D01*
X15200Y-06024D01*
X15200Y-06250D01*
X15223Y-06365D01*
X15288Y-06462D01*
X15537Y-06712D01*
X15538Y-06712D01*
X15635Y-06777D01*
X15750Y-06800D01*
X17626Y-06800D01*
X18538Y-07712D01*
X18635Y-07777D01*
X18750Y-07800D01*
X19876Y-07800D01*
X20075Y-07999D01*
X20075Y-08084D01*
X20139Y-08240D01*
X20259Y-08360D01*
X20415Y-08425D01*
X20584Y-08425D01*
X20740Y-08361D01*
X20860Y-08241D01*
X20925Y-08085D01*
X20925Y-07916D01*
X20861Y-07760D01*
X20741Y-07640D01*
X20585Y-07575D01*
X20499Y-07575D01*
X20212Y-07288D01*
X20115Y-07223D01*
X20000Y-07200D01*
X18874Y-07200D01*
X17962Y-06288D01*
X17865Y-06223D01*
X17750Y-06200D01*
X15874Y-06200D01*
X15800Y-06125D01*
X15800Y-06024D01*
X15824Y-06024D01*
X15916Y-05986D01*
X15986Y-05916D01*
X16024Y-05825D01*
X16024Y-05726D01*
X16024Y-05722D01*
X16055Y-05797D01*
X16202Y-05945D01*
X16395Y-06025D01*
X16604Y-06025D01*
X16797Y-05945D01*
X16945Y-05798D01*
X17000Y-05664D01*
X17055Y-05797D01*
X17202Y-05945D01*
X17395Y-06025D01*
X17604Y-06025D01*
X17797Y-05945D01*
X17945Y-05798D01*
X18000Y-05664D01*
X18055Y-05797D01*
X18202Y-05945D01*
X18395Y-06025D01*
X18604Y-06025D01*
X18797Y-05945D01*
X18945Y-05798D01*
X19000Y-05664D01*
X19055Y-05797D01*
X19202Y-05945D01*
X19395Y-06025D01*
X19604Y-06025D01*
X19797Y-05945D01*
X19945Y-05798D01*
X19976Y-05723D01*
X19976Y-05824D01*
X20014Y-05916D01*
X20084Y-05986D01*
X20175Y-06024D01*
X20274Y-06024D01*
X20824Y-06024D01*
X20916Y-05986D01*
X20986Y-05916D01*
X21024Y-05825D01*
X21024Y-05726D01*
X21024Y-05722D01*
X21055Y-05797D01*
X21202Y-05945D01*
X21395Y-06025D01*
X21604Y-06025D01*
X21797Y-05945D01*
X21945Y-05798D01*
X22000Y-05664D01*
X22055Y-05797D01*
X22202Y-05945D01*
X22395Y-06025D01*
X22604Y-06025D01*
X22797Y-05945D01*
X22945Y-05798D01*
X23000Y-05664D01*
X23055Y-05797D01*
X23202Y-05945D01*
X23395Y-06025D01*
X23604Y-06025D01*
X23797Y-05945D01*
X23945Y-05798D01*
X24025Y-05605D01*
X24025Y-05396D01*
X23945Y-05203D01*
X23798Y-05055D01*
X23783Y-05049D01*
X24084Y-05049D01*
X24084Y-24084D01*
X24084Y-24084D01*
G37*
G54D19*
X24084Y-24084D02*
X24025Y-24084D01*
X24025Y-18105D01*
X24025Y-17896D01*
X23945Y-17703D01*
X23798Y-17555D01*
X23664Y-17499D01*
X23797Y-17445D01*
X23945Y-17298D01*
X24025Y-17105D01*
X24025Y-16896D01*
X23945Y-16703D01*
X23798Y-16555D01*
X23664Y-16499D01*
X23797Y-16445D01*
X23945Y-16298D01*
X24025Y-16105D01*
X24025Y-15896D01*
X23945Y-15703D01*
X23798Y-15555D01*
X23664Y-15499D01*
X23797Y-15445D01*
X23945Y-15298D01*
X24025Y-15105D01*
X24025Y-14896D01*
X23945Y-14703D01*
X23798Y-14555D01*
X23664Y-14499D01*
X23797Y-14445D01*
X23945Y-14298D01*
X24025Y-14105D01*
X24025Y-13896D01*
X23945Y-13703D01*
X23798Y-13555D01*
X23664Y-13499D01*
X23797Y-13445D01*
X23945Y-13298D01*
X24025Y-13105D01*
X24025Y-12896D01*
X23945Y-12703D01*
X23798Y-12555D01*
X23664Y-12499D01*
X23797Y-12445D01*
X23945Y-12298D01*
X24025Y-12105D01*
X24025Y-11896D01*
X24025Y-10605D01*
X24025Y-10396D01*
X23945Y-10203D01*
X23798Y-10055D01*
X23605Y-09975D01*
X23396Y-09975D01*
X23203Y-10055D01*
X23055Y-10202D01*
X22999Y-10335D01*
X22945Y-10203D01*
X22798Y-10055D01*
X22605Y-09975D01*
X22396Y-09975D01*
X22203Y-10055D01*
X22055Y-10202D01*
X21999Y-10335D01*
X21945Y-10203D01*
X21798Y-10055D01*
X21605Y-09975D01*
X21396Y-09975D01*
X21203Y-10055D01*
X21055Y-10202D01*
X20999Y-10335D01*
X20945Y-10203D01*
X20798Y-10055D01*
X20605Y-09975D01*
X20396Y-09975D01*
X20203Y-10055D01*
X20055Y-10202D01*
X20024Y-10276D01*
X20024Y-10176D01*
X19986Y-10084D01*
X19916Y-10014D01*
X19825Y-09976D01*
X19726Y-09976D01*
X19176Y-09976D01*
X19084Y-10014D01*
X19014Y-10084D01*
X18976Y-10175D01*
X18976Y-10274D01*
X18976Y-10824D01*
X19014Y-10916D01*
X19084Y-10986D01*
X19175Y-11024D01*
X19274Y-11024D01*
X19824Y-11024D01*
X19916Y-10986D01*
X19986Y-10916D01*
X20024Y-10825D01*
X20024Y-10726D01*
X20024Y-10722D01*
X20055Y-10797D01*
X20202Y-10945D01*
X20395Y-11025D01*
X20604Y-11025D01*
X20797Y-10945D01*
X20945Y-10798D01*
X21000Y-10664D01*
X21055Y-10797D01*
X21202Y-10945D01*
X21395Y-11025D01*
X21604Y-11025D01*
X21797Y-10945D01*
X21945Y-10798D01*
X22000Y-10664D01*
X22055Y-10797D01*
X22202Y-10945D01*
X22395Y-11025D01*
X22604Y-11025D01*
X22797Y-10945D01*
X22945Y-10798D01*
X23000Y-10664D01*
X23055Y-10797D01*
X23202Y-10945D01*
X23395Y-11025D01*
X23604Y-11025D01*
X23797Y-10945D01*
X23945Y-10798D01*
X24025Y-10605D01*
X24025Y-11896D01*
X23945Y-11703D01*
X23798Y-11555D01*
X23605Y-11475D01*
X23396Y-11475D01*
X23203Y-11555D01*
X23057Y-11700D01*
X22500Y-11700D01*
X22385Y-11723D01*
X22288Y-11788D01*
X20775Y-13300D01*
X20856Y-13108D01*
X20856Y-12893D01*
X20774Y-12694D01*
X20622Y-12543D01*
X20519Y-12500D01*
X20622Y-12458D01*
X20773Y-12306D01*
X20856Y-12108D01*
X20856Y-11893D01*
X20774Y-11694D01*
X20622Y-11543D01*
X20424Y-11460D01*
X20209Y-11460D01*
X19932Y-11460D01*
X19884Y-11428D01*
X19750Y-11401D01*
X18025Y-11401D01*
X18025Y-08605D01*
X18025Y-08396D01*
X17945Y-08203D01*
X17798Y-08055D01*
X17664Y-07999D01*
X17797Y-07945D01*
X17945Y-07798D01*
X18025Y-07605D01*
X18025Y-07396D01*
X17945Y-07203D01*
X17798Y-07055D01*
X17605Y-06975D01*
X17396Y-06975D01*
X17203Y-07055D01*
X17055Y-07202D01*
X16975Y-07395D01*
X16975Y-07604D01*
X17055Y-07797D01*
X17202Y-07945D01*
X17335Y-08000D01*
X17203Y-08055D01*
X17055Y-08202D01*
X16975Y-08395D01*
X16975Y-08604D01*
X17055Y-08797D01*
X17202Y-08945D01*
X17395Y-09025D01*
X17604Y-09025D01*
X17797Y-08945D01*
X17945Y-08798D01*
X18025Y-08605D01*
X18025Y-11401D01*
X16750Y-11401D01*
X16749Y-11401D01*
X16616Y-11428D01*
X16503Y-11503D01*
X16501Y-11505D01*
X14531Y-13475D01*
X14396Y-13475D01*
X14203Y-13555D01*
X14055Y-13702D01*
X14025Y-13774D01*
X14025Y-10605D01*
X14025Y-10396D01*
X13945Y-10203D01*
X13798Y-10055D01*
X13605Y-09975D01*
X13396Y-09975D01*
X13203Y-10055D01*
X13055Y-10202D01*
X12999Y-10335D01*
X12945Y-10203D01*
X12798Y-10055D01*
X12605Y-09975D01*
X12396Y-09975D01*
X12203Y-10055D01*
X12055Y-10202D01*
X11999Y-10335D01*
X11945Y-10203D01*
X11798Y-10055D01*
X11605Y-09975D01*
X11396Y-09975D01*
X11203Y-10055D01*
X11055Y-10202D01*
X10999Y-10335D01*
X10945Y-10203D01*
X10798Y-10055D01*
X10605Y-09975D01*
X10396Y-09975D01*
X10203Y-10055D01*
X10055Y-10202D01*
X10024Y-10276D01*
X10024Y-10176D01*
X09986Y-10084D01*
X09916Y-10014D01*
X09825Y-09976D01*
X09726Y-09976D01*
X09176Y-09976D01*
X09084Y-10014D01*
X09014Y-10084D01*
X08976Y-10175D01*
X08976Y-10274D01*
X08976Y-10824D01*
X09014Y-10916D01*
X09084Y-10986D01*
X09175Y-11024D01*
X09274Y-11024D01*
X09824Y-11024D01*
X09916Y-10986D01*
X09986Y-10916D01*
X10024Y-10825D01*
X10024Y-10726D01*
X10024Y-10722D01*
X10055Y-10797D01*
X10202Y-10945D01*
X10395Y-11025D01*
X10604Y-11025D01*
X10797Y-10945D01*
X10945Y-10798D01*
X11000Y-10664D01*
X11055Y-10797D01*
X11202Y-10945D01*
X11395Y-11025D01*
X11604Y-11025D01*
X11797Y-10945D01*
X11945Y-10798D01*
X12000Y-10664D01*
X12055Y-10797D01*
X12202Y-10945D01*
X12395Y-11025D01*
X12604Y-11025D01*
X12797Y-10945D01*
X12945Y-10798D01*
X13000Y-10664D01*
X13055Y-10797D01*
X13202Y-10945D01*
X13395Y-11025D01*
X13604Y-11025D01*
X13797Y-10945D01*
X13945Y-10798D01*
X14025Y-10605D01*
X14025Y-13774D01*
X13975Y-13895D01*
X13975Y-14104D01*
X14055Y-14297D01*
X14202Y-14445D01*
X14335Y-14500D01*
X14203Y-14555D01*
X14055Y-14702D01*
X13975Y-14895D01*
X13975Y-15104D01*
X14055Y-15297D01*
X14202Y-15445D01*
X14335Y-15500D01*
X14203Y-15555D01*
X14055Y-15702D01*
X13975Y-15895D01*
X13975Y-16104D01*
X14055Y-16297D01*
X14202Y-16445D01*
X14276Y-16476D01*
X14176Y-16476D01*
X14084Y-16514D01*
X14014Y-16584D01*
X13976Y-16675D01*
X13976Y-16774D01*
X13976Y-17324D01*
X14014Y-17416D01*
X14084Y-17486D01*
X14175Y-17524D01*
X14274Y-17524D01*
X14824Y-17524D01*
X14916Y-17486D01*
X14986Y-17416D01*
X15024Y-17325D01*
X15024Y-17226D01*
X15024Y-16676D01*
X14986Y-16584D01*
X14916Y-16514D01*
X14825Y-16476D01*
X14726Y-16476D01*
X14722Y-16476D01*
X14797Y-16445D01*
X14942Y-16300D01*
X15125Y-16300D01*
X15200Y-16374D01*
X15200Y-17626D01*
X14288Y-18538D01*
X14223Y-18635D01*
X14200Y-18750D01*
X14200Y-20057D01*
X14055Y-20202D01*
X13975Y-20395D01*
X13975Y-20604D01*
X14055Y-20797D01*
X14202Y-20945D01*
X14335Y-21000D01*
X14203Y-21055D01*
X14055Y-21202D01*
X13975Y-21395D01*
X13975Y-21604D01*
X14055Y-21797D01*
X14202Y-21945D01*
X14335Y-22000D01*
X14203Y-22055D01*
X14055Y-22202D01*
X13975Y-22395D01*
X13975Y-22604D01*
X14055Y-22797D01*
X14202Y-22945D01*
X14335Y-23000D01*
X14203Y-23055D01*
X14055Y-23202D01*
X13975Y-23395D01*
X13975Y-23604D01*
X14055Y-23797D01*
X14202Y-23945D01*
X14395Y-24025D01*
X14604Y-24025D01*
X14797Y-23945D01*
X14945Y-23798D01*
X15025Y-23605D01*
X15025Y-23396D01*
X14945Y-23203D01*
X14798Y-23055D01*
X14664Y-22999D01*
X14797Y-22945D01*
X14945Y-22798D01*
X15025Y-22605D01*
X15025Y-22396D01*
X14945Y-22203D01*
X14798Y-22055D01*
X14664Y-21999D01*
X14797Y-21945D01*
X14945Y-21798D01*
X15025Y-21605D01*
X15025Y-21396D01*
X14945Y-21203D01*
X14798Y-21055D01*
X14664Y-20999D01*
X14797Y-20945D01*
X14945Y-20798D01*
X15025Y-20605D01*
X15025Y-20396D01*
X14945Y-20203D01*
X14800Y-20057D01*
X14800Y-18874D01*
X15651Y-18023D01*
X15651Y-19250D01*
X15678Y-19384D01*
X15753Y-19497D01*
X16001Y-19744D01*
X16003Y-19747D01*
X16116Y-19822D01*
X16117Y-19822D01*
X16250Y-19849D01*
X19500Y-19849D01*
X19633Y-19822D01*
X19634Y-19822D01*
X19747Y-19747D01*
X19954Y-19540D01*
X20423Y-19540D01*
X20622Y-19458D01*
X20700Y-19379D01*
X20700Y-19500D01*
X20723Y-19615D01*
X20788Y-19712D01*
X21037Y-19962D01*
X21038Y-19962D01*
X21135Y-20027D01*
X21250Y-20050D01*
X22625Y-20050D01*
X22976Y-20400D01*
X22976Y-20824D01*
X23014Y-20916D01*
X23084Y-20986D01*
X23117Y-21000D01*
X23084Y-21014D01*
X23014Y-21084D01*
X22976Y-21175D01*
X22976Y-21274D01*
X22976Y-21824D01*
X23014Y-21916D01*
X23084Y-21986D01*
X23117Y-22000D01*
X23084Y-22014D01*
X23014Y-22084D01*
X22976Y-22175D01*
X22976Y-22274D01*
X22976Y-22824D01*
X23014Y-22916D01*
X23084Y-22986D01*
X23117Y-23000D01*
X23084Y-23014D01*
X23014Y-23084D01*
X22976Y-23175D01*
X22976Y-23274D01*
X22976Y-23824D01*
X23014Y-23916D01*
X23084Y-23986D01*
X23175Y-24024D01*
X23274Y-24024D01*
X23824Y-24024D01*
X23916Y-23986D01*
X23986Y-23916D01*
X24024Y-23825D01*
X24024Y-23726D01*
X24024Y-23176D01*
X23986Y-23084D01*
X23916Y-23014D01*
X23882Y-22999D01*
X23916Y-22986D01*
X23986Y-22916D01*
X24024Y-22825D01*
X24024Y-22726D01*
X24024Y-22176D01*
X23986Y-22084D01*
X23916Y-22014D01*
X23882Y-21999D01*
X23916Y-21986D01*
X23986Y-21916D01*
X24024Y-21825D01*
X24024Y-21726D01*
X24024Y-21176D01*
X23986Y-21084D01*
X23916Y-21014D01*
X23882Y-20999D01*
X23916Y-20986D01*
X23986Y-20916D01*
X24024Y-20825D01*
X24024Y-20726D01*
X24024Y-20176D01*
X23986Y-20084D01*
X23916Y-20014D01*
X23825Y-19976D01*
X23726Y-19976D01*
X23400Y-19976D01*
X22962Y-19538D01*
X22865Y-19473D01*
X22750Y-19450D01*
X21374Y-19450D01*
X21300Y-19375D01*
X21300Y-17925D01*
X21325Y-17925D01*
X21325Y-18084D01*
X21389Y-18240D01*
X21509Y-18360D01*
X21665Y-18425D01*
X21751Y-18425D01*
X22538Y-19212D01*
X22635Y-19277D01*
X22750Y-19300D01*
X22976Y-19300D01*
X22976Y-19324D01*
X23014Y-19416D01*
X23084Y-19486D01*
X23175Y-19524D01*
X23274Y-19524D01*
X23824Y-19524D01*
X23916Y-19486D01*
X23986Y-19416D01*
X24024Y-19325D01*
X24024Y-19226D01*
X24024Y-18676D01*
X23986Y-18584D01*
X23916Y-18514D01*
X23825Y-18476D01*
X23726Y-18476D01*
X23722Y-18476D01*
X23797Y-18445D01*
X23945Y-18298D01*
X24025Y-18105D01*
X24025Y-24084D01*
X21025Y-24084D01*
X21025Y-23605D01*
X21025Y-23396D01*
X20945Y-23203D01*
X20798Y-23055D01*
X20664Y-22999D01*
X20797Y-22945D01*
X20945Y-22798D01*
X21025Y-22605D01*
X21025Y-22396D01*
X20945Y-22203D01*
X20798Y-22055D01*
X20664Y-21999D01*
X20797Y-21945D01*
X20945Y-21798D01*
X21025Y-21605D01*
X21025Y-21396D01*
X20945Y-21203D01*
X20798Y-21055D01*
X20664Y-20999D01*
X20797Y-20945D01*
X20945Y-20798D01*
X21025Y-20605D01*
X21025Y-20396D01*
X20945Y-20203D01*
X20798Y-20055D01*
X20605Y-19975D01*
X20396Y-19975D01*
X20203Y-20055D01*
X20106Y-20151D01*
X19513Y-20151D01*
X19486Y-20084D01*
X19416Y-20014D01*
X19325Y-19976D01*
X19226Y-19976D01*
X18676Y-19976D01*
X18584Y-20014D01*
X18514Y-20084D01*
X18486Y-20151D01*
X18013Y-20151D01*
X17986Y-20084D01*
X17916Y-20014D01*
X17825Y-19976D01*
X17726Y-19976D01*
X17176Y-19976D01*
X17084Y-20014D01*
X17014Y-20084D01*
X16976Y-20175D01*
X16976Y-20274D01*
X16976Y-20824D01*
X17014Y-20916D01*
X17084Y-20986D01*
X17117Y-21000D01*
X17084Y-21014D01*
X17014Y-21084D01*
X16976Y-21175D01*
X16976Y-21274D01*
X16976Y-21824D01*
X17014Y-21916D01*
X17084Y-21986D01*
X17117Y-22000D01*
X17084Y-22014D01*
X17014Y-22084D01*
X16976Y-22175D01*
X16976Y-22274D01*
X16976Y-22824D01*
X17014Y-22916D01*
X17084Y-22986D01*
X17117Y-23000D01*
X17084Y-23014D01*
X17014Y-23084D01*
X16976Y-23175D01*
X16976Y-23274D01*
X16976Y-23824D01*
X17014Y-23916D01*
X17084Y-23986D01*
X17175Y-24024D01*
X17274Y-24024D01*
X17824Y-24024D01*
X17916Y-23986D01*
X17986Y-23916D01*
X18013Y-23849D01*
X18606Y-23849D01*
X18702Y-23945D01*
X18895Y-24025D01*
X19104Y-24025D01*
X19297Y-23945D01*
X19393Y-23849D01*
X20106Y-23849D01*
X20202Y-23945D01*
X20395Y-24025D01*
X20604Y-24025D01*
X20797Y-23945D01*
X20945Y-23798D01*
X21025Y-23605D01*
X21025Y-24084D01*
X11893Y-24084D01*
X11893Y-21906D01*
X11893Y-21595D01*
X11774Y-21308D01*
X11555Y-21088D01*
X11268Y-20969D01*
X10957Y-20969D01*
X10670Y-21088D01*
X10450Y-21307D01*
X10331Y-21594D01*
X10331Y-21905D01*
X10450Y-22192D01*
X10669Y-22412D01*
X10956Y-22531D01*
X11267Y-22531D01*
X11554Y-22412D01*
X11774Y-22193D01*
X11893Y-21906D01*
X11893Y-24084D01*
X05049Y-24084D01*
X05049Y-23782D01*
X05055Y-23797D01*
X05202Y-23945D01*
X05395Y-24025D01*
X05604Y-24025D01*
X05797Y-23945D01*
X05945Y-23798D01*
X06025Y-23605D01*
X06025Y-23396D01*
X05945Y-23203D01*
X05798Y-23055D01*
X05605Y-22975D01*
X05396Y-22975D01*
X05203Y-23055D01*
X05055Y-23202D01*
X05049Y-23216D01*
X05049Y-20782D01*
X05055Y-20797D01*
X05202Y-20945D01*
X05395Y-21025D01*
X05604Y-21025D01*
X05797Y-20945D01*
X05945Y-20798D01*
X06025Y-20605D01*
X06025Y-20396D01*
X05945Y-20203D01*
X05798Y-20055D01*
X05605Y-19975D01*
X05396Y-19975D01*
X05203Y-20055D01*
X05055Y-20202D01*
X05049Y-20216D01*
X05049Y-18701D01*
X05084Y-18736D01*
X05154Y-18765D01*
X05178Y-18884D01*
X05253Y-18997D01*
X06401Y-20144D01*
X06401Y-20750D01*
X06428Y-20884D01*
X06484Y-20969D01*
X06233Y-20969D01*
X05946Y-21088D01*
X05726Y-21307D01*
X05607Y-21594D01*
X05607Y-21905D01*
X05726Y-22192D01*
X05945Y-22412D01*
X06232Y-22531D01*
X06543Y-22531D01*
X06830Y-22412D01*
X07050Y-22193D01*
X07169Y-21906D01*
X07169Y-21662D01*
X07251Y-21744D01*
X07253Y-21747D01*
X07366Y-21822D01*
X07367Y-21822D01*
X07500Y-21849D01*
X08750Y-21849D01*
X08883Y-21822D01*
X08884Y-21822D01*
X08997Y-21747D01*
X09497Y-21247D01*
X09559Y-21152D01*
X09561Y-21152D01*
X09715Y-20998D01*
X09715Y-20996D01*
X09810Y-20934D01*
X10247Y-20497D01*
X10322Y-20384D01*
X10322Y-20383D01*
X10349Y-20250D01*
X10349Y-19599D01*
X10750Y-19599D01*
X10883Y-19572D01*
X10884Y-19572D01*
X10997Y-19497D01*
X11499Y-18993D01*
X11776Y-19270D01*
X11725Y-19395D01*
X11725Y-19604D01*
X11805Y-19797D01*
X11952Y-19945D01*
X12026Y-19976D01*
X11926Y-19976D01*
X11834Y-20014D01*
X11764Y-20084D01*
X11726Y-20175D01*
X11726Y-20274D01*
X11726Y-20824D01*
X11764Y-20916D01*
X11834Y-20986D01*
X11925Y-21024D01*
X12024Y-21024D01*
X12574Y-21024D01*
X12666Y-20986D01*
X12736Y-20916D01*
X12774Y-20825D01*
X12774Y-20726D01*
X12774Y-20176D01*
X12736Y-20084D01*
X12666Y-20014D01*
X12575Y-19976D01*
X12476Y-19976D01*
X12472Y-19976D01*
X12547Y-19945D01*
X12695Y-19798D01*
X12775Y-19605D01*
X12775Y-19396D01*
X12695Y-19203D01*
X12548Y-19055D01*
X12525Y-19045D01*
X12524Y-19045D01*
X12497Y-19003D01*
X12494Y-19001D01*
X11868Y-18374D01*
X11945Y-18298D01*
X12000Y-18164D01*
X12055Y-18297D01*
X12202Y-18445D01*
X12395Y-18525D01*
X12604Y-18525D01*
X12797Y-18445D01*
X12945Y-18298D01*
X13025Y-18105D01*
X13025Y-17896D01*
X12945Y-17703D01*
X12798Y-17555D01*
X12723Y-17524D01*
X12824Y-17524D01*
X12916Y-17486D01*
X12986Y-17416D01*
X13024Y-17325D01*
X13024Y-17226D01*
X13024Y-16676D01*
X12986Y-16584D01*
X12916Y-16514D01*
X12825Y-16476D01*
X12726Y-16476D01*
X12722Y-16476D01*
X12797Y-16445D01*
X12945Y-16298D01*
X13025Y-16105D01*
X13025Y-15896D01*
X12945Y-15703D01*
X12798Y-15555D01*
X12664Y-15499D01*
X12797Y-15445D01*
X12945Y-15298D01*
X13025Y-15105D01*
X13025Y-14896D01*
X12945Y-14703D01*
X12798Y-14555D01*
X12664Y-14499D01*
X12797Y-14445D01*
X12945Y-14298D01*
X13025Y-14105D01*
X13025Y-13896D01*
X12945Y-13703D01*
X12798Y-13555D01*
X12664Y-13499D01*
X12797Y-13445D01*
X12945Y-13298D01*
X13025Y-13105D01*
X13025Y-12896D01*
X12945Y-12703D01*
X12798Y-12555D01*
X12664Y-12499D01*
X12797Y-12445D01*
X12945Y-12298D01*
X13025Y-12105D01*
X13025Y-11896D01*
X12945Y-11703D01*
X12798Y-11555D01*
X12605Y-11475D01*
X12396Y-11475D01*
X12203Y-11555D01*
X12055Y-11702D01*
X11975Y-11895D01*
X11975Y-12104D01*
X12055Y-12297D01*
X12202Y-12445D01*
X12335Y-12500D01*
X12203Y-12555D01*
X12055Y-12702D01*
X11975Y-12895D01*
X11975Y-13104D01*
X12055Y-13297D01*
X12202Y-13445D01*
X12335Y-13500D01*
X12203Y-13555D01*
X12055Y-13702D01*
X11975Y-13895D01*
X11975Y-14104D01*
X12055Y-14297D01*
X12202Y-14445D01*
X12335Y-14500D01*
X12203Y-14555D01*
X12055Y-14702D01*
X11997Y-14840D01*
X11962Y-14788D01*
X11962Y-14787D01*
X11712Y-14538D01*
X11615Y-14473D01*
X11500Y-14450D01*
X10425Y-14450D01*
X10425Y-14416D01*
X10361Y-14260D01*
X10241Y-14140D01*
X10085Y-14075D01*
X09916Y-14075D01*
X09760Y-14139D01*
X09640Y-14259D01*
X09575Y-14415D01*
X09575Y-14584D01*
X09639Y-14740D01*
X09759Y-14860D01*
X09915Y-14925D01*
X10000Y-14925D01*
X10037Y-14962D01*
X10038Y-14962D01*
X10135Y-15027D01*
X10250Y-15050D01*
X11375Y-15050D01*
X11450Y-15124D01*
X11450Y-16250D01*
X11473Y-16365D01*
X11538Y-16462D01*
X11976Y-16900D01*
X11976Y-17324D01*
X12014Y-17416D01*
X12084Y-17486D01*
X12175Y-17524D01*
X12274Y-17524D01*
X12203Y-17555D01*
X12055Y-17702D01*
X11999Y-17835D01*
X11945Y-17703D01*
X11798Y-17555D01*
X11605Y-17475D01*
X11396Y-17475D01*
X11203Y-17555D01*
X11055Y-17702D01*
X11024Y-17776D01*
X11024Y-17676D01*
X10986Y-17584D01*
X10916Y-17514D01*
X10825Y-17476D01*
X10726Y-17476D01*
X10176Y-17476D01*
X10084Y-17514D01*
X10014Y-17584D01*
X09976Y-17675D01*
X09976Y-17774D01*
X09976Y-18324D01*
X10014Y-18416D01*
X10084Y-18486D01*
X10175Y-18524D01*
X10274Y-18524D01*
X10824Y-18524D01*
X10916Y-18486D01*
X10986Y-18416D01*
X11024Y-18325D01*
X11024Y-18226D01*
X11024Y-18222D01*
X11055Y-18297D01*
X11132Y-18374D01*
X10605Y-18901D01*
X10000Y-18901D01*
X09895Y-18901D01*
X09275Y-18281D01*
X09275Y-18146D01*
X09195Y-17953D01*
X09048Y-17805D01*
X08914Y-17749D01*
X09047Y-17695D01*
X09195Y-17548D01*
X09275Y-17355D01*
X09275Y-17146D01*
X09195Y-16953D01*
X09048Y-16805D01*
X08855Y-16725D01*
X08646Y-16725D01*
X08453Y-16805D01*
X08305Y-16952D01*
X08300Y-16964D01*
X08300Y-16624D01*
X09124Y-15800D01*
X09199Y-15800D01*
X09259Y-15860D01*
X09415Y-15925D01*
X09584Y-15925D01*
X09740Y-15861D01*
X09860Y-15741D01*
X09925Y-15585D01*
X09925Y-15416D01*
X09861Y-15260D01*
X09741Y-15140D01*
X09585Y-15075D01*
X09416Y-15075D01*
X09260Y-15139D01*
X09199Y-15200D01*
X09000Y-15200D01*
X08885Y-15223D01*
X08788Y-15288D01*
X07788Y-16288D01*
X07723Y-16385D01*
X07700Y-16500D01*
X07700Y-16622D01*
X07585Y-16575D01*
X07416Y-16575D01*
X07260Y-16639D01*
X07140Y-16759D01*
X07075Y-16915D01*
X07075Y-16950D01*
X06500Y-16950D01*
X06385Y-16973D01*
X06288Y-17038D01*
X06024Y-17302D01*
X06024Y-17226D01*
X06024Y-16900D01*
X06462Y-16463D01*
X06462Y-16462D01*
X06527Y-16365D01*
X06549Y-16250D01*
X06550Y-16250D01*
X06550Y-15124D01*
X06624Y-15050D01*
X07750Y-15050D01*
X07865Y-15027D01*
X07962Y-14962D01*
X07999Y-14925D01*
X08084Y-14925D01*
X08240Y-14861D01*
X08360Y-14741D01*
X08425Y-14585D01*
X08425Y-14416D01*
X08361Y-14260D01*
X08241Y-14140D01*
X08085Y-14075D01*
X08025Y-14075D01*
X08025Y-08605D01*
X08025Y-08396D01*
X07945Y-08203D01*
X07798Y-08055D01*
X07664Y-07999D01*
X07797Y-07945D01*
X07945Y-07798D01*
X08025Y-07605D01*
X08025Y-07396D01*
X07945Y-07203D01*
X07798Y-07055D01*
X07605Y-06975D01*
X07396Y-06975D01*
X07203Y-07055D01*
X07055Y-07202D01*
X06975Y-07395D01*
X06975Y-07604D01*
X07055Y-07797D01*
X07202Y-07945D01*
X07335Y-08000D01*
X07203Y-08055D01*
X07055Y-08202D01*
X06975Y-08395D01*
X06975Y-08604D01*
X07055Y-08797D01*
X07202Y-08945D01*
X07395Y-09025D01*
X07604Y-09025D01*
X07797Y-08945D01*
X07945Y-08798D01*
X08025Y-08605D01*
X08025Y-14075D01*
X07916Y-14075D01*
X07760Y-14139D01*
X07640Y-14259D01*
X07575Y-14415D01*
X07575Y-14450D01*
X06500Y-14450D01*
X06385Y-14473D01*
X06287Y-14538D01*
X06038Y-14788D01*
X06002Y-14841D01*
X05945Y-14703D01*
X05798Y-14555D01*
X05664Y-14499D01*
X05797Y-14445D01*
X05945Y-14298D01*
X06025Y-14105D01*
X06025Y-13896D01*
X05945Y-13703D01*
X05798Y-13555D01*
X05664Y-13499D01*
X05797Y-13445D01*
X05945Y-13298D01*
X06025Y-13105D01*
X06025Y-12896D01*
X05945Y-12703D01*
X05798Y-12555D01*
X05664Y-12499D01*
X05797Y-12445D01*
X05945Y-12298D01*
X06025Y-12105D01*
X06025Y-11896D01*
X05945Y-11703D01*
X05798Y-11555D01*
X05605Y-11475D01*
X05396Y-11475D01*
X05203Y-11555D01*
X05055Y-11702D01*
X05049Y-11716D01*
X05049Y-05951D01*
X05084Y-05986D01*
X05175Y-06024D01*
X05200Y-06024D01*
X05200Y-06250D01*
X05223Y-06365D01*
X05288Y-06462D01*
X05537Y-06712D01*
X05538Y-06712D01*
X05635Y-06777D01*
X05750Y-06800D01*
X07626Y-06800D01*
X08538Y-07712D01*
X08635Y-07777D01*
X08750Y-07800D01*
X09876Y-07800D01*
X10075Y-07999D01*
X10075Y-08084D01*
X10139Y-08240D01*
X10259Y-08360D01*
X10415Y-08425D01*
X10584Y-08425D01*
X10740Y-08361D01*
X10860Y-08241D01*
X10925Y-08085D01*
X10925Y-07916D01*
X10861Y-07760D01*
X10741Y-07640D01*
X10585Y-07575D01*
X10499Y-07575D01*
X10212Y-07288D01*
X10115Y-07223D01*
X10000Y-07200D01*
X08874Y-07200D01*
X07962Y-06288D01*
X07865Y-06223D01*
X07750Y-06200D01*
X05874Y-06200D01*
X05800Y-06125D01*
X05800Y-06024D01*
X05824Y-06024D01*
X05916Y-05986D01*
X05986Y-05916D01*
X06024Y-05825D01*
X06024Y-05726D01*
X06024Y-05722D01*
X06055Y-05797D01*
X06202Y-05945D01*
X06395Y-06025D01*
X06604Y-06025D01*
X06797Y-05945D01*
X06945Y-05798D01*
X07000Y-05664D01*
X07055Y-05797D01*
X07202Y-05945D01*
X07395Y-06025D01*
X07604Y-06025D01*
X07797Y-05945D01*
X07945Y-05798D01*
X08000Y-05664D01*
X08055Y-05797D01*
X08202Y-05945D01*
X08395Y-06025D01*
X08604Y-06025D01*
X08797Y-05945D01*
X08945Y-05798D01*
X09000Y-05664D01*
X09055Y-05797D01*
X09202Y-05945D01*
X09395Y-06025D01*
X09604Y-06025D01*
X09797Y-05945D01*
X09945Y-05798D01*
X09976Y-05723D01*
X09976Y-05824D01*
X10014Y-05916D01*
X10084Y-05986D01*
X10175Y-06024D01*
X10274Y-06024D01*
X10824Y-06024D01*
X10916Y-05986D01*
X10986Y-05916D01*
X11024Y-05825D01*
X11024Y-05726D01*
X11024Y-05722D01*
X11055Y-05797D01*
X11202Y-05945D01*
X11395Y-06025D01*
X11604Y-06025D01*
X11797Y-05945D01*
X11945Y-05798D01*
X12000Y-05664D01*
X12055Y-05797D01*
X12202Y-05945D01*
X12395Y-06025D01*
X12604Y-06025D01*
X12797Y-05945D01*
X12945Y-05798D01*
X13000Y-05664D01*
X13055Y-05797D01*
X13202Y-05945D01*
X13395Y-06025D01*
X13604Y-06025D01*
X13797Y-05945D01*
X13945Y-05798D01*
X14025Y-05605D01*
X14025Y-05396D01*
X13945Y-05203D01*
X13798Y-05055D01*
X13783Y-05049D01*
X15049Y-05049D01*
X15014Y-05084D01*
X14976Y-05175D01*
X14976Y-05274D01*
X14976Y-05824D01*
X15014Y-05916D01*
X15084Y-05986D01*
X15175Y-06024D01*
X15200Y-06024D01*
X15200Y-06250D01*
X15223Y-06365D01*
X15288Y-06462D01*
X15537Y-06712D01*
X15538Y-06712D01*
X15635Y-06777D01*
X15750Y-06800D01*
X17626Y-06800D01*
X18538Y-07712D01*
X18635Y-07777D01*
X18750Y-07800D01*
X19876Y-07800D01*
X20075Y-07999D01*
X20075Y-08084D01*
X20139Y-08240D01*
X20259Y-08360D01*
X20415Y-08425D01*
X20584Y-08425D01*
X20740Y-08361D01*
X20860Y-08241D01*
X20925Y-08085D01*
X20925Y-07916D01*
X20861Y-07760D01*
X20741Y-07640D01*
X20585Y-07575D01*
X20499Y-07575D01*
X20212Y-07288D01*
X20115Y-07223D01*
X20000Y-07200D01*
X18874Y-07200D01*
X17962Y-06288D01*
X17865Y-06223D01*
X17750Y-06200D01*
X15874Y-06200D01*
X15800Y-06125D01*
X15800Y-06024D01*
X15824Y-06024D01*
X15916Y-05986D01*
X15986Y-05916D01*
X16024Y-05825D01*
X16024Y-05726D01*
X16024Y-05722D01*
X16055Y-05797D01*
X16202Y-05945D01*
X16395Y-06025D01*
X16604Y-06025D01*
X16797Y-05945D01*
X16945Y-05798D01*
X17000Y-05664D01*
X17055Y-05797D01*
X17202Y-05945D01*
X17395Y-06025D01*
X17604Y-06025D01*
X17797Y-05945D01*
X17945Y-05798D01*
X18000Y-05664D01*
X18055Y-05797D01*
X18202Y-05945D01*
X18395Y-06025D01*
X18604Y-06025D01*
X18797Y-05945D01*
X18945Y-05798D01*
X19000Y-05664D01*
X19055Y-05797D01*
X19202Y-05945D01*
X19395Y-06025D01*
X19604Y-06025D01*
X19797Y-05945D01*
X19945Y-05798D01*
X19976Y-05723D01*
X19976Y-05824D01*
X20014Y-05916D01*
X20084Y-05986D01*
X20175Y-06024D01*
X20274Y-06024D01*
X20824Y-06024D01*
X20916Y-05986D01*
X20986Y-05916D01*
X21024Y-05825D01*
X21024Y-05726D01*
X21024Y-05722D01*
X21055Y-05797D01*
X21202Y-05945D01*
X21395Y-06025D01*
X21604Y-06025D01*
X21797Y-05945D01*
X21945Y-05798D01*
X22000Y-05664D01*
X22055Y-05797D01*
X22202Y-05945D01*
X22395Y-06025D01*
X22604Y-06025D01*
X22797Y-05945D01*
X22945Y-05798D01*
X23000Y-05664D01*
X23055Y-05797D01*
X23202Y-05945D01*
X23395Y-06025D01*
X23604Y-06025D01*
X23797Y-05945D01*
X23945Y-05798D01*
X24025Y-05605D01*
X24025Y-05396D01*
X23945Y-05203D01*
X23798Y-05055D01*
X23783Y-05049D01*
X24084Y-05049D01*
X24084Y-24084D01*
M02*
