G04 (created by PCBNEW-RS274X (2011-12-28 BZR 3254)-stable) date 2012. 03. 26. 13:07:31*
G01*
G70*
G90*
%MOIN*%
G04 Gerber Fmt 3.4, Leading zero omitted, Abs format*
%FSLAX34Y34*%
G04 APERTURE LIST*
%ADD10C,0.006000*%
%ADD11C,0.015000*%
%ADD12C,0.080000*%
%ADD13C,0.126300*%
%ADD14R,0.075000X0.075000*%
%ADD15C,0.075000*%
%ADD16C,0.055000*%
G04 APERTURE END LIST*
G54D10*
G54D11*
X23622Y-04724D02*
X04724Y-04724D01*
X23622Y-24213D02*
X23622Y-04724D01*
X04724Y-24213D02*
X23622Y-24213D01*
X04724Y-04724D02*
X04724Y-24213D01*
%LPC*%
G54D12*
X09250Y-19900D03*
X08250Y-19900D03*
X08250Y-20687D03*
X09250Y-20687D03*
G54D13*
X11112Y-21750D03*
X06388Y-21750D03*
G54D14*
X23000Y-19000D03*
G54D15*
X23000Y-18000D03*
X23000Y-17000D03*
X23000Y-16000D03*
X23000Y-15000D03*
X23000Y-14000D03*
X23000Y-13000D03*
X23000Y-12000D03*
G54D14*
X12500Y-17000D03*
G54D15*
X12500Y-16000D03*
X12500Y-15000D03*
X12500Y-14000D03*
X12500Y-13000D03*
X12500Y-12000D03*
G54D14*
X05500Y-17000D03*
G54D15*
X05500Y-16000D03*
X05500Y-15000D03*
X05500Y-14000D03*
X05500Y-13000D03*
X05500Y-12000D03*
G54D14*
X15000Y-05500D03*
G54D15*
X16000Y-05500D03*
X17000Y-05500D03*
X18000Y-05500D03*
X19000Y-05500D03*
G54D14*
X19000Y-10500D03*
G54D15*
X20000Y-10500D03*
X21000Y-10500D03*
X22000Y-10500D03*
X23000Y-10500D03*
G54D14*
X09500Y-10500D03*
G54D15*
X10500Y-10500D03*
X11500Y-10500D03*
X12500Y-10500D03*
X13500Y-10500D03*
G54D14*
X05500Y-05500D03*
G54D15*
X06500Y-05500D03*
X07500Y-05500D03*
X08500Y-05500D03*
X09500Y-05500D03*
G54D14*
X20000Y-05500D03*
G54D15*
X21000Y-05500D03*
X22000Y-05500D03*
X23000Y-05500D03*
G54D14*
X10500Y-05500D03*
G54D15*
X11500Y-05500D03*
X12500Y-05500D03*
X13500Y-05500D03*
G54D14*
X14000Y-17000D03*
G54D15*
X14000Y-16000D03*
X14000Y-15000D03*
X14000Y-14000D03*
G54D14*
X18500Y-20500D03*
G54D15*
X18500Y-21500D03*
X18500Y-22500D03*
X18500Y-23500D03*
G54D14*
X10500Y-18000D03*
G54D15*
X11500Y-18000D03*
X12500Y-18000D03*
G54D14*
X05500Y-18250D03*
G54D15*
X06500Y-18250D03*
X05500Y-20500D03*
X05500Y-23500D03*
G54D14*
X17000Y-23500D03*
G54D15*
X14000Y-23500D03*
G54D14*
X23000Y-23500D03*
G54D15*
X20000Y-23500D03*
G54D14*
X17000Y-22500D03*
G54D15*
X14000Y-22500D03*
G54D14*
X23000Y-22500D03*
G54D15*
X20000Y-22500D03*
G54D14*
X17000Y-21500D03*
G54D15*
X14000Y-21500D03*
G54D14*
X23000Y-21500D03*
G54D15*
X20000Y-21500D03*
G54D14*
X17000Y-20500D03*
G54D15*
X14000Y-20500D03*
G54D14*
X23000Y-20500D03*
G54D15*
X20000Y-20500D03*
X08750Y-18250D03*
X08750Y-17250D03*
X07500Y-08500D03*
X07500Y-07500D03*
X17000Y-08500D03*
X17000Y-07500D03*
G54D14*
X12250Y-20500D03*
G54D15*
X12250Y-19500D03*
G54D16*
X21250Y-18000D03*
X22250Y-16500D03*
X20750Y-14250D03*
X10500Y-08000D03*
X08000Y-14500D03*
X07500Y-17000D03*
X10000Y-14500D03*
X20000Y-08000D03*
X16250Y-18750D03*
X09500Y-15500D03*
X20750Y-17500D03*
M02*
