G04 (created by PCBNEW-RS274X (2011-12-28 BZR 3254)-stable) date 2012. 03. 22. 18:32:51*
G01*
G70*
G90*
%MOIN*%
G04 Gerber Fmt 3.4, Leading zero omitted, Abs format*
%FSLAX34Y34*%
G04 APERTURE LIST*
%ADD10C,0.006000*%
%ADD11C,0.015000*%
%ADD12R,0.050000X0.020000*%
%ADD13R,0.020000X0.045000*%
%ADD14O,0.120000X0.060000*%
G04 APERTURE END LIST*
G54D10*
G54D11*
X04724Y-24409D02*
X04724Y-04724D01*
X24409Y-24409D02*
X04724Y-24409D01*
X24409Y-04724D02*
X24409Y-24409D01*
X04724Y-04724D02*
X24409Y-04724D01*
G54D12*
X07100Y-11750D03*
X07100Y-12250D03*
X07100Y-12750D03*
X07100Y-13250D03*
X07100Y-13750D03*
X07100Y-14250D03*
X07100Y-14750D03*
X07100Y-15250D03*
X07100Y-15750D03*
X07100Y-16250D03*
X10900Y-16250D03*
X10900Y-15750D03*
X10900Y-15250D03*
X10900Y-14750D03*
X10900Y-14250D03*
X10900Y-13750D03*
X10900Y-13250D03*
X10900Y-12750D03*
X10900Y-12250D03*
X10900Y-11750D03*
G54D13*
X09000Y-09300D03*
X09500Y-09300D03*
X10000Y-09300D03*
X10500Y-09300D03*
X11000Y-09300D03*
X11500Y-09300D03*
X12000Y-09300D03*
X12000Y-06800D03*
X11500Y-06800D03*
X10500Y-06800D03*
X10000Y-06800D03*
X09500Y-06800D03*
X09000Y-06800D03*
X11000Y-06800D03*
X19000Y-09300D03*
X19500Y-09300D03*
X20000Y-09300D03*
X20500Y-09300D03*
X21000Y-09300D03*
X21500Y-09300D03*
X22000Y-09300D03*
X22000Y-06800D03*
X21500Y-06800D03*
X20500Y-06800D03*
X20000Y-06800D03*
X19500Y-06800D03*
X19000Y-06800D03*
X21000Y-06800D03*
G54D14*
X20000Y-19000D03*
X18000Y-18500D03*
X20000Y-18000D03*
X18000Y-17500D03*
X20000Y-17000D03*
X18000Y-16500D03*
X20000Y-16000D03*
X18000Y-15500D03*
X20000Y-15000D03*
X18000Y-14500D03*
X20000Y-14000D03*
X18000Y-13500D03*
X20000Y-13000D03*
X18000Y-12500D03*
X20000Y-12000D03*
M02*
